M48
METRIC,TZ
T1C0.400
T2C0.700
T3C0.762
T4C0.920
T5C1.020
T6C1.150
T7C1.250
T8C3.180
%
G90
G05
T1
X105500Y-89500
X106250Y-85250
X110430Y-60040
X110458Y-82008
X111500Y-70000
X111853Y-64613
X113000Y-68000
X113249Y-64296
X113300Y-59325
X113650Y-56400
X114000Y-58655
X114000Y-62000
X114259Y-66763
X115430Y-94290
X115500Y-37500
X116000Y-85500
X117000Y-61000
X117000Y-83000
X117500Y-104500
X117950Y-48525
X118003Y-77729
X119500Y-77000
X119975Y-58600
X120290Y-85816
X120300Y-50230
X120500Y-84000
X120676Y-93649
X121125Y-77000
X122011Y-89256
X122207Y-84459
X123000Y-97000
X123049Y-31186
X124000Y-39250
X124042Y-96574
X124600Y-74400
X125000Y-57000
X125400Y-79000
X125500Y-39000
X126000Y-65575
X126341Y-40909
X126956Y-73113
X127280Y-55500
X127490Y-49350
X127500Y-85000
X127692Y-86808
X128431Y-58636
X129765Y-41474
X130000Y-38000
X130409Y-57072
X130750Y-69950
X130775Y-67450
X131300Y-92190
X131453Y-39282
X131518Y-58606
X131562Y-61932
X132650Y-63050
X132700Y-48295
X132722Y-66651
X132869Y-98328
X132871Y-94850
X132993Y-57050
X133035Y-41035
X133240Y-59167
X133683Y-53129
X133925Y-68250
X134000Y-44000
X134000Y-71000
X134105Y-96287
X134900Y-58070
X135500Y-31750
X135680Y-63928
X135709Y-69159
X135759Y-67300
X136000Y-36000
X136000Y-41000
X136000Y-59000
X136201Y-53654
X136269Y-49800
X136294Y-71085
X136703Y-64849
X136991Y-87991
X137000Y-45000
X137000Y-75000
X137000Y-93000
X137260Y-46641
X137590Y-34989
X137669Y-96625
X137686Y-39183
X138000Y-32000
X138179Y-92537
X138500Y-42000
X138500Y-42000
X138775Y-51912
X139000Y-29250
X139000Y-49000
X139083Y-53855
X139434Y-78024
X139750Y-72875
X139862Y-66404
X139893Y-89443
X140000Y-60000
X140205Y-80912
X140337Y-78930
X140345Y-78124
X140410Y-57092
X140458Y-68761
X140500Y-34250
X140500Y-38000
X140500Y-103000
X140706Y-90219
X140875Y-58016
X140966Y-50725
X141000Y-73975
X141007Y-94058
X141037Y-80036
X141136Y-79142
X141169Y-68198
X141346Y-52425
X141700Y-62175
X141750Y-60225
X141800Y-80275
X142200Y-82025
X142358Y-72312
X142378Y-70509
X143000Y-36000
X143150Y-58900
X143388Y-71911
X143830Y-56111
X143950Y-48600
X144000Y-45000
X144070Y-34934
X144300Y-52364
X144462Y-57079
X144768Y-64313
X144825Y-78000
X145000Y-98000
X145080Y-55575
X145520Y-71690
X145787Y-51601
X146088Y-73408
X146500Y-103000
X146642Y-49442
X146672Y-52024
X147000Y-36000
X147000Y-45000
X147225Y-72370
X147260Y-74070
X147624Y-31916
X147647Y-45643
X147840Y-96010
X148000Y-48000
X148355Y-73975
X148525Y-59056
X149000Y-29250
X149318Y-50673
X149370Y-55660
X149452Y-72607
X149773Y-49147
X150160Y-37790
X150780Y-96800
X151760Y-73390
X151800Y-77675
X152575Y-73409
X152692Y-102933
X153035Y-74064
X153471Y-65535
X154275Y-50000
X154825Y-73661
X154941Y-65899
X155150Y-72300
X155225Y-52325
X155426Y-74189
X155868Y-45594
X155950Y-82425
X156092Y-66538
X156125Y-77511
X156475Y-71125
X157150Y-72300
X157345Y-97159
X157775Y-81150
X157800Y-55925
X158000Y-58000
X158250Y-64375
X158283Y-73581
X158402Y-52291
X159434Y-43916
X161550Y-56550
X161602Y-73358
X161810Y-79750
X161881Y-74268
X162000Y-60000
X162355Y-72236
X163000Y-57000
X163326Y-82951
X163459Y-58884
X163810Y-64627
X164832Y-68449
X165191Y-87765
X165350Y-62125
X165672Y-75000
X166350Y-90350
X166425Y-63088
X166450Y-91167
X166489Y-92755
X166532Y-93554
X166567Y-91959
X166943Y-78186
X167467Y-71110
X167733Y-78308
X167933Y-71760
X167933Y-74810
X168075Y-87358
X168437Y-55066
X168675Y-47825
X169522Y-48131
X169531Y-86160
X169633Y-81167
X169690Y-85252
X169721Y-58733
X170035Y-86785
X170068Y-55381
X170106Y-83752
X170325Y-82500
X170369Y-48598
X171285Y-86843
X171325Y-42150
X171452Y-87730
X171750Y-40213
X171892Y-43667
X172478Y-69969
X172702Y-87660
X173340Y-56080
X173350Y-41125
X174150Y-89792
X174500Y-59800
X174925Y-72900
X175000Y-64000
X175898Y-86880
X175926Y-74530
X176475Y-85950
X176491Y-73927
X176975Y-81600
X177720Y-74448
T2
X107000Y-58460
X107000Y-59730
X107000Y-61000
X107000Y-62270
X107000Y-63540
X108270Y-58460
X108270Y-59730
X108270Y-61000
X108270Y-62270
X108270Y-63540
T3
X121000Y-46250
X129250Y-62020
X130410Y-51900
X130600Y-46000
X138600Y-50200
X141200Y-43600
X151825Y-47800
X166800Y-65200
T4
X165000Y-30000
X165000Y-40000
T5
X179980Y-25710
X179980Y-28250
X179980Y-30790
X179980Y-33330
X179980Y-35870
X179980Y-38410
X179980Y-40950
X179980Y-43490
X179980Y-46030
X179980Y-48570
X179980Y-51110
X179980Y-53650
X179980Y-56190
X179980Y-58730
X179980Y-61270
X179980Y-63810
X179980Y-66350
X179980Y-68890
X179980Y-71430
X179980Y-73970
X179980Y-76510
X179980Y-79050
X179980Y-81590
X179980Y-84130
X179980Y-86670
X179980Y-89210
X179980Y-91750
X179980Y-94290
X179980Y-96830
X179980Y-99370
X179980Y-101910
X179980Y-104450
X182520Y-25710
X182520Y-28250
X182520Y-30790
X182520Y-33330
X182520Y-35870
X182520Y-38410
X182520Y-40950
X182520Y-43490
X182520Y-46030
X182520Y-48570
X182520Y-51110
X182520Y-53650
X182520Y-56190
X182520Y-58730
X182520Y-61270
X182520Y-63810
X182520Y-66350
X182520Y-68890
X182520Y-71430
X182520Y-73970
X182520Y-76510
X182520Y-79050
X182520Y-81590
X182520Y-84130
X182520Y-86670
X182520Y-89210
X182520Y-91750
X182520Y-94290
X182520Y-96830
X182520Y-99370
X182520Y-101910
X182520Y-104450
T6
X103000Y-91230
X103000Y-93770
X108250Y-48980
X108250Y-51520
X115730Y-108000
X117500Y-24440
X117500Y-26980
X117500Y-29520
X117500Y-32060
X118270Y-108000
X124000Y-100920
X124000Y-103460
X124000Y-106000
X124730Y-44250
X127270Y-44250
X129460Y-25000
X129630Y-99580
X129630Y-102120
X132000Y-25000
X134540Y-25000
X142760Y-108010
X144120Y-25000
X145300Y-108010
X146660Y-25000
X149200Y-25000
X150000Y-104730
X150000Y-107270
X157920Y-107000
X160460Y-107000
X163000Y-107000
T7
X165000Y-25000
X165000Y-45000
T8
X105080Y-27620
X105080Y-101280
X190810Y-25080
X190810Y-105090
T0
M30
