G04 #@! TF.FileFunction,Legend,Top*
%FSLAX46Y46*%
G04 Gerber Fmt 4.6, Leading zero omitted, Abs format (unit mm)*
G04 Created by KiCad (PCBNEW 4.0.4-stable) date Friday, January 26, 2018 'AMt' 12:54:04 AM*
%MOMM*%
%LPD*%
G01*
G04 APERTURE LIST*
%ADD10C,0.100000*%
%ADD11C,0.150000*%
%ADD12C,0.200000*%
%ADD13C,0.300000*%
%ADD14C,0.050000*%
%ADD15C,0.120000*%
%ADD16C,0.500000*%
%ADD17C,0.010000*%
G04 APERTURE END LIST*
D10*
D11*
X184914284Y-71885714D02*
X185085713Y-71942857D01*
X185371427Y-71942857D01*
X185485713Y-71885714D01*
X185542856Y-71828571D01*
X185599999Y-71714286D01*
X185599999Y-71600000D01*
X185542856Y-71485714D01*
X185485713Y-71428571D01*
X185371427Y-71371429D01*
X185142856Y-71314286D01*
X185028570Y-71257143D01*
X184971427Y-71200000D01*
X184914284Y-71085714D01*
X184914284Y-70971429D01*
X184971427Y-70857143D01*
X185028570Y-70800000D01*
X185142856Y-70742857D01*
X185428570Y-70742857D01*
X185599999Y-70800000D01*
X186114284Y-71942857D02*
X186114284Y-70742857D01*
X186571427Y-70742857D01*
X186685713Y-70800000D01*
X186742856Y-70857143D01*
X186799999Y-70971429D01*
X186799999Y-71142857D01*
X186742856Y-71257143D01*
X186685713Y-71314286D01*
X186571427Y-71371429D01*
X186114284Y-71371429D01*
X187314284Y-71942857D02*
X187314284Y-70742857D01*
X188399999Y-71142857D02*
X188399999Y-71942857D01*
X188114285Y-70685714D02*
X187828570Y-71542857D01*
X188571428Y-71542857D01*
X189942856Y-71942857D02*
X189942856Y-70742857D01*
X190342856Y-71600000D01*
X190742856Y-70742857D01*
X190742856Y-71942857D01*
X191314285Y-71942857D02*
X191314285Y-70742857D01*
X191828571Y-71885714D02*
X192000000Y-71942857D01*
X192285714Y-71942857D01*
X192400000Y-71885714D01*
X192457143Y-71828571D01*
X192514286Y-71714286D01*
X192514286Y-71600000D01*
X192457143Y-71485714D01*
X192400000Y-71428571D01*
X192285714Y-71371429D01*
X192057143Y-71314286D01*
X191942857Y-71257143D01*
X191885714Y-71200000D01*
X191828571Y-71085714D01*
X191828571Y-70971429D01*
X191885714Y-70857143D01*
X191942857Y-70800000D01*
X192057143Y-70742857D01*
X192342857Y-70742857D01*
X192514286Y-70800000D01*
X193257143Y-70742857D02*
X193485714Y-70742857D01*
X193600000Y-70800000D01*
X193714286Y-70914286D01*
X193771428Y-71142857D01*
X193771428Y-71542857D01*
X193714286Y-71771429D01*
X193600000Y-71885714D01*
X193485714Y-71942857D01*
X193257143Y-71942857D01*
X193142857Y-71885714D01*
X193028571Y-71771429D01*
X192971428Y-71542857D01*
X192971428Y-71142857D01*
X193028571Y-70914286D01*
X193142857Y-70800000D01*
X193257143Y-70742857D01*
X184914284Y-69485714D02*
X185085713Y-69542857D01*
X185371427Y-69542857D01*
X185485713Y-69485714D01*
X185542856Y-69428571D01*
X185599999Y-69314286D01*
X185599999Y-69200000D01*
X185542856Y-69085714D01*
X185485713Y-69028571D01*
X185371427Y-68971429D01*
X185142856Y-68914286D01*
X185028570Y-68857143D01*
X184971427Y-68800000D01*
X184914284Y-68685714D01*
X184914284Y-68571429D01*
X184971427Y-68457143D01*
X185028570Y-68400000D01*
X185142856Y-68342857D01*
X185428570Y-68342857D01*
X185599999Y-68400000D01*
X186114284Y-69542857D02*
X186114284Y-68342857D01*
X186571427Y-68342857D01*
X186685713Y-68400000D01*
X186742856Y-68457143D01*
X186799999Y-68571429D01*
X186799999Y-68742857D01*
X186742856Y-68857143D01*
X186685713Y-68914286D01*
X186571427Y-68971429D01*
X186114284Y-68971429D01*
X187314284Y-69542857D02*
X187314284Y-68342857D01*
X188399999Y-68742857D02*
X188399999Y-69542857D01*
X188114285Y-68285714D02*
X187828570Y-69142857D01*
X188571428Y-69142857D01*
X189942856Y-69542857D02*
X189942856Y-68342857D01*
X190342856Y-69200000D01*
X190742856Y-68342857D01*
X190742856Y-69542857D01*
X191542857Y-68342857D02*
X191771428Y-68342857D01*
X191885714Y-68400000D01*
X192000000Y-68514286D01*
X192057142Y-68742857D01*
X192057142Y-69142857D01*
X192000000Y-69371429D01*
X191885714Y-69485714D01*
X191771428Y-69542857D01*
X191542857Y-69542857D01*
X191428571Y-69485714D01*
X191314285Y-69371429D01*
X191257142Y-69142857D01*
X191257142Y-68742857D01*
X191314285Y-68514286D01*
X191428571Y-68400000D01*
X191542857Y-68342857D01*
X192514285Y-69485714D02*
X192685714Y-69542857D01*
X192971428Y-69542857D01*
X193085714Y-69485714D01*
X193142857Y-69428571D01*
X193200000Y-69314286D01*
X193200000Y-69200000D01*
X193142857Y-69085714D01*
X193085714Y-69028571D01*
X192971428Y-68971429D01*
X192742857Y-68914286D01*
X192628571Y-68857143D01*
X192571428Y-68800000D01*
X192514285Y-68685714D01*
X192514285Y-68571429D01*
X192571428Y-68457143D01*
X192628571Y-68400000D01*
X192742857Y-68342857D01*
X193028571Y-68342857D01*
X193200000Y-68400000D01*
X193714285Y-69542857D02*
X193714285Y-68342857D01*
X184885713Y-66885714D02*
X185057142Y-66942857D01*
X185342856Y-66942857D01*
X185457142Y-66885714D01*
X185514285Y-66828571D01*
X185571428Y-66714286D01*
X185571428Y-66600000D01*
X185514285Y-66485714D01*
X185457142Y-66428571D01*
X185342856Y-66371429D01*
X185114285Y-66314286D01*
X184999999Y-66257143D01*
X184942856Y-66200000D01*
X184885713Y-66085714D01*
X184885713Y-65971429D01*
X184942856Y-65857143D01*
X184999999Y-65800000D01*
X185114285Y-65742857D01*
X185399999Y-65742857D01*
X185571428Y-65800000D01*
X186085713Y-66942857D02*
X186085713Y-65742857D01*
X186542856Y-65742857D01*
X186657142Y-65800000D01*
X186714285Y-65857143D01*
X186771428Y-65971429D01*
X186771428Y-66142857D01*
X186714285Y-66257143D01*
X186657142Y-66314286D01*
X186542856Y-66371429D01*
X186085713Y-66371429D01*
X187285713Y-66942857D02*
X187285713Y-65742857D01*
X188371428Y-66142857D02*
X188371428Y-66942857D01*
X188085714Y-65685714D02*
X187799999Y-66542857D01*
X188542857Y-66542857D01*
X190600000Y-66828571D02*
X190542857Y-66885714D01*
X190371428Y-66942857D01*
X190257142Y-66942857D01*
X190085714Y-66885714D01*
X189971428Y-66771429D01*
X189914285Y-66657143D01*
X189857142Y-66428571D01*
X189857142Y-66257143D01*
X189914285Y-66028571D01*
X189971428Y-65914286D01*
X190085714Y-65800000D01*
X190257142Y-65742857D01*
X190371428Y-65742857D01*
X190542857Y-65800000D01*
X190600000Y-65857143D01*
X191685714Y-66942857D02*
X191114285Y-66942857D01*
X191114285Y-65742857D01*
X192085714Y-66942857D02*
X192085714Y-65742857D01*
X192771429Y-66942857D02*
X192257143Y-66257143D01*
X192771429Y-65742857D02*
X192085714Y-66428571D01*
X184771428Y-64485714D02*
X184942857Y-64542857D01*
X185228571Y-64542857D01*
X185342857Y-64485714D01*
X185400000Y-64428571D01*
X185457143Y-64314286D01*
X185457143Y-64200000D01*
X185400000Y-64085714D01*
X185342857Y-64028571D01*
X185228571Y-63971429D01*
X185000000Y-63914286D01*
X184885714Y-63857143D01*
X184828571Y-63800000D01*
X184771428Y-63685714D01*
X184771428Y-63571429D01*
X184828571Y-63457143D01*
X184885714Y-63400000D01*
X185000000Y-63342857D01*
X185285714Y-63342857D01*
X185457143Y-63400000D01*
X185971428Y-64542857D02*
X185971428Y-63342857D01*
X186428571Y-63342857D01*
X186542857Y-63400000D01*
X186600000Y-63457143D01*
X186657143Y-63571429D01*
X186657143Y-63742857D01*
X186600000Y-63857143D01*
X186542857Y-63914286D01*
X186428571Y-63971429D01*
X185971428Y-63971429D01*
X187171428Y-64542857D02*
X187171428Y-63342857D01*
X188257143Y-63742857D02*
X188257143Y-64542857D01*
X187971429Y-63285714D02*
X187685714Y-64142857D01*
X188428572Y-64142857D01*
X190485715Y-64428571D02*
X190428572Y-64485714D01*
X190257143Y-64542857D01*
X190142857Y-64542857D01*
X189971429Y-64485714D01*
X189857143Y-64371429D01*
X189800000Y-64257143D01*
X189742857Y-64028571D01*
X189742857Y-63857143D01*
X189800000Y-63628571D01*
X189857143Y-63514286D01*
X189971429Y-63400000D01*
X190142857Y-63342857D01*
X190257143Y-63342857D01*
X190428572Y-63400000D01*
X190485715Y-63457143D01*
X190942857Y-64485714D02*
X191114286Y-64542857D01*
X191400000Y-64542857D01*
X191514286Y-64485714D01*
X191571429Y-64428571D01*
X191628572Y-64314286D01*
X191628572Y-64200000D01*
X191571429Y-64085714D01*
X191514286Y-64028571D01*
X191400000Y-63971429D01*
X191171429Y-63914286D01*
X191057143Y-63857143D01*
X191000000Y-63800000D01*
X190942857Y-63685714D01*
X190942857Y-63571429D01*
X191000000Y-63457143D01*
X191057143Y-63400000D01*
X191171429Y-63342857D01*
X191457143Y-63342857D01*
X191628572Y-63400000D01*
X192371429Y-63342857D02*
X192485714Y-63342857D01*
X192600000Y-63400000D01*
X192657143Y-63457143D01*
X192714286Y-63571429D01*
X192771429Y-63800000D01*
X192771429Y-64085714D01*
X192714286Y-64314286D01*
X192657143Y-64428571D01*
X192600000Y-64485714D01*
X192485714Y-64542857D01*
X192371429Y-64542857D01*
X192257143Y-64485714D01*
X192200000Y-64428571D01*
X192142857Y-64314286D01*
X192085714Y-64085714D01*
X192085714Y-63800000D01*
X192142857Y-63571429D01*
X192200000Y-63457143D01*
X192257143Y-63400000D01*
X192371429Y-63342857D01*
X174457143Y-25200000D02*
X174342857Y-25142857D01*
X174171428Y-25142857D01*
X174000000Y-25200000D01*
X173885714Y-25314286D01*
X173828571Y-25428571D01*
X173771428Y-25657143D01*
X173771428Y-25828571D01*
X173828571Y-26057143D01*
X173885714Y-26171429D01*
X174000000Y-26285714D01*
X174171428Y-26342857D01*
X174285714Y-26342857D01*
X174457143Y-26285714D01*
X174514286Y-26228571D01*
X174514286Y-25828571D01*
X174285714Y-25828571D01*
X175028571Y-26342857D02*
X175028571Y-25142857D01*
X175714286Y-26342857D01*
X175714286Y-25142857D01*
X176285714Y-26342857D02*
X176285714Y-25142857D01*
X176571429Y-25142857D01*
X176742857Y-25200000D01*
X176857143Y-25314286D01*
X176914286Y-25428571D01*
X176971429Y-25657143D01*
X176971429Y-25828571D01*
X176914286Y-26057143D01*
X176857143Y-26171429D01*
X176742857Y-26285714D01*
X176571429Y-26342857D01*
X176285714Y-26342857D01*
X173314286Y-48800000D02*
X173885715Y-48800000D01*
X173200001Y-49142857D02*
X173600001Y-47942857D01*
X174000001Y-49142857D01*
X174400000Y-49142857D02*
X174400000Y-47942857D01*
X174685715Y-47942857D01*
X174857143Y-48000000D01*
X174971429Y-48114286D01*
X175028572Y-48228571D01*
X175085715Y-48457143D01*
X175085715Y-48628571D01*
X175028572Y-48857143D01*
X174971429Y-48971429D01*
X174857143Y-49085714D01*
X174685715Y-49142857D01*
X174400000Y-49142857D01*
X176228572Y-49142857D02*
X175542857Y-49142857D01*
X175885715Y-49142857D02*
X175885715Y-47942857D01*
X175771429Y-48114286D01*
X175657143Y-48228571D01*
X175542857Y-48285714D01*
X176628572Y-47942857D02*
X177428572Y-47942857D01*
X176914286Y-49142857D01*
X174514285Y-61885714D02*
X174685714Y-61942857D01*
X174971428Y-61942857D01*
X175085714Y-61885714D01*
X175142857Y-61828571D01*
X175200000Y-61714286D01*
X175200000Y-61600000D01*
X175142857Y-61485714D01*
X175085714Y-61428571D01*
X174971428Y-61371429D01*
X174742857Y-61314286D01*
X174628571Y-61257143D01*
X174571428Y-61200000D01*
X174514285Y-61085714D01*
X174514285Y-60971429D01*
X174571428Y-60857143D01*
X174628571Y-60800000D01*
X174742857Y-60742857D01*
X175028571Y-60742857D01*
X175200000Y-60800000D01*
X176400000Y-61828571D02*
X176342857Y-61885714D01*
X176171428Y-61942857D01*
X176057142Y-61942857D01*
X175885714Y-61885714D01*
X175771428Y-61771429D01*
X175714285Y-61657143D01*
X175657142Y-61428571D01*
X175657142Y-61257143D01*
X175714285Y-61028571D01*
X175771428Y-60914286D01*
X175885714Y-60800000D01*
X176057142Y-60742857D01*
X176171428Y-60742857D01*
X176342857Y-60800000D01*
X176400000Y-60857143D01*
X177485714Y-61942857D02*
X176914285Y-61942857D01*
X176914285Y-60742857D01*
X174457143Y-64485714D02*
X174628572Y-64542857D01*
X174914286Y-64542857D01*
X175028572Y-64485714D01*
X175085715Y-64428571D01*
X175142858Y-64314286D01*
X175142858Y-64200000D01*
X175085715Y-64085714D01*
X175028572Y-64028571D01*
X174914286Y-63971429D01*
X174685715Y-63914286D01*
X174571429Y-63857143D01*
X174514286Y-63800000D01*
X174457143Y-63685714D01*
X174457143Y-63571429D01*
X174514286Y-63457143D01*
X174571429Y-63400000D01*
X174685715Y-63342857D01*
X174971429Y-63342857D01*
X175142858Y-63400000D01*
X175657143Y-64542857D02*
X175657143Y-63342857D01*
X175942858Y-63342857D01*
X176114286Y-63400000D01*
X176228572Y-63514286D01*
X176285715Y-63628571D01*
X176342858Y-63857143D01*
X176342858Y-64028571D01*
X176285715Y-64257143D01*
X176228572Y-64371429D01*
X176114286Y-64485714D01*
X175942858Y-64542857D01*
X175657143Y-64542857D01*
X176800000Y-64200000D02*
X177371429Y-64200000D01*
X176685715Y-64542857D02*
X177085715Y-63342857D01*
X177485715Y-64542857D01*
X176342857Y-76514286D02*
X176514286Y-76571429D01*
X176571429Y-76628571D01*
X176628572Y-76742857D01*
X176628572Y-76914286D01*
X176571429Y-77028571D01*
X176514286Y-77085714D01*
X176400000Y-77142857D01*
X175942857Y-77142857D01*
X175942857Y-75942857D01*
X176342857Y-75942857D01*
X176457143Y-76000000D01*
X176514286Y-76057143D01*
X176571429Y-76171429D01*
X176571429Y-76285714D01*
X176514286Y-76400000D01*
X176457143Y-76457143D01*
X176342857Y-76514286D01*
X175942857Y-76514286D01*
X177028572Y-75942857D02*
X177771429Y-75942857D01*
X177371429Y-76400000D01*
X177542857Y-76400000D01*
X177657143Y-76457143D01*
X177714286Y-76514286D01*
X177771429Y-76628571D01*
X177771429Y-76914286D01*
X177714286Y-77028571D01*
X177657143Y-77085714D01*
X177542857Y-77142857D01*
X177200000Y-77142857D01*
X177085714Y-77085714D01*
X177028572Y-77028571D01*
X174885715Y-103800000D02*
X174771429Y-103742857D01*
X174600000Y-103742857D01*
X174428572Y-103800000D01*
X174314286Y-103914286D01*
X174257143Y-104028571D01*
X174200000Y-104257143D01*
X174200000Y-104428571D01*
X174257143Y-104657143D01*
X174314286Y-104771429D01*
X174428572Y-104885714D01*
X174600000Y-104942857D01*
X174714286Y-104942857D01*
X174885715Y-104885714D01*
X174942858Y-104828571D01*
X174942858Y-104428571D01*
X174714286Y-104428571D01*
X175457143Y-104942857D02*
X175457143Y-103742857D01*
X176142858Y-104942857D01*
X176142858Y-103742857D01*
X176714286Y-104942857D02*
X176714286Y-103742857D01*
X177000001Y-103742857D01*
X177171429Y-103800000D01*
X177285715Y-103914286D01*
X177342858Y-104028571D01*
X177400001Y-104257143D01*
X177400001Y-104428571D01*
X177342858Y-104657143D01*
X177285715Y-104771429D01*
X177171429Y-104885714D01*
X177000001Y-104942857D01*
X176714286Y-104942857D01*
X175971429Y-98742857D02*
X175400000Y-98742857D01*
X175342857Y-99314286D01*
X175400000Y-99257143D01*
X175514286Y-99200000D01*
X175800000Y-99200000D01*
X175914286Y-99257143D01*
X175971429Y-99314286D01*
X176028572Y-99428571D01*
X176028572Y-99714286D01*
X175971429Y-99828571D01*
X175914286Y-99885714D01*
X175800000Y-99942857D01*
X175514286Y-99942857D01*
X175400000Y-99885714D01*
X175342857Y-99828571D01*
X176371429Y-98742857D02*
X176771429Y-99942857D01*
X177171429Y-98742857D01*
X122233334Y-89052381D02*
X121900000Y-88576190D01*
X121661905Y-89052381D02*
X121661905Y-88052381D01*
X122042858Y-88052381D01*
X122138096Y-88100000D01*
X122185715Y-88147619D01*
X122233334Y-88242857D01*
X122233334Y-88385714D01*
X122185715Y-88480952D01*
X122138096Y-88528571D01*
X122042858Y-88576190D01*
X121661905Y-88576190D01*
X122566667Y-88052381D02*
X123233334Y-89052381D01*
X123233334Y-88052381D02*
X122566667Y-89052381D01*
D12*
X135328572Y-96450000D02*
X136042858Y-96450000D01*
X135185715Y-96878571D02*
X135685715Y-95378571D01*
X136185715Y-96878571D01*
X137328572Y-95378571D02*
X137042858Y-95378571D01*
X136900001Y-95450000D01*
X136828572Y-95521429D01*
X136685715Y-95735714D01*
X136614286Y-96021429D01*
X136614286Y-96592857D01*
X136685715Y-96735714D01*
X136757143Y-96807143D01*
X136900001Y-96878571D01*
X137185715Y-96878571D01*
X137328572Y-96807143D01*
X137400001Y-96735714D01*
X137471429Y-96592857D01*
X137471429Y-96235714D01*
X137400001Y-96092857D01*
X137328572Y-96021429D01*
X137185715Y-95950000D01*
X136900001Y-95950000D01*
X136757143Y-96021429D01*
X136685715Y-96092857D01*
X136614286Y-96235714D01*
X129714285Y-48342857D02*
X129714285Y-47142857D01*
X130285714Y-48342857D02*
X130285714Y-47142857D01*
X130971429Y-48342857D01*
X130971429Y-47142857D01*
X131371429Y-47142857D02*
X132057143Y-47142857D01*
X131714286Y-48342857D02*
X131714286Y-47142857D01*
D11*
X125039524Y-60105714D02*
X125039524Y-60772381D01*
X125039524Y-60200952D02*
X125087143Y-60153333D01*
X125182381Y-60105714D01*
X125325239Y-60105714D01*
X125420477Y-60153333D01*
X125468096Y-60248571D01*
X125468096Y-60772381D01*
X125944286Y-60248571D02*
X126277620Y-60248571D01*
X126420477Y-60772381D02*
X125944286Y-60772381D01*
X125944286Y-59772381D01*
X126420477Y-59772381D01*
X127420477Y-60772381D02*
X127087143Y-60296190D01*
X126849048Y-60772381D02*
X126849048Y-59772381D01*
X127230001Y-59772381D01*
X127325239Y-59820000D01*
X127372858Y-59867619D01*
X127420477Y-59962857D01*
X127420477Y-60105714D01*
X127372858Y-60200952D01*
X127325239Y-60248571D01*
X127230001Y-60296190D01*
X126849048Y-60296190D01*
X128420477Y-60772381D02*
X128087143Y-60296190D01*
X127849048Y-60772381D02*
X127849048Y-59772381D01*
X128230001Y-59772381D01*
X128325239Y-59820000D01*
X128372858Y-59867619D01*
X128420477Y-59962857D01*
X128420477Y-60105714D01*
X128372858Y-60200952D01*
X128325239Y-60248571D01*
X128230001Y-60296190D01*
X127849048Y-60296190D01*
X129039524Y-59772381D02*
X129230001Y-59772381D01*
X129325239Y-59820000D01*
X129420477Y-59915238D01*
X129468096Y-60105714D01*
X129468096Y-60439048D01*
X129420477Y-60629524D01*
X129325239Y-60724762D01*
X129230001Y-60772381D01*
X129039524Y-60772381D01*
X128944286Y-60724762D01*
X128849048Y-60629524D01*
X128801429Y-60439048D01*
X128801429Y-60105714D01*
X128849048Y-59915238D01*
X128944286Y-59820000D01*
X129039524Y-59772381D01*
X130468096Y-60772381D02*
X130134762Y-60296190D01*
X129896667Y-60772381D02*
X129896667Y-59772381D01*
X130277620Y-59772381D01*
X130372858Y-59820000D01*
X130420477Y-59867619D01*
X130468096Y-59962857D01*
X130468096Y-60105714D01*
X130420477Y-60200952D01*
X130372858Y-60248571D01*
X130277620Y-60296190D01*
X129896667Y-60296190D01*
D12*
X131661429Y-52482381D02*
X131899524Y-53482381D01*
X132090001Y-52768095D01*
X132280477Y-53482381D01*
X132518572Y-52482381D01*
X132899524Y-53482381D02*
X132899524Y-52482381D01*
X133137619Y-52482381D01*
X133280477Y-52530000D01*
X133375715Y-52625238D01*
X133423334Y-52720476D01*
X133470953Y-52910952D01*
X133470953Y-53053810D01*
X133423334Y-53244286D01*
X133375715Y-53339524D01*
X133280477Y-53434762D01*
X133137619Y-53482381D01*
X132899524Y-53482381D01*
D11*
X123091905Y-46476905D02*
X122825238Y-46095952D01*
X122634762Y-46476905D02*
X122634762Y-45676905D01*
X122939524Y-45676905D01*
X123015715Y-45715000D01*
X123053810Y-45753095D01*
X123091905Y-45829286D01*
X123091905Y-45943571D01*
X123053810Y-46019762D01*
X123015715Y-46057857D01*
X122939524Y-46095952D01*
X122634762Y-46095952D01*
X123396667Y-46438810D02*
X123510953Y-46476905D01*
X123701429Y-46476905D01*
X123777619Y-46438810D01*
X123815715Y-46400714D01*
X123853810Y-46324524D01*
X123853810Y-46248333D01*
X123815715Y-46172143D01*
X123777619Y-46134048D01*
X123701429Y-46095952D01*
X123549048Y-46057857D01*
X123472857Y-46019762D01*
X123434762Y-45981667D01*
X123396667Y-45905476D01*
X123396667Y-45829286D01*
X123434762Y-45753095D01*
X123472857Y-45715000D01*
X123549048Y-45676905D01*
X123739524Y-45676905D01*
X123853810Y-45715000D01*
X124082381Y-45676905D02*
X124539524Y-45676905D01*
X124310953Y-46476905D02*
X124310953Y-45676905D01*
X122253809Y-47026905D02*
X122710952Y-47026905D01*
X122482381Y-47826905D02*
X122482381Y-47026905D01*
X122977619Y-47407857D02*
X123244286Y-47407857D01*
X123358572Y-47826905D02*
X122977619Y-47826905D01*
X122977619Y-47026905D01*
X123358572Y-47026905D01*
X123663334Y-47788810D02*
X123777620Y-47826905D01*
X123968096Y-47826905D01*
X124044286Y-47788810D01*
X124082382Y-47750714D01*
X124120477Y-47674524D01*
X124120477Y-47598333D01*
X124082382Y-47522143D01*
X124044286Y-47484048D01*
X123968096Y-47445952D01*
X123815715Y-47407857D01*
X123739524Y-47369762D01*
X123701429Y-47331667D01*
X123663334Y-47255476D01*
X123663334Y-47179286D01*
X123701429Y-47103095D01*
X123739524Y-47065000D01*
X123815715Y-47026905D01*
X124006191Y-47026905D01*
X124120477Y-47065000D01*
X124349048Y-47026905D02*
X124806191Y-47026905D01*
X124577620Y-47826905D02*
X124577620Y-47026905D01*
X111910000Y-34377381D02*
X112148095Y-35377381D01*
X112338572Y-34663095D01*
X112529048Y-35377381D01*
X112767143Y-34377381D01*
X113148095Y-35377381D02*
X113148095Y-34377381D01*
X113386190Y-34377381D01*
X113529048Y-34425000D01*
X113624286Y-34520238D01*
X113671905Y-34615476D01*
X113719524Y-34805952D01*
X113719524Y-34948810D01*
X113671905Y-35139286D01*
X113624286Y-35234524D01*
X113529048Y-35329762D01*
X113386190Y-35377381D01*
X113148095Y-35377381D01*
X110195714Y-37027381D02*
X109862380Y-36551190D01*
X109624285Y-37027381D02*
X109624285Y-36027381D01*
X110005238Y-36027381D01*
X110100476Y-36075000D01*
X110148095Y-36122619D01*
X110195714Y-36217857D01*
X110195714Y-36360714D01*
X110148095Y-36455952D01*
X110100476Y-36503571D01*
X110005238Y-36551190D01*
X109624285Y-36551190D01*
X110624285Y-36503571D02*
X110957619Y-36503571D01*
X111100476Y-37027381D02*
X110624285Y-37027381D01*
X110624285Y-36027381D01*
X111100476Y-36027381D01*
X111481428Y-36979762D02*
X111624285Y-37027381D01*
X111862381Y-37027381D01*
X111957619Y-36979762D01*
X112005238Y-36932143D01*
X112052857Y-36836905D01*
X112052857Y-36741667D01*
X112005238Y-36646429D01*
X111957619Y-36598810D01*
X111862381Y-36551190D01*
X111671904Y-36503571D01*
X111576666Y-36455952D01*
X111529047Y-36408333D01*
X111481428Y-36313095D01*
X111481428Y-36217857D01*
X111529047Y-36122619D01*
X111576666Y-36075000D01*
X111671904Y-36027381D01*
X111910000Y-36027381D01*
X112052857Y-36075000D01*
X112481428Y-36503571D02*
X112814762Y-36503571D01*
X112957619Y-37027381D02*
X112481428Y-37027381D01*
X112481428Y-36027381D01*
X112957619Y-36027381D01*
X113243333Y-36027381D02*
X113814762Y-36027381D01*
X113529047Y-37027381D02*
X113529047Y-36027381D01*
D12*
X124217143Y-69155714D02*
X124388572Y-69212857D01*
X124674286Y-69212857D01*
X124788572Y-69155714D01*
X124845715Y-69098571D01*
X124902858Y-68984286D01*
X124902858Y-68870000D01*
X124845715Y-68755714D01*
X124788572Y-68698571D01*
X124674286Y-68641429D01*
X124445715Y-68584286D01*
X124331429Y-68527143D01*
X124274286Y-68470000D01*
X124217143Y-68355714D01*
X124217143Y-68241429D01*
X124274286Y-68127143D01*
X124331429Y-68070000D01*
X124445715Y-68012857D01*
X124731429Y-68012857D01*
X124902858Y-68070000D01*
X125645715Y-68012857D02*
X125874286Y-68012857D01*
X125988572Y-68070000D01*
X126102858Y-68184286D01*
X126160000Y-68412857D01*
X126160000Y-68812857D01*
X126102858Y-69041429D01*
X125988572Y-69155714D01*
X125874286Y-69212857D01*
X125645715Y-69212857D01*
X125531429Y-69155714D01*
X125417143Y-69041429D01*
X125360000Y-68812857D01*
X125360000Y-68412857D01*
X125417143Y-68184286D01*
X125531429Y-68070000D01*
X125645715Y-68012857D01*
X127074286Y-68584286D02*
X126674286Y-68584286D01*
X126674286Y-69212857D02*
X126674286Y-68012857D01*
X127245715Y-68012857D01*
X127531429Y-68012857D02*
X128217143Y-68012857D01*
X127874286Y-69212857D02*
X127874286Y-68012857D01*
X124417144Y-71212857D02*
X124017144Y-70641429D01*
X123731429Y-71212857D02*
X123731429Y-70012857D01*
X124188572Y-70012857D01*
X124302858Y-70070000D01*
X124360001Y-70127143D01*
X124417144Y-70241429D01*
X124417144Y-70412857D01*
X124360001Y-70527143D01*
X124302858Y-70584286D01*
X124188572Y-70641429D01*
X123731429Y-70641429D01*
X124931429Y-70584286D02*
X125331429Y-70584286D01*
X125502858Y-71212857D02*
X124931429Y-71212857D01*
X124931429Y-70012857D01*
X125502858Y-70012857D01*
X125960000Y-71155714D02*
X126131429Y-71212857D01*
X126417143Y-71212857D01*
X126531429Y-71155714D01*
X126588572Y-71098571D01*
X126645715Y-70984286D01*
X126645715Y-70870000D01*
X126588572Y-70755714D01*
X126531429Y-70698571D01*
X126417143Y-70641429D01*
X126188572Y-70584286D01*
X126074286Y-70527143D01*
X126017143Y-70470000D01*
X125960000Y-70355714D01*
X125960000Y-70241429D01*
X126017143Y-70127143D01*
X126074286Y-70070000D01*
X126188572Y-70012857D01*
X126474286Y-70012857D01*
X126645715Y-70070000D01*
X127160000Y-70584286D02*
X127560000Y-70584286D01*
X127731429Y-71212857D02*
X127160000Y-71212857D01*
X127160000Y-70012857D01*
X127731429Y-70012857D01*
X128074286Y-70012857D02*
X128760000Y-70012857D01*
X128417143Y-71212857D02*
X128417143Y-70012857D01*
X118342857Y-53742857D02*
X118342857Y-52542857D01*
X118342857Y-53114286D02*
X119028572Y-53114286D01*
X119028572Y-53742857D02*
X119028572Y-52542857D01*
X119542857Y-53400000D02*
X120114286Y-53400000D01*
X119428572Y-53742857D02*
X119828572Y-52542857D01*
X120228572Y-53742857D01*
X121314286Y-53742857D02*
X120914286Y-53171429D01*
X120628571Y-53742857D02*
X120628571Y-52542857D01*
X121085714Y-52542857D01*
X121200000Y-52600000D01*
X121257143Y-52657143D01*
X121314286Y-52771429D01*
X121314286Y-52942857D01*
X121257143Y-53057143D01*
X121200000Y-53114286D01*
X121085714Y-53171429D01*
X120628571Y-53171429D01*
X121828571Y-53742857D02*
X121828571Y-52542857D01*
X122114286Y-52542857D01*
X122285714Y-52600000D01*
X122400000Y-52714286D01*
X122457143Y-52828571D01*
X122514286Y-53057143D01*
X122514286Y-53228571D01*
X122457143Y-53457143D01*
X122400000Y-53571429D01*
X122285714Y-53685714D01*
X122114286Y-53742857D01*
X121828571Y-53742857D01*
X118657144Y-55742857D02*
X118257144Y-55171429D01*
X117971429Y-55742857D02*
X117971429Y-54542857D01*
X118428572Y-54542857D01*
X118542858Y-54600000D01*
X118600001Y-54657143D01*
X118657144Y-54771429D01*
X118657144Y-54942857D01*
X118600001Y-55057143D01*
X118542858Y-55114286D01*
X118428572Y-55171429D01*
X117971429Y-55171429D01*
X119171429Y-55114286D02*
X119571429Y-55114286D01*
X119742858Y-55742857D02*
X119171429Y-55742857D01*
X119171429Y-54542857D01*
X119742858Y-54542857D01*
X120200000Y-55685714D02*
X120371429Y-55742857D01*
X120657143Y-55742857D01*
X120771429Y-55685714D01*
X120828572Y-55628571D01*
X120885715Y-55514286D01*
X120885715Y-55400000D01*
X120828572Y-55285714D01*
X120771429Y-55228571D01*
X120657143Y-55171429D01*
X120428572Y-55114286D01*
X120314286Y-55057143D01*
X120257143Y-55000000D01*
X120200000Y-54885714D01*
X120200000Y-54771429D01*
X120257143Y-54657143D01*
X120314286Y-54600000D01*
X120428572Y-54542857D01*
X120714286Y-54542857D01*
X120885715Y-54600000D01*
X121400000Y-55114286D02*
X121800000Y-55114286D01*
X121971429Y-55742857D02*
X121400000Y-55742857D01*
X121400000Y-54542857D01*
X121971429Y-54542857D01*
X122314286Y-54542857D02*
X123000000Y-54542857D01*
X122657143Y-55742857D02*
X122657143Y-54542857D01*
X133271429Y-87453571D02*
X132414286Y-87453571D01*
X132842858Y-87453571D02*
X132842858Y-85953571D01*
X132700001Y-86167857D01*
X132557143Y-86310714D01*
X132414286Y-86382143D01*
X133700000Y-85953571D02*
X134200000Y-87453571D01*
X134700000Y-85953571D01*
X135128571Y-86096429D02*
X135200000Y-86025000D01*
X135342857Y-85953571D01*
X135700000Y-85953571D01*
X135842857Y-86025000D01*
X135914286Y-86096429D01*
X135985714Y-86239286D01*
X135985714Y-86382143D01*
X135914286Y-86596429D01*
X135057143Y-87453571D01*
X135985714Y-87453571D01*
X132557143Y-88475000D02*
X132414286Y-88403571D01*
X132200000Y-88403571D01*
X131985715Y-88475000D01*
X131842857Y-88617857D01*
X131771429Y-88760714D01*
X131700000Y-89046429D01*
X131700000Y-89260714D01*
X131771429Y-89546429D01*
X131842857Y-89689286D01*
X131985715Y-89832143D01*
X132200000Y-89903571D01*
X132342857Y-89903571D01*
X132557143Y-89832143D01*
X132628572Y-89760714D01*
X132628572Y-89260714D01*
X132342857Y-89260714D01*
X133485715Y-89903571D02*
X133342857Y-89832143D01*
X133271429Y-89760714D01*
X133200000Y-89617857D01*
X133200000Y-89189286D01*
X133271429Y-89046429D01*
X133342857Y-88975000D01*
X133485715Y-88903571D01*
X133700000Y-88903571D01*
X133842857Y-88975000D01*
X133914286Y-89046429D01*
X133985715Y-89189286D01*
X133985715Y-89617857D01*
X133914286Y-89760714D01*
X133842857Y-89832143D01*
X133700000Y-89903571D01*
X133485715Y-89903571D01*
X134842858Y-89903571D02*
X134700000Y-89832143D01*
X134628572Y-89760714D01*
X134557143Y-89617857D01*
X134557143Y-89189286D01*
X134628572Y-89046429D01*
X134700000Y-88975000D01*
X134842858Y-88903571D01*
X135057143Y-88903571D01*
X135200000Y-88975000D01*
X135271429Y-89046429D01*
X135342858Y-89189286D01*
X135342858Y-89617857D01*
X135271429Y-89760714D01*
X135200000Y-89832143D01*
X135057143Y-89903571D01*
X134842858Y-89903571D01*
X136628572Y-89903571D02*
X136628572Y-88403571D01*
X136628572Y-89832143D02*
X136485715Y-89903571D01*
X136200001Y-89903571D01*
X136057143Y-89832143D01*
X135985715Y-89760714D01*
X135914286Y-89617857D01*
X135914286Y-89189286D01*
X135985715Y-89046429D01*
X136057143Y-88975000D01*
X136200001Y-88903571D01*
X136485715Y-88903571D01*
X136628572Y-88975000D01*
D11*
X113878095Y-71352381D02*
X114449524Y-71352381D01*
X114163809Y-72352381D02*
X114163809Y-71352381D01*
X114687619Y-71352381D02*
X115354286Y-72352381D01*
X115354286Y-71352381D02*
X114687619Y-72352381D01*
X108318095Y-108552381D02*
X108318095Y-107552381D01*
X108794285Y-108552381D02*
X108794285Y-107552381D01*
X109365714Y-108552381D01*
X109365714Y-107552381D01*
X109794285Y-108266667D02*
X110270476Y-108266667D01*
X109699047Y-108552381D02*
X110032380Y-107552381D01*
X110365714Y-108552381D01*
X110460952Y-108647619D02*
X111222857Y-108647619D01*
X111651428Y-107552381D02*
X111841905Y-107552381D01*
X111937143Y-107600000D01*
X112032381Y-107695238D01*
X112080000Y-107885714D01*
X112080000Y-108219048D01*
X112032381Y-108409524D01*
X111937143Y-108504762D01*
X111841905Y-108552381D01*
X111651428Y-108552381D01*
X111556190Y-108504762D01*
X111460952Y-108409524D01*
X111413333Y-108219048D01*
X111413333Y-107885714D01*
X111460952Y-107695238D01*
X111556190Y-107600000D01*
X111651428Y-107552381D01*
X112508571Y-107552381D02*
X112508571Y-108361905D01*
X112556190Y-108457143D01*
X112603809Y-108504762D01*
X112699047Y-108552381D01*
X112889524Y-108552381D01*
X112984762Y-108504762D01*
X113032381Y-108457143D01*
X113080000Y-108361905D01*
X113080000Y-107552381D01*
X113413333Y-107552381D02*
X113984762Y-107552381D01*
X113699047Y-108552381D02*
X113699047Y-107552381D01*
X141740476Y-106642381D02*
X141740476Y-105642381D01*
X142216666Y-106642381D02*
X142216666Y-105642381D01*
X142788095Y-106642381D01*
X142788095Y-105642381D01*
X143216666Y-106356667D02*
X143692857Y-106356667D01*
X143121428Y-106642381D02*
X143454761Y-105642381D01*
X143788095Y-106642381D01*
X143883333Y-106737619D02*
X144645238Y-106737619D01*
X144883333Y-106118571D02*
X145216667Y-106118571D01*
X145359524Y-106642381D02*
X144883333Y-106642381D01*
X144883333Y-105642381D01*
X145359524Y-105642381D01*
X145788095Y-106642381D02*
X145788095Y-105642381D01*
X146359524Y-106642381D01*
X146359524Y-105642381D01*
X125940952Y-105422381D02*
X126131429Y-105422381D01*
X126226667Y-105470000D01*
X126321905Y-105565238D01*
X126369524Y-105755714D01*
X126369524Y-106089048D01*
X126321905Y-106279524D01*
X126226667Y-106374762D01*
X126131429Y-106422381D01*
X125940952Y-106422381D01*
X125845714Y-106374762D01*
X125750476Y-106279524D01*
X125702857Y-106089048D01*
X125702857Y-105755714D01*
X125750476Y-105565238D01*
X125845714Y-105470000D01*
X125940952Y-105422381D01*
X126798095Y-106422381D02*
X126798095Y-105422381D01*
X127369524Y-106422381D01*
X127369524Y-105422381D01*
X126168096Y-103060000D02*
X126072858Y-103012381D01*
X125930001Y-103012381D01*
X125787143Y-103060000D01*
X125691905Y-103155238D01*
X125644286Y-103250476D01*
X125596667Y-103440952D01*
X125596667Y-103583810D01*
X125644286Y-103774286D01*
X125691905Y-103869524D01*
X125787143Y-103964762D01*
X125930001Y-104012381D01*
X126025239Y-104012381D01*
X126168096Y-103964762D01*
X126215715Y-103917143D01*
X126215715Y-103583810D01*
X126025239Y-103583810D01*
X126644286Y-104012381D02*
X126644286Y-103012381D01*
X127215715Y-104012381D01*
X127215715Y-103012381D01*
X127691905Y-104012381D02*
X127691905Y-103012381D01*
X127930000Y-103012381D01*
X128072858Y-103060000D01*
X128168096Y-103155238D01*
X128215715Y-103250476D01*
X128263334Y-103440952D01*
X128263334Y-103583810D01*
X128215715Y-103774286D01*
X128168096Y-103869524D01*
X128072858Y-103964762D01*
X127930000Y-104012381D01*
X127691905Y-104012381D01*
X125937619Y-100372381D02*
X126128096Y-100372381D01*
X126223334Y-100420000D01*
X126318572Y-100515238D01*
X126366191Y-100705714D01*
X126366191Y-101039048D01*
X126318572Y-101229524D01*
X126223334Y-101324762D01*
X126128096Y-101372381D01*
X125937619Y-101372381D01*
X125842381Y-101324762D01*
X125747143Y-101229524D01*
X125699524Y-101039048D01*
X125699524Y-100705714D01*
X125747143Y-100515238D01*
X125842381Y-100420000D01*
X125937619Y-100372381D01*
X127128096Y-100848571D02*
X126794762Y-100848571D01*
X126794762Y-101372381D02*
X126794762Y-100372381D01*
X127270953Y-100372381D01*
X127985239Y-100848571D02*
X127651905Y-100848571D01*
X127651905Y-101372381D02*
X127651905Y-100372381D01*
X128128096Y-100372381D01*
D13*
X158285714Y-83759524D02*
X158571429Y-83854762D01*
X159047619Y-83854762D01*
X159238095Y-83759524D01*
X159333333Y-83664286D01*
X159428572Y-83473810D01*
X159428572Y-83283333D01*
X159333333Y-83092857D01*
X159238095Y-82997619D01*
X159047619Y-82902381D01*
X158666667Y-82807143D01*
X158476191Y-82711905D01*
X158380952Y-82616667D01*
X158285714Y-82426190D01*
X158285714Y-82235714D01*
X158380952Y-82045238D01*
X158476191Y-81950000D01*
X158666667Y-81854762D01*
X159142857Y-81854762D01*
X159428572Y-81950000D01*
X160952381Y-82807143D02*
X160285714Y-82807143D01*
X160285714Y-83854762D02*
X160285714Y-81854762D01*
X161238095Y-81854762D01*
X162000000Y-81854762D02*
X162000000Y-83473810D01*
X162095239Y-83664286D01*
X162190477Y-83759524D01*
X162380953Y-83854762D01*
X162761905Y-83854762D01*
X162952381Y-83759524D01*
X163047620Y-83664286D01*
X163142858Y-83473810D01*
X163142858Y-81854762D01*
X164000000Y-83759524D02*
X164285715Y-83854762D01*
X164761905Y-83854762D01*
X164952381Y-83759524D01*
X165047619Y-83664286D01*
X165142858Y-83473810D01*
X165142858Y-83283333D01*
X165047619Y-83092857D01*
X164952381Y-82997619D01*
X164761905Y-82902381D01*
X164380953Y-82807143D01*
X164190477Y-82711905D01*
X164095238Y-82616667D01*
X164000000Y-82426190D01*
X164000000Y-82235714D01*
X164095238Y-82045238D01*
X164190477Y-81950000D01*
X164380953Y-81854762D01*
X164857143Y-81854762D01*
X165142858Y-81950000D01*
X166857143Y-83854762D02*
X166857143Y-82807143D01*
X166761905Y-82616667D01*
X166571429Y-82521429D01*
X166190477Y-82521429D01*
X166000000Y-82616667D01*
X166857143Y-83759524D02*
X166666667Y-83854762D01*
X166190477Y-83854762D01*
X166000000Y-83759524D01*
X165904762Y-83569048D01*
X165904762Y-83378571D01*
X166000000Y-83188095D01*
X166190477Y-83092857D01*
X166666667Y-83092857D01*
X166857143Y-82997619D01*
X167523810Y-82521429D02*
X168285715Y-82521429D01*
X167809524Y-81854762D02*
X167809524Y-83569048D01*
X167904763Y-83759524D01*
X168095239Y-83854762D01*
X168285715Y-83854762D01*
X170857144Y-81854762D02*
X171238096Y-81854762D01*
X171428572Y-81950000D01*
X171619049Y-82140476D01*
X171714287Y-82521429D01*
X171714287Y-83188095D01*
X171619049Y-83569048D01*
X171428572Y-83759524D01*
X171238096Y-83854762D01*
X170857144Y-83854762D01*
X170666668Y-83759524D01*
X170476191Y-83569048D01*
X170380953Y-83188095D01*
X170380953Y-82521429D01*
X170476191Y-82140476D01*
X170666668Y-81950000D01*
X170857144Y-81854762D01*
X173238096Y-82807143D02*
X173523810Y-82902381D01*
X173619049Y-82997619D01*
X173714287Y-83188095D01*
X173714287Y-83473810D01*
X173619049Y-83664286D01*
X173523810Y-83759524D01*
X173333334Y-83854762D01*
X172571429Y-83854762D01*
X172571429Y-81854762D01*
X173238096Y-81854762D01*
X173428572Y-81950000D01*
X173523810Y-82045238D01*
X173619049Y-82235714D01*
X173619049Y-82426190D01*
X173523810Y-82616667D01*
X173428572Y-82711905D01*
X173238096Y-82807143D01*
X172571429Y-82807143D01*
X175714287Y-83664286D02*
X175619049Y-83759524D01*
X175333334Y-83854762D01*
X175142858Y-83854762D01*
X174857144Y-83759524D01*
X174666668Y-83569048D01*
X174571429Y-83378571D01*
X174476191Y-82997619D01*
X174476191Y-82711905D01*
X174571429Y-82330952D01*
X174666668Y-82140476D01*
X174857144Y-81950000D01*
X175142858Y-81854762D01*
X175333334Y-81854762D01*
X175619049Y-81950000D01*
X175714287Y-82045238D01*
X158666665Y-85821429D02*
X159142856Y-87154762D01*
X159619046Y-85821429D01*
X160761904Y-85154762D02*
X160952380Y-85154762D01*
X161142856Y-85250000D01*
X161238094Y-85345238D01*
X161333332Y-85535714D01*
X161428571Y-85916667D01*
X161428571Y-86392857D01*
X161333332Y-86773810D01*
X161238094Y-86964286D01*
X161142856Y-87059524D01*
X160952380Y-87154762D01*
X160761904Y-87154762D01*
X160571428Y-87059524D01*
X160476190Y-86964286D01*
X160380951Y-86773810D01*
X160285713Y-86392857D01*
X160285713Y-85916667D01*
X160380951Y-85535714D01*
X160476190Y-85345238D01*
X160571428Y-85250000D01*
X160761904Y-85154762D01*
X162285713Y-86964286D02*
X162380952Y-87059524D01*
X162285713Y-87154762D01*
X162190475Y-87059524D01*
X162285713Y-86964286D01*
X162285713Y-87154762D01*
X164095237Y-85821429D02*
X164095237Y-87154762D01*
X163619047Y-85059524D02*
X163142856Y-86488095D01*
X164380952Y-86488095D01*
X167809524Y-87154762D02*
X167142857Y-86202381D01*
X166666666Y-87154762D02*
X166666666Y-85154762D01*
X167428571Y-85154762D01*
X167619047Y-85250000D01*
X167714286Y-85345238D01*
X167809524Y-85535714D01*
X167809524Y-85821429D01*
X167714286Y-86011905D01*
X167619047Y-86107143D01*
X167428571Y-86202381D01*
X166666666Y-86202381D01*
X169428571Y-87059524D02*
X169238095Y-87154762D01*
X168857143Y-87154762D01*
X168666666Y-87059524D01*
X168571428Y-86869048D01*
X168571428Y-86107143D01*
X168666666Y-85916667D01*
X168857143Y-85821429D01*
X169238095Y-85821429D01*
X169428571Y-85916667D01*
X169523809Y-86107143D01*
X169523809Y-86297619D01*
X168571428Y-86488095D01*
X170190476Y-85821429D02*
X170666667Y-87154762D01*
X171142857Y-85821429D01*
X171904762Y-86964286D02*
X172000001Y-87059524D01*
X171904762Y-87154762D01*
X171809524Y-87059524D01*
X171904762Y-86964286D01*
X171904762Y-87154762D01*
X174285715Y-86583333D02*
X175238096Y-86583333D01*
X174095239Y-87154762D02*
X174761906Y-85154762D01*
X175428573Y-87154762D01*
D12*
X157872857Y-104738571D02*
X157872857Y-103995714D01*
X158330000Y-104395714D01*
X158330000Y-104224286D01*
X158387143Y-104110000D01*
X158444286Y-104052857D01*
X158558571Y-103995714D01*
X158844286Y-103995714D01*
X158958571Y-104052857D01*
X159015714Y-104110000D01*
X159072857Y-104224286D01*
X159072857Y-104567143D01*
X159015714Y-104681429D01*
X158958571Y-104738571D01*
X157872857Y-103652857D02*
X159072857Y-103252857D01*
X157872857Y-102852857D01*
X157872857Y-102567143D02*
X157872857Y-101824286D01*
X158330000Y-102224286D01*
X158330000Y-102052858D01*
X158387143Y-101938572D01*
X158444286Y-101881429D01*
X158558571Y-101824286D01*
X158844286Y-101824286D01*
X158958571Y-101881429D01*
X159015714Y-101938572D01*
X159072857Y-102052858D01*
X159072857Y-102395715D01*
X159015714Y-102510001D01*
X158958571Y-102567143D01*
X160958571Y-103938571D02*
X161015714Y-103995714D01*
X161072857Y-104167143D01*
X161072857Y-104281429D01*
X161015714Y-104452857D01*
X160901429Y-104567143D01*
X160787143Y-104624286D01*
X160558571Y-104681429D01*
X160387143Y-104681429D01*
X160158571Y-104624286D01*
X160044286Y-104567143D01*
X159930000Y-104452857D01*
X159872857Y-104281429D01*
X159872857Y-104167143D01*
X159930000Y-103995714D01*
X159987143Y-103938571D01*
X159872857Y-103195714D02*
X159872857Y-102967143D01*
X159930000Y-102852857D01*
X160044286Y-102738571D01*
X160272857Y-102681429D01*
X160672857Y-102681429D01*
X160901429Y-102738571D01*
X161015714Y-102852857D01*
X161072857Y-102967143D01*
X161072857Y-103195714D01*
X161015714Y-103310000D01*
X160901429Y-103424286D01*
X160672857Y-103481429D01*
X160272857Y-103481429D01*
X160044286Y-103424286D01*
X159930000Y-103310000D01*
X159872857Y-103195714D01*
X161072857Y-102167143D02*
X159872857Y-102167143D01*
X160730000Y-101767143D01*
X159872857Y-101367143D01*
X161072857Y-101367143D01*
X163072857Y-104624286D02*
X161872857Y-104624286D01*
X163072857Y-104052857D02*
X161872857Y-104052857D01*
X163072857Y-103367142D01*
X161872857Y-103367142D01*
X162730000Y-102852857D02*
X162730000Y-102281428D01*
X163072857Y-102967142D02*
X161872857Y-102567142D01*
X163072857Y-102167142D01*
X163187143Y-102052857D02*
X163187143Y-101138571D01*
X163072857Y-100852857D02*
X161872857Y-100852857D01*
X163072857Y-100281428D02*
X161872857Y-100281428D01*
X163072857Y-99595713D01*
X161872857Y-99595713D01*
X152148572Y-105552857D02*
X151577143Y-105552857D01*
X151577143Y-104352857D01*
X152548572Y-105552857D02*
X152548572Y-104352857D01*
X152834287Y-104352857D01*
X153005715Y-104410000D01*
X153120001Y-104524286D01*
X153177144Y-104638571D01*
X153234287Y-104867143D01*
X153234287Y-105038571D01*
X153177144Y-105267143D01*
X153120001Y-105381429D01*
X153005715Y-105495714D01*
X152834287Y-105552857D01*
X152548572Y-105552857D01*
X153748572Y-105095714D02*
X154662858Y-105095714D01*
X152148572Y-107552857D02*
X151577143Y-107552857D01*
X151577143Y-106352857D01*
X152548572Y-107552857D02*
X152548572Y-106352857D01*
X152834287Y-106352857D01*
X153005715Y-106410000D01*
X153120001Y-106524286D01*
X153177144Y-106638571D01*
X153234287Y-106867143D01*
X153234287Y-107038571D01*
X153177144Y-107267143D01*
X153120001Y-107381429D01*
X153005715Y-107495714D01*
X152834287Y-107552857D01*
X152548572Y-107552857D01*
X153748572Y-107095714D02*
X154662858Y-107095714D01*
X154205715Y-107552857D02*
X154205715Y-106638571D01*
D13*
X131098572Y-99652143D02*
X132241429Y-99652143D01*
X131670000Y-100223571D02*
X131670000Y-99080714D01*
X131098572Y-102202143D02*
X132241429Y-102202143D01*
D11*
X121081429Y-41662857D02*
X121367143Y-42862857D01*
X121595714Y-42005714D01*
X121824286Y-42862857D01*
X122110000Y-41662857D01*
X122567143Y-42862857D02*
X122567143Y-41662857D01*
X122852858Y-41662857D01*
X123024286Y-41720000D01*
X123138572Y-41834286D01*
X123195715Y-41948571D01*
X123252858Y-42177143D01*
X123252858Y-42348571D01*
X123195715Y-42577143D01*
X123138572Y-42691429D01*
X123024286Y-42805714D01*
X122852858Y-42862857D01*
X122567143Y-42862857D01*
X123481429Y-42977143D02*
X124395715Y-42977143D01*
X125367144Y-42862857D02*
X124967144Y-42291429D01*
X124681429Y-42862857D02*
X124681429Y-41662857D01*
X125138572Y-41662857D01*
X125252858Y-41720000D01*
X125310001Y-41777143D01*
X125367144Y-41891429D01*
X125367144Y-42062857D01*
X125310001Y-42177143D01*
X125252858Y-42234286D01*
X125138572Y-42291429D01*
X124681429Y-42291429D01*
X125824286Y-42805714D02*
X125995715Y-42862857D01*
X126281429Y-42862857D01*
X126395715Y-42805714D01*
X126452858Y-42748571D01*
X126510001Y-42634286D01*
X126510001Y-42520000D01*
X126452858Y-42405714D01*
X126395715Y-42348571D01*
X126281429Y-42291429D01*
X126052858Y-42234286D01*
X125938572Y-42177143D01*
X125881429Y-42120000D01*
X125824286Y-42005714D01*
X125824286Y-41891429D01*
X125881429Y-41777143D01*
X125938572Y-41720000D01*
X126052858Y-41662857D01*
X126338572Y-41662857D01*
X126510001Y-41720000D01*
X126852858Y-41662857D02*
X127538572Y-41662857D01*
X127195715Y-42862857D02*
X127195715Y-41662857D01*
X127652858Y-42977143D02*
X128567144Y-42977143D01*
X128852858Y-42234286D02*
X129252858Y-42234286D01*
X129424287Y-42862857D02*
X128852858Y-42862857D01*
X128852858Y-41662857D01*
X129424287Y-41662857D01*
X129938572Y-42862857D02*
X129938572Y-41662857D01*
X130624287Y-42862857D01*
X130624287Y-41662857D01*
D12*
X104868571Y-53838571D02*
X106368571Y-53481428D01*
X105297143Y-53195714D01*
X106368571Y-52910000D01*
X104868571Y-52552857D01*
X106368571Y-51981428D02*
X104868571Y-51981428D01*
X104868571Y-51624285D01*
X104940000Y-51410000D01*
X105082857Y-51267142D01*
X105225714Y-51195714D01*
X105511429Y-51124285D01*
X105725714Y-51124285D01*
X106011429Y-51195714D01*
X106154286Y-51267142D01*
X106297143Y-51410000D01*
X106368571Y-51624285D01*
X106368571Y-51981428D01*
X106511429Y-50838571D02*
X106511429Y-49695714D01*
X105582857Y-49338571D02*
X105582857Y-48838571D01*
X106368571Y-48624285D02*
X106368571Y-49338571D01*
X104868571Y-49338571D01*
X104868571Y-48624285D01*
X106368571Y-47981428D02*
X104868571Y-47981428D01*
X106368571Y-47124285D01*
X104868571Y-47124285D01*
X112631429Y-22888571D02*
X112131429Y-22174286D01*
X111774286Y-22888571D02*
X111774286Y-21388571D01*
X112345714Y-21388571D01*
X112488572Y-21460000D01*
X112560000Y-21531429D01*
X112631429Y-21674286D01*
X112631429Y-21888571D01*
X112560000Y-22031429D01*
X112488572Y-22102857D01*
X112345714Y-22174286D01*
X111774286Y-22174286D01*
X113060000Y-21388571D02*
X113917143Y-21388571D01*
X113488572Y-22888571D02*
X113488572Y-21388571D01*
X115274286Y-22745714D02*
X115202857Y-22817143D01*
X114988571Y-22888571D01*
X114845714Y-22888571D01*
X114631429Y-22817143D01*
X114488571Y-22674286D01*
X114417143Y-22531429D01*
X114345714Y-22245714D01*
X114345714Y-22031429D01*
X114417143Y-21745714D01*
X114488571Y-21602857D01*
X114631429Y-21460000D01*
X114845714Y-21388571D01*
X114988571Y-21388571D01*
X115202857Y-21460000D01*
X115274286Y-21531429D01*
X113845715Y-25195714D02*
X113774286Y-25267143D01*
X113560000Y-25338571D01*
X113417143Y-25338571D01*
X113202858Y-25267143D01*
X113060000Y-25124286D01*
X112988572Y-24981429D01*
X112917143Y-24695714D01*
X112917143Y-24481429D01*
X112988572Y-24195714D01*
X113060000Y-24052857D01*
X113202858Y-23910000D01*
X113417143Y-23838571D01*
X113560000Y-23838571D01*
X113774286Y-23910000D01*
X113845715Y-23981429D01*
X114417143Y-25267143D02*
X114631429Y-25338571D01*
X114988572Y-25338571D01*
X115131429Y-25267143D01*
X115202858Y-25195714D01*
X115274286Y-25052857D01*
X115274286Y-24910000D01*
X115202858Y-24767143D01*
X115131429Y-24695714D01*
X114988572Y-24624286D01*
X114702858Y-24552857D01*
X114560000Y-24481429D01*
X114488572Y-24410000D01*
X114417143Y-24267143D01*
X114417143Y-24124286D01*
X114488572Y-23981429D01*
X114560000Y-23910000D01*
X114702858Y-23838571D01*
X115060000Y-23838571D01*
X115274286Y-23910000D01*
X110488571Y-27788571D02*
X110488571Y-26288571D01*
X110988571Y-27360000D01*
X111488571Y-26288571D01*
X111488571Y-27788571D01*
X112202857Y-27788571D02*
X112202857Y-26288571D01*
X112845714Y-27717143D02*
X113060000Y-27788571D01*
X113417143Y-27788571D01*
X113560000Y-27717143D01*
X113631429Y-27645714D01*
X113702857Y-27502857D01*
X113702857Y-27360000D01*
X113631429Y-27217143D01*
X113560000Y-27145714D01*
X113417143Y-27074286D01*
X113131429Y-27002857D01*
X112988571Y-26931429D01*
X112917143Y-26860000D01*
X112845714Y-26717143D01*
X112845714Y-26574286D01*
X112917143Y-26431429D01*
X112988571Y-26360000D01*
X113131429Y-26288571D01*
X113488571Y-26288571D01*
X113702857Y-26360000D01*
X114631428Y-26288571D02*
X114917142Y-26288571D01*
X115060000Y-26360000D01*
X115202857Y-26502857D01*
X115274285Y-26788571D01*
X115274285Y-27288571D01*
X115202857Y-27574286D01*
X115060000Y-27717143D01*
X114917142Y-27788571D01*
X114631428Y-27788571D01*
X114488571Y-27717143D01*
X114345714Y-27574286D01*
X114274285Y-27288571D01*
X114274285Y-26788571D01*
X114345714Y-26502857D01*
X114488571Y-26360000D01*
X114631428Y-26288571D01*
X110488571Y-30238571D02*
X110488571Y-28738571D01*
X110988571Y-29810000D01*
X111488571Y-28738571D01*
X111488571Y-30238571D01*
X112488571Y-28738571D02*
X112774285Y-28738571D01*
X112917143Y-28810000D01*
X113060000Y-28952857D01*
X113131428Y-29238571D01*
X113131428Y-29738571D01*
X113060000Y-30024286D01*
X112917143Y-30167143D01*
X112774285Y-30238571D01*
X112488571Y-30238571D01*
X112345714Y-30167143D01*
X112202857Y-30024286D01*
X112131428Y-29738571D01*
X112131428Y-29238571D01*
X112202857Y-28952857D01*
X112345714Y-28810000D01*
X112488571Y-28738571D01*
X113702857Y-30167143D02*
X113917143Y-30238571D01*
X114274286Y-30238571D01*
X114417143Y-30167143D01*
X114488572Y-30095714D01*
X114560000Y-29952857D01*
X114560000Y-29810000D01*
X114488572Y-29667143D01*
X114417143Y-29595714D01*
X114274286Y-29524286D01*
X113988572Y-29452857D01*
X113845714Y-29381429D01*
X113774286Y-29310000D01*
X113702857Y-29167143D01*
X113702857Y-29024286D01*
X113774286Y-28881429D01*
X113845714Y-28810000D01*
X113988572Y-28738571D01*
X114345714Y-28738571D01*
X114560000Y-28810000D01*
X115202857Y-30238571D02*
X115202857Y-28738571D01*
X112560000Y-32545714D02*
X112488571Y-32617143D01*
X112274285Y-32688571D01*
X112131428Y-32688571D01*
X111917143Y-32617143D01*
X111774285Y-32474286D01*
X111702857Y-32331429D01*
X111631428Y-32045714D01*
X111631428Y-31831429D01*
X111702857Y-31545714D01*
X111774285Y-31402857D01*
X111917143Y-31260000D01*
X112131428Y-31188571D01*
X112274285Y-31188571D01*
X112488571Y-31260000D01*
X112560000Y-31331429D01*
X113917143Y-32688571D02*
X113202857Y-32688571D01*
X113202857Y-31188571D01*
X114417143Y-32688571D02*
X114417143Y-31188571D01*
X115274286Y-32688571D02*
X114631429Y-31831429D01*
X115274286Y-31188571D02*
X114417143Y-32045714D01*
X143710001Y-21431429D02*
X143781430Y-21360000D01*
X143924287Y-21288571D01*
X144281430Y-21288571D01*
X144424287Y-21360000D01*
X144495716Y-21431429D01*
X144567144Y-21574286D01*
X144567144Y-21717143D01*
X144495716Y-21931429D01*
X143638573Y-22788571D01*
X144567144Y-22788571D01*
X147138572Y-22788571D02*
X146281429Y-22788571D01*
X146710001Y-22788571D02*
X146710001Y-21288571D01*
X146567144Y-21502857D01*
X146424286Y-21645714D01*
X146281429Y-21717143D01*
X149210000Y-21288571D02*
X149352857Y-21288571D01*
X149495714Y-21360000D01*
X149567143Y-21431429D01*
X149638572Y-21574286D01*
X149710000Y-21860000D01*
X149710000Y-22217143D01*
X149638572Y-22502857D01*
X149567143Y-22645714D01*
X149495714Y-22717143D01*
X149352857Y-22788571D01*
X149210000Y-22788571D01*
X149067143Y-22717143D01*
X148995714Y-22645714D01*
X148924286Y-22502857D01*
X148852857Y-22217143D01*
X148852857Y-21860000D01*
X148924286Y-21574286D01*
X148995714Y-21431429D01*
X149067143Y-21360000D01*
X149210000Y-21288571D01*
X125075714Y-22795714D02*
X125004285Y-22867143D01*
X124789999Y-22938571D01*
X124647142Y-22938571D01*
X124432857Y-22867143D01*
X124289999Y-22724286D01*
X124218571Y-22581429D01*
X124147142Y-22295714D01*
X124147142Y-22081429D01*
X124218571Y-21795714D01*
X124289999Y-21652857D01*
X124432857Y-21510000D01*
X124647142Y-21438571D01*
X124789999Y-21438571D01*
X125004285Y-21510000D01*
X125075714Y-21581429D01*
X126432857Y-22938571D02*
X125718571Y-22938571D01*
X125718571Y-21438571D01*
X126932857Y-22938571D02*
X126932857Y-21438571D01*
X127790000Y-22938571D02*
X127147143Y-22081429D01*
X127790000Y-21438571D02*
X126932857Y-22295714D01*
X129575714Y-22938571D02*
X129575714Y-21438571D01*
X130075714Y-22510000D01*
X130575714Y-21438571D01*
X130575714Y-22938571D01*
X131290000Y-22938571D02*
X131290000Y-21438571D01*
X131932857Y-22867143D02*
X132147143Y-22938571D01*
X132504286Y-22938571D01*
X132647143Y-22867143D01*
X132718572Y-22795714D01*
X132790000Y-22652857D01*
X132790000Y-22510000D01*
X132718572Y-22367143D01*
X132647143Y-22295714D01*
X132504286Y-22224286D01*
X132218572Y-22152857D01*
X132075714Y-22081429D01*
X132004286Y-22010000D01*
X131932857Y-21867143D01*
X131932857Y-21724286D01*
X132004286Y-21581429D01*
X132075714Y-21510000D01*
X132218572Y-21438571D01*
X132575714Y-21438571D01*
X132790000Y-21510000D01*
X133718571Y-21438571D02*
X134004285Y-21438571D01*
X134147143Y-21510000D01*
X134290000Y-21652857D01*
X134361428Y-21938571D01*
X134361428Y-22438571D01*
X134290000Y-22724286D01*
X134147143Y-22867143D01*
X134004285Y-22938571D01*
X133718571Y-22938571D01*
X133575714Y-22867143D01*
X133432857Y-22724286D01*
X133361428Y-22438571D01*
X133361428Y-21938571D01*
X133432857Y-21652857D01*
X133575714Y-21510000D01*
X133718571Y-21438571D01*
X136147143Y-22938571D02*
X136147143Y-21438571D01*
X136647143Y-22510000D01*
X137147143Y-21438571D01*
X137147143Y-22938571D01*
X138147143Y-21438571D02*
X138432857Y-21438571D01*
X138575715Y-21510000D01*
X138718572Y-21652857D01*
X138790000Y-21938571D01*
X138790000Y-22438571D01*
X138718572Y-22724286D01*
X138575715Y-22867143D01*
X138432857Y-22938571D01*
X138147143Y-22938571D01*
X138004286Y-22867143D01*
X137861429Y-22724286D01*
X137790000Y-22438571D01*
X137790000Y-21938571D01*
X137861429Y-21652857D01*
X138004286Y-21510000D01*
X138147143Y-21438571D01*
X139361429Y-22867143D02*
X139575715Y-22938571D01*
X139932858Y-22938571D01*
X140075715Y-22867143D01*
X140147144Y-22795714D01*
X140218572Y-22652857D01*
X140218572Y-22510000D01*
X140147144Y-22367143D01*
X140075715Y-22295714D01*
X139932858Y-22224286D01*
X139647144Y-22152857D01*
X139504286Y-22081429D01*
X139432858Y-22010000D01*
X139361429Y-21867143D01*
X139361429Y-21724286D01*
X139432858Y-21581429D01*
X139504286Y-21510000D01*
X139647144Y-21438571D01*
X140004286Y-21438571D01*
X140218572Y-21510000D01*
X140861429Y-22938571D02*
X140861429Y-21438571D01*
X104514286Y-92142857D02*
X104514286Y-93114286D01*
X104571429Y-93228571D01*
X104628572Y-93285714D01*
X104742858Y-93342857D01*
X104971429Y-93342857D01*
X105085715Y-93285714D01*
X105142858Y-93228571D01*
X105200001Y-93114286D01*
X105200001Y-92142857D01*
X105714286Y-93285714D02*
X105885715Y-93342857D01*
X106171429Y-93342857D01*
X106285715Y-93285714D01*
X106342858Y-93228571D01*
X106400001Y-93114286D01*
X106400001Y-93000000D01*
X106342858Y-92885714D01*
X106285715Y-92828571D01*
X106171429Y-92771429D01*
X105942858Y-92714286D01*
X105828572Y-92657143D01*
X105771429Y-92600000D01*
X105714286Y-92485714D01*
X105714286Y-92371429D01*
X105771429Y-92257143D01*
X105828572Y-92200000D01*
X105942858Y-92142857D01*
X106228572Y-92142857D01*
X106400001Y-92200000D01*
X107314286Y-92714286D02*
X107485715Y-92771429D01*
X107542858Y-92828571D01*
X107600001Y-92942857D01*
X107600001Y-93114286D01*
X107542858Y-93228571D01*
X107485715Y-93285714D01*
X107371429Y-93342857D01*
X106914286Y-93342857D01*
X106914286Y-92142857D01*
X107314286Y-92142857D01*
X107428572Y-92200000D01*
X107485715Y-92257143D01*
X107542858Y-92371429D01*
X107542858Y-92485714D01*
X107485715Y-92600000D01*
X107428572Y-92657143D01*
X107314286Y-92714286D01*
X106914286Y-92714286D01*
X107828572Y-93457143D02*
X108742858Y-93457143D01*
X109600001Y-92142857D02*
X109028572Y-92142857D01*
X108971429Y-92714286D01*
X109028572Y-92657143D01*
X109142858Y-92600000D01*
X109428572Y-92600000D01*
X109542858Y-92657143D01*
X109600001Y-92714286D01*
X109657144Y-92828571D01*
X109657144Y-93114286D01*
X109600001Y-93228571D01*
X109542858Y-93285714D01*
X109428572Y-93342857D01*
X109142858Y-93342857D01*
X109028572Y-93285714D01*
X108971429Y-93228571D01*
X110000001Y-92142857D02*
X110400001Y-93342857D01*
X110800001Y-92142857D01*
X110914286Y-93457143D02*
X111828572Y-93457143D01*
X112114286Y-92714286D02*
X112514286Y-92714286D01*
X112685715Y-93342857D02*
X112114286Y-93342857D01*
X112114286Y-92142857D01*
X112685715Y-92142857D01*
X113200000Y-93342857D02*
X113200000Y-92142857D01*
X113885715Y-93342857D01*
X113885715Y-92142857D01*
D10*
X142700000Y-104600000D02*
X142700000Y-105200000D01*
X142700000Y-105200000D02*
X142700000Y-104600000D01*
X142700000Y-104600000D02*
X142700000Y-100800000D01*
X142700000Y-100800000D02*
X146300000Y-100800000D01*
X146300000Y-100800000D02*
X146300000Y-105200000D01*
X146300000Y-105200000D02*
X142700000Y-105200000D01*
D14*
X123500000Y-39340000D02*
X123000000Y-38840000D01*
X123000000Y-39340000D02*
X123000000Y-29340000D01*
X129000000Y-39340000D02*
X123000000Y-39340000D01*
X129000000Y-29340000D02*
X129000000Y-39340000D01*
X123000000Y-29340000D02*
X129000000Y-29340000D01*
X122750000Y-107460000D02*
X122500000Y-107210000D01*
X125500000Y-107460000D02*
X122500000Y-107460000D01*
X125500000Y-99460000D02*
X125500000Y-107460000D01*
X122500000Y-99460000D02*
X125500000Y-99460000D01*
X125500000Y-99460000D02*
X122500000Y-99460000D01*
X122500000Y-107460000D02*
X122500000Y-99460000D01*
D15*
X128650000Y-85470000D02*
X129150000Y-85470000D01*
X129150000Y-84530000D02*
X128650000Y-84530000D01*
X145345000Y-79725000D02*
X145345000Y-79225000D01*
X144405000Y-79225000D02*
X144405000Y-79725000D01*
X156320000Y-79750000D02*
X156320000Y-79250000D01*
X155380000Y-79250000D02*
X155380000Y-79750000D01*
X143530000Y-50250000D02*
X143530000Y-50750000D01*
X144470000Y-50750000D02*
X144470000Y-50250000D01*
X122470000Y-95250000D02*
X122470000Y-94750000D01*
X121530000Y-94750000D02*
X121530000Y-95250000D01*
X116250000Y-86970000D02*
X116750000Y-86970000D01*
X116750000Y-86030000D02*
X116250000Y-86030000D01*
X134250000Y-59270000D02*
X134750000Y-59270000D01*
X134750000Y-58330000D02*
X134250000Y-58330000D01*
X133850000Y-63520000D02*
X134350000Y-63520000D01*
X134350000Y-62580000D02*
X133850000Y-62580000D01*
X150130000Y-50250000D02*
X150130000Y-50750000D01*
X151070000Y-50750000D02*
X151070000Y-50250000D01*
X163750000Y-63130000D02*
X163250000Y-63130000D01*
X163250000Y-64070000D02*
X163750000Y-64070000D01*
X163750000Y-67530000D02*
X163250000Y-67530000D01*
X163250000Y-68470000D02*
X163750000Y-68470000D01*
X142470000Y-50750000D02*
X142470000Y-50250000D01*
X141530000Y-50250000D02*
X141530000Y-50750000D01*
X163275000Y-57280000D02*
X162775000Y-57280000D01*
X162775000Y-58220000D02*
X163275000Y-58220000D01*
X163750000Y-70730000D02*
X163250000Y-70730000D01*
X163250000Y-71670000D02*
X163750000Y-71670000D01*
X153680000Y-79150000D02*
X153680000Y-79650000D01*
X154620000Y-79650000D02*
X154620000Y-79150000D01*
X143845000Y-79725000D02*
X143845000Y-79225000D01*
X142905000Y-79225000D02*
X142905000Y-79725000D01*
X134250000Y-70470000D02*
X134750000Y-70470000D01*
X134750000Y-69530000D02*
X134250000Y-69530000D01*
X132425000Y-61745000D02*
X132925000Y-61745000D01*
X132925000Y-60805000D02*
X132425000Y-60805000D01*
X140250000Y-101530000D02*
X139750000Y-101530000D01*
X139750000Y-102470000D02*
X140250000Y-102470000D01*
X164820000Y-101930000D02*
X165320000Y-101930000D01*
X165320000Y-100990000D02*
X164820000Y-100990000D01*
X154530000Y-96275000D02*
X154530000Y-96775000D01*
X155470000Y-96775000D02*
X155470000Y-96275000D01*
X127750000Y-41470000D02*
X128250000Y-41470000D01*
X128250000Y-40530000D02*
X127750000Y-40530000D01*
X137750000Y-41370000D02*
X138250000Y-41370000D01*
X138250000Y-40430000D02*
X137750000Y-40430000D01*
X147750000Y-41470000D02*
X148250000Y-41470000D01*
X148250000Y-40530000D02*
X147750000Y-40530000D01*
X147250000Y-81530000D02*
X146750000Y-81530000D01*
X146750000Y-82470000D02*
X147250000Y-82470000D01*
X151650000Y-81530000D02*
X151150000Y-81530000D01*
X151150000Y-82470000D02*
X151650000Y-82470000D01*
X140250000Y-47530000D02*
X139750000Y-47530000D01*
X139750000Y-48470000D02*
X140250000Y-48470000D01*
X127750000Y-47780000D02*
X127250000Y-47780000D01*
X127250000Y-48720000D02*
X127750000Y-48720000D01*
X111750000Y-69470000D02*
X112250000Y-69470000D01*
X112250000Y-68530000D02*
X111750000Y-68530000D01*
X106550000Y-90970000D02*
X107050000Y-90970000D01*
X107050000Y-90030000D02*
X106550000Y-90030000D01*
X133500000Y-90700000D02*
X132500000Y-90700000D01*
X132500000Y-90700000D02*
X132500000Y-92800000D01*
X133500000Y-90700000D02*
X133500000Y-92800000D01*
D10*
X154000000Y-100250000D02*
X153750000Y-100250000D01*
X154000000Y-101750000D02*
X154000000Y-100250000D01*
X153750000Y-101750000D02*
X154000000Y-101750000D01*
X154000000Y-101750000D02*
X153750000Y-101750000D01*
X150250000Y-101750000D02*
X150250000Y-100250000D01*
X153750000Y-101750000D02*
X150250000Y-101750000D01*
X153750000Y-100250000D02*
X153750000Y-101750000D01*
X150250000Y-100250000D02*
X153750000Y-100250000D01*
X153250000Y-101750000D02*
X150250000Y-101750000D01*
X150250000Y-101750000D02*
X150250000Y-100250000D01*
D15*
X139500000Y-95700000D02*
X138500000Y-95700000D01*
X138500000Y-95700000D02*
X138500000Y-97800000D01*
X139500000Y-95700000D02*
X139500000Y-97800000D01*
X121010572Y-89103643D02*
X121010572Y-88103643D01*
X121010572Y-88103643D02*
X118910572Y-88103643D01*
X121010572Y-89103643D02*
X118910572Y-89103643D01*
X114100000Y-75500000D02*
X115100000Y-75500000D01*
X115100000Y-75500000D02*
X115100000Y-73400000D01*
X114100000Y-75500000D02*
X114100000Y-73400000D01*
D11*
X178750000Y-106050000D02*
X183750000Y-106050000D01*
X178750000Y-24110000D02*
X178750000Y-106050000D01*
X183750000Y-24110000D02*
X183750000Y-106050000D01*
X178750000Y-24110000D02*
X183750000Y-24110000D01*
D14*
X130130000Y-98350000D02*
X130630000Y-98850000D01*
X130630000Y-103350000D02*
X128630000Y-103350000D01*
X130630000Y-98350000D02*
X128630000Y-98350000D01*
X128630000Y-103350000D02*
X128630000Y-98350000D01*
X130630000Y-103350000D02*
X128630000Y-103350000D01*
X130630000Y-98350000D02*
X130630000Y-103350000D01*
X164460000Y-108250000D02*
X164210000Y-108500000D01*
X164460000Y-105500000D02*
X164460000Y-108500000D01*
X156460000Y-105500000D02*
X164460000Y-105500000D01*
X156460000Y-108500000D02*
X156460000Y-105500000D01*
X156460000Y-105500000D02*
X156460000Y-108500000D01*
X164460000Y-108500000D02*
X156460000Y-108500000D01*
X146530000Y-108510000D02*
X146030000Y-109010000D01*
X141530000Y-109010000D02*
X141530000Y-107010000D01*
X146530000Y-109010000D02*
X146530000Y-107010000D01*
X141530000Y-107010000D02*
X146530000Y-107010000D01*
X141530000Y-109010000D02*
X141530000Y-107010000D01*
X146530000Y-109010000D02*
X141530000Y-109010000D01*
X114500000Y-107500000D02*
X115000000Y-107000000D01*
X119500000Y-107000000D02*
X119500000Y-109000000D01*
X114500000Y-107000000D02*
X114500000Y-109000000D01*
X119500000Y-109000000D02*
X114500000Y-109000000D01*
X119500000Y-107000000D02*
X119500000Y-109000000D01*
X114500000Y-107000000D02*
X119500000Y-107000000D01*
D10*
X110500000Y-87000000D02*
X110500000Y-75000000D01*
X101000000Y-87000000D02*
X110500000Y-87000000D01*
X101000000Y-75000000D02*
X101000000Y-87000000D01*
X110500000Y-75000000D02*
X101000000Y-75000000D01*
D14*
X118500000Y-22750000D02*
X119000000Y-23250000D01*
X119000000Y-23250000D02*
X119000000Y-22750000D01*
X116000000Y-22750000D02*
X119000000Y-22750000D01*
X116000000Y-33750000D02*
X116000000Y-22750000D01*
X116000000Y-33750000D02*
X119000000Y-33750000D01*
X119000000Y-33750000D02*
X116000000Y-33750000D01*
X119000000Y-23250000D02*
X119000000Y-33750000D01*
X128000000Y-23750000D02*
X128250000Y-23500000D01*
X128000000Y-26500000D02*
X128000000Y-23500000D01*
X136000000Y-26500000D02*
X128000000Y-26500000D01*
X136000000Y-23500000D02*
X136000000Y-26500000D01*
X136000000Y-26500000D02*
X136000000Y-23500000D01*
X128000000Y-23500000D02*
X136000000Y-23500000D01*
X142660000Y-23750000D02*
X142910000Y-23500000D01*
X142660000Y-26500000D02*
X142660000Y-23500000D01*
X150660000Y-26500000D02*
X142660000Y-26500000D01*
X150660000Y-23500000D02*
X150660000Y-26500000D01*
X150660000Y-26500000D02*
X150660000Y-23500000D01*
X142660000Y-23500000D02*
X150660000Y-23500000D01*
X102500000Y-95000000D02*
X102000000Y-94500000D01*
X102000000Y-90000000D02*
X104000000Y-90000000D01*
X102000000Y-95000000D02*
X104000000Y-95000000D01*
X104000000Y-90000000D02*
X104000000Y-95000000D01*
X102000000Y-90000000D02*
X104000000Y-90000000D01*
X102000000Y-95000000D02*
X102000000Y-90000000D01*
X108750000Y-47750000D02*
X109250000Y-48250000D01*
X109250000Y-52750000D02*
X107250000Y-52750000D01*
X109250000Y-47750000D02*
X107250000Y-47750000D01*
X107250000Y-52750000D02*
X107250000Y-47750000D01*
X109250000Y-52750000D02*
X107250000Y-52750000D01*
X109250000Y-47750000D02*
X109250000Y-52750000D01*
D10*
X114600000Y-101800000D02*
X115200000Y-101800000D01*
X115200000Y-101800000D02*
X114600000Y-101800000D01*
X114600000Y-101800000D02*
X110800000Y-101800000D01*
X110800000Y-101800000D02*
X110800000Y-98200000D01*
X110800000Y-98200000D02*
X115200000Y-98200000D01*
X115200000Y-98200000D02*
X115200000Y-101800000D01*
X130380000Y-91000000D02*
X130980000Y-91000000D01*
X130980000Y-91000000D02*
X130380000Y-91000000D01*
X130380000Y-91000000D02*
X126580000Y-91000000D01*
X126580000Y-91000000D02*
X126580000Y-87400000D01*
X126580000Y-87400000D02*
X130980000Y-87400000D01*
X130980000Y-87400000D02*
X130980000Y-91000000D01*
X149200000Y-97600000D02*
X149200000Y-98200000D01*
X149200000Y-98200000D02*
X149200000Y-97600000D01*
X149200000Y-97600000D02*
X149200000Y-93800000D01*
X149200000Y-93800000D02*
X152800000Y-93800000D01*
X152800000Y-93800000D02*
X152800000Y-98200000D01*
X152800000Y-98200000D02*
X149200000Y-98200000D01*
X128800000Y-94400000D02*
X128800000Y-93800000D01*
X128800000Y-93800000D02*
X128800000Y-94400000D01*
X128800000Y-94400000D02*
X128800000Y-98200000D01*
X128800000Y-98200000D02*
X125200000Y-98200000D01*
X125200000Y-98200000D02*
X125200000Y-93800000D01*
X125200000Y-93800000D02*
X128800000Y-93800000D01*
D15*
X112200000Y-104530000D02*
X112700000Y-104530000D01*
X112700000Y-103470000D02*
X112200000Y-103470000D01*
X115150000Y-82930000D02*
X115650000Y-82930000D01*
X115650000Y-81870000D02*
X115150000Y-81870000D01*
X132400000Y-104180000D02*
X137600000Y-104180000D01*
X137600000Y-107820000D02*
X132400000Y-107820000D01*
X119300000Y-104530000D02*
X119800000Y-104530000D01*
X119800000Y-103470000D02*
X119300000Y-103470000D01*
X140530000Y-93300000D02*
X140530000Y-92800000D01*
X139470000Y-92800000D02*
X139470000Y-93300000D01*
X132470000Y-100300000D02*
X132470000Y-100800000D01*
X133530000Y-100800000D02*
X133530000Y-100300000D01*
X124375000Y-98070000D02*
X123875000Y-98070000D01*
X123875000Y-99130000D02*
X124375000Y-99130000D01*
X135700000Y-98470000D02*
X135200000Y-98470000D01*
X135200000Y-99530000D02*
X135700000Y-99530000D01*
X124800000Y-27470000D02*
X124300000Y-27470000D01*
X124300000Y-28530000D02*
X124800000Y-28530000D01*
X136250000Y-27470000D02*
X135750000Y-27470000D01*
X135750000Y-28530000D02*
X136250000Y-28530000D01*
X145250000Y-27470000D02*
X144750000Y-27470000D01*
X144750000Y-28530000D02*
X145250000Y-28530000D01*
X123780000Y-54520000D02*
X123780000Y-55020000D01*
X124840000Y-55020000D02*
X124840000Y-54520000D01*
X126970000Y-53800000D02*
X126470000Y-53800000D01*
X126470000Y-54860000D02*
X126970000Y-54860000D01*
X127570000Y-65725000D02*
X127570000Y-66225000D01*
X128630000Y-66225000D02*
X128630000Y-65725000D01*
X112500000Y-62970000D02*
X112000000Y-62970000D01*
X112000000Y-64030000D02*
X112500000Y-64030000D01*
X127980000Y-49800000D02*
X127980000Y-50300000D01*
X129040000Y-50300000D02*
X129040000Y-49800000D01*
X115150000Y-80230000D02*
X115650000Y-80230000D01*
X115650000Y-79170000D02*
X115150000Y-79170000D01*
X125030000Y-78750000D02*
X125030000Y-78250000D01*
X123970000Y-78250000D02*
X123970000Y-78750000D01*
X120750000Y-76030000D02*
X121250000Y-76030000D01*
X121250000Y-74970000D02*
X120750000Y-74970000D01*
X123750000Y-76030000D02*
X124250000Y-76030000D01*
X124250000Y-74970000D02*
X123750000Y-74970000D01*
X117950000Y-76030000D02*
X118450000Y-76030000D01*
X118450000Y-74970000D02*
X117950000Y-74970000D01*
X116960572Y-88073643D02*
X116460572Y-88073643D01*
X116460572Y-89133643D02*
X116960572Y-89133643D01*
X117900000Y-74030000D02*
X118400000Y-74030000D01*
X118400000Y-72970000D02*
X117900000Y-72970000D01*
D11*
X138825000Y-75175000D02*
X139800000Y-75175000D01*
X138825000Y-54825000D02*
X139875000Y-54825000D01*
X159175000Y-54825000D02*
X158125000Y-54825000D01*
X159175000Y-75175000D02*
X158125000Y-75175000D01*
X138825000Y-75175000D02*
X138825000Y-74125000D01*
X159175000Y-75175000D02*
X159175000Y-74125000D01*
X159175000Y-54825000D02*
X159175000Y-55875000D01*
X138825000Y-54825000D02*
X138825000Y-55875000D01*
X139800000Y-75175000D02*
X139800000Y-76475000D01*
D14*
X143000000Y-97500000D02*
X147000000Y-97500000D01*
X143000000Y-92500000D02*
X143000000Y-97500000D01*
X147000000Y-97500000D02*
X147000000Y-92500000D01*
X143000000Y-92500000D02*
X147000000Y-92500000D01*
D10*
X158500000Y-89500000D02*
X165500000Y-89500000D01*
X158500000Y-98500000D02*
X158500000Y-89500000D01*
X165500000Y-98500000D02*
X158500000Y-98500000D01*
X165500000Y-89500000D02*
X165500000Y-98500000D01*
X121623607Y-97500000D02*
G75*
G03X121623607Y-97500000I-223607J0D01*
G01*
X117000000Y-100000000D02*
X117000000Y-98000000D01*
X121000000Y-98000000D02*
X117000000Y-98000000D01*
X121000000Y-100000000D02*
X117000000Y-100000000D01*
X117000000Y-100000000D02*
X121000000Y-100000000D01*
X121000000Y-100000000D02*
X117000000Y-100000000D01*
X117000000Y-100000000D02*
X117000000Y-98000000D01*
X117000000Y-98000000D02*
X121000000Y-98000000D01*
X121000000Y-98000000D02*
X121000000Y-100000000D01*
D14*
X134500000Y-39240000D02*
X134000000Y-38740000D01*
X134000000Y-39240000D02*
X134000000Y-29240000D01*
X140000000Y-39240000D02*
X134000000Y-39240000D01*
X140000000Y-29240000D02*
X140000000Y-39240000D01*
X134000000Y-29240000D02*
X140000000Y-29240000D01*
X144500000Y-39240000D02*
X144000000Y-38740000D01*
X144000000Y-39240000D02*
X144000000Y-29240000D01*
X150000000Y-39240000D02*
X144000000Y-39240000D01*
X150000000Y-29240000D02*
X150000000Y-39240000D01*
X144000000Y-29240000D02*
X150000000Y-29240000D01*
D10*
X136500000Y-49900000D02*
X137000000Y-49300000D01*
X132900000Y-49900000D02*
X132900000Y-49200000D01*
X132900000Y-49200000D02*
X132900000Y-49900000D01*
X132900000Y-49900000D02*
X136500000Y-49900000D01*
X137000000Y-44300000D02*
X137000000Y-49300000D01*
X132900000Y-44300000D02*
X132900000Y-49200000D01*
X132900000Y-44300000D02*
X137000000Y-44300000D01*
X120360555Y-47750000D02*
G75*
G03X120360555Y-47750000I-360555J0D01*
G01*
X125500000Y-52250000D02*
X120500000Y-52250000D01*
X125500000Y-48250000D02*
X125500000Y-52250000D01*
X120500000Y-48250000D02*
X125500000Y-48250000D01*
X120500000Y-52250000D02*
X120500000Y-48250000D01*
X125500000Y-48250000D02*
X125500000Y-52250000D01*
X125500000Y-52250000D02*
X120500000Y-52250000D01*
D16*
X122050000Y-78450000D02*
G75*
G03X122050000Y-78450000I-100000J0D01*
G01*
D12*
X122350000Y-82550000D02*
X122350000Y-83350000D01*
X122350000Y-83350000D02*
X121550000Y-83350000D01*
X117950000Y-82550000D02*
X117950000Y-83350000D01*
X117950000Y-83350000D02*
X118750000Y-83350000D01*
X117950000Y-79750000D02*
X117950000Y-78950000D01*
X117950000Y-78950000D02*
X118750000Y-78950000D01*
X122350000Y-79750000D02*
X122350000Y-78950000D01*
X122350000Y-78950000D02*
X121550000Y-78950000D01*
D15*
X171775000Y-56380000D02*
X171275000Y-56380000D01*
X171275000Y-57320000D02*
X171775000Y-57320000D01*
D14*
X123500000Y-43750000D02*
X124000000Y-43250000D01*
X128500000Y-43250000D02*
X128500000Y-45250000D01*
X123500000Y-43250000D02*
X123500000Y-45250000D01*
X128500000Y-45250000D02*
X123500000Y-45250000D01*
X128500000Y-43250000D02*
X128500000Y-45250000D01*
X123500000Y-43250000D02*
X128500000Y-43250000D01*
D10*
X170000000Y-58600000D02*
X170000000Y-65400000D01*
X174000000Y-58600000D02*
X170000000Y-58600000D01*
X174000000Y-65400000D02*
X174000000Y-58600000D01*
X170000000Y-65400000D02*
X174000000Y-65400000D01*
X170082843Y-66000000D02*
G75*
G03X170082843Y-66000000I-282843J0D01*
G01*
X108500000Y-39500000D02*
X109000000Y-39500000D01*
X108000000Y-38500000D02*
X108500000Y-39500000D01*
X105500000Y-38500000D02*
X108000000Y-38500000D01*
X105500000Y-44500000D02*
X109000000Y-44500000D01*
X100500000Y-38500000D02*
X102500000Y-38500000D01*
X100500000Y-39000000D02*
X100500000Y-38500000D01*
X100500000Y-44000000D02*
X100500000Y-41000000D01*
X101500000Y-44000000D02*
X100500000Y-44000000D01*
X101500000Y-44500000D02*
X101500000Y-44000000D01*
X102500000Y-44500000D02*
X101500000Y-44500000D01*
X100500000Y-41000000D02*
X100500000Y-39000000D01*
D14*
X150500000Y-103500000D02*
X151000000Y-104000000D01*
X151000000Y-108500000D02*
X149000000Y-108500000D01*
X151000000Y-103500000D02*
X149000000Y-103500000D01*
X149000000Y-108500000D02*
X149000000Y-103500000D01*
X151000000Y-108500000D02*
X149000000Y-108500000D01*
X151000000Y-103500000D02*
X151000000Y-108500000D01*
D17*
G36*
X167143536Y-73259689D02*
X167261410Y-73445070D01*
X167411358Y-73710617D01*
X167460995Y-73803833D01*
X167617392Y-74096523D01*
X167747378Y-74330473D01*
X167828464Y-74465485D01*
X167839380Y-74480127D01*
X167941113Y-74482612D01*
X168129424Y-74414229D01*
X168209387Y-74374293D01*
X168421217Y-74269287D01*
X168570648Y-74210520D01*
X168595715Y-74206000D01*
X168624059Y-74280781D01*
X168617548Y-74472818D01*
X168596022Y-74629333D01*
X168534795Y-74989116D01*
X168470079Y-75369255D01*
X168452975Y-75469692D01*
X168418074Y-75722330D01*
X168430088Y-75855608D01*
X168496788Y-75914915D01*
X168531048Y-75925708D01*
X168696091Y-75891060D01*
X168898717Y-75736252D01*
X168914246Y-75720349D01*
X169041817Y-75568826D01*
X169081303Y-75481559D01*
X169069007Y-75473425D01*
X169065584Y-75437892D01*
X169147916Y-75378909D01*
X169311432Y-75348791D01*
X169417333Y-75469044D01*
X169454037Y-75711749D01*
X169466237Y-75822450D01*
X169528818Y-75871935D01*
X169683678Y-75872997D01*
X169899834Y-75847882D01*
X170196877Y-75800462D01*
X170453168Y-75744186D01*
X170544271Y-75716473D01*
X170677858Y-75679915D01*
X170720957Y-75734949D01*
X170702782Y-75918909D01*
X170702768Y-75919007D01*
X170654693Y-76165838D01*
X170579452Y-76479889D01*
X170537365Y-76636443D01*
X170413404Y-77077220D01*
X170705398Y-77193683D01*
X170997392Y-77310145D01*
X170501529Y-77723889D01*
X170259511Y-77925246D01*
X170071096Y-78080918D01*
X169971249Y-78162043D01*
X169965349Y-78166523D01*
X170010991Y-78231204D01*
X170161545Y-78395423D01*
X170399765Y-78641456D01*
X170708404Y-78951579D01*
X171070213Y-79308067D01*
X171184543Y-79419457D01*
X171558695Y-79787147D01*
X171884316Y-80114979D01*
X172144201Y-80384975D01*
X172321144Y-80579153D01*
X172397940Y-80679535D01*
X172398989Y-80688566D01*
X172303809Y-80680697D01*
X172123586Y-80605013D01*
X172068796Y-80575986D01*
X171854188Y-80469962D01*
X171540913Y-80330247D01*
X171188627Y-80183222D01*
X171106334Y-80150345D01*
X169824190Y-79732605D01*
X168510311Y-79477200D01*
X167179486Y-79383650D01*
X165846505Y-79451474D01*
X164526157Y-79680191D01*
X163233232Y-80069321D01*
X162356953Y-80434779D01*
X162061458Y-80569528D01*
X161826845Y-80670137D01*
X161693394Y-80719533D01*
X161679620Y-80721861D01*
X161706488Y-80668948D01*
X161832125Y-80534502D01*
X162004667Y-80370510D01*
X162209403Y-80203791D01*
X162394037Y-80203791D01*
X162436773Y-80218656D01*
X162600250Y-80175222D01*
X162849981Y-80082850D01*
X162870723Y-80074416D01*
X163260742Y-79926173D01*
X163695219Y-79777457D01*
X163952000Y-79698160D01*
X164910226Y-79478799D01*
X165959892Y-79339034D01*
X167041500Y-79282181D01*
X168095555Y-79311553D01*
X168989667Y-79417554D01*
X169391485Y-79503378D01*
X169896677Y-79635745D01*
X170451381Y-79798341D01*
X171001736Y-79974848D01*
X171493883Y-80148951D01*
X171780134Y-80262881D01*
X171775652Y-80230353D01*
X171664193Y-80097563D01*
X171461332Y-79881106D01*
X171182644Y-79597575D01*
X170843704Y-79263563D01*
X170826316Y-79246671D01*
X169706698Y-78159692D01*
X169940849Y-78012183D01*
X170156587Y-77860823D01*
X170405384Y-77665609D01*
X170471334Y-77610103D01*
X170767667Y-77355531D01*
X170534834Y-77248842D01*
X170401417Y-77183249D01*
X170331071Y-77112343D01*
X170318924Y-76995948D01*
X170360109Y-76793886D01*
X170442931Y-76490542D01*
X170508370Y-76217049D01*
X170537792Y-76011982D01*
X170528119Y-75927897D01*
X170421388Y-75914466D01*
X170204428Y-75938241D01*
X170007465Y-75976196D01*
X169680276Y-76034404D01*
X169483576Y-76024636D01*
X169389897Y-75939924D01*
X169370667Y-75814666D01*
X169335780Y-75648697D01*
X169228626Y-75630569D01*
X169045466Y-75760600D01*
X168953808Y-75850320D01*
X168772132Y-76021298D01*
X168638452Y-76084295D01*
X168493395Y-76062270D01*
X168447859Y-76045968D01*
X168216266Y-75958551D01*
X168326970Y-75357442D01*
X168388849Y-75028798D01*
X168444934Y-74743544D01*
X168483147Y-74563101D01*
X168483318Y-74562376D01*
X168504766Y-74435983D01*
X168457726Y-74414034D01*
X168303983Y-74484785D01*
X168276685Y-74498876D01*
X168055531Y-74595337D01*
X167888675Y-74604513D01*
X167743371Y-74508238D01*
X167586871Y-74288345D01*
X167446079Y-74038104D01*
X167290036Y-73761188D01*
X167160353Y-73553327D01*
X167079876Y-73450517D01*
X167069896Y-73445437D01*
X167007123Y-73514745D01*
X166893880Y-73699105D01*
X166752975Y-73960913D01*
X166731229Y-74003811D01*
X166579339Y-74282667D01*
X166440803Y-74497115D01*
X166343200Y-74604945D01*
X166336138Y-74608489D01*
X166190231Y-74603911D01*
X165976549Y-74534995D01*
X165933971Y-74515714D01*
X165746017Y-74432324D01*
X165664739Y-74428928D01*
X165645620Y-74509271D01*
X165645334Y-74539989D01*
X165690444Y-74712354D01*
X165841631Y-74887573D01*
X166122680Y-75091417D01*
X166197875Y-75138698D01*
X166374569Y-75261781D01*
X166460159Y-75349575D01*
X166460070Y-75366819D01*
X166374362Y-75345436D01*
X166195728Y-75247569D01*
X166029605Y-75139584D01*
X165525534Y-74834226D01*
X165007360Y-74592940D01*
X164529970Y-74439798D01*
X164362913Y-74408639D01*
X164098484Y-74390132D01*
X163914309Y-74439206D01*
X163745073Y-74561447D01*
X163583083Y-74744126D01*
X163496610Y-74977599D01*
X163465745Y-75194814D01*
X163457422Y-75484537D01*
X163494928Y-75655625D01*
X163517982Y-75681063D01*
X163577643Y-75679233D01*
X163564765Y-75617281D01*
X163565258Y-75464979D01*
X163570677Y-75444921D01*
X163750841Y-75444921D01*
X163756144Y-75659708D01*
X163819807Y-75764046D01*
X163985542Y-75816185D01*
X164036667Y-75825820D01*
X164367341Y-75869577D01*
X164569166Y-75847281D01*
X164672453Y-75750698D01*
X164700946Y-75645333D01*
X164755671Y-75440773D01*
X164810620Y-75337807D01*
X164993304Y-75337807D01*
X165024564Y-75416747D01*
X165146367Y-75587845D01*
X165334822Y-75818443D01*
X165398696Y-75891971D01*
X165609594Y-76125829D01*
X165773698Y-76297019D01*
X165863233Y-76376924D01*
X165871329Y-76378893D01*
X165866405Y-76290758D01*
X165824526Y-76102602D01*
X165811304Y-76053283D01*
X165664522Y-75767421D01*
X165382496Y-75522535D01*
X165174933Y-75398640D01*
X165029521Y-75336740D01*
X164993304Y-75337807D01*
X164810620Y-75337807D01*
X164813777Y-75331893D01*
X164822621Y-75242836D01*
X164688647Y-75146570D01*
X164583658Y-75099060D01*
X164221415Y-74984790D01*
X163968317Y-74995428D01*
X163815120Y-75134813D01*
X163752581Y-75406783D01*
X163750841Y-75444921D01*
X163570677Y-75444921D01*
X163625495Y-75242051D01*
X163646081Y-75189550D01*
X163745804Y-74991648D01*
X163866785Y-74904463D01*
X164077786Y-74883513D01*
X164119428Y-74883333D01*
X164435303Y-74936090D01*
X164836989Y-75082486D01*
X165282814Y-75304710D01*
X165682010Y-75551191D01*
X165849573Y-75700307D01*
X165933513Y-75894327D01*
X165962710Y-76105933D01*
X165966730Y-76352439D01*
X165918941Y-76468778D01*
X165807763Y-76453083D01*
X165621615Y-76303488D01*
X165348915Y-76018128D01*
X165337217Y-76005166D01*
X165113902Y-75760633D01*
X164974778Y-75637210D01*
X164888674Y-75632051D01*
X164824420Y-75742310D01*
X164755030Y-75951989D01*
X164683669Y-76041743D01*
X164523632Y-76046382D01*
X164437530Y-76030103D01*
X164152729Y-75974715D01*
X163855375Y-75925201D01*
X163547084Y-75879507D01*
X163717206Y-76499921D01*
X163794598Y-76822907D01*
X163825902Y-77048864D01*
X163806950Y-77146917D01*
X163804671Y-77147887D01*
X163673016Y-77217158D01*
X163573870Y-77283765D01*
X163523904Y-77338584D01*
X163531425Y-77409383D01*
X163613497Y-77515859D01*
X163787182Y-77677711D01*
X164069542Y-77914637D01*
X164242807Y-78056035D01*
X164547528Y-78311946D01*
X164789628Y-78531335D01*
X164946334Y-78692339D01*
X164994876Y-78773097D01*
X164992777Y-78776026D01*
X164886057Y-78831274D01*
X164664489Y-78926644D01*
X164372000Y-79043401D01*
X164310335Y-79067106D01*
X164007944Y-79199174D01*
X163653504Y-79379086D01*
X163283718Y-79585071D01*
X162935289Y-79795359D01*
X162644917Y-79988180D01*
X162449306Y-80141763D01*
X162394037Y-80203791D01*
X162209403Y-80203791D01*
X162494400Y-79971716D01*
X163068973Y-79579916D01*
X163663331Y-79236101D01*
X164204501Y-78984360D01*
X164488091Y-78866784D01*
X164697015Y-78768117D01*
X164792783Y-78706818D01*
X164795031Y-78701124D01*
X164730827Y-78632506D01*
X164558634Y-78482557D01*
X164304596Y-78273303D01*
X163994857Y-78026768D01*
X163990697Y-78023508D01*
X163614073Y-77722594D01*
X163364547Y-77507355D01*
X163231081Y-77365523D01*
X163202636Y-77284831D01*
X163268175Y-77253013D01*
X163295834Y-77251307D01*
X163444786Y-77201306D01*
X163552483Y-77134202D01*
X163645843Y-77030477D01*
X163660176Y-76883446D01*
X163621591Y-76692395D01*
X163556351Y-76431453D01*
X163470849Y-76090060D01*
X163401792Y-75814667D01*
X163322966Y-75284568D01*
X163372464Y-74860905D01*
X163541821Y-74550302D01*
X163822569Y-74359386D01*
X164206243Y-74294783D01*
X164684375Y-74363118D01*
X165083296Y-74498737D01*
X165579591Y-74702788D01*
X165529912Y-74454394D01*
X165503139Y-74291707D01*
X165528453Y-74224736D01*
X165636823Y-74247720D01*
X165859220Y-74354899D01*
X165914192Y-74382913D01*
X166076716Y-74466278D01*
X166191851Y-74504320D01*
X166285331Y-74477098D01*
X166382891Y-74364667D01*
X166510264Y-74147086D01*
X166693186Y-73804410D01*
X166716054Y-73761500D01*
X166868272Y-73489572D01*
X166994792Y-73287826D01*
X167072276Y-73192930D01*
X167079797Y-73190000D01*
X167143536Y-73259689D01*
X167143536Y-73259689D01*
G37*
X167143536Y-73259689D02*
X167261410Y-73445070D01*
X167411358Y-73710617D01*
X167460995Y-73803833D01*
X167617392Y-74096523D01*
X167747378Y-74330473D01*
X167828464Y-74465485D01*
X167839380Y-74480127D01*
X167941113Y-74482612D01*
X168129424Y-74414229D01*
X168209387Y-74374293D01*
X168421217Y-74269287D01*
X168570648Y-74210520D01*
X168595715Y-74206000D01*
X168624059Y-74280781D01*
X168617548Y-74472818D01*
X168596022Y-74629333D01*
X168534795Y-74989116D01*
X168470079Y-75369255D01*
X168452975Y-75469692D01*
X168418074Y-75722330D01*
X168430088Y-75855608D01*
X168496788Y-75914915D01*
X168531048Y-75925708D01*
X168696091Y-75891060D01*
X168898717Y-75736252D01*
X168914246Y-75720349D01*
X169041817Y-75568826D01*
X169081303Y-75481559D01*
X169069007Y-75473425D01*
X169065584Y-75437892D01*
X169147916Y-75378909D01*
X169311432Y-75348791D01*
X169417333Y-75469044D01*
X169454037Y-75711749D01*
X169466237Y-75822450D01*
X169528818Y-75871935D01*
X169683678Y-75872997D01*
X169899834Y-75847882D01*
X170196877Y-75800462D01*
X170453168Y-75744186D01*
X170544271Y-75716473D01*
X170677858Y-75679915D01*
X170720957Y-75734949D01*
X170702782Y-75918909D01*
X170702768Y-75919007D01*
X170654693Y-76165838D01*
X170579452Y-76479889D01*
X170537365Y-76636443D01*
X170413404Y-77077220D01*
X170705398Y-77193683D01*
X170997392Y-77310145D01*
X170501529Y-77723889D01*
X170259511Y-77925246D01*
X170071096Y-78080918D01*
X169971249Y-78162043D01*
X169965349Y-78166523D01*
X170010991Y-78231204D01*
X170161545Y-78395423D01*
X170399765Y-78641456D01*
X170708404Y-78951579D01*
X171070213Y-79308067D01*
X171184543Y-79419457D01*
X171558695Y-79787147D01*
X171884316Y-80114979D01*
X172144201Y-80384975D01*
X172321144Y-80579153D01*
X172397940Y-80679535D01*
X172398989Y-80688566D01*
X172303809Y-80680697D01*
X172123586Y-80605013D01*
X172068796Y-80575986D01*
X171854188Y-80469962D01*
X171540913Y-80330247D01*
X171188627Y-80183222D01*
X171106334Y-80150345D01*
X169824190Y-79732605D01*
X168510311Y-79477200D01*
X167179486Y-79383650D01*
X165846505Y-79451474D01*
X164526157Y-79680191D01*
X163233232Y-80069321D01*
X162356953Y-80434779D01*
X162061458Y-80569528D01*
X161826845Y-80670137D01*
X161693394Y-80719533D01*
X161679620Y-80721861D01*
X161706488Y-80668948D01*
X161832125Y-80534502D01*
X162004667Y-80370510D01*
X162209403Y-80203791D01*
X162394037Y-80203791D01*
X162436773Y-80218656D01*
X162600250Y-80175222D01*
X162849981Y-80082850D01*
X162870723Y-80074416D01*
X163260742Y-79926173D01*
X163695219Y-79777457D01*
X163952000Y-79698160D01*
X164910226Y-79478799D01*
X165959892Y-79339034D01*
X167041500Y-79282181D01*
X168095555Y-79311553D01*
X168989667Y-79417554D01*
X169391485Y-79503378D01*
X169896677Y-79635745D01*
X170451381Y-79798341D01*
X171001736Y-79974848D01*
X171493883Y-80148951D01*
X171780134Y-80262881D01*
X171775652Y-80230353D01*
X171664193Y-80097563D01*
X171461332Y-79881106D01*
X171182644Y-79597575D01*
X170843704Y-79263563D01*
X170826316Y-79246671D01*
X169706698Y-78159692D01*
X169940849Y-78012183D01*
X170156587Y-77860823D01*
X170405384Y-77665609D01*
X170471334Y-77610103D01*
X170767667Y-77355531D01*
X170534834Y-77248842D01*
X170401417Y-77183249D01*
X170331071Y-77112343D01*
X170318924Y-76995948D01*
X170360109Y-76793886D01*
X170442931Y-76490542D01*
X170508370Y-76217049D01*
X170537792Y-76011982D01*
X170528119Y-75927897D01*
X170421388Y-75914466D01*
X170204428Y-75938241D01*
X170007465Y-75976196D01*
X169680276Y-76034404D01*
X169483576Y-76024636D01*
X169389897Y-75939924D01*
X169370667Y-75814666D01*
X169335780Y-75648697D01*
X169228626Y-75630569D01*
X169045466Y-75760600D01*
X168953808Y-75850320D01*
X168772132Y-76021298D01*
X168638452Y-76084295D01*
X168493395Y-76062270D01*
X168447859Y-76045968D01*
X168216266Y-75958551D01*
X168326970Y-75357442D01*
X168388849Y-75028798D01*
X168444934Y-74743544D01*
X168483147Y-74563101D01*
X168483318Y-74562376D01*
X168504766Y-74435983D01*
X168457726Y-74414034D01*
X168303983Y-74484785D01*
X168276685Y-74498876D01*
X168055531Y-74595337D01*
X167888675Y-74604513D01*
X167743371Y-74508238D01*
X167586871Y-74288345D01*
X167446079Y-74038104D01*
X167290036Y-73761188D01*
X167160353Y-73553327D01*
X167079876Y-73450517D01*
X167069896Y-73445437D01*
X167007123Y-73514745D01*
X166893880Y-73699105D01*
X166752975Y-73960913D01*
X166731229Y-74003811D01*
X166579339Y-74282667D01*
X166440803Y-74497115D01*
X166343200Y-74604945D01*
X166336138Y-74608489D01*
X166190231Y-74603911D01*
X165976549Y-74534995D01*
X165933971Y-74515714D01*
X165746017Y-74432324D01*
X165664739Y-74428928D01*
X165645620Y-74509271D01*
X165645334Y-74539989D01*
X165690444Y-74712354D01*
X165841631Y-74887573D01*
X166122680Y-75091417D01*
X166197875Y-75138698D01*
X166374569Y-75261781D01*
X166460159Y-75349575D01*
X166460070Y-75366819D01*
X166374362Y-75345436D01*
X166195728Y-75247569D01*
X166029605Y-75139584D01*
X165525534Y-74834226D01*
X165007360Y-74592940D01*
X164529970Y-74439798D01*
X164362913Y-74408639D01*
X164098484Y-74390132D01*
X163914309Y-74439206D01*
X163745073Y-74561447D01*
X163583083Y-74744126D01*
X163496610Y-74977599D01*
X163465745Y-75194814D01*
X163457422Y-75484537D01*
X163494928Y-75655625D01*
X163517982Y-75681063D01*
X163577643Y-75679233D01*
X163564765Y-75617281D01*
X163565258Y-75464979D01*
X163570677Y-75444921D01*
X163750841Y-75444921D01*
X163756144Y-75659708D01*
X163819807Y-75764046D01*
X163985542Y-75816185D01*
X164036667Y-75825820D01*
X164367341Y-75869577D01*
X164569166Y-75847281D01*
X164672453Y-75750698D01*
X164700946Y-75645333D01*
X164755671Y-75440773D01*
X164810620Y-75337807D01*
X164993304Y-75337807D01*
X165024564Y-75416747D01*
X165146367Y-75587845D01*
X165334822Y-75818443D01*
X165398696Y-75891971D01*
X165609594Y-76125829D01*
X165773698Y-76297019D01*
X165863233Y-76376924D01*
X165871329Y-76378893D01*
X165866405Y-76290758D01*
X165824526Y-76102602D01*
X165811304Y-76053283D01*
X165664522Y-75767421D01*
X165382496Y-75522535D01*
X165174933Y-75398640D01*
X165029521Y-75336740D01*
X164993304Y-75337807D01*
X164810620Y-75337807D01*
X164813777Y-75331893D01*
X164822621Y-75242836D01*
X164688647Y-75146570D01*
X164583658Y-75099060D01*
X164221415Y-74984790D01*
X163968317Y-74995428D01*
X163815120Y-75134813D01*
X163752581Y-75406783D01*
X163750841Y-75444921D01*
X163570677Y-75444921D01*
X163625495Y-75242051D01*
X163646081Y-75189550D01*
X163745804Y-74991648D01*
X163866785Y-74904463D01*
X164077786Y-74883513D01*
X164119428Y-74883333D01*
X164435303Y-74936090D01*
X164836989Y-75082486D01*
X165282814Y-75304710D01*
X165682010Y-75551191D01*
X165849573Y-75700307D01*
X165933513Y-75894327D01*
X165962710Y-76105933D01*
X165966730Y-76352439D01*
X165918941Y-76468778D01*
X165807763Y-76453083D01*
X165621615Y-76303488D01*
X165348915Y-76018128D01*
X165337217Y-76005166D01*
X165113902Y-75760633D01*
X164974778Y-75637210D01*
X164888674Y-75632051D01*
X164824420Y-75742310D01*
X164755030Y-75951989D01*
X164683669Y-76041743D01*
X164523632Y-76046382D01*
X164437530Y-76030103D01*
X164152729Y-75974715D01*
X163855375Y-75925201D01*
X163547084Y-75879507D01*
X163717206Y-76499921D01*
X163794598Y-76822907D01*
X163825902Y-77048864D01*
X163806950Y-77146917D01*
X163804671Y-77147887D01*
X163673016Y-77217158D01*
X163573870Y-77283765D01*
X163523904Y-77338584D01*
X163531425Y-77409383D01*
X163613497Y-77515859D01*
X163787182Y-77677711D01*
X164069542Y-77914637D01*
X164242807Y-78056035D01*
X164547528Y-78311946D01*
X164789628Y-78531335D01*
X164946334Y-78692339D01*
X164994876Y-78773097D01*
X164992777Y-78776026D01*
X164886057Y-78831274D01*
X164664489Y-78926644D01*
X164372000Y-79043401D01*
X164310335Y-79067106D01*
X164007944Y-79199174D01*
X163653504Y-79379086D01*
X163283718Y-79585071D01*
X162935289Y-79795359D01*
X162644917Y-79988180D01*
X162449306Y-80141763D01*
X162394037Y-80203791D01*
X162209403Y-80203791D01*
X162494400Y-79971716D01*
X163068973Y-79579916D01*
X163663331Y-79236101D01*
X164204501Y-78984360D01*
X164488091Y-78866784D01*
X164697015Y-78768117D01*
X164792783Y-78706818D01*
X164795031Y-78701124D01*
X164730827Y-78632506D01*
X164558634Y-78482557D01*
X164304596Y-78273303D01*
X163994857Y-78026768D01*
X163990697Y-78023508D01*
X163614073Y-77722594D01*
X163364547Y-77507355D01*
X163231081Y-77365523D01*
X163202636Y-77284831D01*
X163268175Y-77253013D01*
X163295834Y-77251307D01*
X163444786Y-77201306D01*
X163552483Y-77134202D01*
X163645843Y-77030477D01*
X163660176Y-76883446D01*
X163621591Y-76692395D01*
X163556351Y-76431453D01*
X163470849Y-76090060D01*
X163401792Y-75814667D01*
X163322966Y-75284568D01*
X163372464Y-74860905D01*
X163541821Y-74550302D01*
X163822569Y-74359386D01*
X164206243Y-74294783D01*
X164684375Y-74363118D01*
X165083296Y-74498737D01*
X165579591Y-74702788D01*
X165529912Y-74454394D01*
X165503139Y-74291707D01*
X165528453Y-74224736D01*
X165636823Y-74247720D01*
X165859220Y-74354899D01*
X165914192Y-74382913D01*
X166076716Y-74466278D01*
X166191851Y-74504320D01*
X166285331Y-74477098D01*
X166382891Y-74364667D01*
X166510264Y-74147086D01*
X166693186Y-73804410D01*
X166716054Y-73761500D01*
X166868272Y-73489572D01*
X166994792Y-73287826D01*
X167072276Y-73192930D01*
X167079797Y-73190000D01*
X167143536Y-73259689D01*
G36*
X167152590Y-78309703D02*
X167251422Y-78402340D01*
X167358940Y-78527860D01*
X167339616Y-78610716D01*
X167227268Y-78698463D01*
X167079657Y-78783346D01*
X166974457Y-78753544D01*
X166901055Y-78684184D01*
X166809408Y-78565893D01*
X166840280Y-78470997D01*
X166925210Y-78388062D01*
X167055136Y-78289027D01*
X167152590Y-78309703D01*
X167152590Y-78309703D01*
G37*
X167152590Y-78309703D02*
X167251422Y-78402340D01*
X167358940Y-78527860D01*
X167339616Y-78610716D01*
X167227268Y-78698463D01*
X167079657Y-78783346D01*
X166974457Y-78753544D01*
X166901055Y-78684184D01*
X166809408Y-78565893D01*
X166840280Y-78470997D01*
X166925210Y-78388062D01*
X167055136Y-78289027D01*
X167152590Y-78309703D01*
G36*
X169368207Y-78673096D02*
X169370667Y-78693333D01*
X169306238Y-78775540D01*
X169286000Y-78778000D01*
X169203794Y-78713571D01*
X169201334Y-78693333D01*
X169265763Y-78611127D01*
X169286000Y-78608667D01*
X169368207Y-78673096D01*
X169368207Y-78673096D01*
G37*
X169368207Y-78673096D02*
X169370667Y-78693333D01*
X169306238Y-78775540D01*
X169286000Y-78778000D01*
X169203794Y-78713571D01*
X169201334Y-78693333D01*
X169265763Y-78611127D01*
X169286000Y-78608667D01*
X169368207Y-78673096D01*
G36*
X166698416Y-75525012D02*
X166890386Y-75654303D01*
X167135287Y-75837249D01*
X167167199Y-75862195D01*
X167437131Y-76089365D01*
X167581707Y-76254122D01*
X167620901Y-76380964D01*
X167615840Y-76412528D01*
X167607648Y-76549365D01*
X167691743Y-76551339D01*
X167871102Y-76417617D01*
X167988684Y-76308111D01*
X168172498Y-76145695D01*
X168303884Y-76090046D01*
X168441975Y-76120547D01*
X168479548Y-76136963D01*
X168652991Y-76288593D01*
X168683741Y-76498233D01*
X168571699Y-76732558D01*
X168481667Y-76830667D01*
X168314469Y-77017293D01*
X168283805Y-77128706D01*
X168390333Y-77155209D01*
X168460500Y-77142547D01*
X168597014Y-77148689D01*
X168772692Y-77238974D01*
X169017335Y-77430996D01*
X169154768Y-77552489D01*
X169658537Y-78007574D01*
X169494382Y-78188963D01*
X169317857Y-78364443D01*
X169169995Y-78437400D01*
X169013091Y-78401955D01*
X168809442Y-78252230D01*
X168589201Y-78047824D01*
X168354766Y-77803417D01*
X168200927Y-77603754D01*
X168150707Y-77479266D01*
X168152720Y-77470869D01*
X168157332Y-77340588D01*
X168066196Y-77309829D01*
X167926040Y-77386607D01*
X167887193Y-77425330D01*
X167682004Y-77561727D01*
X167461046Y-77580573D01*
X167275125Y-77494265D01*
X167175051Y-77315197D01*
X167169334Y-77250189D01*
X167228218Y-77091045D01*
X167336670Y-76959473D01*
X167444763Y-76811920D01*
X167436534Y-76705829D01*
X167322213Y-76685423D01*
X167276556Y-76699540D01*
X167158824Y-76673130D01*
X166955717Y-76567419D01*
X166711442Y-76412115D01*
X166470204Y-76236926D01*
X166276208Y-76071559D01*
X166184184Y-75965421D01*
X166204658Y-75861227D01*
X166308793Y-75707627D01*
X166448428Y-75561501D01*
X166575403Y-75479729D01*
X166598576Y-75476000D01*
X166698416Y-75525012D01*
X166698416Y-75525012D01*
G37*
X166698416Y-75525012D02*
X166890386Y-75654303D01*
X167135287Y-75837249D01*
X167167199Y-75862195D01*
X167437131Y-76089365D01*
X167581707Y-76254122D01*
X167620901Y-76380964D01*
X167615840Y-76412528D01*
X167607648Y-76549365D01*
X167691743Y-76551339D01*
X167871102Y-76417617D01*
X167988684Y-76308111D01*
X168172498Y-76145695D01*
X168303884Y-76090046D01*
X168441975Y-76120547D01*
X168479548Y-76136963D01*
X168652991Y-76288593D01*
X168683741Y-76498233D01*
X168571699Y-76732558D01*
X168481667Y-76830667D01*
X168314469Y-77017293D01*
X168283805Y-77128706D01*
X168390333Y-77155209D01*
X168460500Y-77142547D01*
X168597014Y-77148689D01*
X168772692Y-77238974D01*
X169017335Y-77430996D01*
X169154768Y-77552489D01*
X169658537Y-78007574D01*
X169494382Y-78188963D01*
X169317857Y-78364443D01*
X169169995Y-78437400D01*
X169013091Y-78401955D01*
X168809442Y-78252230D01*
X168589201Y-78047824D01*
X168354766Y-77803417D01*
X168200927Y-77603754D01*
X168150707Y-77479266D01*
X168152720Y-77470869D01*
X168157332Y-77340588D01*
X168066196Y-77309829D01*
X167926040Y-77386607D01*
X167887193Y-77425330D01*
X167682004Y-77561727D01*
X167461046Y-77580573D01*
X167275125Y-77494265D01*
X167175051Y-77315197D01*
X167169334Y-77250189D01*
X167228218Y-77091045D01*
X167336670Y-76959473D01*
X167444763Y-76811920D01*
X167436534Y-76705829D01*
X167322213Y-76685423D01*
X167276556Y-76699540D01*
X167158824Y-76673130D01*
X166955717Y-76567419D01*
X166711442Y-76412115D01*
X166470204Y-76236926D01*
X166276208Y-76071559D01*
X166184184Y-75965421D01*
X166204658Y-75861227D01*
X166308793Y-75707627D01*
X166448428Y-75561501D01*
X166575403Y-75479729D01*
X166598576Y-75476000D01*
X166698416Y-75525012D01*
G36*
X167542257Y-77970006D02*
X167518168Y-78084215D01*
X167441752Y-78146641D01*
X167348249Y-78069878D01*
X167290812Y-77948360D01*
X167341933Y-77886981D01*
X167471065Y-77875014D01*
X167542257Y-77970006D01*
X167542257Y-77970006D01*
G37*
X167542257Y-77970006D02*
X167518168Y-78084215D01*
X167441752Y-78146641D01*
X167348249Y-78069878D01*
X167290812Y-77948360D01*
X167341933Y-77886981D01*
X167471065Y-77875014D01*
X167542257Y-77970006D01*
G36*
X166948860Y-77609094D02*
X166989322Y-77650568D01*
X167063214Y-77771268D01*
X166999596Y-77881247D01*
X166989322Y-77891480D01*
X166868987Y-77962607D01*
X166731661Y-77900687D01*
X166725622Y-77896234D01*
X166625120Y-77803260D01*
X166656407Y-77720475D01*
X166725622Y-77655322D01*
X166851716Y-77569078D01*
X166948860Y-77609094D01*
X166948860Y-77609094D01*
G37*
X166948860Y-77609094D02*
X166989322Y-77650568D01*
X167063214Y-77771268D01*
X166999596Y-77881247D01*
X166989322Y-77891480D01*
X166868987Y-77962607D01*
X166731661Y-77900687D01*
X166725622Y-77896234D01*
X166625120Y-77803260D01*
X166656407Y-77720475D01*
X166725622Y-77655322D01*
X166851716Y-77569078D01*
X166948860Y-77609094D01*
D10*
X110270000Y-67365000D02*
X110270000Y-64490000D01*
X100770000Y-67365000D02*
X110270000Y-67365000D01*
X100770000Y-67365000D02*
X100770000Y-54650000D01*
X110270000Y-64540000D02*
X110270000Y-54650000D01*
X110270000Y-54650000D02*
X100770000Y-54650000D01*
X176000000Y-37000000D02*
G75*
G03X167000000Y-24000000I-11000000J2000000D01*
G01*
X167000000Y-46000000D02*
G75*
G03X176000000Y-33000000I-2000000J11000000D01*
G01*
X154000000Y-33000000D02*
G75*
G03X163000000Y-46000000I11000000J-2000000D01*
G01*
X163000000Y-24000000D02*
G75*
G03X154000000Y-37000000I2000000J-11000000D01*
G01*
D11*
X148147619Y-103195238D02*
X148100000Y-103290476D01*
X148004762Y-103385714D01*
X147861905Y-103528571D01*
X147814286Y-103623810D01*
X147814286Y-103719048D01*
X148052381Y-103671429D02*
X148004762Y-103766667D01*
X147909524Y-103861905D01*
X147719048Y-103909524D01*
X147385714Y-103909524D01*
X147195238Y-103861905D01*
X147100000Y-103766667D01*
X147052381Y-103671429D01*
X147052381Y-103480952D01*
X147100000Y-103385714D01*
X147195238Y-103290476D01*
X147385714Y-103242857D01*
X147719048Y-103242857D01*
X147909524Y-103290476D01*
X148004762Y-103385714D01*
X148052381Y-103480952D01*
X148052381Y-103671429D01*
X147147619Y-102861905D02*
X147100000Y-102814286D01*
X147052381Y-102719048D01*
X147052381Y-102480952D01*
X147100000Y-102385714D01*
X147147619Y-102338095D01*
X147242857Y-102290476D01*
X147338095Y-102290476D01*
X147480952Y-102338095D01*
X148052381Y-102909524D01*
X148052381Y-102290476D01*
X120764762Y-66193333D02*
X120812381Y-66050476D01*
X120812381Y-65812380D01*
X120764762Y-65717142D01*
X120717143Y-65669523D01*
X120621905Y-65621904D01*
X120526667Y-65621904D01*
X120431429Y-65669523D01*
X120383810Y-65717142D01*
X120336190Y-65812380D01*
X120288571Y-66002857D01*
X120240952Y-66098095D01*
X120193333Y-66145714D01*
X120098095Y-66193333D01*
X120002857Y-66193333D01*
X119907619Y-66145714D01*
X119860000Y-66098095D01*
X119812381Y-66002857D01*
X119812381Y-65764761D01*
X119860000Y-65621904D01*
X119812381Y-65288571D02*
X120812381Y-65050476D01*
X120098095Y-64859999D01*
X120812381Y-64669523D01*
X119812381Y-64431428D01*
X119907619Y-64098095D02*
X119860000Y-64050476D01*
X119812381Y-63955238D01*
X119812381Y-63717142D01*
X119860000Y-63621904D01*
X119907619Y-63574285D01*
X120002857Y-63526666D01*
X120098095Y-63526666D01*
X120240952Y-63574285D01*
X120812381Y-64145714D01*
X120812381Y-63526666D01*
X120978095Y-33712381D02*
X120978095Y-34521905D01*
X121025714Y-34617143D01*
X121073333Y-34664762D01*
X121168571Y-34712381D01*
X121359048Y-34712381D01*
X121454286Y-34664762D01*
X121501905Y-34617143D01*
X121549524Y-34521905D01*
X121549524Y-33712381D01*
X122501905Y-33712381D02*
X122025714Y-33712381D01*
X121978095Y-34188571D01*
X122025714Y-34140952D01*
X122120952Y-34093333D01*
X122359048Y-34093333D01*
X122454286Y-34140952D01*
X122501905Y-34188571D01*
X122549524Y-34283810D01*
X122549524Y-34521905D01*
X122501905Y-34617143D01*
X122454286Y-34664762D01*
X122359048Y-34712381D01*
X122120952Y-34712381D01*
X122025714Y-34664762D01*
X121978095Y-34617143D01*
X130883334Y-85327143D02*
X130835715Y-85374762D01*
X130692858Y-85422381D01*
X130597620Y-85422381D01*
X130454762Y-85374762D01*
X130359524Y-85279524D01*
X130311905Y-85184286D01*
X130264286Y-84993810D01*
X130264286Y-84850952D01*
X130311905Y-84660476D01*
X130359524Y-84565238D01*
X130454762Y-84470000D01*
X130597620Y-84422381D01*
X130692858Y-84422381D01*
X130835715Y-84470000D01*
X130883334Y-84517619D01*
X131264286Y-84517619D02*
X131311905Y-84470000D01*
X131407143Y-84422381D01*
X131645239Y-84422381D01*
X131740477Y-84470000D01*
X131788096Y-84517619D01*
X131835715Y-84612857D01*
X131835715Y-84708095D01*
X131788096Y-84850952D01*
X131216667Y-85422381D01*
X131835715Y-85422381D01*
X146677143Y-79606666D02*
X146724762Y-79654285D01*
X146772381Y-79797142D01*
X146772381Y-79892380D01*
X146724762Y-80035238D01*
X146629524Y-80130476D01*
X146534286Y-80178095D01*
X146343810Y-80225714D01*
X146200952Y-80225714D01*
X146010476Y-80178095D01*
X145915238Y-80130476D01*
X145820000Y-80035238D01*
X145772381Y-79892380D01*
X145772381Y-79797142D01*
X145820000Y-79654285D01*
X145867619Y-79606666D01*
X146105714Y-78749523D02*
X146772381Y-78749523D01*
X145724762Y-78987619D02*
X146439048Y-79225714D01*
X146439048Y-78606666D01*
X157707143Y-79666666D02*
X157754762Y-79714285D01*
X157802381Y-79857142D01*
X157802381Y-79952380D01*
X157754762Y-80095238D01*
X157659524Y-80190476D01*
X157564286Y-80238095D01*
X157373810Y-80285714D01*
X157230952Y-80285714D01*
X157040476Y-80238095D01*
X156945238Y-80190476D01*
X156850000Y-80095238D01*
X156802381Y-79952380D01*
X156802381Y-79857142D01*
X156850000Y-79714285D01*
X156897619Y-79666666D01*
X156802381Y-78761904D02*
X156802381Y-79238095D01*
X157278571Y-79285714D01*
X157230952Y-79238095D01*
X157183333Y-79142857D01*
X157183333Y-78904761D01*
X157230952Y-78809523D01*
X157278571Y-78761904D01*
X157373810Y-78714285D01*
X157611905Y-78714285D01*
X157707143Y-78761904D01*
X157754762Y-78809523D01*
X157802381Y-78904761D01*
X157802381Y-79142857D01*
X157754762Y-79238095D01*
X157707143Y-79285714D01*
X145633334Y-50757143D02*
X145585715Y-50804762D01*
X145442858Y-50852381D01*
X145347620Y-50852381D01*
X145204762Y-50804762D01*
X145109524Y-50709524D01*
X145061905Y-50614286D01*
X145014286Y-50423810D01*
X145014286Y-50280952D01*
X145061905Y-50090476D01*
X145109524Y-49995238D01*
X145204762Y-49900000D01*
X145347620Y-49852381D01*
X145442858Y-49852381D01*
X145585715Y-49900000D01*
X145633334Y-49947619D01*
X146490477Y-49852381D02*
X146300000Y-49852381D01*
X146204762Y-49900000D01*
X146157143Y-49947619D01*
X146061905Y-50090476D01*
X146014286Y-50280952D01*
X146014286Y-50661905D01*
X146061905Y-50757143D01*
X146109524Y-50804762D01*
X146204762Y-50852381D01*
X146395239Y-50852381D01*
X146490477Y-50804762D01*
X146538096Y-50757143D01*
X146585715Y-50661905D01*
X146585715Y-50423810D01*
X146538096Y-50328571D01*
X146490477Y-50280952D01*
X146395239Y-50233333D01*
X146204762Y-50233333D01*
X146109524Y-50280952D01*
X146061905Y-50328571D01*
X146014286Y-50423810D01*
X122357143Y-92966666D02*
X122404762Y-93014285D01*
X122452381Y-93157142D01*
X122452381Y-93252380D01*
X122404762Y-93395238D01*
X122309524Y-93490476D01*
X122214286Y-93538095D01*
X122023810Y-93585714D01*
X121880952Y-93585714D01*
X121690476Y-93538095D01*
X121595238Y-93490476D01*
X121500000Y-93395238D01*
X121452381Y-93252380D01*
X121452381Y-93157142D01*
X121500000Y-93014285D01*
X121547619Y-92966666D01*
X121452381Y-92633333D02*
X121452381Y-91966666D01*
X122452381Y-92395238D01*
X118453334Y-86787143D02*
X118405715Y-86834762D01*
X118262858Y-86882381D01*
X118167620Y-86882381D01*
X118024762Y-86834762D01*
X117929524Y-86739524D01*
X117881905Y-86644286D01*
X117834286Y-86453810D01*
X117834286Y-86310952D01*
X117881905Y-86120476D01*
X117929524Y-86025238D01*
X118024762Y-85930000D01*
X118167620Y-85882381D01*
X118262858Y-85882381D01*
X118405715Y-85930000D01*
X118453334Y-85977619D01*
X119024762Y-86310952D02*
X118929524Y-86263333D01*
X118881905Y-86215714D01*
X118834286Y-86120476D01*
X118834286Y-86072857D01*
X118881905Y-85977619D01*
X118929524Y-85930000D01*
X119024762Y-85882381D01*
X119215239Y-85882381D01*
X119310477Y-85930000D01*
X119358096Y-85977619D01*
X119405715Y-86072857D01*
X119405715Y-86120476D01*
X119358096Y-86215714D01*
X119310477Y-86263333D01*
X119215239Y-86310952D01*
X119024762Y-86310952D01*
X118929524Y-86358571D01*
X118881905Y-86406190D01*
X118834286Y-86501429D01*
X118834286Y-86691905D01*
X118881905Y-86787143D01*
X118929524Y-86834762D01*
X119024762Y-86882381D01*
X119215239Y-86882381D01*
X119310477Y-86834762D01*
X119358096Y-86787143D01*
X119405715Y-86691905D01*
X119405715Y-86501429D01*
X119358096Y-86406190D01*
X119310477Y-86358571D01*
X119215239Y-86310952D01*
X131933334Y-59157143D02*
X131885715Y-59204762D01*
X131742858Y-59252381D01*
X131647620Y-59252381D01*
X131504762Y-59204762D01*
X131409524Y-59109524D01*
X131361905Y-59014286D01*
X131314286Y-58823810D01*
X131314286Y-58680952D01*
X131361905Y-58490476D01*
X131409524Y-58395238D01*
X131504762Y-58300000D01*
X131647620Y-58252381D01*
X131742858Y-58252381D01*
X131885715Y-58300000D01*
X131933334Y-58347619D01*
X132409524Y-59252381D02*
X132600000Y-59252381D01*
X132695239Y-59204762D01*
X132742858Y-59157143D01*
X132838096Y-59014286D01*
X132885715Y-58823810D01*
X132885715Y-58442857D01*
X132838096Y-58347619D01*
X132790477Y-58300000D01*
X132695239Y-58252381D01*
X132504762Y-58252381D01*
X132409524Y-58300000D01*
X132361905Y-58347619D01*
X132314286Y-58442857D01*
X132314286Y-58680952D01*
X132361905Y-58776190D01*
X132409524Y-58823810D01*
X132504762Y-58871429D01*
X132695239Y-58871429D01*
X132790477Y-58823810D01*
X132838096Y-58776190D01*
X132885715Y-58680952D01*
X130727143Y-64017143D02*
X130679524Y-64064762D01*
X130536667Y-64112381D01*
X130441429Y-64112381D01*
X130298571Y-64064762D01*
X130203333Y-63969524D01*
X130155714Y-63874286D01*
X130108095Y-63683810D01*
X130108095Y-63540952D01*
X130155714Y-63350476D01*
X130203333Y-63255238D01*
X130298571Y-63160000D01*
X130441429Y-63112381D01*
X130536667Y-63112381D01*
X130679524Y-63160000D01*
X130727143Y-63207619D01*
X131679524Y-64112381D02*
X131108095Y-64112381D01*
X131393809Y-64112381D02*
X131393809Y-63112381D01*
X131298571Y-63255238D01*
X131203333Y-63350476D01*
X131108095Y-63398095D01*
X132298571Y-63112381D02*
X132393810Y-63112381D01*
X132489048Y-63160000D01*
X132536667Y-63207619D01*
X132584286Y-63302857D01*
X132631905Y-63493333D01*
X132631905Y-63731429D01*
X132584286Y-63921905D01*
X132536667Y-64017143D01*
X132489048Y-64064762D01*
X132393810Y-64112381D01*
X132298571Y-64112381D01*
X132203333Y-64064762D01*
X132155714Y-64017143D01*
X132108095Y-63921905D01*
X132060476Y-63731429D01*
X132060476Y-63493333D01*
X132108095Y-63302857D01*
X132155714Y-63207619D01*
X132203333Y-63160000D01*
X132298571Y-63112381D01*
X152157143Y-50957143D02*
X152109524Y-51004762D01*
X151966667Y-51052381D01*
X151871429Y-51052381D01*
X151728571Y-51004762D01*
X151633333Y-50909524D01*
X151585714Y-50814286D01*
X151538095Y-50623810D01*
X151538095Y-50480952D01*
X151585714Y-50290476D01*
X151633333Y-50195238D01*
X151728571Y-50100000D01*
X151871429Y-50052381D01*
X151966667Y-50052381D01*
X152109524Y-50100000D01*
X152157143Y-50147619D01*
X153109524Y-51052381D02*
X152538095Y-51052381D01*
X152823809Y-51052381D02*
X152823809Y-50052381D01*
X152728571Y-50195238D01*
X152633333Y-50290476D01*
X152538095Y-50338095D01*
X154061905Y-51052381D02*
X153490476Y-51052381D01*
X153776190Y-51052381D02*
X153776190Y-50052381D01*
X153680952Y-50195238D01*
X153585714Y-50290476D01*
X153490476Y-50338095D01*
X165857143Y-63957143D02*
X165809524Y-64004762D01*
X165666667Y-64052381D01*
X165571429Y-64052381D01*
X165428571Y-64004762D01*
X165333333Y-63909524D01*
X165285714Y-63814286D01*
X165238095Y-63623810D01*
X165238095Y-63480952D01*
X165285714Y-63290476D01*
X165333333Y-63195238D01*
X165428571Y-63100000D01*
X165571429Y-63052381D01*
X165666667Y-63052381D01*
X165809524Y-63100000D01*
X165857143Y-63147619D01*
X166809524Y-64052381D02*
X166238095Y-64052381D01*
X166523809Y-64052381D02*
X166523809Y-63052381D01*
X166428571Y-63195238D01*
X166333333Y-63290476D01*
X166238095Y-63338095D01*
X167190476Y-63147619D02*
X167238095Y-63100000D01*
X167333333Y-63052381D01*
X167571429Y-63052381D01*
X167666667Y-63100000D01*
X167714286Y-63147619D01*
X167761905Y-63242857D01*
X167761905Y-63338095D01*
X167714286Y-63480952D01*
X167142857Y-64052381D01*
X167761905Y-64052381D01*
X165857143Y-68357143D02*
X165809524Y-68404762D01*
X165666667Y-68452381D01*
X165571429Y-68452381D01*
X165428571Y-68404762D01*
X165333333Y-68309524D01*
X165285714Y-68214286D01*
X165238095Y-68023810D01*
X165238095Y-67880952D01*
X165285714Y-67690476D01*
X165333333Y-67595238D01*
X165428571Y-67500000D01*
X165571429Y-67452381D01*
X165666667Y-67452381D01*
X165809524Y-67500000D01*
X165857143Y-67547619D01*
X166809524Y-68452381D02*
X166238095Y-68452381D01*
X166523809Y-68452381D02*
X166523809Y-67452381D01*
X166428571Y-67595238D01*
X166333333Y-67690476D01*
X166238095Y-67738095D01*
X167142857Y-67452381D02*
X167761905Y-67452381D01*
X167428571Y-67833333D01*
X167571429Y-67833333D01*
X167666667Y-67880952D01*
X167714286Y-67928571D01*
X167761905Y-68023810D01*
X167761905Y-68261905D01*
X167714286Y-68357143D01*
X167666667Y-68404762D01*
X167571429Y-68452381D01*
X167285714Y-68452381D01*
X167190476Y-68404762D01*
X167142857Y-68357143D01*
X139357143Y-52157143D02*
X139309524Y-52204762D01*
X139166667Y-52252381D01*
X139071429Y-52252381D01*
X138928571Y-52204762D01*
X138833333Y-52109524D01*
X138785714Y-52014286D01*
X138738095Y-51823810D01*
X138738095Y-51680952D01*
X138785714Y-51490476D01*
X138833333Y-51395238D01*
X138928571Y-51300000D01*
X139071429Y-51252381D01*
X139166667Y-51252381D01*
X139309524Y-51300000D01*
X139357143Y-51347619D01*
X140309524Y-52252381D02*
X139738095Y-52252381D01*
X140023809Y-52252381D02*
X140023809Y-51252381D01*
X139928571Y-51395238D01*
X139833333Y-51490476D01*
X139738095Y-51538095D01*
X141166667Y-51585714D02*
X141166667Y-52252381D01*
X140928571Y-51204762D02*
X140690476Y-51919048D01*
X141309524Y-51919048D01*
X165382143Y-58107143D02*
X165334524Y-58154762D01*
X165191667Y-58202381D01*
X165096429Y-58202381D01*
X164953571Y-58154762D01*
X164858333Y-58059524D01*
X164810714Y-57964286D01*
X164763095Y-57773810D01*
X164763095Y-57630952D01*
X164810714Y-57440476D01*
X164858333Y-57345238D01*
X164953571Y-57250000D01*
X165096429Y-57202381D01*
X165191667Y-57202381D01*
X165334524Y-57250000D01*
X165382143Y-57297619D01*
X166334524Y-58202381D02*
X165763095Y-58202381D01*
X166048809Y-58202381D02*
X166048809Y-57202381D01*
X165953571Y-57345238D01*
X165858333Y-57440476D01*
X165763095Y-57488095D01*
X167239286Y-57202381D02*
X166763095Y-57202381D01*
X166715476Y-57678571D01*
X166763095Y-57630952D01*
X166858333Y-57583333D01*
X167096429Y-57583333D01*
X167191667Y-57630952D01*
X167239286Y-57678571D01*
X167286905Y-57773810D01*
X167286905Y-58011905D01*
X167239286Y-58107143D01*
X167191667Y-58154762D01*
X167096429Y-58202381D01*
X166858333Y-58202381D01*
X166763095Y-58154762D01*
X166715476Y-58107143D01*
X165857143Y-71557143D02*
X165809524Y-71604762D01*
X165666667Y-71652381D01*
X165571429Y-71652381D01*
X165428571Y-71604762D01*
X165333333Y-71509524D01*
X165285714Y-71414286D01*
X165238095Y-71223810D01*
X165238095Y-71080952D01*
X165285714Y-70890476D01*
X165333333Y-70795238D01*
X165428571Y-70700000D01*
X165571429Y-70652381D01*
X165666667Y-70652381D01*
X165809524Y-70700000D01*
X165857143Y-70747619D01*
X166809524Y-71652381D02*
X166238095Y-71652381D01*
X166523809Y-71652381D02*
X166523809Y-70652381D01*
X166428571Y-70795238D01*
X166333333Y-70890476D01*
X166238095Y-70938095D01*
X167666667Y-70652381D02*
X167476190Y-70652381D01*
X167380952Y-70700000D01*
X167333333Y-70747619D01*
X167238095Y-70890476D01*
X167190476Y-71080952D01*
X167190476Y-71461905D01*
X167238095Y-71557143D01*
X167285714Y-71604762D01*
X167380952Y-71652381D01*
X167571429Y-71652381D01*
X167666667Y-71604762D01*
X167714286Y-71557143D01*
X167761905Y-71461905D01*
X167761905Y-71223810D01*
X167714286Y-71128571D01*
X167666667Y-71080952D01*
X167571429Y-71033333D01*
X167380952Y-71033333D01*
X167285714Y-71080952D01*
X167238095Y-71128571D01*
X167190476Y-71223810D01*
X153107143Y-80042857D02*
X153154762Y-80090476D01*
X153202381Y-80233333D01*
X153202381Y-80328571D01*
X153154762Y-80471429D01*
X153059524Y-80566667D01*
X152964286Y-80614286D01*
X152773810Y-80661905D01*
X152630952Y-80661905D01*
X152440476Y-80614286D01*
X152345238Y-80566667D01*
X152250000Y-80471429D01*
X152202381Y-80328571D01*
X152202381Y-80233333D01*
X152250000Y-80090476D01*
X152297619Y-80042857D01*
X153202381Y-79090476D02*
X153202381Y-79661905D01*
X153202381Y-79376191D02*
X152202381Y-79376191D01*
X152345238Y-79471429D01*
X152440476Y-79566667D01*
X152488095Y-79661905D01*
X152202381Y-78757143D02*
X152202381Y-78090476D01*
X153202381Y-78519048D01*
X142232143Y-80117857D02*
X142279762Y-80165476D01*
X142327381Y-80308333D01*
X142327381Y-80403571D01*
X142279762Y-80546429D01*
X142184524Y-80641667D01*
X142089286Y-80689286D01*
X141898810Y-80736905D01*
X141755952Y-80736905D01*
X141565476Y-80689286D01*
X141470238Y-80641667D01*
X141375000Y-80546429D01*
X141327381Y-80403571D01*
X141327381Y-80308333D01*
X141375000Y-80165476D01*
X141422619Y-80117857D01*
X142327381Y-79165476D02*
X142327381Y-79736905D01*
X142327381Y-79451191D02*
X141327381Y-79451191D01*
X141470238Y-79546429D01*
X141565476Y-79641667D01*
X141613095Y-79736905D01*
X141755952Y-78594048D02*
X141708333Y-78689286D01*
X141660714Y-78736905D01*
X141565476Y-78784524D01*
X141517857Y-78784524D01*
X141422619Y-78736905D01*
X141375000Y-78689286D01*
X141327381Y-78594048D01*
X141327381Y-78403571D01*
X141375000Y-78308333D01*
X141422619Y-78260714D01*
X141517857Y-78213095D01*
X141565476Y-78213095D01*
X141660714Y-78260714D01*
X141708333Y-78308333D01*
X141755952Y-78403571D01*
X141755952Y-78594048D01*
X141803571Y-78689286D01*
X141851190Y-78736905D01*
X141946429Y-78784524D01*
X142136905Y-78784524D01*
X142232143Y-78736905D01*
X142279762Y-78689286D01*
X142327381Y-78594048D01*
X142327381Y-78403571D01*
X142279762Y-78308333D01*
X142232143Y-78260714D01*
X142136905Y-78213095D01*
X141946429Y-78213095D01*
X141851190Y-78260714D01*
X141803571Y-78308333D01*
X141755952Y-78403571D01*
X130857143Y-70357143D02*
X130809524Y-70404762D01*
X130666667Y-70452381D01*
X130571429Y-70452381D01*
X130428571Y-70404762D01*
X130333333Y-70309524D01*
X130285714Y-70214286D01*
X130238095Y-70023810D01*
X130238095Y-69880952D01*
X130285714Y-69690476D01*
X130333333Y-69595238D01*
X130428571Y-69500000D01*
X130571429Y-69452381D01*
X130666667Y-69452381D01*
X130809524Y-69500000D01*
X130857143Y-69547619D01*
X131809524Y-70452381D02*
X131238095Y-70452381D01*
X131523809Y-70452381D02*
X131523809Y-69452381D01*
X131428571Y-69595238D01*
X131333333Y-69690476D01*
X131238095Y-69738095D01*
X132285714Y-70452381D02*
X132476190Y-70452381D01*
X132571429Y-70404762D01*
X132619048Y-70357143D01*
X132714286Y-70214286D01*
X132761905Y-70023810D01*
X132761905Y-69642857D01*
X132714286Y-69547619D01*
X132666667Y-69500000D01*
X132571429Y-69452381D01*
X132380952Y-69452381D01*
X132285714Y-69500000D01*
X132238095Y-69547619D01*
X132190476Y-69642857D01*
X132190476Y-69880952D01*
X132238095Y-69976190D01*
X132285714Y-70023810D01*
X132380952Y-70071429D01*
X132571429Y-70071429D01*
X132666667Y-70023810D01*
X132714286Y-69976190D01*
X132761905Y-69880952D01*
X134867143Y-61677143D02*
X134819524Y-61724762D01*
X134676667Y-61772381D01*
X134581429Y-61772381D01*
X134438571Y-61724762D01*
X134343333Y-61629524D01*
X134295714Y-61534286D01*
X134248095Y-61343810D01*
X134248095Y-61200952D01*
X134295714Y-61010476D01*
X134343333Y-60915238D01*
X134438571Y-60820000D01*
X134581429Y-60772381D01*
X134676667Y-60772381D01*
X134819524Y-60820000D01*
X134867143Y-60867619D01*
X135248095Y-60867619D02*
X135295714Y-60820000D01*
X135390952Y-60772381D01*
X135629048Y-60772381D01*
X135724286Y-60820000D01*
X135771905Y-60867619D01*
X135819524Y-60962857D01*
X135819524Y-61058095D01*
X135771905Y-61200952D01*
X135200476Y-61772381D01*
X135819524Y-61772381D01*
X136438571Y-60772381D02*
X136533810Y-60772381D01*
X136629048Y-60820000D01*
X136676667Y-60867619D01*
X136724286Y-60962857D01*
X136771905Y-61153333D01*
X136771905Y-61391429D01*
X136724286Y-61581905D01*
X136676667Y-61677143D01*
X136629048Y-61724762D01*
X136533810Y-61772381D01*
X136438571Y-61772381D01*
X136343333Y-61724762D01*
X136295714Y-61677143D01*
X136248095Y-61581905D01*
X136200476Y-61391429D01*
X136200476Y-61153333D01*
X136248095Y-60962857D01*
X136295714Y-60867619D01*
X136343333Y-60820000D01*
X136438571Y-60772381D01*
X136557143Y-102357143D02*
X136509524Y-102404762D01*
X136366667Y-102452381D01*
X136271429Y-102452381D01*
X136128571Y-102404762D01*
X136033333Y-102309524D01*
X135985714Y-102214286D01*
X135938095Y-102023810D01*
X135938095Y-101880952D01*
X135985714Y-101690476D01*
X136033333Y-101595238D01*
X136128571Y-101500000D01*
X136271429Y-101452381D01*
X136366667Y-101452381D01*
X136509524Y-101500000D01*
X136557143Y-101547619D01*
X136938095Y-101547619D02*
X136985714Y-101500000D01*
X137080952Y-101452381D01*
X137319048Y-101452381D01*
X137414286Y-101500000D01*
X137461905Y-101547619D01*
X137509524Y-101642857D01*
X137509524Y-101738095D01*
X137461905Y-101880952D01*
X136890476Y-102452381D01*
X137509524Y-102452381D01*
X138461905Y-102452381D02*
X137890476Y-102452381D01*
X138176190Y-102452381D02*
X138176190Y-101452381D01*
X138080952Y-101595238D01*
X137985714Y-101690476D01*
X137890476Y-101738095D01*
X167327143Y-101927143D02*
X167279524Y-101974762D01*
X167136667Y-102022381D01*
X167041429Y-102022381D01*
X166898571Y-101974762D01*
X166803333Y-101879524D01*
X166755714Y-101784286D01*
X166708095Y-101593810D01*
X166708095Y-101450952D01*
X166755714Y-101260476D01*
X166803333Y-101165238D01*
X166898571Y-101070000D01*
X167041429Y-101022381D01*
X167136667Y-101022381D01*
X167279524Y-101070000D01*
X167327143Y-101117619D01*
X167708095Y-101117619D02*
X167755714Y-101070000D01*
X167850952Y-101022381D01*
X168089048Y-101022381D01*
X168184286Y-101070000D01*
X168231905Y-101117619D01*
X168279524Y-101212857D01*
X168279524Y-101308095D01*
X168231905Y-101450952D01*
X167660476Y-102022381D01*
X168279524Y-102022381D01*
X168660476Y-101117619D02*
X168708095Y-101070000D01*
X168803333Y-101022381D01*
X169041429Y-101022381D01*
X169136667Y-101070000D01*
X169184286Y-101117619D01*
X169231905Y-101212857D01*
X169231905Y-101308095D01*
X169184286Y-101450952D01*
X168612857Y-102022381D01*
X169231905Y-102022381D01*
X155427143Y-100002857D02*
X155474762Y-100050476D01*
X155522381Y-100193333D01*
X155522381Y-100288571D01*
X155474762Y-100431429D01*
X155379524Y-100526667D01*
X155284286Y-100574286D01*
X155093810Y-100621905D01*
X154950952Y-100621905D01*
X154760476Y-100574286D01*
X154665238Y-100526667D01*
X154570000Y-100431429D01*
X154522381Y-100288571D01*
X154522381Y-100193333D01*
X154570000Y-100050476D01*
X154617619Y-100002857D01*
X154617619Y-99621905D02*
X154570000Y-99574286D01*
X154522381Y-99479048D01*
X154522381Y-99240952D01*
X154570000Y-99145714D01*
X154617619Y-99098095D01*
X154712857Y-99050476D01*
X154808095Y-99050476D01*
X154950952Y-99098095D01*
X155522381Y-99669524D01*
X155522381Y-99050476D01*
X154522381Y-98717143D02*
X154522381Y-98098095D01*
X154903333Y-98431429D01*
X154903333Y-98288571D01*
X154950952Y-98193333D01*
X154998571Y-98145714D01*
X155093810Y-98098095D01*
X155331905Y-98098095D01*
X155427143Y-98145714D01*
X155474762Y-98193333D01*
X155522381Y-98288571D01*
X155522381Y-98574286D01*
X155474762Y-98669524D01*
X155427143Y-98717143D01*
X129867143Y-40957143D02*
X129819524Y-41004762D01*
X129676667Y-41052381D01*
X129581429Y-41052381D01*
X129438571Y-41004762D01*
X129343333Y-40909524D01*
X129295714Y-40814286D01*
X129248095Y-40623810D01*
X129248095Y-40480952D01*
X129295714Y-40290476D01*
X129343333Y-40195238D01*
X129438571Y-40100000D01*
X129581429Y-40052381D01*
X129676667Y-40052381D01*
X129819524Y-40100000D01*
X129867143Y-40147619D01*
X130248095Y-40147619D02*
X130295714Y-40100000D01*
X130390952Y-40052381D01*
X130629048Y-40052381D01*
X130724286Y-40100000D01*
X130771905Y-40147619D01*
X130819524Y-40242857D01*
X130819524Y-40338095D01*
X130771905Y-40480952D01*
X130200476Y-41052381D01*
X130819524Y-41052381D01*
X131676667Y-40385714D02*
X131676667Y-41052381D01*
X131438571Y-40004762D02*
X131200476Y-40719048D01*
X131819524Y-40719048D01*
X140097143Y-41327143D02*
X140049524Y-41374762D01*
X139906667Y-41422381D01*
X139811429Y-41422381D01*
X139668571Y-41374762D01*
X139573333Y-41279524D01*
X139525714Y-41184286D01*
X139478095Y-40993810D01*
X139478095Y-40850952D01*
X139525714Y-40660476D01*
X139573333Y-40565238D01*
X139668571Y-40470000D01*
X139811429Y-40422381D01*
X139906667Y-40422381D01*
X140049524Y-40470000D01*
X140097143Y-40517619D01*
X140478095Y-40517619D02*
X140525714Y-40470000D01*
X140620952Y-40422381D01*
X140859048Y-40422381D01*
X140954286Y-40470000D01*
X141001905Y-40517619D01*
X141049524Y-40612857D01*
X141049524Y-40708095D01*
X141001905Y-40850952D01*
X140430476Y-41422381D01*
X141049524Y-41422381D01*
X141954286Y-40422381D02*
X141478095Y-40422381D01*
X141430476Y-40898571D01*
X141478095Y-40850952D01*
X141573333Y-40803333D01*
X141811429Y-40803333D01*
X141906667Y-40850952D01*
X141954286Y-40898571D01*
X142001905Y-40993810D01*
X142001905Y-41231905D01*
X141954286Y-41327143D01*
X141906667Y-41374762D01*
X141811429Y-41422381D01*
X141573333Y-41422381D01*
X141478095Y-41374762D01*
X141430476Y-41327143D01*
X150187143Y-41507143D02*
X150139524Y-41554762D01*
X149996667Y-41602381D01*
X149901429Y-41602381D01*
X149758571Y-41554762D01*
X149663333Y-41459524D01*
X149615714Y-41364286D01*
X149568095Y-41173810D01*
X149568095Y-41030952D01*
X149615714Y-40840476D01*
X149663333Y-40745238D01*
X149758571Y-40650000D01*
X149901429Y-40602381D01*
X149996667Y-40602381D01*
X150139524Y-40650000D01*
X150187143Y-40697619D01*
X150568095Y-40697619D02*
X150615714Y-40650000D01*
X150710952Y-40602381D01*
X150949048Y-40602381D01*
X151044286Y-40650000D01*
X151091905Y-40697619D01*
X151139524Y-40792857D01*
X151139524Y-40888095D01*
X151091905Y-41030952D01*
X150520476Y-41602381D01*
X151139524Y-41602381D01*
X151996667Y-40602381D02*
X151806190Y-40602381D01*
X151710952Y-40650000D01*
X151663333Y-40697619D01*
X151568095Y-40840476D01*
X151520476Y-41030952D01*
X151520476Y-41411905D01*
X151568095Y-41507143D01*
X151615714Y-41554762D01*
X151710952Y-41602381D01*
X151901429Y-41602381D01*
X151996667Y-41554762D01*
X152044286Y-41507143D01*
X152091905Y-41411905D01*
X152091905Y-41173810D01*
X152044286Y-41078571D01*
X151996667Y-41030952D01*
X151901429Y-40983333D01*
X151710952Y-40983333D01*
X151615714Y-41030952D01*
X151568095Y-41078571D01*
X151520476Y-41173810D01*
X143207143Y-82257143D02*
X143159524Y-82304762D01*
X143016667Y-82352381D01*
X142921429Y-82352381D01*
X142778571Y-82304762D01*
X142683333Y-82209524D01*
X142635714Y-82114286D01*
X142588095Y-81923810D01*
X142588095Y-81780952D01*
X142635714Y-81590476D01*
X142683333Y-81495238D01*
X142778571Y-81400000D01*
X142921429Y-81352381D01*
X143016667Y-81352381D01*
X143159524Y-81400000D01*
X143207143Y-81447619D01*
X143588095Y-81447619D02*
X143635714Y-81400000D01*
X143730952Y-81352381D01*
X143969048Y-81352381D01*
X144064286Y-81400000D01*
X144111905Y-81447619D01*
X144159524Y-81542857D01*
X144159524Y-81638095D01*
X144111905Y-81780952D01*
X143540476Y-82352381D01*
X144159524Y-82352381D01*
X144492857Y-81352381D02*
X145159524Y-81352381D01*
X144730952Y-82352381D01*
X153807143Y-82457143D02*
X153759524Y-82504762D01*
X153616667Y-82552381D01*
X153521429Y-82552381D01*
X153378571Y-82504762D01*
X153283333Y-82409524D01*
X153235714Y-82314286D01*
X153188095Y-82123810D01*
X153188095Y-81980952D01*
X153235714Y-81790476D01*
X153283333Y-81695238D01*
X153378571Y-81600000D01*
X153521429Y-81552381D01*
X153616667Y-81552381D01*
X153759524Y-81600000D01*
X153807143Y-81647619D01*
X154188095Y-81647619D02*
X154235714Y-81600000D01*
X154330952Y-81552381D01*
X154569048Y-81552381D01*
X154664286Y-81600000D01*
X154711905Y-81647619D01*
X154759524Y-81742857D01*
X154759524Y-81838095D01*
X154711905Y-81980952D01*
X154140476Y-82552381D01*
X154759524Y-82552381D01*
X155330952Y-81980952D02*
X155235714Y-81933333D01*
X155188095Y-81885714D01*
X155140476Y-81790476D01*
X155140476Y-81742857D01*
X155188095Y-81647619D01*
X155235714Y-81600000D01*
X155330952Y-81552381D01*
X155521429Y-81552381D01*
X155616667Y-81600000D01*
X155664286Y-81647619D01*
X155711905Y-81742857D01*
X155711905Y-81790476D01*
X155664286Y-81885714D01*
X155616667Y-81933333D01*
X155521429Y-81980952D01*
X155330952Y-81980952D01*
X155235714Y-82028571D01*
X155188095Y-82076190D01*
X155140476Y-82171429D01*
X155140476Y-82361905D01*
X155188095Y-82457143D01*
X155235714Y-82504762D01*
X155330952Y-82552381D01*
X155521429Y-82552381D01*
X155616667Y-82504762D01*
X155664286Y-82457143D01*
X155711905Y-82361905D01*
X155711905Y-82171429D01*
X155664286Y-82076190D01*
X155616667Y-82028571D01*
X155521429Y-81980952D01*
X139357143Y-47157143D02*
X139309524Y-47204762D01*
X139166667Y-47252381D01*
X139071429Y-47252381D01*
X138928571Y-47204762D01*
X138833333Y-47109524D01*
X138785714Y-47014286D01*
X138738095Y-46823810D01*
X138738095Y-46680952D01*
X138785714Y-46490476D01*
X138833333Y-46395238D01*
X138928571Y-46300000D01*
X139071429Y-46252381D01*
X139166667Y-46252381D01*
X139309524Y-46300000D01*
X139357143Y-46347619D01*
X139738095Y-46347619D02*
X139785714Y-46300000D01*
X139880952Y-46252381D01*
X140119048Y-46252381D01*
X140214286Y-46300000D01*
X140261905Y-46347619D01*
X140309524Y-46442857D01*
X140309524Y-46538095D01*
X140261905Y-46680952D01*
X139690476Y-47252381D01*
X140309524Y-47252381D01*
X140785714Y-47252381D02*
X140976190Y-47252381D01*
X141071429Y-47204762D01*
X141119048Y-47157143D01*
X141214286Y-47014286D01*
X141261905Y-46823810D01*
X141261905Y-46442857D01*
X141214286Y-46347619D01*
X141166667Y-46300000D01*
X141071429Y-46252381D01*
X140880952Y-46252381D01*
X140785714Y-46300000D01*
X140738095Y-46347619D01*
X140690476Y-46442857D01*
X140690476Y-46680952D01*
X140738095Y-46776190D01*
X140785714Y-46823810D01*
X140880952Y-46871429D01*
X141071429Y-46871429D01*
X141166667Y-46823810D01*
X141214286Y-46776190D01*
X141261905Y-46680952D01*
X126757143Y-47157143D02*
X126709524Y-47204762D01*
X126566667Y-47252381D01*
X126471429Y-47252381D01*
X126328571Y-47204762D01*
X126233333Y-47109524D01*
X126185714Y-47014286D01*
X126138095Y-46823810D01*
X126138095Y-46680952D01*
X126185714Y-46490476D01*
X126233333Y-46395238D01*
X126328571Y-46300000D01*
X126471429Y-46252381D01*
X126566667Y-46252381D01*
X126709524Y-46300000D01*
X126757143Y-46347619D01*
X127090476Y-46252381D02*
X127709524Y-46252381D01*
X127376190Y-46633333D01*
X127519048Y-46633333D01*
X127614286Y-46680952D01*
X127661905Y-46728571D01*
X127709524Y-46823810D01*
X127709524Y-47061905D01*
X127661905Y-47157143D01*
X127614286Y-47204762D01*
X127519048Y-47252381D01*
X127233333Y-47252381D01*
X127138095Y-47204762D01*
X127090476Y-47157143D01*
X128661905Y-47252381D02*
X128090476Y-47252381D01*
X128376190Y-47252381D02*
X128376190Y-46252381D01*
X128280952Y-46395238D01*
X128185714Y-46490476D01*
X128090476Y-46538095D01*
X108357143Y-69357143D02*
X108309524Y-69404762D01*
X108166667Y-69452381D01*
X108071429Y-69452381D01*
X107928571Y-69404762D01*
X107833333Y-69309524D01*
X107785714Y-69214286D01*
X107738095Y-69023810D01*
X107738095Y-68880952D01*
X107785714Y-68690476D01*
X107833333Y-68595238D01*
X107928571Y-68500000D01*
X108071429Y-68452381D01*
X108166667Y-68452381D01*
X108309524Y-68500000D01*
X108357143Y-68547619D01*
X108690476Y-68452381D02*
X109309524Y-68452381D01*
X108976190Y-68833333D01*
X109119048Y-68833333D01*
X109214286Y-68880952D01*
X109261905Y-68928571D01*
X109309524Y-69023810D01*
X109309524Y-69261905D01*
X109261905Y-69357143D01*
X109214286Y-69404762D01*
X109119048Y-69452381D01*
X108833333Y-69452381D01*
X108738095Y-69404762D01*
X108690476Y-69357143D01*
X109690476Y-68547619D02*
X109738095Y-68500000D01*
X109833333Y-68452381D01*
X110071429Y-68452381D01*
X110166667Y-68500000D01*
X110214286Y-68547619D01*
X110261905Y-68642857D01*
X110261905Y-68738095D01*
X110214286Y-68880952D01*
X109642857Y-69452381D01*
X110261905Y-69452381D01*
X109357143Y-90857143D02*
X109309524Y-90904762D01*
X109166667Y-90952381D01*
X109071429Y-90952381D01*
X108928571Y-90904762D01*
X108833333Y-90809524D01*
X108785714Y-90714286D01*
X108738095Y-90523810D01*
X108738095Y-90380952D01*
X108785714Y-90190476D01*
X108833333Y-90095238D01*
X108928571Y-90000000D01*
X109071429Y-89952381D01*
X109166667Y-89952381D01*
X109309524Y-90000000D01*
X109357143Y-90047619D01*
X109690476Y-89952381D02*
X110309524Y-89952381D01*
X109976190Y-90333333D01*
X110119048Y-90333333D01*
X110214286Y-90380952D01*
X110261905Y-90428571D01*
X110309524Y-90523810D01*
X110309524Y-90761905D01*
X110261905Y-90857143D01*
X110214286Y-90904762D01*
X110119048Y-90952381D01*
X109833333Y-90952381D01*
X109738095Y-90904762D01*
X109690476Y-90857143D01*
X110642857Y-89952381D02*
X111261905Y-89952381D01*
X110928571Y-90333333D01*
X111071429Y-90333333D01*
X111166667Y-90380952D01*
X111214286Y-90428571D01*
X111261905Y-90523810D01*
X111261905Y-90761905D01*
X111214286Y-90857143D01*
X111166667Y-90904762D01*
X111071429Y-90952381D01*
X110785714Y-90952381D01*
X110690476Y-90904762D01*
X110642857Y-90857143D01*
X135452381Y-92738095D02*
X134452381Y-92738095D01*
X134452381Y-92500000D01*
X134500000Y-92357142D01*
X134595238Y-92261904D01*
X134690476Y-92214285D01*
X134880952Y-92166666D01*
X135023810Y-92166666D01*
X135214286Y-92214285D01*
X135309524Y-92261904D01*
X135404762Y-92357142D01*
X135452381Y-92500000D01*
X135452381Y-92738095D01*
X135452381Y-91214285D02*
X135452381Y-91785714D01*
X135452381Y-91500000D02*
X134452381Y-91500000D01*
X134595238Y-91595238D01*
X134690476Y-91690476D01*
X134738095Y-91785714D01*
X148261905Y-101452381D02*
X148261905Y-100452381D01*
X148500000Y-100452381D01*
X148642858Y-100500000D01*
X148738096Y-100595238D01*
X148785715Y-100690476D01*
X148833334Y-100880952D01*
X148833334Y-101023810D01*
X148785715Y-101214286D01*
X148738096Y-101309524D01*
X148642858Y-101404762D01*
X148500000Y-101452381D01*
X148261905Y-101452381D01*
X149214286Y-100547619D02*
X149261905Y-100500000D01*
X149357143Y-100452381D01*
X149595239Y-100452381D01*
X149690477Y-100500000D01*
X149738096Y-100547619D01*
X149785715Y-100642857D01*
X149785715Y-100738095D01*
X149738096Y-100880952D01*
X149166667Y-101452381D01*
X149785715Y-101452381D01*
X140842381Y-97738095D02*
X139842381Y-97738095D01*
X139842381Y-97500000D01*
X139890000Y-97357142D01*
X139985238Y-97261904D01*
X140080476Y-97214285D01*
X140270952Y-97166666D01*
X140413810Y-97166666D01*
X140604286Y-97214285D01*
X140699524Y-97261904D01*
X140794762Y-97357142D01*
X140842381Y-97500000D01*
X140842381Y-97738095D01*
X139842381Y-96833333D02*
X139842381Y-96214285D01*
X140223333Y-96547619D01*
X140223333Y-96404761D01*
X140270952Y-96309523D01*
X140318571Y-96261904D01*
X140413810Y-96214285D01*
X140651905Y-96214285D01*
X140747143Y-96261904D01*
X140794762Y-96309523D01*
X140842381Y-96404761D01*
X140842381Y-96690476D01*
X140794762Y-96785714D01*
X140747143Y-96833333D01*
X118972477Y-90306024D02*
X118972477Y-89306024D01*
X119210572Y-89306024D01*
X119353430Y-89353643D01*
X119448668Y-89448881D01*
X119496287Y-89544119D01*
X119543906Y-89734595D01*
X119543906Y-89877453D01*
X119496287Y-90067929D01*
X119448668Y-90163167D01*
X119353430Y-90258405D01*
X119210572Y-90306024D01*
X118972477Y-90306024D01*
X120401049Y-89639357D02*
X120401049Y-90306024D01*
X120162953Y-89258405D02*
X119924858Y-89972691D01*
X120543906Y-89972691D01*
X113802381Y-74938095D02*
X112802381Y-74938095D01*
X112802381Y-74700000D01*
X112850000Y-74557142D01*
X112945238Y-74461904D01*
X113040476Y-74414285D01*
X113230952Y-74366666D01*
X113373810Y-74366666D01*
X113564286Y-74414285D01*
X113659524Y-74461904D01*
X113754762Y-74557142D01*
X113802381Y-74700000D01*
X113802381Y-74938095D01*
X112802381Y-73461904D02*
X112802381Y-73938095D01*
X113278571Y-73985714D01*
X113230952Y-73938095D01*
X113183333Y-73842857D01*
X113183333Y-73604761D01*
X113230952Y-73509523D01*
X113278571Y-73461904D01*
X113373810Y-73414285D01*
X113611905Y-73414285D01*
X113707143Y-73461904D01*
X113754762Y-73509523D01*
X113802381Y-73604761D01*
X113802381Y-73842857D01*
X113754762Y-73938095D01*
X113707143Y-73985714D01*
X103452381Y-89214286D02*
X102452381Y-89214286D01*
X102452381Y-88833333D01*
X102500000Y-88738095D01*
X102547619Y-88690476D01*
X102642857Y-88642857D01*
X102785714Y-88642857D01*
X102880952Y-88690476D01*
X102928571Y-88738095D01*
X102976190Y-88833333D01*
X102976190Y-89214286D01*
X103452381Y-87690476D02*
X103452381Y-88261905D01*
X103452381Y-87976191D02*
X102452381Y-87976191D01*
X102595238Y-88071429D01*
X102690476Y-88166667D01*
X102738095Y-88261905D01*
X103452381Y-86738095D02*
X103452381Y-87309524D01*
X103452381Y-87023810D02*
X102452381Y-87023810D01*
X102595238Y-87119048D01*
X102690476Y-87214286D01*
X102738095Y-87309524D01*
X113004762Y-98047619D02*
X112909524Y-98000000D01*
X112814286Y-97904762D01*
X112671429Y-97761905D01*
X112576190Y-97714286D01*
X112480952Y-97714286D01*
X112528571Y-97952381D02*
X112433333Y-97904762D01*
X112338095Y-97809524D01*
X112290476Y-97619048D01*
X112290476Y-97285714D01*
X112338095Y-97095238D01*
X112433333Y-97000000D01*
X112528571Y-96952381D01*
X112719048Y-96952381D01*
X112814286Y-97000000D01*
X112909524Y-97095238D01*
X112957143Y-97285714D01*
X112957143Y-97619048D01*
X112909524Y-97809524D01*
X112814286Y-97904762D01*
X112719048Y-97952381D01*
X112528571Y-97952381D01*
X113909524Y-97952381D02*
X113338095Y-97952381D01*
X113623809Y-97952381D02*
X113623809Y-96952381D01*
X113528571Y-97095238D01*
X113433333Y-97190476D01*
X113338095Y-97238095D01*
X128784762Y-92547619D02*
X128689524Y-92500000D01*
X128594286Y-92404762D01*
X128451429Y-92261905D01*
X128356190Y-92214286D01*
X128260952Y-92214286D01*
X128308571Y-92452381D02*
X128213333Y-92404762D01*
X128118095Y-92309524D01*
X128070476Y-92119048D01*
X128070476Y-91785714D01*
X128118095Y-91595238D01*
X128213333Y-91500000D01*
X128308571Y-91452381D01*
X128499048Y-91452381D01*
X128594286Y-91500000D01*
X128689524Y-91595238D01*
X128737143Y-91785714D01*
X128737143Y-92119048D01*
X128689524Y-92309524D01*
X128594286Y-92404762D01*
X128499048Y-92452381D01*
X128308571Y-92452381D01*
X129070476Y-91452381D02*
X129689524Y-91452381D01*
X129356190Y-91833333D01*
X129499048Y-91833333D01*
X129594286Y-91880952D01*
X129641905Y-91928571D01*
X129689524Y-92023810D01*
X129689524Y-92261905D01*
X129641905Y-92357143D01*
X129594286Y-92404762D01*
X129499048Y-92452381D01*
X129213333Y-92452381D01*
X129118095Y-92404762D01*
X129070476Y-92357143D01*
X154547619Y-93095238D02*
X154500000Y-93190476D01*
X154404762Y-93285714D01*
X154261905Y-93428571D01*
X154214286Y-93523810D01*
X154214286Y-93619048D01*
X154452381Y-93571429D02*
X154404762Y-93666667D01*
X154309524Y-93761905D01*
X154119048Y-93809524D01*
X153785714Y-93809524D01*
X153595238Y-93761905D01*
X153500000Y-93666667D01*
X153452381Y-93571429D01*
X153452381Y-93380952D01*
X153500000Y-93285714D01*
X153595238Y-93190476D01*
X153785714Y-93142857D01*
X154119048Y-93142857D01*
X154309524Y-93190476D01*
X154404762Y-93285714D01*
X154452381Y-93380952D01*
X154452381Y-93571429D01*
X153785714Y-92285714D02*
X154452381Y-92285714D01*
X153404762Y-92523810D02*
X154119048Y-92761905D01*
X154119048Y-92142857D01*
X130547619Y-96095238D02*
X130500000Y-96190476D01*
X130404762Y-96285714D01*
X130261905Y-96428571D01*
X130214286Y-96523810D01*
X130214286Y-96619048D01*
X130452381Y-96571429D02*
X130404762Y-96666667D01*
X130309524Y-96761905D01*
X130119048Y-96809524D01*
X129785714Y-96809524D01*
X129595238Y-96761905D01*
X129500000Y-96666667D01*
X129452381Y-96571429D01*
X129452381Y-96380952D01*
X129500000Y-96285714D01*
X129595238Y-96190476D01*
X129785714Y-96142857D01*
X130119048Y-96142857D01*
X130309524Y-96190476D01*
X130404762Y-96285714D01*
X130452381Y-96380952D01*
X130452381Y-96571429D01*
X129452381Y-95238095D02*
X129452381Y-95714286D01*
X129928571Y-95761905D01*
X129880952Y-95714286D01*
X129833333Y-95619048D01*
X129833333Y-95380952D01*
X129880952Y-95285714D01*
X129928571Y-95238095D01*
X130023810Y-95190476D01*
X130261905Y-95190476D01*
X130357143Y-95238095D01*
X130404762Y-95285714D01*
X130452381Y-95380952D01*
X130452381Y-95619048D01*
X130404762Y-95714286D01*
X130357143Y-95761905D01*
X110233334Y-104452381D02*
X109900000Y-103976190D01*
X109661905Y-104452381D02*
X109661905Y-103452381D01*
X110042858Y-103452381D01*
X110138096Y-103500000D01*
X110185715Y-103547619D01*
X110233334Y-103642857D01*
X110233334Y-103785714D01*
X110185715Y-103880952D01*
X110138096Y-103928571D01*
X110042858Y-103976190D01*
X109661905Y-103976190D01*
X111185715Y-104452381D02*
X110614286Y-104452381D01*
X110900000Y-104452381D02*
X110900000Y-103452381D01*
X110804762Y-103595238D01*
X110709524Y-103690476D01*
X110614286Y-103738095D01*
X113233334Y-82852381D02*
X112900000Y-82376190D01*
X112661905Y-82852381D02*
X112661905Y-81852381D01*
X113042858Y-81852381D01*
X113138096Y-81900000D01*
X113185715Y-81947619D01*
X113233334Y-82042857D01*
X113233334Y-82185714D01*
X113185715Y-82280952D01*
X113138096Y-82328571D01*
X113042858Y-82376190D01*
X112661905Y-82376190D01*
X113614286Y-81947619D02*
X113661905Y-81900000D01*
X113757143Y-81852381D01*
X113995239Y-81852381D01*
X114090477Y-81900000D01*
X114138096Y-81947619D01*
X114185715Y-82042857D01*
X114185715Y-82138095D01*
X114138096Y-82280952D01*
X113566667Y-82852381D01*
X114185715Y-82852381D01*
X134933334Y-109052381D02*
X134600000Y-108576190D01*
X134361905Y-109052381D02*
X134361905Y-108052381D01*
X134742858Y-108052381D01*
X134838096Y-108100000D01*
X134885715Y-108147619D01*
X134933334Y-108242857D01*
X134933334Y-108385714D01*
X134885715Y-108480952D01*
X134838096Y-108528571D01*
X134742858Y-108576190D01*
X134361905Y-108576190D01*
X135266667Y-108052381D02*
X135885715Y-108052381D01*
X135552381Y-108433333D01*
X135695239Y-108433333D01*
X135790477Y-108480952D01*
X135838096Y-108528571D01*
X135885715Y-108623810D01*
X135885715Y-108861905D01*
X135838096Y-108957143D01*
X135790477Y-109004762D01*
X135695239Y-109052381D01*
X135409524Y-109052381D01*
X135314286Y-109004762D01*
X135266667Y-108957143D01*
X117233334Y-104452381D02*
X116900000Y-103976190D01*
X116661905Y-104452381D02*
X116661905Y-103452381D01*
X117042858Y-103452381D01*
X117138096Y-103500000D01*
X117185715Y-103547619D01*
X117233334Y-103642857D01*
X117233334Y-103785714D01*
X117185715Y-103880952D01*
X117138096Y-103928571D01*
X117042858Y-103976190D01*
X116661905Y-103976190D01*
X118090477Y-103785714D02*
X118090477Y-104452381D01*
X117852381Y-103404762D02*
X117614286Y-104119048D01*
X118233334Y-104119048D01*
X138233334Y-93582381D02*
X137900000Y-93106190D01*
X137661905Y-93582381D02*
X137661905Y-92582381D01*
X138042858Y-92582381D01*
X138138096Y-92630000D01*
X138185715Y-92677619D01*
X138233334Y-92772857D01*
X138233334Y-92915714D01*
X138185715Y-93010952D01*
X138138096Y-93058571D01*
X138042858Y-93106190D01*
X137661905Y-93106190D01*
X139138096Y-92582381D02*
X138661905Y-92582381D01*
X138614286Y-93058571D01*
X138661905Y-93010952D01*
X138757143Y-92963333D01*
X138995239Y-92963333D01*
X139090477Y-93010952D01*
X139138096Y-93058571D01*
X139185715Y-93153810D01*
X139185715Y-93391905D01*
X139138096Y-93487143D01*
X139090477Y-93534762D01*
X138995239Y-93582381D01*
X138757143Y-93582381D01*
X138661905Y-93534762D01*
X138614286Y-93487143D01*
X134433334Y-101082381D02*
X134100000Y-100606190D01*
X133861905Y-101082381D02*
X133861905Y-100082381D01*
X134242858Y-100082381D01*
X134338096Y-100130000D01*
X134385715Y-100177619D01*
X134433334Y-100272857D01*
X134433334Y-100415714D01*
X134385715Y-100510952D01*
X134338096Y-100558571D01*
X134242858Y-100606190D01*
X133861905Y-100606190D01*
X135290477Y-100082381D02*
X135100000Y-100082381D01*
X135004762Y-100130000D01*
X134957143Y-100177619D01*
X134861905Y-100320476D01*
X134814286Y-100510952D01*
X134814286Y-100891905D01*
X134861905Y-100987143D01*
X134909524Y-101034762D01*
X135004762Y-101082381D01*
X135195239Y-101082381D01*
X135290477Y-101034762D01*
X135338096Y-100987143D01*
X135385715Y-100891905D01*
X135385715Y-100653810D01*
X135338096Y-100558571D01*
X135290477Y-100510952D01*
X135195239Y-100463333D01*
X135004762Y-100463333D01*
X134909524Y-100510952D01*
X134861905Y-100558571D01*
X134814286Y-100653810D01*
X123443334Y-97792381D02*
X123110000Y-97316190D01*
X122871905Y-97792381D02*
X122871905Y-96792381D01*
X123252858Y-96792381D01*
X123348096Y-96840000D01*
X123395715Y-96887619D01*
X123443334Y-96982857D01*
X123443334Y-97125714D01*
X123395715Y-97220952D01*
X123348096Y-97268571D01*
X123252858Y-97316190D01*
X122871905Y-97316190D01*
X123776667Y-96792381D02*
X124443334Y-96792381D01*
X124014762Y-97792381D01*
X137273334Y-99502381D02*
X136940000Y-99026190D01*
X136701905Y-99502381D02*
X136701905Y-98502381D01*
X137082858Y-98502381D01*
X137178096Y-98550000D01*
X137225715Y-98597619D01*
X137273334Y-98692857D01*
X137273334Y-98835714D01*
X137225715Y-98930952D01*
X137178096Y-98978571D01*
X137082858Y-99026190D01*
X136701905Y-99026190D01*
X137749524Y-99502381D02*
X137940000Y-99502381D01*
X138035239Y-99454762D01*
X138082858Y-99407143D01*
X138178096Y-99264286D01*
X138225715Y-99073810D01*
X138225715Y-98692857D01*
X138178096Y-98597619D01*
X138130477Y-98550000D01*
X138035239Y-98502381D01*
X137844762Y-98502381D01*
X137749524Y-98550000D01*
X137701905Y-98597619D01*
X137654286Y-98692857D01*
X137654286Y-98930952D01*
X137701905Y-99026190D01*
X137749524Y-99073810D01*
X137844762Y-99121429D01*
X138035239Y-99121429D01*
X138130477Y-99073810D01*
X138178096Y-99026190D01*
X138225715Y-98930952D01*
X121217143Y-28492381D02*
X120883809Y-28016190D01*
X120645714Y-28492381D02*
X120645714Y-27492381D01*
X121026667Y-27492381D01*
X121121905Y-27540000D01*
X121169524Y-27587619D01*
X121217143Y-27682857D01*
X121217143Y-27825714D01*
X121169524Y-27920952D01*
X121121905Y-27968571D01*
X121026667Y-28016190D01*
X120645714Y-28016190D01*
X122169524Y-28492381D02*
X121598095Y-28492381D01*
X121883809Y-28492381D02*
X121883809Y-27492381D01*
X121788571Y-27635238D01*
X121693333Y-27730476D01*
X121598095Y-27778095D01*
X122502857Y-27492381D02*
X123121905Y-27492381D01*
X122788571Y-27873333D01*
X122931429Y-27873333D01*
X123026667Y-27920952D01*
X123074286Y-27968571D01*
X123121905Y-28063810D01*
X123121905Y-28301905D01*
X123074286Y-28397143D01*
X123026667Y-28444762D01*
X122931429Y-28492381D01*
X122645714Y-28492381D01*
X122550476Y-28444762D01*
X122502857Y-28397143D01*
X132357143Y-28452381D02*
X132023809Y-27976190D01*
X131785714Y-28452381D02*
X131785714Y-27452381D01*
X132166667Y-27452381D01*
X132261905Y-27500000D01*
X132309524Y-27547619D01*
X132357143Y-27642857D01*
X132357143Y-27785714D01*
X132309524Y-27880952D01*
X132261905Y-27928571D01*
X132166667Y-27976190D01*
X131785714Y-27976190D01*
X133309524Y-28452381D02*
X132738095Y-28452381D01*
X133023809Y-28452381D02*
X133023809Y-27452381D01*
X132928571Y-27595238D01*
X132833333Y-27690476D01*
X132738095Y-27738095D01*
X133642857Y-27452381D02*
X134309524Y-27452381D01*
X133880952Y-28452381D01*
X141357143Y-28452381D02*
X141023809Y-27976190D01*
X140785714Y-28452381D02*
X140785714Y-27452381D01*
X141166667Y-27452381D01*
X141261905Y-27500000D01*
X141309524Y-27547619D01*
X141357143Y-27642857D01*
X141357143Y-27785714D01*
X141309524Y-27880952D01*
X141261905Y-27928571D01*
X141166667Y-27976190D01*
X140785714Y-27976190D01*
X141738095Y-27547619D02*
X141785714Y-27500000D01*
X141880952Y-27452381D01*
X142119048Y-27452381D01*
X142214286Y-27500000D01*
X142261905Y-27547619D01*
X142309524Y-27642857D01*
X142309524Y-27738095D01*
X142261905Y-27880952D01*
X141690476Y-28452381D01*
X142309524Y-28452381D01*
X143261905Y-28452381D02*
X142690476Y-28452381D01*
X142976190Y-28452381D02*
X142976190Y-27452381D01*
X142880952Y-27595238D01*
X142785714Y-27690476D01*
X142690476Y-27738095D01*
X123587143Y-56892381D02*
X123253809Y-56416190D01*
X123015714Y-56892381D02*
X123015714Y-55892381D01*
X123396667Y-55892381D01*
X123491905Y-55940000D01*
X123539524Y-55987619D01*
X123587143Y-56082857D01*
X123587143Y-56225714D01*
X123539524Y-56320952D01*
X123491905Y-56368571D01*
X123396667Y-56416190D01*
X123015714Y-56416190D01*
X123968095Y-55987619D02*
X124015714Y-55940000D01*
X124110952Y-55892381D01*
X124349048Y-55892381D01*
X124444286Y-55940000D01*
X124491905Y-55987619D01*
X124539524Y-56082857D01*
X124539524Y-56178095D01*
X124491905Y-56320952D01*
X123920476Y-56892381D01*
X124539524Y-56892381D01*
X124920476Y-55987619D02*
X124968095Y-55940000D01*
X125063333Y-55892381D01*
X125301429Y-55892381D01*
X125396667Y-55940000D01*
X125444286Y-55987619D01*
X125491905Y-56082857D01*
X125491905Y-56178095D01*
X125444286Y-56320952D01*
X124872857Y-56892381D01*
X125491905Y-56892381D01*
X126477143Y-56282381D02*
X126143809Y-55806190D01*
X125905714Y-56282381D02*
X125905714Y-55282381D01*
X126286667Y-55282381D01*
X126381905Y-55330000D01*
X126429524Y-55377619D01*
X126477143Y-55472857D01*
X126477143Y-55615714D01*
X126429524Y-55710952D01*
X126381905Y-55758571D01*
X126286667Y-55806190D01*
X125905714Y-55806190D01*
X126858095Y-55377619D02*
X126905714Y-55330000D01*
X127000952Y-55282381D01*
X127239048Y-55282381D01*
X127334286Y-55330000D01*
X127381905Y-55377619D01*
X127429524Y-55472857D01*
X127429524Y-55568095D01*
X127381905Y-55710952D01*
X126810476Y-56282381D01*
X127429524Y-56282381D01*
X127762857Y-55282381D02*
X128381905Y-55282381D01*
X128048571Y-55663333D01*
X128191429Y-55663333D01*
X128286667Y-55710952D01*
X128334286Y-55758571D01*
X128381905Y-55853810D01*
X128381905Y-56091905D01*
X128334286Y-56187143D01*
X128286667Y-56234762D01*
X128191429Y-56282381D01*
X127905714Y-56282381D01*
X127810476Y-56234762D01*
X127762857Y-56187143D01*
X129617143Y-66352381D02*
X129283809Y-65876190D01*
X129045714Y-66352381D02*
X129045714Y-65352381D01*
X129426667Y-65352381D01*
X129521905Y-65400000D01*
X129569524Y-65447619D01*
X129617143Y-65542857D01*
X129617143Y-65685714D01*
X129569524Y-65780952D01*
X129521905Y-65828571D01*
X129426667Y-65876190D01*
X129045714Y-65876190D01*
X129998095Y-65447619D02*
X130045714Y-65400000D01*
X130140952Y-65352381D01*
X130379048Y-65352381D01*
X130474286Y-65400000D01*
X130521905Y-65447619D01*
X130569524Y-65542857D01*
X130569524Y-65638095D01*
X130521905Y-65780952D01*
X129950476Y-66352381D01*
X130569524Y-66352381D01*
X131426667Y-65685714D02*
X131426667Y-66352381D01*
X131188571Y-65304762D02*
X130950476Y-66019048D01*
X131569524Y-66019048D01*
X114127143Y-64212381D02*
X113793809Y-63736190D01*
X113555714Y-64212381D02*
X113555714Y-63212381D01*
X113936667Y-63212381D01*
X114031905Y-63260000D01*
X114079524Y-63307619D01*
X114127143Y-63402857D01*
X114127143Y-63545714D01*
X114079524Y-63640952D01*
X114031905Y-63688571D01*
X113936667Y-63736190D01*
X113555714Y-63736190D01*
X114508095Y-63307619D02*
X114555714Y-63260000D01*
X114650952Y-63212381D01*
X114889048Y-63212381D01*
X114984286Y-63260000D01*
X115031905Y-63307619D01*
X115079524Y-63402857D01*
X115079524Y-63498095D01*
X115031905Y-63640952D01*
X114460476Y-64212381D01*
X115079524Y-64212381D01*
X115984286Y-63212381D02*
X115508095Y-63212381D01*
X115460476Y-63688571D01*
X115508095Y-63640952D01*
X115603333Y-63593333D01*
X115841429Y-63593333D01*
X115936667Y-63640952D01*
X115984286Y-63688571D01*
X116031905Y-63783810D01*
X116031905Y-64021905D01*
X115984286Y-64117143D01*
X115936667Y-64164762D01*
X115841429Y-64212381D01*
X115603333Y-64212381D01*
X115508095Y-64164762D01*
X115460476Y-64117143D01*
X128962381Y-53192857D02*
X128486190Y-53526191D01*
X128962381Y-53764286D02*
X127962381Y-53764286D01*
X127962381Y-53383333D01*
X128010000Y-53288095D01*
X128057619Y-53240476D01*
X128152857Y-53192857D01*
X128295714Y-53192857D01*
X128390952Y-53240476D01*
X128438571Y-53288095D01*
X128486190Y-53383333D01*
X128486190Y-53764286D01*
X128057619Y-52811905D02*
X128010000Y-52764286D01*
X127962381Y-52669048D01*
X127962381Y-52430952D01*
X128010000Y-52335714D01*
X128057619Y-52288095D01*
X128152857Y-52240476D01*
X128248095Y-52240476D01*
X128390952Y-52288095D01*
X128962381Y-52859524D01*
X128962381Y-52240476D01*
X127962381Y-51383333D02*
X127962381Y-51573810D01*
X128010000Y-51669048D01*
X128057619Y-51716667D01*
X128200476Y-51811905D01*
X128390952Y-51859524D01*
X128771905Y-51859524D01*
X128867143Y-51811905D01*
X128914762Y-51764286D01*
X128962381Y-51669048D01*
X128962381Y-51478571D01*
X128914762Y-51383333D01*
X128867143Y-51335714D01*
X128771905Y-51288095D01*
X128533810Y-51288095D01*
X128438571Y-51335714D01*
X128390952Y-51383333D01*
X128343333Y-51478571D01*
X128343333Y-51669048D01*
X128390952Y-51764286D01*
X128438571Y-51811905D01*
X128533810Y-51859524D01*
X112357143Y-80352381D02*
X112023809Y-79876190D01*
X111785714Y-80352381D02*
X111785714Y-79352381D01*
X112166667Y-79352381D01*
X112261905Y-79400000D01*
X112309524Y-79447619D01*
X112357143Y-79542857D01*
X112357143Y-79685714D01*
X112309524Y-79780952D01*
X112261905Y-79828571D01*
X112166667Y-79876190D01*
X111785714Y-79876190D01*
X112690476Y-79352381D02*
X113309524Y-79352381D01*
X112976190Y-79733333D01*
X113119048Y-79733333D01*
X113214286Y-79780952D01*
X113261905Y-79828571D01*
X113309524Y-79923810D01*
X113309524Y-80161905D01*
X113261905Y-80257143D01*
X113214286Y-80304762D01*
X113119048Y-80352381D01*
X112833333Y-80352381D01*
X112738095Y-80304762D01*
X112690476Y-80257143D01*
X114261905Y-80352381D02*
X113690476Y-80352381D01*
X113976190Y-80352381D02*
X113976190Y-79352381D01*
X113880952Y-79495238D01*
X113785714Y-79590476D01*
X113690476Y-79638095D01*
X125857143Y-78952381D02*
X125523809Y-78476190D01*
X125285714Y-78952381D02*
X125285714Y-77952381D01*
X125666667Y-77952381D01*
X125761905Y-78000000D01*
X125809524Y-78047619D01*
X125857143Y-78142857D01*
X125857143Y-78285714D01*
X125809524Y-78380952D01*
X125761905Y-78428571D01*
X125666667Y-78476190D01*
X125285714Y-78476190D01*
X126190476Y-77952381D02*
X126809524Y-77952381D01*
X126476190Y-78333333D01*
X126619048Y-78333333D01*
X126714286Y-78380952D01*
X126761905Y-78428571D01*
X126809524Y-78523810D01*
X126809524Y-78761905D01*
X126761905Y-78857143D01*
X126714286Y-78904762D01*
X126619048Y-78952381D01*
X126333333Y-78952381D01*
X126238095Y-78904762D01*
X126190476Y-78857143D01*
X127190476Y-78047619D02*
X127238095Y-78000000D01*
X127333333Y-77952381D01*
X127571429Y-77952381D01*
X127666667Y-78000000D01*
X127714286Y-78047619D01*
X127761905Y-78142857D01*
X127761905Y-78238095D01*
X127714286Y-78380952D01*
X127142857Y-78952381D01*
X127761905Y-78952381D01*
X120757143Y-77302381D02*
X120423809Y-76826190D01*
X120185714Y-77302381D02*
X120185714Y-76302381D01*
X120566667Y-76302381D01*
X120661905Y-76350000D01*
X120709524Y-76397619D01*
X120757143Y-76492857D01*
X120757143Y-76635714D01*
X120709524Y-76730952D01*
X120661905Y-76778571D01*
X120566667Y-76826190D01*
X120185714Y-76826190D01*
X121090476Y-76302381D02*
X121709524Y-76302381D01*
X121376190Y-76683333D01*
X121519048Y-76683333D01*
X121614286Y-76730952D01*
X121661905Y-76778571D01*
X121709524Y-76873810D01*
X121709524Y-77111905D01*
X121661905Y-77207143D01*
X121614286Y-77254762D01*
X121519048Y-77302381D01*
X121233333Y-77302381D01*
X121138095Y-77254762D01*
X121090476Y-77207143D01*
X122042857Y-76302381D02*
X122661905Y-76302381D01*
X122328571Y-76683333D01*
X122471429Y-76683333D01*
X122566667Y-76730952D01*
X122614286Y-76778571D01*
X122661905Y-76873810D01*
X122661905Y-77111905D01*
X122614286Y-77207143D01*
X122566667Y-77254762D01*
X122471429Y-77302381D01*
X122185714Y-77302381D01*
X122090476Y-77254762D01*
X122042857Y-77207143D01*
X123357143Y-74452381D02*
X123023809Y-73976190D01*
X122785714Y-74452381D02*
X122785714Y-73452381D01*
X123166667Y-73452381D01*
X123261905Y-73500000D01*
X123309524Y-73547619D01*
X123357143Y-73642857D01*
X123357143Y-73785714D01*
X123309524Y-73880952D01*
X123261905Y-73928571D01*
X123166667Y-73976190D01*
X122785714Y-73976190D01*
X123690476Y-73452381D02*
X124309524Y-73452381D01*
X123976190Y-73833333D01*
X124119048Y-73833333D01*
X124214286Y-73880952D01*
X124261905Y-73928571D01*
X124309524Y-74023810D01*
X124309524Y-74261905D01*
X124261905Y-74357143D01*
X124214286Y-74404762D01*
X124119048Y-74452381D01*
X123833333Y-74452381D01*
X123738095Y-74404762D01*
X123690476Y-74357143D01*
X125166667Y-73785714D02*
X125166667Y-74452381D01*
X124928571Y-73404762D02*
X124690476Y-74119048D01*
X125309524Y-74119048D01*
X116657143Y-77352381D02*
X116323809Y-76876190D01*
X116085714Y-77352381D02*
X116085714Y-76352381D01*
X116466667Y-76352381D01*
X116561905Y-76400000D01*
X116609524Y-76447619D01*
X116657143Y-76542857D01*
X116657143Y-76685714D01*
X116609524Y-76780952D01*
X116561905Y-76828571D01*
X116466667Y-76876190D01*
X116085714Y-76876190D01*
X116990476Y-76352381D02*
X117609524Y-76352381D01*
X117276190Y-76733333D01*
X117419048Y-76733333D01*
X117514286Y-76780952D01*
X117561905Y-76828571D01*
X117609524Y-76923810D01*
X117609524Y-77161905D01*
X117561905Y-77257143D01*
X117514286Y-77304762D01*
X117419048Y-77352381D01*
X117133333Y-77352381D01*
X117038095Y-77304762D01*
X116990476Y-77257143D01*
X118514286Y-76352381D02*
X118038095Y-76352381D01*
X117990476Y-76828571D01*
X118038095Y-76780952D01*
X118133333Y-76733333D01*
X118371429Y-76733333D01*
X118466667Y-76780952D01*
X118514286Y-76828571D01*
X118561905Y-76923810D01*
X118561905Y-77161905D01*
X118514286Y-77257143D01*
X118466667Y-77304762D01*
X118371429Y-77352381D01*
X118133333Y-77352381D01*
X118038095Y-77304762D01*
X117990476Y-77257143D01*
X113567715Y-89056024D02*
X113234381Y-88579833D01*
X112996286Y-89056024D02*
X112996286Y-88056024D01*
X113377239Y-88056024D01*
X113472477Y-88103643D01*
X113520096Y-88151262D01*
X113567715Y-88246500D01*
X113567715Y-88389357D01*
X113520096Y-88484595D01*
X113472477Y-88532214D01*
X113377239Y-88579833D01*
X112996286Y-88579833D01*
X113901048Y-88056024D02*
X114520096Y-88056024D01*
X114186762Y-88436976D01*
X114329620Y-88436976D01*
X114424858Y-88484595D01*
X114472477Y-88532214D01*
X114520096Y-88627453D01*
X114520096Y-88865548D01*
X114472477Y-88960786D01*
X114424858Y-89008405D01*
X114329620Y-89056024D01*
X114043905Y-89056024D01*
X113948667Y-89008405D01*
X113901048Y-88960786D01*
X115377239Y-88056024D02*
X115186762Y-88056024D01*
X115091524Y-88103643D01*
X115043905Y-88151262D01*
X114948667Y-88294119D01*
X114901048Y-88484595D01*
X114901048Y-88865548D01*
X114948667Y-88960786D01*
X114996286Y-89008405D01*
X115091524Y-89056024D01*
X115282001Y-89056024D01*
X115377239Y-89008405D01*
X115424858Y-88960786D01*
X115472477Y-88865548D01*
X115472477Y-88627453D01*
X115424858Y-88532214D01*
X115377239Y-88484595D01*
X115282001Y-88436976D01*
X115091524Y-88436976D01*
X114996286Y-88484595D01*
X114948667Y-88532214D01*
X114901048Y-88627453D01*
X117607143Y-72552381D02*
X117273809Y-72076190D01*
X117035714Y-72552381D02*
X117035714Y-71552381D01*
X117416667Y-71552381D01*
X117511905Y-71600000D01*
X117559524Y-71647619D01*
X117607143Y-71742857D01*
X117607143Y-71885714D01*
X117559524Y-71980952D01*
X117511905Y-72028571D01*
X117416667Y-72076190D01*
X117035714Y-72076190D01*
X117940476Y-71552381D02*
X118559524Y-71552381D01*
X118226190Y-71933333D01*
X118369048Y-71933333D01*
X118464286Y-71980952D01*
X118511905Y-72028571D01*
X118559524Y-72123810D01*
X118559524Y-72361905D01*
X118511905Y-72457143D01*
X118464286Y-72504762D01*
X118369048Y-72552381D01*
X118083333Y-72552381D01*
X117988095Y-72504762D01*
X117940476Y-72457143D01*
X118892857Y-71552381D02*
X119559524Y-71552381D01*
X119130952Y-72552381D01*
X118124762Y-40923333D02*
X118172381Y-40780476D01*
X118172381Y-40542380D01*
X118124762Y-40447142D01*
X118077143Y-40399523D01*
X117981905Y-40351904D01*
X117886667Y-40351904D01*
X117791429Y-40399523D01*
X117743810Y-40447142D01*
X117696190Y-40542380D01*
X117648571Y-40732857D01*
X117600952Y-40828095D01*
X117553333Y-40875714D01*
X117458095Y-40923333D01*
X117362857Y-40923333D01*
X117267619Y-40875714D01*
X117220000Y-40828095D01*
X117172381Y-40732857D01*
X117172381Y-40494761D01*
X117220000Y-40351904D01*
X117172381Y-40018571D02*
X118172381Y-39780476D01*
X117458095Y-39589999D01*
X118172381Y-39399523D01*
X117172381Y-39161428D01*
X118172381Y-38256666D02*
X118172381Y-38828095D01*
X118172381Y-38542381D02*
X117172381Y-38542381D01*
X117315238Y-38637619D01*
X117410476Y-38732857D01*
X117458095Y-38828095D01*
X135977381Y-65761905D02*
X136786905Y-65761905D01*
X136882143Y-65714286D01*
X136929762Y-65666667D01*
X136977381Y-65571429D01*
X136977381Y-65380952D01*
X136929762Y-65285714D01*
X136882143Y-65238095D01*
X136786905Y-65190476D01*
X135977381Y-65190476D01*
X136977381Y-64190476D02*
X136977381Y-64761905D01*
X136977381Y-64476191D02*
X135977381Y-64476191D01*
X136120238Y-64571429D01*
X136215476Y-64666667D01*
X136263095Y-64761905D01*
X144238095Y-97952381D02*
X144238095Y-98761905D01*
X144285714Y-98857143D01*
X144333333Y-98904762D01*
X144428571Y-98952381D01*
X144619048Y-98952381D01*
X144714286Y-98904762D01*
X144761905Y-98857143D01*
X144809524Y-98761905D01*
X144809524Y-97952381D01*
X145238095Y-98047619D02*
X145285714Y-98000000D01*
X145380952Y-97952381D01*
X145619048Y-97952381D01*
X145714286Y-98000000D01*
X145761905Y-98047619D01*
X145809524Y-98142857D01*
X145809524Y-98238095D01*
X145761905Y-98380952D01*
X145190476Y-98952381D01*
X145809524Y-98952381D01*
X166052381Y-94761905D02*
X166861905Y-94761905D01*
X166957143Y-94714286D01*
X167004762Y-94666667D01*
X167052381Y-94571429D01*
X167052381Y-94380952D01*
X167004762Y-94285714D01*
X166957143Y-94238095D01*
X166861905Y-94190476D01*
X166052381Y-94190476D01*
X166052381Y-93809524D02*
X166052381Y-93190476D01*
X166433333Y-93523810D01*
X166433333Y-93380952D01*
X166480952Y-93285714D01*
X166528571Y-93238095D01*
X166623810Y-93190476D01*
X166861905Y-93190476D01*
X166957143Y-93238095D01*
X167004762Y-93285714D01*
X167052381Y-93380952D01*
X167052381Y-93666667D01*
X167004762Y-93761905D01*
X166957143Y-93809524D01*
X115568095Y-96162381D02*
X115568095Y-96971905D01*
X115615714Y-97067143D01*
X115663333Y-97114762D01*
X115758571Y-97162381D01*
X115949048Y-97162381D01*
X116044286Y-97114762D01*
X116091905Y-97067143D01*
X116139524Y-96971905D01*
X116139524Y-96162381D01*
X117044286Y-96495714D02*
X117044286Y-97162381D01*
X116806190Y-96114762D02*
X116568095Y-96829048D01*
X117187143Y-96829048D01*
X131838095Y-33652381D02*
X131838095Y-34461905D01*
X131885714Y-34557143D01*
X131933333Y-34604762D01*
X132028571Y-34652381D01*
X132219048Y-34652381D01*
X132314286Y-34604762D01*
X132361905Y-34557143D01*
X132409524Y-34461905D01*
X132409524Y-33652381D01*
X133314286Y-33652381D02*
X133123809Y-33652381D01*
X133028571Y-33700000D01*
X132980952Y-33747619D01*
X132885714Y-33890476D01*
X132838095Y-34080952D01*
X132838095Y-34461905D01*
X132885714Y-34557143D01*
X132933333Y-34604762D01*
X133028571Y-34652381D01*
X133219048Y-34652381D01*
X133314286Y-34604762D01*
X133361905Y-34557143D01*
X133409524Y-34461905D01*
X133409524Y-34223810D01*
X133361905Y-34128571D01*
X133314286Y-34080952D01*
X133219048Y-34033333D01*
X133028571Y-34033333D01*
X132933333Y-34080952D01*
X132885714Y-34128571D01*
X132838095Y-34223810D01*
X141438095Y-33652381D02*
X141438095Y-34461905D01*
X141485714Y-34557143D01*
X141533333Y-34604762D01*
X141628571Y-34652381D01*
X141819048Y-34652381D01*
X141914286Y-34604762D01*
X141961905Y-34557143D01*
X142009524Y-34461905D01*
X142009524Y-33652381D01*
X142390476Y-33652381D02*
X143057143Y-33652381D01*
X142628571Y-34652381D01*
X134238095Y-50052381D02*
X134238095Y-50861905D01*
X134285714Y-50957143D01*
X134333333Y-51004762D01*
X134428571Y-51052381D01*
X134619048Y-51052381D01*
X134714286Y-51004762D01*
X134761905Y-50957143D01*
X134809524Y-50861905D01*
X134809524Y-50052381D01*
X135428571Y-50480952D02*
X135333333Y-50433333D01*
X135285714Y-50385714D01*
X135238095Y-50290476D01*
X135238095Y-50242857D01*
X135285714Y-50147619D01*
X135333333Y-50100000D01*
X135428571Y-50052381D01*
X135619048Y-50052381D01*
X135714286Y-50100000D01*
X135761905Y-50147619D01*
X135809524Y-50242857D01*
X135809524Y-50290476D01*
X135761905Y-50385714D01*
X135714286Y-50433333D01*
X135619048Y-50480952D01*
X135428571Y-50480952D01*
X135333333Y-50528571D01*
X135285714Y-50576190D01*
X135238095Y-50671429D01*
X135238095Y-50861905D01*
X135285714Y-50957143D01*
X135333333Y-51004762D01*
X135428571Y-51052381D01*
X135619048Y-51052381D01*
X135714286Y-51004762D01*
X135761905Y-50957143D01*
X135809524Y-50861905D01*
X135809524Y-50671429D01*
X135761905Y-50576190D01*
X135714286Y-50528571D01*
X135619048Y-50480952D01*
X118752381Y-51411905D02*
X119561905Y-51411905D01*
X119657143Y-51364286D01*
X119704762Y-51316667D01*
X119752381Y-51221429D01*
X119752381Y-51030952D01*
X119704762Y-50935714D01*
X119657143Y-50888095D01*
X119561905Y-50840476D01*
X118752381Y-50840476D01*
X119752381Y-50316667D02*
X119752381Y-50126191D01*
X119704762Y-50030952D01*
X119657143Y-49983333D01*
X119514286Y-49888095D01*
X119323810Y-49840476D01*
X118942857Y-49840476D01*
X118847619Y-49888095D01*
X118800000Y-49935714D01*
X118752381Y-50030952D01*
X118752381Y-50221429D01*
X118800000Y-50316667D01*
X118847619Y-50364286D01*
X118942857Y-50411905D01*
X119180952Y-50411905D01*
X119276190Y-50364286D01*
X119323810Y-50316667D01*
X119371429Y-50221429D01*
X119371429Y-50030952D01*
X119323810Y-49935714D01*
X119276190Y-49888095D01*
X119180952Y-49840476D01*
X118911905Y-84002381D02*
X118911905Y-84811905D01*
X118959524Y-84907143D01*
X119007143Y-84954762D01*
X119102381Y-85002381D01*
X119292858Y-85002381D01*
X119388096Y-84954762D01*
X119435715Y-84907143D01*
X119483334Y-84811905D01*
X119483334Y-84002381D01*
X120483334Y-85002381D02*
X119911905Y-85002381D01*
X120197619Y-85002381D02*
X120197619Y-84002381D01*
X120102381Y-84145238D01*
X120007143Y-84240476D01*
X119911905Y-84288095D01*
X121102381Y-84002381D02*
X121197620Y-84002381D01*
X121292858Y-84050000D01*
X121340477Y-84097619D01*
X121388096Y-84192857D01*
X121435715Y-84383333D01*
X121435715Y-84621429D01*
X121388096Y-84811905D01*
X121340477Y-84907143D01*
X121292858Y-84954762D01*
X121197620Y-85002381D01*
X121102381Y-85002381D01*
X121007143Y-84954762D01*
X120959524Y-84907143D01*
X120911905Y-84811905D01*
X120864286Y-84621429D01*
X120864286Y-84383333D01*
X120911905Y-84192857D01*
X120959524Y-84097619D01*
X121007143Y-84050000D01*
X121102381Y-84002381D01*
X148773809Y-91926190D02*
X148773809Y-92402381D01*
X148440476Y-91402381D02*
X148773809Y-91926190D01*
X149107143Y-91402381D01*
X149964286Y-92402381D02*
X149392857Y-92402381D01*
X149678571Y-92402381D02*
X149678571Y-91402381D01*
X149583333Y-91545238D01*
X149488095Y-91640476D01*
X149392857Y-91688095D01*
X173593334Y-57347143D02*
X173545715Y-57394762D01*
X173402858Y-57442381D01*
X173307620Y-57442381D01*
X173164762Y-57394762D01*
X173069524Y-57299524D01*
X173021905Y-57204286D01*
X172974286Y-57013810D01*
X172974286Y-56870952D01*
X173021905Y-56680476D01*
X173069524Y-56585238D01*
X173164762Y-56490000D01*
X173307620Y-56442381D01*
X173402858Y-56442381D01*
X173545715Y-56490000D01*
X173593334Y-56537619D01*
X174545715Y-57442381D02*
X173974286Y-57442381D01*
X174260000Y-57442381D02*
X174260000Y-56442381D01*
X174164762Y-56585238D01*
X174069524Y-56680476D01*
X173974286Y-56728095D01*
X114174762Y-53873333D02*
X114222381Y-53730476D01*
X114222381Y-53492380D01*
X114174762Y-53397142D01*
X114127143Y-53349523D01*
X114031905Y-53301904D01*
X113936667Y-53301904D01*
X113841429Y-53349523D01*
X113793810Y-53397142D01*
X113746190Y-53492380D01*
X113698571Y-53682857D01*
X113650952Y-53778095D01*
X113603333Y-53825714D01*
X113508095Y-53873333D01*
X113412857Y-53873333D01*
X113317619Y-53825714D01*
X113270000Y-53778095D01*
X113222381Y-53682857D01*
X113222381Y-53444761D01*
X113270000Y-53301904D01*
X113222381Y-52968571D02*
X114222381Y-52730476D01*
X113508095Y-52539999D01*
X114222381Y-52349523D01*
X113222381Y-52111428D01*
X113555714Y-51301904D02*
X114222381Y-51301904D01*
X113174762Y-51540000D02*
X113889048Y-51778095D01*
X113889048Y-51159047D01*
X168452381Y-61638095D02*
X169261905Y-61638095D01*
X169357143Y-61590476D01*
X169404762Y-61542857D01*
X169452381Y-61447619D01*
X169452381Y-61257142D01*
X169404762Y-61161904D01*
X169357143Y-61114285D01*
X169261905Y-61066666D01*
X168452381Y-61066666D01*
X169452381Y-60066666D02*
X169452381Y-60638095D01*
X169452381Y-60352381D02*
X168452381Y-60352381D01*
X168595238Y-60447619D01*
X168690476Y-60542857D01*
X168738095Y-60638095D01*
X169452381Y-59114285D02*
X169452381Y-59685714D01*
X169452381Y-59400000D02*
X168452381Y-59400000D01*
X168595238Y-59495238D01*
X168690476Y-59590476D01*
X168738095Y-59685714D01*
X108452381Y-43214286D02*
X107452381Y-43214286D01*
X107452381Y-42833333D01*
X107500000Y-42738095D01*
X107547619Y-42690476D01*
X107642857Y-42642857D01*
X107785714Y-42642857D01*
X107880952Y-42690476D01*
X107928571Y-42738095D01*
X107976190Y-42833333D01*
X107976190Y-43214286D01*
X108452381Y-41690476D02*
X108452381Y-42261905D01*
X108452381Y-41976191D02*
X107452381Y-41976191D01*
X107595238Y-42071429D01*
X107690476Y-42166667D01*
X107738095Y-42261905D01*
X107452381Y-40785714D02*
X107452381Y-41261905D01*
X107928571Y-41309524D01*
X107880952Y-41261905D01*
X107833333Y-41166667D01*
X107833333Y-40928571D01*
X107880952Y-40833333D01*
X107928571Y-40785714D01*
X108023810Y-40738095D01*
X108261905Y-40738095D01*
X108357143Y-40785714D01*
X108404762Y-40833333D01*
X108452381Y-40928571D01*
X108452381Y-41166667D01*
X108404762Y-41261905D01*
X108357143Y-41309524D01*
X111872381Y-62779286D02*
X110872381Y-62779286D01*
X110872381Y-62398333D01*
X110920000Y-62303095D01*
X110967619Y-62255476D01*
X111062857Y-62207857D01*
X111205714Y-62207857D01*
X111300952Y-62255476D01*
X111348571Y-62303095D01*
X111396190Y-62398333D01*
X111396190Y-62779286D01*
X111872381Y-61255476D02*
X111872381Y-61826905D01*
X111872381Y-61541191D02*
X110872381Y-61541191D01*
X111015238Y-61636429D01*
X111110476Y-61731667D01*
X111158095Y-61826905D01*
X110872381Y-60398333D02*
X110872381Y-60588810D01*
X110920000Y-60684048D01*
X110967619Y-60731667D01*
X111110476Y-60826905D01*
X111300952Y-60874524D01*
X111681905Y-60874524D01*
X111777143Y-60826905D01*
X111824762Y-60779286D01*
X111872381Y-60684048D01*
X111872381Y-60493571D01*
X111824762Y-60398333D01*
X111777143Y-60350714D01*
X111681905Y-60303095D01*
X111443810Y-60303095D01*
X111348571Y-60350714D01*
X111300952Y-60398333D01*
X111253333Y-60493571D01*
X111253333Y-60684048D01*
X111300952Y-60779286D01*
X111348571Y-60826905D01*
X111443810Y-60874524D01*
X110838095Y-65747619D02*
X110885714Y-65700000D01*
X110980952Y-65652381D01*
X111219048Y-65652381D01*
X111314286Y-65700000D01*
X111361905Y-65747619D01*
X111409524Y-65842857D01*
X111409524Y-65938095D01*
X111361905Y-66080952D01*
X110790476Y-66652381D01*
X111409524Y-66652381D01*
X112361905Y-66652381D02*
X111790476Y-66652381D01*
X112076190Y-66652381D02*
X112076190Y-65652381D01*
X111980952Y-65795238D01*
X111885714Y-65890476D01*
X111790476Y-65938095D01*
X170857143Y-23142857D02*
X170904762Y-23190476D01*
X170952381Y-23333333D01*
X170952381Y-23428571D01*
X170904762Y-23571429D01*
X170809524Y-23666667D01*
X170714286Y-23714286D01*
X170523810Y-23761905D01*
X170380952Y-23761905D01*
X170190476Y-23714286D01*
X170095238Y-23666667D01*
X170000000Y-23571429D01*
X169952381Y-23428571D01*
X169952381Y-23333333D01*
X170000000Y-23190476D01*
X170047619Y-23142857D01*
X169952381Y-22809524D02*
X169952381Y-22190476D01*
X170333333Y-22523810D01*
X170333333Y-22380952D01*
X170380952Y-22285714D01*
X170428571Y-22238095D01*
X170523810Y-22190476D01*
X170761905Y-22190476D01*
X170857143Y-22238095D01*
X170904762Y-22285714D01*
X170952381Y-22380952D01*
X170952381Y-22666667D01*
X170904762Y-22761905D01*
X170857143Y-22809524D01*
X169952381Y-21571429D02*
X169952381Y-21476190D01*
X170000000Y-21380952D01*
X170047619Y-21333333D01*
X170142857Y-21285714D01*
X170333333Y-21238095D01*
X170571429Y-21238095D01*
X170761905Y-21285714D01*
X170857143Y-21333333D01*
X170904762Y-21380952D01*
X170952381Y-21476190D01*
X170952381Y-21571429D01*
X170904762Y-21666667D01*
X170857143Y-21714286D01*
X170761905Y-21761905D01*
X170571429Y-21809524D01*
X170333333Y-21809524D01*
X170142857Y-21761905D01*
X170047619Y-21714286D01*
X170000000Y-21666667D01*
X169952381Y-21571429D01*
X162107143Y-23571428D02*
X162107143Y-22428571D01*
X171107143Y-47571428D02*
X171107143Y-46428571D01*
X171678571Y-47000000D02*
X170535714Y-47000000D01*
M02*
