G04 #@! TF.FileFunction,Copper,L1,Top,Signal*
%FSLAX46Y46*%
G04 Gerber Fmt 4.6, Leading zero omitted, Abs format (unit mm)*
G04 Created by KiCad (PCBNEW 4.0.4-stable) date Friday, January 26, 2018 'AMt' 12:54:04 AM*
%MOMM*%
%LPD*%
G01*
G04 APERTURE LIST*
%ADD10C,0.100000*%
%ADD11R,0.900000X0.800000*%
%ADD12R,1.400000X1.650000*%
%ADD13R,0.760000X1.200000*%
%ADD14C,1.900000*%
%ADD15C,6.350000*%
%ADD16R,0.600000X0.500000*%
%ADD17R,0.500000X0.600000*%
%ADD18R,0.800000X0.800000*%
%ADD19R,0.800000X0.600000*%
%ADD20C,1.720000*%
%ADD21C,1.524000*%
%ADD22R,2.500000X2.000000*%
%ADD23R,2.300000X0.500000*%
%ADD24R,0.800000X0.900000*%
%ADD25R,0.400000X0.600000*%
%ADD26R,1.000000X3.200000*%
%ADD27R,0.600000X0.400000*%
%ADD28R,0.300000X1.550000*%
%ADD29R,1.550000X0.300000*%
%ADD30R,0.600000X1.050000*%
%ADD31R,1.200000X1.200000*%
%ADD32R,3.600000X1.200000*%
%ADD33R,0.450000X1.450000*%
%ADD34R,0.800000X0.500000*%
%ADD35R,1.000000X0.750000*%
%ADD36R,0.300000X0.550000*%
%ADD37R,0.550000X0.300000*%
%ADD38R,2.700000X2.700000*%
%ADD39R,5.500000X1.500000*%
%ADD40R,0.450000X1.150000*%
%ADD41R,0.600000X1.150000*%
%ADD42R,2.200000X2.300000*%
%ADD43R,2.000000X2.400000*%
%ADD44C,1.050000*%
%ADD45O,2.200000X1.950000*%
%ADD46O,2.000000X1.700000*%
%ADD47C,0.600000*%
%ADD48C,0.250000*%
%ADD49C,0.400000*%
%ADD50C,0.600000*%
%ADD51C,0.500000*%
G04 APERTURE END LIST*
D10*
D11*
X143500000Y-103000000D03*
X145500000Y-103960000D03*
X145500000Y-102050000D03*
D12*
X122750000Y-61025000D03*
X118250000Y-61025000D03*
X118250000Y-68975000D03*
X122750000Y-68975000D03*
D13*
X125365000Y-37880000D03*
X126635000Y-37880000D03*
X127905000Y-37880000D03*
X124095000Y-37880000D03*
X124095000Y-30800000D03*
X125365000Y-30800000D03*
X126635000Y-30800000D03*
X127905000Y-30800000D03*
D14*
X124000000Y-106000000D03*
X124000000Y-103460000D03*
X124000000Y-100920000D03*
D15*
X190810000Y-105090000D03*
D16*
X129425000Y-85000000D03*
X128375000Y-85000000D03*
D17*
X144875000Y-78950000D03*
X144875000Y-80000000D03*
X155850000Y-78975000D03*
X155850000Y-80025000D03*
X144000000Y-51025000D03*
X144000000Y-49975000D03*
X122000000Y-94475000D03*
X122000000Y-95525000D03*
D16*
X117025000Y-86500000D03*
X115975000Y-86500000D03*
X135025000Y-58800000D03*
X133975000Y-58800000D03*
X134625000Y-63050000D03*
X133575000Y-63050000D03*
D17*
X150600000Y-51025000D03*
X150600000Y-49975000D03*
D16*
X162975000Y-63600000D03*
X164025000Y-63600000D03*
X162975000Y-68000000D03*
X164025000Y-68000000D03*
D17*
X142000000Y-49975000D03*
X142000000Y-51025000D03*
D16*
X162500000Y-57750000D03*
X163550000Y-57750000D03*
X162975000Y-71200000D03*
X164025000Y-71200000D03*
D17*
X154150000Y-79925000D03*
X154150000Y-78875000D03*
X143375000Y-78950000D03*
X143375000Y-80000000D03*
D16*
X135025000Y-70000000D03*
X133975000Y-70000000D03*
X133200000Y-61275000D03*
X132150000Y-61275000D03*
X139475000Y-102000000D03*
X140525000Y-102000000D03*
X165595000Y-101460000D03*
X164545000Y-101460000D03*
D17*
X155000000Y-97050000D03*
X155000000Y-96000000D03*
D16*
X128525000Y-41000000D03*
X127475000Y-41000000D03*
X138525000Y-40900000D03*
X137475000Y-40900000D03*
X148525000Y-41000000D03*
X147475000Y-41000000D03*
X146475000Y-82000000D03*
X147525000Y-82000000D03*
X150875000Y-82000000D03*
X151925000Y-82000000D03*
X139475000Y-48000000D03*
X140525000Y-48000000D03*
X126975000Y-48250000D03*
X128025000Y-48250000D03*
X112525000Y-69000000D03*
X111475000Y-69000000D03*
X107325000Y-90500000D03*
X106275000Y-90500000D03*
D18*
X133000000Y-92800000D03*
X133000000Y-91200000D03*
D19*
X152550000Y-101000000D03*
X151450000Y-101000000D03*
D18*
X139000000Y-97800000D03*
X139000000Y-96200000D03*
X118910572Y-88603643D03*
X120510572Y-88603643D03*
X114600000Y-73400000D03*
X114600000Y-75000000D03*
D20*
X179980000Y-25710000D03*
X179980000Y-28250000D03*
X179980000Y-30790000D03*
X179980000Y-33330000D03*
X179980000Y-35870000D03*
X179980000Y-38410000D03*
X179980000Y-40950000D03*
X179980000Y-43490000D03*
X179980000Y-46030000D03*
X179980000Y-48570000D03*
X179980000Y-51110000D03*
X179980000Y-53650000D03*
X179980000Y-56190000D03*
X179980000Y-58730000D03*
X179980000Y-61270000D03*
X179980000Y-63810000D03*
X179980000Y-66350000D03*
X179980000Y-68890000D03*
X179980000Y-71430000D03*
X179980000Y-73970000D03*
X179980000Y-76510000D03*
X179980000Y-79050000D03*
X179980000Y-81590000D03*
X179980000Y-84130000D03*
X179980000Y-86670000D03*
X179980000Y-89210000D03*
X179980000Y-91750000D03*
X179980000Y-94290000D03*
X179980000Y-96830000D03*
X179980000Y-99370000D03*
X179980000Y-101910000D03*
X179980000Y-104450000D03*
X182520000Y-25710000D03*
X182520000Y-28250000D03*
X182520000Y-30790000D03*
X182520000Y-33330000D03*
X182520000Y-35870000D03*
X182520000Y-38410000D03*
X182520000Y-40950000D03*
X182520000Y-43490000D03*
X182520000Y-46030000D03*
X182520000Y-48570000D03*
X182520000Y-51110000D03*
X182520000Y-53650000D03*
X182520000Y-56190000D03*
X182520000Y-58730000D03*
X182520000Y-61270000D03*
X182520000Y-63810000D03*
X182520000Y-66350000D03*
X182520000Y-68890000D03*
X182520000Y-71430000D03*
X182520000Y-73970000D03*
X182520000Y-76510000D03*
X182520000Y-79050000D03*
X182520000Y-81590000D03*
X182520000Y-84130000D03*
X182520000Y-86670000D03*
X182520000Y-89210000D03*
X182520000Y-91750000D03*
X182520000Y-94290000D03*
X182520000Y-96830000D03*
X182520000Y-99370000D03*
X182520000Y-101910000D03*
X182520000Y-104450000D03*
D14*
X129630000Y-102120000D03*
X129630000Y-99580000D03*
X163000000Y-107000000D03*
X160460000Y-107000000D03*
X157920000Y-107000000D03*
X142760000Y-108010000D03*
X145300000Y-108010000D03*
X118270000Y-108000000D03*
X115730000Y-108000000D03*
D21*
X106000000Y-83200000D03*
X106000000Y-78800000D03*
D22*
X103050000Y-76550000D03*
X103050000Y-85450000D03*
X108550000Y-76550000D03*
X108550000Y-85450000D03*
D23*
X108550000Y-81000000D03*
X108550000Y-80200000D03*
X108550000Y-79400000D03*
X108550000Y-81800000D03*
X108550000Y-82600000D03*
D14*
X117500000Y-29520000D03*
X117500000Y-26980000D03*
X117500000Y-24440000D03*
X117500000Y-32060000D03*
X129460000Y-25000000D03*
X132000000Y-25000000D03*
X134540000Y-25000000D03*
X144120000Y-25000000D03*
X146660000Y-25000000D03*
X149200000Y-25000000D03*
X103000000Y-91230000D03*
X103000000Y-93770000D03*
X108250000Y-51520000D03*
X108250000Y-48980000D03*
D24*
X113000000Y-101000000D03*
X113960000Y-99000000D03*
X112050000Y-99000000D03*
X128780000Y-90200000D03*
X129740000Y-88200000D03*
X127830000Y-88200000D03*
D11*
X150000000Y-96000000D03*
X152000000Y-96960000D03*
X152000000Y-95050000D03*
X128000000Y-96000000D03*
X126000000Y-95040000D03*
X126000000Y-96950000D03*
D25*
X112900000Y-104000000D03*
X112000000Y-104000000D03*
X115850000Y-82400000D03*
X114950000Y-82400000D03*
D26*
X138100000Y-106000000D03*
X131900000Y-106000000D03*
D25*
X120000000Y-104000000D03*
X119100000Y-104000000D03*
D27*
X140000000Y-92600000D03*
X140000000Y-93500000D03*
X133000000Y-101000000D03*
X133000000Y-100100000D03*
D25*
X123675000Y-98600000D03*
X124575000Y-98600000D03*
X135000000Y-99000000D03*
X135900000Y-99000000D03*
X124100000Y-28000000D03*
X125000000Y-28000000D03*
X135550000Y-28000000D03*
X136450000Y-28000000D03*
X144550000Y-28000000D03*
X145450000Y-28000000D03*
D27*
X124310000Y-55220000D03*
X124310000Y-54320000D03*
D25*
X126270000Y-54330000D03*
X127170000Y-54330000D03*
D27*
X128100000Y-66425000D03*
X128100000Y-65525000D03*
D25*
X111800000Y-63500000D03*
X112700000Y-63500000D03*
D27*
X128510000Y-50500000D03*
X128510000Y-49600000D03*
D25*
X115850000Y-79700000D03*
X114950000Y-79700000D03*
D27*
X124500000Y-78050000D03*
X124500000Y-78950000D03*
D25*
X121450000Y-75500000D03*
X120550000Y-75500000D03*
X124450000Y-75500000D03*
X123550000Y-75500000D03*
X118650000Y-75500000D03*
X117750000Y-75500000D03*
X116260572Y-88603643D03*
X117160572Y-88603643D03*
X118600000Y-73500000D03*
X117700000Y-73500000D03*
D12*
X119750000Y-36025000D03*
X115250000Y-36025000D03*
X115250000Y-43975000D03*
X119750000Y-43975000D03*
D28*
X140250000Y-75700000D03*
X140750000Y-75700000D03*
X141250000Y-75700000D03*
X141750000Y-75700000D03*
X142250000Y-75700000D03*
X142750000Y-75700000D03*
X143250000Y-75700000D03*
X143750000Y-75700000D03*
X144250000Y-75700000D03*
X144750000Y-75700000D03*
X145250000Y-75700000D03*
X145750000Y-75700000D03*
X146250000Y-75700000D03*
X146750000Y-75700000D03*
X147250000Y-75700000D03*
X147750000Y-75700000D03*
X148250000Y-75700000D03*
X148750000Y-75700000D03*
X149250000Y-75700000D03*
X149750000Y-75700000D03*
X150250000Y-75700000D03*
X150750000Y-75700000D03*
X151250000Y-75700000D03*
X151750000Y-75700000D03*
X152250000Y-75700000D03*
X152750000Y-75700000D03*
X153250000Y-75700000D03*
X153750000Y-75700000D03*
X154250000Y-75700000D03*
X154750000Y-75700000D03*
X155250000Y-75700000D03*
X155750000Y-75700000D03*
X156250000Y-75700000D03*
X156750000Y-75700000D03*
X157250000Y-75700000D03*
X157750000Y-75700000D03*
D29*
X159700000Y-73750000D03*
X159700000Y-73250000D03*
X159700000Y-72750000D03*
X159700000Y-72250000D03*
X159700000Y-71750000D03*
X159700000Y-71250000D03*
X159700000Y-70750000D03*
X159700000Y-70250000D03*
X159700000Y-69750000D03*
X159700000Y-69250000D03*
X159700000Y-68750000D03*
X159700000Y-68250000D03*
X159700000Y-67750000D03*
X159700000Y-67250000D03*
X159700000Y-66750000D03*
X159700000Y-66250000D03*
X159700000Y-65750000D03*
X159700000Y-65250000D03*
X159700000Y-64750000D03*
X159700000Y-64250000D03*
X159700000Y-63750000D03*
X159700000Y-63250000D03*
X159700000Y-62750000D03*
X159700000Y-62250000D03*
X159700000Y-61750000D03*
X159700000Y-61250000D03*
X159700000Y-60750000D03*
X159700000Y-60250000D03*
X159700000Y-59750000D03*
X159700000Y-59250000D03*
X159700000Y-58750000D03*
X159700000Y-58250000D03*
X159700000Y-57750000D03*
X159700000Y-57250000D03*
X159700000Y-56750000D03*
X159700000Y-56250000D03*
D28*
X157750000Y-54300000D03*
X157250000Y-54300000D03*
X156750000Y-54300000D03*
X156250000Y-54300000D03*
X155750000Y-54300000D03*
X155250000Y-54300000D03*
X154750000Y-54300000D03*
X154250000Y-54300000D03*
X153750000Y-54300000D03*
X153250000Y-54300000D03*
X152750000Y-54300000D03*
X152250000Y-54300000D03*
X151750000Y-54300000D03*
X151250000Y-54300000D03*
X150750000Y-54300000D03*
X150250000Y-54300000D03*
X149750000Y-54300000D03*
X149250000Y-54300000D03*
X148750000Y-54300000D03*
X148250000Y-54300000D03*
X147750000Y-54300000D03*
X147250000Y-54300000D03*
X146750000Y-54300000D03*
X146250000Y-54300000D03*
X145750000Y-54300000D03*
X145250000Y-54300000D03*
X144750000Y-54300000D03*
X144250000Y-54300000D03*
X143750000Y-54300000D03*
X143250000Y-54300000D03*
X142750000Y-54300000D03*
X142250000Y-54300000D03*
X141750000Y-54300000D03*
X141250000Y-54300000D03*
X140750000Y-54300000D03*
X140250000Y-54300000D03*
D29*
X138300000Y-56250000D03*
X138300000Y-56750000D03*
X138300000Y-57250000D03*
X138300000Y-57750000D03*
X138300000Y-58250000D03*
X138300000Y-58750000D03*
X138300000Y-59250000D03*
X138300000Y-59750000D03*
X138300000Y-60250000D03*
X138300000Y-60750000D03*
X138300000Y-61250000D03*
X138300000Y-61750000D03*
X138300000Y-62250000D03*
X138300000Y-62750000D03*
X138300000Y-63250000D03*
X138300000Y-63750000D03*
X138300000Y-64250000D03*
X138300000Y-64750000D03*
X138300000Y-65250000D03*
X138300000Y-65750000D03*
X138300000Y-66250000D03*
X138300000Y-66750000D03*
X138300000Y-67250000D03*
X138300000Y-67750000D03*
X138300000Y-68250000D03*
X138300000Y-68750000D03*
X138300000Y-69250000D03*
X138300000Y-69750000D03*
X138300000Y-70250000D03*
X138300000Y-70750000D03*
X138300000Y-71250000D03*
X138300000Y-71750000D03*
X138300000Y-72250000D03*
X138300000Y-72750000D03*
X138300000Y-73250000D03*
X138300000Y-73750000D03*
D30*
X144050000Y-96350000D03*
X145000000Y-96350000D03*
X145950000Y-96350000D03*
X144050000Y-93650000D03*
X145950000Y-93650000D03*
D31*
X162000000Y-97050000D03*
X159700000Y-97050000D03*
X164300000Y-97050000D03*
D32*
X162000000Y-90950000D03*
D33*
X119325000Y-96800000D03*
X119975000Y-96800000D03*
X118675000Y-96800000D03*
X118025000Y-96800000D03*
X119975000Y-101200000D03*
X119325000Y-101200000D03*
X118675000Y-101200000D03*
X118025000Y-101200000D03*
D13*
X136365000Y-37780000D03*
X137635000Y-37780000D03*
X138905000Y-37780000D03*
X135095000Y-37780000D03*
X135095000Y-30700000D03*
X136365000Y-30700000D03*
X137635000Y-30700000D03*
X138905000Y-30700000D03*
X146365000Y-37780000D03*
X147635000Y-37780000D03*
X148905000Y-37780000D03*
X145095000Y-37780000D03*
X145095000Y-30700000D03*
X146365000Y-30700000D03*
X147635000Y-30700000D03*
X148905000Y-30700000D03*
D34*
X136100000Y-47000000D03*
X133900000Y-47000000D03*
X136100000Y-47800000D03*
X136100000Y-48600000D03*
X136100000Y-46200000D03*
X136100000Y-45400000D03*
X133900000Y-46200000D03*
X133900000Y-45400000D03*
X133900000Y-47800000D03*
X133900000Y-48600000D03*
D35*
X121700000Y-50250000D03*
X121700000Y-49300000D03*
X121700000Y-51200000D03*
X124300000Y-51200000D03*
X124300000Y-50250000D03*
X124300000Y-49300000D03*
D36*
X121125000Y-79275000D03*
X120475000Y-79275000D03*
X119825000Y-79275000D03*
X119175000Y-79275000D03*
D37*
X118275000Y-80175000D03*
X118275000Y-80825000D03*
X118275000Y-81475000D03*
X118275000Y-82125000D03*
D36*
X119175000Y-83025000D03*
X119825000Y-83025000D03*
X120475000Y-83025000D03*
X121125000Y-83025000D03*
D37*
X122025000Y-82125000D03*
X122025000Y-81475000D03*
X122025000Y-80825000D03*
X122025000Y-80175000D03*
D38*
X120150000Y-81150000D03*
D21*
X151825000Y-47800000D03*
X166800000Y-65200000D03*
X141200000Y-43600000D03*
X138600000Y-50200000D03*
X130600000Y-46000000D03*
X129250000Y-62020000D03*
X130410000Y-51900000D03*
X121000000Y-46250000D03*
D39*
X145000000Y-88000000D03*
X153500000Y-88000000D03*
D16*
X171000000Y-56850000D03*
X172050000Y-56850000D03*
D14*
X127270000Y-44250000D03*
X124730000Y-44250000D03*
D12*
X112250000Y-56475000D03*
X116750000Y-56475000D03*
X116750000Y-48525000D03*
X112250000Y-48525000D03*
D40*
X171725000Y-64175000D03*
D41*
X171000000Y-64175000D03*
D40*
X172375000Y-64175000D03*
D41*
X173100000Y-64175000D03*
X171000000Y-59825000D03*
D40*
X171725000Y-59825000D03*
X172375000Y-59825000D03*
D41*
X173100000Y-59825000D03*
D15*
X105080000Y-27620000D03*
X105080000Y-101280000D03*
X190810000Y-25080000D03*
D42*
X104000000Y-37450000D03*
X104000000Y-45350000D03*
D43*
X110500000Y-44800000D03*
X110500000Y-39400000D03*
D14*
X150000000Y-107270000D03*
X150000000Y-104730000D03*
D44*
X108270000Y-63540000D03*
X108270000Y-62270000D03*
X108270000Y-61000000D03*
X108270000Y-59730000D03*
X108270000Y-58460000D03*
X107000000Y-63540000D03*
X107000000Y-62270000D03*
X107000000Y-61000000D03*
X107000000Y-59730000D03*
X107000000Y-58460000D03*
D45*
X165000000Y-45000000D03*
X165000000Y-25000000D03*
D46*
X165000000Y-40000000D03*
X165000000Y-30000000D03*
D47*
X140410235Y-57091681D03*
X146087866Y-73408071D03*
X138178628Y-92536810D03*
X134900000Y-58070000D03*
X144825000Y-78000000D03*
X136991042Y-87990738D03*
X155150000Y-72300000D03*
X157150000Y-72300000D03*
X144462464Y-57078565D03*
X137000000Y-75000000D03*
X125000000Y-57000000D03*
X136293940Y-71085333D03*
X163809603Y-64627301D03*
X129765271Y-41473739D03*
X131561535Y-61932155D03*
X133239854Y-59167054D03*
X141006889Y-94057945D03*
X173340000Y-56080000D03*
X120676449Y-93648544D03*
X149452388Y-72607433D03*
X145520000Y-71690000D03*
X131300000Y-92190000D03*
X149370000Y-55660000D03*
X120300000Y-50230000D03*
X127490000Y-49350000D03*
X150160000Y-37790000D03*
X110430000Y-60040000D03*
X139893350Y-89442975D03*
X161810000Y-79750000D03*
X132650000Y-63050000D03*
X143150000Y-58900000D03*
X142200000Y-82025000D03*
X155950000Y-82425000D03*
X158250000Y-64375010D03*
X140204570Y-80911545D03*
X140874970Y-58016172D03*
X158000000Y-58000018D03*
X175000000Y-64000000D03*
X136000000Y-59000000D03*
X127691949Y-86808051D03*
X141000000Y-73974987D03*
X143949991Y-48600000D03*
X137000000Y-93000000D03*
X148000000Y-48000000D03*
X134000000Y-44000000D03*
X138500000Y-42000000D03*
X174500000Y-59799990D03*
X163459139Y-58884139D03*
X130000000Y-38000000D03*
X140500000Y-38000000D03*
X138500000Y-42000000D03*
X117000000Y-61000000D03*
X115500000Y-37500000D03*
X111500000Y-70000000D03*
X134000000Y-71000000D03*
X127500000Y-85000000D03*
X140500000Y-103000000D03*
X146500000Y-103000000D03*
X145000000Y-98000000D03*
X113650000Y-56400000D03*
X127280000Y-55500000D03*
X117000000Y-83000000D03*
X121125000Y-77000000D03*
X119500000Y-77000000D03*
X122207177Y-84458670D03*
X118002869Y-77729005D03*
X152691812Y-102932649D03*
X147840000Y-96010000D03*
X106250000Y-85250000D03*
X105500000Y-89500000D03*
X116000000Y-85500000D03*
X110458055Y-82008046D03*
X140458310Y-68760596D03*
X140965650Y-50725064D03*
X164832103Y-68449468D03*
X126341469Y-40908531D03*
X135708900Y-69158900D03*
X133034575Y-41034575D03*
X137685683Y-39182590D03*
X144070411Y-34933576D03*
X170067528Y-55380721D03*
X114258833Y-66762590D03*
X140705605Y-90219386D03*
X133925000Y-68250000D03*
X114000000Y-58654980D03*
X141800000Y-80275000D03*
X153034798Y-74063934D03*
X139862500Y-66403602D03*
X162000000Y-60000000D03*
X158283190Y-73581148D03*
X139000000Y-49000000D03*
X163000000Y-57000018D03*
X136000000Y-41000000D03*
X114000000Y-62000000D03*
X123048802Y-31185546D03*
X125500000Y-39000000D03*
X137590024Y-34989005D03*
X135500000Y-31750000D03*
X124041945Y-96573501D03*
X157345013Y-97158924D03*
X150780000Y-96800000D03*
X147646686Y-45642504D03*
X155867749Y-45594269D03*
X132700010Y-48295358D03*
X135679575Y-63928249D03*
X113248770Y-64296142D03*
X130775000Y-67450000D03*
X135759178Y-67299721D03*
X140000000Y-60000000D03*
X113000000Y-68000000D03*
X132870556Y-94849979D03*
X132869124Y-98328055D03*
X134105156Y-96287262D03*
X137669254Y-96625010D03*
X120290405Y-85816374D03*
X120500000Y-84000000D03*
X149318300Y-50672964D03*
X148524990Y-59055701D03*
X147224919Y-72369977D03*
X147260000Y-74070000D03*
X156124990Y-77511230D03*
X169720623Y-58733369D03*
X169633314Y-81166816D03*
X157775000Y-81150000D03*
X166488650Y-92754925D03*
X140345377Y-78123610D03*
X166566521Y-91958712D03*
X140336782Y-78930350D03*
X143388058Y-71911453D03*
X176491477Y-73927432D03*
X139750000Y-72875010D03*
X141169039Y-68198390D03*
X172478489Y-69969293D03*
X144768100Y-64312809D03*
X176975000Y-81600000D03*
X172701855Y-87660274D03*
X166450022Y-91167228D03*
X141135890Y-79142000D03*
X174150235Y-89791961D03*
X166531619Y-93553782D03*
X139434182Y-78024050D03*
X161881470Y-74267568D03*
X126956086Y-73112697D03*
X167466900Y-71109946D03*
X165671522Y-74999991D03*
X171451843Y-87729979D03*
X130750000Y-69950000D03*
X124600000Y-74400000D03*
X161602291Y-73358030D03*
X167933292Y-71759944D03*
X167933292Y-74810000D03*
X170035009Y-86785466D03*
X125400000Y-79000000D03*
X171750000Y-40213491D03*
X171325000Y-42150002D03*
X159434081Y-43915618D03*
X169521828Y-48130775D03*
X154275000Y-50000000D03*
X155225000Y-52325000D03*
X158401515Y-52290509D03*
X157799804Y-55925138D03*
X142357753Y-72311647D03*
X175925522Y-74529507D03*
X142378231Y-70508648D03*
X174925000Y-72900000D03*
X168436978Y-55065561D03*
X170325000Y-82499998D03*
X161550000Y-56550000D03*
X170106023Y-83752234D03*
X166425000Y-63087989D03*
X165350000Y-62125000D03*
X167733492Y-78308106D03*
X169690317Y-85252408D03*
X176475000Y-85950000D03*
X151800000Y-77675000D03*
X171285020Y-86843019D03*
X175897751Y-86880018D03*
X141036601Y-80035752D03*
X166350000Y-90350000D03*
X166942820Y-78186217D03*
X169531479Y-86160456D03*
X148355202Y-73974989D03*
X163325551Y-82950551D03*
X165190894Y-87764751D03*
X168074904Y-87358319D03*
X115430000Y-94290000D03*
X117500000Y-104500000D03*
X132721994Y-66650505D03*
X122010583Y-89255528D03*
X153471372Y-65534802D03*
X123000000Y-97000000D03*
X144000000Y-45000000D03*
X137000000Y-45000000D03*
X137260174Y-46640741D03*
X144299978Y-52364446D03*
X143829655Y-56111486D03*
X133683497Y-53129266D03*
X145079785Y-55574603D03*
X136269167Y-49800011D03*
X146671962Y-52024017D03*
X147623763Y-31916309D03*
X146641617Y-49441690D03*
X147000000Y-45000000D03*
X147000000Y-36000000D03*
X138000000Y-32000000D03*
X136000000Y-36000000D03*
X143000000Y-36000000D03*
X149773337Y-49147255D03*
X140500000Y-34250000D03*
X149000000Y-29250000D03*
X139000000Y-29250000D03*
X145787328Y-51601231D03*
X162354962Y-72236104D03*
X154941421Y-65899192D03*
X156475000Y-71125282D03*
X138775000Y-51912017D03*
X131452988Y-39282226D03*
X141750000Y-60225000D03*
X141700000Y-62175000D03*
X141345850Y-52425087D03*
X124000000Y-39250000D03*
X136200521Y-53654342D03*
X139082720Y-53854535D03*
X111852805Y-64612548D03*
X113300000Y-59325000D03*
X131518323Y-58605719D03*
X128430838Y-58636035D03*
X130409002Y-57071623D03*
X132992550Y-57049990D03*
X156091747Y-66537826D03*
X126000000Y-65575000D03*
X117950000Y-48525000D03*
X136703197Y-64849389D03*
X119975000Y-58600000D03*
X173350000Y-41125000D03*
X171891950Y-43666950D03*
X168675000Y-47825000D03*
X170368895Y-48598420D03*
X151760154Y-73389844D03*
X177719978Y-74447582D03*
X152575210Y-73409108D03*
X154825021Y-73661249D03*
X155426103Y-74189187D03*
D48*
X135916497Y-70250000D02*
X135435123Y-70731374D01*
X135435123Y-71410123D02*
X137275000Y-73250000D01*
X135435123Y-70731374D02*
X135435123Y-71410123D01*
X138300000Y-70250000D02*
X135916497Y-70250000D01*
X133349999Y-69500001D02*
X133349999Y-72259999D01*
X133974999Y-68875001D02*
X133349999Y-69500001D01*
X134615000Y-73525000D02*
X137000000Y-73525000D01*
X135108900Y-68875001D02*
X133974999Y-68875001D01*
X136384179Y-67599722D02*
X135108900Y-68875001D01*
X133349999Y-72259999D02*
X134615000Y-73525000D01*
X136384179Y-65446316D02*
X136384179Y-67599722D01*
X136078196Y-64446804D02*
X136078196Y-65140333D01*
X136078196Y-65140333D02*
X136384179Y-65446316D01*
X136425000Y-64100000D02*
X136078196Y-64446804D01*
X153500000Y-72388589D02*
X153500000Y-72618008D01*
X153066927Y-71955516D02*
X153500000Y-72388589D01*
X148700002Y-72434815D02*
X149179301Y-71955516D01*
X149179301Y-71955516D02*
X153066927Y-71955516D01*
X148700002Y-72899998D02*
X148700002Y-72434815D01*
X144454665Y-55766139D02*
X144454665Y-56525478D01*
X143750000Y-54300000D02*
X143750000Y-55325000D01*
X143750000Y-55325000D02*
X143911484Y-55486484D01*
X144454665Y-56525478D02*
X144462464Y-56533277D01*
X143911484Y-55486484D02*
X144175011Y-55486485D01*
X144175011Y-55486485D02*
X144454665Y-55766139D01*
X144462464Y-56533277D02*
X144462464Y-57078565D01*
X140410235Y-57551584D02*
X140410235Y-57515945D01*
X139211819Y-58750000D02*
X140410235Y-57551584D01*
X140410235Y-57515945D02*
X140410235Y-57091681D01*
X138300000Y-58750000D02*
X139211819Y-58750000D01*
X135025000Y-58800000D02*
X135025000Y-59300000D01*
X135025000Y-59300000D02*
X134525011Y-59799989D01*
X134525011Y-59799989D02*
X129861249Y-59799989D01*
X129861249Y-59799989D02*
X128630000Y-61031238D01*
X134900000Y-58070000D02*
X135130000Y-58300000D01*
X135130000Y-58300000D02*
X136825000Y-58300000D01*
X136825000Y-58300000D02*
X137275000Y-58750000D01*
X137275000Y-58750000D02*
X138300000Y-58750000D01*
X158378919Y-69750000D02*
X155466746Y-66837827D01*
X159700000Y-69750000D02*
X158378919Y-69750000D01*
X155466746Y-66837827D02*
X155466746Y-66240579D01*
X155466746Y-66240579D02*
X157782325Y-63925000D01*
X146387865Y-73108072D02*
X146087866Y-73408071D01*
X146500950Y-72994987D02*
X146387865Y-73108072D01*
X148605013Y-72994987D02*
X146500950Y-72994987D01*
X148700002Y-72899998D02*
X148605013Y-72994987D01*
X138241818Y-92600000D02*
X138178628Y-92536810D01*
X140000000Y-92600000D02*
X138241818Y-92600000D01*
X136991042Y-87990738D02*
X136991042Y-75008958D01*
X136991042Y-75008958D02*
X137000000Y-75000000D01*
X128728239Y-60932999D02*
X128630000Y-61031238D01*
X128630000Y-61031238D02*
X128162999Y-61498239D01*
X134900000Y-58070000D02*
X134900000Y-58675000D01*
X134900000Y-58675000D02*
X135025000Y-58800000D01*
X124310000Y-55220000D02*
X124310000Y-56310000D01*
X124310000Y-56310000D02*
X125000000Y-57000000D01*
X148250000Y-75700000D02*
X148250000Y-74675000D01*
X148684505Y-74599999D02*
X148980212Y-74304292D01*
X148250000Y-74675000D02*
X148325001Y-74599999D01*
X148325001Y-74599999D02*
X148684505Y-74599999D01*
X148980212Y-74304292D02*
X148980212Y-73315216D01*
X148980212Y-73315216D02*
X148700002Y-73035006D01*
X148700002Y-73035006D02*
X148700002Y-72899998D01*
X134625000Y-63550000D02*
X134625000Y-63050000D01*
X134499998Y-63675002D02*
X134625000Y-63550000D01*
X132349998Y-63675002D02*
X134499998Y-63675002D01*
X132299997Y-63625001D02*
X132349998Y-63675002D01*
X128750001Y-63625001D02*
X132299997Y-63625001D01*
X128162999Y-63037999D02*
X128750001Y-63625001D01*
X128162999Y-61498239D02*
X128162999Y-63037999D01*
X136425000Y-63625000D02*
X135850000Y-63050000D01*
X135850000Y-63050000D02*
X134625000Y-63050000D01*
X137275000Y-63250000D02*
X136425000Y-64100000D01*
X136425000Y-64100000D02*
X136425000Y-63625000D01*
X157600000Y-64107325D02*
X157782325Y-63925000D01*
X157782325Y-63925000D02*
X157958375Y-63748950D01*
X150600000Y-53125000D02*
X150750000Y-53275000D01*
X150600000Y-51025000D02*
X150600000Y-53125000D01*
X144825000Y-78000000D02*
X144825000Y-78900000D01*
X144825000Y-78900000D02*
X144875000Y-78950000D01*
X154200011Y-74013909D02*
X154250000Y-74063898D01*
X154250000Y-74063898D02*
X154250000Y-74675000D01*
X154250000Y-74675000D02*
X154250000Y-75700000D01*
X153500000Y-72618008D02*
X154200011Y-73318019D01*
X154200011Y-73318019D02*
X154200011Y-74013909D01*
X153500000Y-72618008D02*
X154831992Y-72618008D01*
X154831992Y-72618008D02*
X155150000Y-72300000D01*
X155150000Y-72300000D02*
X155150000Y-72305322D01*
X154250000Y-75700000D02*
X154250000Y-76725000D01*
X154250000Y-76725000D02*
X155850000Y-78325000D01*
X155850000Y-78325000D02*
X155850000Y-78425000D01*
X155850000Y-78425000D02*
X155850000Y-78975000D01*
X159700000Y-68250000D02*
X158675000Y-68250000D01*
X158675000Y-68250000D02*
X157600000Y-67175000D01*
X157600000Y-67175000D02*
X157600000Y-64107325D01*
X157958375Y-63748950D02*
X157959425Y-63750000D01*
X157959425Y-63750000D02*
X159700000Y-63750000D01*
X160374999Y-68000000D02*
X160275000Y-68000000D01*
X162975000Y-68000000D02*
X160374999Y-68000000D01*
X129740000Y-88200000D02*
X136781780Y-88200000D01*
X136781780Y-88200000D02*
X136991042Y-87990738D01*
X157275002Y-72225002D02*
X157224998Y-72225002D01*
X157224998Y-72225002D02*
X157150000Y-72300000D01*
X157275002Y-70424996D02*
X157275002Y-72225002D01*
X159700000Y-69750000D02*
X157949998Y-69750000D01*
X157949998Y-69750000D02*
X157275002Y-70424996D01*
X150750000Y-55325000D02*
X148491762Y-57583238D01*
X144967137Y-57583238D02*
X144762463Y-57378564D01*
X148491762Y-57583238D02*
X144967137Y-57583238D01*
X144762463Y-57378564D02*
X144462464Y-57078565D01*
X150750000Y-54300000D02*
X150750000Y-55325000D01*
X150750000Y-53275000D02*
X150750000Y-54300000D01*
X143750000Y-52739470D02*
X143750000Y-53275000D01*
X143500000Y-52489470D02*
X143750000Y-52739470D01*
X144000000Y-51075000D02*
X143500000Y-51575000D01*
X143500000Y-51575000D02*
X143500000Y-52489470D01*
X143750000Y-53275000D02*
X143750000Y-54300000D01*
X144000000Y-51025000D02*
X144000000Y-51075000D01*
X135025000Y-58800000D02*
X135075000Y-58800000D01*
X137000000Y-75000000D02*
X137000000Y-73525000D01*
X137000000Y-73525000D02*
X137275000Y-73250000D01*
D49*
X129740000Y-88250000D02*
X129740000Y-88200000D01*
X122650000Y-94475000D02*
X127775001Y-89349999D01*
X122000000Y-94475000D02*
X122650000Y-94475000D01*
X127775001Y-89349999D02*
X128640001Y-89349999D01*
X128640001Y-89349999D02*
X129740000Y-88250000D01*
D48*
X138300000Y-73250000D02*
X137275000Y-73250000D01*
X160275000Y-68000000D02*
X159950000Y-68000000D01*
X159700000Y-67750000D02*
X160025000Y-67750000D01*
X160025000Y-67750000D02*
X160275000Y-68000000D01*
X159950000Y-68000000D02*
X159700000Y-68250000D01*
X159700000Y-63750000D02*
X162825000Y-63750000D01*
X162825000Y-63750000D02*
X162975000Y-63600000D01*
D49*
X144050000Y-93650000D02*
X143350000Y-93650000D01*
X140700000Y-92600000D02*
X140000000Y-92600000D01*
X143350000Y-93650000D02*
X142300000Y-92600000D01*
X142300000Y-92600000D02*
X140700000Y-92600000D01*
X129425000Y-85000000D02*
X129425000Y-87885000D01*
X129425000Y-87885000D02*
X129740000Y-88200000D01*
D48*
X137275000Y-63250000D02*
X138300000Y-63250000D01*
X136593939Y-70785334D02*
X136293940Y-71085333D01*
X136629273Y-70750000D02*
X136593939Y-70785334D01*
X138300000Y-70750000D02*
X136629273Y-70750000D01*
D49*
X162109999Y-79450001D02*
X161810000Y-79750000D01*
X162580608Y-78979392D02*
X162109999Y-79450001D01*
X164025000Y-71200000D02*
X164025000Y-72902070D01*
X164025000Y-72902070D02*
X162580608Y-74346462D01*
X162580608Y-74346462D02*
X162580608Y-78979392D01*
X165532105Y-68785470D02*
X164025000Y-70292574D01*
X164025000Y-68000000D02*
X164075000Y-68000000D01*
X164075000Y-68000000D02*
X164725000Y-67350000D01*
X164725000Y-67350000D02*
X164768639Y-67350000D01*
X164768639Y-67350000D02*
X165532105Y-68113466D01*
X165532105Y-68113466D02*
X165532105Y-68785470D01*
X164025000Y-70292574D02*
X164025000Y-70550000D01*
X164025000Y-70550000D02*
X164025000Y-71200000D01*
X164025000Y-64411904D02*
X163809603Y-64627301D01*
X164025000Y-63600000D02*
X164025000Y-64411904D01*
X128525000Y-41000000D02*
X129291532Y-41000000D01*
X129291532Y-41000000D02*
X129465272Y-41173740D01*
X129465272Y-41173740D02*
X129765271Y-41473739D01*
D48*
X138500000Y-42000000D02*
X139679648Y-43179648D01*
X139679648Y-43179648D02*
X139679648Y-47118234D01*
X139679648Y-47118234D02*
X140525000Y-47963586D01*
X140525000Y-47963586D02*
X140525000Y-48000000D01*
X143150000Y-58475736D02*
X143150000Y-58900000D01*
X143250000Y-54300000D02*
X143250000Y-55325000D01*
X143250000Y-55325000D02*
X143150000Y-55425000D01*
X143150000Y-55425000D02*
X143150000Y-58475736D01*
X148000000Y-48000000D02*
X150171829Y-48000000D01*
X150171829Y-48000000D02*
X150600000Y-48428171D01*
X150600000Y-48428171D02*
X150600000Y-49975000D01*
X132150000Y-61275000D02*
X132100000Y-61275000D01*
X133975000Y-58800000D02*
X133425000Y-58800000D01*
X132100000Y-61275000D02*
X131561535Y-61813465D01*
X131561535Y-61813465D02*
X131561535Y-61932155D01*
X133239854Y-58985146D02*
X133239854Y-59167054D01*
X133425000Y-58800000D02*
X133239854Y-58985146D01*
X162109999Y-80049999D02*
X161810000Y-79750000D01*
X164196838Y-82136838D02*
X162109999Y-80049999D01*
X164196838Y-83983162D02*
X164196838Y-82136838D01*
X164120000Y-84060000D02*
X164196838Y-83983162D01*
X158210000Y-82880000D02*
X162310000Y-82880000D01*
X156750000Y-81420000D02*
X158210000Y-82880000D01*
X156750000Y-77200000D02*
X156750000Y-81420000D01*
X163490000Y-84060000D02*
X164120000Y-84060000D01*
X162310000Y-82880000D02*
X163490000Y-84060000D01*
X140657945Y-94057945D02*
X141006889Y-94057945D01*
X140100000Y-93500000D02*
X140657945Y-94057945D01*
X140000000Y-93500000D02*
X140100000Y-93500000D01*
X150250000Y-53411411D02*
X149996835Y-53158246D01*
X149996835Y-50078165D02*
X150100000Y-49975000D01*
X149996835Y-53158246D02*
X149996835Y-50078165D01*
X150250000Y-54300000D02*
X150250000Y-53411411D01*
D49*
X172050000Y-56850000D02*
X172570000Y-56850000D01*
X172570000Y-56850000D02*
X173340000Y-56080000D01*
X171725000Y-59825000D02*
X171725000Y-57175000D01*
X171725000Y-57175000D02*
X172050000Y-56850000D01*
X120976448Y-93948543D02*
X120676449Y-93648544D01*
X121304032Y-94276127D02*
X120976448Y-93948543D01*
X121304032Y-94909335D02*
X121304032Y-94276127D01*
X121919697Y-95525000D02*
X121304032Y-94909335D01*
X122000000Y-95525000D02*
X121919697Y-95525000D01*
X126000000Y-96469266D02*
X125055734Y-95525000D01*
X126000000Y-96950000D02*
X126000000Y-96469266D01*
X125055734Y-95525000D02*
X124525000Y-95525000D01*
D48*
X149752387Y-72907432D02*
X149452388Y-72607433D01*
X149819955Y-72975000D02*
X149752387Y-72907432D01*
X150250000Y-72975000D02*
X149819955Y-72975000D01*
X145250000Y-75700000D02*
X145250000Y-71960000D01*
X145250000Y-71960000D02*
X145520000Y-71690000D01*
D49*
X124525000Y-95525000D02*
X124525000Y-94944998D01*
X127279998Y-92190000D02*
X131300000Y-92190000D01*
X124525000Y-94944998D02*
X127279998Y-92190000D01*
D48*
X150250000Y-54300000D02*
X150250000Y-55188590D01*
X150250000Y-55188590D02*
X149778590Y-55660000D01*
X149778590Y-55660000D02*
X149370000Y-55660000D01*
X121700000Y-50250000D02*
X120320000Y-50250000D01*
X120320000Y-50250000D02*
X120300000Y-50230000D01*
X128025000Y-49115000D02*
X127725000Y-49115000D01*
X127725000Y-49115000D02*
X127490000Y-49350000D01*
X128025000Y-48250000D02*
X128025000Y-49115000D01*
X128025000Y-49115000D02*
X128510000Y-49600000D01*
X138300000Y-73750000D02*
X140039932Y-73750000D01*
X140039932Y-73750000D02*
X140289932Y-74000000D01*
X140289932Y-74000000D02*
X141000000Y-74000000D01*
X141000000Y-74000000D02*
X141000000Y-73974987D01*
X139700000Y-69724993D02*
X139700000Y-70375000D01*
X139700000Y-70375000D02*
X139325000Y-70750000D01*
X139325000Y-70750000D02*
X138300000Y-70750000D01*
X138300000Y-69250000D02*
X139225007Y-69250000D01*
X139225007Y-69250000D02*
X139700000Y-69724993D01*
X148905000Y-37780000D02*
X148905000Y-40620000D01*
X148905000Y-40620000D02*
X148525000Y-41000000D01*
X148905000Y-37780000D02*
X150150000Y-37780000D01*
X150150000Y-37780000D02*
X150160000Y-37790000D01*
D49*
X108270000Y-62270000D02*
X108270000Y-61000000D01*
X108270000Y-61000000D02*
X109470000Y-61000000D01*
X109470000Y-61000000D02*
X110430000Y-60040000D01*
D48*
X139593351Y-89742974D02*
X139893350Y-89442975D01*
X137000000Y-92336325D02*
X139593351Y-89742974D01*
X137000000Y-93000000D02*
X137000000Y-92336325D01*
D49*
X124525000Y-95525000D02*
X122650000Y-95525000D01*
X122650000Y-95525000D02*
X122000000Y-95525000D01*
D48*
X164025000Y-68000000D02*
X164025000Y-67500000D01*
X164025000Y-67500000D02*
X163775000Y-67250000D01*
X163775000Y-67250000D02*
X160725000Y-67250000D01*
X160725000Y-67250000D02*
X159700000Y-67250000D01*
X142500000Y-49975000D02*
X144000000Y-49975000D01*
X159700000Y-70750000D02*
X158553587Y-70750000D01*
X153250000Y-75700000D02*
X153250000Y-76725000D01*
X153250000Y-76725000D02*
X153750000Y-77225000D01*
X153750000Y-77225000D02*
X153750000Y-77339998D01*
X153750000Y-73600000D02*
X153750000Y-75700000D01*
X153250000Y-75700000D02*
X153750000Y-75700000D01*
X150250000Y-75700000D02*
X150250000Y-72975000D01*
X152675000Y-72525000D02*
X153750000Y-73600000D01*
X150250000Y-72975000D02*
X150700000Y-72525000D01*
X150700000Y-72525000D02*
X152675000Y-72525000D01*
X156750000Y-77200000D02*
X156750000Y-79625000D01*
X156750000Y-75700000D02*
X156750000Y-77200000D01*
X142000000Y-49975000D02*
X142500000Y-49975000D01*
X138300000Y-62500000D02*
X138300000Y-62750000D01*
X133650001Y-62474999D02*
X133575000Y-62550000D01*
X138300000Y-62250000D02*
X138300000Y-62500000D01*
X138300000Y-62500000D02*
X138274999Y-62474999D01*
X138274999Y-62474999D02*
X133650001Y-62474999D01*
X133575000Y-62550000D02*
X133575000Y-63050000D01*
X133575000Y-63050000D02*
X132650000Y-63050000D01*
X142750000Y-54300000D02*
X143250000Y-54300000D01*
X142900012Y-54149988D02*
X142750000Y-54300000D01*
X128025000Y-48250000D02*
X128025000Y-47725000D01*
X128025000Y-47725000D02*
X127565000Y-47265000D01*
X127565000Y-47265000D02*
X124685000Y-47265000D01*
X124685000Y-47265000D02*
X122525001Y-49424999D01*
X122525001Y-49424999D02*
X122525001Y-50174999D01*
X122525001Y-50174999D02*
X122450000Y-50250000D01*
X122450000Y-50250000D02*
X121700000Y-50250000D01*
D49*
X133900000Y-45400000D02*
X133750000Y-45400000D01*
D48*
X150100000Y-49975000D02*
X150025000Y-50050000D01*
X150600000Y-49975000D02*
X150100000Y-49975000D01*
X143375000Y-80050000D02*
X143375000Y-80000000D01*
X142513455Y-80911545D02*
X143375000Y-80050000D01*
X141963455Y-80911545D02*
X142513455Y-80911545D01*
X141963455Y-80911545D02*
X141963455Y-81788455D01*
X141963455Y-81788455D02*
X142200000Y-82025000D01*
X140204570Y-80911545D02*
X141963455Y-80911545D01*
X144875000Y-80000000D02*
X143375000Y-80000000D01*
X145575000Y-79800000D02*
X145575000Y-77050000D01*
X145575000Y-77050000D02*
X145250000Y-76725000D01*
X144875000Y-80000000D02*
X145375000Y-80000000D01*
X145375000Y-80000000D02*
X145575000Y-79800000D01*
X155850000Y-80025000D02*
X155850000Y-82325000D01*
X155850000Y-82325000D02*
X155950000Y-82425000D01*
X154150000Y-79925000D02*
X155750000Y-79925000D01*
X155750000Y-79925000D02*
X155850000Y-80025000D01*
X156750000Y-79625000D02*
X156350000Y-80025000D01*
X156350000Y-80025000D02*
X155850000Y-80025000D01*
X154900000Y-78489998D02*
X154900000Y-79675000D01*
X154900000Y-79675000D02*
X154650000Y-79925000D01*
X154650000Y-79925000D02*
X154150000Y-79925000D01*
X153750000Y-77339998D02*
X154900000Y-78489998D01*
X158375010Y-64250000D02*
X158250000Y-64375010D01*
X159700000Y-64250000D02*
X158375010Y-64250000D01*
X159700000Y-68750000D02*
X163360002Y-68750000D01*
X163360002Y-68750000D02*
X164025000Y-68085002D01*
X164025000Y-68085002D02*
X164025000Y-68000000D01*
X139641142Y-59250000D02*
X140574971Y-58316171D01*
X138300000Y-59250000D02*
X139641142Y-59250000D01*
X140574971Y-58316171D02*
X140874970Y-58016172D01*
X156993748Y-74431252D02*
X157021101Y-74431252D01*
X156750000Y-74675000D02*
X156993748Y-74431252D01*
X157021101Y-74006988D02*
X157021101Y-74431252D01*
X157021101Y-73959339D02*
X157021101Y-74006988D01*
X158075013Y-71500013D02*
X158075013Y-72905427D01*
X158075013Y-72905427D02*
X157021101Y-73959339D01*
X158000000Y-71425000D02*
X158075013Y-71500013D01*
X156750000Y-75700000D02*
X156750000Y-74675000D01*
D49*
X164025000Y-68000000D02*
X163971617Y-67946617D01*
D48*
X158553587Y-70750000D02*
X158000000Y-71303587D01*
X158000000Y-71303587D02*
X158000000Y-71425000D01*
X158249982Y-58250000D02*
X158000000Y-58000018D01*
X159700000Y-58250000D02*
X158249982Y-58250000D01*
X173100000Y-64175000D02*
X174825000Y-64175000D01*
X174825000Y-64175000D02*
X175000000Y-64000000D01*
X172375000Y-59825000D02*
X173100000Y-59825000D01*
X136250000Y-59250000D02*
X136000000Y-59000000D01*
X138300000Y-59250000D02*
X136250000Y-59250000D01*
X145250000Y-75700000D02*
X145250000Y-76725000D01*
D49*
X127830000Y-86946102D02*
X127691949Y-86808051D01*
X127830000Y-88200000D02*
X127830000Y-86946102D01*
D48*
X144000000Y-48650009D02*
X143949991Y-48600000D01*
X144000000Y-49975000D02*
X144000000Y-48650009D01*
X133900000Y-45400000D02*
X133900000Y-44100000D01*
X133900000Y-44100000D02*
X134000000Y-44000000D01*
X158250000Y-70250000D02*
X158000000Y-70500000D01*
X158000000Y-70500000D02*
X158000000Y-71425000D01*
X159700000Y-70250000D02*
X158250000Y-70250000D01*
D49*
X174474990Y-59825000D02*
X174500000Y-59799990D01*
X173100000Y-59825000D02*
X174474990Y-59825000D01*
X173100012Y-64175012D02*
X173100012Y-64449991D01*
X173100000Y-64175000D02*
X173100012Y-64175012D01*
D48*
X171725000Y-59825000D02*
X172375000Y-59825000D01*
X159700000Y-58250000D02*
X159700000Y-58750000D01*
D49*
X145550000Y-102050000D02*
X146500000Y-103000000D01*
X127905000Y-37880000D02*
X129880000Y-37880000D01*
X129880000Y-37880000D02*
X130000000Y-38000000D01*
X138905000Y-37780000D02*
X140280000Y-37780000D01*
X140280000Y-37780000D02*
X140500000Y-38000000D01*
X138525000Y-40900000D02*
X138525000Y-41975000D01*
X138525000Y-41975000D02*
X138500000Y-42000000D01*
X163550000Y-57750000D02*
X163550000Y-58925000D01*
X118250000Y-61025000D02*
X117025000Y-61025000D01*
X117025000Y-61025000D02*
X117000000Y-61000000D01*
X115250000Y-36025000D02*
X115250000Y-37250000D01*
X115250000Y-37250000D02*
X115500000Y-37500000D01*
X111475000Y-69000000D02*
X111475000Y-69975000D01*
X111475000Y-69975000D02*
X111500000Y-70000000D01*
X133975000Y-70000000D02*
X133975000Y-70975000D01*
X133975000Y-70975000D02*
X134000000Y-71000000D01*
X128375000Y-85000000D02*
X127500000Y-85000000D01*
X140525000Y-102000000D02*
X140525000Y-102975000D01*
X140525000Y-102975000D02*
X140500000Y-103000000D01*
X146450000Y-103050000D02*
X146500000Y-103000000D01*
X145000000Y-96350000D02*
X145000000Y-98000000D01*
X150000000Y-104730000D02*
X150770000Y-104730000D01*
D48*
X112250000Y-56475000D02*
X113575000Y-56475000D01*
X113575000Y-56475000D02*
X113650000Y-56400000D01*
X127170000Y-54330000D02*
X127170000Y-55390000D01*
X127170000Y-55390000D02*
X127280000Y-55500000D01*
X143250000Y-53675000D02*
X143250000Y-54300000D01*
X117424264Y-83000000D02*
X117000000Y-83000000D01*
X118250000Y-83000000D02*
X117424264Y-83000000D01*
X118500000Y-82750000D02*
X118250000Y-83000000D01*
X117025000Y-83025000D02*
X117000000Y-83000000D01*
X117025000Y-86500000D02*
X117025000Y-83025000D01*
X117025000Y-86500000D02*
X116260572Y-87264428D01*
X116260572Y-87264428D02*
X116260572Y-88603643D01*
X118275000Y-82525000D02*
X118500000Y-82750000D01*
X118500000Y-82750000D02*
X118750000Y-83000000D01*
X118750000Y-83000000D02*
X118775000Y-83025000D01*
X118275000Y-82125000D02*
X118275000Y-82525000D01*
X118775000Y-83025000D02*
X119175000Y-83025000D01*
X121125000Y-77000000D02*
X121125000Y-79275000D01*
X121125000Y-75825000D02*
X121125000Y-77000000D01*
X118650000Y-75500000D02*
X118650000Y-76150000D01*
X118650000Y-76150000D02*
X119500000Y-77000000D01*
X118600000Y-73500000D02*
X118600000Y-75450000D01*
X118600000Y-75450000D02*
X118650000Y-75500000D01*
X123924999Y-74874999D02*
X124450000Y-75400000D01*
X121450000Y-75500000D02*
X121900000Y-75500000D01*
X121900000Y-75500000D02*
X122525001Y-74874999D01*
X124450000Y-75400000D02*
X124450000Y-75500000D01*
X122525001Y-74874999D02*
X123924999Y-74874999D01*
X121125000Y-75825000D02*
X121450000Y-75500000D01*
X124450000Y-75500000D02*
X124450000Y-78000000D01*
X124450000Y-78000000D02*
X124500000Y-78050000D01*
X122207177Y-84034406D02*
X122207177Y-84458670D01*
X122207177Y-83207177D02*
X122207177Y-84034406D01*
X120150000Y-81150000D02*
X122207177Y-83207177D01*
X118427133Y-77729005D02*
X118002869Y-77729005D01*
X118804005Y-77729005D02*
X118427133Y-77729005D01*
X119825000Y-79275000D02*
X119825000Y-78750000D01*
X119825000Y-78750000D02*
X118804005Y-77729005D01*
D49*
X151450000Y-101700000D02*
X152682649Y-102932649D01*
X151450000Y-101000000D02*
X151450000Y-101700000D01*
X152682649Y-102932649D02*
X152691812Y-102932649D01*
X150000000Y-96000000D02*
X147850000Y-96000000D01*
X147850000Y-96000000D02*
X147840000Y-96010000D01*
D48*
X120150000Y-81150000D02*
X121000000Y-82000000D01*
X120150000Y-81150000D02*
X121125000Y-82125000D01*
X121125000Y-82125000D02*
X122025000Y-82125000D01*
X119825000Y-79275000D02*
X119825000Y-80825000D01*
X119825000Y-80825000D02*
X120150000Y-81150000D01*
X108550000Y-82600000D02*
X107650000Y-82600000D01*
X107650000Y-82600000D02*
X107150000Y-83100000D01*
X107150000Y-83100000D02*
X107150000Y-84000000D01*
X107150000Y-84000000D02*
X106250000Y-84900000D01*
X106250000Y-84900000D02*
X106250000Y-85250000D01*
D49*
X179930000Y-104500000D02*
X179980000Y-104450000D01*
X151450000Y-101000000D02*
X151450000Y-100300000D01*
X151450000Y-100300000D02*
X150000000Y-98850000D01*
X150000000Y-98850000D02*
X150000000Y-96800000D01*
X150000000Y-96800000D02*
X150000000Y-96000000D01*
X106275000Y-90500000D02*
X106275000Y-90275000D01*
X106275000Y-90275000D02*
X105500000Y-89500000D01*
D48*
X115975000Y-86500000D02*
X115975000Y-85525000D01*
X115975000Y-85525000D02*
X116000000Y-85500000D01*
D49*
X110158056Y-82308045D02*
X110458055Y-82008046D01*
X108550000Y-82600000D02*
X109866101Y-82600000D01*
X109866101Y-82600000D02*
X110158056Y-82308045D01*
X179980000Y-25710000D02*
X179980000Y-28250000D01*
X182520000Y-25710000D02*
X179980000Y-25710000D01*
D48*
X135025000Y-70000000D02*
X135275000Y-69750000D01*
X135275000Y-69750000D02*
X135825000Y-69750000D01*
X144750000Y-75700000D02*
X144750000Y-70750000D01*
X143060595Y-69060595D02*
X140758309Y-69060595D01*
X140758309Y-69060595D02*
X140458310Y-68760596D01*
X138300000Y-68750000D02*
X140447714Y-68750000D01*
X144750000Y-70750000D02*
X143060595Y-69060595D01*
X140447714Y-68750000D02*
X140458310Y-68760596D01*
X141265586Y-51025000D02*
X140965650Y-50725064D01*
X142000000Y-51025000D02*
X141265586Y-51025000D01*
X142500000Y-51575000D02*
X142500000Y-53142351D01*
X142000000Y-51075000D02*
X142500000Y-51575000D01*
X142500000Y-53142351D02*
X142250000Y-53392351D01*
X142000000Y-51025000D02*
X142000000Y-51075000D01*
X142250000Y-53392351D02*
X142250000Y-54300000D01*
X164532104Y-68749467D02*
X164832103Y-68449468D01*
X162975000Y-71200000D02*
X162975000Y-70306571D01*
X162975000Y-70306571D02*
X164532104Y-68749467D01*
X128698230Y-42223230D02*
X131845920Y-42223230D01*
X131845920Y-42223230D02*
X132734576Y-41334574D01*
X132734576Y-41334574D02*
X133034575Y-41034575D01*
X127475000Y-41000000D02*
X128698230Y-42223230D01*
X137475000Y-40900000D02*
X137475000Y-43913585D01*
X137475000Y-43913585D02*
X138925000Y-45363585D01*
X138925000Y-45363585D02*
X138925000Y-47500000D01*
X138925000Y-47500000D02*
X139425000Y-48000000D01*
X139425000Y-48000000D02*
X139475000Y-48000000D01*
X133680194Y-65900194D02*
X134292088Y-66512088D01*
X134292088Y-66512088D02*
X134292088Y-67882912D01*
X132505617Y-65900194D02*
X133680194Y-65900194D01*
X128100000Y-66425000D02*
X131980811Y-66425000D01*
X134292088Y-67882912D02*
X134224999Y-67950001D01*
X134224999Y-67950001D02*
X133925000Y-68250000D01*
X131980811Y-66425000D02*
X132505617Y-65900194D01*
X126432938Y-41000000D02*
X126341469Y-40908531D01*
X127475000Y-41000000D02*
X126432938Y-41000000D01*
X139325000Y-61750000D02*
X141150002Y-61750000D01*
X141150002Y-61750000D02*
X142375001Y-60525001D01*
X142375001Y-60525001D02*
X142375001Y-55450001D01*
X142375001Y-55450001D02*
X142250000Y-55325000D01*
X142250000Y-55325000D02*
X142250000Y-54300000D01*
X135708900Y-69366100D02*
X135708900Y-69158900D01*
X135075000Y-70000000D02*
X135708900Y-69366100D01*
X135025000Y-70000000D02*
X135075000Y-70000000D01*
X138300000Y-61750000D02*
X136350000Y-61750000D01*
X136350000Y-61750000D02*
X135875000Y-61275000D01*
X135875000Y-61275000D02*
X133200000Y-61275000D01*
D49*
X146300000Y-100000000D02*
X147200001Y-100900001D01*
X147200001Y-100900001D02*
X147200001Y-103336001D01*
X147200001Y-103336001D02*
X146576002Y-103960000D01*
X146576002Y-103960000D02*
X146000000Y-103960000D01*
X157920000Y-107000000D02*
X160700001Y-104219999D01*
X155969988Y-103075172D02*
X151775160Y-107270000D01*
X160700001Y-104219999D02*
X160700001Y-95889905D01*
X160700001Y-95889905D02*
X160310058Y-95499962D01*
X160310058Y-95499962D02*
X157840418Y-95499962D01*
X151343502Y-107270000D02*
X150000000Y-107270000D01*
X157840418Y-95499962D02*
X155969988Y-97370392D01*
X155969988Y-97370392D02*
X155969988Y-103075172D01*
X151775160Y-107270000D02*
X151343502Y-107270000D01*
D48*
X137635000Y-39131907D02*
X137685683Y-39182590D01*
X137635000Y-37780000D02*
X137635000Y-39131907D01*
X144370410Y-34633577D02*
X144070411Y-34933576D01*
X145095000Y-33908987D02*
X144370410Y-34633577D01*
X144494675Y-34933576D02*
X144070411Y-34933576D01*
X147635000Y-37560000D02*
X145008576Y-34933576D01*
X147635000Y-37780000D02*
X147635000Y-37560000D01*
X145095000Y-30700000D02*
X145095000Y-33908987D01*
X145008576Y-34933576D02*
X144494675Y-34933576D01*
X170367527Y-55680720D02*
X170067528Y-55380721D01*
X171000000Y-56313193D02*
X170367527Y-55680720D01*
X171000000Y-56850000D02*
X171000000Y-56313193D01*
X128100000Y-66425000D02*
X127762410Y-66762590D01*
X127762410Y-66762590D02*
X114683097Y-66762590D01*
X114683097Y-66762590D02*
X114258833Y-66762590D01*
X111800000Y-63500000D02*
X111800000Y-63400000D01*
X108860000Y-62950000D02*
X108794999Y-63015001D01*
X108794999Y-63015001D02*
X108270000Y-63540000D01*
X111350000Y-62950000D02*
X108860000Y-62950000D01*
X111800000Y-63400000D02*
X111350000Y-62950000D01*
D49*
X141399256Y-89949999D02*
X141129869Y-90219386D01*
X163050000Y-89949999D02*
X141399256Y-89949999D01*
X141129869Y-90219386D02*
X140705605Y-90219386D01*
X127780000Y-102780000D02*
X127780000Y-101430000D01*
X127780000Y-101430000D02*
X129630000Y-99580000D01*
X131900000Y-106000000D02*
X131000000Y-106000000D01*
X131000000Y-106000000D02*
X127780000Y-102780000D01*
X129630000Y-99580000D02*
X131050000Y-101000000D01*
X131050000Y-101000000D02*
X133000000Y-101000000D01*
X163050000Y-89949999D02*
X164120001Y-89949999D01*
X158869999Y-107949999D02*
X157920000Y-107000000D01*
X164120001Y-89949999D02*
X165300001Y-91129999D01*
X165300001Y-91129999D02*
X165300001Y-95780001D01*
X165300001Y-95780001D02*
X166700000Y-97180000D01*
X166700000Y-97180000D02*
X166700000Y-105298002D01*
X159270001Y-108350001D02*
X158869999Y-107949999D01*
X166700000Y-105298002D02*
X163648001Y-108350001D01*
X163648001Y-108350001D02*
X159270001Y-108350001D01*
D48*
X133325000Y-61150000D02*
X133200000Y-61275000D01*
X128200000Y-66425000D02*
X128100000Y-66425000D01*
X136361411Y-69750000D02*
X135825000Y-69750000D01*
X138300000Y-68750000D02*
X137361411Y-68750000D01*
X137361411Y-68750000D02*
X136361411Y-69750000D01*
D49*
X162175000Y-83725000D02*
X163050000Y-84600000D01*
X163050000Y-84600000D02*
X163050000Y-89949999D01*
X155950000Y-83725000D02*
X162175000Y-83725000D01*
X153125000Y-80900000D02*
X155950000Y-83725000D01*
X153125000Y-79250000D02*
X153125000Y-80900000D01*
X154150000Y-78875000D02*
X153500000Y-78875000D01*
X153500000Y-78875000D02*
X153125000Y-79250000D01*
D48*
X108250000Y-54585002D02*
X112314996Y-58649998D01*
X112314996Y-58649998D02*
X113570754Y-58649998D01*
X113570754Y-58649998D02*
X113575736Y-58654980D01*
X108250000Y-51520000D02*
X108250000Y-54585002D01*
X113575736Y-58654980D02*
X114000000Y-58654980D01*
X141800000Y-80275000D02*
X142050000Y-80275000D01*
X142050000Y-80275000D02*
X143375000Y-78950000D01*
X144750000Y-76613590D02*
X143375000Y-77988590D01*
X143375000Y-77988590D02*
X143375000Y-78950000D01*
X152750000Y-75700000D02*
X152750000Y-74348732D01*
X152750000Y-74348732D02*
X153034798Y-74063934D01*
X152750000Y-75700000D02*
X152750000Y-77975000D01*
X152750000Y-77975000D02*
X153650000Y-78875000D01*
X153650000Y-78875000D02*
X154150000Y-78875000D01*
X139562501Y-66103603D02*
X139862500Y-66403602D01*
X139325000Y-61750000D02*
X139562501Y-61987501D01*
X139562501Y-61987501D02*
X139562501Y-66103603D01*
X161500000Y-59250000D02*
X161500000Y-59500000D01*
X161500000Y-59500000D02*
X162000000Y-60000000D01*
X158583189Y-73281149D02*
X158283190Y-73581148D01*
X159700000Y-71250000D02*
X158689998Y-71250000D01*
X158599999Y-71339999D02*
X158599999Y-73264339D01*
X158689998Y-71250000D02*
X158599999Y-71339999D01*
X158599999Y-73264339D02*
X158583189Y-73281149D01*
X159700000Y-71250000D02*
X162925000Y-71250000D01*
X162925000Y-71250000D02*
X162975000Y-71200000D01*
X137275000Y-69750000D02*
X138300000Y-69750000D01*
X135825000Y-69750000D02*
X137275000Y-69750000D01*
X139000000Y-49000000D02*
X139000000Y-48475000D01*
X139000000Y-48475000D02*
X139475000Y-48000000D01*
X162500000Y-57250000D02*
X162749982Y-57000018D01*
X162749982Y-57000018D02*
X163000000Y-57000018D01*
X162500000Y-57750000D02*
X162500000Y-57250000D01*
X163000000Y-57000000D02*
X163000000Y-57000018D01*
X162500000Y-57500000D02*
X163000000Y-57000000D01*
X144750000Y-75700000D02*
X144750000Y-76613590D01*
X136000000Y-41000000D02*
X137375000Y-41000000D01*
X137375000Y-41000000D02*
X137475000Y-40900000D01*
X144725001Y-75675001D02*
X144750000Y-75700000D01*
X147635000Y-37780000D02*
X147635000Y-40840000D01*
X147635000Y-40840000D02*
X147475000Y-41000000D01*
X114000000Y-62000000D02*
X112750000Y-62000000D01*
X112750000Y-62000000D02*
X111800000Y-62950000D01*
X111800000Y-62950000D02*
X111800000Y-63500000D01*
X138300000Y-61750000D02*
X139325000Y-61750000D01*
X123348801Y-30885547D02*
X123048802Y-31185546D01*
X123434348Y-30800000D02*
X123348801Y-30885547D01*
X124095000Y-30800000D02*
X123434348Y-30800000D01*
X125500000Y-39000000D02*
X125924264Y-39000000D01*
X125924264Y-39000000D02*
X126635000Y-38289264D01*
X126635000Y-38289264D02*
X126635000Y-37880000D01*
X124095000Y-30800000D02*
X124095000Y-31020000D01*
X137635000Y-35033981D02*
X137590024Y-34989005D01*
X137635000Y-37780000D02*
X137635000Y-35033981D01*
X135095000Y-30700000D02*
X135095000Y-31345000D01*
X135095000Y-31345000D02*
X135500000Y-31750000D01*
X144550000Y-28000000D02*
X144550000Y-30155000D01*
X144550000Y-30155000D02*
X145095000Y-30700000D01*
X124100000Y-28000000D02*
X124100000Y-30795000D01*
X124100000Y-30795000D02*
X124095000Y-30800000D01*
X135550000Y-28000000D02*
X135550000Y-27900000D01*
X135550000Y-28000000D02*
X135550000Y-28100000D01*
X135550000Y-28100000D02*
X135095000Y-28555000D01*
X135095000Y-28555000D02*
X135095000Y-30700000D01*
X139475000Y-48000000D02*
X136300000Y-48000000D01*
X136300000Y-48000000D02*
X136100000Y-47800000D01*
X171000000Y-56850000D02*
X171000000Y-59825000D01*
X159700000Y-59250000D02*
X161500000Y-59250000D01*
X161500000Y-59250000D02*
X162500000Y-58250000D01*
X162500000Y-58250000D02*
X162500000Y-57750000D01*
X162500000Y-57750000D02*
X159700000Y-57750000D01*
D49*
X144000000Y-100000000D02*
X146300000Y-100000000D01*
X145950000Y-96350000D02*
X145950000Y-99650000D01*
X145950000Y-99650000D02*
X146300000Y-100000000D01*
X140825000Y-100000000D02*
X144000000Y-100000000D01*
X144050000Y-96350000D02*
X144050000Y-97275000D01*
X144050000Y-97275000D02*
X144000000Y-97325000D01*
X144000000Y-97325000D02*
X144000000Y-100000000D01*
X119429999Y-100074999D02*
X119349999Y-100154999D01*
X119349999Y-100154999D02*
X119349999Y-101175001D01*
X119349999Y-101175001D02*
X119325000Y-101200000D01*
X133000000Y-101000000D02*
X133700000Y-101000000D01*
X133700000Y-101000000D02*
X135000000Y-99700000D01*
X135000000Y-99700000D02*
X135000000Y-99000000D01*
X123351999Y-107350001D02*
X126149999Y-107350001D01*
X121500000Y-105498002D02*
X123351999Y-107350001D01*
X121500000Y-101054998D02*
X121500000Y-105498002D01*
X126149999Y-107350001D02*
X127500000Y-106000000D01*
X119429999Y-100074999D02*
X120520001Y-100074999D01*
X120520001Y-100074999D02*
X121500000Y-101054998D01*
X131900000Y-106000000D02*
X127500000Y-106000000D01*
X145500000Y-103960000D02*
X146000000Y-103960000D01*
X146000000Y-103960000D02*
X146690000Y-103960000D01*
X139475000Y-102000000D02*
X139475000Y-101350000D01*
X139475000Y-101350000D02*
X140825000Y-100000000D01*
X139475000Y-102000000D02*
X137300000Y-102000000D01*
X137300000Y-102000000D02*
X135000000Y-99700000D01*
X146690000Y-103960000D02*
X150000000Y-107270000D01*
X160460000Y-107000000D02*
X165595000Y-101865000D01*
X165595000Y-101865000D02*
X165595000Y-101460000D01*
X165595000Y-101460000D02*
X165595000Y-97345000D01*
X165595000Y-97345000D02*
X165300000Y-97050000D01*
X165300000Y-97050000D02*
X164300000Y-97050000D01*
X160729951Y-94899953D02*
X161200000Y-95370002D01*
X156750047Y-94899953D02*
X160729951Y-94899953D01*
X155000000Y-96000000D02*
X155650000Y-96000000D01*
X155650000Y-96000000D02*
X156750047Y-94899953D01*
X125599998Y-99379999D02*
X125920001Y-99700002D01*
X125920001Y-99700002D02*
X127336002Y-99700002D01*
X127336002Y-99700002D02*
X129636004Y-97400000D01*
X129636004Y-97400000D02*
X134436000Y-97400000D01*
X134436000Y-97400000D02*
X136786000Y-95050000D01*
X136786000Y-95050000D02*
X148895002Y-95050000D01*
X148895002Y-95050000D02*
X152000000Y-95050000D01*
X162000000Y-97050000D02*
X162000000Y-98965000D01*
X162000000Y-98965000D02*
X164495000Y-101460000D01*
X164495000Y-101460000D02*
X164545000Y-101460000D01*
X122546457Y-100920000D02*
X121101445Y-99474988D01*
X118550012Y-99474988D02*
X118025000Y-100000000D01*
X121101445Y-99474988D02*
X118550012Y-99474988D01*
X124000000Y-100920000D02*
X122546457Y-100920000D01*
X124575000Y-98600000D02*
X125175000Y-98600000D01*
X125175000Y-98600000D02*
X125540001Y-98965001D01*
X125540001Y-98965001D02*
X125540001Y-99379999D01*
X161200000Y-95370002D02*
X162000000Y-94570002D01*
X162000000Y-97050000D02*
X162000000Y-96050000D01*
X162000000Y-96050000D02*
X161320002Y-95370002D01*
X161320002Y-95370002D02*
X161200000Y-95370002D01*
X162000000Y-94570002D02*
X162000000Y-90950000D01*
X118025000Y-100000000D02*
X118025000Y-96800000D01*
X118025000Y-101200000D02*
X118025000Y-100000000D01*
X112050000Y-99000000D02*
X112050000Y-98150000D01*
X112050000Y-98150000D02*
X113400000Y-96800000D01*
X113400000Y-96800000D02*
X117400000Y-96800000D01*
X117400000Y-96800000D02*
X118025000Y-96800000D01*
X112000000Y-104000000D02*
X112000000Y-99050000D01*
X112000000Y-99050000D02*
X112050000Y-99000000D01*
X125540001Y-99379999D02*
X124949999Y-99970001D01*
X124949999Y-99970001D02*
X124000000Y-100920000D01*
X152000000Y-95050000D02*
X154050000Y-95050000D01*
X154050000Y-95050000D02*
X155000000Y-96000000D01*
X179980000Y-99370000D02*
X181240001Y-100630001D01*
X185917666Y-97837136D02*
X185917666Y-38111560D01*
X181240001Y-100630001D02*
X183124801Y-100630001D01*
X183124801Y-100630001D02*
X185917666Y-97837136D01*
X185917666Y-38111560D02*
X184956105Y-37149999D01*
X184956105Y-37149999D02*
X181935197Y-37149999D01*
X181935197Y-37149999D02*
X181240001Y-36454803D01*
X181240001Y-36454803D02*
X181240001Y-34590001D01*
X181240001Y-34590001D02*
X180839999Y-34189999D01*
X180839999Y-34189999D02*
X179980000Y-33330000D01*
X122050848Y-96228882D02*
X123697326Y-96228882D01*
X122046967Y-96225001D02*
X122050848Y-96228882D01*
X121429999Y-96225001D02*
X122046967Y-96225001D01*
X123697326Y-96228882D02*
X123741946Y-96273502D01*
X121349999Y-95803844D02*
X121349999Y-96145001D01*
X120458026Y-94636060D02*
X120458027Y-94911872D01*
X118641967Y-92820001D02*
X120458026Y-94636060D01*
X103949999Y-92820001D02*
X118641967Y-92820001D01*
X123741946Y-96273502D02*
X124041945Y-96573501D01*
X120458027Y-94911872D02*
X121349999Y-95803844D01*
X103000000Y-93770000D02*
X103949999Y-92820001D01*
X121349999Y-96145001D02*
X121429999Y-96225001D01*
X179980000Y-99370000D02*
X170399988Y-108950012D01*
X159700000Y-98050000D02*
X159700000Y-97050000D01*
X156569999Y-103323704D02*
X159700000Y-100193703D01*
X159700000Y-100193703D02*
X159700000Y-98050000D01*
X170399988Y-108950012D02*
X157872010Y-108950012D01*
X157872010Y-108950012D02*
X156569999Y-107648001D01*
X156569999Y-107648001D02*
X156569999Y-103323704D01*
X157345013Y-97158924D02*
X159591076Y-97158924D01*
X159591076Y-97158924D02*
X159700000Y-97050000D01*
D48*
X157453937Y-97050000D02*
X157345013Y-97158924D01*
D49*
X152000000Y-97760000D02*
X151740000Y-97760000D01*
X151740000Y-97760000D02*
X150780000Y-96800000D01*
X152000000Y-96960000D02*
X154910000Y-96960000D01*
X154910000Y-96960000D02*
X155000000Y-97050000D01*
X152000000Y-96960000D02*
X152000000Y-97760000D01*
X152000000Y-97760000D02*
X152550000Y-98310000D01*
X152550000Y-98310000D02*
X152550000Y-100300000D01*
X152550000Y-100300000D02*
X152550000Y-101000000D01*
D48*
X103000000Y-93770000D02*
X103770000Y-93770000D01*
X148750000Y-75700000D02*
X148750000Y-76530000D01*
X148750000Y-76530000D02*
X148725001Y-76554999D01*
X148725001Y-76554999D02*
X148725001Y-79249999D01*
X148725001Y-79249999D02*
X146475000Y-81500000D01*
X146475000Y-81500000D02*
X146475000Y-82000000D01*
X146475000Y-82000000D02*
X146475000Y-85525000D01*
X146475000Y-85525000D02*
X145000000Y-87000000D01*
X145000000Y-87000000D02*
X145000000Y-88000000D01*
X149260000Y-81280000D02*
X148540000Y-82000000D01*
X148540000Y-82000000D02*
X147525000Y-82000000D01*
X149260000Y-81280000D02*
X149980000Y-82000000D01*
X149980000Y-82000000D02*
X150875000Y-82000000D01*
X149260000Y-76735000D02*
X149260000Y-81280000D01*
X149250000Y-75700000D02*
X149250000Y-76725000D01*
X149250000Y-76725000D02*
X149260000Y-76735000D01*
X149750000Y-75700000D02*
X149750000Y-79220000D01*
X149750000Y-79220000D02*
X151925000Y-81395000D01*
X151925000Y-81395000D02*
X151925000Y-82000000D01*
X151925000Y-82000000D02*
X151925000Y-85455000D01*
X151925000Y-85455000D02*
X151955000Y-85455000D01*
X151955000Y-85455000D02*
X153500000Y-87000000D01*
X153500000Y-87000000D02*
X153500000Y-88000000D01*
X165000000Y-40000000D02*
X165000000Y-45000000D01*
X147694921Y-45594269D02*
X147646686Y-45642504D01*
X155867749Y-45594269D02*
X147694921Y-45594269D01*
X133900000Y-47800000D02*
X133195368Y-47800000D01*
X133000009Y-47995359D02*
X132700010Y-48295358D01*
X133195368Y-47800000D02*
X133000009Y-47995359D01*
X133900000Y-47791838D02*
X133941838Y-47750000D01*
X133900000Y-47800000D02*
X133900000Y-47791838D01*
X109199999Y-49929999D02*
X108250000Y-48980000D01*
X111170001Y-51900001D02*
X109199999Y-49929999D01*
X122460001Y-51900001D02*
X111170001Y-51900001D01*
X122975012Y-49874988D02*
X122975012Y-51384990D01*
X123550000Y-49300000D02*
X122975012Y-49874988D01*
X122975012Y-51384990D02*
X122460001Y-51900001D01*
X124300000Y-49300000D02*
X123550000Y-49300000D01*
X124300000Y-49300000D02*
X126425000Y-49300000D01*
X126425000Y-49300000D02*
X126975000Y-48750000D01*
X126975000Y-48750000D02*
X126975000Y-48250000D01*
X135459179Y-66999722D02*
X135459179Y-64148645D01*
X135459179Y-64148645D02*
X135679575Y-63928249D01*
X135759178Y-67299721D02*
X135459179Y-66999722D01*
X112700000Y-63936142D02*
X112888770Y-63936142D01*
X112888770Y-63936142D02*
X113248770Y-64296142D01*
X112700000Y-63500000D02*
X112700000Y-63936142D01*
X130350736Y-67450000D02*
X130775000Y-67450000D01*
X119200000Y-68975000D02*
X120725000Y-67450000D01*
X118250000Y-68975000D02*
X119200000Y-68975000D01*
X120725000Y-67450000D02*
X130350736Y-67450000D01*
X140000000Y-60000000D02*
X139750000Y-59750000D01*
X139750000Y-59750000D02*
X138300000Y-59750000D01*
X112525000Y-69000000D02*
X112525000Y-68475000D01*
X112525000Y-68475000D02*
X113000000Y-68000000D01*
X112525000Y-69000000D02*
X118225000Y-69000000D01*
X118225000Y-69000000D02*
X118250000Y-68975000D01*
D49*
X122408299Y-85559253D02*
X122408299Y-85829890D01*
X122408299Y-85829890D02*
X121310573Y-86927616D01*
X121310573Y-86927616D02*
X121310573Y-89323644D01*
X121310573Y-89323644D02*
X120134217Y-90500000D01*
X120134217Y-90500000D02*
X107325000Y-90500000D01*
X121023249Y-85559253D02*
X122408299Y-85559253D01*
X122408299Y-85559253D02*
X122633775Y-85333777D01*
X125000000Y-72000000D02*
X110129998Y-72000000D01*
X122633775Y-85333777D02*
X123666223Y-85333777D01*
X123666223Y-85333777D02*
X126100002Y-82899998D01*
X126100002Y-73100002D02*
X125000000Y-72000000D01*
X110129998Y-72000000D02*
X106899999Y-75229999D01*
X106899999Y-75229999D02*
X106899999Y-77749999D01*
X106899999Y-77749999D02*
X108550000Y-79400000D01*
X126100002Y-82899998D02*
X126100002Y-73100002D01*
X119799998Y-84336002D02*
X121023249Y-85559253D01*
X119825000Y-83025000D02*
X119825000Y-83700000D01*
X121023249Y-85559253D02*
X121140749Y-85559253D01*
X119825000Y-83700000D02*
X119799998Y-83725002D01*
X119799998Y-83725002D02*
X119799998Y-84336002D01*
X103000000Y-91230000D02*
X103949999Y-92179999D01*
X103949999Y-92179999D02*
X106295001Y-92179999D01*
X106295001Y-92179999D02*
X107325000Y-91150000D01*
X107325000Y-91150000D02*
X107325000Y-90500000D01*
X133000000Y-94720535D02*
X132870556Y-94849979D01*
X133000000Y-92800000D02*
X133000000Y-94720535D01*
X133000000Y-98458931D02*
X132869124Y-98328055D01*
X133000000Y-100100000D02*
X133000000Y-98458931D01*
X128780000Y-90200000D02*
X128780000Y-90250000D01*
X128780000Y-90250000D02*
X129730000Y-91200000D01*
X129730000Y-91200000D02*
X132200000Y-91200000D01*
X132200000Y-91200000D02*
X133000000Y-91200000D01*
X135900000Y-99000000D02*
X138600000Y-99000000D01*
X138600000Y-99000000D02*
X139000000Y-98600000D01*
X139000000Y-98600000D02*
X139000000Y-97800000D01*
X133817894Y-96000000D02*
X134105156Y-96287262D01*
X128000000Y-96000000D02*
X133817894Y-96000000D01*
X138094264Y-96200000D02*
X137969253Y-96325011D01*
X139000000Y-96200000D02*
X138094264Y-96200000D01*
X137969253Y-96325011D02*
X137669254Y-96625010D01*
D48*
X117160572Y-88603643D02*
X118910572Y-88603643D01*
X120510572Y-88603643D02*
X120510572Y-86036541D01*
X120510572Y-86036541D02*
X120290405Y-85816374D01*
X120475000Y-83025000D02*
X120475000Y-83975000D01*
X120475000Y-83975000D02*
X120500000Y-84000000D01*
X120510572Y-83060572D02*
X120475000Y-83025000D01*
X117700000Y-73500000D02*
X114700000Y-73500000D01*
X114700000Y-73500000D02*
X114600000Y-73400000D01*
X114600000Y-75000000D02*
X114600000Y-76625000D01*
X114600000Y-76625000D02*
X118150000Y-80175000D01*
X118150000Y-80175000D02*
X118275000Y-80175000D01*
X148250000Y-51741264D02*
X149018301Y-50972963D01*
X149018301Y-50972963D02*
X149318300Y-50672964D01*
X148250000Y-54300000D02*
X148250000Y-51741264D01*
X148524990Y-71069906D02*
X148524990Y-59479965D01*
X147224919Y-72369977D02*
X148524990Y-71069906D01*
X148524990Y-59479965D02*
X148524990Y-59055701D01*
X147250000Y-75700000D02*
X147250000Y-74080000D01*
X147250000Y-74080000D02*
X147260000Y-74070000D01*
X156250000Y-77386220D02*
X156124990Y-77511230D01*
X156250000Y-75700000D02*
X156250000Y-77386220D01*
X169633314Y-81166816D02*
X169633314Y-58820678D01*
X169633314Y-58820678D02*
X169720623Y-58733369D01*
X157775000Y-81150000D02*
X157775000Y-75725000D01*
X157775000Y-75725000D02*
X157750000Y-75700000D01*
X173776868Y-88244295D02*
X169266238Y-92754925D01*
X171725000Y-64175000D02*
X171725000Y-85122004D01*
X169266238Y-92754925D02*
X166912914Y-92754925D01*
X166912914Y-92754925D02*
X166488650Y-92754925D01*
X171725000Y-85122004D02*
X173776868Y-87173872D01*
X173776868Y-87173872D02*
X173776868Y-88244295D01*
X173170987Y-61904013D02*
X178129764Y-61904013D01*
X178129764Y-61904013D02*
X178763777Y-61270000D01*
X178763777Y-61270000D02*
X179980000Y-61270000D01*
X171725000Y-64175000D02*
X171725000Y-63350000D01*
X171725000Y-63350000D02*
X173170987Y-61904013D01*
X140645376Y-77823611D02*
X140345377Y-78123610D01*
X141250000Y-77218987D02*
X140645376Y-77823611D01*
X141250000Y-75700000D02*
X141250000Y-77218987D01*
X171000000Y-64175000D02*
X171000000Y-85033415D01*
X171000000Y-85033415D02*
X173326857Y-87360272D01*
X173326857Y-87360272D02*
X173326857Y-88057895D01*
X173326857Y-88057895D02*
X169426040Y-91958712D01*
X169426040Y-91958712D02*
X166990785Y-91958712D01*
X166990785Y-91958712D02*
X166566521Y-91958712D01*
X181165001Y-60701199D02*
X181165001Y-62624999D01*
X181165001Y-62624999D02*
X180839999Y-62950001D01*
X180839999Y-62950001D02*
X179980000Y-63810000D01*
X180548801Y-60084999D02*
X181165001Y-60701199D01*
X176575922Y-61454002D02*
X177944925Y-60084999D01*
X171000000Y-64175000D02*
X171000000Y-63350000D01*
X171000000Y-63350000D02*
X172895998Y-61454002D01*
X172895998Y-61454002D02*
X176575922Y-61454002D01*
X177944925Y-60084999D02*
X180548801Y-60084999D01*
X141750000Y-77602886D02*
X140422536Y-78930350D01*
X141750000Y-75700000D02*
X141750000Y-77602886D01*
X140422536Y-78930350D02*
X140336782Y-78930350D01*
X143388058Y-72482783D02*
X143388058Y-72335717D01*
X141270842Y-74599999D02*
X143388058Y-72482783D01*
X140250000Y-75700000D02*
X140250000Y-74675000D01*
X140325001Y-74599999D02*
X141270842Y-74599999D01*
X140250000Y-74675000D02*
X140325001Y-74599999D01*
X143388058Y-72335717D02*
X143388058Y-71911453D01*
X176561528Y-73997483D02*
X176491477Y-73927432D01*
X176561528Y-75631528D02*
X176561528Y-73997483D01*
X179980000Y-79050000D02*
X176561528Y-75631528D01*
X138300000Y-72750000D02*
X139624990Y-72750000D01*
X139624990Y-72750000D02*
X139750000Y-72875010D01*
X140828634Y-67898391D02*
X140869040Y-67898391D01*
X139325000Y-68250000D02*
X139557887Y-68017113D01*
X140869040Y-67898391D02*
X141169039Y-68198390D01*
X138300000Y-68250000D02*
X139325000Y-68250000D01*
X140709912Y-68017113D02*
X140828634Y-67898391D01*
X139557887Y-68017113D02*
X140709912Y-68017113D01*
X172478489Y-70393557D02*
X172478489Y-69969293D01*
X172478489Y-77103489D02*
X172478489Y-70393557D01*
X176975000Y-81600000D02*
X172478489Y-77103489D01*
X144468101Y-64612808D02*
X144768100Y-64312809D01*
X141063796Y-68017113D02*
X144468101Y-64612808D01*
X140709912Y-68017113D02*
X141063796Y-68017113D01*
X131677630Y-46000000D02*
X130600000Y-46000000D01*
X133050002Y-46450002D02*
X132127632Y-46450002D01*
X133300004Y-46200000D02*
X133050002Y-46450002D01*
X133900000Y-46200000D02*
X133300004Y-46200000D01*
X132127632Y-46450002D02*
X131677630Y-46000000D01*
X166450022Y-91167228D02*
X169581113Y-91167228D01*
X169581113Y-91167228D02*
X172701855Y-88046486D01*
X172701855Y-88046486D02*
X172701855Y-87660274D01*
X142250000Y-75700000D02*
X142250000Y-78027890D01*
X142250000Y-78027890D02*
X141435889Y-78842001D01*
X141435889Y-78842001D02*
X141135890Y-79142000D01*
X173850236Y-90091960D02*
X174150235Y-89791961D01*
X166531619Y-93553782D02*
X170388414Y-93553782D01*
X170388414Y-93553782D02*
X173850236Y-90091960D01*
X139450950Y-78024050D02*
X139434182Y-78024050D01*
X140750000Y-75700000D02*
X140750000Y-76725000D01*
X140750000Y-76725000D02*
X139450950Y-78024050D01*
X162313142Y-73835896D02*
X162181469Y-73967569D01*
X160741972Y-72733028D02*
X161975878Y-72733028D01*
X162313142Y-73070292D02*
X162313142Y-73835896D01*
X160725000Y-72750000D02*
X160741972Y-72733028D01*
X162181469Y-73967569D02*
X161881470Y-74267568D01*
X161975878Y-72733028D02*
X162313142Y-73070292D01*
X159700000Y-72750000D02*
X160725000Y-72750000D01*
X130750000Y-69950000D02*
X130118783Y-69950000D01*
X127256085Y-72812698D02*
X126956086Y-73112697D01*
X130118783Y-69950000D02*
X127256085Y-72812698D01*
X167268576Y-71308270D02*
X167466900Y-71109946D01*
X167268576Y-73402937D02*
X167268576Y-71308270D01*
X165671522Y-74999991D02*
X167268576Y-73402937D01*
X171451843Y-87729979D02*
X171027579Y-87729979D01*
X168208296Y-71109946D02*
X167891164Y-71109946D01*
X168558293Y-78491711D02*
X168558293Y-71459943D01*
X170344750Y-84925186D02*
X168174987Y-82755423D01*
X170344750Y-86170203D02*
X170344750Y-84925186D01*
X170660011Y-86485464D02*
X170344750Y-86170203D01*
X170660011Y-87362411D02*
X170660011Y-86485464D01*
X171027579Y-87729979D02*
X170660011Y-87362411D01*
X168174987Y-78875017D02*
X168558293Y-78491711D01*
X168174987Y-82755423D02*
X168174987Y-78875017D01*
X168558293Y-71459943D02*
X168208296Y-71109946D01*
X167891164Y-71109946D02*
X167466900Y-71109946D01*
X121525012Y-74424988D02*
X124575012Y-74424988D01*
X124575012Y-74424988D02*
X124600000Y-74400000D01*
X120475000Y-76125000D02*
X120475000Y-79275000D01*
X120550000Y-76050000D02*
X120475000Y-76125000D01*
X120550000Y-75500000D02*
X120550000Y-76050000D01*
X120550000Y-75500000D02*
X120550000Y-75400000D01*
X120550000Y-75400000D02*
X121525012Y-74424988D01*
X161494261Y-73250000D02*
X161602291Y-73358030D01*
X159700000Y-73250000D02*
X161494261Y-73250000D01*
X170035009Y-86785466D02*
X168940953Y-86785466D01*
X168940953Y-86785466D02*
X165996882Y-83841395D01*
X165996882Y-83841395D02*
X165996882Y-77618446D01*
X165996882Y-77618446D02*
X167933292Y-75682036D01*
X167933292Y-75682036D02*
X167933292Y-75250000D01*
X167933292Y-75250000D02*
X167933292Y-72184208D01*
X167933292Y-74810000D02*
X167933292Y-75250000D01*
X167933292Y-72184208D02*
X167933292Y-71759944D01*
X124500000Y-78950000D02*
X125350000Y-78950000D01*
X125350000Y-78950000D02*
X125400000Y-79000000D01*
X122025000Y-80825000D02*
X123075000Y-80825000D01*
X123075000Y-80825000D02*
X124500000Y-79400000D01*
X124500000Y-79400000D02*
X124500000Y-78950000D01*
D50*
X183379999Y-27390001D02*
X182520000Y-28250000D01*
X110500000Y-43200000D02*
X112087916Y-41612084D01*
X183780001Y-26989999D02*
X183379999Y-27390001D01*
X110500000Y-44800000D02*
X110500000Y-43200000D01*
X112087916Y-41612084D02*
X112087916Y-25562084D01*
X115234312Y-22415688D02*
X181090490Y-22415688D01*
X112087916Y-25562084D02*
X115234312Y-22415688D01*
X181090490Y-22415688D02*
X183024801Y-24349999D01*
X183024801Y-24349999D02*
X183172801Y-24349999D01*
X183172801Y-24349999D02*
X183880001Y-25057199D01*
X183880001Y-25057199D02*
X183880001Y-26362801D01*
X183880001Y-26362801D02*
X183780001Y-26462801D01*
X183780001Y-26462801D02*
X183780001Y-26989999D01*
X110500000Y-44800000D02*
X104550000Y-44800000D01*
X104550000Y-44800000D02*
X104000000Y-45350000D01*
X182520000Y-30790000D02*
X182520000Y-28250000D01*
X104000000Y-37450000D02*
X104000000Y-39000000D01*
X102500000Y-40500000D02*
X102500000Y-43800000D01*
X104000000Y-39000000D02*
X102500000Y-40500000D01*
X102500000Y-43800000D02*
X104000000Y-45300000D01*
X104000000Y-45300000D02*
X104000000Y-45350000D01*
X110500000Y-39400000D02*
X110500000Y-24000000D01*
X110500000Y-24000000D02*
X113143645Y-21356355D01*
X113143645Y-21356355D02*
X185256355Y-21356355D01*
X185256355Y-21356355D02*
X186650000Y-22750000D01*
X186650000Y-29200000D02*
X182520000Y-33330000D01*
X186650000Y-22750000D02*
X186650000Y-29200000D01*
X182520000Y-33330000D02*
X182520000Y-35870000D01*
D48*
X159700000Y-56250000D02*
X159700000Y-52263491D01*
X159700000Y-52263491D02*
X169474998Y-42488493D01*
X169474998Y-42488493D02*
X171750000Y-40213491D01*
X171025001Y-42450001D02*
X171325000Y-42150002D01*
X162175001Y-56850001D02*
X162175001Y-51300001D01*
X161775002Y-57250000D02*
X162175001Y-56850001D01*
X162175001Y-51300001D02*
X171025001Y-42450001D01*
X159700000Y-57250000D02*
X161775002Y-57250000D01*
X159134082Y-44215617D02*
X159434081Y-43915618D01*
X152750000Y-50599699D02*
X159134082Y-44215617D01*
X152750000Y-54300000D02*
X152750000Y-50599699D01*
X159700000Y-61750000D02*
X160915763Y-61750000D01*
X169221829Y-48430774D02*
X169521828Y-48130775D01*
X160915763Y-61750000D02*
X161140798Y-61975035D01*
X161140798Y-61975035D02*
X164324962Y-61975035D01*
X164324962Y-61975035D02*
X166903096Y-59396901D01*
X166903096Y-59396901D02*
X166903096Y-50749507D01*
X166903096Y-50749507D02*
X169221829Y-48430774D01*
X154250000Y-54300000D02*
X154250000Y-50025000D01*
X154250000Y-50025000D02*
X154275000Y-50000000D01*
X155225000Y-52325000D02*
X155225000Y-54275000D01*
X155225000Y-54275000D02*
X155250000Y-54300000D01*
X155250000Y-52350000D02*
X155225000Y-52325000D01*
X157977251Y-52290509D02*
X158401515Y-52290509D01*
X156250000Y-53275000D02*
X157234491Y-52290509D01*
X157234491Y-52290509D02*
X157977251Y-52290509D01*
X156250000Y-54300000D02*
X156250000Y-53275000D01*
X157499805Y-55625139D02*
X157799804Y-55925138D01*
X157225000Y-55350334D02*
X157499805Y-55625139D01*
X157225000Y-54325000D02*
X157225000Y-55350334D01*
X142296106Y-72250000D02*
X142357753Y-72311647D01*
X138300000Y-72250000D02*
X142296106Y-72250000D01*
X175925522Y-76749324D02*
X175925522Y-74953771D01*
X179411199Y-80235001D02*
X175925522Y-76749324D01*
X182520000Y-79050000D02*
X181334999Y-80235001D01*
X175925522Y-74953771D02*
X175925522Y-74529507D01*
X181334999Y-80235001D02*
X179411199Y-80235001D01*
X141136879Y-71750000D02*
X142078232Y-70808647D01*
X138300000Y-71750000D02*
X141136879Y-71750000D01*
X142078232Y-70808647D02*
X142378231Y-70508648D01*
X174925000Y-73324264D02*
X174925000Y-72900000D01*
X179075003Y-82775001D02*
X174925000Y-78624998D01*
X174925000Y-78624998D02*
X174925000Y-73324264D01*
X181334999Y-82775001D02*
X179075003Y-82775001D01*
X182520000Y-81590000D02*
X181334999Y-82775001D01*
X170428755Y-59054153D02*
X170428755Y-57481602D01*
X170325000Y-82499998D02*
X170325000Y-59157908D01*
X170428755Y-57481602D02*
X168436978Y-55489825D01*
X168436978Y-55489825D02*
X168436978Y-55065561D01*
X170325000Y-59157908D02*
X170428755Y-59054153D01*
X161550000Y-56550000D02*
X161350000Y-56750000D01*
X161350000Y-56750000D02*
X159700000Y-56750000D01*
X169806024Y-83452235D02*
X170106023Y-83752234D01*
X169008304Y-65671293D02*
X169008304Y-82654515D01*
X166425000Y-63087989D02*
X169008304Y-65671293D01*
X169008304Y-82654515D02*
X169806024Y-83452235D01*
X165049954Y-62425046D02*
X165050001Y-62424999D01*
X165050001Y-62424999D02*
X165350000Y-62125000D01*
X159700000Y-62250000D02*
X160779352Y-62250000D01*
X160954398Y-62425046D02*
X165049954Y-62425046D01*
X160779352Y-62250000D02*
X160954398Y-62425046D01*
X169690317Y-85252408D02*
X167692432Y-83254523D01*
X167692432Y-83254523D02*
X167692432Y-78349166D01*
X167692432Y-78349166D02*
X167733492Y-78308106D01*
X176774999Y-86249999D02*
X176475000Y-85950000D01*
X178549999Y-88024999D02*
X176774999Y-86249999D01*
X181334999Y-88024999D02*
X178549999Y-88024999D01*
X182520000Y-89210000D02*
X181334999Y-88024999D01*
X151700000Y-77675000D02*
X151800000Y-77675000D01*
X150750000Y-75700000D02*
X150750000Y-76725000D01*
X150750000Y-76725000D02*
X151700000Y-77675000D01*
X171709284Y-86843019D02*
X171285020Y-86843019D01*
X172076845Y-87210580D02*
X171709284Y-86843019D01*
X169756826Y-90350000D02*
X172076845Y-88029981D01*
X172076845Y-88029981D02*
X172076845Y-87210580D01*
X166350000Y-90350000D02*
X169756826Y-90350000D01*
X181334999Y-90564999D02*
X179582732Y-90564999D01*
X176197750Y-87180017D02*
X175897751Y-86880018D01*
X179582732Y-90564999D02*
X176197750Y-87180017D01*
X182520000Y-91750000D02*
X181334999Y-90564999D01*
X141890380Y-79649999D02*
X141499999Y-79649999D01*
X141499999Y-79649999D02*
X141414245Y-79735753D01*
X142750000Y-78790379D02*
X141890380Y-79649999D01*
X142750000Y-75700000D02*
X142750000Y-78790379D01*
X141414245Y-79735753D02*
X141336600Y-79735753D01*
X141336600Y-79735753D02*
X141036601Y-80035752D01*
X169531479Y-86160456D02*
X166942820Y-83571797D01*
X166942820Y-83571797D02*
X166942820Y-78610481D01*
X166942820Y-78610481D02*
X166942820Y-78186217D01*
X146634998Y-73769998D02*
X146959998Y-73444998D01*
X146750000Y-74600004D02*
X146634998Y-74485002D01*
X146959998Y-73444998D02*
X147825211Y-73444998D01*
X146750000Y-75700000D02*
X146750000Y-74600004D01*
X147825211Y-73444998D02*
X148055203Y-73674990D01*
X148055203Y-73674990D02*
X148355202Y-73974989D01*
X146634998Y-74485002D02*
X146634998Y-73769998D01*
X158675000Y-78300000D02*
X163025552Y-82650552D01*
X159700000Y-73750000D02*
X159075000Y-73750000D01*
X163025552Y-82650552D02*
X163325551Y-82950551D01*
X159075000Y-73750000D02*
X158675000Y-74150000D01*
X158675000Y-74150000D02*
X158675000Y-78300000D01*
X164400002Y-84636409D02*
X164400002Y-89487523D01*
X164146490Y-73655684D02*
X164146490Y-81450079D01*
X164646849Y-81950438D02*
X164646849Y-84389562D01*
X166057116Y-67896000D02*
X166057116Y-69002936D01*
X164400002Y-89487523D02*
X165825012Y-90912533D01*
X166057116Y-69002936D02*
X165918543Y-69141509D01*
X165825012Y-90912533D02*
X165825012Y-94850012D01*
X181165001Y-98015001D02*
X181660001Y-98510001D01*
X159700000Y-66750000D02*
X164911116Y-66750000D01*
X164146490Y-81450079D02*
X164646849Y-81950438D01*
X165825012Y-94850012D02*
X168990001Y-98015001D01*
X168990001Y-98015001D02*
X181165001Y-98015001D01*
X165918543Y-71883631D02*
X164146490Y-73655684D01*
X164646849Y-84389562D02*
X164400002Y-84636409D01*
X181660001Y-98510001D02*
X182520000Y-99370000D01*
X165918543Y-69141509D02*
X165918543Y-71883631D01*
X164911116Y-66750000D02*
X166057116Y-67896000D01*
X166507127Y-69189336D02*
X166368554Y-69327909D01*
X164596501Y-73842084D02*
X164596501Y-78361075D01*
X165047527Y-66250000D02*
X166507127Y-67709600D01*
X165190894Y-87340487D02*
X165190894Y-87764751D01*
X159700000Y-66250000D02*
X165047527Y-66250000D01*
X165096860Y-78861434D02*
X165096860Y-85665068D01*
X164596501Y-78361075D02*
X165096860Y-78861434D01*
X166368554Y-69327909D02*
X166368554Y-72070031D01*
X165096860Y-85665068D02*
X165190894Y-85759102D01*
X166507127Y-67709600D02*
X166507127Y-69189336D01*
X165190894Y-85759102D02*
X165190894Y-87340487D01*
X166368554Y-72070031D02*
X164596501Y-73842084D01*
X167774905Y-87058320D02*
X168074904Y-87358319D01*
X165046512Y-78174675D02*
X165546871Y-78675034D01*
X166957138Y-67523200D02*
X166957138Y-69375736D01*
X166818565Y-72256431D02*
X165046512Y-74028484D01*
X166957138Y-69375736D02*
X166818565Y-69514309D01*
X166818565Y-69514309D02*
X166818565Y-72256431D01*
X159700000Y-65750000D02*
X165183938Y-65750000D01*
X165183938Y-65750000D02*
X166957138Y-67523200D01*
X165046512Y-74028484D02*
X165046512Y-78174675D01*
X165546871Y-78675034D02*
X165546871Y-84830286D01*
X165546871Y-84830286D02*
X167774905Y-87058320D01*
D49*
X143500000Y-103000000D02*
X142650000Y-103000000D01*
X142650000Y-103000000D02*
X141949999Y-103700001D01*
X130852957Y-103338092D02*
X130848092Y-103338092D01*
X141949999Y-103700001D02*
X131214866Y-103700001D01*
X131214866Y-103700001D02*
X130852957Y-103338092D01*
X130848092Y-103338092D02*
X129630000Y-102120000D01*
X115810000Y-94399990D02*
X115539990Y-94399990D01*
X115539990Y-94399990D02*
X115430000Y-94290000D01*
X119975000Y-96800000D02*
X119975000Y-95476458D01*
X119975000Y-95476458D02*
X118898532Y-94399990D01*
X118898532Y-94399990D02*
X115810000Y-94399990D01*
X117500000Y-104500000D02*
X114000000Y-101000000D01*
X114000000Y-101000000D02*
X113000000Y-101000000D01*
X120000000Y-104000000D02*
X120000000Y-104846545D01*
X123528113Y-108374658D02*
X134825342Y-108374658D01*
X120000000Y-104846545D02*
X123528113Y-108374658D01*
X134825342Y-108374658D02*
X137200000Y-106000000D01*
X137200000Y-106000000D02*
X138100000Y-106000000D01*
X138100000Y-106000000D02*
X140750000Y-106000000D01*
X140750000Y-106000000D02*
X142760000Y-108010000D01*
X119975000Y-101200000D02*
X119975000Y-103975000D01*
X119975000Y-103975000D02*
X120000000Y-104000000D01*
X113960000Y-99000000D02*
X113960000Y-99850000D01*
X113960000Y-99850000D02*
X116435022Y-102325021D01*
X116435022Y-102325021D02*
X118675000Y-102325000D01*
X118675000Y-102325000D02*
X118675000Y-101200000D01*
X118675000Y-101200000D02*
X118675000Y-103575000D01*
X118675000Y-103575000D02*
X119100000Y-104000000D01*
X119100000Y-104000000D02*
X119100000Y-107170000D01*
X119100000Y-107170000D02*
X118270000Y-108000000D01*
D48*
X132721994Y-77588006D02*
X132721994Y-66650505D01*
X122010583Y-88299417D02*
X132721994Y-77588006D01*
X122010583Y-89255528D02*
X122010583Y-88299417D01*
X132721994Y-67074769D02*
X132721994Y-66650505D01*
X157624874Y-56550139D02*
X153471372Y-60703641D01*
X157750000Y-54300000D02*
X158150000Y-54300000D01*
X158507808Y-56225139D02*
X158182808Y-56550139D01*
X153471372Y-65110538D02*
X153471372Y-65534802D01*
X158182808Y-56550139D02*
X157624874Y-56550139D01*
X153471372Y-60703641D02*
X153471372Y-65110538D01*
X158150000Y-54300000D02*
X158507808Y-54657808D01*
X158507808Y-54657808D02*
X158507808Y-56225139D01*
D49*
X119325000Y-96800000D02*
X119325000Y-95675000D01*
X119325000Y-95675000D02*
X118650000Y-95000000D01*
X118650000Y-95000000D02*
X111000000Y-95000000D01*
X111000000Y-95000000D02*
X109500000Y-96500000D01*
X109500000Y-96500000D02*
X109500001Y-104348543D01*
X109500001Y-104348543D02*
X113151458Y-108000000D01*
X113151458Y-108000000D02*
X114386498Y-108000000D01*
X114386498Y-108000000D02*
X115730000Y-108000000D01*
D48*
X123675000Y-98600000D02*
X123675000Y-97675000D01*
X123675000Y-97675000D02*
X123000000Y-97000000D01*
D49*
X123675000Y-98600000D02*
X120000000Y-98600000D01*
X119325000Y-97925000D02*
X119325000Y-96800000D01*
X120000000Y-98600000D02*
X119325000Y-97925000D01*
D51*
X106251733Y-86110344D02*
X106262649Y-86107852D01*
X108550000Y-81000000D02*
X106406238Y-81000000D01*
X106294849Y-86115202D02*
X106303602Y-86122182D01*
X106925668Y-86870243D02*
X106928160Y-86881159D01*
X104787999Y-82618239D02*
X104787999Y-84748001D01*
X106406238Y-81000000D02*
X104787999Y-82618239D01*
X112411586Y-84578390D02*
X112512462Y-84529810D01*
X113850000Y-77800000D02*
X114950000Y-78900000D01*
X108410001Y-86900001D02*
X108493446Y-86909404D01*
X104787999Y-84748001D02*
X105136875Y-85096877D01*
X105206684Y-85184415D02*
X105255263Y-85285291D01*
X110076555Y-86909404D02*
X110160001Y-86900001D01*
X105136875Y-85096877D02*
X105206684Y-85184415D01*
X105255263Y-85285291D02*
X105280178Y-85394449D01*
X105280178Y-85394449D02*
X105280178Y-85506413D01*
X105756446Y-86580901D02*
X105843983Y-86511092D01*
X110989118Y-86451177D02*
X111084950Y-86497328D01*
X105280178Y-85506413D02*
X105255264Y-85615571D01*
X105255264Y-85615571D02*
X105206684Y-85716447D01*
X105206684Y-85716447D02*
X105067067Y-85891522D01*
X106946979Y-86767333D02*
X106951837Y-86777420D01*
X105067067Y-85891522D02*
X105018486Y-85992398D01*
X108775598Y-87191556D02*
X108794403Y-87358447D01*
X108926192Y-87568188D02*
X108997294Y-87612865D01*
X106273845Y-86107852D02*
X106284761Y-86110344D01*
X106933018Y-86891247D02*
X106939999Y-86900001D01*
X105018486Y-85992398D02*
X104993573Y-86101556D01*
X104993573Y-86101556D02*
X104993573Y-86213520D01*
X111839862Y-86563645D02*
X111875216Y-86528290D01*
X105018487Y-86322678D02*
X105067067Y-86423554D01*
X111273323Y-84390193D02*
X111374200Y-84341613D01*
X106933018Y-86838044D02*
X106928160Y-86848131D01*
X111483357Y-84316699D02*
X111595321Y-84316699D01*
X108794403Y-87358447D02*
X108822137Y-87437708D01*
X104993573Y-86213520D02*
X105018487Y-86322678D01*
X105067067Y-86423554D02*
X105136875Y-86511091D01*
X105136875Y-86511091D02*
X105224414Y-86580901D01*
X105224414Y-86580901D02*
X105325289Y-86629479D01*
X105325289Y-86629479D02*
X105434446Y-86654394D01*
X105434446Y-86654394D02*
X105546412Y-86654395D01*
X112302428Y-84603304D02*
X112411586Y-84578390D01*
X105546412Y-86654395D02*
X105655569Y-86629480D01*
X111875216Y-86528290D02*
X111941535Y-86445128D01*
X106939999Y-86900001D02*
X108410001Y-86900001D01*
X105655569Y-86629480D02*
X105756446Y-86580901D01*
X105843983Y-86511092D02*
X106232892Y-86122182D01*
X111941535Y-86445128D02*
X111987686Y-86349295D01*
X111987685Y-86035531D02*
X111941535Y-85939698D01*
X106232892Y-86122182D02*
X106241645Y-86115202D01*
X111450803Y-86699782D02*
X111557169Y-86699783D01*
X111115977Y-84547539D02*
X111185786Y-84460002D01*
X106951837Y-86777420D02*
X106954329Y-86788336D01*
X106241645Y-86115202D02*
X106251733Y-86110344D01*
X111185786Y-85167108D02*
X111115977Y-85079571D01*
X111185786Y-84460002D02*
X111273323Y-84390193D01*
X106262649Y-86107852D02*
X106273845Y-86107852D01*
X111704479Y-84341613D02*
X111805355Y-84390193D01*
X108866814Y-87508810D02*
X108926192Y-87568188D01*
X106284761Y-86110344D02*
X106294849Y-86115202D01*
X106303602Y-86122182D02*
X106939999Y-86758579D01*
X109160001Y-87650001D02*
X109410001Y-87650001D01*
X106939999Y-86758579D02*
X106946979Y-86767333D01*
X111300000Y-79700000D02*
X111300000Y-78500000D01*
X106946979Y-86820536D02*
X106933018Y-86838044D01*
X106954329Y-86788336D02*
X106954329Y-86799532D01*
X109076555Y-87640599D02*
X109160001Y-87650001D01*
X108703187Y-87041193D02*
X108747864Y-87112295D01*
X106954329Y-86799532D02*
X106951837Y-86810448D01*
X111987686Y-86349295D02*
X112011355Y-86245596D01*
X106951837Y-86810448D02*
X106946979Y-86820536D01*
X112190464Y-84603304D02*
X112302428Y-84603304D01*
X108643809Y-86981815D02*
X108703187Y-87041193D01*
X111115977Y-85079571D02*
X111067397Y-84978694D01*
X108747864Y-87112295D02*
X108775598Y-87191556D01*
X106928160Y-86848131D02*
X106925668Y-86859047D01*
X110496360Y-86563645D02*
X110579520Y-86497328D01*
X110885419Y-86427508D02*
X110989118Y-86451177D01*
X106925668Y-86859047D02*
X106925668Y-86870243D01*
X106928160Y-86881159D02*
X106933018Y-86891247D01*
X108572707Y-86937138D02*
X108643809Y-86981815D01*
X108493446Y-86909404D02*
X108572707Y-86937138D01*
X108822137Y-87437708D02*
X108866814Y-87508810D01*
X108997294Y-87612865D02*
X109076555Y-87640599D01*
X109410001Y-87650001D02*
X109493446Y-87640599D01*
X109493446Y-87640599D02*
X109572707Y-87612865D01*
X109572707Y-87612865D02*
X109643809Y-87568188D01*
X109643809Y-87568188D02*
X109703187Y-87508810D01*
X109703187Y-87508810D02*
X109747864Y-87437708D01*
X109822137Y-87112295D02*
X109866814Y-87041193D01*
X109747864Y-87437708D02*
X109775598Y-87358447D01*
X109775598Y-87358447D02*
X109794403Y-87191556D01*
X109794403Y-87191556D02*
X109822137Y-87112295D01*
X109866814Y-87041193D02*
X109926192Y-86981815D01*
X109926192Y-86981815D02*
X109997294Y-86937138D01*
X109997294Y-86937138D02*
X110076555Y-86909404D01*
X111300000Y-78500000D02*
X112000000Y-77800000D01*
X110160001Y-86900001D02*
X110284230Y-86775775D01*
X111042483Y-84869537D02*
X111042483Y-84757573D01*
X110284230Y-86775775D02*
X110496360Y-86563645D01*
X110579520Y-86497328D02*
X110675352Y-86451178D01*
X110675352Y-86451178D02*
X110779053Y-86427508D01*
X110779053Y-86427508D02*
X110885419Y-86427508D01*
X112512462Y-84529810D02*
X112600000Y-84460002D01*
X111084950Y-86497328D02*
X111251270Y-86629964D01*
X111251270Y-86629964D02*
X111347103Y-86676115D01*
X111347103Y-86676115D02*
X111450803Y-86699782D01*
X111557169Y-86699783D02*
X111660869Y-86676114D01*
X111067397Y-84978694D02*
X111042483Y-84869537D01*
X111660869Y-86676114D02*
X111756702Y-86629963D01*
X111756702Y-86629963D02*
X111839862Y-86563645D01*
X112011355Y-86245596D02*
X112011355Y-86139230D01*
X112011355Y-86139230D02*
X111987685Y-86035531D01*
X111941535Y-85939698D02*
X111875216Y-85856538D01*
X111875216Y-85856538D02*
X111185786Y-85167108D01*
X111042483Y-84757573D02*
X111067397Y-84648415D01*
X111067397Y-84648415D02*
X111115977Y-84547539D01*
X112600000Y-81000000D02*
X111300000Y-79700000D01*
X111374200Y-84341613D02*
X111483357Y-84316699D01*
X111595321Y-84316699D02*
X111704479Y-84341613D01*
X111805355Y-84390193D02*
X111980430Y-84529810D01*
X111980430Y-84529810D02*
X112081307Y-84578390D01*
X112081307Y-84578390D02*
X112190464Y-84603304D01*
X112600000Y-84460002D02*
X112600000Y-81000000D01*
X112000000Y-77800000D02*
X113850000Y-77800000D01*
X114950000Y-78900000D02*
X114950000Y-79700000D01*
X114950000Y-79600000D02*
X114950000Y-79700000D01*
X114950000Y-79750000D02*
X114950000Y-79700000D01*
X114950000Y-82400000D02*
X114950000Y-84450000D01*
X114950000Y-84450000D02*
X114400000Y-85000000D01*
X112908671Y-85214348D02*
X112885003Y-85318047D01*
X114400000Y-85000000D02*
X114316839Y-85066318D01*
X112954822Y-85118515D02*
X112908671Y-85214348D01*
X114316839Y-85066318D02*
X114221006Y-85112468D01*
X113235489Y-84887531D02*
X113139657Y-84933681D01*
X113853874Y-86694108D02*
X113853875Y-86806072D01*
X114221006Y-85112468D02*
X114117307Y-85136137D01*
X114117307Y-85136137D02*
X114010941Y-85136137D01*
X102800000Y-88400000D02*
X101439999Y-87039999D01*
X113021140Y-85035355D02*
X112954822Y-85118515D01*
X113021140Y-85707106D02*
X113710571Y-86396537D01*
X114010941Y-85136137D02*
X113907241Y-85112468D01*
X113710572Y-87103643D02*
X113623035Y-87173452D01*
X113645087Y-84933681D02*
X113549254Y-84887531D01*
X113907241Y-85112468D02*
X113811409Y-85066318D01*
X113056496Y-85000000D02*
X113021140Y-85035355D01*
X113522159Y-87222032D02*
X113413001Y-87246946D01*
X101349999Y-84089999D02*
X105239998Y-80200000D01*
X113811409Y-85066318D02*
X113645087Y-84933681D01*
X113445555Y-84863862D02*
X113339189Y-84863862D01*
X113339189Y-84863862D02*
X113235489Y-84887531D01*
X112383896Y-87033836D02*
X112296360Y-87103643D01*
X113549254Y-84887531D02*
X113445555Y-84863862D01*
X113710571Y-86396537D02*
X113780380Y-86484074D01*
X113828960Y-86915229D02*
X113780380Y-87016106D01*
X113139657Y-84933681D02*
X113056496Y-85000000D01*
X112915928Y-87033836D02*
X112815052Y-86985256D01*
X112885003Y-85318047D02*
X112885003Y-85424414D01*
X113828959Y-86584951D02*
X113853874Y-86694108D01*
X112593930Y-86960342D02*
X112484774Y-86985255D01*
X112885003Y-85424414D02*
X112908671Y-85528113D01*
X112908671Y-85528113D02*
X112954822Y-85623946D01*
X113623035Y-87173452D02*
X113522159Y-87222032D01*
X101349999Y-86810001D02*
X101349999Y-84089999D01*
X112954822Y-85623946D02*
X113021140Y-85707106D01*
X113780380Y-86484074D02*
X113828959Y-86584951D01*
X105239998Y-80200000D02*
X108550000Y-80200000D01*
X113853875Y-86806072D02*
X113828960Y-86915229D01*
X113003466Y-87103643D02*
X112915928Y-87033836D01*
X113780380Y-87016106D02*
X113710572Y-87103643D01*
X113091003Y-87173452D02*
X113003466Y-87103643D01*
X113413001Y-87246946D02*
X113301037Y-87246946D01*
X112296360Y-87103643D02*
X112261004Y-87138996D01*
X113301037Y-87246946D02*
X113191879Y-87222033D01*
X113191879Y-87222033D02*
X113091003Y-87173452D01*
X101439999Y-86900001D02*
X101349999Y-86810001D01*
X112815052Y-86985256D02*
X112705894Y-86960342D01*
X112705894Y-86960342D02*
X112593930Y-86960342D01*
X112484774Y-86985255D02*
X112383896Y-87033836D01*
X112261004Y-87138996D02*
X111000000Y-88400000D01*
X111000000Y-88400000D02*
X102800000Y-88400000D01*
X101439999Y-87039999D02*
X101439999Y-86900001D01*
D48*
X120775001Y-32795001D02*
X120775001Y-37775001D01*
X126732939Y-40374999D02*
X130528642Y-40374999D01*
X136100000Y-44900000D02*
X136100000Y-45400000D01*
X136100000Y-43174996D02*
X136100000Y-44900000D01*
X133294147Y-40369143D02*
X136100000Y-43174996D01*
X130528642Y-40374999D02*
X130534498Y-40369143D01*
X120775001Y-37775001D02*
X123339476Y-40339476D01*
X126641470Y-40283530D02*
X126732939Y-40374999D01*
X126041468Y-40283530D02*
X126641470Y-40283530D01*
X117500000Y-29520000D02*
X120775001Y-32795001D01*
X123339476Y-40339476D02*
X125985522Y-40339476D01*
X130534498Y-40369143D02*
X133294147Y-40369143D01*
X125985522Y-40339476D02*
X126041468Y-40283530D01*
X145250000Y-53275000D02*
X145250000Y-54300000D01*
X144924988Y-52949988D02*
X145250000Y-53275000D01*
X144575001Y-45575001D02*
X144575001Y-51194481D01*
X144575001Y-51194481D02*
X144924988Y-51544468D01*
X144000000Y-45000000D02*
X144575001Y-45575001D01*
X144924988Y-51544468D02*
X144924988Y-52949988D01*
X136100000Y-45400000D02*
X136600000Y-45400000D01*
X136600000Y-45400000D02*
X137000000Y-45000000D01*
X137625002Y-44699998D02*
X137625002Y-45324998D01*
X137625002Y-45324998D02*
X136750000Y-46200000D01*
X126869353Y-39875002D02*
X130665056Y-39875002D01*
X121301589Y-37476593D02*
X123699998Y-39875002D01*
X137024989Y-44099985D02*
X137625002Y-44699998D01*
X125813585Y-39875002D02*
X125855068Y-39833519D01*
X123699998Y-39875002D02*
X125813585Y-39875002D01*
X121158621Y-32083623D02*
X121301589Y-32226591D01*
X121158621Y-30638621D02*
X121158621Y-32083623D01*
X125855068Y-39833519D02*
X126827870Y-39833519D01*
X130709186Y-39919132D02*
X133480547Y-39919132D01*
X137024989Y-43463574D02*
X137024989Y-44099985D01*
X121301589Y-32226591D02*
X121301589Y-37476593D01*
X117500000Y-26980000D02*
X121158621Y-30638621D01*
X133480547Y-39919132D02*
X137024989Y-43463574D01*
X130665056Y-39875002D02*
X130709186Y-39919132D01*
X126827870Y-39833519D02*
X126869353Y-39875002D01*
X136960175Y-46340742D02*
X137260174Y-46640741D01*
X136819433Y-46200000D02*
X136960175Y-46340742D01*
X136750000Y-46200000D02*
X136819433Y-46200000D01*
X144250000Y-54300000D02*
X144250000Y-52414424D01*
X144250000Y-52414424D02*
X144299978Y-52364446D01*
X136750000Y-46200000D02*
X136100000Y-46200000D01*
X143829655Y-57329655D02*
X143829655Y-56535750D01*
X155750000Y-75700000D02*
X155750000Y-74790294D01*
X149150000Y-65200000D02*
X149150000Y-58742028D01*
X143829655Y-56535750D02*
X143829655Y-56111486D01*
X155750000Y-74790294D02*
X156051105Y-74489189D01*
X156051105Y-74489189D02*
X156051105Y-72101105D01*
X156051105Y-72101105D02*
X149150000Y-65200000D01*
X149150000Y-58742028D02*
X148838663Y-58430691D01*
X148838663Y-58430691D02*
X144930691Y-58430691D01*
X144930691Y-58430691D02*
X143829655Y-57329655D01*
X131925000Y-51370769D02*
X133383498Y-52829267D01*
X133383498Y-52829267D02*
X133683497Y-53129266D01*
X131925000Y-47087001D02*
X131925000Y-51370769D01*
X114810000Y-24440000D02*
X114150000Y-25100000D01*
X114150000Y-25100000D02*
X114000000Y-25250000D01*
X131925000Y-47087001D02*
X129587001Y-47087001D01*
X129587001Y-47087001D02*
X129120498Y-46620498D01*
X129120498Y-46620498D02*
X129120498Y-44213496D01*
X116521412Y-42500000D02*
X113320000Y-39298588D01*
X129120498Y-44213496D02*
X127407002Y-42500000D01*
X127407002Y-42500000D02*
X116521412Y-42500000D01*
X113320000Y-39298588D02*
X113320000Y-25930000D01*
X113320000Y-25930000D02*
X114150000Y-25100000D01*
X131925000Y-47087001D02*
X132075000Y-47087001D01*
X132075000Y-47087001D02*
X133475000Y-47087001D01*
X133475000Y-47087001D02*
X133812999Y-47087001D01*
X155750000Y-75700000D02*
X155750000Y-75058337D01*
X117500000Y-24440000D02*
X114810000Y-24440000D01*
X133812999Y-47087001D02*
X133900000Y-47000000D01*
X117500000Y-32060000D02*
X117500000Y-38130000D01*
X117500000Y-38130000D02*
X121119991Y-41749991D01*
X121119991Y-41749991D02*
X127503578Y-41749991D01*
X127503578Y-41749991D02*
X128426828Y-42673241D01*
X133923241Y-42673241D02*
X134883899Y-43633899D01*
X128426828Y-42673241D02*
X133923241Y-42673241D01*
X134883899Y-43633899D02*
X134883899Y-48266101D01*
X134883899Y-48266101D02*
X134550000Y-48600000D01*
X144999603Y-55574603D02*
X145079785Y-55574603D01*
X144750000Y-54300000D02*
X144750000Y-55325000D01*
X144750000Y-55325000D02*
X144999603Y-55574603D01*
X135428598Y-49800011D02*
X135844903Y-49800011D01*
X135844903Y-49800011D02*
X136269167Y-49800011D01*
X134550000Y-48921413D02*
X135428598Y-49800011D01*
X134550000Y-48600000D02*
X134550000Y-48921413D01*
X134550000Y-48600000D02*
X133900000Y-48600000D01*
X146750000Y-52102055D02*
X146671962Y-52024017D01*
X146750000Y-54300000D02*
X146750000Y-52102055D01*
X147323764Y-32216308D02*
X147623763Y-31916309D01*
X147000000Y-32540072D02*
X147323764Y-32216308D01*
X147635000Y-31905072D02*
X147623763Y-31916309D01*
X147635000Y-30700000D02*
X147635000Y-31905072D01*
X147000000Y-36000000D02*
X147000000Y-32540072D01*
X146941616Y-49141691D02*
X146641617Y-49441690D01*
X147000000Y-49083307D02*
X146941616Y-49141691D01*
X147000000Y-45000000D02*
X147000000Y-49083307D01*
X137070000Y-26910000D02*
X137635000Y-27475000D01*
X137635000Y-27475000D02*
X137635000Y-30700000D01*
X130026498Y-26910000D02*
X137070000Y-26910000D01*
X129460000Y-25000000D02*
X129460000Y-26343502D01*
X129460000Y-26343502D02*
X130026498Y-26910000D01*
X138000000Y-32000000D02*
X138000000Y-31065000D01*
X138000000Y-31065000D02*
X137635000Y-30700000D01*
X137635000Y-30920000D02*
X137635000Y-30700000D01*
X129460000Y-25000000D02*
X126635000Y-27825000D01*
X126635000Y-27825000D02*
X126635000Y-30800000D01*
X130072001Y-23724999D02*
X128847999Y-23724999D01*
X123564890Y-31834892D02*
X128584997Y-36854999D01*
X131050001Y-24050001D02*
X130397003Y-24050001D01*
X125197999Y-27374999D02*
X123639999Y-27374999D01*
X122651425Y-31834892D02*
X123564890Y-31834892D01*
X123639999Y-27374999D02*
X122058643Y-28956355D01*
X128847999Y-23724999D02*
X125197999Y-27374999D01*
X130397003Y-24050001D02*
X130072001Y-23724999D01*
X122058643Y-28956355D02*
X122058643Y-31242110D01*
X122058643Y-31242110D02*
X122651425Y-31834892D01*
X132000000Y-25000000D02*
X131050001Y-24050001D01*
X146365000Y-48793305D02*
X146016616Y-49141689D01*
X147296964Y-51724015D02*
X147296964Y-52324019D01*
X147250000Y-53275000D02*
X147250000Y-54300000D01*
X146365000Y-37780000D02*
X146365000Y-48793305D01*
X146016616Y-50443667D02*
X147296964Y-51724015D01*
X147296964Y-52324019D02*
X147250000Y-52370983D01*
X147250000Y-52370983D02*
X147250000Y-53275000D01*
X146016616Y-49141689D02*
X146016616Y-50443667D01*
X136000000Y-36000000D02*
X136000000Y-36514998D01*
X136000000Y-36514998D02*
X135659999Y-36854999D01*
X146365000Y-37560000D02*
X145659999Y-36854999D01*
X145659999Y-36854999D02*
X143854999Y-36854999D01*
X146365000Y-37780000D02*
X146365000Y-37560000D01*
X143854999Y-36854999D02*
X143000000Y-36000000D01*
X125365000Y-37880000D02*
X125365000Y-37030000D01*
X125365000Y-37030000D02*
X125540001Y-36854999D01*
X125540001Y-36854999D02*
X128584997Y-36854999D01*
X135659999Y-36854999D02*
X136365000Y-37560000D01*
X136365000Y-37560000D02*
X136365000Y-37780000D01*
X128584997Y-36854999D02*
X135659999Y-36854999D01*
X147753565Y-53271435D02*
X147753565Y-51167027D01*
X149473338Y-49447254D02*
X149773337Y-49147255D01*
X147750000Y-53275000D02*
X147753565Y-53271435D01*
X147753565Y-51167027D02*
X149473338Y-49447254D01*
X147750000Y-54300000D02*
X147750000Y-53275000D01*
X140500000Y-33250000D02*
X140500000Y-34250000D01*
X139000000Y-29250000D02*
X139000000Y-28500000D01*
X139000000Y-28500000D02*
X140500000Y-27000000D01*
X149000000Y-29250000D02*
X149000000Y-30605000D01*
X149000000Y-30605000D02*
X148905000Y-30700000D01*
X138905000Y-30700000D02*
X138905000Y-29345000D01*
X138905000Y-29345000D02*
X139000000Y-29250000D01*
X134540000Y-25000000D02*
X138500000Y-25000000D01*
X138500000Y-25000000D02*
X140500000Y-27000000D01*
X140500000Y-33250000D02*
X130985000Y-33250000D01*
X140500000Y-27000000D02*
X140500000Y-33250000D01*
X130985000Y-33250000D02*
X128535000Y-30800000D01*
X128535000Y-30800000D02*
X127905000Y-30800000D01*
X145095000Y-37780000D02*
X145095000Y-50908903D01*
X145487329Y-51301232D02*
X145787328Y-51601231D01*
X145095000Y-50908903D02*
X145487329Y-51301232D01*
X162341066Y-72250000D02*
X162354962Y-72236104D01*
X159700000Y-72250000D02*
X162341066Y-72250000D01*
X154941421Y-66323456D02*
X154941421Y-65899192D01*
X154941421Y-69591703D02*
X154941421Y-66323456D01*
X156475000Y-71125282D02*
X154941421Y-69591703D01*
X144120000Y-25000000D02*
X144120000Y-26343502D01*
X144120000Y-26343502D02*
X142374998Y-28088504D01*
X142374998Y-28088504D02*
X142374998Y-36300002D01*
X142374998Y-36300002D02*
X143854996Y-37780000D01*
X143854996Y-37780000D02*
X144465000Y-37780000D01*
X144465000Y-37780000D02*
X145095000Y-37780000D01*
X144732001Y-23724999D02*
X143507999Y-23724999D01*
X140906682Y-39843318D02*
X137750000Y-39843318D01*
X141750000Y-25482998D02*
X141750000Y-39000000D01*
X141750000Y-39000000D02*
X140906682Y-39843318D01*
X143507999Y-23724999D02*
X141750000Y-25482998D01*
X145057003Y-24050001D02*
X144732001Y-23724999D01*
X146660000Y-25000000D02*
X145710001Y-24050001D01*
X145710001Y-24050001D02*
X145057003Y-24050001D01*
X141700000Y-62175000D02*
X141700000Y-62599264D01*
X141700000Y-62599264D02*
X141350000Y-62949264D01*
X141350000Y-62949264D02*
X141350000Y-66750000D01*
X141750000Y-57534232D02*
X141099969Y-56884201D01*
X141750000Y-60225000D02*
X141750000Y-57534232D01*
X141099969Y-56884201D02*
X141086653Y-56884201D01*
X138457719Y-52256405D02*
X138775000Y-51939124D01*
X141086653Y-56884201D02*
X138457719Y-54255267D01*
X138457719Y-54255267D02*
X138457719Y-52256405D01*
X138775000Y-51939124D02*
X138775000Y-51912017D01*
X131877252Y-39282226D02*
X131452988Y-39282226D01*
X133557226Y-39282226D02*
X131877252Y-39282226D01*
X134118318Y-39843318D02*
X133557226Y-39282226D01*
X137750000Y-39843318D02*
X134118318Y-39843318D01*
X140700000Y-67400000D02*
X141350000Y-66750000D01*
X139975000Y-67400000D02*
X140700000Y-67400000D01*
X138300000Y-66750000D02*
X139325000Y-66750000D01*
X139325000Y-66750000D02*
X139975000Y-67400000D01*
X137750000Y-39843318D02*
X136938318Y-39843318D01*
X136938318Y-39843318D02*
X135095000Y-38000000D01*
X135095000Y-38000000D02*
X135095000Y-37780000D01*
X124095000Y-37030000D02*
X124095000Y-37880000D01*
X121608632Y-31550229D02*
X124095000Y-34036597D01*
X121608632Y-28769955D02*
X121608632Y-31550229D01*
X127097131Y-23281456D02*
X121608632Y-28769955D01*
X147481456Y-23281456D02*
X144924869Y-23281456D01*
X128655131Y-23281456D02*
X127097131Y-23281456D01*
X128661599Y-23274988D02*
X128655131Y-23281456D01*
X143315131Y-23281456D02*
X130264869Y-23281456D01*
X144918401Y-23274988D02*
X143321599Y-23274988D01*
X144924869Y-23281456D02*
X144918401Y-23274988D01*
X149200000Y-25000000D02*
X147481456Y-23281456D01*
X130264869Y-23281456D02*
X130258401Y-23274988D01*
X124095000Y-34036597D02*
X124095000Y-37030000D01*
X130258401Y-23274988D02*
X128661599Y-23274988D01*
X143321599Y-23274988D02*
X143315131Y-23281456D01*
X141750000Y-52829237D02*
X141645849Y-52725086D01*
X141750000Y-54300000D02*
X141750000Y-52829237D01*
X141645849Y-52725086D02*
X141345850Y-52425087D01*
X124095000Y-39155000D02*
X124000000Y-39250000D01*
X124095000Y-37880000D02*
X124095000Y-39155000D01*
X129177271Y-56585713D02*
X129177271Y-56484224D01*
X113820003Y-59730001D02*
X126032983Y-59730001D01*
X137275000Y-56250000D02*
X138300000Y-56250000D01*
X108794999Y-59205001D02*
X112254997Y-59205001D01*
X130161530Y-55499965D02*
X136524965Y-55499965D01*
X126032983Y-59730001D02*
X129177271Y-56585713D01*
X113600002Y-59950002D02*
X113820003Y-59730001D01*
X112254997Y-59205001D02*
X112999998Y-59950002D01*
X112999998Y-59950002D02*
X113600002Y-59950002D01*
X136524965Y-55499965D02*
X137275000Y-56250000D01*
X108270000Y-59730000D02*
X108794999Y-59205001D01*
X129177271Y-56484224D02*
X130161530Y-55499965D01*
X130871815Y-58153012D02*
X122887247Y-66137580D01*
X104325000Y-62405000D02*
X106475001Y-60254999D01*
X135347847Y-56150024D02*
X132823188Y-56150024D01*
X130871815Y-58101397D02*
X130871815Y-58153012D01*
X106312580Y-66137580D02*
X104325000Y-64150000D01*
X106475001Y-60254999D02*
X107000000Y-59730000D01*
X135947823Y-56750000D02*
X135347847Y-56150024D01*
X132823188Y-56150024D02*
X130871815Y-58101397D01*
X104325000Y-64150000D02*
X104325000Y-62405000D01*
X138300000Y-56750000D02*
X135947823Y-56750000D01*
X122887247Y-66137580D02*
X106312580Y-66137580D01*
X135900522Y-53954341D02*
X136200521Y-53654342D01*
X135809863Y-54045000D02*
X135900522Y-53954341D01*
X113345010Y-59279990D02*
X125846583Y-59279990D01*
X125846583Y-59279990D02*
X128727260Y-56399313D01*
X128727260Y-56399313D02*
X128727260Y-56297824D01*
X128727260Y-56297824D02*
X130980084Y-54045000D01*
X130980084Y-54045000D02*
X135809863Y-54045000D01*
X113300000Y-59325000D02*
X113345010Y-59279990D01*
X139382719Y-54154534D02*
X139082720Y-53854535D01*
X139528185Y-54300000D02*
X139382719Y-54154534D01*
X140250000Y-54300000D02*
X139528185Y-54300000D01*
X107000000Y-63540000D02*
X108072548Y-64612548D01*
X108072548Y-64612548D02*
X111852805Y-64612548D01*
X131942587Y-58605719D02*
X131518323Y-58605719D01*
X133899085Y-57444999D02*
X132738365Y-58605719D01*
X132738365Y-58605719D02*
X131942587Y-58605719D01*
X135200001Y-57444999D02*
X133899085Y-57444999D01*
X138300000Y-57750000D02*
X135505002Y-57750000D01*
X135505002Y-57750000D02*
X135200001Y-57444999D01*
X106257538Y-62270000D02*
X105650000Y-62877538D01*
X105650000Y-63485002D02*
X107402556Y-65237558D01*
X105650000Y-62877538D02*
X105650000Y-63485002D01*
X128130839Y-58936034D02*
X128430838Y-58636035D01*
X107402556Y-65237558D02*
X121829315Y-65237558D01*
X107000000Y-62270000D02*
X106257538Y-62270000D01*
X121829315Y-65237558D02*
X128130839Y-58936034D01*
X130409002Y-57495887D02*
X130409002Y-57071623D01*
X122281184Y-65687569D02*
X130409002Y-57559751D01*
X130409002Y-57559751D02*
X130409002Y-57495887D01*
X104950000Y-63899999D02*
X106737570Y-65687569D01*
X104950000Y-62575000D02*
X104950000Y-63899999D01*
X106000001Y-61524999D02*
X104950000Y-62575000D01*
X107000000Y-61000000D02*
X106475001Y-61524999D01*
X106475001Y-61524999D02*
X106000001Y-61524999D01*
X106737570Y-65687569D02*
X122281184Y-65687569D01*
X138300000Y-57250000D02*
X135811413Y-57250000D01*
X135811413Y-57250000D02*
X135311404Y-56749991D01*
X135311404Y-56749991D02*
X133292549Y-56749991D01*
X133292549Y-56749991D02*
X132992550Y-57049990D01*
X147750000Y-78560000D02*
X147750000Y-76725000D01*
X133633847Y-95474989D02*
X134695542Y-94413294D01*
X147750000Y-76725000D02*
X147750000Y-75700000D01*
X134695542Y-91614458D02*
X147750000Y-78560000D01*
X131672276Y-95040000D02*
X132107265Y-95474989D01*
X134695542Y-94413294D02*
X134695542Y-91614458D01*
X132107265Y-95474989D02*
X133633847Y-95474989D01*
X126000000Y-95040000D02*
X131672276Y-95040000D01*
D49*
X118699999Y-95898541D02*
X118699999Y-96775001D01*
X118699999Y-96775001D02*
X118675000Y-96800000D01*
X111000000Y-105000000D02*
X112600000Y-105000000D01*
X112600000Y-105000000D02*
X112900000Y-104700000D01*
X110100010Y-104100010D02*
X111000000Y-105000000D01*
X112325001Y-95674999D02*
X110100010Y-97899990D01*
X118476457Y-95674999D02*
X112325001Y-95674999D01*
X112900000Y-104700000D02*
X112900000Y-104000000D01*
X110100010Y-97899990D02*
X110100010Y-104100010D01*
X118699999Y-95898541D02*
X118476457Y-95674999D01*
X112900000Y-104000000D02*
X112900000Y-103900000D01*
X115850000Y-82400000D02*
X116550000Y-81700000D01*
X117679999Y-81574999D02*
X118175001Y-81574999D01*
X116550000Y-81700000D02*
X117599999Y-81700000D01*
X117599999Y-81700000D02*
X117599999Y-81654999D01*
X117599999Y-81654999D02*
X117679999Y-81574999D01*
X118175001Y-81574999D02*
X118275000Y-81475000D01*
D48*
X156091747Y-66666747D02*
X156091747Y-66537826D01*
X159700000Y-69250000D02*
X158675000Y-69250000D01*
X158675000Y-69250000D02*
X156091747Y-66666747D01*
X126000000Y-65575000D02*
X128050000Y-65575000D01*
X128050000Y-65575000D02*
X128100000Y-65525000D01*
X116750000Y-48525000D02*
X117950000Y-48525000D01*
X116750000Y-48525000D02*
X116750000Y-43364998D01*
X111825001Y-45289997D02*
X111825001Y-46260001D01*
X116750000Y-43364998D02*
X116210001Y-42824999D01*
X116210001Y-42824999D02*
X114289999Y-42824999D01*
X106450001Y-48892997D02*
X106450001Y-57910001D01*
X106450001Y-57910001D02*
X107000000Y-58460000D01*
X114289999Y-42824999D02*
X111825001Y-45289997D01*
X111825001Y-46260001D02*
X110380003Y-47704999D01*
X110380003Y-47704999D02*
X107637999Y-47704999D01*
X107637999Y-47704999D02*
X106450001Y-48892997D01*
X124730000Y-44250000D02*
X123386498Y-44250000D01*
X123386498Y-44250000D02*
X122473499Y-45162999D01*
X122473499Y-45162999D02*
X119987001Y-45162999D01*
X119987001Y-45162999D02*
X116750000Y-48400000D01*
X116750000Y-48400000D02*
X116750000Y-48525000D01*
X126270000Y-54330000D02*
X124320000Y-54330000D01*
X124320000Y-54330000D02*
X124310000Y-54320000D01*
X124310000Y-54320000D02*
X124310000Y-51210000D01*
X124310000Y-51210000D02*
X124300000Y-51200000D01*
X138300000Y-64750000D02*
X136802586Y-64750000D01*
X136802586Y-64750000D02*
X136703197Y-64849389D01*
X130410000Y-51900000D02*
X128277249Y-54032751D01*
X128277249Y-56122751D02*
X125800000Y-58600000D01*
X125800000Y-58600000D02*
X120399264Y-58600000D01*
X120399264Y-58600000D02*
X119975000Y-58600000D01*
X128277249Y-54032751D02*
X128277249Y-56122751D01*
X124300000Y-50250000D02*
X128260000Y-50250000D01*
X128260000Y-50250000D02*
X128510000Y-50500000D01*
X128510000Y-50500000D02*
X129010000Y-50500000D01*
X129010000Y-50500000D02*
X130410000Y-51900000D01*
D49*
X118275000Y-80825000D02*
X118175001Y-80725001D01*
X118175001Y-80725001D02*
X117679999Y-80725001D01*
X116750000Y-80600000D02*
X115863610Y-79713610D01*
X115863610Y-79713610D02*
X115850000Y-79700000D01*
X117679999Y-80725001D02*
X117599999Y-80645001D01*
X117599999Y-80645001D02*
X117599999Y-80600000D01*
X117599999Y-80600000D02*
X116750000Y-80600000D01*
D48*
X122000000Y-77600000D02*
X122025000Y-77625000D01*
X122025000Y-77625000D02*
X122025000Y-80175000D01*
X123550000Y-75500000D02*
X123550000Y-76050000D01*
X123550000Y-76050000D02*
X122000000Y-77600000D01*
X117300000Y-77951141D02*
X117300000Y-76050000D01*
X118623859Y-79275000D02*
X117300000Y-77951141D01*
X119175000Y-79275000D02*
X118623859Y-79275000D01*
X117300000Y-76050000D02*
X117750000Y-75600000D01*
X117750000Y-75600000D02*
X117750000Y-75500000D01*
X117274998Y-51200000D02*
X120950000Y-51200000D01*
X120950000Y-51200000D02*
X121700000Y-51200000D01*
X115250000Y-49175002D02*
X117274998Y-51200000D01*
X115250000Y-43975000D02*
X115250000Y-49175002D01*
X164645068Y-65252302D02*
X164697370Y-65200000D01*
X164697370Y-65200000D02*
X166800000Y-65200000D01*
X159700000Y-64750000D02*
X162984036Y-64750000D01*
X162984036Y-64750000D02*
X163486338Y-65252302D01*
X163486338Y-65252302D02*
X164645068Y-65252302D01*
X151825000Y-51425000D02*
X151250000Y-52000000D01*
X151250000Y-52000000D02*
X151250000Y-54300000D01*
X151825000Y-47800000D02*
X151825000Y-51425000D01*
X141200000Y-48460002D02*
X139687001Y-49973001D01*
X135439999Y-49175001D02*
X135374999Y-49110001D01*
X139687001Y-49973001D02*
X139687001Y-50721761D01*
X135374999Y-49110001D02*
X135374999Y-47075001D01*
X136608903Y-49175001D02*
X135439999Y-49175001D01*
X135450000Y-47000000D02*
X136100000Y-47000000D01*
X138120899Y-51287001D02*
X136894177Y-50060279D01*
X139687001Y-50721761D02*
X139121761Y-51287001D01*
X139121761Y-51287001D02*
X138120899Y-51287001D01*
X136894177Y-50060279D02*
X136894177Y-49460275D01*
X136894177Y-49460275D02*
X136608903Y-49175001D01*
X135374999Y-47075001D02*
X135450000Y-47000000D01*
X141200000Y-43600000D02*
X141200000Y-48460002D01*
X136100000Y-48600000D02*
X136654357Y-48600000D01*
X136654357Y-48600000D02*
X136654688Y-48599669D01*
X136654688Y-48599669D02*
X136999669Y-48599669D01*
X136999669Y-48599669D02*
X138600000Y-50200000D01*
X121000000Y-46250000D02*
X121000000Y-48600000D01*
X121000000Y-48600000D02*
X120950000Y-48650000D01*
X120950000Y-48650000D02*
X120950000Y-48675000D01*
X120950000Y-48675000D02*
X121575000Y-49300000D01*
X121575000Y-49300000D02*
X121700000Y-49300000D01*
X121000000Y-46250000D02*
X125270000Y-46250000D01*
X125270000Y-46250000D02*
X127270000Y-44250000D01*
X125000000Y-28000000D02*
X125000000Y-30435000D01*
X125000000Y-30435000D02*
X125365000Y-30800000D01*
X136450000Y-28000000D02*
X136450000Y-30615000D01*
X136450000Y-30615000D02*
X136365000Y-30700000D01*
X145450000Y-28000000D02*
X145450000Y-28550000D01*
X145450000Y-28550000D02*
X146365000Y-29465000D01*
X146365000Y-29465000D02*
X146365000Y-29850000D01*
X146365000Y-29850000D02*
X146365000Y-30700000D01*
X130011999Y-61258001D02*
X129250000Y-62020000D01*
X131020000Y-60250000D02*
X130011999Y-61258001D01*
X138300000Y-60250000D02*
X131020000Y-60250000D01*
X163765762Y-60625002D02*
X165125022Y-59265742D01*
X173050001Y-41424999D02*
X173350000Y-41125000D01*
X165125022Y-59265742D02*
X165125022Y-49349978D01*
X161699998Y-60625002D02*
X163765762Y-60625002D01*
X159700000Y-60250000D02*
X161324996Y-60250000D01*
X165125022Y-49349978D02*
X173050001Y-41424999D01*
X161324996Y-60250000D02*
X161699998Y-60625002D01*
X171591951Y-43966949D02*
X171891950Y-43666950D01*
X165575033Y-49983867D02*
X171591951Y-43966949D01*
X163952162Y-61075013D02*
X165575033Y-59452142D01*
X161513598Y-61075013D02*
X163952162Y-61075013D01*
X161188585Y-60750000D02*
X161513598Y-61075013D01*
X165575033Y-59452142D02*
X165575033Y-49983867D01*
X159700000Y-60750000D02*
X161188585Y-60750000D01*
X159700000Y-61250000D02*
X161052175Y-61250000D01*
X161327198Y-61525024D02*
X164138562Y-61525024D01*
X161052175Y-61250000D02*
X161327198Y-61525024D01*
X166277619Y-50222381D02*
X168375001Y-48124999D01*
X164138562Y-61525024D02*
X166277619Y-59385967D01*
X166277619Y-59385967D02*
X166277619Y-50222381D01*
X168375001Y-48124999D02*
X168675000Y-47825000D01*
X159700000Y-62750000D02*
X160642941Y-62750000D01*
X160642941Y-62750000D02*
X160767998Y-62875057D01*
X167443281Y-51524034D02*
X170068896Y-48898419D01*
X160767998Y-62875057D02*
X165524947Y-62875057D01*
X165524947Y-62875057D02*
X167443281Y-60956723D01*
X167443281Y-60956723D02*
X167443281Y-51524034D01*
X170068896Y-48898419D02*
X170368895Y-48598420D01*
X151750000Y-75700000D02*
X151750000Y-73399998D01*
X151750000Y-73399998D02*
X151760154Y-73389844D01*
X177719978Y-74023318D02*
X177719978Y-74447582D01*
X178525000Y-67704999D02*
X177719978Y-68510021D01*
X182520000Y-66350000D02*
X181165001Y-67704999D01*
X177719978Y-68510021D02*
X177719978Y-74023318D01*
X181165001Y-67704999D02*
X178525000Y-67704999D01*
X152250000Y-75700000D02*
X152250000Y-73825002D01*
X152250000Y-73825002D02*
X152575210Y-73499792D01*
X152575210Y-73499792D02*
X152575210Y-73409108D01*
X154750000Y-75700000D02*
X154750000Y-73736270D01*
X154750000Y-73736270D02*
X154825021Y-73661249D01*
X155250000Y-74365290D02*
X155426103Y-74189187D01*
X155250000Y-75700000D02*
X155250000Y-74365290D01*
M02*
