G04 #@! TF.FileFunction,Paste,Top*
%FSLAX46Y46*%
G04 Gerber Fmt 4.6, Leading zero omitted, Abs format (unit mm)*
G04 Created by KiCad (PCBNEW 4.0.4-stable) date Friday, January 26, 2018 'AMt' 12:54:04 AM*
%MOMM*%
%LPD*%
G01*
G04 APERTURE LIST*
%ADD10C,0.100000*%
%ADD11R,0.570000X0.490000*%
%ADD12R,0.970000X1.170000*%
%ADD13R,0.458000X0.810000*%
%ADD14R,0.500000X0.400000*%
%ADD15R,0.400000X0.500000*%
%ADD16R,0.700000X0.700000*%
%ADD17R,0.650000X0.450000*%
%ADD18R,2.350000X1.850000*%
%ADD19R,2.150000X0.350000*%
%ADD20R,0.490000X0.570000*%
%ADD21R,0.360000X0.560000*%
%ADD22R,0.850000X3.050000*%
%ADD23R,0.560000X0.360000*%
%ADD24R,0.150000X1.400000*%
%ADD25R,1.400000X0.150000*%
%ADD26R,0.330000X0.690000*%
%ADD27R,0.930000X0.930000*%
%ADD28R,3.090000X0.930000*%
%ADD29R,0.210000X1.010000*%
%ADD30R,0.490000X0.250000*%
%ADD31R,0.280000X0.530000*%
%ADD32R,0.530000X0.280000*%
%ADD33R,1.080000X1.080000*%
%ADD34R,5.350000X1.350000*%
%ADD35R,0.300000X1.000000*%
%ADD36R,0.450000X1.000000*%
%ADD37R,2.050000X2.150000*%
%ADD38R,1.850000X2.250000*%
G04 APERTURE END LIST*
D10*
D11*
X143500000Y-103000000D03*
X145500000Y-103960000D03*
X145500000Y-102050000D03*
D12*
X122750000Y-61025000D03*
X118250000Y-61025000D03*
X118250000Y-68975000D03*
X122750000Y-68975000D03*
D13*
X125365000Y-37880000D03*
X126635000Y-37880000D03*
X127905000Y-37880000D03*
X124095000Y-37880000D03*
X124095000Y-30800000D03*
X125365000Y-30800000D03*
X126635000Y-30800000D03*
X127905000Y-30800000D03*
D14*
X129425000Y-85000000D03*
X128375000Y-85000000D03*
D15*
X144875000Y-78950000D03*
X144875000Y-80000000D03*
X155850000Y-78975000D03*
X155850000Y-80025000D03*
X144000000Y-51025000D03*
X144000000Y-49975000D03*
X122000000Y-94475000D03*
X122000000Y-95525000D03*
D14*
X117025000Y-86500000D03*
X115975000Y-86500000D03*
X135025000Y-58800000D03*
X133975000Y-58800000D03*
X134625000Y-63050000D03*
X133575000Y-63050000D03*
D15*
X150600000Y-51025000D03*
X150600000Y-49975000D03*
D14*
X162975000Y-63600000D03*
X164025000Y-63600000D03*
X162975000Y-68000000D03*
X164025000Y-68000000D03*
D15*
X142000000Y-49975000D03*
X142000000Y-51025000D03*
D14*
X162500000Y-57750000D03*
X163550000Y-57750000D03*
X162975000Y-71200000D03*
X164025000Y-71200000D03*
D15*
X154150000Y-79925000D03*
X154150000Y-78875000D03*
X143375000Y-78950000D03*
X143375000Y-80000000D03*
D14*
X135025000Y-70000000D03*
X133975000Y-70000000D03*
X133200000Y-61275000D03*
X132150000Y-61275000D03*
X139475000Y-102000000D03*
X140525000Y-102000000D03*
X165595000Y-101460000D03*
X164545000Y-101460000D03*
D15*
X155000000Y-97050000D03*
X155000000Y-96000000D03*
D14*
X128525000Y-41000000D03*
X127475000Y-41000000D03*
X138525000Y-40900000D03*
X137475000Y-40900000D03*
X148525000Y-41000000D03*
X147475000Y-41000000D03*
X146475000Y-82000000D03*
X147525000Y-82000000D03*
X150875000Y-82000000D03*
X151925000Y-82000000D03*
X139475000Y-48000000D03*
X140525000Y-48000000D03*
X126975000Y-48250000D03*
X128025000Y-48250000D03*
X112525000Y-69000000D03*
X111475000Y-69000000D03*
X107325000Y-90500000D03*
X106275000Y-90500000D03*
D16*
X133000000Y-92800000D03*
X133000000Y-91200000D03*
D17*
X152550000Y-101000000D03*
X151450000Y-101000000D03*
D16*
X139000000Y-97800000D03*
X139000000Y-96200000D03*
X118910572Y-88603643D03*
X120510572Y-88603643D03*
X114600000Y-73400000D03*
X114600000Y-75000000D03*
D18*
X103050000Y-76550000D03*
X103050000Y-85450000D03*
X108550000Y-76550000D03*
X108550000Y-85450000D03*
D19*
X108550000Y-81000000D03*
X108550000Y-80200000D03*
X108550000Y-79400000D03*
X108550000Y-81800000D03*
X108550000Y-82600000D03*
D20*
X113000000Y-101000000D03*
X113960000Y-99000000D03*
X112050000Y-99000000D03*
X128780000Y-90200000D03*
X129740000Y-88200000D03*
X127830000Y-88200000D03*
D11*
X150000000Y-96000000D03*
X152000000Y-96960000D03*
X152000000Y-95050000D03*
X128000000Y-96000000D03*
X126000000Y-95040000D03*
X126000000Y-96950000D03*
D21*
X112900000Y-104000000D03*
X112000000Y-104000000D03*
X115850000Y-82400000D03*
X114950000Y-82400000D03*
D22*
X138100000Y-106000000D03*
X131900000Y-106000000D03*
D21*
X120000000Y-104000000D03*
X119100000Y-104000000D03*
D23*
X140000000Y-92600000D03*
X140000000Y-93500000D03*
X133000000Y-101000000D03*
X133000000Y-100100000D03*
D21*
X123675000Y-98600000D03*
X124575000Y-98600000D03*
X135000000Y-99000000D03*
X135900000Y-99000000D03*
X124100000Y-28000000D03*
X125000000Y-28000000D03*
X135550000Y-28000000D03*
X136450000Y-28000000D03*
X144550000Y-28000000D03*
X145450000Y-28000000D03*
D23*
X124310000Y-55220000D03*
X124310000Y-54320000D03*
D21*
X126270000Y-54330000D03*
X127170000Y-54330000D03*
D23*
X128100000Y-66425000D03*
X128100000Y-65525000D03*
D21*
X111800000Y-63500000D03*
X112700000Y-63500000D03*
D23*
X128510000Y-50500000D03*
X128510000Y-49600000D03*
D21*
X115850000Y-79700000D03*
X114950000Y-79700000D03*
D23*
X124500000Y-78050000D03*
X124500000Y-78950000D03*
D21*
X121450000Y-75500000D03*
X120550000Y-75500000D03*
X124450000Y-75500000D03*
X123550000Y-75500000D03*
X118650000Y-75500000D03*
X117750000Y-75500000D03*
X116260572Y-88603643D03*
X117160572Y-88603643D03*
X118600000Y-73500000D03*
X117700000Y-73500000D03*
D12*
X119750000Y-36025000D03*
X115250000Y-36025000D03*
X115250000Y-43975000D03*
X119750000Y-43975000D03*
D24*
X140250000Y-75700000D03*
X140750000Y-75700000D03*
X141250000Y-75700000D03*
X141750000Y-75700000D03*
X142250000Y-75700000D03*
X142750000Y-75700000D03*
X143250000Y-75700000D03*
X143750000Y-75700000D03*
X144250000Y-75700000D03*
X144750000Y-75700000D03*
X145250000Y-75700000D03*
X145750000Y-75700000D03*
X146250000Y-75700000D03*
X146750000Y-75700000D03*
X147250000Y-75700000D03*
X147750000Y-75700000D03*
X148250000Y-75700000D03*
X148750000Y-75700000D03*
X149250000Y-75700000D03*
X149750000Y-75700000D03*
X150250000Y-75700000D03*
X150750000Y-75700000D03*
X151250000Y-75700000D03*
X151750000Y-75700000D03*
X152250000Y-75700000D03*
X152750000Y-75700000D03*
X153250000Y-75700000D03*
X153750000Y-75700000D03*
X154250000Y-75700000D03*
X154750000Y-75700000D03*
X155250000Y-75700000D03*
X155750000Y-75700000D03*
X156250000Y-75700000D03*
X156750000Y-75700000D03*
X157250000Y-75700000D03*
X157750000Y-75700000D03*
D25*
X159700000Y-73750000D03*
X159700000Y-73250000D03*
X159700000Y-72750000D03*
X159700000Y-72250000D03*
X159700000Y-71750000D03*
X159700000Y-71250000D03*
X159700000Y-70750000D03*
X159700000Y-70250000D03*
X159700000Y-69750000D03*
X159700000Y-69250000D03*
X159700000Y-68750000D03*
X159700000Y-68250000D03*
X159700000Y-67750000D03*
X159700000Y-67250000D03*
X159700000Y-66750000D03*
X159700000Y-66250000D03*
X159700000Y-65750000D03*
X159700000Y-65250000D03*
X159700000Y-64750000D03*
X159700000Y-64250000D03*
X159700000Y-63750000D03*
X159700000Y-63250000D03*
X159700000Y-62750000D03*
X159700000Y-62250000D03*
X159700000Y-61750000D03*
X159700000Y-61250000D03*
X159700000Y-60750000D03*
X159700000Y-60250000D03*
X159700000Y-59750000D03*
X159700000Y-59250000D03*
X159700000Y-58750000D03*
X159700000Y-58250000D03*
X159700000Y-57750000D03*
X159700000Y-57250000D03*
X159700000Y-56750000D03*
X159700000Y-56250000D03*
D24*
X157750000Y-54300000D03*
X157250000Y-54300000D03*
X156750000Y-54300000D03*
X156250000Y-54300000D03*
X155750000Y-54300000D03*
X155250000Y-54300000D03*
X154750000Y-54300000D03*
X154250000Y-54300000D03*
X153750000Y-54300000D03*
X153250000Y-54300000D03*
X152750000Y-54300000D03*
X152250000Y-54300000D03*
X151750000Y-54300000D03*
X151250000Y-54300000D03*
X150750000Y-54300000D03*
X150250000Y-54300000D03*
X149750000Y-54300000D03*
X149250000Y-54300000D03*
X148750000Y-54300000D03*
X148250000Y-54300000D03*
X147750000Y-54300000D03*
X147250000Y-54300000D03*
X146750000Y-54300000D03*
X146250000Y-54300000D03*
X145750000Y-54300000D03*
X145250000Y-54300000D03*
X144750000Y-54300000D03*
X144250000Y-54300000D03*
X143750000Y-54300000D03*
X143250000Y-54300000D03*
X142750000Y-54300000D03*
X142250000Y-54300000D03*
X141750000Y-54300000D03*
X141250000Y-54300000D03*
X140750000Y-54300000D03*
X140250000Y-54300000D03*
D25*
X138300000Y-56250000D03*
X138300000Y-56750000D03*
X138300000Y-57250000D03*
X138300000Y-57750000D03*
X138300000Y-58250000D03*
X138300000Y-58750000D03*
X138300000Y-59250000D03*
X138300000Y-59750000D03*
X138300000Y-60250000D03*
X138300000Y-60750000D03*
X138300000Y-61250000D03*
X138300000Y-61750000D03*
X138300000Y-62250000D03*
X138300000Y-62750000D03*
X138300000Y-63250000D03*
X138300000Y-63750000D03*
X138300000Y-64250000D03*
X138300000Y-64750000D03*
X138300000Y-65250000D03*
X138300000Y-65750000D03*
X138300000Y-66250000D03*
X138300000Y-66750000D03*
X138300000Y-67250000D03*
X138300000Y-67750000D03*
X138300000Y-68250000D03*
X138300000Y-68750000D03*
X138300000Y-69250000D03*
X138300000Y-69750000D03*
X138300000Y-70250000D03*
X138300000Y-70750000D03*
X138300000Y-71250000D03*
X138300000Y-71750000D03*
X138300000Y-72250000D03*
X138300000Y-72750000D03*
X138300000Y-73250000D03*
X138300000Y-73750000D03*
D26*
X144050000Y-96350000D03*
X145000000Y-96350000D03*
X145950000Y-96350000D03*
X144050000Y-93650000D03*
X145950000Y-93650000D03*
D27*
X162000000Y-97050000D03*
X159700000Y-97050000D03*
X164300000Y-97050000D03*
D28*
X162000000Y-90950000D03*
D29*
X119325000Y-96800000D03*
X119975000Y-96800000D03*
X118675000Y-96800000D03*
X118025000Y-96800000D03*
X119975000Y-101200000D03*
X119325000Y-101200000D03*
X118675000Y-101200000D03*
X118025000Y-101200000D03*
D13*
X136365000Y-37780000D03*
X137635000Y-37780000D03*
X138905000Y-37780000D03*
X135095000Y-37780000D03*
X135095000Y-30700000D03*
X136365000Y-30700000D03*
X137635000Y-30700000D03*
X138905000Y-30700000D03*
X146365000Y-37780000D03*
X147635000Y-37780000D03*
X148905000Y-37780000D03*
X145095000Y-37780000D03*
X145095000Y-30700000D03*
X146365000Y-30700000D03*
X147635000Y-30700000D03*
X148905000Y-30700000D03*
D30*
X136100000Y-47000000D03*
X133900000Y-47000000D03*
X136100000Y-47800000D03*
X136100000Y-48600000D03*
X136100000Y-46200000D03*
X136100000Y-45400000D03*
X133900000Y-46200000D03*
X133900000Y-45400000D03*
X133900000Y-47800000D03*
X133900000Y-48600000D03*
D17*
X121700000Y-50250000D03*
X121700000Y-49300000D03*
X121700000Y-51200000D03*
X124300000Y-51200000D03*
X124300000Y-50250000D03*
X124300000Y-49300000D03*
D31*
X121125000Y-79275000D03*
X120475000Y-79275000D03*
X119825000Y-79275000D03*
X119175000Y-79275000D03*
D32*
X118275000Y-80175000D03*
X118275000Y-80825000D03*
X118275000Y-81475000D03*
X118275000Y-82125000D03*
D31*
X119175000Y-83025000D03*
X119825000Y-83025000D03*
X120475000Y-83025000D03*
X121125000Y-83025000D03*
D32*
X122025000Y-82125000D03*
X122025000Y-81475000D03*
X122025000Y-80825000D03*
X122025000Y-80175000D03*
D33*
X120800000Y-80500000D03*
X120800000Y-81800000D03*
X119500000Y-80500000D03*
X119500000Y-81800000D03*
D34*
X145000000Y-88000000D03*
X153500000Y-88000000D03*
D14*
X171000000Y-56850000D03*
X172050000Y-56850000D03*
D12*
X112250000Y-56475000D03*
X116750000Y-56475000D03*
X116750000Y-48525000D03*
X112250000Y-48525000D03*
D35*
X171725000Y-64175000D03*
D36*
X171000000Y-64175000D03*
D35*
X172375000Y-64175000D03*
D36*
X173100000Y-64175000D03*
X171000000Y-59825000D03*
D35*
X171725000Y-59825000D03*
X172375000Y-59825000D03*
D36*
X173100000Y-59825000D03*
D37*
X104000000Y-37450000D03*
X104000000Y-45350000D03*
D38*
X110500000Y-44800000D03*
X110500000Y-39400000D03*
M02*
