G04 #@! TF.FileFunction,Copper,L2,Bot,Signal*
%FSLAX46Y46*%
G04 Gerber Fmt 4.6, Leading zero omitted, Abs format (unit mm)*
G04 Created by KiCad (PCBNEW 4.0.4-stable) date Friday, January 26, 2018 'AMt' 12:54:04 AM*
%MOMM*%
%LPD*%
G01*
G04 APERTURE LIST*
%ADD10C,0.100000*%
%ADD11C,1.900000*%
%ADD12C,6.350000*%
%ADD13C,1.720000*%
%ADD14C,1.524000*%
%ADD15C,1.050000*%
%ADD16O,2.200000X1.950000*%
%ADD17O,2.000000X1.700000*%
%ADD18C,0.600000*%
%ADD19C,0.250000*%
%ADD20C,0.400000*%
%ADD21C,0.254000*%
G04 APERTURE END LIST*
D10*
D11*
X124000000Y-106000000D03*
X124000000Y-103460000D03*
X124000000Y-100920000D03*
D12*
X190810000Y-105090000D03*
D13*
X179980000Y-25710000D03*
X179980000Y-28250000D03*
X179980000Y-30790000D03*
X179980000Y-33330000D03*
X179980000Y-35870000D03*
X179980000Y-38410000D03*
X179980000Y-40950000D03*
X179980000Y-43490000D03*
X179980000Y-46030000D03*
X179980000Y-48570000D03*
X179980000Y-51110000D03*
X179980000Y-53650000D03*
X179980000Y-56190000D03*
X179980000Y-58730000D03*
X179980000Y-61270000D03*
X179980000Y-63810000D03*
X179980000Y-66350000D03*
X179980000Y-68890000D03*
X179980000Y-71430000D03*
X179980000Y-73970000D03*
X179980000Y-76510000D03*
X179980000Y-79050000D03*
X179980000Y-81590000D03*
X179980000Y-84130000D03*
X179980000Y-86670000D03*
X179980000Y-89210000D03*
X179980000Y-91750000D03*
X179980000Y-94290000D03*
X179980000Y-96830000D03*
X179980000Y-99370000D03*
X179980000Y-101910000D03*
X179980000Y-104450000D03*
X182520000Y-25710000D03*
X182520000Y-28250000D03*
X182520000Y-30790000D03*
X182520000Y-33330000D03*
X182520000Y-35870000D03*
X182520000Y-38410000D03*
X182520000Y-40950000D03*
X182520000Y-43490000D03*
X182520000Y-46030000D03*
X182520000Y-48570000D03*
X182520000Y-51110000D03*
X182520000Y-53650000D03*
X182520000Y-56190000D03*
X182520000Y-58730000D03*
X182520000Y-61270000D03*
X182520000Y-63810000D03*
X182520000Y-66350000D03*
X182520000Y-68890000D03*
X182520000Y-71430000D03*
X182520000Y-73970000D03*
X182520000Y-76510000D03*
X182520000Y-79050000D03*
X182520000Y-81590000D03*
X182520000Y-84130000D03*
X182520000Y-86670000D03*
X182520000Y-89210000D03*
X182520000Y-91750000D03*
X182520000Y-94290000D03*
X182520000Y-96830000D03*
X182520000Y-99370000D03*
X182520000Y-101910000D03*
X182520000Y-104450000D03*
D11*
X129630000Y-102120000D03*
X129630000Y-99580000D03*
X163000000Y-107000000D03*
X160460000Y-107000000D03*
X157920000Y-107000000D03*
X142760000Y-108010000D03*
X145300000Y-108010000D03*
X118270000Y-108000000D03*
X115730000Y-108000000D03*
D14*
X106000000Y-83200000D03*
X106000000Y-78800000D03*
D11*
X117500000Y-29520000D03*
X117500000Y-26980000D03*
X117500000Y-24440000D03*
X117500000Y-32060000D03*
X129460000Y-25000000D03*
X132000000Y-25000000D03*
X134540000Y-25000000D03*
X144120000Y-25000000D03*
X146660000Y-25000000D03*
X149200000Y-25000000D03*
X103000000Y-91230000D03*
X103000000Y-93770000D03*
X108250000Y-51520000D03*
X108250000Y-48980000D03*
D14*
X151825000Y-47800000D03*
X166800000Y-65200000D03*
X141200000Y-43600000D03*
X138600000Y-50200000D03*
X130600000Y-46000000D03*
X129250000Y-62020000D03*
X130410000Y-51900000D03*
X121000000Y-46250000D03*
D11*
X127270000Y-44250000D03*
X124730000Y-44250000D03*
D12*
X105080000Y-27620000D03*
X105080000Y-101280000D03*
X190810000Y-25080000D03*
D11*
X150000000Y-107270000D03*
X150000000Y-104730000D03*
D15*
X108270000Y-63540000D03*
X108270000Y-62270000D03*
X108270000Y-61000000D03*
X108270000Y-59730000D03*
X108270000Y-58460000D03*
X107000000Y-63540000D03*
X107000000Y-62270000D03*
X107000000Y-61000000D03*
X107000000Y-59730000D03*
X107000000Y-58460000D03*
D16*
X165000000Y-45000000D03*
X165000000Y-25000000D03*
D17*
X165000000Y-40000000D03*
X165000000Y-30000000D03*
D18*
X140410235Y-57091681D03*
X146087866Y-73408071D03*
X138178628Y-92536810D03*
X134900000Y-58070000D03*
X144825000Y-78000000D03*
X136991042Y-87990738D03*
X155150000Y-72300000D03*
X157150000Y-72300000D03*
X144462464Y-57078565D03*
X137000000Y-75000000D03*
X125000000Y-57000000D03*
X136293940Y-71085333D03*
X163809603Y-64627301D03*
X129765271Y-41473739D03*
X131561535Y-61932155D03*
X133239854Y-59167054D03*
X141006889Y-94057945D03*
X173340000Y-56080000D03*
X120676449Y-93648544D03*
X149452388Y-72607433D03*
X145520000Y-71690000D03*
X131300000Y-92190000D03*
X149370000Y-55660000D03*
X120300000Y-50230000D03*
X127490000Y-49350000D03*
X150160000Y-37790000D03*
X110430000Y-60040000D03*
X139893350Y-89442975D03*
X161810000Y-79750000D03*
X132650000Y-63050000D03*
X143150000Y-58900000D03*
X142200000Y-82025000D03*
X155950000Y-82425000D03*
X158250000Y-64375010D03*
X140204570Y-80911545D03*
X140874970Y-58016172D03*
X158000000Y-58000018D03*
X175000000Y-64000000D03*
X136000000Y-59000000D03*
X127691949Y-86808051D03*
X141000000Y-73974987D03*
X143949991Y-48600000D03*
X137000000Y-93000000D03*
X148000000Y-48000000D03*
X134000000Y-44000000D03*
X138500000Y-42000000D03*
X174500000Y-59799990D03*
X163459139Y-58884139D03*
X130000000Y-38000000D03*
X140500000Y-38000000D03*
X138500000Y-42000000D03*
X117000000Y-61000000D03*
X115500000Y-37500000D03*
X111500000Y-70000000D03*
X134000000Y-71000000D03*
X127500000Y-85000000D03*
X140500000Y-103000000D03*
X146500000Y-103000000D03*
X145000000Y-98000000D03*
X113650000Y-56400000D03*
X127280000Y-55500000D03*
X117000000Y-83000000D03*
X121125000Y-77000000D03*
X119500000Y-77000000D03*
X122207177Y-84458670D03*
X118002869Y-77729005D03*
X152691812Y-102932649D03*
X147840000Y-96010000D03*
X106250000Y-85250000D03*
X105500000Y-89500000D03*
X116000000Y-85500000D03*
X110458055Y-82008046D03*
X140458310Y-68760596D03*
X140965650Y-50725064D03*
X164832103Y-68449468D03*
X126341469Y-40908531D03*
X135708900Y-69158900D03*
X133034575Y-41034575D03*
X137685683Y-39182590D03*
X144070411Y-34933576D03*
X170067528Y-55380721D03*
X114258833Y-66762590D03*
X140705605Y-90219386D03*
X133925000Y-68250000D03*
X114000000Y-58654980D03*
X141800000Y-80275000D03*
X153034798Y-74063934D03*
X139862500Y-66403602D03*
X162000000Y-60000000D03*
X158283190Y-73581148D03*
X139000000Y-49000000D03*
X163000000Y-57000018D03*
X136000000Y-41000000D03*
X114000000Y-62000000D03*
X123048802Y-31185546D03*
X125500000Y-39000000D03*
X137590024Y-34989005D03*
X135500000Y-31750000D03*
X124041945Y-96573501D03*
X157345013Y-97158924D03*
X150780000Y-96800000D03*
X147646686Y-45642504D03*
X155867749Y-45594269D03*
X132700010Y-48295358D03*
X135679575Y-63928249D03*
X113248770Y-64296142D03*
X130775000Y-67450000D03*
X135759178Y-67299721D03*
X140000000Y-60000000D03*
X113000000Y-68000000D03*
X132870556Y-94849979D03*
X132869124Y-98328055D03*
X134105156Y-96287262D03*
X137669254Y-96625010D03*
X120290405Y-85816374D03*
X120500000Y-84000000D03*
X149318300Y-50672964D03*
X148524990Y-59055701D03*
X147224919Y-72369977D03*
X147260000Y-74070000D03*
X156124990Y-77511230D03*
X169720623Y-58733369D03*
X169633314Y-81166816D03*
X157775000Y-81150000D03*
X166488650Y-92754925D03*
X140345377Y-78123610D03*
X166566521Y-91958712D03*
X140336782Y-78930350D03*
X143388058Y-71911453D03*
X176491477Y-73927432D03*
X139750000Y-72875010D03*
X141169039Y-68198390D03*
X172478489Y-69969293D03*
X144768100Y-64312809D03*
X176975000Y-81600000D03*
X172701855Y-87660274D03*
X166450022Y-91167228D03*
X141135890Y-79142000D03*
X174150235Y-89791961D03*
X166531619Y-93553782D03*
X139434182Y-78024050D03*
X161881470Y-74267568D03*
X126956086Y-73112697D03*
X167466900Y-71109946D03*
X165671522Y-74999991D03*
X171451843Y-87729979D03*
X130750000Y-69950000D03*
X124600000Y-74400000D03*
X161602291Y-73358030D03*
X167933292Y-71759944D03*
X167933292Y-74810000D03*
X170035009Y-86785466D03*
X125400000Y-79000000D03*
X171750000Y-40213491D03*
X171325000Y-42150002D03*
X159434081Y-43915618D03*
X169521828Y-48130775D03*
X154275000Y-50000000D03*
X155225000Y-52325000D03*
X158401515Y-52290509D03*
X157799804Y-55925138D03*
X142357753Y-72311647D03*
X175925522Y-74529507D03*
X142378231Y-70508648D03*
X174925000Y-72900000D03*
X168436978Y-55065561D03*
X170325000Y-82499998D03*
X161550000Y-56550000D03*
X170106023Y-83752234D03*
X166425000Y-63087989D03*
X165350000Y-62125000D03*
X167733492Y-78308106D03*
X169690317Y-85252408D03*
X176475000Y-85950000D03*
X151800000Y-77675000D03*
X171285020Y-86843019D03*
X175897751Y-86880018D03*
X141036601Y-80035752D03*
X166350000Y-90350000D03*
X166942820Y-78186217D03*
X169531479Y-86160456D03*
X148355202Y-73974989D03*
X163325551Y-82950551D03*
X165190894Y-87764751D03*
X168074904Y-87358319D03*
X115430000Y-94290000D03*
X117500000Y-104500000D03*
X132721994Y-66650505D03*
X122010583Y-89255528D03*
X153471372Y-65534802D03*
X123000000Y-97000000D03*
X144000000Y-45000000D03*
X137000000Y-45000000D03*
X137260174Y-46640741D03*
X144299978Y-52364446D03*
X143829655Y-56111486D03*
X133683497Y-53129266D03*
X145079785Y-55574603D03*
X136269167Y-49800011D03*
X146671962Y-52024017D03*
X147623763Y-31916309D03*
X146641617Y-49441690D03*
X147000000Y-45000000D03*
X147000000Y-36000000D03*
X138000000Y-32000000D03*
X136000000Y-36000000D03*
X143000000Y-36000000D03*
X149773337Y-49147255D03*
X140500000Y-34250000D03*
X149000000Y-29250000D03*
X139000000Y-29250000D03*
X145787328Y-51601231D03*
X162354962Y-72236104D03*
X154941421Y-65899192D03*
X156475000Y-71125282D03*
X138775000Y-51912017D03*
X131452988Y-39282226D03*
X141750000Y-60225000D03*
X141700000Y-62175000D03*
X141345850Y-52425087D03*
X124000000Y-39250000D03*
X136200521Y-53654342D03*
X139082720Y-53854535D03*
X111852805Y-64612548D03*
X113300000Y-59325000D03*
X131518323Y-58605719D03*
X128430838Y-58636035D03*
X130409002Y-57071623D03*
X132992550Y-57049990D03*
X156091747Y-66537826D03*
X126000000Y-65575000D03*
X117950000Y-48525000D03*
X136703197Y-64849389D03*
X119975000Y-58600000D03*
X173350000Y-41125000D03*
X171891950Y-43666950D03*
X168675000Y-47825000D03*
X170368895Y-48598420D03*
X151760154Y-73389844D03*
X177719978Y-74447582D03*
X152575210Y-73409108D03*
X154825021Y-73661249D03*
X155426103Y-74189187D03*
D19*
X144462464Y-57078565D02*
X140423351Y-57078565D01*
X140423351Y-57078565D02*
X140410235Y-57091681D01*
X125000000Y-57000000D02*
X125760490Y-57760490D01*
X134600001Y-57770001D02*
X134900000Y-58070000D01*
X125760490Y-57760490D02*
X134590490Y-57760490D01*
X134590490Y-57760490D02*
X134600001Y-57770001D01*
X146087866Y-73832335D02*
X146087866Y-73408071D01*
X146087866Y-76922850D02*
X146087866Y-73832335D01*
X145325909Y-77684807D02*
X146087866Y-76922850D01*
X137000000Y-75000000D02*
X142641102Y-75000000D01*
X142641102Y-75000000D02*
X145025910Y-77384808D01*
X145025910Y-77384808D02*
X145325909Y-77684807D01*
X136691043Y-91049225D02*
X137878629Y-92236811D01*
X136691043Y-88290737D02*
X136691043Y-91049225D01*
X136991042Y-87990738D02*
X136691043Y-88290737D01*
X137878629Y-92236811D02*
X138178628Y-92536810D01*
X145325909Y-77684807D02*
X145140193Y-77684807D01*
X145140193Y-77684807D02*
X144825000Y-78000000D01*
X156725736Y-72300000D02*
X155150000Y-72300000D01*
X157150000Y-72300000D02*
X156725736Y-72300000D01*
X163459139Y-64276837D02*
X163509604Y-64327302D01*
X163459139Y-58884139D02*
X163459139Y-64276837D01*
X163509604Y-64327302D02*
X163809603Y-64627301D01*
X140193349Y-89142976D02*
X139893350Y-89442975D01*
X140204570Y-89131755D02*
X140193349Y-89142976D01*
X140204570Y-80911545D02*
X140204570Y-89131755D01*
X174500000Y-60224254D02*
X174500000Y-59799990D01*
X174500000Y-63500000D02*
X174500000Y-60224254D01*
X175000000Y-64000000D02*
X174500000Y-63500000D01*
X134000000Y-62500000D02*
X133674998Y-62174998D01*
X133674998Y-62174998D02*
X133674998Y-60325002D01*
X133674998Y-60325002D02*
X133700001Y-60299999D01*
X133700001Y-60299999D02*
X134000000Y-60000000D01*
X140874970Y-58016172D02*
X142976250Y-58016172D01*
X142976250Y-58016172D02*
X143116762Y-57875660D01*
X134299999Y-59700001D02*
X134000000Y-60000000D01*
X135000000Y-59000000D02*
X134299999Y-59700001D01*
X136000000Y-59000000D02*
X135000000Y-59000000D01*
X158000000Y-58000018D02*
X158000000Y-59000000D01*
X158000000Y-59000000D02*
X163343278Y-59000000D01*
X163343278Y-59000000D02*
X163459139Y-58884139D01*
X137000000Y-93000000D02*
X130808051Y-86808051D01*
X130808051Y-86808051D02*
X128116213Y-86808051D01*
X128116213Y-86808051D02*
X127691949Y-86808051D01*
X144374255Y-48600000D02*
X143949991Y-48600000D01*
X148000000Y-48000000D02*
X147400000Y-48600000D01*
X147400000Y-48600000D02*
X144374255Y-48600000D01*
X119500000Y-77000000D02*
X119799999Y-77299999D01*
X117299999Y-82700001D02*
X117000000Y-83000000D01*
X119799999Y-80200001D02*
X117299999Y-82700001D01*
X119799999Y-77299999D02*
X119799999Y-80200001D01*
X120000000Y-77000000D02*
X121125000Y-77000000D01*
X119500000Y-77000000D02*
X120000000Y-77000000D01*
D20*
X136926037Y-95912571D02*
X135163444Y-94149978D01*
X132534555Y-94149978D02*
X132071265Y-94613268D01*
X147840000Y-96010000D02*
X141573996Y-96010000D01*
X141476567Y-95912571D02*
X136926037Y-95912571D01*
X123577077Y-94613268D02*
X122710585Y-93746776D01*
X132071265Y-94613268D02*
X123577077Y-94613268D01*
X122346585Y-88555526D02*
X120735526Y-88555526D01*
X135163444Y-94149978D02*
X132534555Y-94149978D01*
X122710585Y-88919526D02*
X122346585Y-88555526D01*
X120735526Y-88555526D02*
X116840000Y-84660000D01*
X122710585Y-93746776D02*
X122710585Y-88919526D01*
X141573996Y-96010000D02*
X141476567Y-95912571D01*
X187670587Y-102938411D02*
X187670587Y-96870000D01*
X187719346Y-27219346D02*
X187719346Y-96821241D01*
X187670587Y-96870000D02*
X187670587Y-96529413D01*
X182520000Y-25710000D02*
X186210000Y-25710000D01*
X186210000Y-25710000D02*
X187719346Y-27219346D01*
X187719346Y-96821241D02*
X187670587Y-96870000D01*
X176900000Y-103500000D02*
X176900000Y-105800000D01*
X176900000Y-105800000D02*
X178500000Y-107400000D01*
X178500000Y-107400000D02*
X183208998Y-107400000D01*
X183208998Y-107400000D02*
X187670587Y-102938411D01*
X152991811Y-103232648D02*
X152691812Y-102932649D01*
X153259163Y-103500000D02*
X152991811Y-103232648D01*
X176900000Y-103500000D02*
X153259163Y-103500000D01*
D19*
X116840000Y-84660000D02*
X116000000Y-85500000D01*
X110458055Y-82008046D02*
X112508046Y-82008046D01*
X112508046Y-82008046D02*
X116000000Y-85500000D01*
X106250000Y-85250000D02*
X106250000Y-89500000D01*
D20*
X176900000Y-103500000D02*
X178000000Y-103500000D01*
X178000000Y-103500000D02*
X179030000Y-103500000D01*
X179030000Y-103500000D02*
X179980000Y-104450000D01*
D19*
X139862500Y-68164786D02*
X140158311Y-68460597D01*
X139862500Y-66403602D02*
X139862500Y-68164786D01*
X140158311Y-68460597D02*
X140458310Y-68760596D01*
X140725064Y-50725064D02*
X140965650Y-50725064D01*
X139000000Y-49000000D02*
X140725064Y-50725064D01*
X164532104Y-68149469D02*
X164832103Y-68449468D01*
X163382635Y-67000000D02*
X164532104Y-68149469D01*
X162000000Y-67000000D02*
X163382635Y-67000000D01*
X126041470Y-40608532D02*
X126341469Y-40908531D01*
X125500000Y-40067062D02*
X126041470Y-40608532D01*
X125500000Y-39000000D02*
X125500000Y-40067062D01*
X163000000Y-57000018D02*
X164309447Y-55690571D01*
X164309447Y-55690571D02*
X170067528Y-55690571D01*
X170067528Y-55690571D02*
X170067528Y-55380721D01*
X135408901Y-68858901D02*
X135708900Y-69158900D01*
X134800000Y-68250000D02*
X135408901Y-68858901D01*
X133925000Y-68250000D02*
X134800000Y-68250000D01*
X136000000Y-41000000D02*
X133069150Y-41000000D01*
X133069150Y-41000000D02*
X133034575Y-41034575D01*
X136000000Y-41000000D02*
X137685683Y-39314317D01*
X137685683Y-39314317D02*
X137685683Y-39182590D01*
X137590024Y-34989005D02*
X144014982Y-34989005D01*
X144014982Y-34989005D02*
X144070411Y-34933576D01*
X114000000Y-62000000D02*
X114000000Y-66503757D01*
X114000000Y-66503757D02*
X114258833Y-66762590D01*
X141800000Y-80275000D02*
X140705605Y-81369395D01*
X140705605Y-81369395D02*
X140705605Y-89795122D01*
X140705605Y-89795122D02*
X140705605Y-90219386D01*
X114000000Y-62000000D02*
X114000000Y-58654980D01*
X157737141Y-73035099D02*
X154063633Y-73035099D01*
X153334797Y-73763935D02*
X153034798Y-74063934D01*
X158283190Y-73581148D02*
X157737141Y-73035099D01*
X154063633Y-73035099D02*
X153334797Y-73763935D01*
X162000000Y-60000000D02*
X162000000Y-67000000D01*
X162000000Y-67000000D02*
X163000000Y-68000000D01*
X123048802Y-36548802D02*
X123048802Y-31609810D01*
X123048802Y-31609810D02*
X123048802Y-31185546D01*
X125500000Y-39000000D02*
X123048802Y-36548802D01*
X137290025Y-34689006D02*
X137590024Y-34989005D01*
X135500000Y-32898981D02*
X137290025Y-34689006D01*
X135500000Y-31750000D02*
X135500000Y-32898981D01*
D20*
X129933546Y-96573501D02*
X124466209Y-96573501D01*
X133360047Y-100000002D02*
X129933546Y-96573501D01*
X147579998Y-100000002D02*
X133360047Y-100000002D01*
X150780000Y-96800000D02*
X147579998Y-100000002D01*
X124466209Y-96573501D02*
X124041945Y-96573501D01*
X150780000Y-96800000D02*
X156986089Y-96800000D01*
X156986089Y-96800000D02*
X157045014Y-96858925D01*
X157045014Y-96858925D02*
X157345013Y-97158924D01*
D19*
X147222422Y-45642504D02*
X147646686Y-45642504D01*
X138207496Y-45642504D02*
X147222422Y-45642504D01*
X137850000Y-46000000D02*
X138207496Y-45642504D01*
X165000000Y-45000000D02*
X156462018Y-45000000D01*
X156167748Y-45294270D02*
X155867749Y-45594269D01*
X156462018Y-45000000D02*
X156167748Y-45294270D01*
X137850000Y-46000000D02*
X134995368Y-46000000D01*
X134995368Y-46000000D02*
X133000009Y-47995359D01*
X133000009Y-47995359D02*
X132700010Y-48295358D01*
X137850000Y-46000000D02*
X136008898Y-46000000D01*
X140000000Y-60000000D02*
X136071751Y-63928249D01*
X136071751Y-63928249D02*
X135679575Y-63928249D01*
X113248770Y-64296142D02*
X113248770Y-67751230D01*
X113248770Y-67751230D02*
X113000000Y-68000000D01*
X113060000Y-67940000D02*
X113000000Y-68000000D01*
X130925279Y-67299721D02*
X130775000Y-67450000D01*
X135759178Y-67299721D02*
X130925279Y-67299721D01*
D20*
X132869124Y-98328055D02*
X132869124Y-94851411D01*
X132869124Y-94851411D02*
X132870556Y-94849979D01*
X134405155Y-96587261D02*
X134105156Y-96287262D01*
X134442904Y-96625010D02*
X134405155Y-96587261D01*
X137669254Y-96625010D02*
X134442904Y-96625010D01*
D19*
X120500000Y-85606779D02*
X120290405Y-85816374D01*
X120500000Y-84000000D02*
X120500000Y-85606779D01*
X179980000Y-51110000D02*
X159403656Y-51110000D01*
X158966620Y-50672964D02*
X149742564Y-50672964D01*
X149742564Y-50672964D02*
X149318300Y-50672964D01*
X159403656Y-51110000D02*
X158966620Y-50672964D01*
X179980000Y-53650000D02*
X169219241Y-53650000D01*
X148719299Y-59250010D02*
X148524990Y-59055701D01*
X158593821Y-51572986D02*
X155850002Y-51572986D01*
X155850002Y-58374998D02*
X154974990Y-59250010D01*
X154974990Y-59250010D02*
X148719299Y-59250010D01*
X167658091Y-53646624D02*
X160667459Y-53646624D01*
X169109779Y-53540538D02*
X167764177Y-53540538D01*
X160667459Y-53646624D02*
X158593821Y-51572986D01*
X155850002Y-51572986D02*
X155850002Y-58374998D01*
X167764177Y-53540538D02*
X167658091Y-53646624D01*
X169219241Y-53650000D02*
X169109779Y-53540538D01*
X147260000Y-74070000D02*
X147260000Y-72405058D01*
X147260000Y-72405058D02*
X147224919Y-72369977D01*
X179980000Y-56190000D02*
X181334999Y-57544999D01*
X181334999Y-57544999D02*
X183088801Y-57544999D01*
X156424989Y-77211231D02*
X156124990Y-77511230D01*
X183088801Y-57544999D02*
X184550000Y-59006198D01*
X184550000Y-59006198D02*
X184550000Y-76233802D01*
X184550000Y-76233802D02*
X183088801Y-77695001D01*
X183088801Y-77695001D02*
X168006919Y-77695001D01*
X168006919Y-77695001D02*
X167286952Y-76975034D01*
X167286952Y-76975034D02*
X156661186Y-76975034D01*
X156661186Y-76975034D02*
X156424989Y-77211231D01*
X169723992Y-58730000D02*
X169720623Y-58733369D01*
X179980000Y-58730000D02*
X169723992Y-58730000D01*
X169616498Y-81150000D02*
X169633314Y-81166816D01*
X157775000Y-81150000D02*
X169616498Y-81150000D01*
X138224945Y-88277146D02*
X137874959Y-88627131D01*
X166064386Y-92754925D02*
X166488650Y-92754925D01*
X137874956Y-90217710D02*
X139882280Y-92225034D01*
X146420477Y-92225034D02*
X146950368Y-92754925D01*
X139651531Y-78630349D02*
X138224945Y-80056935D01*
X137874959Y-88627131D02*
X137874956Y-90217710D01*
X138224945Y-80056935D02*
X138224945Y-88277146D01*
X139711781Y-78630349D02*
X139651531Y-78630349D01*
X140345377Y-78123610D02*
X140218520Y-78123610D01*
X139882280Y-92225034D02*
X146420477Y-92225034D01*
X140218520Y-78123610D02*
X139711781Y-78630349D01*
X146950368Y-92754925D02*
X166064386Y-92754925D01*
X138324967Y-90031311D02*
X140068679Y-91775023D01*
X138674955Y-88463547D02*
X138324969Y-88813532D01*
X140336782Y-78930350D02*
X139880610Y-79386522D01*
X146606877Y-91775023D02*
X146790566Y-91958712D01*
X138674956Y-80243335D02*
X138674955Y-88463547D01*
X139531769Y-79386522D02*
X138674956Y-80243335D01*
X139880610Y-79386522D02*
X139531769Y-79386522D01*
X140068679Y-91775023D02*
X146606877Y-91775023D01*
X166142257Y-91958712D02*
X166566521Y-91958712D01*
X138324969Y-88813532D02*
X138324967Y-90031311D01*
X146790566Y-91958712D02*
X166142257Y-91958712D01*
X143688057Y-71611454D02*
X143388058Y-71911453D01*
X179980000Y-76510000D02*
X178763777Y-76510000D01*
X145379511Y-69920000D02*
X143688057Y-71611454D01*
X150580000Y-69920000D02*
X145379511Y-69920000D01*
X151135153Y-70475153D02*
X150580000Y-69920000D01*
X154011433Y-76525023D02*
X151135153Y-73648743D01*
X178313555Y-76960222D02*
X174926694Y-76960222D01*
X151135153Y-73648743D02*
X151135153Y-70475153D01*
X178763777Y-76510000D02*
X178313555Y-76960222D01*
X174491496Y-76525023D02*
X154011433Y-76525023D01*
X174926694Y-76960222D02*
X174491496Y-76525023D01*
X167034553Y-72834965D02*
X168914343Y-72834965D01*
X168914343Y-72834965D02*
X169604379Y-73525002D01*
X155500965Y-68962880D02*
X155688324Y-69150239D01*
X176089047Y-73525002D02*
X176191478Y-73627433D01*
X163214163Y-70261070D02*
X165434055Y-72480962D01*
X140895768Y-72875010D02*
X144807898Y-68962880D01*
X139750000Y-72875010D02*
X140895768Y-72875010D01*
X169604379Y-73525002D02*
X176089047Y-73525002D01*
X144807898Y-68962880D02*
X155500965Y-68962880D01*
X162014367Y-70261070D02*
X163214163Y-70261070D01*
X166680550Y-72480962D02*
X167034553Y-72834965D01*
X176191478Y-73627433D02*
X176491477Y-73927432D01*
X155688324Y-69150239D02*
X160903536Y-69150239D01*
X165434055Y-72480962D02*
X166680550Y-72480962D01*
X160903536Y-69150239D02*
X162014367Y-70261070D01*
X162759967Y-68461026D02*
X161461777Y-67162836D01*
X165468029Y-69969293D02*
X163959763Y-68461026D01*
X172478489Y-69969293D02*
X165468029Y-69969293D01*
X141469038Y-67898391D02*
X141169039Y-68198390D01*
X161461777Y-67162836D02*
X142204593Y-67162836D01*
X163959763Y-68461026D02*
X162759967Y-68461026D01*
X142204593Y-67162836D02*
X141469038Y-67898391D01*
X130600000Y-46000000D02*
X130600000Y-48484354D01*
X145095469Y-63985440D02*
X145068099Y-64012810D01*
X144266389Y-54367042D02*
X144266389Y-55577861D01*
X144500012Y-55811484D02*
X144500012Y-56191109D01*
X141045848Y-51800085D02*
X141699432Y-51800085D01*
X140308914Y-52537019D02*
X141045848Y-51800085D01*
X134644889Y-52529243D02*
X138467222Y-52529243D01*
X145068099Y-64012810D02*
X144768100Y-64312809D01*
X141699432Y-51800085D02*
X144266389Y-54367042D01*
X144500012Y-56191109D02*
X145095469Y-56786566D01*
X138474998Y-52537019D02*
X140308914Y-52537019D01*
X130600000Y-48484354D02*
X134644889Y-52529243D01*
X138467222Y-52529243D02*
X138474998Y-52537019D01*
X144266389Y-55577861D02*
X144500012Y-55811484D01*
X145095469Y-56786566D02*
X145095469Y-63985440D01*
X176985000Y-81590000D02*
X176975000Y-81600000D01*
X179980000Y-81590000D02*
X176985000Y-81590000D01*
X179980000Y-86670000D02*
X178989726Y-87660274D01*
X178989726Y-87660274D02*
X173126119Y-87660274D01*
X173126119Y-87660274D02*
X172701855Y-87660274D01*
X140310816Y-79836533D02*
X139718169Y-79836533D01*
X146635493Y-91167228D02*
X166025758Y-91167228D01*
X139718169Y-79836533D02*
X139124967Y-80429735D01*
X140255078Y-91325012D02*
X146477709Y-91325012D01*
X138774979Y-88999933D02*
X138774978Y-89844912D01*
X139124967Y-88649946D02*
X138774979Y-88999933D01*
X146477709Y-91325012D02*
X146635493Y-91167228D01*
X138774978Y-89844912D02*
X140255078Y-91325012D01*
X139124967Y-80429735D02*
X139124967Y-88649946D01*
X140835891Y-79441999D02*
X140705350Y-79441999D01*
X140705350Y-79441999D02*
X140310816Y-79836533D01*
X166025758Y-91167228D02*
X166450022Y-91167228D01*
X141135890Y-79142000D02*
X140835891Y-79441999D01*
X179980000Y-89210000D02*
X174732196Y-89210000D01*
X174732196Y-89210000D02*
X174450234Y-89491962D01*
X174450234Y-89491962D02*
X174150235Y-89791961D01*
X137424945Y-90404109D02*
X139695881Y-92675045D01*
X137424945Y-88440734D02*
X137424945Y-90404109D01*
X137649954Y-88215725D02*
X137424945Y-88440734D01*
X137649954Y-79808278D02*
X137649954Y-88215725D01*
X146234077Y-92675045D02*
X147112814Y-93553782D01*
X139434182Y-78024050D02*
X137649954Y-79808278D01*
X139695881Y-92675045D02*
X146234077Y-92675045D01*
X147112814Y-93553782D02*
X166107355Y-93553782D01*
X166107355Y-93553782D02*
X166531619Y-93553782D01*
X162181469Y-74567567D02*
X161881470Y-74267568D01*
X165671522Y-74999991D02*
X162613893Y-74999991D01*
X162613893Y-74999991D02*
X162181469Y-74567567D01*
X161275377Y-67612847D02*
X162573567Y-68911037D01*
X162573567Y-68911037D02*
X163773363Y-68911037D01*
X130750000Y-69950000D02*
X139161312Y-69950000D01*
X140233564Y-70422250D02*
X143042967Y-67612847D01*
X139161312Y-69950000D02*
X139633562Y-70422250D01*
X139633562Y-70422250D02*
X140233564Y-70422250D01*
X143042967Y-67612847D02*
X161275377Y-67612847D01*
X163773363Y-68911037D02*
X165972272Y-71109946D01*
X165972272Y-71109946D02*
X167042636Y-71109946D01*
X167042636Y-71109946D02*
X167466900Y-71109946D01*
X124600000Y-74400000D02*
X125668783Y-74400000D01*
X126656087Y-73412696D02*
X126956086Y-73112697D01*
X125668783Y-74400000D02*
X126656087Y-73412696D01*
X179980000Y-91750000D02*
X175224375Y-91750000D01*
X175224375Y-91750000D02*
X171751842Y-88277467D01*
X171751842Y-88277467D02*
X171751842Y-88029978D01*
X171751842Y-88029978D02*
X171451843Y-87729979D01*
X167933292Y-74810000D02*
X166463944Y-74810000D01*
X139861886Y-72099989D02*
X143899017Y-68062858D01*
X162026555Y-73358030D02*
X161602291Y-73358030D01*
X165806855Y-71580940D02*
X167053350Y-71580940D01*
X125400000Y-79000000D02*
X132300011Y-72099989D01*
X167509028Y-71759944D02*
X167933292Y-71759944D01*
X166463944Y-74810000D02*
X165934950Y-74281006D01*
X162160389Y-73358030D02*
X162026555Y-73358030D01*
X163083365Y-74281006D02*
X162160389Y-73358030D01*
X165934950Y-74281006D02*
X163083365Y-74281006D01*
X167053350Y-71580940D02*
X167232354Y-71759944D01*
X161088977Y-68062858D02*
X162387167Y-69361048D01*
X132300011Y-72099989D02*
X139861886Y-72099989D01*
X163586963Y-69361048D02*
X165806855Y-71580940D01*
X162387167Y-69361048D02*
X163586963Y-69361048D01*
X143899017Y-68062858D02*
X161088977Y-68062858D01*
X167232354Y-71759944D02*
X167509028Y-71759944D01*
X176491554Y-94290000D02*
X170035009Y-87833455D01*
X170035009Y-87209730D02*
X170035009Y-86785466D01*
X179980000Y-94290000D02*
X176491554Y-94290000D01*
X170035009Y-87833455D02*
X170035009Y-87209730D01*
X171750000Y-40213491D02*
X171750000Y-40200000D01*
X172185001Y-39764999D02*
X181334999Y-39764999D01*
X181334999Y-39764999D02*
X181660001Y-40090001D01*
X171750000Y-40200000D02*
X172185001Y-39764999D01*
X181660001Y-40090001D02*
X182520000Y-40950000D01*
X171749264Y-42150002D02*
X171325000Y-42150002D01*
X181180002Y-42150002D02*
X171749264Y-42150002D01*
X182520000Y-43490000D02*
X181180002Y-42150002D01*
X159734080Y-43615619D02*
X159434081Y-43915618D01*
X165579110Y-43615619D02*
X159734080Y-43615619D01*
X166808490Y-44844999D02*
X165579110Y-43615619D01*
X181334999Y-44844999D02*
X166808490Y-44844999D01*
X182520000Y-46030000D02*
X181334999Y-44844999D01*
X169821827Y-47830776D02*
X169521828Y-48130775D01*
X182520000Y-48570000D02*
X181321763Y-47371763D01*
X181321763Y-47371763D02*
X170280840Y-47371763D01*
X170280840Y-47371763D02*
X169821827Y-47830776D01*
X154350001Y-49924999D02*
X154275000Y-50000000D01*
X182520000Y-51110000D02*
X181334999Y-49924999D01*
X181334999Y-49924999D02*
X154350001Y-49924999D01*
X182520000Y-53650000D02*
X181334999Y-52464999D01*
X155225000Y-51900736D02*
X155225000Y-52325000D01*
X155390610Y-51122975D02*
X155225000Y-51288585D01*
X160122245Y-52464999D02*
X158780221Y-51122975D01*
X158780221Y-51122975D02*
X155390610Y-51122975D01*
X181334999Y-52464999D02*
X160122245Y-52464999D01*
X155225000Y-51288585D02*
X155225000Y-51900736D01*
X167844491Y-54096635D02*
X160207641Y-54096635D01*
X169238537Y-54305708D02*
X168923379Y-53990549D01*
X160207641Y-54096635D02*
X158701514Y-52590508D01*
X182520000Y-56190000D02*
X181187071Y-54857071D01*
X167950577Y-53990549D02*
X167844491Y-54096635D01*
X168923379Y-53990549D02*
X167950577Y-53990549D01*
X175843481Y-54857071D02*
X175292119Y-54305708D01*
X181187071Y-54857071D02*
X175843481Y-54857071D01*
X158701514Y-52590508D02*
X158401515Y-52290509D01*
X175292119Y-54305708D02*
X169238537Y-54305708D01*
X181733802Y-58730000D02*
X180378803Y-57375001D01*
X159178296Y-54546646D02*
X158099803Y-55625139D01*
X168030891Y-54546646D02*
X159178296Y-54546646D01*
X168136977Y-54440560D02*
X168030891Y-54546646D01*
X158099803Y-55625139D02*
X157799804Y-55925138D01*
X168736979Y-54440560D02*
X168136977Y-54440560D01*
X169052138Y-54755719D02*
X168736979Y-54440560D01*
X180378803Y-57375001D02*
X177725001Y-57375001D01*
X175105719Y-54755719D02*
X169052138Y-54755719D01*
X182520000Y-58730000D02*
X181733802Y-58730000D01*
X177725001Y-57375001D02*
X175105719Y-54755719D01*
X166848153Y-73284976D02*
X166494150Y-72930973D01*
X161827967Y-70711081D02*
X160717136Y-69600250D01*
X160717136Y-69600250D02*
X155501924Y-69600250D01*
X155501924Y-69600250D02*
X155314565Y-69412891D01*
X169417979Y-73975013D02*
X168727943Y-73284976D01*
X175925522Y-74529507D02*
X175371028Y-73975013D01*
X142657752Y-71749437D02*
X142657752Y-72011648D01*
X175371028Y-73975013D02*
X169417979Y-73975013D01*
X168727943Y-73284976D02*
X166848153Y-73284976D01*
X163027763Y-70711081D02*
X161827967Y-70711081D01*
X155314565Y-69412891D02*
X144994298Y-69412891D01*
X142657752Y-72011648D02*
X142357753Y-72311647D01*
X166494150Y-72930973D02*
X165247655Y-72930973D01*
X165247655Y-72930973D02*
X163027763Y-70711081D01*
X144994298Y-69412891D02*
X142657752Y-71749437D01*
X174925000Y-72900000D02*
X174409954Y-72384954D01*
X165620455Y-72030951D02*
X163400563Y-69811059D01*
X174409954Y-72384954D02*
X167220953Y-72384954D01*
X167220953Y-72384954D02*
X166866950Y-72030951D01*
X163400563Y-69811059D02*
X162200767Y-69811059D01*
X166866950Y-72030951D02*
X165620455Y-72030951D01*
X160902577Y-68512869D02*
X144374010Y-68512869D01*
X144374010Y-68512869D02*
X142678230Y-70208649D01*
X162200767Y-69811059D02*
X160902577Y-68512869D01*
X142678230Y-70208649D02*
X142378231Y-70508648D01*
X168012714Y-55065561D02*
X168436978Y-55065561D01*
X163034439Y-55065561D02*
X168012714Y-55065561D01*
X161550000Y-56550000D02*
X163034439Y-55065561D01*
X170625001Y-82799999D02*
X170624999Y-82799997D01*
X181189999Y-82799999D02*
X170625001Y-82799999D01*
X182520000Y-84130000D02*
X181189999Y-82799999D01*
X170624999Y-82799997D02*
X170325000Y-82499998D01*
X171678787Y-85324998D02*
X170406022Y-84052233D01*
X181174998Y-85324998D02*
X171678787Y-85324998D01*
X170406022Y-84052233D02*
X170106023Y-83752234D01*
X182520000Y-86670000D02*
X181174998Y-85324998D01*
X166337989Y-63087989D02*
X166425000Y-63087989D01*
X165350000Y-62125000D02*
X166312989Y-63087989D01*
X166312989Y-63087989D02*
X166337989Y-63087989D01*
X167433493Y-78608105D02*
X167733492Y-78308106D01*
X152936219Y-78811219D02*
X167230379Y-78811219D01*
X151800000Y-77675000D02*
X152936219Y-78811219D01*
X167230379Y-78811219D02*
X167433493Y-78608105D01*
X176475000Y-85950000D02*
X170760956Y-85950000D01*
X170760956Y-85950000D02*
X170363363Y-85552407D01*
X169990316Y-85552407D02*
X169690317Y-85252408D01*
X170363363Y-85552407D02*
X169990316Y-85552407D01*
X171322019Y-86880018D02*
X171285020Y-86843019D01*
X175897751Y-86880018D02*
X171322019Y-86880018D01*
X139224989Y-89658513D02*
X139224989Y-89211305D01*
X140441477Y-90875001D02*
X139224989Y-89658513D01*
X139904569Y-80286544D02*
X140785809Y-80286544D01*
X139574978Y-80616135D02*
X139904569Y-80286544D01*
X142150001Y-90875001D02*
X140441477Y-90875001D01*
X139574978Y-88861316D02*
X139574978Y-80616135D01*
X139224989Y-89211305D02*
X139574978Y-88861316D01*
X166350000Y-90350000D02*
X142675002Y-90350000D01*
X140785809Y-80286544D02*
X141036601Y-80035752D01*
X142675002Y-90350000D02*
X142150001Y-90875001D01*
X155036217Y-78186217D02*
X166518556Y-78186217D01*
X166518556Y-78186217D02*
X166942820Y-78186217D01*
X150824989Y-73974989D02*
X155036217Y-78186217D01*
X148355202Y-73974989D02*
X150824989Y-73974989D01*
X175772966Y-92935001D02*
X170660010Y-87822045D01*
X181165001Y-92935001D02*
X175772966Y-92935001D01*
X170335001Y-86160456D02*
X169955743Y-86160456D01*
X169955743Y-86160456D02*
X169531479Y-86160456D01*
X170660010Y-87822045D02*
X170660010Y-86485465D01*
X182520000Y-94290000D02*
X181165001Y-92935001D01*
X170660010Y-86485465D02*
X170335001Y-86160456D01*
X163749815Y-82950551D02*
X163325551Y-82950551D01*
X165348659Y-82950551D02*
X163749815Y-82950551D01*
X169429903Y-87864760D02*
X169429903Y-87031795D01*
X182520000Y-96830000D02*
X181334999Y-95644999D01*
X177210142Y-95644999D02*
X169429903Y-87864760D01*
X181334999Y-95644999D02*
X177210142Y-95644999D01*
X169429903Y-87031795D02*
X165348659Y-82950551D01*
X182520000Y-101910000D02*
X181334999Y-100724999D01*
X181334999Y-100724999D02*
X181334999Y-98971197D01*
X181334999Y-98971197D02*
X180548801Y-98184999D01*
X180548801Y-98184999D02*
X179144010Y-98184999D01*
X166222336Y-86733309D02*
X165490893Y-87464752D01*
X179144010Y-98184999D02*
X178573416Y-97614405D01*
X168462543Y-86733309D02*
X166222336Y-86733309D01*
X178573416Y-97614405D02*
X178543137Y-97614405D01*
X168979892Y-88051160D02*
X168979892Y-87250658D01*
X178543137Y-97614405D02*
X168979892Y-88051160D01*
X165490893Y-87464752D02*
X165190894Y-87764751D01*
X168979892Y-87250658D02*
X168462543Y-86733309D01*
X182520000Y-104450000D02*
X181301197Y-103231197D01*
X181301197Y-103231197D02*
X180668973Y-103231197D01*
X180668973Y-103231197D02*
X180532777Y-103095001D01*
X180532777Y-103095001D02*
X179411199Y-103095001D01*
X179411199Y-103095001D02*
X178794999Y-102478801D01*
X178794999Y-102478801D02*
X178794999Y-101357223D01*
X178794999Y-101357223D02*
X177130982Y-99693206D01*
X177130982Y-99693206D02*
X177130982Y-96838661D01*
X177130982Y-96838661D02*
X168074904Y-87782583D01*
X168074904Y-87782583D02*
X168074904Y-87358319D01*
D20*
X115470000Y-94754264D02*
X115470000Y-103506002D01*
X115470000Y-103506002D02*
X116030000Y-104066002D01*
X115430000Y-94290000D02*
X115430000Y-94714264D01*
X115430000Y-94714264D02*
X115470000Y-94754264D01*
X121540000Y-107680000D02*
X119060001Y-105200001D01*
X119060001Y-105200001D02*
X117163999Y-105200001D01*
X117163999Y-105200001D02*
X116030000Y-104066002D01*
X138160000Y-106310000D02*
X136790000Y-107680000D01*
X136790000Y-107680000D02*
X121540000Y-107680000D01*
X138160000Y-106310000D02*
X143600000Y-106310000D01*
X143600000Y-106310000D02*
X145300000Y-108010000D01*
X145300000Y-108010000D02*
X146643502Y-108010000D01*
X146643502Y-108010000D02*
X147253503Y-108620001D01*
X147253503Y-108620001D02*
X161379999Y-108620001D01*
X161379999Y-108620001D02*
X162050001Y-107949999D01*
X162050001Y-107949999D02*
X163000000Y-107000000D01*
X117500000Y-104500000D02*
X117548286Y-104451714D01*
X122451714Y-104451714D02*
X124000000Y-106000000D01*
X117548286Y-104451714D02*
X122451714Y-104451714D01*
D19*
X153047108Y-65534802D02*
X152821058Y-65760852D01*
X138690595Y-66650505D02*
X133146258Y-66650505D01*
X152821058Y-65760852D02*
X139580248Y-65760852D01*
X153471372Y-65534802D02*
X153047108Y-65534802D01*
X133146258Y-66650505D02*
X132721994Y-66650505D01*
X139580248Y-65760852D02*
X138690595Y-66650505D01*
X122010583Y-89679792D02*
X122010583Y-89255528D01*
X123000000Y-97000000D02*
X122010583Y-96010583D01*
X122010583Y-96010583D02*
X122010583Y-89679792D01*
X137000000Y-45000000D02*
X144000000Y-45000000D01*
X138876272Y-46940740D02*
X137560173Y-46940740D01*
X137560173Y-46940740D02*
X137260174Y-46640741D01*
X144299978Y-52364446D02*
X138876272Y-46940740D01*
X133683497Y-53129266D02*
X135132005Y-54577774D01*
X135132005Y-54577774D02*
X141871679Y-54577774D01*
X141871679Y-54577774D02*
X143405391Y-56111486D01*
X143405391Y-56111486D02*
X143829655Y-56111486D01*
X140542765Y-51287001D02*
X140605838Y-51350074D01*
X145079785Y-54544027D02*
X145079785Y-55150339D01*
X137756157Y-51287001D02*
X140542765Y-51287001D01*
X145079785Y-55150339D02*
X145079785Y-55574603D01*
X140605838Y-51350074D02*
X141885832Y-51350074D01*
X136269167Y-49800011D02*
X137756157Y-51287001D01*
X141885832Y-51350074D02*
X145079785Y-54544027D01*
X146641617Y-51993672D02*
X146671962Y-52024017D01*
X146641617Y-49441690D02*
X146641617Y-51993672D01*
X138000000Y-32000000D02*
X147540072Y-32000000D01*
X147540072Y-32000000D02*
X147623763Y-31916309D01*
X147000000Y-36000000D02*
X147000000Y-45000000D01*
X143000000Y-36000000D02*
X136000000Y-36000000D01*
X140500000Y-34250000D02*
X151250000Y-34250000D01*
X149773337Y-48722991D02*
X149773337Y-49147255D01*
X151250000Y-34250000D02*
X153266538Y-36266538D01*
X153266538Y-36266538D02*
X153266538Y-44640920D01*
X153266538Y-44640920D02*
X149773337Y-48134121D01*
X149773337Y-48134121D02*
X149773337Y-48722991D01*
X139000000Y-29250000D02*
X149000000Y-29250000D01*
X145787328Y-52025495D02*
X145787328Y-51601231D01*
X145787328Y-63787328D02*
X145787328Y-52025495D01*
X153719831Y-64000000D02*
X146000000Y-64000000D01*
X154941421Y-65221590D02*
X153719831Y-64000000D01*
X154941421Y-65899192D02*
X154941421Y-65221590D01*
X146000000Y-64000000D02*
X145787328Y-63787328D01*
X160328386Y-71125282D02*
X161439208Y-72236104D01*
X161439208Y-72236104D02*
X161930698Y-72236104D01*
X161930698Y-72236104D02*
X162354962Y-72236104D01*
X156475000Y-71125282D02*
X160328386Y-71125282D01*
X131752987Y-39582225D02*
X131752987Y-49000931D01*
X131752987Y-49000931D02*
X134664073Y-51912017D01*
X138350736Y-51912017D02*
X138775000Y-51912017D01*
X134664073Y-51912017D02*
X138350736Y-51912017D01*
X131452988Y-39282226D02*
X131752987Y-39582225D01*
X141700000Y-60275000D02*
X141750000Y-60225000D01*
X141700000Y-62175000D02*
X141700000Y-60275000D01*
X134458489Y-52979254D02*
X138280822Y-52979254D01*
X129552179Y-48575000D02*
X133481443Y-52504264D01*
X141045851Y-52725086D02*
X141345850Y-52425087D01*
X140777952Y-52992985D02*
X141045851Y-52725086D01*
X129525000Y-48575000D02*
X129552179Y-48575000D01*
X138294553Y-52992985D02*
X140777952Y-52992985D01*
X138280822Y-52979254D02*
X138294553Y-52992985D01*
X133983499Y-52504264D02*
X134458489Y-52979254D01*
X129005025Y-48055025D02*
X129525000Y-48575000D01*
X129005025Y-43641435D02*
X129005025Y-48055025D01*
X128338589Y-42974999D02*
X129005025Y-43641435D01*
X127300735Y-42974999D02*
X128338589Y-42974999D01*
X124000000Y-39250000D02*
X124000000Y-39674264D01*
X124000000Y-39674264D02*
X127300735Y-42974999D01*
X133481443Y-52504264D02*
X133983499Y-52504264D01*
X139082720Y-53854535D02*
X136400714Y-53854535D01*
X136400714Y-53854535D02*
X136200521Y-53654342D01*
X112152804Y-64312549D02*
X111852805Y-64612548D01*
X113300000Y-63165353D02*
X112152804Y-64312549D01*
X113300000Y-59325000D02*
X113300000Y-63165353D01*
X131488007Y-58636035D02*
X131518323Y-58605719D01*
X128430838Y-58636035D02*
X131488007Y-58636035D01*
X132992550Y-57049990D02*
X130430635Y-57049990D01*
X130430635Y-57049990D02*
X130409002Y-57071623D01*
X135466163Y-65038985D02*
X136122409Y-65695231D01*
X155667483Y-66537826D02*
X156091747Y-66537826D01*
X152485725Y-65275001D02*
X152924875Y-64835851D01*
X153894621Y-64835851D02*
X154293570Y-65234800D01*
X126000000Y-65575000D02*
X126536015Y-65038985D01*
X137325877Y-65695231D02*
X137746107Y-65275001D01*
X152924875Y-64835851D02*
X153894621Y-64835851D01*
X154293570Y-65234800D02*
X154293570Y-66209682D01*
X126536015Y-65038985D02*
X135466163Y-65038985D01*
X154621714Y-66537826D02*
X155667483Y-66537826D01*
X154293570Y-66209682D02*
X154621714Y-66537826D01*
X136122409Y-65695231D02*
X137325877Y-65695231D01*
X137746107Y-65275001D02*
X152485725Y-65275001D01*
X117950000Y-57550000D02*
X125975000Y-65575000D01*
X125975000Y-65575000D02*
X126000000Y-65575000D01*
X117950000Y-48525000D02*
X117950000Y-57550000D01*
X136278933Y-64849389D02*
X136703197Y-64849389D01*
X125963974Y-64588974D02*
X136018518Y-64588974D01*
X119975000Y-58600000D02*
X125963974Y-64588974D01*
X136018518Y-64588974D02*
X136278933Y-64849389D01*
X179980000Y-40950000D02*
X173525000Y-40950000D01*
X173525000Y-40950000D02*
X173350000Y-41125000D01*
X172068900Y-43490000D02*
X171891950Y-43666950D01*
X179980000Y-43490000D02*
X172068900Y-43490000D01*
X179980000Y-46030000D02*
X170470000Y-46030000D01*
X168974999Y-47525001D02*
X168675000Y-47825000D01*
X170470000Y-46030000D02*
X168974999Y-47525001D01*
X170397315Y-48570000D02*
X170368895Y-48598420D01*
X179980000Y-48570000D02*
X170397315Y-48570000D01*
X161641567Y-71161092D02*
X160530736Y-70050261D01*
X182520000Y-63810000D02*
X181334999Y-64995001D01*
X181334999Y-66748803D02*
X180548801Y-67535001D01*
X181334999Y-64995001D02*
X181334999Y-66748803D01*
X153663573Y-72075012D02*
X152650722Y-72075012D01*
X180548801Y-67535001D02*
X179581197Y-67535001D01*
X155688324Y-70050261D02*
X153663573Y-72075012D01*
X177675000Y-69441198D02*
X177675000Y-73567556D01*
X169256091Y-74449535D02*
X168541543Y-73734987D01*
X177094976Y-74147580D02*
X177094976Y-74337498D01*
X151760154Y-72965580D02*
X151760154Y-73389844D01*
X176272296Y-75160178D02*
X175672294Y-75160178D01*
X177094976Y-74337498D02*
X176272296Y-75160178D01*
X168541543Y-73734987D02*
X166661753Y-73734987D01*
X165061255Y-73380984D02*
X162841363Y-71161092D01*
X179581197Y-67535001D02*
X177675000Y-69441198D01*
X174961651Y-74449535D02*
X169256091Y-74449535D01*
X160530736Y-70050261D02*
X155688324Y-70050261D01*
X166307750Y-73380984D02*
X165061255Y-73380984D01*
X152650722Y-72075012D02*
X151760154Y-72965580D01*
X166661753Y-73734987D02*
X166307750Y-73380984D01*
X162841363Y-71161092D02*
X161641567Y-71161092D01*
X175672294Y-75160178D02*
X174961651Y-74449535D01*
X177675000Y-73567556D02*
X177094976Y-74147580D01*
X155908310Y-70500272D02*
X160344336Y-70500272D01*
X152575210Y-73409108D02*
X152999474Y-73409108D01*
X161455167Y-71611103D02*
X162616254Y-71611103D01*
X162616254Y-71611103D02*
X164836146Y-73830995D01*
X174775251Y-74899546D02*
X175485894Y-75610189D01*
X164836146Y-73830995D02*
X166121350Y-73830995D01*
X166121350Y-73830995D02*
X166475353Y-74184998D01*
X166475353Y-74184998D02*
X168355143Y-74184998D01*
X168355143Y-74184998D02*
X169069691Y-74899546D01*
X175485894Y-75610189D02*
X176557371Y-75610189D01*
X176557371Y-75610189D02*
X177419979Y-74747581D01*
X177419979Y-74747581D02*
X177719978Y-74447582D01*
X160344336Y-70500272D02*
X161455167Y-71611103D01*
X169069691Y-74899546D02*
X174775251Y-74899546D01*
X152999474Y-73409108D02*
X155908310Y-70500272D01*
X174864296Y-75625001D02*
X162382575Y-75625001D01*
X178344988Y-71205012D02*
X178344988Y-74725201D01*
X161645435Y-74887861D02*
X158560019Y-74887861D01*
X182520000Y-68890000D02*
X181334999Y-70075001D01*
X179474999Y-70075001D02*
X178344988Y-71205012D01*
X154961271Y-73524999D02*
X154825021Y-73661249D01*
X158560019Y-74887861D02*
X157197157Y-73524999D01*
X175299494Y-76060200D02*
X174864296Y-75625001D01*
X181334999Y-70075001D02*
X179474999Y-70075001D01*
X162382575Y-75625001D02*
X161645435Y-74887861D01*
X177009989Y-76060200D02*
X175299494Y-76060200D01*
X157197157Y-73524999D02*
X154961271Y-73524999D01*
X178344988Y-74725201D02*
X177009989Y-76060200D01*
X155726102Y-74489186D02*
X155426103Y-74189187D01*
X157036938Y-75800022D02*
X155726102Y-74489186D01*
X161875020Y-75800022D02*
X157036938Y-75800022D01*
X174677896Y-76075012D02*
X162150010Y-76075012D01*
X175113093Y-76510210D02*
X174677896Y-76075012D01*
X162150010Y-76075012D02*
X161875020Y-75800022D01*
X178794999Y-75716414D02*
X178001202Y-76510211D01*
X178794999Y-73401199D02*
X178794999Y-75716414D01*
X179411199Y-72784999D02*
X178794999Y-73401199D01*
X181165001Y-72784999D02*
X179411199Y-72784999D01*
X182520000Y-71430000D02*
X181165001Y-72784999D01*
X178001202Y-76510211D02*
X175113093Y-76510210D01*
D21*
G36*
X121873000Y-76425861D02*
X121655327Y-76207808D01*
X121311799Y-76065162D01*
X120939833Y-76064838D01*
X120596057Y-76206883D01*
X120562882Y-76240000D01*
X120062463Y-76240000D01*
X120030327Y-76207808D01*
X119686799Y-76065162D01*
X119314833Y-76064838D01*
X118971057Y-76206883D01*
X118707808Y-76469673D01*
X118565162Y-76813201D01*
X118564838Y-77185167D01*
X118706883Y-77528943D01*
X118969673Y-77792192D01*
X119039999Y-77821394D01*
X119039999Y-79885199D01*
X116860320Y-82064878D01*
X116814833Y-82064838D01*
X116471057Y-82206883D01*
X116207808Y-82469673D01*
X116065162Y-82813201D01*
X116064838Y-83185167D01*
X116206883Y-83528943D01*
X116469673Y-83792192D01*
X116813201Y-83934838D01*
X117185167Y-83935162D01*
X117528943Y-83793117D01*
X117792192Y-83530327D01*
X117934838Y-83186799D01*
X117934879Y-83139923D01*
X120337400Y-80737402D01*
X120502147Y-80490840D01*
X120559999Y-80200001D01*
X120559999Y-77760000D01*
X120562537Y-77760000D01*
X120594673Y-77792192D01*
X120938201Y-77934838D01*
X121310167Y-77935162D01*
X121653943Y-77793117D01*
X121873000Y-77574442D01*
X121873000Y-83400000D01*
X121883006Y-83449410D01*
X121911447Y-83491035D01*
X121953841Y-83518315D01*
X122000000Y-83527000D01*
X123473000Y-83527000D01*
X123473000Y-91873000D01*
X122770583Y-91873000D01*
X122770583Y-89817991D01*
X122802775Y-89785855D01*
X122945421Y-89442327D01*
X122945745Y-89070361D01*
X122803700Y-88726585D01*
X122540910Y-88463336D01*
X122197382Y-88320690D01*
X121825416Y-88320366D01*
X121481640Y-88462411D01*
X121218391Y-88725201D01*
X121075745Y-89068729D01*
X121075421Y-89440695D01*
X121217466Y-89784471D01*
X121250583Y-89817646D01*
X121250583Y-91873000D01*
X109000000Y-91873000D01*
X108950590Y-91883006D01*
X108910197Y-91910197D01*
X104947394Y-95873000D01*
X101127000Y-95873000D01*
X101127000Y-91543893D01*
X101414725Y-91543893D01*
X101655519Y-92126657D01*
X102028471Y-92500261D01*
X101657086Y-92870997D01*
X101415276Y-93453341D01*
X101414725Y-94083893D01*
X101655519Y-94666657D01*
X102100997Y-95112914D01*
X102683341Y-95354724D01*
X103313893Y-95355275D01*
X103896657Y-95114481D01*
X104342914Y-94669003D01*
X104584724Y-94086659D01*
X104585275Y-93456107D01*
X104344481Y-92873343D01*
X103971529Y-92499739D01*
X104342914Y-92129003D01*
X104584724Y-91546659D01*
X104585275Y-90916107D01*
X104344481Y-90333343D01*
X103899003Y-89887086D01*
X103316659Y-89645276D01*
X102686107Y-89644725D01*
X102103343Y-89885519D01*
X101657086Y-90330997D01*
X101415276Y-90913341D01*
X101414725Y-91543893D01*
X101127000Y-91543893D01*
X101127000Y-86001541D01*
X119355243Y-86001541D01*
X119497288Y-86345317D01*
X119760078Y-86608566D01*
X120103606Y-86751212D01*
X120475572Y-86751536D01*
X120819348Y-86609491D01*
X121082597Y-86346701D01*
X121225243Y-86003173D01*
X121225437Y-85780538D01*
X121260000Y-85606779D01*
X121260000Y-84562463D01*
X121292192Y-84530327D01*
X121434838Y-84186799D01*
X121435162Y-83814833D01*
X121293117Y-83471057D01*
X121030327Y-83207808D01*
X120686799Y-83065162D01*
X120314833Y-83064838D01*
X119971057Y-83206883D01*
X119707808Y-83469673D01*
X119565162Y-83813201D01*
X119564838Y-84185167D01*
X119706883Y-84528943D01*
X119740000Y-84562118D01*
X119740000Y-85044682D01*
X119498213Y-85286047D01*
X119355567Y-85629575D01*
X119355243Y-86001541D01*
X101127000Y-86001541D01*
X101127000Y-83476661D01*
X104602758Y-83476661D01*
X104814990Y-83990303D01*
X105207630Y-84383629D01*
X105720900Y-84596757D01*
X106276661Y-84597242D01*
X106790303Y-84385010D01*
X107183629Y-83992370D01*
X107396757Y-83479100D01*
X107397242Y-82923339D01*
X107185010Y-82409697D01*
X106792370Y-82016371D01*
X106279100Y-81803243D01*
X105723339Y-81802758D01*
X105209697Y-82014990D01*
X104816371Y-82407630D01*
X104603243Y-82920900D01*
X104602758Y-83476661D01*
X101127000Y-83476661D01*
X101127000Y-79076661D01*
X104602758Y-79076661D01*
X104814990Y-79590303D01*
X105207630Y-79983629D01*
X105720900Y-80196757D01*
X106276661Y-80197242D01*
X106790303Y-79985010D01*
X107183629Y-79592370D01*
X107396757Y-79079100D01*
X107397242Y-78523339D01*
X107185010Y-78009697D01*
X106792370Y-77616371D01*
X106279100Y-77403243D01*
X105723339Y-77402758D01*
X105209697Y-77614990D01*
X104816371Y-78007630D01*
X104603243Y-78520900D01*
X104602758Y-79076661D01*
X101127000Y-79076661D01*
X101127000Y-73127000D01*
X121873000Y-73127000D01*
X121873000Y-76425861D01*
X121873000Y-76425861D01*
G37*
X121873000Y-76425861D02*
X121655327Y-76207808D01*
X121311799Y-76065162D01*
X120939833Y-76064838D01*
X120596057Y-76206883D01*
X120562882Y-76240000D01*
X120062463Y-76240000D01*
X120030327Y-76207808D01*
X119686799Y-76065162D01*
X119314833Y-76064838D01*
X118971057Y-76206883D01*
X118707808Y-76469673D01*
X118565162Y-76813201D01*
X118564838Y-77185167D01*
X118706883Y-77528943D01*
X118969673Y-77792192D01*
X119039999Y-77821394D01*
X119039999Y-79885199D01*
X116860320Y-82064878D01*
X116814833Y-82064838D01*
X116471057Y-82206883D01*
X116207808Y-82469673D01*
X116065162Y-82813201D01*
X116064838Y-83185167D01*
X116206883Y-83528943D01*
X116469673Y-83792192D01*
X116813201Y-83934838D01*
X117185167Y-83935162D01*
X117528943Y-83793117D01*
X117792192Y-83530327D01*
X117934838Y-83186799D01*
X117934879Y-83139923D01*
X120337400Y-80737402D01*
X120502147Y-80490840D01*
X120559999Y-80200001D01*
X120559999Y-77760000D01*
X120562537Y-77760000D01*
X120594673Y-77792192D01*
X120938201Y-77934838D01*
X121310167Y-77935162D01*
X121653943Y-77793117D01*
X121873000Y-77574442D01*
X121873000Y-83400000D01*
X121883006Y-83449410D01*
X121911447Y-83491035D01*
X121953841Y-83518315D01*
X122000000Y-83527000D01*
X123473000Y-83527000D01*
X123473000Y-91873000D01*
X122770583Y-91873000D01*
X122770583Y-89817991D01*
X122802775Y-89785855D01*
X122945421Y-89442327D01*
X122945745Y-89070361D01*
X122803700Y-88726585D01*
X122540910Y-88463336D01*
X122197382Y-88320690D01*
X121825416Y-88320366D01*
X121481640Y-88462411D01*
X121218391Y-88725201D01*
X121075745Y-89068729D01*
X121075421Y-89440695D01*
X121217466Y-89784471D01*
X121250583Y-89817646D01*
X121250583Y-91873000D01*
X109000000Y-91873000D01*
X108950590Y-91883006D01*
X108910197Y-91910197D01*
X104947394Y-95873000D01*
X101127000Y-95873000D01*
X101127000Y-91543893D01*
X101414725Y-91543893D01*
X101655519Y-92126657D01*
X102028471Y-92500261D01*
X101657086Y-92870997D01*
X101415276Y-93453341D01*
X101414725Y-94083893D01*
X101655519Y-94666657D01*
X102100997Y-95112914D01*
X102683341Y-95354724D01*
X103313893Y-95355275D01*
X103896657Y-95114481D01*
X104342914Y-94669003D01*
X104584724Y-94086659D01*
X104585275Y-93456107D01*
X104344481Y-92873343D01*
X103971529Y-92499739D01*
X104342914Y-92129003D01*
X104584724Y-91546659D01*
X104585275Y-90916107D01*
X104344481Y-90333343D01*
X103899003Y-89887086D01*
X103316659Y-89645276D01*
X102686107Y-89644725D01*
X102103343Y-89885519D01*
X101657086Y-90330997D01*
X101415276Y-90913341D01*
X101414725Y-91543893D01*
X101127000Y-91543893D01*
X101127000Y-86001541D01*
X119355243Y-86001541D01*
X119497288Y-86345317D01*
X119760078Y-86608566D01*
X120103606Y-86751212D01*
X120475572Y-86751536D01*
X120819348Y-86609491D01*
X121082597Y-86346701D01*
X121225243Y-86003173D01*
X121225437Y-85780538D01*
X121260000Y-85606779D01*
X121260000Y-84562463D01*
X121292192Y-84530327D01*
X121434838Y-84186799D01*
X121435162Y-83814833D01*
X121293117Y-83471057D01*
X121030327Y-83207808D01*
X120686799Y-83065162D01*
X120314833Y-83064838D01*
X119971057Y-83206883D01*
X119707808Y-83469673D01*
X119565162Y-83813201D01*
X119564838Y-84185167D01*
X119706883Y-84528943D01*
X119740000Y-84562118D01*
X119740000Y-85044682D01*
X119498213Y-85286047D01*
X119355567Y-85629575D01*
X119355243Y-86001541D01*
X101127000Y-86001541D01*
X101127000Y-83476661D01*
X104602758Y-83476661D01*
X104814990Y-83990303D01*
X105207630Y-84383629D01*
X105720900Y-84596757D01*
X106276661Y-84597242D01*
X106790303Y-84385010D01*
X107183629Y-83992370D01*
X107396757Y-83479100D01*
X107397242Y-82923339D01*
X107185010Y-82409697D01*
X106792370Y-82016371D01*
X106279100Y-81803243D01*
X105723339Y-81802758D01*
X105209697Y-82014990D01*
X104816371Y-82407630D01*
X104603243Y-82920900D01*
X104602758Y-83476661D01*
X101127000Y-83476661D01*
X101127000Y-79076661D01*
X104602758Y-79076661D01*
X104814990Y-79590303D01*
X105207630Y-79983629D01*
X105720900Y-80196757D01*
X106276661Y-80197242D01*
X106790303Y-79985010D01*
X107183629Y-79592370D01*
X107396757Y-79079100D01*
X107397242Y-78523339D01*
X107185010Y-78009697D01*
X106792370Y-77616371D01*
X106279100Y-77403243D01*
X105723339Y-77402758D01*
X105209697Y-77614990D01*
X104816371Y-78007630D01*
X104603243Y-78520900D01*
X104602758Y-79076661D01*
X101127000Y-79076661D01*
X101127000Y-73127000D01*
X121873000Y-73127000D01*
X121873000Y-76425861D01*
G36*
X194873000Y-108873000D02*
X191631473Y-108873000D01*
X192965372Y-108321844D01*
X194038077Y-107251009D01*
X194619337Y-105851181D01*
X194620660Y-104335469D01*
X194041844Y-102934628D01*
X192971009Y-101861923D01*
X191571181Y-101280663D01*
X190055469Y-101279340D01*
X188654628Y-101858156D01*
X188505587Y-102006937D01*
X188505587Y-97066371D01*
X188554346Y-96821241D01*
X188554346Y-28213267D01*
X188648991Y-28308077D01*
X190048819Y-28889337D01*
X191564531Y-28890660D01*
X192965372Y-28311844D01*
X194038077Y-27241009D01*
X194619337Y-25841181D01*
X194620660Y-24325469D01*
X194041844Y-22924628D01*
X192971009Y-21851923D01*
X191571181Y-21270663D01*
X190055469Y-21269340D01*
X188654628Y-21848156D01*
X187581923Y-22918991D01*
X187000663Y-24318819D01*
X186999790Y-25318922D01*
X186800434Y-25119566D01*
X186529541Y-24938561D01*
X186210000Y-24875000D01*
X183792578Y-24875000D01*
X183788139Y-24864257D01*
X183367955Y-24443340D01*
X182818679Y-24215260D01*
X182223931Y-24214741D01*
X181674257Y-24441861D01*
X181253340Y-24862045D01*
X181250275Y-24869426D01*
X181248139Y-24864257D01*
X180827955Y-24443340D01*
X180278679Y-24215260D01*
X179683931Y-24214741D01*
X179134257Y-24441861D01*
X178713340Y-24862045D01*
X178485260Y-25411321D01*
X178484741Y-26006069D01*
X178711861Y-26555743D01*
X179132045Y-26976660D01*
X179139426Y-26979725D01*
X179134257Y-26981861D01*
X178713340Y-27402045D01*
X178485260Y-27951321D01*
X178484741Y-28546069D01*
X178711861Y-29095743D01*
X179132045Y-29516660D01*
X179139426Y-29519725D01*
X179134257Y-29521861D01*
X178713340Y-29942045D01*
X178485260Y-30491321D01*
X178484741Y-31086069D01*
X178711861Y-31635743D01*
X179132045Y-32056660D01*
X179139426Y-32059725D01*
X179134257Y-32061861D01*
X178713340Y-32482045D01*
X178485260Y-33031321D01*
X178484741Y-33626069D01*
X178711861Y-34175743D01*
X179132045Y-34596660D01*
X179139426Y-34599725D01*
X179134257Y-34601861D01*
X178713340Y-35022045D01*
X178485260Y-35571321D01*
X178484741Y-36166069D01*
X178711861Y-36715743D01*
X179132045Y-37136660D01*
X179139426Y-37139725D01*
X179134257Y-37141861D01*
X178713340Y-37562045D01*
X178485260Y-38111321D01*
X178484741Y-38706069D01*
X178608256Y-39004999D01*
X172185001Y-39004999D01*
X171894161Y-39062851D01*
X171647600Y-39227598D01*
X171596841Y-39278357D01*
X171564833Y-39278329D01*
X171221057Y-39420374D01*
X170957808Y-39683164D01*
X170815162Y-40026692D01*
X170814838Y-40398658D01*
X170956883Y-40742434D01*
X171219673Y-41005683D01*
X171563201Y-41148329D01*
X171935167Y-41148653D01*
X172278943Y-41006608D01*
X172463087Y-40822785D01*
X172415162Y-40938201D01*
X172414838Y-41310167D01*
X172447825Y-41390002D01*
X171887463Y-41390002D01*
X171855327Y-41357810D01*
X171511799Y-41215164D01*
X171139833Y-41214840D01*
X170796057Y-41356885D01*
X170532808Y-41619675D01*
X170390162Y-41963203D01*
X170389838Y-42335169D01*
X170531883Y-42678945D01*
X170794673Y-42942194D01*
X171138201Y-43084840D01*
X171151620Y-43084852D01*
X171099758Y-43136623D01*
X170957112Y-43480151D01*
X170956788Y-43852117D01*
X171053013Y-44084999D01*
X167123292Y-44084999D01*
X166116511Y-43078218D01*
X165869949Y-42913471D01*
X165579110Y-42855619D01*
X159734080Y-42855619D01*
X159443241Y-42913471D01*
X159342868Y-42980538D01*
X159248914Y-42980456D01*
X158905138Y-43122501D01*
X158641889Y-43385291D01*
X158499243Y-43728819D01*
X158498919Y-44100785D01*
X158556441Y-44240000D01*
X156462018Y-44240000D01*
X156171179Y-44297852D01*
X155924617Y-44462599D01*
X155728069Y-44659147D01*
X155682582Y-44659107D01*
X155338806Y-44801152D01*
X155075557Y-45063942D01*
X154932911Y-45407470D01*
X154932587Y-45779436D01*
X155074632Y-46123212D01*
X155337422Y-46386461D01*
X155680950Y-46529107D01*
X156052916Y-46529431D01*
X156396692Y-46387386D01*
X156659941Y-46124596D01*
X156802587Y-45781068D01*
X156802605Y-45760000D01*
X163449700Y-45760000D01*
X163702567Y-46138442D01*
X164224889Y-46487446D01*
X164841009Y-46610000D01*
X165158991Y-46610000D01*
X165775111Y-46487446D01*
X166297433Y-46138442D01*
X166646437Y-45616120D01*
X166654733Y-45574415D01*
X166808490Y-45604999D01*
X169820199Y-45604999D01*
X168535320Y-46889878D01*
X168489833Y-46889838D01*
X168146057Y-47031883D01*
X167882808Y-47294673D01*
X167740162Y-47638201D01*
X167739838Y-48010167D01*
X167881883Y-48353943D01*
X168144673Y-48617192D01*
X168488201Y-48759838D01*
X168828953Y-48760135D01*
X168991501Y-48922967D01*
X169335029Y-49065613D01*
X169550341Y-49065801D01*
X169575778Y-49127363D01*
X169613348Y-49164999D01*
X154702232Y-49164999D01*
X154461799Y-49065162D01*
X154089833Y-49064838D01*
X153746057Y-49206883D01*
X153482808Y-49469673D01*
X153340162Y-49813201D01*
X153340075Y-49912964D01*
X150329736Y-49912964D01*
X150565529Y-49677582D01*
X150708175Y-49334054D01*
X150708499Y-48962088D01*
X150566454Y-48618312D01*
X150533337Y-48585137D01*
X150533337Y-48448923D01*
X150567470Y-48414790D01*
X150639990Y-48590303D01*
X151032630Y-48983629D01*
X151545900Y-49196757D01*
X152101661Y-49197242D01*
X152615303Y-48985010D01*
X153008629Y-48592370D01*
X153221757Y-48079100D01*
X153222242Y-47523339D01*
X153010010Y-47009697D01*
X152617370Y-46616371D01*
X152439675Y-46542585D01*
X153803939Y-45178321D01*
X153968686Y-44931760D01*
X154026538Y-44640920D01*
X154026538Y-40000000D01*
X163332968Y-40000000D01*
X163446007Y-40568285D01*
X163767914Y-41050054D01*
X164249683Y-41371961D01*
X164817968Y-41485000D01*
X165182032Y-41485000D01*
X165750317Y-41371961D01*
X166232086Y-41050054D01*
X166553993Y-40568285D01*
X166667032Y-40000000D01*
X166553993Y-39431715D01*
X166232086Y-38949946D01*
X165750317Y-38628039D01*
X165182032Y-38515000D01*
X164817968Y-38515000D01*
X164249683Y-38628039D01*
X163767914Y-38949946D01*
X163446007Y-39431715D01*
X163332968Y-40000000D01*
X154026538Y-40000000D01*
X154026538Y-36266538D01*
X154010352Y-36185167D01*
X153968686Y-35975698D01*
X153803939Y-35729137D01*
X151787401Y-33712599D01*
X151540839Y-33547852D01*
X151250000Y-33490000D01*
X141062463Y-33490000D01*
X141030327Y-33457808D01*
X140686799Y-33315162D01*
X140314833Y-33314838D01*
X139971057Y-33456883D01*
X139707808Y-33719673D01*
X139565162Y-34063201D01*
X139565018Y-34229005D01*
X138152487Y-34229005D01*
X138120351Y-34196813D01*
X137776823Y-34054167D01*
X137729947Y-34054126D01*
X136260000Y-32584179D01*
X136260000Y-32312463D01*
X136292192Y-32280327D01*
X136331706Y-32185167D01*
X137064838Y-32185167D01*
X137206883Y-32528943D01*
X137469673Y-32792192D01*
X137813201Y-32934838D01*
X138185167Y-32935162D01*
X138528943Y-32793117D01*
X138562118Y-32760000D01*
X147217459Y-32760000D01*
X147436964Y-32851147D01*
X147808930Y-32851471D01*
X148152706Y-32709426D01*
X148415955Y-32446636D01*
X148558601Y-32103108D01*
X148558925Y-31731142D01*
X148416880Y-31387366D01*
X148154090Y-31124117D01*
X147810562Y-30981471D01*
X147438596Y-30981147D01*
X147094820Y-31123192D01*
X146977808Y-31240000D01*
X138562463Y-31240000D01*
X138530327Y-31207808D01*
X138186799Y-31065162D01*
X137814833Y-31064838D01*
X137471057Y-31206883D01*
X137207808Y-31469673D01*
X137065162Y-31813201D01*
X137064838Y-32185167D01*
X136331706Y-32185167D01*
X136434838Y-31936799D01*
X136435162Y-31564833D01*
X136293117Y-31221057D01*
X136030327Y-30957808D01*
X135686799Y-30815162D01*
X135314833Y-30814838D01*
X134971057Y-30956883D01*
X134707808Y-31219673D01*
X134565162Y-31563201D01*
X134564838Y-31935167D01*
X134706883Y-32278943D01*
X134740000Y-32312118D01*
X134740000Y-32898981D01*
X134797852Y-33189820D01*
X134962599Y-33436382D01*
X136654902Y-35128685D01*
X136654862Y-35174172D01*
X136682062Y-35240000D01*
X136562463Y-35240000D01*
X136530327Y-35207808D01*
X136186799Y-35065162D01*
X135814833Y-35064838D01*
X135471057Y-35206883D01*
X135207808Y-35469673D01*
X135065162Y-35813201D01*
X135064838Y-36185167D01*
X135206883Y-36528943D01*
X135469673Y-36792192D01*
X135813201Y-36934838D01*
X136185167Y-36935162D01*
X136528943Y-36793117D01*
X136562118Y-36760000D01*
X142437537Y-36760000D01*
X142469673Y-36792192D01*
X142813201Y-36934838D01*
X143185167Y-36935162D01*
X143528943Y-36793117D01*
X143792192Y-36530327D01*
X143934838Y-36186799D01*
X143935115Y-35868459D01*
X144255578Y-35868738D01*
X144599354Y-35726693D01*
X144862603Y-35463903D01*
X145005249Y-35120375D01*
X145005345Y-35010000D01*
X150935198Y-35010000D01*
X152506538Y-36581340D01*
X152506538Y-44326118D01*
X149235936Y-47596720D01*
X149071189Y-47843282D01*
X149013337Y-48134121D01*
X149013337Y-48584792D01*
X148981145Y-48616928D01*
X148838499Y-48960456D01*
X148838175Y-49332422D01*
X148980220Y-49676198D01*
X149068412Y-49764544D01*
X148789357Y-49879847D01*
X148526108Y-50142637D01*
X148383462Y-50486165D01*
X148383138Y-50858131D01*
X148525183Y-51201907D01*
X148787973Y-51465156D01*
X149131501Y-51607802D01*
X149503467Y-51608126D01*
X149847243Y-51466081D01*
X149880418Y-51432964D01*
X154465000Y-51432964D01*
X154465000Y-51762537D01*
X154432808Y-51794673D01*
X154290162Y-52138201D01*
X154289838Y-52510167D01*
X154431883Y-52853943D01*
X154694673Y-53117192D01*
X155038201Y-53259838D01*
X155090002Y-53259883D01*
X155090002Y-58060196D01*
X154660188Y-58490010D01*
X149281423Y-58490010D01*
X149055317Y-58263509D01*
X148711789Y-58120863D01*
X148339823Y-58120539D01*
X147996047Y-58262584D01*
X147732798Y-58525374D01*
X147590152Y-58868902D01*
X147589828Y-59240868D01*
X147731873Y-59584644D01*
X147994663Y-59847893D01*
X148338191Y-59990539D01*
X148622658Y-59990787D01*
X148719299Y-60010010D01*
X154974990Y-60010010D01*
X155265829Y-59952158D01*
X155512391Y-59787411D01*
X156387403Y-58912399D01*
X156552150Y-58665837D01*
X156610002Y-58374998D01*
X156610002Y-52332986D01*
X157466477Y-52332986D01*
X157466353Y-52475676D01*
X157608398Y-52819452D01*
X157871188Y-53082701D01*
X158214716Y-53225347D01*
X158261592Y-53225388D01*
X158883407Y-53847203D01*
X158640895Y-54009245D01*
X157660124Y-54990016D01*
X157614637Y-54989976D01*
X157270861Y-55132021D01*
X157007612Y-55394811D01*
X156864966Y-55738339D01*
X156864642Y-56110305D01*
X157006687Y-56454081D01*
X157269477Y-56717330D01*
X157613005Y-56859976D01*
X157984971Y-56860300D01*
X158328747Y-56718255D01*
X158591996Y-56455465D01*
X158734642Y-56111937D01*
X158734683Y-56065061D01*
X159493098Y-55306646D01*
X161718552Y-55306646D01*
X161410320Y-55614878D01*
X161364833Y-55614838D01*
X161021057Y-55756883D01*
X160757808Y-56019673D01*
X160615162Y-56363201D01*
X160614838Y-56735167D01*
X160756883Y-57078943D01*
X161019673Y-57342192D01*
X161363201Y-57484838D01*
X161735167Y-57485162D01*
X162078943Y-57343117D01*
X162115157Y-57306966D01*
X162206883Y-57528961D01*
X162469673Y-57792210D01*
X162813201Y-57934856D01*
X163185167Y-57935180D01*
X163528943Y-57793135D01*
X163792192Y-57530345D01*
X163934838Y-57186817D01*
X163934879Y-57139941D01*
X164624249Y-56450571D01*
X170067528Y-56450571D01*
X170358367Y-56392719D01*
X170604929Y-56227972D01*
X170730497Y-56040046D01*
X170859720Y-55911048D01*
X171002366Y-55567520D01*
X171002411Y-55515719D01*
X174790917Y-55515719D01*
X177187600Y-57912402D01*
X177273802Y-57970000D01*
X170279723Y-57970000D01*
X170250950Y-57941177D01*
X169907422Y-57798531D01*
X169535456Y-57798207D01*
X169191680Y-57940252D01*
X168928431Y-58203042D01*
X168785785Y-58546570D01*
X168785461Y-58918536D01*
X168927506Y-59262312D01*
X169190296Y-59525561D01*
X169533824Y-59668207D01*
X169905790Y-59668531D01*
X170249566Y-59526486D01*
X170286116Y-59490000D01*
X178676433Y-59490000D01*
X178711861Y-59575743D01*
X179132045Y-59996660D01*
X179139426Y-59999725D01*
X179134257Y-60001861D01*
X178713340Y-60422045D01*
X178485260Y-60971321D01*
X178484741Y-61566069D01*
X178711861Y-62115743D01*
X179132045Y-62536660D01*
X179139426Y-62539725D01*
X179134257Y-62541861D01*
X178713340Y-62962045D01*
X178485260Y-63511321D01*
X178484741Y-64106069D01*
X178711861Y-64655743D01*
X179132045Y-65076660D01*
X179139426Y-65079725D01*
X179134257Y-65081861D01*
X178713340Y-65502045D01*
X178485260Y-66051321D01*
X178484741Y-66646069D01*
X178711861Y-67195743D01*
X178778699Y-67262697D01*
X177137599Y-68903797D01*
X176972852Y-69150359D01*
X176915000Y-69441198D01*
X176915000Y-73090891D01*
X176678276Y-72992594D01*
X176631400Y-72992553D01*
X176626448Y-72987601D01*
X176379886Y-72822854D01*
X176089047Y-72765002D01*
X175860118Y-72765002D01*
X175860162Y-72714833D01*
X175718117Y-72371057D01*
X175455327Y-72107808D01*
X175111799Y-71965162D01*
X175064923Y-71965121D01*
X174947355Y-71847553D01*
X174700793Y-71682806D01*
X174409954Y-71624954D01*
X168868410Y-71624954D01*
X168868454Y-71574777D01*
X168726409Y-71231001D01*
X168463619Y-70967752D01*
X168402047Y-70942185D01*
X168402062Y-70924779D01*
X168321289Y-70729293D01*
X171916026Y-70729293D01*
X171948162Y-70761485D01*
X172291690Y-70904131D01*
X172663656Y-70904455D01*
X173007432Y-70762410D01*
X173270681Y-70499620D01*
X173413327Y-70156092D01*
X173413651Y-69784126D01*
X173271606Y-69440350D01*
X173008816Y-69177101D01*
X172665288Y-69034455D01*
X172293322Y-69034131D01*
X171949546Y-69176176D01*
X171916371Y-69209293D01*
X165782831Y-69209293D01*
X165588783Y-69015245D01*
X165624295Y-68979795D01*
X165766941Y-68636267D01*
X165767265Y-68264301D01*
X165625220Y-67920525D01*
X165362430Y-67657276D01*
X165018902Y-67514630D01*
X164972026Y-67514589D01*
X163920036Y-66462599D01*
X163673474Y-66297852D01*
X163382635Y-66240000D01*
X162760000Y-66240000D01*
X162760000Y-62310167D01*
X164414838Y-62310167D01*
X164556883Y-62653943D01*
X164819673Y-62917192D01*
X165163201Y-63059838D01*
X165210077Y-63059879D01*
X165536651Y-63386453D01*
X165631883Y-63616932D01*
X165894673Y-63880181D01*
X166114771Y-63971574D01*
X166009697Y-64014990D01*
X165616371Y-64407630D01*
X165403243Y-64920900D01*
X165402758Y-65476661D01*
X165614990Y-65990303D01*
X166007630Y-66383629D01*
X166520900Y-66596757D01*
X167076661Y-66597242D01*
X167590303Y-66385010D01*
X167983629Y-65992370D01*
X168196757Y-65479100D01*
X168197242Y-64923339D01*
X167985010Y-64409697D01*
X167592370Y-64016371D01*
X167079100Y-63803243D01*
X167031983Y-63803202D01*
X167217192Y-63618316D01*
X167359838Y-63274788D01*
X167360162Y-62902822D01*
X167218117Y-62559046D01*
X166955327Y-62295797D01*
X166611799Y-62153151D01*
X166452815Y-62153013D01*
X166285122Y-61985320D01*
X166285162Y-61939833D01*
X166143117Y-61596057D01*
X165880327Y-61332808D01*
X165536799Y-61190162D01*
X165164833Y-61189838D01*
X164821057Y-61331883D01*
X164557808Y-61594673D01*
X164415162Y-61938201D01*
X164414838Y-62310167D01*
X162760000Y-62310167D01*
X162760000Y-60562463D01*
X162792192Y-60530327D01*
X162934838Y-60186799D01*
X162935162Y-59814833D01*
X162793117Y-59471057D01*
X162530327Y-59207808D01*
X162186799Y-59065162D01*
X161814833Y-59064838D01*
X161471057Y-59206883D01*
X161207808Y-59469673D01*
X161065162Y-59813201D01*
X161064838Y-60185167D01*
X161206883Y-60528943D01*
X161240000Y-60562118D01*
X161240000Y-66402836D01*
X157026865Y-66402836D01*
X157026909Y-66352659D01*
X156884864Y-66008883D01*
X156622074Y-65745634D01*
X156278546Y-65602988D01*
X155906580Y-65602664D01*
X155841654Y-65629491D01*
X155734538Y-65370249D01*
X155701421Y-65337074D01*
X155701421Y-65221590D01*
X155643569Y-64930751D01*
X155478822Y-64684189D01*
X154257232Y-63462599D01*
X154010670Y-63297852D01*
X153719831Y-63240000D01*
X146547328Y-63240000D01*
X146547328Y-52958909D01*
X146857129Y-52959179D01*
X147200905Y-52817134D01*
X147464154Y-52554344D01*
X147606800Y-52210816D01*
X147607124Y-51838850D01*
X147465079Y-51495074D01*
X147401617Y-51431501D01*
X147401617Y-50004153D01*
X147433809Y-49972017D01*
X147576455Y-49628489D01*
X147576779Y-49256523D01*
X147434734Y-48912747D01*
X147171944Y-48649498D01*
X146828416Y-48506852D01*
X146456450Y-48506528D01*
X146112674Y-48648573D01*
X145849425Y-48911363D01*
X145706779Y-49254891D01*
X145706455Y-49626857D01*
X145848500Y-49970633D01*
X145881617Y-50003808D01*
X145881617Y-50666312D01*
X145602161Y-50666069D01*
X145258385Y-50808114D01*
X144995136Y-51070904D01*
X144852490Y-51414432D01*
X144852333Y-51594321D01*
X144830305Y-51572254D01*
X144486777Y-51429608D01*
X144439901Y-51429567D01*
X139413673Y-46403339D01*
X139412423Y-46402504D01*
X147084223Y-46402504D01*
X147116359Y-46434696D01*
X147459887Y-46577342D01*
X147831853Y-46577666D01*
X148175629Y-46435621D01*
X148438878Y-46172831D01*
X148581524Y-45829303D01*
X148581848Y-45457337D01*
X148439803Y-45113561D01*
X148177013Y-44850312D01*
X147902769Y-44736435D01*
X147793117Y-44471057D01*
X147760000Y-44437882D01*
X147760000Y-36562463D01*
X147792192Y-36530327D01*
X147934838Y-36186799D01*
X147935162Y-35814833D01*
X147793117Y-35471057D01*
X147530327Y-35207808D01*
X147186799Y-35065162D01*
X146814833Y-35064838D01*
X146471057Y-35206883D01*
X146207808Y-35469673D01*
X146065162Y-35813201D01*
X146064838Y-36185167D01*
X146206883Y-36528943D01*
X146240000Y-36562118D01*
X146240000Y-44437537D01*
X146207808Y-44469673D01*
X146065162Y-44813201D01*
X146065102Y-44882504D01*
X144935103Y-44882504D01*
X144935162Y-44814833D01*
X144793117Y-44471057D01*
X144530327Y-44207808D01*
X144186799Y-44065162D01*
X143814833Y-44064838D01*
X143471057Y-44206883D01*
X143437882Y-44240000D01*
X142446898Y-44240000D01*
X142596757Y-43879100D01*
X142597242Y-43323339D01*
X142385010Y-42809697D01*
X141992370Y-42416371D01*
X141479100Y-42203243D01*
X140923339Y-42202758D01*
X140409697Y-42414990D01*
X140016371Y-42807630D01*
X139803243Y-43320900D01*
X139802758Y-43876661D01*
X139952886Y-44240000D01*
X137562463Y-44240000D01*
X137530327Y-44207808D01*
X137186799Y-44065162D01*
X136814833Y-44064838D01*
X136471057Y-44206883D01*
X136207808Y-44469673D01*
X136065162Y-44813201D01*
X136064838Y-45185167D01*
X136087494Y-45240000D01*
X134995368Y-45240000D01*
X134704529Y-45297852D01*
X134457967Y-45462599D01*
X132560330Y-47360236D01*
X132514843Y-47360196D01*
X132512987Y-47360963D01*
X132512987Y-41830396D01*
X132847776Y-41969413D01*
X133219742Y-41969737D01*
X133563518Y-41827692D01*
X133631328Y-41760000D01*
X135437537Y-41760000D01*
X135469673Y-41792192D01*
X135813201Y-41934838D01*
X136185167Y-41935162D01*
X136528943Y-41793117D01*
X136792192Y-41530327D01*
X136934838Y-41186799D01*
X136934879Y-41139923D01*
X138017746Y-40057056D01*
X138214626Y-39975707D01*
X138477875Y-39712917D01*
X138620521Y-39369389D01*
X138620845Y-38997423D01*
X138478800Y-38653647D01*
X138216010Y-38390398D01*
X137872482Y-38247752D01*
X137500516Y-38247428D01*
X137156740Y-38389473D01*
X136893491Y-38652263D01*
X136750845Y-38995791D01*
X136750689Y-39174509D01*
X135860320Y-40064878D01*
X135814833Y-40064838D01*
X135471057Y-40206883D01*
X135437882Y-40240000D01*
X133559163Y-40240000D01*
X133221374Y-40099737D01*
X132849408Y-40099413D01*
X132512987Y-40238419D01*
X132512987Y-39582225D01*
X132455135Y-39291386D01*
X132388068Y-39191013D01*
X132388150Y-39097059D01*
X132246105Y-38753283D01*
X131983315Y-38490034D01*
X131639787Y-38347388D01*
X131267821Y-38347064D01*
X130924045Y-38489109D01*
X130660796Y-38751899D01*
X130518150Y-39095427D01*
X130517826Y-39467393D01*
X130659871Y-39811169D01*
X130922661Y-40074418D01*
X130992987Y-40103620D01*
X130992987Y-44650533D01*
X130879100Y-44603243D01*
X130323339Y-44602758D01*
X129809697Y-44814990D01*
X129765025Y-44859584D01*
X129765025Y-43641435D01*
X129707173Y-43350596D01*
X129542426Y-43104034D01*
X128875990Y-42437598D01*
X128629428Y-42272851D01*
X128338589Y-42214999D01*
X127615537Y-42214999D01*
X126986400Y-41585862D01*
X127133661Y-41438858D01*
X127276307Y-41095330D01*
X127276631Y-40723364D01*
X127134586Y-40379588D01*
X126871796Y-40116339D01*
X126528268Y-39973693D01*
X126481392Y-39973652D01*
X126260000Y-39752260D01*
X126260000Y-39562463D01*
X126292192Y-39530327D01*
X126434838Y-39186799D01*
X126435162Y-38814833D01*
X126293117Y-38471057D01*
X126030327Y-38207808D01*
X125686799Y-38065162D01*
X125639923Y-38065121D01*
X123808802Y-36234000D01*
X123808802Y-31748009D01*
X123840994Y-31715873D01*
X123983640Y-31372345D01*
X123983964Y-31000379D01*
X123841919Y-30656603D01*
X123579129Y-30393354D01*
X123491315Y-30356890D01*
X163408524Y-30356890D01*
X163410447Y-30369260D01*
X163661336Y-30892045D01*
X164093188Y-31279024D01*
X164640258Y-31471284D01*
X164873000Y-31327231D01*
X164873000Y-30127000D01*
X165127000Y-30127000D01*
X165127000Y-31327231D01*
X165359742Y-31471284D01*
X165906812Y-31279024D01*
X166338664Y-30892045D01*
X166589553Y-30369260D01*
X166591476Y-30356890D01*
X166470155Y-30127000D01*
X165127000Y-30127000D01*
X164873000Y-30127000D01*
X163529845Y-30127000D01*
X163408524Y-30356890D01*
X123491315Y-30356890D01*
X123235601Y-30250708D01*
X122863635Y-30250384D01*
X122519859Y-30392429D01*
X122256610Y-30655219D01*
X122113964Y-30998747D01*
X122113640Y-31370713D01*
X122255685Y-31714489D01*
X122288802Y-31747664D01*
X122288802Y-36548802D01*
X122346654Y-36839641D01*
X122511401Y-37086203D01*
X123761905Y-38336707D01*
X123471057Y-38456883D01*
X123207808Y-38719673D01*
X123065162Y-39063201D01*
X123064838Y-39435167D01*
X123206883Y-39778943D01*
X123274245Y-39846422D01*
X123297852Y-39965103D01*
X123462599Y-40211665D01*
X126264803Y-43013869D01*
X125999739Y-43278471D01*
X125629003Y-42907086D01*
X125046659Y-42665276D01*
X124416107Y-42664725D01*
X123833343Y-42905519D01*
X123387086Y-43350997D01*
X123145276Y-43933341D01*
X123144725Y-44563893D01*
X123385519Y-45146657D01*
X123830997Y-45592914D01*
X124413341Y-45834724D01*
X125043893Y-45835275D01*
X125626657Y-45594481D01*
X126000261Y-45221529D01*
X126370997Y-45592914D01*
X126953341Y-45834724D01*
X127583893Y-45835275D01*
X128166657Y-45594481D01*
X128245025Y-45516250D01*
X128245025Y-48055025D01*
X128302877Y-48345864D01*
X128467624Y-48592426D01*
X128987599Y-49112401D01*
X129069507Y-49167130D01*
X130405372Y-50502995D01*
X130133339Y-50502758D01*
X129619697Y-50714990D01*
X129226371Y-51107630D01*
X129013243Y-51620900D01*
X129012758Y-52176661D01*
X129224990Y-52690303D01*
X129617630Y-53083629D01*
X130130900Y-53296757D01*
X130686661Y-53297242D01*
X131200303Y-53085010D01*
X131593629Y-52692370D01*
X131806757Y-52179100D01*
X131806997Y-51904620D01*
X132776880Y-52874503D01*
X132748659Y-52942467D01*
X132748335Y-53314433D01*
X132890380Y-53658209D01*
X133153170Y-53921458D01*
X133496698Y-54064104D01*
X133543574Y-54064145D01*
X134594604Y-55115175D01*
X134841166Y-55279922D01*
X135132005Y-55337774D01*
X141556877Y-55337774D01*
X142537668Y-56318565D01*
X140959605Y-56318565D01*
X140940562Y-56299489D01*
X140597034Y-56156843D01*
X140225068Y-56156519D01*
X139881292Y-56298564D01*
X139618043Y-56561354D01*
X139475397Y-56904882D01*
X139475073Y-57276848D01*
X139617118Y-57620624D01*
X139879908Y-57883873D01*
X140223436Y-58026519D01*
X140595402Y-58026843D01*
X140939178Y-57884798D01*
X140985492Y-57838565D01*
X143900001Y-57838565D01*
X143932137Y-57870757D01*
X144275665Y-58013403D01*
X144335469Y-58013455D01*
X144335469Y-63479897D01*
X144239157Y-63519692D01*
X143975908Y-63782482D01*
X143833262Y-64126010D01*
X143832938Y-64497976D01*
X143839973Y-64515001D01*
X137746107Y-64515001D01*
X137589568Y-64546139D01*
X137496314Y-64320446D01*
X137233524Y-64057197D01*
X137080957Y-63993845D01*
X140139680Y-60935122D01*
X140185167Y-60935162D01*
X140528943Y-60793117D01*
X140792192Y-60530327D01*
X140828429Y-60443059D01*
X140940000Y-60713083D01*
X140940000Y-61612537D01*
X140907808Y-61644673D01*
X140765162Y-61988201D01*
X140764838Y-62360167D01*
X140906883Y-62703943D01*
X141169673Y-62967192D01*
X141513201Y-63109838D01*
X141885167Y-63110162D01*
X142228943Y-62968117D01*
X142492192Y-62705327D01*
X142634838Y-62361799D01*
X142635162Y-61989833D01*
X142493117Y-61646057D01*
X142460000Y-61612882D01*
X142460000Y-60837376D01*
X142542192Y-60755327D01*
X142684838Y-60411799D01*
X142685162Y-60039833D01*
X142543117Y-59696057D01*
X142280327Y-59432808D01*
X141936799Y-59290162D01*
X141564833Y-59289838D01*
X141221057Y-59431883D01*
X140957808Y-59694673D01*
X140921571Y-59781941D01*
X140793117Y-59471057D01*
X140530327Y-59207808D01*
X140186799Y-59065162D01*
X139814833Y-59064838D01*
X139471057Y-59206883D01*
X139207808Y-59469673D01*
X139065162Y-59813201D01*
X139065121Y-59860077D01*
X135912594Y-63012604D01*
X135866374Y-62993411D01*
X135494408Y-62993087D01*
X135150632Y-63135132D01*
X134887383Y-63397922D01*
X134744737Y-63741450D01*
X134744661Y-63828974D01*
X126278776Y-63828974D01*
X124746463Y-62296661D01*
X127852758Y-62296661D01*
X128064990Y-62810303D01*
X128457630Y-63203629D01*
X128970900Y-63416757D01*
X129526661Y-63417242D01*
X130040303Y-63205010D01*
X130433629Y-62812370D01*
X130646757Y-62299100D01*
X130647242Y-61743339D01*
X130435010Y-61229697D01*
X130042370Y-60836371D01*
X129529100Y-60623243D01*
X128973339Y-60622758D01*
X128459697Y-60834990D01*
X128066371Y-61227630D01*
X127853243Y-61740900D01*
X127852758Y-62296661D01*
X124746463Y-62296661D01*
X120910122Y-58460320D01*
X120910162Y-58414833D01*
X120768117Y-58071057D01*
X120505327Y-57807808D01*
X120161799Y-57665162D01*
X119789833Y-57664838D01*
X119446057Y-57806883D01*
X119363799Y-57888997D01*
X118710000Y-57235198D01*
X118710000Y-57185167D01*
X124064838Y-57185167D01*
X124206883Y-57528943D01*
X124469673Y-57792192D01*
X124813201Y-57934838D01*
X124860077Y-57934879D01*
X125223089Y-58297891D01*
X125469650Y-58462638D01*
X125760490Y-58520490D01*
X127495938Y-58520490D01*
X127495676Y-58821202D01*
X127637721Y-59164978D01*
X127900511Y-59428227D01*
X128244039Y-59570873D01*
X128616005Y-59571197D01*
X128959781Y-59429152D01*
X128992956Y-59396035D01*
X130986123Y-59396035D01*
X130987996Y-59397911D01*
X131331524Y-59540557D01*
X131703490Y-59540881D01*
X132047266Y-59398836D01*
X132310515Y-59136046D01*
X132453161Y-58792518D01*
X132453398Y-58520490D01*
X134074467Y-58520490D01*
X134106883Y-58598943D01*
X134369673Y-58862192D01*
X134713201Y-59004838D01*
X135085167Y-59005162D01*
X135428943Y-58863117D01*
X135692192Y-58600327D01*
X135834838Y-58256799D01*
X135835162Y-57884833D01*
X135693117Y-57541057D01*
X135430327Y-57277808D01*
X135086799Y-57135162D01*
X134996180Y-57135083D01*
X134881329Y-57058342D01*
X134590490Y-57000490D01*
X133927594Y-57000490D01*
X133927712Y-56864823D01*
X133785667Y-56521047D01*
X133522877Y-56257798D01*
X133179349Y-56115152D01*
X132807383Y-56114828D01*
X132463607Y-56256873D01*
X132430432Y-56289990D01*
X130949870Y-56289990D01*
X130939329Y-56279431D01*
X130595801Y-56136785D01*
X130223835Y-56136461D01*
X129880059Y-56278506D01*
X129616810Y-56541296D01*
X129474164Y-56884824D01*
X129474063Y-57000490D01*
X126075292Y-57000490D01*
X125935122Y-56860320D01*
X125935162Y-56814833D01*
X125793117Y-56471057D01*
X125530327Y-56207808D01*
X125186799Y-56065162D01*
X124814833Y-56064838D01*
X124471057Y-56206883D01*
X124207808Y-56469673D01*
X124065162Y-56813201D01*
X124064838Y-57185167D01*
X118710000Y-57185167D01*
X118710000Y-49087463D01*
X118742192Y-49055327D01*
X118884838Y-48711799D01*
X118885162Y-48339833D01*
X118743117Y-47996057D01*
X118480327Y-47732808D01*
X118136799Y-47590162D01*
X117764833Y-47589838D01*
X117421057Y-47731883D01*
X117157808Y-47994673D01*
X117015162Y-48338201D01*
X117014838Y-48710167D01*
X117156883Y-49053943D01*
X117190000Y-49087118D01*
X117190000Y-57550000D01*
X117247852Y-57840839D01*
X117412599Y-58087401D01*
X125064856Y-65739658D01*
X125064838Y-65760167D01*
X125206883Y-66103943D01*
X125469673Y-66367192D01*
X125813201Y-66509838D01*
X126185167Y-66510162D01*
X126528943Y-66368117D01*
X126792192Y-66105327D01*
X126919397Y-65798985D01*
X132334397Y-65798985D01*
X132193051Y-65857388D01*
X131929802Y-66120178D01*
X131787156Y-66463706D01*
X131787090Y-66539721D01*
X131020943Y-66539721D01*
X130961799Y-66515162D01*
X130589833Y-66514838D01*
X130246057Y-66656883D01*
X129982808Y-66919673D01*
X129840162Y-67263201D01*
X129839838Y-67635167D01*
X129981883Y-67978943D01*
X130244673Y-68242192D01*
X130588201Y-68384838D01*
X130960167Y-68385162D01*
X131303943Y-68243117D01*
X131487659Y-68059721D01*
X132991607Y-68059721D01*
X132990162Y-68063201D01*
X132989838Y-68435167D01*
X133131883Y-68778943D01*
X133394673Y-69042192D01*
X133738201Y-69184838D01*
X134110167Y-69185162D01*
X134453943Y-69043117D01*
X134486157Y-69010959D01*
X134665198Y-69190000D01*
X131312463Y-69190000D01*
X131280327Y-69157808D01*
X130936799Y-69015162D01*
X130564833Y-69014838D01*
X130221057Y-69156883D01*
X129957808Y-69419673D01*
X129815162Y-69763201D01*
X129814838Y-70135167D01*
X129956883Y-70478943D01*
X130219673Y-70742192D01*
X130563201Y-70884838D01*
X130935167Y-70885162D01*
X131278943Y-70743117D01*
X131312118Y-70710000D01*
X138846510Y-70710000D01*
X139096161Y-70959651D01*
X139342722Y-71124398D01*
X139633562Y-71182250D01*
X139704823Y-71182250D01*
X139547084Y-71339989D01*
X132300011Y-71339989D01*
X132009172Y-71397841D01*
X131762610Y-71562588D01*
X125260320Y-78064878D01*
X125214833Y-78064838D01*
X124871057Y-78206883D01*
X124607808Y-78469673D01*
X124465162Y-78813201D01*
X124464838Y-79185167D01*
X124606883Y-79528943D01*
X124869673Y-79792192D01*
X125213201Y-79934838D01*
X125585167Y-79935162D01*
X125928943Y-79793117D01*
X126192192Y-79530327D01*
X126334838Y-79186799D01*
X126334879Y-79139923D01*
X132614813Y-72859989D01*
X138815012Y-72859989D01*
X138814838Y-73060177D01*
X138956883Y-73403953D01*
X139219673Y-73667202D01*
X139563201Y-73809848D01*
X139935167Y-73810172D01*
X140278943Y-73668127D01*
X140312118Y-73635010D01*
X140895768Y-73635010D01*
X141186607Y-73577158D01*
X141433169Y-73412411D01*
X141784621Y-73060959D01*
X141827426Y-73103839D01*
X142170954Y-73246485D01*
X142542920Y-73246809D01*
X142886696Y-73104764D01*
X143149945Y-72841974D01*
X143155963Y-72827482D01*
X143201259Y-72846291D01*
X143573225Y-72846615D01*
X143917001Y-72704570D01*
X144180250Y-72441780D01*
X144322896Y-72098252D01*
X144322937Y-72051376D01*
X145694313Y-70680000D01*
X150265198Y-70680000D01*
X150375153Y-70789955D01*
X150375153Y-73214989D01*
X148917665Y-73214989D01*
X148885529Y-73182797D01*
X148542001Y-73040151D01*
X148170035Y-73039827D01*
X148020000Y-73101820D01*
X148020000Y-72893347D01*
X148159757Y-72556776D01*
X148160081Y-72184810D01*
X148018036Y-71841034D01*
X147755246Y-71577785D01*
X147411718Y-71435139D01*
X147039752Y-71434815D01*
X146695976Y-71576860D01*
X146432727Y-71839650D01*
X146290081Y-72183178D01*
X146289823Y-72479527D01*
X146274665Y-72473233D01*
X145902699Y-72472909D01*
X145558923Y-72614954D01*
X145295674Y-72877744D01*
X145153028Y-73221272D01*
X145152704Y-73593238D01*
X145294749Y-73937014D01*
X145327866Y-73970189D01*
X145327866Y-76608048D01*
X145325909Y-76610005D01*
X143178503Y-74462599D01*
X142931941Y-74297852D01*
X142641102Y-74240000D01*
X137562463Y-74240000D01*
X137530327Y-74207808D01*
X137186799Y-74065162D01*
X136814833Y-74064838D01*
X136471057Y-74206883D01*
X136207808Y-74469673D01*
X136065162Y-74813201D01*
X136064838Y-75185167D01*
X136206883Y-75528943D01*
X136469673Y-75792192D01*
X136813201Y-75934838D01*
X137185167Y-75935162D01*
X137528943Y-75793117D01*
X137562118Y-75760000D01*
X142326300Y-75760000D01*
X144034392Y-77468092D01*
X144032808Y-77469673D01*
X143890162Y-77813201D01*
X143889838Y-78185167D01*
X144031883Y-78528943D01*
X144294673Y-78792192D01*
X144638201Y-78934838D01*
X145010167Y-78935162D01*
X145353943Y-78793117D01*
X145617192Y-78530327D01*
X145699756Y-78331491D01*
X145863310Y-78222208D01*
X146625267Y-77460251D01*
X146790014Y-77213689D01*
X146847866Y-76922850D01*
X146847866Y-74911270D01*
X147073201Y-75004838D01*
X147373000Y-75005099D01*
X147373000Y-78438961D01*
X144920664Y-80400830D01*
X144883006Y-80450590D01*
X144873000Y-80500000D01*
X144873000Y-84873000D01*
X141465605Y-84873000D01*
X141465605Y-81684197D01*
X141939680Y-81210122D01*
X141985167Y-81210162D01*
X142328943Y-81068117D01*
X142592192Y-80805327D01*
X142734838Y-80461799D01*
X142735162Y-80089833D01*
X142593117Y-79746057D01*
X142330327Y-79482808D01*
X142054360Y-79368216D01*
X142070728Y-79328799D01*
X142071052Y-78956833D01*
X141929007Y-78613057D01*
X141666217Y-78349808D01*
X141322689Y-78207162D01*
X141280305Y-78207125D01*
X141280539Y-77938443D01*
X141138494Y-77594667D01*
X140875704Y-77331418D01*
X140532176Y-77188772D01*
X140160210Y-77188448D01*
X139990978Y-77258373D01*
X139964509Y-77231858D01*
X139620981Y-77089212D01*
X139249015Y-77088888D01*
X138905239Y-77230933D01*
X138641990Y-77493723D01*
X138499344Y-77837251D01*
X138499303Y-77884127D01*
X137112553Y-79270877D01*
X136947806Y-79517439D01*
X136889954Y-79808278D01*
X136889954Y-87055649D01*
X136805875Y-87055576D01*
X136462099Y-87197621D01*
X136198850Y-87460411D01*
X136056204Y-87803939D01*
X136056121Y-87899287D01*
X135988895Y-87999898D01*
X135931043Y-88290737D01*
X135931043Y-91049225D01*
X135988895Y-91340064D01*
X136153642Y-91586626D01*
X137243506Y-92676490D01*
X137243466Y-92721977D01*
X137385511Y-93065753D01*
X137648301Y-93329002D01*
X137991829Y-93471648D01*
X138363795Y-93471972D01*
X138707571Y-93329927D01*
X138970820Y-93067137D01*
X138983246Y-93037213D01*
X139158479Y-93212446D01*
X139207588Y-93245259D01*
X139405042Y-93377193D01*
X139695881Y-93435045D01*
X145919275Y-93435045D01*
X146575413Y-94091183D01*
X146821975Y-94255930D01*
X147112814Y-94313782D01*
X165969156Y-94313782D01*
X166001292Y-94345974D01*
X166344820Y-94488620D01*
X166716786Y-94488944D01*
X167060562Y-94346899D01*
X167323811Y-94084109D01*
X167466457Y-93740581D01*
X167466781Y-93368615D01*
X167356776Y-93102383D01*
X167423488Y-92941724D01*
X167423812Y-92569758D01*
X167374626Y-92450717D01*
X167501359Y-92145511D01*
X167501683Y-91773545D01*
X167359638Y-91429769D01*
X167355239Y-91425362D01*
X167384860Y-91354027D01*
X167385184Y-90982061D01*
X167243139Y-90638285D01*
X167242827Y-90637972D01*
X167284838Y-90536799D01*
X167285162Y-90164833D01*
X167143117Y-89821057D01*
X166880327Y-89557808D01*
X166536799Y-89415162D01*
X166164833Y-89414838D01*
X165821057Y-89556883D01*
X165787882Y-89590000D01*
X157589260Y-89590000D01*
X157616994Y-89549410D01*
X157627000Y-89500000D01*
X157627000Y-85000000D01*
X157618315Y-84953841D01*
X157591035Y-84911447D01*
X157549410Y-84883006D01*
X157500000Y-84873000D01*
X153627000Y-84873000D01*
X153627000Y-80500000D01*
X153611669Y-80439509D01*
X153579336Y-80400830D01*
X151127000Y-78438961D01*
X151127000Y-78324270D01*
X151269673Y-78467192D01*
X151613201Y-78609838D01*
X151660077Y-78609879D01*
X152398818Y-79348620D01*
X152645379Y-79513367D01*
X152936219Y-79571219D01*
X167230379Y-79571219D01*
X167521218Y-79513367D01*
X167767780Y-79348620D01*
X167873172Y-79243228D01*
X167918659Y-79243268D01*
X168262435Y-79101223D01*
X168525684Y-78838433D01*
X168668330Y-78494905D01*
X168668365Y-78455001D01*
X178608303Y-78455001D01*
X178485260Y-78751321D01*
X178484741Y-79346069D01*
X178711861Y-79895743D01*
X179132045Y-80316660D01*
X179139426Y-80319725D01*
X179134257Y-80321861D01*
X178713340Y-80742045D01*
X178676818Y-80830000D01*
X177527480Y-80830000D01*
X177505327Y-80807808D01*
X177161799Y-80665162D01*
X176789833Y-80664838D01*
X176446057Y-80806883D01*
X176182808Y-81069673D01*
X176040162Y-81413201D01*
X176039838Y-81785167D01*
X176145132Y-82039999D01*
X171146604Y-82039999D01*
X171118117Y-81971055D01*
X170855327Y-81707806D01*
X170511799Y-81565160D01*
X170480322Y-81565133D01*
X170568152Y-81353615D01*
X170568476Y-80981649D01*
X170426431Y-80637873D01*
X170163641Y-80374624D01*
X169820113Y-80231978D01*
X169448147Y-80231654D01*
X169104371Y-80373699D01*
X169088042Y-80390000D01*
X158337463Y-80390000D01*
X158305327Y-80357808D01*
X157961799Y-80215162D01*
X157589833Y-80214838D01*
X157246057Y-80356883D01*
X156982808Y-80619673D01*
X156840162Y-80963201D01*
X156839838Y-81335167D01*
X156981883Y-81678943D01*
X157244673Y-81942192D01*
X157588201Y-82084838D01*
X157960167Y-82085162D01*
X158303943Y-81943117D01*
X158337118Y-81910000D01*
X169054064Y-81910000D01*
X169102987Y-81959008D01*
X169446515Y-82101654D01*
X169477992Y-82101681D01*
X169390162Y-82313199D01*
X169389838Y-82685165D01*
X169524656Y-83011450D01*
X169313831Y-83221907D01*
X169171185Y-83565435D01*
X169170861Y-83937401D01*
X169312906Y-84281177D01*
X169394537Y-84362950D01*
X169161374Y-84459291D01*
X168898125Y-84722081D01*
X168755479Y-85065609D01*
X168755290Y-85282380D01*
X165886060Y-82413150D01*
X165639498Y-82248403D01*
X165348659Y-82190551D01*
X163888014Y-82190551D01*
X163855878Y-82158359D01*
X163512350Y-82015713D01*
X163140384Y-82015389D01*
X162796608Y-82157434D01*
X162533359Y-82420224D01*
X162390713Y-82763752D01*
X162390389Y-83135718D01*
X162532434Y-83479494D01*
X162795224Y-83742743D01*
X163138752Y-83885389D01*
X163510718Y-83885713D01*
X163854494Y-83743668D01*
X163887669Y-83710551D01*
X165033857Y-83710551D01*
X167296615Y-85973309D01*
X166222336Y-85973309D01*
X165931497Y-86031161D01*
X165684935Y-86195908D01*
X165051214Y-86829629D01*
X165005727Y-86829589D01*
X164661951Y-86971634D01*
X164398702Y-87234424D01*
X164256056Y-87577952D01*
X164255732Y-87949918D01*
X164397777Y-88293694D01*
X164660567Y-88556943D01*
X165004095Y-88699589D01*
X165376061Y-88699913D01*
X165719837Y-88557868D01*
X165983086Y-88295078D01*
X166125732Y-87951550D01*
X166125773Y-87904674D01*
X166537138Y-87493309D01*
X167139786Y-87493309D01*
X167139742Y-87543486D01*
X167281787Y-87887262D01*
X167349149Y-87954741D01*
X167372756Y-88073422D01*
X167537503Y-88319984D01*
X176370982Y-97153463D01*
X176370982Y-99693206D01*
X176428834Y-99984045D01*
X176593581Y-100230607D01*
X178034999Y-101672025D01*
X178034999Y-102478801D01*
X178072037Y-102665000D01*
X153605031Y-102665000D01*
X153584347Y-102644316D01*
X153484929Y-102403706D01*
X153222139Y-102140457D01*
X152878611Y-101997811D01*
X152506645Y-101997487D01*
X152162869Y-102139532D01*
X151899620Y-102402322D01*
X151756974Y-102745850D01*
X151756650Y-103117816D01*
X151898695Y-103461592D01*
X152161485Y-103724841D01*
X152403722Y-103825427D01*
X152668729Y-104090434D01*
X152939622Y-104271439D01*
X153259163Y-104335000D01*
X176065000Y-104335000D01*
X176065000Y-105800000D01*
X176128561Y-106119541D01*
X176255822Y-106310000D01*
X176309566Y-106390434D01*
X177909566Y-107990434D01*
X178180460Y-108171440D01*
X178500000Y-108235000D01*
X183208998Y-108235000D01*
X183528539Y-108171439D01*
X183799432Y-107990434D01*
X187000261Y-104789605D01*
X186999340Y-105844531D01*
X187578156Y-107245372D01*
X188648991Y-108318077D01*
X189985393Y-108873000D01*
X162307868Y-108873000D01*
X162621728Y-108559140D01*
X162683341Y-108584724D01*
X163313893Y-108585275D01*
X163896657Y-108344481D01*
X164342914Y-107899003D01*
X164584724Y-107316659D01*
X164585275Y-106686107D01*
X164344481Y-106103343D01*
X163899003Y-105657086D01*
X163316659Y-105415276D01*
X162686107Y-105414725D01*
X162103343Y-105655519D01*
X161729739Y-106028471D01*
X161359003Y-105657086D01*
X160776659Y-105415276D01*
X160146107Y-105414725D01*
X159563343Y-105655519D01*
X159189739Y-106028471D01*
X158819003Y-105657086D01*
X158236659Y-105415276D01*
X157606107Y-105414725D01*
X157023343Y-105655519D01*
X156577086Y-106100997D01*
X156335276Y-106683341D01*
X156334725Y-107313893D01*
X156529384Y-107785001D01*
X151502365Y-107785001D01*
X151584724Y-107586659D01*
X151585275Y-106956107D01*
X151344481Y-106373343D01*
X150905789Y-105933884D01*
X150936745Y-105846350D01*
X150000000Y-104909605D01*
X149063255Y-105846350D01*
X149094407Y-105934439D01*
X148657086Y-106370997D01*
X148415276Y-106953341D01*
X148414725Y-107583893D01*
X148497821Y-107785001D01*
X147599371Y-107785001D01*
X147233936Y-107419566D01*
X147204653Y-107400000D01*
X146963043Y-107238561D01*
X146672326Y-107180734D01*
X146644481Y-107113343D01*
X146199003Y-106667086D01*
X145616659Y-106425276D01*
X144986107Y-106424725D01*
X144922058Y-106451190D01*
X144190434Y-105719566D01*
X143972890Y-105574208D01*
X143919541Y-105538561D01*
X143600000Y-105475000D01*
X138160000Y-105475000D01*
X137840460Y-105538560D01*
X137569566Y-105719566D01*
X136444132Y-106845000D01*
X125365338Y-106845000D01*
X125584724Y-106316659D01*
X125585275Y-105686107D01*
X125344481Y-105103343D01*
X124905789Y-104663884D01*
X124936745Y-104576350D01*
X124837793Y-104477398D01*
X148403812Y-104477398D01*
X148428648Y-105107461D01*
X148621981Y-105574208D01*
X148883650Y-105666745D01*
X149820395Y-104730000D01*
X150179605Y-104730000D01*
X151116350Y-105666745D01*
X151378019Y-105574208D01*
X151596188Y-104982602D01*
X151571352Y-104352539D01*
X151378019Y-103885792D01*
X151116350Y-103793255D01*
X150179605Y-104730000D01*
X149820395Y-104730000D01*
X148883650Y-103793255D01*
X148621981Y-103885792D01*
X148403812Y-104477398D01*
X124837793Y-104477398D01*
X124000000Y-103639605D01*
X123985858Y-103653748D01*
X123806253Y-103474143D01*
X123820395Y-103460000D01*
X124179605Y-103460000D01*
X125116350Y-104396745D01*
X125378019Y-104304208D01*
X125596188Y-103712602D01*
X125571352Y-103082539D01*
X125378019Y-102615792D01*
X125116350Y-102523255D01*
X124179605Y-103460000D01*
X123820395Y-103460000D01*
X122883650Y-102523255D01*
X122621981Y-102615792D01*
X122403812Y-103207398D01*
X122419947Y-103616714D01*
X117810949Y-103616714D01*
X117686799Y-103565162D01*
X117314833Y-103564838D01*
X116971057Y-103706883D01*
X116911351Y-103766485D01*
X116305000Y-103160134D01*
X116305000Y-101233893D01*
X122414725Y-101233893D01*
X122655519Y-101816657D01*
X123094211Y-102256116D01*
X123063255Y-102343650D01*
X124000000Y-103280395D01*
X124936745Y-102343650D01*
X124905593Y-102255561D01*
X125342914Y-101819003D01*
X125584724Y-101236659D01*
X125585275Y-100606107D01*
X125344481Y-100023343D01*
X124899003Y-99577086D01*
X124316659Y-99335276D01*
X123686107Y-99334725D01*
X123103343Y-99575519D01*
X122657086Y-100020997D01*
X122415276Y-100603341D01*
X122414725Y-101233893D01*
X116305000Y-101233893D01*
X116305000Y-94754264D01*
X116302245Y-94740412D01*
X116287065Y-94664097D01*
X116364838Y-94476799D01*
X116365162Y-94104833D01*
X116223117Y-93761057D01*
X115960327Y-93497808D01*
X115616799Y-93355162D01*
X115244833Y-93354838D01*
X114901057Y-93496883D01*
X114637808Y-93759673D01*
X114495162Y-94103201D01*
X114494838Y-94475167D01*
X114596271Y-94720655D01*
X114635000Y-94915356D01*
X114635000Y-103506002D01*
X114698561Y-103825543D01*
X114875556Y-104090434D01*
X114879566Y-104096436D01*
X116573565Y-105790435D01*
X116844459Y-105971441D01*
X117163999Y-106035001D01*
X118714133Y-106035001D01*
X120949566Y-108270434D01*
X121220459Y-108451439D01*
X121540000Y-108515000D01*
X136790000Y-108515000D01*
X137109541Y-108451439D01*
X137380434Y-108270434D01*
X138505868Y-107145000D01*
X141402967Y-107145000D01*
X141175276Y-107693341D01*
X141174725Y-108323893D01*
X141401612Y-108873000D01*
X119623711Y-108873000D01*
X119854724Y-108316659D01*
X119855275Y-107686107D01*
X119614481Y-107103343D01*
X119169003Y-106657086D01*
X118586659Y-106415276D01*
X117956107Y-106414725D01*
X117373343Y-106655519D01*
X116999739Y-107028471D01*
X116629003Y-106657086D01*
X116046659Y-106415276D01*
X115416107Y-106414725D01*
X114833343Y-106655519D01*
X114387086Y-107100997D01*
X114145276Y-107683341D01*
X114144725Y-108313893D01*
X114375744Y-108873000D01*
X101127000Y-108873000D01*
X101127000Y-102034531D01*
X101269340Y-102034531D01*
X101848156Y-103435372D01*
X102918991Y-104508077D01*
X104318819Y-105089337D01*
X105834531Y-105090660D01*
X107235372Y-104511844D01*
X108308077Y-103441009D01*
X108889337Y-102041181D01*
X108890660Y-100525469D01*
X108311844Y-99124628D01*
X107241009Y-98051923D01*
X105841181Y-97470663D01*
X104325469Y-97469340D01*
X102924628Y-98048156D01*
X101851923Y-99118991D01*
X101270663Y-100518819D01*
X101269340Y-102034531D01*
X101127000Y-102034531D01*
X101127000Y-97127000D01*
X105000000Y-97127000D01*
X105049410Y-97116994D01*
X105089803Y-97089803D01*
X109052606Y-93127000D01*
X121250583Y-93127000D01*
X121250583Y-96010583D01*
X121308435Y-96301422D01*
X121473182Y-96547984D01*
X122064878Y-97139680D01*
X122064838Y-97185167D01*
X122206883Y-97528943D01*
X122469673Y-97792192D01*
X122813201Y-97934838D01*
X123185167Y-97935162D01*
X123528943Y-97793117D01*
X123792192Y-97530327D01*
X123809238Y-97489276D01*
X123855146Y-97508339D01*
X124227112Y-97508663D01*
X124469523Y-97408501D01*
X129587678Y-97408501D01*
X130336207Y-98157030D01*
X129946659Y-97995276D01*
X129316107Y-97994725D01*
X128733343Y-98235519D01*
X128287086Y-98680997D01*
X128045276Y-99263341D01*
X128044725Y-99893893D01*
X128285519Y-100476657D01*
X128658471Y-100850261D01*
X128287086Y-101220997D01*
X128045276Y-101803341D01*
X128044725Y-102433893D01*
X128285519Y-103016657D01*
X128730997Y-103462914D01*
X129313341Y-103704724D01*
X129943893Y-103705275D01*
X130165641Y-103613650D01*
X149063255Y-103613650D01*
X150000000Y-104550395D01*
X150936745Y-103613650D01*
X150844208Y-103351981D01*
X150252602Y-103133812D01*
X149622539Y-103158648D01*
X149155792Y-103351981D01*
X149063255Y-103613650D01*
X130165641Y-103613650D01*
X130526657Y-103464481D01*
X130972914Y-103019003D01*
X131214724Y-102436659D01*
X131215275Y-101806107D01*
X130974481Y-101223343D01*
X130601529Y-100849739D01*
X130972914Y-100479003D01*
X131214724Y-99896659D01*
X131215275Y-99266107D01*
X131053317Y-98874140D01*
X132769613Y-100590436D01*
X133040506Y-100771441D01*
X133360047Y-100835002D01*
X147579998Y-100835002D01*
X147899539Y-100771441D01*
X148170432Y-100590436D01*
X151068333Y-97692535D01*
X151207578Y-97635000D01*
X156530052Y-97635000D01*
X156551896Y-97687867D01*
X156814686Y-97951116D01*
X157158214Y-98093762D01*
X157530180Y-98094086D01*
X157873956Y-97952041D01*
X158137205Y-97689251D01*
X158279851Y-97345723D01*
X158280175Y-96973757D01*
X158138130Y-96629981D01*
X157875340Y-96366732D01*
X157633103Y-96266146D01*
X157576523Y-96209566D01*
X157535866Y-96182400D01*
X157305630Y-96028561D01*
X156986089Y-95965000D01*
X151207234Y-95965000D01*
X150966799Y-95865162D01*
X150594833Y-95864838D01*
X150251057Y-96006883D01*
X149987808Y-96269673D01*
X149887222Y-96511910D01*
X147234130Y-99165002D01*
X133705915Y-99165002D01*
X133530191Y-98989278D01*
X133661316Y-98858382D01*
X133803962Y-98514854D01*
X133804286Y-98142888D01*
X133704124Y-97900477D01*
X133704124Y-97133142D01*
X133817066Y-97180040D01*
X133852470Y-97215444D01*
X134123363Y-97396449D01*
X134442904Y-97460010D01*
X137242020Y-97460010D01*
X137482455Y-97559848D01*
X137854421Y-97560172D01*
X138198197Y-97418127D01*
X138461446Y-97155337D01*
X138604092Y-96811809D01*
X138604148Y-96747571D01*
X141203768Y-96747571D01*
X141254455Y-96781439D01*
X141573996Y-96845000D01*
X147412766Y-96845000D01*
X147653201Y-96944838D01*
X148025167Y-96945162D01*
X148368943Y-96803117D01*
X148632192Y-96540327D01*
X148774838Y-96196799D01*
X148775162Y-95824833D01*
X148633117Y-95481057D01*
X148370327Y-95217808D01*
X148026799Y-95075162D01*
X147654833Y-95074838D01*
X147412422Y-95175000D01*
X141846795Y-95175000D01*
X141796108Y-95141132D01*
X141476567Y-95077571D01*
X137271905Y-95077571D01*
X135753878Y-93559544D01*
X135709662Y-93530000D01*
X135482985Y-93378539D01*
X135163444Y-93314978D01*
X132534555Y-93314978D01*
X132215014Y-93378539D01*
X131988337Y-93530000D01*
X131944121Y-93559544D01*
X131725397Y-93778268D01*
X123922945Y-93778268D01*
X123545585Y-93400908D01*
X123545585Y-93127000D01*
X124400000Y-93127000D01*
X124449410Y-93116994D01*
X124491035Y-93088553D01*
X124518315Y-93046159D01*
X124527000Y-93000000D01*
X124527000Y-82800000D01*
X124516994Y-82750590D01*
X124488553Y-82708965D01*
X124446159Y-82681685D01*
X124400000Y-82673000D01*
X123127000Y-82673000D01*
X123127000Y-74585167D01*
X123664838Y-74585167D01*
X123806883Y-74928943D01*
X124069673Y-75192192D01*
X124413201Y-75334838D01*
X124785167Y-75335162D01*
X125128943Y-75193117D01*
X125162118Y-75160000D01*
X125668783Y-75160000D01*
X125959622Y-75102148D01*
X126206184Y-74937401D01*
X127095766Y-74047819D01*
X127141253Y-74047859D01*
X127485029Y-73905814D01*
X127748278Y-73643024D01*
X127890924Y-73299496D01*
X127891248Y-72927530D01*
X127749203Y-72583754D01*
X127486413Y-72320505D01*
X127142885Y-72177859D01*
X126770919Y-72177535D01*
X126427143Y-72319580D01*
X126163894Y-72582370D01*
X126021248Y-72925898D01*
X126021207Y-72972774D01*
X125353981Y-73640000D01*
X125162463Y-73640000D01*
X125130327Y-73607808D01*
X124786799Y-73465162D01*
X124414833Y-73464838D01*
X124071057Y-73606883D01*
X123807808Y-73869673D01*
X123665162Y-74213201D01*
X123664838Y-74585167D01*
X123127000Y-74585167D01*
X123127000Y-72000000D01*
X123116994Y-71950590D01*
X123088553Y-71908965D01*
X123046159Y-71881685D01*
X123000000Y-71873000D01*
X101127000Y-71873000D01*
X101127000Y-64797715D01*
X110917643Y-64797715D01*
X111059688Y-65141491D01*
X111322478Y-65404740D01*
X111666006Y-65547386D01*
X112037972Y-65547710D01*
X112381748Y-65405665D01*
X112488770Y-65298830D01*
X112488770Y-67199564D01*
X112471057Y-67206883D01*
X112207808Y-67469673D01*
X112065162Y-67813201D01*
X112064838Y-68185167D01*
X112206883Y-68528943D01*
X112469673Y-68792192D01*
X112813201Y-68934838D01*
X113185167Y-68935162D01*
X113528943Y-68793117D01*
X113792192Y-68530327D01*
X113934838Y-68186799D01*
X113934943Y-68065977D01*
X113950918Y-68042069D01*
X114008770Y-67751230D01*
X114008770Y-67671158D01*
X114072034Y-67697428D01*
X114444000Y-67697752D01*
X114787776Y-67555707D01*
X115051025Y-67292917D01*
X115193671Y-66949389D01*
X115193995Y-66577423D01*
X115051950Y-66233647D01*
X114789160Y-65970398D01*
X114760000Y-65958290D01*
X114760000Y-62562463D01*
X114792192Y-62530327D01*
X114934838Y-62186799D01*
X114935162Y-61814833D01*
X114793117Y-61471057D01*
X114760000Y-61437882D01*
X114760000Y-59217443D01*
X114792192Y-59185307D01*
X114934838Y-58841779D01*
X114935162Y-58469813D01*
X114793117Y-58126037D01*
X114530327Y-57862788D01*
X114186799Y-57720142D01*
X113814833Y-57719818D01*
X113471057Y-57861863D01*
X113207808Y-58124653D01*
X113094143Y-58398387D01*
X112771057Y-58531883D01*
X112507808Y-58794673D01*
X112365162Y-59138201D01*
X112364838Y-59510167D01*
X112506883Y-59853943D01*
X112540000Y-59887118D01*
X112540000Y-62850551D01*
X111713125Y-63677426D01*
X111667638Y-63677386D01*
X111323862Y-63819431D01*
X111060613Y-64082221D01*
X110917967Y-64425749D01*
X110917643Y-64797715D01*
X101127000Y-64797715D01*
X101127000Y-58689726D01*
X105839799Y-58689726D01*
X106007449Y-59095472D01*
X105840202Y-59498249D01*
X105839799Y-59959726D01*
X106007449Y-60365472D01*
X105840202Y-60768249D01*
X105839799Y-61229726D01*
X106007449Y-61635472D01*
X105840202Y-62038249D01*
X105839799Y-62499726D01*
X106007449Y-62905472D01*
X105840202Y-63308249D01*
X105839799Y-63769726D01*
X106016026Y-64196229D01*
X106342055Y-64522827D01*
X106768249Y-64699798D01*
X107229726Y-64700201D01*
X107635472Y-64532551D01*
X108038249Y-64699798D01*
X108499726Y-64700201D01*
X108926229Y-64523974D01*
X109252827Y-64197945D01*
X109429798Y-63771751D01*
X109430201Y-63310274D01*
X109253974Y-62883771D01*
X109239155Y-62868926D01*
X109295962Y-62858425D01*
X109443046Y-62421015D01*
X109411543Y-61960614D01*
X109295962Y-61681575D01*
X109093814Y-61644206D01*
X109084608Y-61635000D01*
X109093814Y-61625794D01*
X109295962Y-61588425D01*
X109443046Y-61151015D01*
X109411543Y-60690614D01*
X109295962Y-60411575D01*
X109239594Y-60401155D01*
X109252827Y-60387945D01*
X109429798Y-59961751D01*
X109430201Y-59500274D01*
X109262551Y-59094528D01*
X109429798Y-58691751D01*
X109430201Y-58230274D01*
X109253974Y-57803771D01*
X108927945Y-57477173D01*
X108501751Y-57300202D01*
X108040274Y-57299799D01*
X107634528Y-57467449D01*
X107231751Y-57300202D01*
X106770274Y-57299799D01*
X106343771Y-57476026D01*
X106017173Y-57802055D01*
X105840202Y-58228249D01*
X105839799Y-58689726D01*
X101127000Y-58689726D01*
X101127000Y-49293893D01*
X106664725Y-49293893D01*
X106905519Y-49876657D01*
X107278471Y-50250261D01*
X106907086Y-50620997D01*
X106665276Y-51203341D01*
X106664725Y-51833893D01*
X106905519Y-52416657D01*
X107350997Y-52862914D01*
X107933341Y-53104724D01*
X108563893Y-53105275D01*
X109146657Y-52864481D01*
X109592914Y-52419003D01*
X109834724Y-51836659D01*
X109835275Y-51206107D01*
X109594481Y-50623343D01*
X109221529Y-50249739D01*
X109592914Y-49879003D01*
X109834724Y-49296659D01*
X109835275Y-48666107D01*
X109594481Y-48083343D01*
X109149003Y-47637086D01*
X108566659Y-47395276D01*
X107936107Y-47394725D01*
X107353343Y-47635519D01*
X106907086Y-48080997D01*
X106665276Y-48663341D01*
X106664725Y-49293893D01*
X101127000Y-49293893D01*
X101127000Y-46526661D01*
X119602758Y-46526661D01*
X119814990Y-47040303D01*
X120207630Y-47433629D01*
X120720900Y-47646757D01*
X121276661Y-47647242D01*
X121790303Y-47435010D01*
X122183629Y-47042370D01*
X122396757Y-46529100D01*
X122397242Y-45973339D01*
X122185010Y-45459697D01*
X121792370Y-45066371D01*
X121279100Y-44853243D01*
X120723339Y-44852758D01*
X120209697Y-45064990D01*
X119816371Y-45457630D01*
X119603243Y-45970900D01*
X119602758Y-46526661D01*
X101127000Y-46526661D01*
X101127000Y-41259432D01*
X103689774Y-41259432D01*
X103888789Y-41741086D01*
X104256976Y-42109916D01*
X104738282Y-42309772D01*
X105259432Y-42310226D01*
X105741086Y-42111211D01*
X106109916Y-41743024D01*
X106309772Y-41261718D01*
X106310226Y-40740568D01*
X106111211Y-40258914D01*
X105743024Y-39890084D01*
X105261718Y-39690228D01*
X104740568Y-39689774D01*
X104258914Y-39888789D01*
X103890084Y-40256976D01*
X103690228Y-40738282D01*
X103689774Y-41259432D01*
X101127000Y-41259432D01*
X101127000Y-28374531D01*
X101269340Y-28374531D01*
X101848156Y-29775372D01*
X102918991Y-30848077D01*
X104318819Y-31429337D01*
X105834531Y-31430660D01*
X107235372Y-30851844D01*
X108308077Y-29781009D01*
X108889337Y-28381181D01*
X108890660Y-26865469D01*
X108311844Y-25464628D01*
X107602348Y-24753893D01*
X115914725Y-24753893D01*
X116155519Y-25336657D01*
X116528471Y-25710261D01*
X116157086Y-26080997D01*
X115915276Y-26663341D01*
X115914725Y-27293893D01*
X116155519Y-27876657D01*
X116528471Y-28250261D01*
X116157086Y-28620997D01*
X115915276Y-29203341D01*
X115914725Y-29833893D01*
X116155519Y-30416657D01*
X116528471Y-30790261D01*
X116157086Y-31160997D01*
X115915276Y-31743341D01*
X115914725Y-32373893D01*
X116155519Y-32956657D01*
X116600997Y-33402914D01*
X117183341Y-33644724D01*
X117813893Y-33645275D01*
X118396657Y-33404481D01*
X118842914Y-32959003D01*
X119084724Y-32376659D01*
X119085275Y-31746107D01*
X118844481Y-31163343D01*
X118471529Y-30789739D01*
X118842914Y-30419003D01*
X119084724Y-29836659D01*
X119085074Y-29435167D01*
X138064838Y-29435167D01*
X138206883Y-29778943D01*
X138469673Y-30042192D01*
X138813201Y-30184838D01*
X139185167Y-30185162D01*
X139528943Y-30043117D01*
X139562118Y-30010000D01*
X148437537Y-30010000D01*
X148469673Y-30042192D01*
X148813201Y-30184838D01*
X149185167Y-30185162D01*
X149528943Y-30043117D01*
X149792192Y-29780327D01*
X149849169Y-29643110D01*
X163408524Y-29643110D01*
X163529845Y-29873000D01*
X164873000Y-29873000D01*
X164873000Y-28672769D01*
X165127000Y-28672769D01*
X165127000Y-29873000D01*
X166470155Y-29873000D01*
X166591476Y-29643110D01*
X166589553Y-29630740D01*
X166338664Y-29107955D01*
X165906812Y-28720976D01*
X165359742Y-28528716D01*
X165127000Y-28672769D01*
X164873000Y-28672769D01*
X164640258Y-28528716D01*
X164093188Y-28720976D01*
X163661336Y-29107955D01*
X163410447Y-29630740D01*
X163408524Y-29643110D01*
X149849169Y-29643110D01*
X149934838Y-29436799D01*
X149935162Y-29064833D01*
X149793117Y-28721057D01*
X149530327Y-28457808D01*
X149186799Y-28315162D01*
X148814833Y-28314838D01*
X148471057Y-28456883D01*
X148437882Y-28490000D01*
X139562463Y-28490000D01*
X139530327Y-28457808D01*
X139186799Y-28315162D01*
X138814833Y-28314838D01*
X138471057Y-28456883D01*
X138207808Y-28719673D01*
X138065162Y-29063201D01*
X138064838Y-29435167D01*
X119085074Y-29435167D01*
X119085275Y-29206107D01*
X118844481Y-28623343D01*
X118471529Y-28249739D01*
X118842914Y-27879003D01*
X119084724Y-27296659D01*
X119085275Y-26666107D01*
X118844481Y-26083343D01*
X118471529Y-25709739D01*
X118842914Y-25339003D01*
X118853340Y-25313893D01*
X127874725Y-25313893D01*
X128115519Y-25896657D01*
X128560997Y-26342914D01*
X129143341Y-26584724D01*
X129773893Y-26585275D01*
X130356657Y-26344481D01*
X130730261Y-25971529D01*
X131100997Y-26342914D01*
X131683341Y-26584724D01*
X132313893Y-26585275D01*
X132896657Y-26344481D01*
X133270261Y-25971529D01*
X133640997Y-26342914D01*
X134223341Y-26584724D01*
X134853893Y-26585275D01*
X135436657Y-26344481D01*
X135882914Y-25899003D01*
X136124724Y-25316659D01*
X136124726Y-25313893D01*
X142534725Y-25313893D01*
X142775519Y-25896657D01*
X143220997Y-26342914D01*
X143803341Y-26584724D01*
X144433893Y-26585275D01*
X145016657Y-26344481D01*
X145390261Y-25971529D01*
X145760997Y-26342914D01*
X146343341Y-26584724D01*
X146973893Y-26585275D01*
X147556657Y-26344481D01*
X147930261Y-25971529D01*
X148300997Y-26342914D01*
X148883341Y-26584724D01*
X149513893Y-26585275D01*
X150096657Y-26344481D01*
X150542914Y-25899003D01*
X150759871Y-25376511D01*
X163309644Y-25376511D01*
X163571371Y-25944669D01*
X164032113Y-26371638D01*
X164621177Y-26589787D01*
X164873000Y-26451171D01*
X164873000Y-25127000D01*
X165127000Y-25127000D01*
X165127000Y-26451171D01*
X165378823Y-26589787D01*
X165967887Y-26371638D01*
X166428629Y-25944669D01*
X166690356Y-25376511D01*
X166570682Y-25127000D01*
X165127000Y-25127000D01*
X164873000Y-25127000D01*
X163429318Y-25127000D01*
X163309644Y-25376511D01*
X150759871Y-25376511D01*
X150784724Y-25316659D01*
X150785275Y-24686107D01*
X150759402Y-24623489D01*
X163309644Y-24623489D01*
X163429318Y-24873000D01*
X164873000Y-24873000D01*
X164873000Y-23548829D01*
X165127000Y-23548829D01*
X165127000Y-24873000D01*
X166570682Y-24873000D01*
X166690356Y-24623489D01*
X166428629Y-24055331D01*
X165967887Y-23628362D01*
X165378823Y-23410213D01*
X165127000Y-23548829D01*
X164873000Y-23548829D01*
X164621177Y-23410213D01*
X164032113Y-23628362D01*
X163571371Y-24055331D01*
X163309644Y-24623489D01*
X150759402Y-24623489D01*
X150544481Y-24103343D01*
X150099003Y-23657086D01*
X149516659Y-23415276D01*
X148886107Y-23414725D01*
X148303343Y-23655519D01*
X147929739Y-24028471D01*
X147559003Y-23657086D01*
X146976659Y-23415276D01*
X146346107Y-23414725D01*
X145763343Y-23655519D01*
X145389739Y-24028471D01*
X145019003Y-23657086D01*
X144436659Y-23415276D01*
X143806107Y-23414725D01*
X143223343Y-23655519D01*
X142777086Y-24100997D01*
X142535276Y-24683341D01*
X142534725Y-25313893D01*
X136124726Y-25313893D01*
X136125275Y-24686107D01*
X135884481Y-24103343D01*
X135439003Y-23657086D01*
X134856659Y-23415276D01*
X134226107Y-23414725D01*
X133643343Y-23655519D01*
X133269739Y-24028471D01*
X132899003Y-23657086D01*
X132316659Y-23415276D01*
X131686107Y-23414725D01*
X131103343Y-23655519D01*
X130729739Y-24028471D01*
X130359003Y-23657086D01*
X129776659Y-23415276D01*
X129146107Y-23414725D01*
X128563343Y-23655519D01*
X128117086Y-24100997D01*
X127875276Y-24683341D01*
X127874725Y-25313893D01*
X118853340Y-25313893D01*
X119084724Y-24756659D01*
X119085275Y-24126107D01*
X118844481Y-23543343D01*
X118399003Y-23097086D01*
X117816659Y-22855276D01*
X117186107Y-22854725D01*
X116603343Y-23095519D01*
X116157086Y-23540997D01*
X115915276Y-24123341D01*
X115914725Y-24753893D01*
X107602348Y-24753893D01*
X107241009Y-24391923D01*
X105841181Y-23810663D01*
X104325469Y-23809340D01*
X102924628Y-24388156D01*
X101851923Y-25458991D01*
X101270663Y-26858819D01*
X101269340Y-28374531D01*
X101127000Y-28374531D01*
X101127000Y-21127000D01*
X194873000Y-21127000D01*
X194873000Y-108873000D01*
X194873000Y-108873000D01*
G37*
X194873000Y-108873000D02*
X191631473Y-108873000D01*
X192965372Y-108321844D01*
X194038077Y-107251009D01*
X194619337Y-105851181D01*
X194620660Y-104335469D01*
X194041844Y-102934628D01*
X192971009Y-101861923D01*
X191571181Y-101280663D01*
X190055469Y-101279340D01*
X188654628Y-101858156D01*
X188505587Y-102006937D01*
X188505587Y-97066371D01*
X188554346Y-96821241D01*
X188554346Y-28213267D01*
X188648991Y-28308077D01*
X190048819Y-28889337D01*
X191564531Y-28890660D01*
X192965372Y-28311844D01*
X194038077Y-27241009D01*
X194619337Y-25841181D01*
X194620660Y-24325469D01*
X194041844Y-22924628D01*
X192971009Y-21851923D01*
X191571181Y-21270663D01*
X190055469Y-21269340D01*
X188654628Y-21848156D01*
X187581923Y-22918991D01*
X187000663Y-24318819D01*
X186999790Y-25318922D01*
X186800434Y-25119566D01*
X186529541Y-24938561D01*
X186210000Y-24875000D01*
X183792578Y-24875000D01*
X183788139Y-24864257D01*
X183367955Y-24443340D01*
X182818679Y-24215260D01*
X182223931Y-24214741D01*
X181674257Y-24441861D01*
X181253340Y-24862045D01*
X181250275Y-24869426D01*
X181248139Y-24864257D01*
X180827955Y-24443340D01*
X180278679Y-24215260D01*
X179683931Y-24214741D01*
X179134257Y-24441861D01*
X178713340Y-24862045D01*
X178485260Y-25411321D01*
X178484741Y-26006069D01*
X178711861Y-26555743D01*
X179132045Y-26976660D01*
X179139426Y-26979725D01*
X179134257Y-26981861D01*
X178713340Y-27402045D01*
X178485260Y-27951321D01*
X178484741Y-28546069D01*
X178711861Y-29095743D01*
X179132045Y-29516660D01*
X179139426Y-29519725D01*
X179134257Y-29521861D01*
X178713340Y-29942045D01*
X178485260Y-30491321D01*
X178484741Y-31086069D01*
X178711861Y-31635743D01*
X179132045Y-32056660D01*
X179139426Y-32059725D01*
X179134257Y-32061861D01*
X178713340Y-32482045D01*
X178485260Y-33031321D01*
X178484741Y-33626069D01*
X178711861Y-34175743D01*
X179132045Y-34596660D01*
X179139426Y-34599725D01*
X179134257Y-34601861D01*
X178713340Y-35022045D01*
X178485260Y-35571321D01*
X178484741Y-36166069D01*
X178711861Y-36715743D01*
X179132045Y-37136660D01*
X179139426Y-37139725D01*
X179134257Y-37141861D01*
X178713340Y-37562045D01*
X178485260Y-38111321D01*
X178484741Y-38706069D01*
X178608256Y-39004999D01*
X172185001Y-39004999D01*
X171894161Y-39062851D01*
X171647600Y-39227598D01*
X171596841Y-39278357D01*
X171564833Y-39278329D01*
X171221057Y-39420374D01*
X170957808Y-39683164D01*
X170815162Y-40026692D01*
X170814838Y-40398658D01*
X170956883Y-40742434D01*
X171219673Y-41005683D01*
X171563201Y-41148329D01*
X171935167Y-41148653D01*
X172278943Y-41006608D01*
X172463087Y-40822785D01*
X172415162Y-40938201D01*
X172414838Y-41310167D01*
X172447825Y-41390002D01*
X171887463Y-41390002D01*
X171855327Y-41357810D01*
X171511799Y-41215164D01*
X171139833Y-41214840D01*
X170796057Y-41356885D01*
X170532808Y-41619675D01*
X170390162Y-41963203D01*
X170389838Y-42335169D01*
X170531883Y-42678945D01*
X170794673Y-42942194D01*
X171138201Y-43084840D01*
X171151620Y-43084852D01*
X171099758Y-43136623D01*
X170957112Y-43480151D01*
X170956788Y-43852117D01*
X171053013Y-44084999D01*
X167123292Y-44084999D01*
X166116511Y-43078218D01*
X165869949Y-42913471D01*
X165579110Y-42855619D01*
X159734080Y-42855619D01*
X159443241Y-42913471D01*
X159342868Y-42980538D01*
X159248914Y-42980456D01*
X158905138Y-43122501D01*
X158641889Y-43385291D01*
X158499243Y-43728819D01*
X158498919Y-44100785D01*
X158556441Y-44240000D01*
X156462018Y-44240000D01*
X156171179Y-44297852D01*
X155924617Y-44462599D01*
X155728069Y-44659147D01*
X155682582Y-44659107D01*
X155338806Y-44801152D01*
X155075557Y-45063942D01*
X154932911Y-45407470D01*
X154932587Y-45779436D01*
X155074632Y-46123212D01*
X155337422Y-46386461D01*
X155680950Y-46529107D01*
X156052916Y-46529431D01*
X156396692Y-46387386D01*
X156659941Y-46124596D01*
X156802587Y-45781068D01*
X156802605Y-45760000D01*
X163449700Y-45760000D01*
X163702567Y-46138442D01*
X164224889Y-46487446D01*
X164841009Y-46610000D01*
X165158991Y-46610000D01*
X165775111Y-46487446D01*
X166297433Y-46138442D01*
X166646437Y-45616120D01*
X166654733Y-45574415D01*
X166808490Y-45604999D01*
X169820199Y-45604999D01*
X168535320Y-46889878D01*
X168489833Y-46889838D01*
X168146057Y-47031883D01*
X167882808Y-47294673D01*
X167740162Y-47638201D01*
X167739838Y-48010167D01*
X167881883Y-48353943D01*
X168144673Y-48617192D01*
X168488201Y-48759838D01*
X168828953Y-48760135D01*
X168991501Y-48922967D01*
X169335029Y-49065613D01*
X169550341Y-49065801D01*
X169575778Y-49127363D01*
X169613348Y-49164999D01*
X154702232Y-49164999D01*
X154461799Y-49065162D01*
X154089833Y-49064838D01*
X153746057Y-49206883D01*
X153482808Y-49469673D01*
X153340162Y-49813201D01*
X153340075Y-49912964D01*
X150329736Y-49912964D01*
X150565529Y-49677582D01*
X150708175Y-49334054D01*
X150708499Y-48962088D01*
X150566454Y-48618312D01*
X150533337Y-48585137D01*
X150533337Y-48448923D01*
X150567470Y-48414790D01*
X150639990Y-48590303D01*
X151032630Y-48983629D01*
X151545900Y-49196757D01*
X152101661Y-49197242D01*
X152615303Y-48985010D01*
X153008629Y-48592370D01*
X153221757Y-48079100D01*
X153222242Y-47523339D01*
X153010010Y-47009697D01*
X152617370Y-46616371D01*
X152439675Y-46542585D01*
X153803939Y-45178321D01*
X153968686Y-44931760D01*
X154026538Y-44640920D01*
X154026538Y-40000000D01*
X163332968Y-40000000D01*
X163446007Y-40568285D01*
X163767914Y-41050054D01*
X164249683Y-41371961D01*
X164817968Y-41485000D01*
X165182032Y-41485000D01*
X165750317Y-41371961D01*
X166232086Y-41050054D01*
X166553993Y-40568285D01*
X166667032Y-40000000D01*
X166553993Y-39431715D01*
X166232086Y-38949946D01*
X165750317Y-38628039D01*
X165182032Y-38515000D01*
X164817968Y-38515000D01*
X164249683Y-38628039D01*
X163767914Y-38949946D01*
X163446007Y-39431715D01*
X163332968Y-40000000D01*
X154026538Y-40000000D01*
X154026538Y-36266538D01*
X154010352Y-36185167D01*
X153968686Y-35975698D01*
X153803939Y-35729137D01*
X151787401Y-33712599D01*
X151540839Y-33547852D01*
X151250000Y-33490000D01*
X141062463Y-33490000D01*
X141030327Y-33457808D01*
X140686799Y-33315162D01*
X140314833Y-33314838D01*
X139971057Y-33456883D01*
X139707808Y-33719673D01*
X139565162Y-34063201D01*
X139565018Y-34229005D01*
X138152487Y-34229005D01*
X138120351Y-34196813D01*
X137776823Y-34054167D01*
X137729947Y-34054126D01*
X136260000Y-32584179D01*
X136260000Y-32312463D01*
X136292192Y-32280327D01*
X136331706Y-32185167D01*
X137064838Y-32185167D01*
X137206883Y-32528943D01*
X137469673Y-32792192D01*
X137813201Y-32934838D01*
X138185167Y-32935162D01*
X138528943Y-32793117D01*
X138562118Y-32760000D01*
X147217459Y-32760000D01*
X147436964Y-32851147D01*
X147808930Y-32851471D01*
X148152706Y-32709426D01*
X148415955Y-32446636D01*
X148558601Y-32103108D01*
X148558925Y-31731142D01*
X148416880Y-31387366D01*
X148154090Y-31124117D01*
X147810562Y-30981471D01*
X147438596Y-30981147D01*
X147094820Y-31123192D01*
X146977808Y-31240000D01*
X138562463Y-31240000D01*
X138530327Y-31207808D01*
X138186799Y-31065162D01*
X137814833Y-31064838D01*
X137471057Y-31206883D01*
X137207808Y-31469673D01*
X137065162Y-31813201D01*
X137064838Y-32185167D01*
X136331706Y-32185167D01*
X136434838Y-31936799D01*
X136435162Y-31564833D01*
X136293117Y-31221057D01*
X136030327Y-30957808D01*
X135686799Y-30815162D01*
X135314833Y-30814838D01*
X134971057Y-30956883D01*
X134707808Y-31219673D01*
X134565162Y-31563201D01*
X134564838Y-31935167D01*
X134706883Y-32278943D01*
X134740000Y-32312118D01*
X134740000Y-32898981D01*
X134797852Y-33189820D01*
X134962599Y-33436382D01*
X136654902Y-35128685D01*
X136654862Y-35174172D01*
X136682062Y-35240000D01*
X136562463Y-35240000D01*
X136530327Y-35207808D01*
X136186799Y-35065162D01*
X135814833Y-35064838D01*
X135471057Y-35206883D01*
X135207808Y-35469673D01*
X135065162Y-35813201D01*
X135064838Y-36185167D01*
X135206883Y-36528943D01*
X135469673Y-36792192D01*
X135813201Y-36934838D01*
X136185167Y-36935162D01*
X136528943Y-36793117D01*
X136562118Y-36760000D01*
X142437537Y-36760000D01*
X142469673Y-36792192D01*
X142813201Y-36934838D01*
X143185167Y-36935162D01*
X143528943Y-36793117D01*
X143792192Y-36530327D01*
X143934838Y-36186799D01*
X143935115Y-35868459D01*
X144255578Y-35868738D01*
X144599354Y-35726693D01*
X144862603Y-35463903D01*
X145005249Y-35120375D01*
X145005345Y-35010000D01*
X150935198Y-35010000D01*
X152506538Y-36581340D01*
X152506538Y-44326118D01*
X149235936Y-47596720D01*
X149071189Y-47843282D01*
X149013337Y-48134121D01*
X149013337Y-48584792D01*
X148981145Y-48616928D01*
X148838499Y-48960456D01*
X148838175Y-49332422D01*
X148980220Y-49676198D01*
X149068412Y-49764544D01*
X148789357Y-49879847D01*
X148526108Y-50142637D01*
X148383462Y-50486165D01*
X148383138Y-50858131D01*
X148525183Y-51201907D01*
X148787973Y-51465156D01*
X149131501Y-51607802D01*
X149503467Y-51608126D01*
X149847243Y-51466081D01*
X149880418Y-51432964D01*
X154465000Y-51432964D01*
X154465000Y-51762537D01*
X154432808Y-51794673D01*
X154290162Y-52138201D01*
X154289838Y-52510167D01*
X154431883Y-52853943D01*
X154694673Y-53117192D01*
X155038201Y-53259838D01*
X155090002Y-53259883D01*
X155090002Y-58060196D01*
X154660188Y-58490010D01*
X149281423Y-58490010D01*
X149055317Y-58263509D01*
X148711789Y-58120863D01*
X148339823Y-58120539D01*
X147996047Y-58262584D01*
X147732798Y-58525374D01*
X147590152Y-58868902D01*
X147589828Y-59240868D01*
X147731873Y-59584644D01*
X147994663Y-59847893D01*
X148338191Y-59990539D01*
X148622658Y-59990787D01*
X148719299Y-60010010D01*
X154974990Y-60010010D01*
X155265829Y-59952158D01*
X155512391Y-59787411D01*
X156387403Y-58912399D01*
X156552150Y-58665837D01*
X156610002Y-58374998D01*
X156610002Y-52332986D01*
X157466477Y-52332986D01*
X157466353Y-52475676D01*
X157608398Y-52819452D01*
X157871188Y-53082701D01*
X158214716Y-53225347D01*
X158261592Y-53225388D01*
X158883407Y-53847203D01*
X158640895Y-54009245D01*
X157660124Y-54990016D01*
X157614637Y-54989976D01*
X157270861Y-55132021D01*
X157007612Y-55394811D01*
X156864966Y-55738339D01*
X156864642Y-56110305D01*
X157006687Y-56454081D01*
X157269477Y-56717330D01*
X157613005Y-56859976D01*
X157984971Y-56860300D01*
X158328747Y-56718255D01*
X158591996Y-56455465D01*
X158734642Y-56111937D01*
X158734683Y-56065061D01*
X159493098Y-55306646D01*
X161718552Y-55306646D01*
X161410320Y-55614878D01*
X161364833Y-55614838D01*
X161021057Y-55756883D01*
X160757808Y-56019673D01*
X160615162Y-56363201D01*
X160614838Y-56735167D01*
X160756883Y-57078943D01*
X161019673Y-57342192D01*
X161363201Y-57484838D01*
X161735167Y-57485162D01*
X162078943Y-57343117D01*
X162115157Y-57306966D01*
X162206883Y-57528961D01*
X162469673Y-57792210D01*
X162813201Y-57934856D01*
X163185167Y-57935180D01*
X163528943Y-57793135D01*
X163792192Y-57530345D01*
X163934838Y-57186817D01*
X163934879Y-57139941D01*
X164624249Y-56450571D01*
X170067528Y-56450571D01*
X170358367Y-56392719D01*
X170604929Y-56227972D01*
X170730497Y-56040046D01*
X170859720Y-55911048D01*
X171002366Y-55567520D01*
X171002411Y-55515719D01*
X174790917Y-55515719D01*
X177187600Y-57912402D01*
X177273802Y-57970000D01*
X170279723Y-57970000D01*
X170250950Y-57941177D01*
X169907422Y-57798531D01*
X169535456Y-57798207D01*
X169191680Y-57940252D01*
X168928431Y-58203042D01*
X168785785Y-58546570D01*
X168785461Y-58918536D01*
X168927506Y-59262312D01*
X169190296Y-59525561D01*
X169533824Y-59668207D01*
X169905790Y-59668531D01*
X170249566Y-59526486D01*
X170286116Y-59490000D01*
X178676433Y-59490000D01*
X178711861Y-59575743D01*
X179132045Y-59996660D01*
X179139426Y-59999725D01*
X179134257Y-60001861D01*
X178713340Y-60422045D01*
X178485260Y-60971321D01*
X178484741Y-61566069D01*
X178711861Y-62115743D01*
X179132045Y-62536660D01*
X179139426Y-62539725D01*
X179134257Y-62541861D01*
X178713340Y-62962045D01*
X178485260Y-63511321D01*
X178484741Y-64106069D01*
X178711861Y-64655743D01*
X179132045Y-65076660D01*
X179139426Y-65079725D01*
X179134257Y-65081861D01*
X178713340Y-65502045D01*
X178485260Y-66051321D01*
X178484741Y-66646069D01*
X178711861Y-67195743D01*
X178778699Y-67262697D01*
X177137599Y-68903797D01*
X176972852Y-69150359D01*
X176915000Y-69441198D01*
X176915000Y-73090891D01*
X176678276Y-72992594D01*
X176631400Y-72992553D01*
X176626448Y-72987601D01*
X176379886Y-72822854D01*
X176089047Y-72765002D01*
X175860118Y-72765002D01*
X175860162Y-72714833D01*
X175718117Y-72371057D01*
X175455327Y-72107808D01*
X175111799Y-71965162D01*
X175064923Y-71965121D01*
X174947355Y-71847553D01*
X174700793Y-71682806D01*
X174409954Y-71624954D01*
X168868410Y-71624954D01*
X168868454Y-71574777D01*
X168726409Y-71231001D01*
X168463619Y-70967752D01*
X168402047Y-70942185D01*
X168402062Y-70924779D01*
X168321289Y-70729293D01*
X171916026Y-70729293D01*
X171948162Y-70761485D01*
X172291690Y-70904131D01*
X172663656Y-70904455D01*
X173007432Y-70762410D01*
X173270681Y-70499620D01*
X173413327Y-70156092D01*
X173413651Y-69784126D01*
X173271606Y-69440350D01*
X173008816Y-69177101D01*
X172665288Y-69034455D01*
X172293322Y-69034131D01*
X171949546Y-69176176D01*
X171916371Y-69209293D01*
X165782831Y-69209293D01*
X165588783Y-69015245D01*
X165624295Y-68979795D01*
X165766941Y-68636267D01*
X165767265Y-68264301D01*
X165625220Y-67920525D01*
X165362430Y-67657276D01*
X165018902Y-67514630D01*
X164972026Y-67514589D01*
X163920036Y-66462599D01*
X163673474Y-66297852D01*
X163382635Y-66240000D01*
X162760000Y-66240000D01*
X162760000Y-62310167D01*
X164414838Y-62310167D01*
X164556883Y-62653943D01*
X164819673Y-62917192D01*
X165163201Y-63059838D01*
X165210077Y-63059879D01*
X165536651Y-63386453D01*
X165631883Y-63616932D01*
X165894673Y-63880181D01*
X166114771Y-63971574D01*
X166009697Y-64014990D01*
X165616371Y-64407630D01*
X165403243Y-64920900D01*
X165402758Y-65476661D01*
X165614990Y-65990303D01*
X166007630Y-66383629D01*
X166520900Y-66596757D01*
X167076661Y-66597242D01*
X167590303Y-66385010D01*
X167983629Y-65992370D01*
X168196757Y-65479100D01*
X168197242Y-64923339D01*
X167985010Y-64409697D01*
X167592370Y-64016371D01*
X167079100Y-63803243D01*
X167031983Y-63803202D01*
X167217192Y-63618316D01*
X167359838Y-63274788D01*
X167360162Y-62902822D01*
X167218117Y-62559046D01*
X166955327Y-62295797D01*
X166611799Y-62153151D01*
X166452815Y-62153013D01*
X166285122Y-61985320D01*
X166285162Y-61939833D01*
X166143117Y-61596057D01*
X165880327Y-61332808D01*
X165536799Y-61190162D01*
X165164833Y-61189838D01*
X164821057Y-61331883D01*
X164557808Y-61594673D01*
X164415162Y-61938201D01*
X164414838Y-62310167D01*
X162760000Y-62310167D01*
X162760000Y-60562463D01*
X162792192Y-60530327D01*
X162934838Y-60186799D01*
X162935162Y-59814833D01*
X162793117Y-59471057D01*
X162530327Y-59207808D01*
X162186799Y-59065162D01*
X161814833Y-59064838D01*
X161471057Y-59206883D01*
X161207808Y-59469673D01*
X161065162Y-59813201D01*
X161064838Y-60185167D01*
X161206883Y-60528943D01*
X161240000Y-60562118D01*
X161240000Y-66402836D01*
X157026865Y-66402836D01*
X157026909Y-66352659D01*
X156884864Y-66008883D01*
X156622074Y-65745634D01*
X156278546Y-65602988D01*
X155906580Y-65602664D01*
X155841654Y-65629491D01*
X155734538Y-65370249D01*
X155701421Y-65337074D01*
X155701421Y-65221590D01*
X155643569Y-64930751D01*
X155478822Y-64684189D01*
X154257232Y-63462599D01*
X154010670Y-63297852D01*
X153719831Y-63240000D01*
X146547328Y-63240000D01*
X146547328Y-52958909D01*
X146857129Y-52959179D01*
X147200905Y-52817134D01*
X147464154Y-52554344D01*
X147606800Y-52210816D01*
X147607124Y-51838850D01*
X147465079Y-51495074D01*
X147401617Y-51431501D01*
X147401617Y-50004153D01*
X147433809Y-49972017D01*
X147576455Y-49628489D01*
X147576779Y-49256523D01*
X147434734Y-48912747D01*
X147171944Y-48649498D01*
X146828416Y-48506852D01*
X146456450Y-48506528D01*
X146112674Y-48648573D01*
X145849425Y-48911363D01*
X145706779Y-49254891D01*
X145706455Y-49626857D01*
X145848500Y-49970633D01*
X145881617Y-50003808D01*
X145881617Y-50666312D01*
X145602161Y-50666069D01*
X145258385Y-50808114D01*
X144995136Y-51070904D01*
X144852490Y-51414432D01*
X144852333Y-51594321D01*
X144830305Y-51572254D01*
X144486777Y-51429608D01*
X144439901Y-51429567D01*
X139413673Y-46403339D01*
X139412423Y-46402504D01*
X147084223Y-46402504D01*
X147116359Y-46434696D01*
X147459887Y-46577342D01*
X147831853Y-46577666D01*
X148175629Y-46435621D01*
X148438878Y-46172831D01*
X148581524Y-45829303D01*
X148581848Y-45457337D01*
X148439803Y-45113561D01*
X148177013Y-44850312D01*
X147902769Y-44736435D01*
X147793117Y-44471057D01*
X147760000Y-44437882D01*
X147760000Y-36562463D01*
X147792192Y-36530327D01*
X147934838Y-36186799D01*
X147935162Y-35814833D01*
X147793117Y-35471057D01*
X147530327Y-35207808D01*
X147186799Y-35065162D01*
X146814833Y-35064838D01*
X146471057Y-35206883D01*
X146207808Y-35469673D01*
X146065162Y-35813201D01*
X146064838Y-36185167D01*
X146206883Y-36528943D01*
X146240000Y-36562118D01*
X146240000Y-44437537D01*
X146207808Y-44469673D01*
X146065162Y-44813201D01*
X146065102Y-44882504D01*
X144935103Y-44882504D01*
X144935162Y-44814833D01*
X144793117Y-44471057D01*
X144530327Y-44207808D01*
X144186799Y-44065162D01*
X143814833Y-44064838D01*
X143471057Y-44206883D01*
X143437882Y-44240000D01*
X142446898Y-44240000D01*
X142596757Y-43879100D01*
X142597242Y-43323339D01*
X142385010Y-42809697D01*
X141992370Y-42416371D01*
X141479100Y-42203243D01*
X140923339Y-42202758D01*
X140409697Y-42414990D01*
X140016371Y-42807630D01*
X139803243Y-43320900D01*
X139802758Y-43876661D01*
X139952886Y-44240000D01*
X137562463Y-44240000D01*
X137530327Y-44207808D01*
X137186799Y-44065162D01*
X136814833Y-44064838D01*
X136471057Y-44206883D01*
X136207808Y-44469673D01*
X136065162Y-44813201D01*
X136064838Y-45185167D01*
X136087494Y-45240000D01*
X134995368Y-45240000D01*
X134704529Y-45297852D01*
X134457967Y-45462599D01*
X132560330Y-47360236D01*
X132514843Y-47360196D01*
X132512987Y-47360963D01*
X132512987Y-41830396D01*
X132847776Y-41969413D01*
X133219742Y-41969737D01*
X133563518Y-41827692D01*
X133631328Y-41760000D01*
X135437537Y-41760000D01*
X135469673Y-41792192D01*
X135813201Y-41934838D01*
X136185167Y-41935162D01*
X136528943Y-41793117D01*
X136792192Y-41530327D01*
X136934838Y-41186799D01*
X136934879Y-41139923D01*
X138017746Y-40057056D01*
X138214626Y-39975707D01*
X138477875Y-39712917D01*
X138620521Y-39369389D01*
X138620845Y-38997423D01*
X138478800Y-38653647D01*
X138216010Y-38390398D01*
X137872482Y-38247752D01*
X137500516Y-38247428D01*
X137156740Y-38389473D01*
X136893491Y-38652263D01*
X136750845Y-38995791D01*
X136750689Y-39174509D01*
X135860320Y-40064878D01*
X135814833Y-40064838D01*
X135471057Y-40206883D01*
X135437882Y-40240000D01*
X133559163Y-40240000D01*
X133221374Y-40099737D01*
X132849408Y-40099413D01*
X132512987Y-40238419D01*
X132512987Y-39582225D01*
X132455135Y-39291386D01*
X132388068Y-39191013D01*
X132388150Y-39097059D01*
X132246105Y-38753283D01*
X131983315Y-38490034D01*
X131639787Y-38347388D01*
X131267821Y-38347064D01*
X130924045Y-38489109D01*
X130660796Y-38751899D01*
X130518150Y-39095427D01*
X130517826Y-39467393D01*
X130659871Y-39811169D01*
X130922661Y-40074418D01*
X130992987Y-40103620D01*
X130992987Y-44650533D01*
X130879100Y-44603243D01*
X130323339Y-44602758D01*
X129809697Y-44814990D01*
X129765025Y-44859584D01*
X129765025Y-43641435D01*
X129707173Y-43350596D01*
X129542426Y-43104034D01*
X128875990Y-42437598D01*
X128629428Y-42272851D01*
X128338589Y-42214999D01*
X127615537Y-42214999D01*
X126986400Y-41585862D01*
X127133661Y-41438858D01*
X127276307Y-41095330D01*
X127276631Y-40723364D01*
X127134586Y-40379588D01*
X126871796Y-40116339D01*
X126528268Y-39973693D01*
X126481392Y-39973652D01*
X126260000Y-39752260D01*
X126260000Y-39562463D01*
X126292192Y-39530327D01*
X126434838Y-39186799D01*
X126435162Y-38814833D01*
X126293117Y-38471057D01*
X126030327Y-38207808D01*
X125686799Y-38065162D01*
X125639923Y-38065121D01*
X123808802Y-36234000D01*
X123808802Y-31748009D01*
X123840994Y-31715873D01*
X123983640Y-31372345D01*
X123983964Y-31000379D01*
X123841919Y-30656603D01*
X123579129Y-30393354D01*
X123491315Y-30356890D01*
X163408524Y-30356890D01*
X163410447Y-30369260D01*
X163661336Y-30892045D01*
X164093188Y-31279024D01*
X164640258Y-31471284D01*
X164873000Y-31327231D01*
X164873000Y-30127000D01*
X165127000Y-30127000D01*
X165127000Y-31327231D01*
X165359742Y-31471284D01*
X165906812Y-31279024D01*
X166338664Y-30892045D01*
X166589553Y-30369260D01*
X166591476Y-30356890D01*
X166470155Y-30127000D01*
X165127000Y-30127000D01*
X164873000Y-30127000D01*
X163529845Y-30127000D01*
X163408524Y-30356890D01*
X123491315Y-30356890D01*
X123235601Y-30250708D01*
X122863635Y-30250384D01*
X122519859Y-30392429D01*
X122256610Y-30655219D01*
X122113964Y-30998747D01*
X122113640Y-31370713D01*
X122255685Y-31714489D01*
X122288802Y-31747664D01*
X122288802Y-36548802D01*
X122346654Y-36839641D01*
X122511401Y-37086203D01*
X123761905Y-38336707D01*
X123471057Y-38456883D01*
X123207808Y-38719673D01*
X123065162Y-39063201D01*
X123064838Y-39435167D01*
X123206883Y-39778943D01*
X123274245Y-39846422D01*
X123297852Y-39965103D01*
X123462599Y-40211665D01*
X126264803Y-43013869D01*
X125999739Y-43278471D01*
X125629003Y-42907086D01*
X125046659Y-42665276D01*
X124416107Y-42664725D01*
X123833343Y-42905519D01*
X123387086Y-43350997D01*
X123145276Y-43933341D01*
X123144725Y-44563893D01*
X123385519Y-45146657D01*
X123830997Y-45592914D01*
X124413341Y-45834724D01*
X125043893Y-45835275D01*
X125626657Y-45594481D01*
X126000261Y-45221529D01*
X126370997Y-45592914D01*
X126953341Y-45834724D01*
X127583893Y-45835275D01*
X128166657Y-45594481D01*
X128245025Y-45516250D01*
X128245025Y-48055025D01*
X128302877Y-48345864D01*
X128467624Y-48592426D01*
X128987599Y-49112401D01*
X129069507Y-49167130D01*
X130405372Y-50502995D01*
X130133339Y-50502758D01*
X129619697Y-50714990D01*
X129226371Y-51107630D01*
X129013243Y-51620900D01*
X129012758Y-52176661D01*
X129224990Y-52690303D01*
X129617630Y-53083629D01*
X130130900Y-53296757D01*
X130686661Y-53297242D01*
X131200303Y-53085010D01*
X131593629Y-52692370D01*
X131806757Y-52179100D01*
X131806997Y-51904620D01*
X132776880Y-52874503D01*
X132748659Y-52942467D01*
X132748335Y-53314433D01*
X132890380Y-53658209D01*
X133153170Y-53921458D01*
X133496698Y-54064104D01*
X133543574Y-54064145D01*
X134594604Y-55115175D01*
X134841166Y-55279922D01*
X135132005Y-55337774D01*
X141556877Y-55337774D01*
X142537668Y-56318565D01*
X140959605Y-56318565D01*
X140940562Y-56299489D01*
X140597034Y-56156843D01*
X140225068Y-56156519D01*
X139881292Y-56298564D01*
X139618043Y-56561354D01*
X139475397Y-56904882D01*
X139475073Y-57276848D01*
X139617118Y-57620624D01*
X139879908Y-57883873D01*
X140223436Y-58026519D01*
X140595402Y-58026843D01*
X140939178Y-57884798D01*
X140985492Y-57838565D01*
X143900001Y-57838565D01*
X143932137Y-57870757D01*
X144275665Y-58013403D01*
X144335469Y-58013455D01*
X144335469Y-63479897D01*
X144239157Y-63519692D01*
X143975908Y-63782482D01*
X143833262Y-64126010D01*
X143832938Y-64497976D01*
X143839973Y-64515001D01*
X137746107Y-64515001D01*
X137589568Y-64546139D01*
X137496314Y-64320446D01*
X137233524Y-64057197D01*
X137080957Y-63993845D01*
X140139680Y-60935122D01*
X140185167Y-60935162D01*
X140528943Y-60793117D01*
X140792192Y-60530327D01*
X140828429Y-60443059D01*
X140940000Y-60713083D01*
X140940000Y-61612537D01*
X140907808Y-61644673D01*
X140765162Y-61988201D01*
X140764838Y-62360167D01*
X140906883Y-62703943D01*
X141169673Y-62967192D01*
X141513201Y-63109838D01*
X141885167Y-63110162D01*
X142228943Y-62968117D01*
X142492192Y-62705327D01*
X142634838Y-62361799D01*
X142635162Y-61989833D01*
X142493117Y-61646057D01*
X142460000Y-61612882D01*
X142460000Y-60837376D01*
X142542192Y-60755327D01*
X142684838Y-60411799D01*
X142685162Y-60039833D01*
X142543117Y-59696057D01*
X142280327Y-59432808D01*
X141936799Y-59290162D01*
X141564833Y-59289838D01*
X141221057Y-59431883D01*
X140957808Y-59694673D01*
X140921571Y-59781941D01*
X140793117Y-59471057D01*
X140530327Y-59207808D01*
X140186799Y-59065162D01*
X139814833Y-59064838D01*
X139471057Y-59206883D01*
X139207808Y-59469673D01*
X139065162Y-59813201D01*
X139065121Y-59860077D01*
X135912594Y-63012604D01*
X135866374Y-62993411D01*
X135494408Y-62993087D01*
X135150632Y-63135132D01*
X134887383Y-63397922D01*
X134744737Y-63741450D01*
X134744661Y-63828974D01*
X126278776Y-63828974D01*
X124746463Y-62296661D01*
X127852758Y-62296661D01*
X128064990Y-62810303D01*
X128457630Y-63203629D01*
X128970900Y-63416757D01*
X129526661Y-63417242D01*
X130040303Y-63205010D01*
X130433629Y-62812370D01*
X130646757Y-62299100D01*
X130647242Y-61743339D01*
X130435010Y-61229697D01*
X130042370Y-60836371D01*
X129529100Y-60623243D01*
X128973339Y-60622758D01*
X128459697Y-60834990D01*
X128066371Y-61227630D01*
X127853243Y-61740900D01*
X127852758Y-62296661D01*
X124746463Y-62296661D01*
X120910122Y-58460320D01*
X120910162Y-58414833D01*
X120768117Y-58071057D01*
X120505327Y-57807808D01*
X120161799Y-57665162D01*
X119789833Y-57664838D01*
X119446057Y-57806883D01*
X119363799Y-57888997D01*
X118710000Y-57235198D01*
X118710000Y-57185167D01*
X124064838Y-57185167D01*
X124206883Y-57528943D01*
X124469673Y-57792192D01*
X124813201Y-57934838D01*
X124860077Y-57934879D01*
X125223089Y-58297891D01*
X125469650Y-58462638D01*
X125760490Y-58520490D01*
X127495938Y-58520490D01*
X127495676Y-58821202D01*
X127637721Y-59164978D01*
X127900511Y-59428227D01*
X128244039Y-59570873D01*
X128616005Y-59571197D01*
X128959781Y-59429152D01*
X128992956Y-59396035D01*
X130986123Y-59396035D01*
X130987996Y-59397911D01*
X131331524Y-59540557D01*
X131703490Y-59540881D01*
X132047266Y-59398836D01*
X132310515Y-59136046D01*
X132453161Y-58792518D01*
X132453398Y-58520490D01*
X134074467Y-58520490D01*
X134106883Y-58598943D01*
X134369673Y-58862192D01*
X134713201Y-59004838D01*
X135085167Y-59005162D01*
X135428943Y-58863117D01*
X135692192Y-58600327D01*
X135834838Y-58256799D01*
X135835162Y-57884833D01*
X135693117Y-57541057D01*
X135430327Y-57277808D01*
X135086799Y-57135162D01*
X134996180Y-57135083D01*
X134881329Y-57058342D01*
X134590490Y-57000490D01*
X133927594Y-57000490D01*
X133927712Y-56864823D01*
X133785667Y-56521047D01*
X133522877Y-56257798D01*
X133179349Y-56115152D01*
X132807383Y-56114828D01*
X132463607Y-56256873D01*
X132430432Y-56289990D01*
X130949870Y-56289990D01*
X130939329Y-56279431D01*
X130595801Y-56136785D01*
X130223835Y-56136461D01*
X129880059Y-56278506D01*
X129616810Y-56541296D01*
X129474164Y-56884824D01*
X129474063Y-57000490D01*
X126075292Y-57000490D01*
X125935122Y-56860320D01*
X125935162Y-56814833D01*
X125793117Y-56471057D01*
X125530327Y-56207808D01*
X125186799Y-56065162D01*
X124814833Y-56064838D01*
X124471057Y-56206883D01*
X124207808Y-56469673D01*
X124065162Y-56813201D01*
X124064838Y-57185167D01*
X118710000Y-57185167D01*
X118710000Y-49087463D01*
X118742192Y-49055327D01*
X118884838Y-48711799D01*
X118885162Y-48339833D01*
X118743117Y-47996057D01*
X118480327Y-47732808D01*
X118136799Y-47590162D01*
X117764833Y-47589838D01*
X117421057Y-47731883D01*
X117157808Y-47994673D01*
X117015162Y-48338201D01*
X117014838Y-48710167D01*
X117156883Y-49053943D01*
X117190000Y-49087118D01*
X117190000Y-57550000D01*
X117247852Y-57840839D01*
X117412599Y-58087401D01*
X125064856Y-65739658D01*
X125064838Y-65760167D01*
X125206883Y-66103943D01*
X125469673Y-66367192D01*
X125813201Y-66509838D01*
X126185167Y-66510162D01*
X126528943Y-66368117D01*
X126792192Y-66105327D01*
X126919397Y-65798985D01*
X132334397Y-65798985D01*
X132193051Y-65857388D01*
X131929802Y-66120178D01*
X131787156Y-66463706D01*
X131787090Y-66539721D01*
X131020943Y-66539721D01*
X130961799Y-66515162D01*
X130589833Y-66514838D01*
X130246057Y-66656883D01*
X129982808Y-66919673D01*
X129840162Y-67263201D01*
X129839838Y-67635167D01*
X129981883Y-67978943D01*
X130244673Y-68242192D01*
X130588201Y-68384838D01*
X130960167Y-68385162D01*
X131303943Y-68243117D01*
X131487659Y-68059721D01*
X132991607Y-68059721D01*
X132990162Y-68063201D01*
X132989838Y-68435167D01*
X133131883Y-68778943D01*
X133394673Y-69042192D01*
X133738201Y-69184838D01*
X134110167Y-69185162D01*
X134453943Y-69043117D01*
X134486157Y-69010959D01*
X134665198Y-69190000D01*
X131312463Y-69190000D01*
X131280327Y-69157808D01*
X130936799Y-69015162D01*
X130564833Y-69014838D01*
X130221057Y-69156883D01*
X129957808Y-69419673D01*
X129815162Y-69763201D01*
X129814838Y-70135167D01*
X129956883Y-70478943D01*
X130219673Y-70742192D01*
X130563201Y-70884838D01*
X130935167Y-70885162D01*
X131278943Y-70743117D01*
X131312118Y-70710000D01*
X138846510Y-70710000D01*
X139096161Y-70959651D01*
X139342722Y-71124398D01*
X139633562Y-71182250D01*
X139704823Y-71182250D01*
X139547084Y-71339989D01*
X132300011Y-71339989D01*
X132009172Y-71397841D01*
X131762610Y-71562588D01*
X125260320Y-78064878D01*
X125214833Y-78064838D01*
X124871057Y-78206883D01*
X124607808Y-78469673D01*
X124465162Y-78813201D01*
X124464838Y-79185167D01*
X124606883Y-79528943D01*
X124869673Y-79792192D01*
X125213201Y-79934838D01*
X125585167Y-79935162D01*
X125928943Y-79793117D01*
X126192192Y-79530327D01*
X126334838Y-79186799D01*
X126334879Y-79139923D01*
X132614813Y-72859989D01*
X138815012Y-72859989D01*
X138814838Y-73060177D01*
X138956883Y-73403953D01*
X139219673Y-73667202D01*
X139563201Y-73809848D01*
X139935167Y-73810172D01*
X140278943Y-73668127D01*
X140312118Y-73635010D01*
X140895768Y-73635010D01*
X141186607Y-73577158D01*
X141433169Y-73412411D01*
X141784621Y-73060959D01*
X141827426Y-73103839D01*
X142170954Y-73246485D01*
X142542920Y-73246809D01*
X142886696Y-73104764D01*
X143149945Y-72841974D01*
X143155963Y-72827482D01*
X143201259Y-72846291D01*
X143573225Y-72846615D01*
X143917001Y-72704570D01*
X144180250Y-72441780D01*
X144322896Y-72098252D01*
X144322937Y-72051376D01*
X145694313Y-70680000D01*
X150265198Y-70680000D01*
X150375153Y-70789955D01*
X150375153Y-73214989D01*
X148917665Y-73214989D01*
X148885529Y-73182797D01*
X148542001Y-73040151D01*
X148170035Y-73039827D01*
X148020000Y-73101820D01*
X148020000Y-72893347D01*
X148159757Y-72556776D01*
X148160081Y-72184810D01*
X148018036Y-71841034D01*
X147755246Y-71577785D01*
X147411718Y-71435139D01*
X147039752Y-71434815D01*
X146695976Y-71576860D01*
X146432727Y-71839650D01*
X146290081Y-72183178D01*
X146289823Y-72479527D01*
X146274665Y-72473233D01*
X145902699Y-72472909D01*
X145558923Y-72614954D01*
X145295674Y-72877744D01*
X145153028Y-73221272D01*
X145152704Y-73593238D01*
X145294749Y-73937014D01*
X145327866Y-73970189D01*
X145327866Y-76608048D01*
X145325909Y-76610005D01*
X143178503Y-74462599D01*
X142931941Y-74297852D01*
X142641102Y-74240000D01*
X137562463Y-74240000D01*
X137530327Y-74207808D01*
X137186799Y-74065162D01*
X136814833Y-74064838D01*
X136471057Y-74206883D01*
X136207808Y-74469673D01*
X136065162Y-74813201D01*
X136064838Y-75185167D01*
X136206883Y-75528943D01*
X136469673Y-75792192D01*
X136813201Y-75934838D01*
X137185167Y-75935162D01*
X137528943Y-75793117D01*
X137562118Y-75760000D01*
X142326300Y-75760000D01*
X144034392Y-77468092D01*
X144032808Y-77469673D01*
X143890162Y-77813201D01*
X143889838Y-78185167D01*
X144031883Y-78528943D01*
X144294673Y-78792192D01*
X144638201Y-78934838D01*
X145010167Y-78935162D01*
X145353943Y-78793117D01*
X145617192Y-78530327D01*
X145699756Y-78331491D01*
X145863310Y-78222208D01*
X146625267Y-77460251D01*
X146790014Y-77213689D01*
X146847866Y-76922850D01*
X146847866Y-74911270D01*
X147073201Y-75004838D01*
X147373000Y-75005099D01*
X147373000Y-78438961D01*
X144920664Y-80400830D01*
X144883006Y-80450590D01*
X144873000Y-80500000D01*
X144873000Y-84873000D01*
X141465605Y-84873000D01*
X141465605Y-81684197D01*
X141939680Y-81210122D01*
X141985167Y-81210162D01*
X142328943Y-81068117D01*
X142592192Y-80805327D01*
X142734838Y-80461799D01*
X142735162Y-80089833D01*
X142593117Y-79746057D01*
X142330327Y-79482808D01*
X142054360Y-79368216D01*
X142070728Y-79328799D01*
X142071052Y-78956833D01*
X141929007Y-78613057D01*
X141666217Y-78349808D01*
X141322689Y-78207162D01*
X141280305Y-78207125D01*
X141280539Y-77938443D01*
X141138494Y-77594667D01*
X140875704Y-77331418D01*
X140532176Y-77188772D01*
X140160210Y-77188448D01*
X139990978Y-77258373D01*
X139964509Y-77231858D01*
X139620981Y-77089212D01*
X139249015Y-77088888D01*
X138905239Y-77230933D01*
X138641990Y-77493723D01*
X138499344Y-77837251D01*
X138499303Y-77884127D01*
X137112553Y-79270877D01*
X136947806Y-79517439D01*
X136889954Y-79808278D01*
X136889954Y-87055649D01*
X136805875Y-87055576D01*
X136462099Y-87197621D01*
X136198850Y-87460411D01*
X136056204Y-87803939D01*
X136056121Y-87899287D01*
X135988895Y-87999898D01*
X135931043Y-88290737D01*
X135931043Y-91049225D01*
X135988895Y-91340064D01*
X136153642Y-91586626D01*
X137243506Y-92676490D01*
X137243466Y-92721977D01*
X137385511Y-93065753D01*
X137648301Y-93329002D01*
X137991829Y-93471648D01*
X138363795Y-93471972D01*
X138707571Y-93329927D01*
X138970820Y-93067137D01*
X138983246Y-93037213D01*
X139158479Y-93212446D01*
X139207588Y-93245259D01*
X139405042Y-93377193D01*
X139695881Y-93435045D01*
X145919275Y-93435045D01*
X146575413Y-94091183D01*
X146821975Y-94255930D01*
X147112814Y-94313782D01*
X165969156Y-94313782D01*
X166001292Y-94345974D01*
X166344820Y-94488620D01*
X166716786Y-94488944D01*
X167060562Y-94346899D01*
X167323811Y-94084109D01*
X167466457Y-93740581D01*
X167466781Y-93368615D01*
X167356776Y-93102383D01*
X167423488Y-92941724D01*
X167423812Y-92569758D01*
X167374626Y-92450717D01*
X167501359Y-92145511D01*
X167501683Y-91773545D01*
X167359638Y-91429769D01*
X167355239Y-91425362D01*
X167384860Y-91354027D01*
X167385184Y-90982061D01*
X167243139Y-90638285D01*
X167242827Y-90637972D01*
X167284838Y-90536799D01*
X167285162Y-90164833D01*
X167143117Y-89821057D01*
X166880327Y-89557808D01*
X166536799Y-89415162D01*
X166164833Y-89414838D01*
X165821057Y-89556883D01*
X165787882Y-89590000D01*
X157589260Y-89590000D01*
X157616994Y-89549410D01*
X157627000Y-89500000D01*
X157627000Y-85000000D01*
X157618315Y-84953841D01*
X157591035Y-84911447D01*
X157549410Y-84883006D01*
X157500000Y-84873000D01*
X153627000Y-84873000D01*
X153627000Y-80500000D01*
X153611669Y-80439509D01*
X153579336Y-80400830D01*
X151127000Y-78438961D01*
X151127000Y-78324270D01*
X151269673Y-78467192D01*
X151613201Y-78609838D01*
X151660077Y-78609879D01*
X152398818Y-79348620D01*
X152645379Y-79513367D01*
X152936219Y-79571219D01*
X167230379Y-79571219D01*
X167521218Y-79513367D01*
X167767780Y-79348620D01*
X167873172Y-79243228D01*
X167918659Y-79243268D01*
X168262435Y-79101223D01*
X168525684Y-78838433D01*
X168668330Y-78494905D01*
X168668365Y-78455001D01*
X178608303Y-78455001D01*
X178485260Y-78751321D01*
X178484741Y-79346069D01*
X178711861Y-79895743D01*
X179132045Y-80316660D01*
X179139426Y-80319725D01*
X179134257Y-80321861D01*
X178713340Y-80742045D01*
X178676818Y-80830000D01*
X177527480Y-80830000D01*
X177505327Y-80807808D01*
X177161799Y-80665162D01*
X176789833Y-80664838D01*
X176446057Y-80806883D01*
X176182808Y-81069673D01*
X176040162Y-81413201D01*
X176039838Y-81785167D01*
X176145132Y-82039999D01*
X171146604Y-82039999D01*
X171118117Y-81971055D01*
X170855327Y-81707806D01*
X170511799Y-81565160D01*
X170480322Y-81565133D01*
X170568152Y-81353615D01*
X170568476Y-80981649D01*
X170426431Y-80637873D01*
X170163641Y-80374624D01*
X169820113Y-80231978D01*
X169448147Y-80231654D01*
X169104371Y-80373699D01*
X169088042Y-80390000D01*
X158337463Y-80390000D01*
X158305327Y-80357808D01*
X157961799Y-80215162D01*
X157589833Y-80214838D01*
X157246057Y-80356883D01*
X156982808Y-80619673D01*
X156840162Y-80963201D01*
X156839838Y-81335167D01*
X156981883Y-81678943D01*
X157244673Y-81942192D01*
X157588201Y-82084838D01*
X157960167Y-82085162D01*
X158303943Y-81943117D01*
X158337118Y-81910000D01*
X169054064Y-81910000D01*
X169102987Y-81959008D01*
X169446515Y-82101654D01*
X169477992Y-82101681D01*
X169390162Y-82313199D01*
X169389838Y-82685165D01*
X169524656Y-83011450D01*
X169313831Y-83221907D01*
X169171185Y-83565435D01*
X169170861Y-83937401D01*
X169312906Y-84281177D01*
X169394537Y-84362950D01*
X169161374Y-84459291D01*
X168898125Y-84722081D01*
X168755479Y-85065609D01*
X168755290Y-85282380D01*
X165886060Y-82413150D01*
X165639498Y-82248403D01*
X165348659Y-82190551D01*
X163888014Y-82190551D01*
X163855878Y-82158359D01*
X163512350Y-82015713D01*
X163140384Y-82015389D01*
X162796608Y-82157434D01*
X162533359Y-82420224D01*
X162390713Y-82763752D01*
X162390389Y-83135718D01*
X162532434Y-83479494D01*
X162795224Y-83742743D01*
X163138752Y-83885389D01*
X163510718Y-83885713D01*
X163854494Y-83743668D01*
X163887669Y-83710551D01*
X165033857Y-83710551D01*
X167296615Y-85973309D01*
X166222336Y-85973309D01*
X165931497Y-86031161D01*
X165684935Y-86195908D01*
X165051214Y-86829629D01*
X165005727Y-86829589D01*
X164661951Y-86971634D01*
X164398702Y-87234424D01*
X164256056Y-87577952D01*
X164255732Y-87949918D01*
X164397777Y-88293694D01*
X164660567Y-88556943D01*
X165004095Y-88699589D01*
X165376061Y-88699913D01*
X165719837Y-88557868D01*
X165983086Y-88295078D01*
X166125732Y-87951550D01*
X166125773Y-87904674D01*
X166537138Y-87493309D01*
X167139786Y-87493309D01*
X167139742Y-87543486D01*
X167281787Y-87887262D01*
X167349149Y-87954741D01*
X167372756Y-88073422D01*
X167537503Y-88319984D01*
X176370982Y-97153463D01*
X176370982Y-99693206D01*
X176428834Y-99984045D01*
X176593581Y-100230607D01*
X178034999Y-101672025D01*
X178034999Y-102478801D01*
X178072037Y-102665000D01*
X153605031Y-102665000D01*
X153584347Y-102644316D01*
X153484929Y-102403706D01*
X153222139Y-102140457D01*
X152878611Y-101997811D01*
X152506645Y-101997487D01*
X152162869Y-102139532D01*
X151899620Y-102402322D01*
X151756974Y-102745850D01*
X151756650Y-103117816D01*
X151898695Y-103461592D01*
X152161485Y-103724841D01*
X152403722Y-103825427D01*
X152668729Y-104090434D01*
X152939622Y-104271439D01*
X153259163Y-104335000D01*
X176065000Y-104335000D01*
X176065000Y-105800000D01*
X176128561Y-106119541D01*
X176255822Y-106310000D01*
X176309566Y-106390434D01*
X177909566Y-107990434D01*
X178180460Y-108171440D01*
X178500000Y-108235000D01*
X183208998Y-108235000D01*
X183528539Y-108171439D01*
X183799432Y-107990434D01*
X187000261Y-104789605D01*
X186999340Y-105844531D01*
X187578156Y-107245372D01*
X188648991Y-108318077D01*
X189985393Y-108873000D01*
X162307868Y-108873000D01*
X162621728Y-108559140D01*
X162683341Y-108584724D01*
X163313893Y-108585275D01*
X163896657Y-108344481D01*
X164342914Y-107899003D01*
X164584724Y-107316659D01*
X164585275Y-106686107D01*
X164344481Y-106103343D01*
X163899003Y-105657086D01*
X163316659Y-105415276D01*
X162686107Y-105414725D01*
X162103343Y-105655519D01*
X161729739Y-106028471D01*
X161359003Y-105657086D01*
X160776659Y-105415276D01*
X160146107Y-105414725D01*
X159563343Y-105655519D01*
X159189739Y-106028471D01*
X158819003Y-105657086D01*
X158236659Y-105415276D01*
X157606107Y-105414725D01*
X157023343Y-105655519D01*
X156577086Y-106100997D01*
X156335276Y-106683341D01*
X156334725Y-107313893D01*
X156529384Y-107785001D01*
X151502365Y-107785001D01*
X151584724Y-107586659D01*
X151585275Y-106956107D01*
X151344481Y-106373343D01*
X150905789Y-105933884D01*
X150936745Y-105846350D01*
X150000000Y-104909605D01*
X149063255Y-105846350D01*
X149094407Y-105934439D01*
X148657086Y-106370997D01*
X148415276Y-106953341D01*
X148414725Y-107583893D01*
X148497821Y-107785001D01*
X147599371Y-107785001D01*
X147233936Y-107419566D01*
X147204653Y-107400000D01*
X146963043Y-107238561D01*
X146672326Y-107180734D01*
X146644481Y-107113343D01*
X146199003Y-106667086D01*
X145616659Y-106425276D01*
X144986107Y-106424725D01*
X144922058Y-106451190D01*
X144190434Y-105719566D01*
X143972890Y-105574208D01*
X143919541Y-105538561D01*
X143600000Y-105475000D01*
X138160000Y-105475000D01*
X137840460Y-105538560D01*
X137569566Y-105719566D01*
X136444132Y-106845000D01*
X125365338Y-106845000D01*
X125584724Y-106316659D01*
X125585275Y-105686107D01*
X125344481Y-105103343D01*
X124905789Y-104663884D01*
X124936745Y-104576350D01*
X124837793Y-104477398D01*
X148403812Y-104477398D01*
X148428648Y-105107461D01*
X148621981Y-105574208D01*
X148883650Y-105666745D01*
X149820395Y-104730000D01*
X150179605Y-104730000D01*
X151116350Y-105666745D01*
X151378019Y-105574208D01*
X151596188Y-104982602D01*
X151571352Y-104352539D01*
X151378019Y-103885792D01*
X151116350Y-103793255D01*
X150179605Y-104730000D01*
X149820395Y-104730000D01*
X148883650Y-103793255D01*
X148621981Y-103885792D01*
X148403812Y-104477398D01*
X124837793Y-104477398D01*
X124000000Y-103639605D01*
X123985858Y-103653748D01*
X123806253Y-103474143D01*
X123820395Y-103460000D01*
X124179605Y-103460000D01*
X125116350Y-104396745D01*
X125378019Y-104304208D01*
X125596188Y-103712602D01*
X125571352Y-103082539D01*
X125378019Y-102615792D01*
X125116350Y-102523255D01*
X124179605Y-103460000D01*
X123820395Y-103460000D01*
X122883650Y-102523255D01*
X122621981Y-102615792D01*
X122403812Y-103207398D01*
X122419947Y-103616714D01*
X117810949Y-103616714D01*
X117686799Y-103565162D01*
X117314833Y-103564838D01*
X116971057Y-103706883D01*
X116911351Y-103766485D01*
X116305000Y-103160134D01*
X116305000Y-101233893D01*
X122414725Y-101233893D01*
X122655519Y-101816657D01*
X123094211Y-102256116D01*
X123063255Y-102343650D01*
X124000000Y-103280395D01*
X124936745Y-102343650D01*
X124905593Y-102255561D01*
X125342914Y-101819003D01*
X125584724Y-101236659D01*
X125585275Y-100606107D01*
X125344481Y-100023343D01*
X124899003Y-99577086D01*
X124316659Y-99335276D01*
X123686107Y-99334725D01*
X123103343Y-99575519D01*
X122657086Y-100020997D01*
X122415276Y-100603341D01*
X122414725Y-101233893D01*
X116305000Y-101233893D01*
X116305000Y-94754264D01*
X116302245Y-94740412D01*
X116287065Y-94664097D01*
X116364838Y-94476799D01*
X116365162Y-94104833D01*
X116223117Y-93761057D01*
X115960327Y-93497808D01*
X115616799Y-93355162D01*
X115244833Y-93354838D01*
X114901057Y-93496883D01*
X114637808Y-93759673D01*
X114495162Y-94103201D01*
X114494838Y-94475167D01*
X114596271Y-94720655D01*
X114635000Y-94915356D01*
X114635000Y-103506002D01*
X114698561Y-103825543D01*
X114875556Y-104090434D01*
X114879566Y-104096436D01*
X116573565Y-105790435D01*
X116844459Y-105971441D01*
X117163999Y-106035001D01*
X118714133Y-106035001D01*
X120949566Y-108270434D01*
X121220459Y-108451439D01*
X121540000Y-108515000D01*
X136790000Y-108515000D01*
X137109541Y-108451439D01*
X137380434Y-108270434D01*
X138505868Y-107145000D01*
X141402967Y-107145000D01*
X141175276Y-107693341D01*
X141174725Y-108323893D01*
X141401612Y-108873000D01*
X119623711Y-108873000D01*
X119854724Y-108316659D01*
X119855275Y-107686107D01*
X119614481Y-107103343D01*
X119169003Y-106657086D01*
X118586659Y-106415276D01*
X117956107Y-106414725D01*
X117373343Y-106655519D01*
X116999739Y-107028471D01*
X116629003Y-106657086D01*
X116046659Y-106415276D01*
X115416107Y-106414725D01*
X114833343Y-106655519D01*
X114387086Y-107100997D01*
X114145276Y-107683341D01*
X114144725Y-108313893D01*
X114375744Y-108873000D01*
X101127000Y-108873000D01*
X101127000Y-102034531D01*
X101269340Y-102034531D01*
X101848156Y-103435372D01*
X102918991Y-104508077D01*
X104318819Y-105089337D01*
X105834531Y-105090660D01*
X107235372Y-104511844D01*
X108308077Y-103441009D01*
X108889337Y-102041181D01*
X108890660Y-100525469D01*
X108311844Y-99124628D01*
X107241009Y-98051923D01*
X105841181Y-97470663D01*
X104325469Y-97469340D01*
X102924628Y-98048156D01*
X101851923Y-99118991D01*
X101270663Y-100518819D01*
X101269340Y-102034531D01*
X101127000Y-102034531D01*
X101127000Y-97127000D01*
X105000000Y-97127000D01*
X105049410Y-97116994D01*
X105089803Y-97089803D01*
X109052606Y-93127000D01*
X121250583Y-93127000D01*
X121250583Y-96010583D01*
X121308435Y-96301422D01*
X121473182Y-96547984D01*
X122064878Y-97139680D01*
X122064838Y-97185167D01*
X122206883Y-97528943D01*
X122469673Y-97792192D01*
X122813201Y-97934838D01*
X123185167Y-97935162D01*
X123528943Y-97793117D01*
X123792192Y-97530327D01*
X123809238Y-97489276D01*
X123855146Y-97508339D01*
X124227112Y-97508663D01*
X124469523Y-97408501D01*
X129587678Y-97408501D01*
X130336207Y-98157030D01*
X129946659Y-97995276D01*
X129316107Y-97994725D01*
X128733343Y-98235519D01*
X128287086Y-98680997D01*
X128045276Y-99263341D01*
X128044725Y-99893893D01*
X128285519Y-100476657D01*
X128658471Y-100850261D01*
X128287086Y-101220997D01*
X128045276Y-101803341D01*
X128044725Y-102433893D01*
X128285519Y-103016657D01*
X128730997Y-103462914D01*
X129313341Y-103704724D01*
X129943893Y-103705275D01*
X130165641Y-103613650D01*
X149063255Y-103613650D01*
X150000000Y-104550395D01*
X150936745Y-103613650D01*
X150844208Y-103351981D01*
X150252602Y-103133812D01*
X149622539Y-103158648D01*
X149155792Y-103351981D01*
X149063255Y-103613650D01*
X130165641Y-103613650D01*
X130526657Y-103464481D01*
X130972914Y-103019003D01*
X131214724Y-102436659D01*
X131215275Y-101806107D01*
X130974481Y-101223343D01*
X130601529Y-100849739D01*
X130972914Y-100479003D01*
X131214724Y-99896659D01*
X131215275Y-99266107D01*
X131053317Y-98874140D01*
X132769613Y-100590436D01*
X133040506Y-100771441D01*
X133360047Y-100835002D01*
X147579998Y-100835002D01*
X147899539Y-100771441D01*
X148170432Y-100590436D01*
X151068333Y-97692535D01*
X151207578Y-97635000D01*
X156530052Y-97635000D01*
X156551896Y-97687867D01*
X156814686Y-97951116D01*
X157158214Y-98093762D01*
X157530180Y-98094086D01*
X157873956Y-97952041D01*
X158137205Y-97689251D01*
X158279851Y-97345723D01*
X158280175Y-96973757D01*
X158138130Y-96629981D01*
X157875340Y-96366732D01*
X157633103Y-96266146D01*
X157576523Y-96209566D01*
X157535866Y-96182400D01*
X157305630Y-96028561D01*
X156986089Y-95965000D01*
X151207234Y-95965000D01*
X150966799Y-95865162D01*
X150594833Y-95864838D01*
X150251057Y-96006883D01*
X149987808Y-96269673D01*
X149887222Y-96511910D01*
X147234130Y-99165002D01*
X133705915Y-99165002D01*
X133530191Y-98989278D01*
X133661316Y-98858382D01*
X133803962Y-98514854D01*
X133804286Y-98142888D01*
X133704124Y-97900477D01*
X133704124Y-97133142D01*
X133817066Y-97180040D01*
X133852470Y-97215444D01*
X134123363Y-97396449D01*
X134442904Y-97460010D01*
X137242020Y-97460010D01*
X137482455Y-97559848D01*
X137854421Y-97560172D01*
X138198197Y-97418127D01*
X138461446Y-97155337D01*
X138604092Y-96811809D01*
X138604148Y-96747571D01*
X141203768Y-96747571D01*
X141254455Y-96781439D01*
X141573996Y-96845000D01*
X147412766Y-96845000D01*
X147653201Y-96944838D01*
X148025167Y-96945162D01*
X148368943Y-96803117D01*
X148632192Y-96540327D01*
X148774838Y-96196799D01*
X148775162Y-95824833D01*
X148633117Y-95481057D01*
X148370327Y-95217808D01*
X148026799Y-95075162D01*
X147654833Y-95074838D01*
X147412422Y-95175000D01*
X141846795Y-95175000D01*
X141796108Y-95141132D01*
X141476567Y-95077571D01*
X137271905Y-95077571D01*
X135753878Y-93559544D01*
X135709662Y-93530000D01*
X135482985Y-93378539D01*
X135163444Y-93314978D01*
X132534555Y-93314978D01*
X132215014Y-93378539D01*
X131988337Y-93530000D01*
X131944121Y-93559544D01*
X131725397Y-93778268D01*
X123922945Y-93778268D01*
X123545585Y-93400908D01*
X123545585Y-93127000D01*
X124400000Y-93127000D01*
X124449410Y-93116994D01*
X124491035Y-93088553D01*
X124518315Y-93046159D01*
X124527000Y-93000000D01*
X124527000Y-82800000D01*
X124516994Y-82750590D01*
X124488553Y-82708965D01*
X124446159Y-82681685D01*
X124400000Y-82673000D01*
X123127000Y-82673000D01*
X123127000Y-74585167D01*
X123664838Y-74585167D01*
X123806883Y-74928943D01*
X124069673Y-75192192D01*
X124413201Y-75334838D01*
X124785167Y-75335162D01*
X125128943Y-75193117D01*
X125162118Y-75160000D01*
X125668783Y-75160000D01*
X125959622Y-75102148D01*
X126206184Y-74937401D01*
X127095766Y-74047819D01*
X127141253Y-74047859D01*
X127485029Y-73905814D01*
X127748278Y-73643024D01*
X127890924Y-73299496D01*
X127891248Y-72927530D01*
X127749203Y-72583754D01*
X127486413Y-72320505D01*
X127142885Y-72177859D01*
X126770919Y-72177535D01*
X126427143Y-72319580D01*
X126163894Y-72582370D01*
X126021248Y-72925898D01*
X126021207Y-72972774D01*
X125353981Y-73640000D01*
X125162463Y-73640000D01*
X125130327Y-73607808D01*
X124786799Y-73465162D01*
X124414833Y-73464838D01*
X124071057Y-73606883D01*
X123807808Y-73869673D01*
X123665162Y-74213201D01*
X123664838Y-74585167D01*
X123127000Y-74585167D01*
X123127000Y-72000000D01*
X123116994Y-71950590D01*
X123088553Y-71908965D01*
X123046159Y-71881685D01*
X123000000Y-71873000D01*
X101127000Y-71873000D01*
X101127000Y-64797715D01*
X110917643Y-64797715D01*
X111059688Y-65141491D01*
X111322478Y-65404740D01*
X111666006Y-65547386D01*
X112037972Y-65547710D01*
X112381748Y-65405665D01*
X112488770Y-65298830D01*
X112488770Y-67199564D01*
X112471057Y-67206883D01*
X112207808Y-67469673D01*
X112065162Y-67813201D01*
X112064838Y-68185167D01*
X112206883Y-68528943D01*
X112469673Y-68792192D01*
X112813201Y-68934838D01*
X113185167Y-68935162D01*
X113528943Y-68793117D01*
X113792192Y-68530327D01*
X113934838Y-68186799D01*
X113934943Y-68065977D01*
X113950918Y-68042069D01*
X114008770Y-67751230D01*
X114008770Y-67671158D01*
X114072034Y-67697428D01*
X114444000Y-67697752D01*
X114787776Y-67555707D01*
X115051025Y-67292917D01*
X115193671Y-66949389D01*
X115193995Y-66577423D01*
X115051950Y-66233647D01*
X114789160Y-65970398D01*
X114760000Y-65958290D01*
X114760000Y-62562463D01*
X114792192Y-62530327D01*
X114934838Y-62186799D01*
X114935162Y-61814833D01*
X114793117Y-61471057D01*
X114760000Y-61437882D01*
X114760000Y-59217443D01*
X114792192Y-59185307D01*
X114934838Y-58841779D01*
X114935162Y-58469813D01*
X114793117Y-58126037D01*
X114530327Y-57862788D01*
X114186799Y-57720142D01*
X113814833Y-57719818D01*
X113471057Y-57861863D01*
X113207808Y-58124653D01*
X113094143Y-58398387D01*
X112771057Y-58531883D01*
X112507808Y-58794673D01*
X112365162Y-59138201D01*
X112364838Y-59510167D01*
X112506883Y-59853943D01*
X112540000Y-59887118D01*
X112540000Y-62850551D01*
X111713125Y-63677426D01*
X111667638Y-63677386D01*
X111323862Y-63819431D01*
X111060613Y-64082221D01*
X110917967Y-64425749D01*
X110917643Y-64797715D01*
X101127000Y-64797715D01*
X101127000Y-58689726D01*
X105839799Y-58689726D01*
X106007449Y-59095472D01*
X105840202Y-59498249D01*
X105839799Y-59959726D01*
X106007449Y-60365472D01*
X105840202Y-60768249D01*
X105839799Y-61229726D01*
X106007449Y-61635472D01*
X105840202Y-62038249D01*
X105839799Y-62499726D01*
X106007449Y-62905472D01*
X105840202Y-63308249D01*
X105839799Y-63769726D01*
X106016026Y-64196229D01*
X106342055Y-64522827D01*
X106768249Y-64699798D01*
X107229726Y-64700201D01*
X107635472Y-64532551D01*
X108038249Y-64699798D01*
X108499726Y-64700201D01*
X108926229Y-64523974D01*
X109252827Y-64197945D01*
X109429798Y-63771751D01*
X109430201Y-63310274D01*
X109253974Y-62883771D01*
X109239155Y-62868926D01*
X109295962Y-62858425D01*
X109443046Y-62421015D01*
X109411543Y-61960614D01*
X109295962Y-61681575D01*
X109093814Y-61644206D01*
X109084608Y-61635000D01*
X109093814Y-61625794D01*
X109295962Y-61588425D01*
X109443046Y-61151015D01*
X109411543Y-60690614D01*
X109295962Y-60411575D01*
X109239594Y-60401155D01*
X109252827Y-60387945D01*
X109429798Y-59961751D01*
X109430201Y-59500274D01*
X109262551Y-59094528D01*
X109429798Y-58691751D01*
X109430201Y-58230274D01*
X109253974Y-57803771D01*
X108927945Y-57477173D01*
X108501751Y-57300202D01*
X108040274Y-57299799D01*
X107634528Y-57467449D01*
X107231751Y-57300202D01*
X106770274Y-57299799D01*
X106343771Y-57476026D01*
X106017173Y-57802055D01*
X105840202Y-58228249D01*
X105839799Y-58689726D01*
X101127000Y-58689726D01*
X101127000Y-49293893D01*
X106664725Y-49293893D01*
X106905519Y-49876657D01*
X107278471Y-50250261D01*
X106907086Y-50620997D01*
X106665276Y-51203341D01*
X106664725Y-51833893D01*
X106905519Y-52416657D01*
X107350997Y-52862914D01*
X107933341Y-53104724D01*
X108563893Y-53105275D01*
X109146657Y-52864481D01*
X109592914Y-52419003D01*
X109834724Y-51836659D01*
X109835275Y-51206107D01*
X109594481Y-50623343D01*
X109221529Y-50249739D01*
X109592914Y-49879003D01*
X109834724Y-49296659D01*
X109835275Y-48666107D01*
X109594481Y-48083343D01*
X109149003Y-47637086D01*
X108566659Y-47395276D01*
X107936107Y-47394725D01*
X107353343Y-47635519D01*
X106907086Y-48080997D01*
X106665276Y-48663341D01*
X106664725Y-49293893D01*
X101127000Y-49293893D01*
X101127000Y-46526661D01*
X119602758Y-46526661D01*
X119814990Y-47040303D01*
X120207630Y-47433629D01*
X120720900Y-47646757D01*
X121276661Y-47647242D01*
X121790303Y-47435010D01*
X122183629Y-47042370D01*
X122396757Y-46529100D01*
X122397242Y-45973339D01*
X122185010Y-45459697D01*
X121792370Y-45066371D01*
X121279100Y-44853243D01*
X120723339Y-44852758D01*
X120209697Y-45064990D01*
X119816371Y-45457630D01*
X119603243Y-45970900D01*
X119602758Y-46526661D01*
X101127000Y-46526661D01*
X101127000Y-41259432D01*
X103689774Y-41259432D01*
X103888789Y-41741086D01*
X104256976Y-42109916D01*
X104738282Y-42309772D01*
X105259432Y-42310226D01*
X105741086Y-42111211D01*
X106109916Y-41743024D01*
X106309772Y-41261718D01*
X106310226Y-40740568D01*
X106111211Y-40258914D01*
X105743024Y-39890084D01*
X105261718Y-39690228D01*
X104740568Y-39689774D01*
X104258914Y-39888789D01*
X103890084Y-40256976D01*
X103690228Y-40738282D01*
X103689774Y-41259432D01*
X101127000Y-41259432D01*
X101127000Y-28374531D01*
X101269340Y-28374531D01*
X101848156Y-29775372D01*
X102918991Y-30848077D01*
X104318819Y-31429337D01*
X105834531Y-31430660D01*
X107235372Y-30851844D01*
X108308077Y-29781009D01*
X108889337Y-28381181D01*
X108890660Y-26865469D01*
X108311844Y-25464628D01*
X107602348Y-24753893D01*
X115914725Y-24753893D01*
X116155519Y-25336657D01*
X116528471Y-25710261D01*
X116157086Y-26080997D01*
X115915276Y-26663341D01*
X115914725Y-27293893D01*
X116155519Y-27876657D01*
X116528471Y-28250261D01*
X116157086Y-28620997D01*
X115915276Y-29203341D01*
X115914725Y-29833893D01*
X116155519Y-30416657D01*
X116528471Y-30790261D01*
X116157086Y-31160997D01*
X115915276Y-31743341D01*
X115914725Y-32373893D01*
X116155519Y-32956657D01*
X116600997Y-33402914D01*
X117183341Y-33644724D01*
X117813893Y-33645275D01*
X118396657Y-33404481D01*
X118842914Y-32959003D01*
X119084724Y-32376659D01*
X119085275Y-31746107D01*
X118844481Y-31163343D01*
X118471529Y-30789739D01*
X118842914Y-30419003D01*
X119084724Y-29836659D01*
X119085074Y-29435167D01*
X138064838Y-29435167D01*
X138206883Y-29778943D01*
X138469673Y-30042192D01*
X138813201Y-30184838D01*
X139185167Y-30185162D01*
X139528943Y-30043117D01*
X139562118Y-30010000D01*
X148437537Y-30010000D01*
X148469673Y-30042192D01*
X148813201Y-30184838D01*
X149185167Y-30185162D01*
X149528943Y-30043117D01*
X149792192Y-29780327D01*
X149849169Y-29643110D01*
X163408524Y-29643110D01*
X163529845Y-29873000D01*
X164873000Y-29873000D01*
X164873000Y-28672769D01*
X165127000Y-28672769D01*
X165127000Y-29873000D01*
X166470155Y-29873000D01*
X166591476Y-29643110D01*
X166589553Y-29630740D01*
X166338664Y-29107955D01*
X165906812Y-28720976D01*
X165359742Y-28528716D01*
X165127000Y-28672769D01*
X164873000Y-28672769D01*
X164640258Y-28528716D01*
X164093188Y-28720976D01*
X163661336Y-29107955D01*
X163410447Y-29630740D01*
X163408524Y-29643110D01*
X149849169Y-29643110D01*
X149934838Y-29436799D01*
X149935162Y-29064833D01*
X149793117Y-28721057D01*
X149530327Y-28457808D01*
X149186799Y-28315162D01*
X148814833Y-28314838D01*
X148471057Y-28456883D01*
X148437882Y-28490000D01*
X139562463Y-28490000D01*
X139530327Y-28457808D01*
X139186799Y-28315162D01*
X138814833Y-28314838D01*
X138471057Y-28456883D01*
X138207808Y-28719673D01*
X138065162Y-29063201D01*
X138064838Y-29435167D01*
X119085074Y-29435167D01*
X119085275Y-29206107D01*
X118844481Y-28623343D01*
X118471529Y-28249739D01*
X118842914Y-27879003D01*
X119084724Y-27296659D01*
X119085275Y-26666107D01*
X118844481Y-26083343D01*
X118471529Y-25709739D01*
X118842914Y-25339003D01*
X118853340Y-25313893D01*
X127874725Y-25313893D01*
X128115519Y-25896657D01*
X128560997Y-26342914D01*
X129143341Y-26584724D01*
X129773893Y-26585275D01*
X130356657Y-26344481D01*
X130730261Y-25971529D01*
X131100997Y-26342914D01*
X131683341Y-26584724D01*
X132313893Y-26585275D01*
X132896657Y-26344481D01*
X133270261Y-25971529D01*
X133640997Y-26342914D01*
X134223341Y-26584724D01*
X134853893Y-26585275D01*
X135436657Y-26344481D01*
X135882914Y-25899003D01*
X136124724Y-25316659D01*
X136124726Y-25313893D01*
X142534725Y-25313893D01*
X142775519Y-25896657D01*
X143220997Y-26342914D01*
X143803341Y-26584724D01*
X144433893Y-26585275D01*
X145016657Y-26344481D01*
X145390261Y-25971529D01*
X145760997Y-26342914D01*
X146343341Y-26584724D01*
X146973893Y-26585275D01*
X147556657Y-26344481D01*
X147930261Y-25971529D01*
X148300997Y-26342914D01*
X148883341Y-26584724D01*
X149513893Y-26585275D01*
X150096657Y-26344481D01*
X150542914Y-25899003D01*
X150759871Y-25376511D01*
X163309644Y-25376511D01*
X163571371Y-25944669D01*
X164032113Y-26371638D01*
X164621177Y-26589787D01*
X164873000Y-26451171D01*
X164873000Y-25127000D01*
X165127000Y-25127000D01*
X165127000Y-26451171D01*
X165378823Y-26589787D01*
X165967887Y-26371638D01*
X166428629Y-25944669D01*
X166690356Y-25376511D01*
X166570682Y-25127000D01*
X165127000Y-25127000D01*
X164873000Y-25127000D01*
X163429318Y-25127000D01*
X163309644Y-25376511D01*
X150759871Y-25376511D01*
X150784724Y-25316659D01*
X150785275Y-24686107D01*
X150759402Y-24623489D01*
X163309644Y-24623489D01*
X163429318Y-24873000D01*
X164873000Y-24873000D01*
X164873000Y-23548829D01*
X165127000Y-23548829D01*
X165127000Y-24873000D01*
X166570682Y-24873000D01*
X166690356Y-24623489D01*
X166428629Y-24055331D01*
X165967887Y-23628362D01*
X165378823Y-23410213D01*
X165127000Y-23548829D01*
X164873000Y-23548829D01*
X164621177Y-23410213D01*
X164032113Y-23628362D01*
X163571371Y-24055331D01*
X163309644Y-24623489D01*
X150759402Y-24623489D01*
X150544481Y-24103343D01*
X150099003Y-23657086D01*
X149516659Y-23415276D01*
X148886107Y-23414725D01*
X148303343Y-23655519D01*
X147929739Y-24028471D01*
X147559003Y-23657086D01*
X146976659Y-23415276D01*
X146346107Y-23414725D01*
X145763343Y-23655519D01*
X145389739Y-24028471D01*
X145019003Y-23657086D01*
X144436659Y-23415276D01*
X143806107Y-23414725D01*
X143223343Y-23655519D01*
X142777086Y-24100997D01*
X142535276Y-24683341D01*
X142534725Y-25313893D01*
X136124726Y-25313893D01*
X136125275Y-24686107D01*
X135884481Y-24103343D01*
X135439003Y-23657086D01*
X134856659Y-23415276D01*
X134226107Y-23414725D01*
X133643343Y-23655519D01*
X133269739Y-24028471D01*
X132899003Y-23657086D01*
X132316659Y-23415276D01*
X131686107Y-23414725D01*
X131103343Y-23655519D01*
X130729739Y-24028471D01*
X130359003Y-23657086D01*
X129776659Y-23415276D01*
X129146107Y-23414725D01*
X128563343Y-23655519D01*
X128117086Y-24100997D01*
X127875276Y-24683341D01*
X127874725Y-25313893D01*
X118853340Y-25313893D01*
X119084724Y-24756659D01*
X119085275Y-24126107D01*
X118844481Y-23543343D01*
X118399003Y-23097086D01*
X117816659Y-22855276D01*
X117186107Y-22854725D01*
X116603343Y-23095519D01*
X116157086Y-23540997D01*
X115915276Y-24123341D01*
X115914725Y-24753893D01*
X107602348Y-24753893D01*
X107241009Y-24391923D01*
X105841181Y-23810663D01*
X104325469Y-23809340D01*
X102924628Y-24388156D01*
X101851923Y-25458991D01*
X101270663Y-26858819D01*
X101269340Y-28374531D01*
X101127000Y-28374531D01*
X101127000Y-21127000D01*
X194873000Y-21127000D01*
X194873000Y-108873000D01*
G36*
X108463748Y-62255858D02*
X108449605Y-62270000D01*
X108463748Y-62284143D01*
X108367805Y-62380085D01*
X108172024Y-62379914D01*
X108159915Y-62367805D01*
X108160086Y-62172024D01*
X108162007Y-62170103D01*
X108364160Y-62156270D01*
X108463748Y-62255858D01*
X108463748Y-62255858D01*
G37*
X108463748Y-62255858D02*
X108449605Y-62270000D01*
X108463748Y-62284143D01*
X108367805Y-62380085D01*
X108172024Y-62379914D01*
X108159915Y-62367805D01*
X108160086Y-62172024D01*
X108162007Y-62170103D01*
X108364160Y-62156270D01*
X108463748Y-62255858D01*
G36*
X108367976Y-60890086D02*
X108463748Y-60985858D01*
X108449605Y-61000000D01*
X108463748Y-61014143D01*
X108377992Y-61099898D01*
X108175840Y-61113730D01*
X108159915Y-61097805D01*
X108160086Y-60902024D01*
X108172195Y-60889915D01*
X108367976Y-60890086D01*
X108367976Y-60890086D01*
G37*
X108367976Y-60890086D02*
X108463748Y-60985858D01*
X108449605Y-61000000D01*
X108463748Y-61014143D01*
X108377992Y-61099898D01*
X108175840Y-61113730D01*
X108159915Y-61097805D01*
X108160086Y-60902024D01*
X108172195Y-60889915D01*
X108367976Y-60890086D01*
M02*
