G04 #@! TF.FileFunction,Soldermask,Bot*
%FSLAX46Y46*%
G04 Gerber Fmt 4.6, Leading zero omitted, Abs format (unit mm)*
G04 Created by KiCad (PCBNEW 4.0.4-stable) date Friday, January 26, 2018 'AMt' 12:54:04 AM*
%MOMM*%
%LPD*%
G01*
G04 APERTURE LIST*
%ADD10C,0.100000*%
%ADD11C,1.900000*%
%ADD12C,6.350000*%
%ADD13C,1.720000*%
%ADD14C,1.524000*%
%ADD15C,1.350000*%
%ADD16C,1.050000*%
%ADD17O,2.200000X1.950000*%
%ADD18O,2.000000X1.700000*%
G04 APERTURE END LIST*
D10*
D11*
X124000000Y-106000000D03*
X124000000Y-103460000D03*
X124000000Y-100920000D03*
D12*
X190810000Y-105090000D03*
D13*
X179980000Y-25710000D03*
X179980000Y-28250000D03*
X179980000Y-30790000D03*
X179980000Y-33330000D03*
X179980000Y-35870000D03*
X179980000Y-38410000D03*
X179980000Y-40950000D03*
X179980000Y-43490000D03*
X179980000Y-46030000D03*
X179980000Y-48570000D03*
X179980000Y-51110000D03*
X179980000Y-53650000D03*
X179980000Y-56190000D03*
X179980000Y-58730000D03*
X179980000Y-61270000D03*
X179980000Y-63810000D03*
X179980000Y-66350000D03*
X179980000Y-68890000D03*
X179980000Y-71430000D03*
X179980000Y-73970000D03*
X179980000Y-76510000D03*
X179980000Y-79050000D03*
X179980000Y-81590000D03*
X179980000Y-84130000D03*
X179980000Y-86670000D03*
X179980000Y-89210000D03*
X179980000Y-91750000D03*
X179980000Y-94290000D03*
X179980000Y-96830000D03*
X179980000Y-99370000D03*
X179980000Y-101910000D03*
X179980000Y-104450000D03*
X182520000Y-25710000D03*
X182520000Y-28250000D03*
X182520000Y-30790000D03*
X182520000Y-33330000D03*
X182520000Y-35870000D03*
X182520000Y-38410000D03*
X182520000Y-40950000D03*
X182520000Y-43490000D03*
X182520000Y-46030000D03*
X182520000Y-48570000D03*
X182520000Y-51110000D03*
X182520000Y-53650000D03*
X182520000Y-56190000D03*
X182520000Y-58730000D03*
X182520000Y-61270000D03*
X182520000Y-63810000D03*
X182520000Y-66350000D03*
X182520000Y-68890000D03*
X182520000Y-71430000D03*
X182520000Y-73970000D03*
X182520000Y-76510000D03*
X182520000Y-79050000D03*
X182520000Y-81590000D03*
X182520000Y-84130000D03*
X182520000Y-86670000D03*
X182520000Y-89210000D03*
X182520000Y-91750000D03*
X182520000Y-94290000D03*
X182520000Y-96830000D03*
X182520000Y-99370000D03*
X182520000Y-101910000D03*
X182520000Y-104450000D03*
D11*
X129630000Y-102120000D03*
X129630000Y-99580000D03*
X163000000Y-107000000D03*
X160460000Y-107000000D03*
X157920000Y-107000000D03*
X142760000Y-108010000D03*
X145300000Y-108010000D03*
X118270000Y-108000000D03*
X115730000Y-108000000D03*
D14*
X106000000Y-83200000D03*
X106000000Y-78800000D03*
D11*
X117500000Y-29520000D03*
X117500000Y-26980000D03*
X117500000Y-24440000D03*
X117500000Y-32060000D03*
X129460000Y-25000000D03*
X132000000Y-25000000D03*
X134540000Y-25000000D03*
X144120000Y-25000000D03*
X146660000Y-25000000D03*
X149200000Y-25000000D03*
X103000000Y-91230000D03*
X103000000Y-93770000D03*
X108250000Y-51520000D03*
X108250000Y-48980000D03*
D14*
X151825000Y-47800000D03*
X166800000Y-65200000D03*
X141200000Y-43600000D03*
X138600000Y-50200000D03*
X130600000Y-46000000D03*
X129250000Y-62020000D03*
X130410000Y-51900000D03*
X121000000Y-46250000D03*
D11*
X127270000Y-44250000D03*
X124730000Y-44250000D03*
D12*
X105080000Y-27620000D03*
X105080000Y-101280000D03*
X190810000Y-25080000D03*
D15*
X105000000Y-41000000D03*
D11*
X150000000Y-107270000D03*
X150000000Y-104730000D03*
D16*
X108270000Y-63540000D03*
X108270000Y-62270000D03*
X108270000Y-61000000D03*
X108270000Y-59730000D03*
X108270000Y-58460000D03*
X107000000Y-63540000D03*
X107000000Y-62270000D03*
X107000000Y-61000000D03*
X107000000Y-59730000D03*
X107000000Y-58460000D03*
D17*
X165000000Y-45000000D03*
X165000000Y-25000000D03*
D18*
X165000000Y-40000000D03*
X165000000Y-30000000D03*
M02*
