G04 #@! TF.FileFunction,Paste,Top*
%FSLAX46Y46*%
G04 Gerber Fmt 4.6, Leading zero omitted, Abs format (unit mm)*
G04 Created by KiCad (PCBNEW 4.0.4-stable) date Thursday, April 19, 2018 'PMt' 11:46:15 PM*
%MOMM*%
%LPD*%
G01*
G04 APERTURE LIST*
%ADD10C,0.100000*%
%ADD11R,0.458000X0.810000*%
%ADD12R,0.570000X0.490000*%
%ADD13R,0.500000X0.400000*%
%ADD14R,0.400000X0.500000*%
%ADD15R,0.700000X0.700000*%
%ADD16R,2.350000X1.850000*%
%ADD17R,2.150000X0.350000*%
%ADD18R,0.490000X0.570000*%
%ADD19R,0.560000X0.360000*%
%ADD20R,0.360000X0.560000*%
%ADD21R,0.850000X3.050000*%
%ADD22R,0.150000X1.400000*%
%ADD23R,1.400000X0.150000*%
%ADD24R,0.930000X0.930000*%
%ADD25R,0.930000X3.090000*%
%ADD26R,0.210000X1.010000*%
%ADD27R,0.490000X0.250000*%
%ADD28R,0.650000X0.450000*%
%ADD29R,5.350000X1.350000*%
%ADD30R,0.970000X1.170000*%
%ADD31R,0.269100X0.993000*%
%ADD32R,0.300000X1.000000*%
%ADD33R,0.450000X1.000000*%
G04 APERTURE END LIST*
D10*
D11*
X125365000Y-37880000D03*
X126635000Y-37880000D03*
X127905000Y-37880000D03*
X124095000Y-37880000D03*
X124095000Y-30800000D03*
X125365000Y-30800000D03*
X126635000Y-30800000D03*
X127905000Y-30800000D03*
D12*
X145050000Y-102870000D03*
X147050000Y-103830000D03*
X147050000Y-101920000D03*
D13*
X127237000Y-90170000D03*
X128287000Y-90170000D03*
D14*
X145130000Y-78945000D03*
X145130000Y-79995000D03*
X155350000Y-78505000D03*
X155350000Y-79555000D03*
X144000000Y-51025000D03*
X144000000Y-49975000D03*
X153162000Y-93963000D03*
X153162000Y-95013000D03*
D13*
X116625000Y-85880000D03*
X115575000Y-85880000D03*
X135025000Y-58800000D03*
X133975000Y-58800000D03*
X135165000Y-63250000D03*
X134115000Y-63250000D03*
D14*
X150600000Y-51025000D03*
X150600000Y-49975000D03*
X163050000Y-63375000D03*
X163050000Y-64425000D03*
D13*
X162795000Y-67600000D03*
X163845000Y-67600000D03*
D14*
X142000000Y-49975000D03*
X142000000Y-51025000D03*
D13*
X162435000Y-57370000D03*
X163485000Y-57370000D03*
X162835000Y-71190000D03*
X163885000Y-71190000D03*
D14*
X153300000Y-79655000D03*
X153300000Y-78605000D03*
X143375000Y-78950000D03*
X143375000Y-80000000D03*
D13*
X135155000Y-68540000D03*
X134105000Y-68540000D03*
X135175000Y-61570000D03*
X134125000Y-61570000D03*
X119015000Y-103270000D03*
X120065000Y-103270000D03*
D14*
X165640000Y-103740000D03*
X165640000Y-102690000D03*
X165608000Y-99043000D03*
X165608000Y-100093000D03*
D13*
X127815000Y-40910000D03*
X126765000Y-40910000D03*
X138845000Y-40850000D03*
X137795000Y-40850000D03*
X148755000Y-40950000D03*
X147705000Y-40950000D03*
X146475000Y-82000000D03*
X147525000Y-82000000D03*
X150875000Y-82000000D03*
X151925000Y-82000000D03*
X138585000Y-47810000D03*
X139635000Y-47810000D03*
D14*
X127170000Y-49230000D03*
X127170000Y-48180000D03*
D13*
X112525000Y-69000000D03*
X111475000Y-69000000D03*
D14*
X110210000Y-75055000D03*
X110210000Y-76105000D03*
D15*
X133000000Y-92800000D03*
X133000000Y-91200000D03*
X139192000Y-96050000D03*
X139192000Y-94450000D03*
X121890000Y-85910000D03*
X123490000Y-85910000D03*
X114200000Y-72780000D03*
X114200000Y-74380000D03*
D16*
X101550000Y-76550000D03*
X101550000Y-85450000D03*
X107050000Y-76550000D03*
X107050000Y-85450000D03*
D17*
X107050000Y-81000000D03*
X107050000Y-80200000D03*
X107050000Y-79400000D03*
X107050000Y-81800000D03*
X107050000Y-82600000D03*
D18*
X111760000Y-99044000D03*
X112720000Y-97044000D03*
X110810000Y-97044000D03*
D12*
X118000000Y-91780000D03*
X116000000Y-90820000D03*
X116000000Y-92730000D03*
D18*
X127508000Y-94980000D03*
X128468000Y-92980000D03*
X126558000Y-92980000D03*
D19*
X112014000Y-102674000D03*
X112014000Y-103574000D03*
D20*
X113950000Y-80000000D03*
X113050000Y-80000000D03*
D21*
X137466000Y-102870000D03*
X131266000Y-102870000D03*
D19*
X121410000Y-107880000D03*
X121410000Y-106980000D03*
D20*
X135880000Y-92560000D03*
X136780000Y-92560000D03*
D19*
X132842000Y-97986000D03*
X132842000Y-97086000D03*
D20*
X123230000Y-96590000D03*
X122330000Y-96590000D03*
X136202000Y-98552000D03*
X137102000Y-98552000D03*
X124100000Y-28000000D03*
X125000000Y-28000000D03*
X135550000Y-28000000D03*
X136450000Y-28000000D03*
X144550000Y-28000000D03*
X145450000Y-28000000D03*
X129920000Y-57370000D03*
X129020000Y-57370000D03*
X126950000Y-53600000D03*
X127850000Y-53600000D03*
D19*
X128100000Y-66425000D03*
X128100000Y-65525000D03*
D20*
X111800000Y-63500000D03*
X112700000Y-63500000D03*
D19*
X129770000Y-50450000D03*
X129770000Y-49550000D03*
D20*
X113950000Y-81250000D03*
X113050000Y-81250000D03*
D19*
X124100000Y-77430000D03*
X124100000Y-78330000D03*
D20*
X121050000Y-74880000D03*
X120150000Y-74880000D03*
X124050000Y-74880000D03*
X123150000Y-74880000D03*
X118250000Y-74880000D03*
X117350000Y-74880000D03*
D19*
X119540000Y-87400000D03*
X119540000Y-86500000D03*
D20*
X118200000Y-72880000D03*
X117300000Y-72880000D03*
D22*
X140250000Y-75700000D03*
X140750000Y-75700000D03*
X141250000Y-75700000D03*
X141750000Y-75700000D03*
X142250000Y-75700000D03*
X142750000Y-75700000D03*
X143250000Y-75700000D03*
X143750000Y-75700000D03*
X144250000Y-75700000D03*
X144750000Y-75700000D03*
X145250000Y-75700000D03*
X145750000Y-75700000D03*
X146250000Y-75700000D03*
X146750000Y-75700000D03*
X147250000Y-75700000D03*
X147750000Y-75700000D03*
X148250000Y-75700000D03*
X148750000Y-75700000D03*
X149250000Y-75700000D03*
X149750000Y-75700000D03*
X150250000Y-75700000D03*
X150750000Y-75700000D03*
X151250000Y-75700000D03*
X151750000Y-75700000D03*
X152250000Y-75700000D03*
X152750000Y-75700000D03*
X153250000Y-75700000D03*
X153750000Y-75700000D03*
X154250000Y-75700000D03*
X154750000Y-75700000D03*
X155250000Y-75700000D03*
X155750000Y-75700000D03*
X156250000Y-75700000D03*
X156750000Y-75700000D03*
X157250000Y-75700000D03*
X157750000Y-75700000D03*
D23*
X159700000Y-73750000D03*
X159700000Y-73250000D03*
X159700000Y-72750000D03*
X159700000Y-72250000D03*
X159700000Y-71750000D03*
X159700000Y-71250000D03*
X159700000Y-70750000D03*
X159700000Y-70250000D03*
X159700000Y-69750000D03*
X159700000Y-69250000D03*
X159700000Y-68750000D03*
X159700000Y-68250000D03*
X159700000Y-67750000D03*
X159700000Y-67250000D03*
X159700000Y-66750000D03*
X159700000Y-66250000D03*
X159700000Y-65750000D03*
X159700000Y-65250000D03*
X159700000Y-64750000D03*
X159700000Y-64250000D03*
X159700000Y-63750000D03*
X159700000Y-63250000D03*
X159700000Y-62750000D03*
X159700000Y-62250000D03*
X159700000Y-61750000D03*
X159700000Y-61250000D03*
X159700000Y-60750000D03*
X159700000Y-60250000D03*
X159700000Y-59750000D03*
X159700000Y-59250000D03*
X159700000Y-58750000D03*
X159700000Y-58250000D03*
X159700000Y-57750000D03*
X159700000Y-57250000D03*
X159700000Y-56750000D03*
X159700000Y-56250000D03*
D22*
X157750000Y-54300000D03*
X157250000Y-54300000D03*
X156750000Y-54300000D03*
X156250000Y-54300000D03*
X155750000Y-54300000D03*
X155250000Y-54300000D03*
X154750000Y-54300000D03*
X154250000Y-54300000D03*
X153750000Y-54300000D03*
X153250000Y-54300000D03*
X152750000Y-54300000D03*
X152250000Y-54300000D03*
X151750000Y-54300000D03*
X151250000Y-54300000D03*
X150750000Y-54300000D03*
X150250000Y-54300000D03*
X149750000Y-54300000D03*
X149250000Y-54300000D03*
X148750000Y-54300000D03*
X148250000Y-54300000D03*
X147750000Y-54300000D03*
X147250000Y-54300000D03*
X146750000Y-54300000D03*
X146250000Y-54300000D03*
X145750000Y-54300000D03*
X145250000Y-54300000D03*
X144750000Y-54300000D03*
X144250000Y-54300000D03*
X143750000Y-54300000D03*
X143250000Y-54300000D03*
X142750000Y-54300000D03*
X142250000Y-54300000D03*
X141750000Y-54300000D03*
X141250000Y-54300000D03*
X140750000Y-54300000D03*
X140250000Y-54300000D03*
D23*
X138300000Y-56250000D03*
X138300000Y-56750000D03*
X138300000Y-57250000D03*
X138300000Y-57750000D03*
X138300000Y-58250000D03*
X138300000Y-58750000D03*
X138300000Y-59250000D03*
X138300000Y-59750000D03*
X138300000Y-60250000D03*
X138300000Y-60750000D03*
X138300000Y-61250000D03*
X138300000Y-61750000D03*
X138300000Y-62250000D03*
X138300000Y-62750000D03*
X138300000Y-63250000D03*
X138300000Y-63750000D03*
X138300000Y-64250000D03*
X138300000Y-64750000D03*
X138300000Y-65250000D03*
X138300000Y-65750000D03*
X138300000Y-66250000D03*
X138300000Y-66750000D03*
X138300000Y-67250000D03*
X138300000Y-67750000D03*
X138300000Y-68250000D03*
X138300000Y-68750000D03*
X138300000Y-69250000D03*
X138300000Y-69750000D03*
X138300000Y-70250000D03*
X138300000Y-70750000D03*
X138300000Y-71250000D03*
X138300000Y-71750000D03*
X138300000Y-72250000D03*
X138300000Y-72750000D03*
X138300000Y-73250000D03*
X138300000Y-73750000D03*
D24*
X169260000Y-102520000D03*
X169260000Y-100220000D03*
X169260000Y-104820000D03*
D25*
X175360000Y-102520000D03*
D26*
X118943000Y-96606000D03*
X119593000Y-96606000D03*
X118293000Y-96606000D03*
X117643000Y-96606000D03*
X119593000Y-101006000D03*
X118943000Y-101006000D03*
X118293000Y-101006000D03*
X117643000Y-101006000D03*
D11*
X136365000Y-37780000D03*
X137635000Y-37780000D03*
X138905000Y-37780000D03*
X135095000Y-37780000D03*
X135095000Y-30700000D03*
X136365000Y-30700000D03*
X137635000Y-30700000D03*
X138905000Y-30700000D03*
X146365000Y-37780000D03*
X147635000Y-37780000D03*
X148905000Y-37780000D03*
X145095000Y-37780000D03*
X145095000Y-30700000D03*
X146365000Y-30700000D03*
X147635000Y-30700000D03*
X148905000Y-30700000D03*
D27*
X136100000Y-47000000D03*
X133900000Y-47000000D03*
X136100000Y-47800000D03*
X136100000Y-48600000D03*
X136100000Y-46200000D03*
X136100000Y-45400000D03*
X133900000Y-46200000D03*
X133900000Y-45400000D03*
X133900000Y-47800000D03*
X133900000Y-48600000D03*
D28*
X121700000Y-50250000D03*
X121700000Y-49300000D03*
X121700000Y-51200000D03*
X124300000Y-51200000D03*
X124300000Y-50250000D03*
X124300000Y-49300000D03*
D29*
X145000000Y-88000000D03*
X153500000Y-88000000D03*
D13*
X170995000Y-56070000D03*
X172045000Y-56070000D03*
D30*
X112250000Y-56475000D03*
X116750000Y-56475000D03*
X116750000Y-48525000D03*
X112250000Y-48525000D03*
X122750000Y-61025000D03*
X118250000Y-61025000D03*
X118250000Y-68975000D03*
X122750000Y-68975000D03*
X119750000Y-36025000D03*
X115250000Y-36025000D03*
X115250000Y-43975000D03*
X119750000Y-43975000D03*
D13*
X162455000Y-59600000D03*
X163505000Y-59600000D03*
D19*
X178750000Y-59300000D03*
X178750000Y-60200000D03*
X178750000Y-55800000D03*
X178750000Y-56700000D03*
X176250000Y-60200000D03*
X176250000Y-59300000D03*
X176270000Y-56700000D03*
X176270000Y-55800000D03*
D13*
X135185000Y-70780000D03*
X134135000Y-70780000D03*
X135070000Y-73370000D03*
X134020000Y-73370000D03*
X162845000Y-69280000D03*
X163895000Y-69280000D03*
D31*
X121835000Y-83183000D03*
X121200000Y-83183000D03*
X120565000Y-83183000D03*
X119930000Y-83183000D03*
X119295000Y-83183000D03*
X118660000Y-83183000D03*
X118025000Y-78230000D03*
X117390000Y-78230000D03*
X118025000Y-83183000D03*
X118660000Y-78230000D03*
X121835000Y-78230000D03*
X121200000Y-78230000D03*
X120565000Y-78230000D03*
X119930000Y-78230000D03*
X119295000Y-78230000D03*
X117390000Y-83183000D03*
D24*
X149220000Y-96230000D03*
X149220000Y-98530000D03*
X149220000Y-93930000D03*
D25*
X143120000Y-96230000D03*
D14*
X111000000Y-79425000D03*
X111000000Y-78375000D03*
X111000000Y-81725000D03*
X111000000Y-82775000D03*
D32*
X171845000Y-62840000D03*
D33*
X171120000Y-62840000D03*
D32*
X172495000Y-62840000D03*
D33*
X173220000Y-62840000D03*
X171120000Y-58490000D03*
D32*
X171845000Y-58490000D03*
X172495000Y-58490000D03*
D33*
X173220000Y-58490000D03*
D18*
X108500000Y-33500000D03*
X107540000Y-35500000D03*
X109450000Y-35500000D03*
D19*
X104500000Y-36450000D03*
X104500000Y-35550000D03*
D20*
X176970000Y-66600000D03*
X177870000Y-66600000D03*
X176950000Y-64500000D03*
X177850000Y-64500000D03*
M02*
