M48
METRIC,TZ
T1C0.400
T2C0.700
T3C0.762
T4C0.920
T5C1.020
T6C1.150
T7C1.250
T8C3.180
%
G90
G05
T1
X104500Y-37320
X106270Y-61040
X106270Y-62270
X108610Y-74010
X109377Y-82610
X110390Y-64300
X110600Y-74110
X110810Y-55749
X111000Y-77300
X111000Y-83800
X111497Y-70159
X111538Y-86897
X111880Y-74970
X112670Y-105970
X113028Y-85089
X114450Y-85880
X114460Y-91740
X114868Y-97555
X116100Y-80200
X116100Y-81025
X117399Y-80150
X117399Y-81075
X118275Y-58470
X118380Y-98990
X118423Y-57684
X118549Y-76098
X119441Y-104429
X119694Y-58063
X119760Y-38240
X119940Y-50690
X119994Y-85231
X120040Y-75560
X120040Y-76840
X120232Y-57385
X121280Y-103260
X121290Y-76990
X121450Y-61020
X122184Y-75364
X122719Y-50284
X124090Y-26360
X124740Y-40540
X124765Y-93155
X124792Y-39258
X124924Y-75346
X124978Y-77407
X125890Y-39915
X126240Y-53620
X127140Y-47210
X128090Y-67480
X128300Y-73770
X128300Y-74740
X128311Y-57407
X128550Y-53630
X129098Y-64173
X129280Y-40490
X129286Y-102870
X129410Y-42990
X129480Y-90160
X129630Y-27150
X129670Y-28910
X129770Y-48660
X129930Y-92980
X131080Y-53460
X131880Y-46200
X132132Y-44541
X132150Y-53670
X132158Y-47673
X132345Y-65040
X132806Y-93955
X132820Y-96110
X132970Y-61580
X133000Y-58800
X133096Y-99060
X133100Y-70790
X133135Y-62620
X133239Y-68421
X134000Y-69984
X134060Y-37770
X134135Y-74129
X134738Y-66108
X134872Y-47108
X134874Y-98806
X134940Y-45135
X134948Y-55304
X135105Y-31797
X135130Y-64320
X135315Y-58093
X135700Y-82900
X135788Y-67375
X136049Y-60893
X136060Y-72114
X136085Y-57875
X136630Y-40870
X136710Y-67700
X137226Y-87960
X137260Y-49410
X137388Y-51812
X137644Y-89962
X137830Y-92560
X138590Y-46650
X139601Y-49129
X139787Y-92615
X139890Y-78050
X139981Y-91839
X140280Y-40810
X140291Y-91046
X140440Y-66965
X140908Y-68359
X141034Y-48282
X141046Y-82065
X141060Y-78050
X141196Y-47036
X141250Y-51172
X141335Y-74068
X141443Y-64906
X141443Y-65976
X141504Y-67599
X141716Y-55835
X141860Y-78034
X141953Y-81275
X142353Y-73860
X142670Y-48756
X142691Y-81689
X142990Y-37530
X143145Y-73972
X143239Y-69248
X143735Y-48808
X144069Y-52796
X144350Y-74140
X144840Y-39370
X144843Y-51799
X145110Y-32150
X145336Y-47112
X145510Y-96250
X145785Y-50690
X145899Y-51683
X146258Y-49347
X146764Y-74555
X146936Y-76988
X147067Y-41924
X147560Y-96250
X147574Y-77470
X148316Y-47242
X148381Y-48229
X148510Y-56848
X148830Y-32830
X149052Y-49153
X149400Y-52330
X149735Y-56190
X150060Y-40940
X150547Y-77527
X150610Y-48904
X151080Y-98550
X152400Y-78486
X153162Y-96266
X154242Y-80364
X155358Y-80499
X155730Y-71755
X155956Y-93980
X156817Y-77227
X157750Y-56470
X157950Y-58390
X157970Y-45420
X158380Y-71010
X158710Y-97920
X161103Y-65465
X161857Y-65915
X163039Y-56375
X163150Y-66240
X163196Y-60350
X164040Y-64420
X164501Y-57159
X164604Y-58382
X164630Y-75471
X165005Y-68607
X165059Y-71755
X165091Y-67476
X165214Y-63134
X165876Y-68817
X166776Y-55808
X167590Y-75230
X167654Y-61996
X167752Y-68474
X168049Y-61295
X168600Y-75234
X169493Y-74012
X170130Y-56750
X170654Y-73965
X171355Y-72606
X172605Y-73408
X173170Y-64340
X173270Y-56070
X173344Y-69713
X173418Y-74801
X174482Y-55270
X175574Y-54756
X175800Y-64400
X175800Y-66600
X177000Y-58600
X178100Y-57600
X180725Y-82884
X181406Y-77214
X188350Y-92870
X189420Y-93770
T2
X103730Y-58460
X103730Y-59730
X103730Y-61000
X103730Y-62270
X103730Y-63540
X105000Y-58460
X105000Y-59730
X105000Y-61000
X105000Y-62270
X105000Y-63540
T3
X111840Y-45490
X121000Y-46250
X127380Y-61400
X130550Y-44870
X132360Y-51480
X133650Y-40350
X138600Y-50200
X154520Y-47050
X159010Y-100180
X170250Y-66040
T4
X165000Y-30000
X165000Y-40000
T5
X183190Y-25710
X183190Y-28250
X183190Y-30790
X183190Y-33330
X183190Y-35870
X183190Y-38410
X183190Y-40950
X183190Y-43490
X183190Y-46030
X183190Y-48570
X183190Y-51110
X183190Y-53650
X183190Y-56190
X183190Y-58730
X183190Y-61270
X183190Y-63810
X183190Y-66350
X183190Y-68890
X183190Y-71430
X183190Y-73970
X183190Y-76510
X183190Y-79050
X183190Y-81590
X183190Y-84130
X183190Y-86670
X183190Y-89210
X183190Y-91750
X183190Y-94290
X183190Y-96830
X183190Y-99370
X183190Y-101910
X183190Y-104450
X185730Y-25710
X185730Y-28250
X185730Y-30790
X185730Y-33330
X185730Y-35870
X185730Y-38410
X185730Y-40950
X185730Y-43490
X185730Y-46030
X185730Y-48570
X185730Y-51110
X185730Y-53650
X185730Y-56190
X185730Y-58730
X185730Y-61270
X185730Y-63810
X185730Y-66350
X185730Y-68890
X185730Y-71430
X185730Y-73970
X185730Y-76510
X185730Y-79050
X185730Y-81590
X185730Y-84130
X185730Y-86670
X185730Y-89210
X185730Y-91750
X185730Y-94290
X185730Y-96830
X185730Y-99370
X185730Y-101910
X185730Y-104450
T6
X104230Y-47000
X104230Y-51000
X104340Y-71310
X106770Y-47000
X106770Y-51000
X106880Y-71310
X108500Y-39960
X108500Y-42500
X115880Y-107300
X117500Y-24440
X117500Y-26980
X117500Y-29520
X117500Y-32060
X118420Y-107300
X124000Y-100920
X124000Y-103460
X124000Y-106000
X129460Y-25075
X130302Y-107188
X132000Y-25075
X132842Y-107188
X134540Y-25075
X141732Y-103632
X141732Y-106172
X144120Y-25000
X146660Y-25000
X149200Y-25000
X150622Y-104648
X150622Y-107188
X157920Y-107000
X160460Y-107000
X163000Y-107000
T7
X165000Y-25000
X165000Y-45000
T8
X105080Y-27620
X105080Y-101280
X190810Y-25080
X190810Y-105090
T0
M30
