G04 #@! TF.FileFunction,Copper,L1,Top,Signal*
%FSLAX46Y46*%
G04 Gerber Fmt 4.6, Leading zero omitted, Abs format (unit mm)*
G04 Created by KiCad (PCBNEW 4.0.4-stable) date Thursday, April 19, 2018 'PMt' 11:46:15 PM*
%MOMM*%
%LPD*%
G01*
G04 APERTURE LIST*
%ADD10C,0.100000*%
%ADD11R,0.760000X1.200000*%
%ADD12C,6.350000*%
%ADD13R,0.900000X0.800000*%
%ADD14C,1.900000*%
%ADD15R,0.600000X0.500000*%
%ADD16R,0.500000X0.600000*%
%ADD17R,0.800000X0.800000*%
%ADD18C,1.720000*%
%ADD19C,1.524000*%
%ADD20R,2.500000X2.000000*%
%ADD21R,2.300000X0.500000*%
%ADD22R,0.800000X0.900000*%
%ADD23R,0.600000X0.400000*%
%ADD24R,0.400000X0.600000*%
%ADD25R,1.000000X3.200000*%
%ADD26R,0.300000X1.550000*%
%ADD27R,1.550000X0.300000*%
%ADD28R,1.200000X1.200000*%
%ADD29R,1.200000X3.600000*%
%ADD30R,0.450000X1.450000*%
%ADD31R,0.800000X0.500000*%
%ADD32R,1.000000X0.750000*%
%ADD33R,5.500000X1.500000*%
%ADD34R,1.400000X1.650000*%
%ADD35O,2.200000X1.950000*%
%ADD36O,2.000000X1.700000*%
%ADD37C,1.050000*%
%ADD38R,0.419100X1.143000*%
%ADD39R,0.450000X1.150000*%
%ADD40R,0.600000X1.150000*%
%ADD41C,0.600000*%
%ADD42C,0.250000*%
%ADD43C,0.400000*%
G04 APERTURE END LIST*
D10*
D11*
X125365000Y-37880000D03*
X126635000Y-37880000D03*
X127905000Y-37880000D03*
X124095000Y-37880000D03*
X124095000Y-30800000D03*
X125365000Y-30800000D03*
X126635000Y-30800000D03*
X127905000Y-30800000D03*
D12*
X190810000Y-105090000D03*
D13*
X145050000Y-102870000D03*
X147050000Y-103830000D03*
X147050000Y-101920000D03*
D14*
X124000000Y-106000000D03*
X124000000Y-103460000D03*
X124000000Y-100920000D03*
D15*
X127237000Y-90170000D03*
X128287000Y-90170000D03*
D16*
X145130000Y-78945000D03*
X145130000Y-79995000D03*
X155350000Y-78505000D03*
X155350000Y-79555000D03*
X144000000Y-51025000D03*
X144000000Y-49975000D03*
X153162000Y-93963000D03*
X153162000Y-95013000D03*
D15*
X116625000Y-85880000D03*
X115575000Y-85880000D03*
X135025000Y-58800000D03*
X133975000Y-58800000D03*
X135165000Y-63250000D03*
X134115000Y-63250000D03*
D16*
X150600000Y-51025000D03*
X150600000Y-49975000D03*
X163050000Y-63375000D03*
X163050000Y-64425000D03*
D15*
X162795000Y-67600000D03*
X163845000Y-67600000D03*
D16*
X142000000Y-49975000D03*
X142000000Y-51025000D03*
D15*
X162435000Y-57370000D03*
X163485000Y-57370000D03*
X162835000Y-71190000D03*
X163885000Y-71190000D03*
D16*
X153300000Y-79655000D03*
X153300000Y-78605000D03*
X143375000Y-78950000D03*
X143375000Y-80000000D03*
D15*
X135155000Y-68540000D03*
X134105000Y-68540000D03*
X135175000Y-61570000D03*
X134125000Y-61570000D03*
X119015000Y-103270000D03*
X120065000Y-103270000D03*
D16*
X165640000Y-103740000D03*
X165640000Y-102690000D03*
X165608000Y-99043000D03*
X165608000Y-100093000D03*
D15*
X127815000Y-40910000D03*
X126765000Y-40910000D03*
X138845000Y-40850000D03*
X137795000Y-40850000D03*
X148755000Y-40950000D03*
X147705000Y-40950000D03*
X146475000Y-82000000D03*
X147525000Y-82000000D03*
X150875000Y-82000000D03*
X151925000Y-82000000D03*
X138585000Y-47810000D03*
X139635000Y-47810000D03*
D16*
X127170000Y-49230000D03*
X127170000Y-48180000D03*
D15*
X112525000Y-69000000D03*
X111475000Y-69000000D03*
D16*
X110210000Y-75055000D03*
X110210000Y-76105000D03*
D17*
X133000000Y-92800000D03*
X133000000Y-91200000D03*
X139192000Y-96050000D03*
X139192000Y-94450000D03*
X121890000Y-85910000D03*
X123490000Y-85910000D03*
X114200000Y-72780000D03*
X114200000Y-74380000D03*
D18*
X183190000Y-25710000D03*
X183190000Y-28250000D03*
X183190000Y-30790000D03*
X183190000Y-33330000D03*
X183190000Y-35870000D03*
X183190000Y-38410000D03*
X183190000Y-40950000D03*
X183190000Y-43490000D03*
X183190000Y-46030000D03*
X183190000Y-48570000D03*
X183190000Y-51110000D03*
X183190000Y-53650000D03*
X183190000Y-56190000D03*
X183190000Y-58730000D03*
X183190000Y-61270000D03*
X183190000Y-63810000D03*
X183190000Y-66350000D03*
X183190000Y-68890000D03*
X183190000Y-71430000D03*
X183190000Y-73970000D03*
X183190000Y-76510000D03*
X183190000Y-79050000D03*
X183190000Y-81590000D03*
X183190000Y-84130000D03*
X183190000Y-86670000D03*
X183190000Y-89210000D03*
X183190000Y-91750000D03*
X183190000Y-94290000D03*
X183190000Y-96830000D03*
X183190000Y-99370000D03*
X183190000Y-101910000D03*
X183190000Y-104450000D03*
X185730000Y-25710000D03*
X185730000Y-28250000D03*
X185730000Y-30790000D03*
X185730000Y-33330000D03*
X185730000Y-35870000D03*
X185730000Y-38410000D03*
X185730000Y-40950000D03*
X185730000Y-43490000D03*
X185730000Y-46030000D03*
X185730000Y-48570000D03*
X185730000Y-51110000D03*
X185730000Y-53650000D03*
X185730000Y-56190000D03*
X185730000Y-58730000D03*
X185730000Y-61270000D03*
X185730000Y-63810000D03*
X185730000Y-66350000D03*
X185730000Y-68890000D03*
X185730000Y-71430000D03*
X185730000Y-73970000D03*
X185730000Y-76510000D03*
X185730000Y-79050000D03*
X185730000Y-81590000D03*
X185730000Y-84130000D03*
X185730000Y-86670000D03*
X185730000Y-89210000D03*
X185730000Y-91750000D03*
X185730000Y-94290000D03*
X185730000Y-96830000D03*
X185730000Y-99370000D03*
X185730000Y-101910000D03*
X185730000Y-104450000D03*
D14*
X141732000Y-103632000D03*
X141732000Y-106172000D03*
X163000000Y-107000000D03*
X160460000Y-107000000D03*
X157920000Y-107000000D03*
X130302000Y-107188000D03*
X132842000Y-107188000D03*
X118420000Y-107300000D03*
X115880000Y-107300000D03*
D19*
X104500000Y-83200000D03*
X104500000Y-78800000D03*
D20*
X101550000Y-76550000D03*
X101550000Y-85450000D03*
X107050000Y-76550000D03*
X107050000Y-85450000D03*
D21*
X107050000Y-81000000D03*
X107050000Y-80200000D03*
X107050000Y-79400000D03*
X107050000Y-81800000D03*
X107050000Y-82600000D03*
D14*
X117500000Y-29520000D03*
X117500000Y-26980000D03*
X117500000Y-24440000D03*
X117500000Y-32060000D03*
X134540000Y-25075000D03*
X132000000Y-25075000D03*
X129460000Y-25075000D03*
X144120000Y-25000000D03*
X146660000Y-25000000D03*
X149200000Y-25000000D03*
X104340000Y-71310000D03*
X106880000Y-71310000D03*
X108500000Y-42500000D03*
X108500000Y-39960000D03*
D22*
X111760000Y-99044000D03*
X112720000Y-97044000D03*
X110810000Y-97044000D03*
D13*
X118000000Y-91780000D03*
X116000000Y-90820000D03*
X116000000Y-92730000D03*
D22*
X127508000Y-94980000D03*
X128468000Y-92980000D03*
X126558000Y-92980000D03*
D23*
X112014000Y-102674000D03*
X112014000Y-103574000D03*
D24*
X113950000Y-80000000D03*
X113050000Y-80000000D03*
D25*
X137466000Y-102870000D03*
X131266000Y-102870000D03*
D23*
X121410000Y-107880000D03*
X121410000Y-106980000D03*
D24*
X135880000Y-92560000D03*
X136780000Y-92560000D03*
D23*
X132842000Y-97986000D03*
X132842000Y-97086000D03*
D24*
X123230000Y-96590000D03*
X122330000Y-96590000D03*
X136202000Y-98552000D03*
X137102000Y-98552000D03*
X124100000Y-28000000D03*
X125000000Y-28000000D03*
X135550000Y-28000000D03*
X136450000Y-28000000D03*
X144550000Y-28000000D03*
X145450000Y-28000000D03*
X129920000Y-57370000D03*
X129020000Y-57370000D03*
X126950000Y-53600000D03*
X127850000Y-53600000D03*
D23*
X128100000Y-66425000D03*
X128100000Y-65525000D03*
D24*
X111800000Y-63500000D03*
X112700000Y-63500000D03*
D23*
X129770000Y-50450000D03*
X129770000Y-49550000D03*
D24*
X113950000Y-81250000D03*
X113050000Y-81250000D03*
D23*
X124100000Y-77430000D03*
X124100000Y-78330000D03*
D24*
X121050000Y-74880000D03*
X120150000Y-74880000D03*
X124050000Y-74880000D03*
X123150000Y-74880000D03*
X118250000Y-74880000D03*
X117350000Y-74880000D03*
D23*
X119540000Y-87400000D03*
X119540000Y-86500000D03*
D24*
X118200000Y-72880000D03*
X117300000Y-72880000D03*
D26*
X140250000Y-75700000D03*
X140750000Y-75700000D03*
X141250000Y-75700000D03*
X141750000Y-75700000D03*
X142250000Y-75700000D03*
X142750000Y-75700000D03*
X143250000Y-75700000D03*
X143750000Y-75700000D03*
X144250000Y-75700000D03*
X144750000Y-75700000D03*
X145250000Y-75700000D03*
X145750000Y-75700000D03*
X146250000Y-75700000D03*
X146750000Y-75700000D03*
X147250000Y-75700000D03*
X147750000Y-75700000D03*
X148250000Y-75700000D03*
X148750000Y-75700000D03*
X149250000Y-75700000D03*
X149750000Y-75700000D03*
X150250000Y-75700000D03*
X150750000Y-75700000D03*
X151250000Y-75700000D03*
X151750000Y-75700000D03*
X152250000Y-75700000D03*
X152750000Y-75700000D03*
X153250000Y-75700000D03*
X153750000Y-75700000D03*
X154250000Y-75700000D03*
X154750000Y-75700000D03*
X155250000Y-75700000D03*
X155750000Y-75700000D03*
X156250000Y-75700000D03*
X156750000Y-75700000D03*
X157250000Y-75700000D03*
X157750000Y-75700000D03*
D27*
X159700000Y-73750000D03*
X159700000Y-73250000D03*
X159700000Y-72750000D03*
X159700000Y-72250000D03*
X159700000Y-71750000D03*
X159700000Y-71250000D03*
X159700000Y-70750000D03*
X159700000Y-70250000D03*
X159700000Y-69750000D03*
X159700000Y-69250000D03*
X159700000Y-68750000D03*
X159700000Y-68250000D03*
X159700000Y-67750000D03*
X159700000Y-67250000D03*
X159700000Y-66750000D03*
X159700000Y-66250000D03*
X159700000Y-65750000D03*
X159700000Y-65250000D03*
X159700000Y-64750000D03*
X159700000Y-64250000D03*
X159700000Y-63750000D03*
X159700000Y-63250000D03*
X159700000Y-62750000D03*
X159700000Y-62250000D03*
X159700000Y-61750000D03*
X159700000Y-61250000D03*
X159700000Y-60750000D03*
X159700000Y-60250000D03*
X159700000Y-59750000D03*
X159700000Y-59250000D03*
X159700000Y-58750000D03*
X159700000Y-58250000D03*
X159700000Y-57750000D03*
X159700000Y-57250000D03*
X159700000Y-56750000D03*
X159700000Y-56250000D03*
D26*
X157750000Y-54300000D03*
X157250000Y-54300000D03*
X156750000Y-54300000D03*
X156250000Y-54300000D03*
X155750000Y-54300000D03*
X155250000Y-54300000D03*
X154750000Y-54300000D03*
X154250000Y-54300000D03*
X153750000Y-54300000D03*
X153250000Y-54300000D03*
X152750000Y-54300000D03*
X152250000Y-54300000D03*
X151750000Y-54300000D03*
X151250000Y-54300000D03*
X150750000Y-54300000D03*
X150250000Y-54300000D03*
X149750000Y-54300000D03*
X149250000Y-54300000D03*
X148750000Y-54300000D03*
X148250000Y-54300000D03*
X147750000Y-54300000D03*
X147250000Y-54300000D03*
X146750000Y-54300000D03*
X146250000Y-54300000D03*
X145750000Y-54300000D03*
X145250000Y-54300000D03*
X144750000Y-54300000D03*
X144250000Y-54300000D03*
X143750000Y-54300000D03*
X143250000Y-54300000D03*
X142750000Y-54300000D03*
X142250000Y-54300000D03*
X141750000Y-54300000D03*
X141250000Y-54300000D03*
X140750000Y-54300000D03*
X140250000Y-54300000D03*
D27*
X138300000Y-56250000D03*
X138300000Y-56750000D03*
X138300000Y-57250000D03*
X138300000Y-57750000D03*
X138300000Y-58250000D03*
X138300000Y-58750000D03*
X138300000Y-59250000D03*
X138300000Y-59750000D03*
X138300000Y-60250000D03*
X138300000Y-60750000D03*
X138300000Y-61250000D03*
X138300000Y-61750000D03*
X138300000Y-62250000D03*
X138300000Y-62750000D03*
X138300000Y-63250000D03*
X138300000Y-63750000D03*
X138300000Y-64250000D03*
X138300000Y-64750000D03*
X138300000Y-65250000D03*
X138300000Y-65750000D03*
X138300000Y-66250000D03*
X138300000Y-66750000D03*
X138300000Y-67250000D03*
X138300000Y-67750000D03*
X138300000Y-68250000D03*
X138300000Y-68750000D03*
X138300000Y-69250000D03*
X138300000Y-69750000D03*
X138300000Y-70250000D03*
X138300000Y-70750000D03*
X138300000Y-71250000D03*
X138300000Y-71750000D03*
X138300000Y-72250000D03*
X138300000Y-72750000D03*
X138300000Y-73250000D03*
X138300000Y-73750000D03*
D28*
X169260000Y-102520000D03*
X169260000Y-100220000D03*
X169260000Y-104820000D03*
D29*
X175360000Y-102520000D03*
D30*
X118943000Y-96606000D03*
X119593000Y-96606000D03*
X118293000Y-96606000D03*
X117643000Y-96606000D03*
X119593000Y-101006000D03*
X118943000Y-101006000D03*
X118293000Y-101006000D03*
X117643000Y-101006000D03*
D11*
X136365000Y-37780000D03*
X137635000Y-37780000D03*
X138905000Y-37780000D03*
X135095000Y-37780000D03*
X135095000Y-30700000D03*
X136365000Y-30700000D03*
X137635000Y-30700000D03*
X138905000Y-30700000D03*
X146365000Y-37780000D03*
X147635000Y-37780000D03*
X148905000Y-37780000D03*
X145095000Y-37780000D03*
X145095000Y-30700000D03*
X146365000Y-30700000D03*
X147635000Y-30700000D03*
X148905000Y-30700000D03*
D31*
X136100000Y-47000000D03*
X133900000Y-47000000D03*
X136100000Y-47800000D03*
X136100000Y-48600000D03*
X136100000Y-46200000D03*
X136100000Y-45400000D03*
X133900000Y-46200000D03*
X133900000Y-45400000D03*
X133900000Y-47800000D03*
X133900000Y-48600000D03*
D32*
X121700000Y-50250000D03*
X121700000Y-49300000D03*
X121700000Y-51200000D03*
X124300000Y-51200000D03*
X124300000Y-50250000D03*
X124300000Y-49300000D03*
D19*
X154520000Y-47050000D03*
X170250000Y-66040000D03*
X133650000Y-40350000D03*
X138600000Y-50200000D03*
X130550000Y-44870000D03*
X127380000Y-61400000D03*
X132360000Y-51480000D03*
X121000000Y-46250000D03*
D33*
X145000000Y-88000000D03*
X153500000Y-88000000D03*
D15*
X170995000Y-56070000D03*
X172045000Y-56070000D03*
D14*
X104230000Y-47000000D03*
X106770000Y-47000000D03*
D34*
X112250000Y-56475000D03*
X116750000Y-56475000D03*
X116750000Y-48525000D03*
X112250000Y-48525000D03*
D12*
X105080000Y-27620000D03*
X105080000Y-101280000D03*
X190810000Y-25080000D03*
D14*
X150622000Y-107188000D03*
X150622000Y-104648000D03*
D35*
X165000000Y-45000000D03*
X165000000Y-25000000D03*
D36*
X165000000Y-40000000D03*
X165000000Y-30000000D03*
D34*
X122750000Y-61025000D03*
X118250000Y-61025000D03*
X118250000Y-68975000D03*
X122750000Y-68975000D03*
X119750000Y-36025000D03*
X115250000Y-36025000D03*
X115250000Y-43975000D03*
X119750000Y-43975000D03*
D37*
X105000000Y-63540000D03*
X105000000Y-62270000D03*
X105000000Y-61000000D03*
X105000000Y-59730000D03*
X105000000Y-58460000D03*
X103730000Y-63540000D03*
X103730000Y-62270000D03*
X103730000Y-61000000D03*
X103730000Y-59730000D03*
X103730000Y-58460000D03*
D15*
X162455000Y-59600000D03*
X163505000Y-59600000D03*
D23*
X178750000Y-59300000D03*
X178750000Y-60200000D03*
X178750000Y-55800000D03*
X178750000Y-56700000D03*
X176250000Y-60200000D03*
X176250000Y-59300000D03*
X176270000Y-56700000D03*
X176270000Y-55800000D03*
D15*
X135185000Y-70780000D03*
X134135000Y-70780000D03*
X135070000Y-73370000D03*
X134020000Y-73370000D03*
X162845000Y-69280000D03*
X163895000Y-69280000D03*
D38*
X121835000Y-83183000D03*
X121200000Y-83183000D03*
X120565000Y-83183000D03*
X119930000Y-83183000D03*
X119295000Y-83183000D03*
X118660000Y-83183000D03*
X118025000Y-78230000D03*
X117390000Y-78230000D03*
X118025000Y-83183000D03*
X118660000Y-78230000D03*
X121835000Y-78230000D03*
X121200000Y-78230000D03*
X120565000Y-78230000D03*
X119930000Y-78230000D03*
X119295000Y-78230000D03*
X117390000Y-83183000D03*
D19*
X159010000Y-100180000D03*
D28*
X149220000Y-96230000D03*
X149220000Y-98530000D03*
X149220000Y-93930000D03*
D29*
X143120000Y-96230000D03*
D16*
X111000000Y-79425000D03*
X111000000Y-78375000D03*
X111000000Y-81725000D03*
X111000000Y-82775000D03*
D39*
X171845000Y-62840000D03*
D40*
X171120000Y-62840000D03*
D39*
X172495000Y-62840000D03*
D40*
X173220000Y-62840000D03*
X171120000Y-58490000D03*
D39*
X171845000Y-58490000D03*
X172495000Y-58490000D03*
D40*
X173220000Y-58490000D03*
D14*
X104230000Y-51000000D03*
X106770000Y-51000000D03*
D22*
X108500000Y-33500000D03*
X107540000Y-35500000D03*
X109450000Y-35500000D03*
D23*
X104500000Y-36450000D03*
X104500000Y-35550000D03*
D19*
X111840000Y-45490000D03*
D24*
X176970000Y-66600000D03*
X177870000Y-66600000D03*
X176950000Y-64500000D03*
X177850000Y-64500000D03*
D41*
X165213703Y-63133639D03*
X149399586Y-51050000D03*
X145304707Y-49636026D03*
X135315166Y-58092706D03*
X133999983Y-69983592D03*
X135700000Y-82900000D03*
X155956000Y-93980000D03*
X134672684Y-72092921D03*
X157997465Y-78616963D03*
X135130000Y-64320000D03*
X162800000Y-68470000D03*
X150610000Y-48903970D03*
X173270000Y-56070000D03*
X132131655Y-44540975D03*
X129280000Y-40490000D03*
X124765018Y-93154982D03*
X106270000Y-62270000D03*
X114460000Y-91740000D03*
X173170000Y-64340000D03*
X145510000Y-96250000D03*
X147560000Y-96250000D03*
X142670298Y-48756071D03*
X139600894Y-49128749D03*
X133135264Y-62619826D03*
X128550000Y-53630000D03*
X133239433Y-68420566D03*
X122718827Y-50283768D03*
X143735010Y-48808134D03*
X132970000Y-61580000D03*
X111497067Y-70158608D03*
X106270000Y-61040000D03*
X142691320Y-81689238D03*
X141952924Y-81275289D03*
X134135010Y-74128998D03*
X129480000Y-90160000D03*
X121280000Y-103260000D03*
X153162000Y-96266000D03*
X137830000Y-92560000D03*
X165091002Y-67476117D03*
X154241744Y-80364004D03*
X165005360Y-68606778D03*
X165875815Y-68817044D03*
X164501194Y-57159447D03*
X156817223Y-77226570D03*
X150546842Y-77527153D03*
X164603987Y-58381605D03*
X155357698Y-80499445D03*
X129770000Y-48660000D03*
X127140000Y-47210000D03*
X133100000Y-70790000D03*
X133000000Y-58800000D03*
X164040000Y-64420000D03*
X150060000Y-40940000D03*
X140280000Y-40810000D03*
X119760000Y-38240000D03*
X121450000Y-61020000D03*
X110809885Y-55749348D03*
X111537875Y-86896960D03*
X113028111Y-85089137D03*
X111880000Y-74970000D03*
X108610000Y-74010000D03*
X110600000Y-74110000D03*
X119993505Y-85230887D03*
X111000000Y-83800000D03*
X111000000Y-77300000D03*
X118548521Y-76098232D03*
X109377085Y-82609551D03*
X114450000Y-85880000D03*
X175800000Y-66600000D03*
X175800000Y-64400000D03*
X128300000Y-74740000D03*
X128300000Y-73770000D03*
X124923501Y-75346058D03*
X124977567Y-77407051D03*
X104500009Y-37320000D03*
X110390000Y-64300000D03*
X128090000Y-67480000D03*
X170130000Y-56750000D03*
X163039162Y-56375010D03*
X145110000Y-32150000D03*
X119441007Y-104428973D03*
X151080000Y-98550000D03*
X147067473Y-41924234D03*
X141033922Y-48282383D03*
X125890161Y-39914990D03*
X136049234Y-60893309D03*
X135787670Y-67374790D03*
X135105017Y-31796872D03*
X124090000Y-26360000D03*
X165058631Y-71755498D03*
X134874000Y-98806000D03*
X152400000Y-78486000D03*
X136630000Y-40870000D03*
X133096000Y-99060000D03*
X141046261Y-82064873D03*
X138590000Y-46650000D03*
X129286000Y-102870000D03*
X163196176Y-60349925D03*
X148316325Y-47242425D03*
X145335664Y-47111885D03*
X141195964Y-47035737D03*
X157970000Y-45420000D03*
X137260000Y-49410000D03*
X132806478Y-93955078D03*
X132820000Y-96110000D03*
X139787438Y-92615071D03*
X141060000Y-78050000D03*
X189420000Y-93770000D03*
X139980781Y-91838774D03*
X141859843Y-78033600D03*
X188350000Y-92870000D03*
X137225930Y-87960172D03*
X139890000Y-78050000D03*
X137644189Y-89962072D03*
X136059988Y-72114429D03*
X131880000Y-46200000D03*
X173344234Y-69713470D03*
X136710000Y-67700000D03*
X140907774Y-68359030D03*
X172604600Y-73407898D03*
X142353098Y-73860422D03*
X171354589Y-72605755D03*
X141335314Y-74068034D03*
X169493351Y-74012138D03*
X120040000Y-75560000D03*
X120040000Y-76840000D03*
X167590000Y-75230000D03*
X168600114Y-75233580D03*
X146763681Y-74555010D03*
X164629867Y-75471476D03*
X163150000Y-66240000D03*
X161857080Y-65914989D03*
X161103344Y-65464978D03*
X112670000Y-105970000D03*
X114868467Y-97555031D03*
X118380000Y-98990000D03*
X158710000Y-97920000D03*
X157750000Y-56470000D03*
X145899260Y-51683449D03*
X134940022Y-45135173D03*
X134872062Y-47108213D03*
X144068607Y-52795577D03*
X132158017Y-47672638D03*
X129410000Y-42990000D03*
X124740000Y-40540000D03*
X155730000Y-71755498D03*
X144842663Y-51799433D03*
X137388051Y-51811949D03*
X144840000Y-39370000D03*
X142990000Y-37530000D03*
X129670000Y-28910000D03*
X129630000Y-27150000D03*
X148381350Y-48229033D03*
X148830000Y-32830000D03*
X157950000Y-58390000D03*
X158380000Y-71010000D03*
X134737873Y-66107874D03*
X132150000Y-53670000D03*
X134060000Y-37770000D03*
X124791948Y-39258052D03*
X141249988Y-51171990D03*
X118274773Y-58469633D03*
X119694118Y-58062521D03*
X136084990Y-57875010D03*
X134948443Y-55303960D03*
X120231741Y-57384532D03*
X118423416Y-57683551D03*
X129930000Y-92980000D03*
X147574000Y-77470000D03*
X129098432Y-64173212D03*
X119940000Y-50690000D03*
X143238701Y-69248322D03*
X128310811Y-57406519D03*
X126240000Y-53620000D03*
X132344612Y-65039698D03*
X131080000Y-53460000D03*
X122184184Y-75364080D03*
X121290012Y-76990000D03*
X173418170Y-74801039D03*
X180725001Y-82884271D03*
X144350000Y-74140000D03*
X174481901Y-55269535D03*
X141503833Y-67598959D03*
X175573504Y-54756479D03*
X140439555Y-66964919D03*
X178100000Y-57600000D03*
X177000000Y-58600000D03*
X181406039Y-77213961D03*
X166776296Y-55807635D03*
X141715912Y-55834651D03*
X149052204Y-49152994D03*
X146258281Y-49347044D03*
X145785459Y-50690239D03*
X170653710Y-73965273D03*
X143145238Y-73972377D03*
X167751817Y-68473966D03*
X148510216Y-56847951D03*
X146935776Y-76987621D03*
X140290846Y-91046393D03*
X141442583Y-64905699D03*
X168048528Y-61294979D03*
X141442583Y-65976364D03*
X167654473Y-61995523D03*
X149399586Y-52330000D03*
X149734668Y-56189988D03*
X117399264Y-81075000D03*
X116100000Y-80200000D03*
X117399264Y-80150000D03*
X116100000Y-81025000D03*
D42*
X163050000Y-63375000D02*
X164972342Y-63375000D01*
X163050000Y-63375000D02*
X162550000Y-63375000D01*
X162175000Y-63750000D02*
X160725000Y-63750000D01*
X162550000Y-63375000D02*
X162175000Y-63750000D01*
X160725000Y-63750000D02*
X159700000Y-63750000D01*
X164972342Y-63375000D02*
X165213703Y-63133639D01*
X151620000Y-48260000D02*
X152000470Y-48640470D01*
X152000470Y-48640470D02*
X152000470Y-49624530D01*
X150270198Y-48260000D02*
X151620000Y-48260000D01*
X150600000Y-51025000D02*
X152000470Y-49624530D01*
X150270198Y-48260000D02*
X149677205Y-48852993D01*
X149677205Y-48852993D02*
X149677205Y-49452995D01*
X149677205Y-49452995D02*
X149399586Y-49730614D01*
X149399586Y-49730614D02*
X149399586Y-51050000D01*
X144000000Y-51025000D02*
X144116355Y-51025000D01*
X144116355Y-51025000D02*
X144763901Y-50377454D01*
X145304707Y-49845371D02*
X145304707Y-49636026D01*
X144763901Y-50377454D02*
X144772624Y-50377454D01*
X144772624Y-50377454D02*
X145304707Y-49845371D01*
X127237000Y-90170000D02*
X118628000Y-90170000D01*
X118628000Y-90170000D02*
X117978000Y-90820000D01*
X117978000Y-90820000D02*
X116000000Y-90820000D01*
D43*
X127237000Y-90170000D02*
X127237001Y-89519999D01*
X127237001Y-89519999D02*
X128067000Y-88690000D01*
X128067000Y-88690000D02*
X134120000Y-88690000D01*
X134120000Y-88690000D02*
X135880000Y-90450000D01*
X135880000Y-90450000D02*
X135880000Y-92560000D01*
X153162000Y-93963000D02*
X149253000Y-93963000D01*
X149253000Y-93963000D02*
X149220000Y-93930000D01*
D42*
X137224980Y-58699980D02*
X135125020Y-58699980D01*
X138300000Y-58750000D02*
X137275000Y-58750000D01*
X137275000Y-58750000D02*
X137224980Y-58699980D01*
X135125020Y-58699980D02*
X135025000Y-58800000D01*
X143443606Y-53095578D02*
X143750000Y-53401972D01*
X143443606Y-51631394D02*
X143443606Y-53095578D01*
X144000000Y-51025000D02*
X144000000Y-51075000D01*
X143750000Y-53401972D02*
X143750000Y-54300000D01*
X144000000Y-51075000D02*
X143443606Y-51631394D01*
X135127385Y-58092706D02*
X135315166Y-58092706D01*
X135025000Y-58195091D02*
X135127385Y-58092706D01*
X136130584Y-70250000D02*
X135600584Y-70780000D01*
X134424247Y-69983592D02*
X133999983Y-69983592D01*
X138300000Y-70250000D02*
X136130584Y-70250000D01*
X135185000Y-70744345D02*
X134424247Y-69983592D01*
X135185000Y-70780000D02*
X135185000Y-70744345D01*
X135600584Y-70780000D02*
X135185000Y-70780000D01*
X129920000Y-57370000D02*
X129920000Y-57470000D01*
X134749909Y-57920000D02*
X135025000Y-58195091D01*
X130370000Y-57920000D02*
X134749909Y-57920000D01*
X129920000Y-57470000D02*
X130370000Y-57920000D01*
X135880000Y-92560000D02*
X135880000Y-83080000D01*
X135880000Y-83080000D02*
X135700000Y-82900000D01*
X135700000Y-82900000D02*
X143360002Y-82900000D01*
X143360002Y-82900000D02*
X147024004Y-79235998D01*
X147024004Y-79235998D02*
X147024004Y-78945000D01*
D43*
X155956000Y-93980000D02*
X153179000Y-93980000D01*
X153179000Y-93980000D02*
X153162000Y-93963000D01*
D42*
X145630000Y-78945000D02*
X145130000Y-78945000D01*
X148250000Y-77719004D02*
X147024004Y-78945000D01*
X148250000Y-75700000D02*
X148250000Y-77719004D01*
X147024004Y-78945000D02*
X145630000Y-78945000D01*
X138300000Y-73250000D02*
X135190000Y-73250000D01*
X135190000Y-73250000D02*
X135070000Y-73370000D01*
X134972683Y-72392920D02*
X134672684Y-72092921D01*
X135070000Y-72490237D02*
X134972683Y-72392920D01*
X135070000Y-73370000D02*
X135070000Y-72490237D01*
X135070000Y-73370000D02*
X135070000Y-72870000D01*
X155350000Y-78505000D02*
X155761962Y-78916962D01*
X155761962Y-78916962D02*
X157697466Y-78916962D01*
X157697466Y-78916962D02*
X157997465Y-78616963D01*
X154250000Y-75700000D02*
X154250000Y-76982824D01*
X154250000Y-76982824D02*
X155350000Y-78082824D01*
X155350000Y-78082824D02*
X155350000Y-78505000D01*
X135025000Y-58800000D02*
X135025000Y-58195091D01*
X135165000Y-63250000D02*
X135165000Y-64285000D01*
X135165000Y-64285000D02*
X135130000Y-64320000D01*
X162800000Y-68470000D02*
X162800000Y-69235000D01*
X162800000Y-69235000D02*
X162845000Y-69280000D01*
X162800000Y-68470000D02*
X162800000Y-67605000D01*
X162800000Y-67605000D02*
X162795000Y-67600000D01*
X162845000Y-69280000D02*
X162295000Y-69280000D01*
X162295000Y-69280000D02*
X161825000Y-69750000D01*
X161825000Y-69750000D02*
X160725000Y-69750000D01*
X160725000Y-69750000D02*
X159700000Y-69750000D01*
X159700000Y-68250000D02*
X159700000Y-67750000D01*
X162890000Y-67695000D02*
X162795000Y-67600000D01*
X135165000Y-63250000D02*
X138300000Y-63250000D01*
X159700000Y-67750000D02*
X162645000Y-67750000D01*
X162645000Y-67750000D02*
X162795000Y-67600000D01*
X150600000Y-51025000D02*
X150600000Y-51575000D01*
X150750000Y-51725000D02*
X150750000Y-53275000D01*
X150600000Y-51575000D02*
X150750000Y-51725000D01*
X150750000Y-53275000D02*
X150750000Y-54300000D01*
X150600000Y-48913970D02*
X150610000Y-48903970D01*
X150600000Y-49975000D02*
X150600000Y-48913970D01*
X138300000Y-62250000D02*
X138300000Y-62750000D01*
X172045000Y-56070000D02*
X173270000Y-56070000D01*
X172045000Y-56070000D02*
X172045000Y-56570000D01*
X172045000Y-56570000D02*
X172050000Y-56575000D01*
X172050000Y-56575000D02*
X172050000Y-56850000D01*
X133250000Y-45400000D02*
X132390975Y-44540975D01*
X133900000Y-45400000D02*
X133250000Y-45400000D01*
X132390975Y-44540975D02*
X132131655Y-44540975D01*
X127815000Y-40910000D02*
X128860000Y-40910000D01*
X128860000Y-40910000D02*
X129280000Y-40490000D01*
D43*
X124940000Y-92980000D02*
X124765018Y-93154982D01*
X126558000Y-92980000D02*
X124940000Y-92980000D01*
D42*
X105000000Y-62270000D02*
X106270000Y-62270000D01*
D43*
X116000000Y-92730000D02*
X115450000Y-92730000D01*
X115450000Y-92730000D02*
X114460000Y-91740000D01*
D42*
X173220000Y-62840000D02*
X173220000Y-64290000D01*
X173220000Y-64290000D02*
X173170000Y-64340000D01*
X172050000Y-56850000D02*
X172050000Y-58285000D01*
X172050000Y-58285000D02*
X171845000Y-58490000D01*
X171845000Y-58490000D02*
X172495000Y-58490000D01*
X172050000Y-56850000D02*
X172600000Y-56850000D01*
X172600000Y-56850000D02*
X173220000Y-57470000D01*
X173220000Y-57470000D02*
X173220000Y-58490000D01*
D43*
X143120000Y-96230000D02*
X145490000Y-96230000D01*
X145490000Y-96230000D02*
X145510000Y-96250000D01*
X149220000Y-96230000D02*
X147580000Y-96230000D01*
X147580000Y-96230000D02*
X147560000Y-96250000D01*
D42*
X142000000Y-49975000D02*
X142500000Y-49975000D01*
X142500000Y-49975000D02*
X142993595Y-50468595D01*
X142993595Y-50468595D02*
X142993595Y-53031405D01*
X142993595Y-53031405D02*
X142750000Y-53275000D01*
X142750000Y-53275000D02*
X142750000Y-54300000D01*
X142670298Y-49254702D02*
X142670298Y-49180335D01*
X142000000Y-49925000D02*
X142670298Y-49254702D01*
X142000000Y-49975000D02*
X142000000Y-49925000D01*
X142670298Y-49180335D02*
X142670298Y-48756071D01*
X139635000Y-47810000D02*
X139635000Y-49094643D01*
X139635000Y-49094643D02*
X139600894Y-49128749D01*
X133434826Y-62619826D02*
X133135264Y-62619826D01*
X134065000Y-63250000D02*
X133434826Y-62619826D01*
X134115000Y-63250000D02*
X134065000Y-63250000D01*
X138300000Y-59250000D02*
X135710002Y-59250000D01*
X134050001Y-59375001D02*
X133975000Y-59300000D01*
X133975000Y-59300000D02*
X133975000Y-58800000D01*
X135585001Y-59375001D02*
X134050001Y-59375001D01*
X135710002Y-59250000D02*
X135585001Y-59375001D01*
X142993595Y-54043595D02*
X142993595Y-50481405D01*
X142993595Y-50481405D02*
X143500000Y-49975000D01*
X143250000Y-54300000D02*
X142993595Y-54043595D01*
X134480001Y-69415001D02*
X134105000Y-69040000D01*
X134105000Y-69040000D02*
X134105000Y-68540000D01*
X136420004Y-69250000D02*
X136255003Y-69415001D01*
X136255003Y-69415001D02*
X134480001Y-69415001D01*
X138300000Y-69250000D02*
X136420004Y-69250000D01*
X127850000Y-53600000D02*
X128520000Y-53600000D01*
X128520000Y-53600000D02*
X128550000Y-53630000D01*
X133358867Y-68540000D02*
X133239433Y-68420566D01*
X134105000Y-68540000D02*
X133358867Y-68540000D01*
X122685059Y-50250000D02*
X122718827Y-50283768D01*
X121700000Y-50250000D02*
X122685059Y-50250000D01*
X143735010Y-49232398D02*
X143735010Y-48808134D01*
X143500000Y-49975000D02*
X143735010Y-49739990D01*
X144000000Y-49975000D02*
X143500000Y-49975000D01*
X143735010Y-49739990D02*
X143735010Y-49232398D01*
X134125000Y-61570000D02*
X132980000Y-61570000D01*
X132980000Y-61570000D02*
X132970000Y-61580000D01*
X111475000Y-70136541D02*
X111497067Y-70158608D01*
X111475000Y-69000000D02*
X111475000Y-70136541D01*
X105000000Y-61000000D02*
X106230000Y-61000000D01*
X106230000Y-61000000D02*
X106270000Y-61040000D01*
X142991319Y-81389239D02*
X142691320Y-81689238D01*
X144630000Y-79995000D02*
X144385558Y-79995000D01*
X144385558Y-79995000D02*
X142991319Y-81389239D01*
X142149711Y-81275289D02*
X141952924Y-81275289D01*
X143375000Y-80050000D02*
X142149711Y-81275289D01*
X143375000Y-80000000D02*
X143375000Y-80050000D01*
X134020000Y-74013988D02*
X134135010Y-74128998D01*
X134020000Y-73870000D02*
X134020000Y-74013988D01*
X134020000Y-73370000D02*
X134020000Y-73870000D01*
D43*
X128287000Y-90170000D02*
X129470000Y-90170000D01*
X129470000Y-90170000D02*
X129480000Y-90160000D01*
D42*
X120065000Y-103270000D02*
X121270000Y-103270000D01*
X121270000Y-103270000D02*
X121280000Y-103260000D01*
D43*
X153162000Y-95013000D02*
X153162000Y-96266000D01*
X136780000Y-92560000D02*
X137830000Y-92560000D01*
D42*
X145130000Y-79995000D02*
X144630000Y-79995000D01*
X138300000Y-70750000D02*
X137275000Y-70750000D01*
X136669999Y-71355001D02*
X134210001Y-71355001D01*
X137275000Y-70750000D02*
X136669999Y-71355001D01*
X134210001Y-71355001D02*
X134135000Y-71280000D01*
X134135000Y-71280000D02*
X134135000Y-70780000D01*
X145250000Y-75700000D02*
X145250000Y-77161410D01*
X145250000Y-77161410D02*
X144554999Y-77856411D01*
X144554999Y-77856411D02*
X144554999Y-79919999D01*
X144554999Y-79919999D02*
X144630000Y-79995000D01*
X164967119Y-67600000D02*
X165091002Y-67476117D01*
X163845000Y-67600000D02*
X164967119Y-67600000D01*
X153959004Y-80364004D02*
X154241744Y-80364004D01*
X153300000Y-79705000D02*
X153959004Y-80364004D01*
X153300000Y-79655000D02*
X153300000Y-79705000D01*
X164002859Y-70690000D02*
X165575816Y-69117043D01*
X163885000Y-71190000D02*
X163885000Y-70690000D01*
X163885000Y-70690000D02*
X164002859Y-70690000D01*
X163895000Y-69280000D02*
X163945000Y-69280000D01*
X163945000Y-69280000D02*
X164618222Y-68606778D01*
X165575816Y-69117043D02*
X165875815Y-68817044D01*
X164618222Y-68606778D02*
X165005360Y-68606778D01*
X164290641Y-57370000D02*
X164501194Y-57159447D01*
X163485000Y-57370000D02*
X164290641Y-57370000D01*
X156750000Y-75700000D02*
X156750000Y-77159347D01*
X156750000Y-77159347D02*
X156817223Y-77226570D01*
X150250000Y-75700000D02*
X150250000Y-77230311D01*
X150250000Y-77230311D02*
X150546842Y-77527153D01*
X164603987Y-58551013D02*
X164603987Y-58381605D01*
X163505000Y-59600000D02*
X163555000Y-59600000D01*
X163555000Y-59600000D02*
X164603987Y-58551013D01*
X155350000Y-79555000D02*
X155350000Y-80491747D01*
X155350000Y-80491747D02*
X155357698Y-80499445D01*
X150250000Y-53275000D02*
X150250000Y-54300000D01*
X150024999Y-50050001D02*
X150024999Y-52928586D01*
X150600000Y-49975000D02*
X150100000Y-49975000D01*
X150250000Y-53153587D02*
X150250000Y-53275000D01*
X150024999Y-52928586D02*
X150250000Y-53153587D01*
X150100000Y-49975000D02*
X150024999Y-50050001D01*
X163769999Y-67024999D02*
X163845000Y-67100000D01*
X162116410Y-67250000D02*
X162341411Y-67024999D01*
X162341411Y-67024999D02*
X163769999Y-67024999D01*
X163845000Y-67100000D02*
X163845000Y-67600000D01*
X159700000Y-67250000D02*
X162116410Y-67250000D01*
X159700000Y-70250000D02*
X163425000Y-70250000D01*
X163425000Y-70250000D02*
X163895000Y-69780000D01*
X163895000Y-69780000D02*
X163895000Y-69280000D01*
X159700000Y-68750000D02*
X158675000Y-68750000D01*
X158675000Y-68750000D02*
X158599999Y-68674999D01*
X158599999Y-68674999D02*
X158599999Y-67325001D01*
X158599999Y-67325001D02*
X158675000Y-67250000D01*
X158675000Y-67250000D02*
X159700000Y-67250000D01*
X129770000Y-49550000D02*
X129770000Y-48660000D01*
X127170000Y-48180000D02*
X127170000Y-47240000D01*
X127170000Y-47240000D02*
X127140000Y-47210000D01*
X138300000Y-62750000D02*
X137675000Y-62750000D01*
X137675000Y-62750000D02*
X137275000Y-62350000D01*
X137275000Y-62350000D02*
X134515000Y-62350000D01*
X134515000Y-62350000D02*
X134115000Y-62750000D01*
X134115000Y-62750000D02*
X134115000Y-63250000D01*
X134135000Y-70780000D02*
X133110000Y-70780000D01*
X133110000Y-70780000D02*
X133100000Y-70790000D01*
X138300000Y-73750000D02*
X137275000Y-73750000D01*
X134095001Y-73945001D02*
X134020000Y-73870000D01*
X137275000Y-73750000D02*
X137079999Y-73945001D01*
X137079999Y-73945001D02*
X134095001Y-73945001D01*
X154510000Y-78040000D02*
X154510000Y-79215000D01*
X154510000Y-79215000D02*
X154850000Y-79555000D01*
X154850000Y-79555000D02*
X155350000Y-79555000D01*
X153750000Y-77280000D02*
X154510000Y-78040000D01*
X153750000Y-75700000D02*
X153750000Y-77280000D01*
X153250000Y-75700000D02*
X153250000Y-77419998D01*
X153250000Y-77419998D02*
X153875001Y-78044999D01*
X153875001Y-79579999D02*
X153800000Y-79655000D01*
X153875001Y-78044999D02*
X153875001Y-79579999D01*
X153800000Y-79655000D02*
X153300000Y-79655000D01*
X163885000Y-70690000D02*
X163809999Y-70614999D01*
X163809999Y-70614999D02*
X160860001Y-70614999D01*
X160860001Y-70614999D02*
X160725000Y-70750000D01*
X160725000Y-70750000D02*
X159700000Y-70750000D01*
X133975000Y-58800000D02*
X133000000Y-58800000D01*
X163050000Y-64425000D02*
X164035000Y-64425000D01*
X164035000Y-64425000D02*
X164040000Y-64420000D01*
X159700000Y-64250000D02*
X162875000Y-64250000D01*
X162875000Y-64250000D02*
X163050000Y-64425000D01*
X159700000Y-58750000D02*
X163155000Y-58750000D01*
X163155000Y-58750000D02*
X163505000Y-59100000D01*
X163505000Y-59100000D02*
X163505000Y-59600000D01*
X159700000Y-58250000D02*
X163105000Y-58250000D01*
X163105000Y-58250000D02*
X163485000Y-57870000D01*
X163485000Y-57870000D02*
X163485000Y-57370000D01*
X148755000Y-40950000D02*
X150050000Y-40950000D01*
X150050000Y-40950000D02*
X150060000Y-40940000D01*
X148905000Y-37780000D02*
X148905000Y-40800000D01*
X148905000Y-40800000D02*
X148755000Y-40950000D01*
X138845000Y-40850000D02*
X140240000Y-40850000D01*
X140240000Y-40850000D02*
X140280000Y-40810000D01*
X138905000Y-37780000D02*
X138905000Y-40790000D01*
X138905000Y-40790000D02*
X138845000Y-40850000D01*
X127905000Y-37880000D02*
X127905000Y-40820000D01*
X127905000Y-40820000D02*
X127815000Y-40910000D01*
X119760000Y-37110000D02*
X119760000Y-38240000D01*
X119750000Y-36025000D02*
X119750000Y-37100000D01*
X119750000Y-37100000D02*
X119760000Y-37110000D01*
X122750000Y-61025000D02*
X121455000Y-61025000D01*
X121455000Y-61025000D02*
X121450000Y-61020000D01*
X110809885Y-55984885D02*
X110809885Y-55749348D01*
X112250000Y-56475000D02*
X111300000Y-56475000D01*
X111300000Y-56475000D02*
X110809885Y-55984885D01*
D43*
X110210000Y-76105000D02*
X110745000Y-76105000D01*
X110745000Y-76105000D02*
X111880000Y-74970000D01*
D42*
X119930000Y-85167382D02*
X119993505Y-85230887D01*
X119930000Y-83183000D02*
X119930000Y-85167382D01*
D43*
X158248001Y-100941999D02*
X159010000Y-100180000D01*
X148941457Y-102870000D02*
X149113469Y-102697988D01*
X149113469Y-102697988D02*
X156492012Y-102697988D01*
X145050000Y-102870000D02*
X148941457Y-102870000D01*
X156492012Y-102697988D02*
X158248001Y-100941999D01*
X183190000Y-104450000D02*
X176090000Y-104450000D01*
X175360000Y-103720000D02*
X175360000Y-102520000D01*
X176090000Y-104450000D02*
X175360000Y-103720000D01*
X159010000Y-100180000D02*
X164871000Y-100180000D01*
X164871000Y-100180000D02*
X164958000Y-100093000D01*
X141732000Y-103632000D02*
X144288000Y-103632000D01*
X144288000Y-103632000D02*
X145050000Y-102870000D01*
D42*
X111000000Y-82775000D02*
X111000000Y-83800000D01*
X111000000Y-78375000D02*
X111000000Y-77300000D01*
X119295000Y-76844711D02*
X118848520Y-76398231D01*
X118848520Y-76398231D02*
X118548521Y-76098232D01*
X119295000Y-78230000D02*
X119295000Y-76844711D01*
X109367534Y-82600000D02*
X109377085Y-82609551D01*
X107050000Y-82600000D02*
X109367534Y-82600000D01*
X115575000Y-85880000D02*
X114450000Y-85880000D01*
D43*
X164958000Y-100093000D02*
X165608000Y-100093000D01*
X165608000Y-100093000D02*
X165608000Y-102658000D01*
X165608000Y-102658000D02*
X165640000Y-102690000D01*
X169260000Y-102520000D02*
X165810000Y-102520000D01*
X165810000Y-102520000D02*
X165640000Y-102690000D01*
X175360000Y-102520000D02*
X169260000Y-102520000D01*
D42*
X176970000Y-66600000D02*
X175800000Y-66600000D01*
X176950000Y-64500000D02*
X175900000Y-64500000D01*
X175900000Y-64500000D02*
X175800000Y-64400000D01*
D43*
X118660000Y-83183000D02*
X119295000Y-83183000D01*
D42*
X118660000Y-83183000D02*
X118660000Y-83895000D01*
X118660000Y-83895000D02*
X116675000Y-85880000D01*
X116675000Y-85880000D02*
X116625000Y-85880000D01*
X119540000Y-87400000D02*
X118990000Y-87400000D01*
X118914999Y-87324999D02*
X118914999Y-84384501D01*
X118990000Y-87400000D02*
X118914999Y-87324999D01*
X118914999Y-84384501D02*
X119295000Y-84004500D01*
X119295000Y-84004500D02*
X119295000Y-83183000D01*
X119295000Y-82160000D02*
X119295000Y-82361500D01*
X119295000Y-80321500D02*
X119295000Y-82160000D01*
X119295000Y-82160000D02*
X118226500Y-82160000D01*
X118226500Y-82160000D02*
X118025000Y-82361500D01*
X118025000Y-82361500D02*
X118025000Y-83183000D01*
X120565000Y-78230000D02*
X120565000Y-79051500D01*
X120565000Y-79051500D02*
X119295000Y-80321500D01*
X119295000Y-82361500D02*
X119295000Y-83183000D01*
X127815001Y-74254999D02*
X127815001Y-74255001D01*
X127815001Y-74255001D02*
X128300000Y-74740000D01*
X123974999Y-74254999D02*
X127815001Y-74254999D01*
X127815001Y-74254999D02*
X128300000Y-73770000D01*
X124923501Y-75303501D02*
X124923501Y-75346058D01*
X124050000Y-74880000D02*
X124500000Y-74880000D01*
X124954618Y-77430000D02*
X124977567Y-77407051D01*
X124100000Y-77430000D02*
X124954618Y-77430000D01*
X124500000Y-74880000D02*
X124923501Y-75303501D01*
X119414999Y-74529999D02*
X119624999Y-74319999D01*
X119414999Y-75860001D02*
X119414999Y-74529999D01*
X119739999Y-76185001D02*
X119414999Y-75860001D01*
X120340001Y-76185001D02*
X119739999Y-76185001D01*
X120565000Y-77408500D02*
X120665002Y-77308498D01*
X118250000Y-74780000D02*
X118710001Y-74319999D01*
X120565000Y-78230000D02*
X120565000Y-77408500D01*
X118250000Y-74880000D02*
X118250000Y-74780000D01*
X118710001Y-74319999D02*
X118810001Y-74319999D01*
X120665002Y-77308498D02*
X120665002Y-76510002D01*
X118810001Y-74319999D02*
X119260001Y-74319999D01*
X120665002Y-76510002D02*
X120340001Y-76185001D01*
X120565000Y-78230000D02*
X120516625Y-78230000D01*
X120516625Y-78230000D02*
X120464551Y-78282074D01*
X124050000Y-74880000D02*
X124050000Y-74330000D01*
X124050000Y-74330000D02*
X123974999Y-74254999D01*
X123974999Y-74254999D02*
X121502245Y-74254999D01*
X121502245Y-74254999D02*
X121050000Y-74707244D01*
X121050000Y-74707244D02*
X121050000Y-74880000D01*
X118200000Y-72880000D02*
X118650000Y-72880000D01*
X118650000Y-72880000D02*
X119260001Y-73490001D01*
X119260001Y-73490001D02*
X119260001Y-74319999D01*
X119260001Y-74319999D02*
X119624999Y-74319999D01*
X119624999Y-74319999D02*
X119689999Y-74254999D01*
X120524999Y-74254999D02*
X121050000Y-74780000D01*
X119689999Y-74254999D02*
X120524999Y-74254999D01*
X121050000Y-74780000D02*
X121050000Y-74880000D01*
X104500000Y-37319991D02*
X104500009Y-37320000D01*
X104500000Y-36450000D02*
X104500000Y-37319991D01*
X111800000Y-63500000D02*
X111190000Y-63500000D01*
X111190000Y-63500000D02*
X110390000Y-64300000D01*
X111800000Y-63500000D02*
X105040000Y-63500000D01*
X105040000Y-63500000D02*
X105000000Y-63540000D01*
X128100000Y-66425000D02*
X128100000Y-67470000D01*
X128100000Y-67470000D02*
X128090000Y-67480000D01*
X170995000Y-56070000D02*
X170810000Y-56070000D01*
X170810000Y-56070000D02*
X170130000Y-56750000D01*
X170995000Y-56070000D02*
X170995000Y-58365000D01*
X170995000Y-58365000D02*
X171120000Y-58490000D01*
X162929990Y-56375010D02*
X163039162Y-56375010D01*
X162435000Y-56870000D02*
X162929990Y-56375010D01*
X162435000Y-57370000D02*
X162435000Y-56870000D01*
X128100000Y-66425000D02*
X128000000Y-66425000D01*
X145095000Y-30700000D02*
X145095000Y-32135000D01*
X145095000Y-32135000D02*
X145110000Y-32150000D01*
X119141008Y-104128974D02*
X119441007Y-104428973D01*
X119015000Y-104002966D02*
X119141008Y-104128974D01*
X119015000Y-103270000D02*
X119015000Y-104002966D01*
D43*
X149220000Y-98530000D02*
X151060000Y-98530000D01*
X151060000Y-98530000D02*
X151080000Y-98550000D01*
D42*
X147067473Y-41537527D02*
X147067473Y-41924234D01*
X147705000Y-40950000D02*
X147655000Y-40950000D01*
X147655000Y-40950000D02*
X147067473Y-41537527D01*
X141033922Y-48706647D02*
X141033922Y-48282383D01*
X142000000Y-51025000D02*
X141033922Y-50058922D01*
X141033922Y-50058922D02*
X141033922Y-48706647D01*
X125890161Y-40085161D02*
X125890161Y-39914990D01*
X126715000Y-40910000D02*
X125890161Y-40085161D01*
X126765000Y-40910000D02*
X126715000Y-40910000D01*
X135901691Y-60893309D02*
X136049234Y-60893309D01*
X135225000Y-61570000D02*
X135901691Y-60893309D01*
X135175000Y-61570000D02*
X135225000Y-61570000D01*
X135487671Y-67674789D02*
X135787670Y-67374790D01*
X135155000Y-68007460D02*
X135487671Y-67674789D01*
X135155000Y-68540000D02*
X135155000Y-68007460D01*
X138300000Y-68750000D02*
X135365000Y-68750000D01*
X135365000Y-68750000D02*
X135155000Y-68540000D01*
X142250000Y-53275000D02*
X142250000Y-54300000D01*
X142500000Y-52556089D02*
X142250000Y-52806089D01*
X142000000Y-51025000D02*
X142000000Y-51075000D01*
X142250000Y-52806089D02*
X142250000Y-53275000D01*
X142500000Y-51575000D02*
X142500000Y-52556089D01*
X142000000Y-51075000D02*
X142500000Y-51575000D01*
X135095000Y-31786855D02*
X135105017Y-31796872D01*
X135095000Y-30700000D02*
X135095000Y-31786855D01*
X111760000Y-63540000D02*
X111800000Y-63500000D01*
X144550000Y-28000000D02*
X144550000Y-30155000D01*
X144550000Y-30155000D02*
X145095000Y-30700000D01*
X135550000Y-28000000D02*
X135550000Y-28550000D01*
X135550000Y-28550000D02*
X135095000Y-29005000D01*
X135095000Y-29005000D02*
X135095000Y-30700000D01*
X135550000Y-28000000D02*
X135550000Y-28100000D01*
X124100000Y-28000000D02*
X124100000Y-26370000D01*
X124100000Y-26370000D02*
X124090000Y-26360000D01*
X124095000Y-30800000D02*
X124095000Y-28005000D01*
X124095000Y-28005000D02*
X124100000Y-28000000D01*
X163700497Y-72055497D02*
X164758632Y-72055497D01*
X162835000Y-71190000D02*
X163700497Y-72055497D01*
X164758632Y-72055497D02*
X165058631Y-71755498D01*
X118943000Y-101006000D02*
X118943000Y-103198000D01*
X118943000Y-103198000D02*
X119015000Y-103270000D01*
D43*
X135128000Y-98552000D02*
X134874000Y-98806000D01*
X132842000Y-98806000D02*
X133096000Y-99060000D01*
X132842000Y-97986000D02*
X132842000Y-98806000D01*
D42*
X141046261Y-80778739D02*
X141046261Y-81640609D01*
X142875000Y-78950000D02*
X141046261Y-80778739D01*
X143375000Y-78950000D02*
X142875000Y-78950000D01*
X152519000Y-78605000D02*
X152400000Y-78486000D01*
X138300000Y-68750000D02*
X139189181Y-68750000D01*
X139189181Y-68750000D02*
X139400001Y-68960820D01*
X137635000Y-40690000D02*
X137795000Y-40850000D01*
X147635000Y-37780000D02*
X147635000Y-40880000D01*
X139325000Y-69750000D02*
X138300000Y-69750000D01*
X137635000Y-37780000D02*
X137635000Y-40690000D01*
X159700000Y-59250000D02*
X162105000Y-59250000D01*
X126635000Y-37880000D02*
X126635000Y-40780000D01*
X162775000Y-71250000D02*
X162835000Y-71190000D01*
X159700000Y-71250000D02*
X162775000Y-71250000D01*
X137795000Y-40850000D02*
X136650000Y-40850000D01*
X144750000Y-76725000D02*
X144750000Y-75700000D01*
X144750000Y-77025000D02*
X144750000Y-76725000D01*
D43*
X131266000Y-102870000D02*
X129286000Y-102870000D01*
D42*
X143375000Y-78400000D02*
X144750000Y-77025000D01*
X143375000Y-78950000D02*
X143375000Y-78400000D01*
X136650000Y-40850000D02*
X136630000Y-40870000D01*
X141046261Y-81640609D02*
X141046261Y-82064873D01*
X137275000Y-61750000D02*
X138300000Y-61750000D01*
X135725000Y-61570000D02*
X135905000Y-61750000D01*
D43*
X136202000Y-98552000D02*
X135128000Y-98552000D01*
D42*
X135905000Y-61750000D02*
X137275000Y-61750000D01*
X135175000Y-61570000D02*
X135725000Y-61570000D01*
X147635000Y-40880000D02*
X147705000Y-40950000D01*
X138575000Y-47800000D02*
X138585000Y-47810000D01*
X138585000Y-46655000D02*
X138590000Y-46650000D01*
X159700000Y-57750000D02*
X162055000Y-57750000D01*
X126635000Y-40780000D02*
X126765000Y-40910000D01*
X138585000Y-47810000D02*
X138585000Y-46655000D01*
X162455000Y-59600000D02*
X162455000Y-59608749D01*
X152750000Y-77573591D02*
X153300000Y-78123591D01*
X153300000Y-78605000D02*
X152519000Y-78605000D01*
X162105000Y-59250000D02*
X162455000Y-59600000D01*
X162896177Y-60049926D02*
X163196176Y-60349925D01*
X136100000Y-47800000D02*
X138575000Y-47800000D01*
X152750000Y-75700000D02*
X152750000Y-77573591D01*
X139400001Y-68960820D02*
X139400001Y-69674999D01*
X162055000Y-57750000D02*
X162435000Y-57370000D01*
X153300000Y-78123591D02*
X153300000Y-78605000D01*
X162455000Y-59608749D02*
X162896177Y-60049926D01*
X139400001Y-69674999D02*
X139325000Y-69750000D01*
D43*
X122330000Y-97329998D02*
X121369999Y-98289999D01*
X122330000Y-96590000D02*
X122330000Y-97329998D01*
X129387569Y-100920000D02*
X125343502Y-100920000D01*
X125343502Y-100920000D02*
X124000000Y-100920000D01*
X129892546Y-100415023D02*
X129387569Y-100920000D01*
X144695023Y-100415023D02*
X129892546Y-100415023D01*
X147050000Y-101920000D02*
X146200000Y-101920000D01*
X146200000Y-101920000D02*
X144695023Y-100415023D01*
X117643000Y-98710998D02*
X117643000Y-99730000D01*
X118063999Y-98289999D02*
X117643000Y-98710998D01*
X119173995Y-98289999D02*
X118063999Y-98289999D01*
X119783998Y-98900002D02*
X119173995Y-98289999D01*
X120759996Y-98900002D02*
X119783998Y-98900002D01*
X121369999Y-98289999D02*
X120759996Y-98900002D01*
X124000000Y-100920000D02*
X121369999Y-98289999D01*
X117643000Y-97731000D02*
X117643000Y-99730000D01*
X117643000Y-99730000D02*
X117643000Y-101006000D01*
X124200000Y-100720000D02*
X124000000Y-100920000D01*
X117643000Y-96606000D02*
X117643000Y-97731000D01*
X112014000Y-103574000D02*
X110806000Y-103574000D01*
X110806000Y-103574000D02*
X109983645Y-102751645D01*
X109983645Y-102751645D02*
X109983645Y-97870355D01*
X109983645Y-97870355D02*
X110810000Y-97044000D01*
X112576000Y-103574000D02*
X112014000Y-103574000D01*
X115144000Y-101006000D02*
X112576000Y-103574000D01*
X117643000Y-101006000D02*
X115144000Y-101006000D01*
X120038542Y-94129999D02*
X131969586Y-94129999D01*
X105529999Y-69959999D02*
X103691999Y-69959999D01*
X106880000Y-71310000D02*
X105529999Y-69959999D01*
X103691999Y-69959999D02*
X102989999Y-70661999D01*
X103337999Y-83757761D02*
X103730000Y-84149762D01*
X152384000Y-97084000D02*
X162999000Y-97084000D01*
X162999000Y-97084000D02*
X164958000Y-99043000D01*
X102989999Y-70661999D02*
X102989999Y-75019997D01*
X131969586Y-94129999D02*
X132494667Y-94655080D01*
X102989999Y-75019997D02*
X103337999Y-75367997D01*
X103337999Y-75367997D02*
X103337999Y-83757761D01*
X103730000Y-84149762D02*
X103730000Y-89630000D01*
X103730000Y-89630000D02*
X107929989Y-93829989D01*
X132494667Y-94655080D02*
X137466919Y-94655079D01*
X119738532Y-93829989D02*
X120038542Y-94129999D01*
X107929989Y-93829989D02*
X119738532Y-93829989D01*
X137466919Y-94655079D02*
X138471999Y-93649999D01*
X138471999Y-93649999D02*
X145029999Y-93649999D01*
X145029999Y-93649999D02*
X146609999Y-95229999D01*
X146609999Y-95229999D02*
X150529999Y-95229999D01*
X150529999Y-95229999D02*
X152384000Y-97084000D01*
X164958000Y-99043000D02*
X165608000Y-99043000D01*
X169260000Y-100220000D02*
X168260000Y-100220000D01*
X168260000Y-100220000D02*
X167083000Y-99043000D01*
X167083000Y-99043000D02*
X166258000Y-99043000D01*
X166258000Y-99043000D02*
X165608000Y-99043000D01*
D42*
X145000000Y-88000000D02*
X145000000Y-83425000D01*
X145000000Y-83425000D02*
X146425000Y-82000000D01*
X146425000Y-82000000D02*
X146475000Y-82000000D01*
X148750000Y-75700000D02*
X148750000Y-79225000D01*
X148750000Y-79225000D02*
X146475000Y-81500000D01*
X146475000Y-81500000D02*
X146475000Y-82000000D01*
X149250000Y-80425000D02*
X149250000Y-80430000D01*
X149250000Y-80430000D02*
X147680000Y-82000000D01*
X147680000Y-82000000D02*
X147525000Y-82000000D01*
X149250000Y-75700000D02*
X149250000Y-80425000D01*
X149250000Y-80425000D02*
X150825000Y-82000000D01*
X150825000Y-82000000D02*
X150875000Y-82000000D01*
X149780150Y-79200150D02*
X151925000Y-81345000D01*
X151925000Y-81345000D02*
X151925000Y-82000000D01*
X149750000Y-79200150D02*
X149780150Y-79200150D01*
X149750000Y-75700000D02*
X149750000Y-79200150D01*
X153500000Y-88000000D02*
X153500000Y-83530000D01*
X153500000Y-83530000D02*
X152760000Y-82790000D01*
X152760000Y-82790000D02*
X152760000Y-82785000D01*
X152760000Y-82785000D02*
X151975000Y-82000000D01*
X151975000Y-82000000D02*
X151925000Y-82000000D01*
X136835736Y-49410000D02*
X137260000Y-49410000D01*
X135374999Y-48927863D02*
X135374999Y-49110001D01*
X133900000Y-47800000D02*
X134247136Y-47800000D01*
X135674998Y-49410000D02*
X136835736Y-49410000D01*
X135374999Y-49110001D02*
X135674998Y-49410000D01*
X134247136Y-47800000D02*
X135374999Y-48927863D01*
X148616324Y-46942426D02*
X148316325Y-47242425D01*
X150138750Y-45420000D02*
X148616324Y-46942426D01*
X157970000Y-45420000D02*
X150138750Y-45420000D01*
X145259516Y-47035737D02*
X145335664Y-47111885D01*
X141195964Y-47035737D02*
X145259516Y-47035737D01*
X165000000Y-40000000D02*
X165000000Y-45000000D01*
X108500000Y-39960000D02*
X109870000Y-41330000D01*
X109870000Y-41330000D02*
X109870000Y-50600000D01*
X109870000Y-50600000D02*
X111170001Y-51900001D01*
X123474999Y-51734999D02*
X123309997Y-51900001D01*
X123309997Y-51900001D02*
X111170001Y-51900001D01*
X124300000Y-49300000D02*
X123550000Y-49300000D01*
X123550000Y-49300000D02*
X123474999Y-49375001D01*
X123474999Y-49375001D02*
X123474999Y-51734999D01*
X124300000Y-49300000D02*
X127100000Y-49300000D01*
X127100000Y-49300000D02*
X127170000Y-49230000D01*
X112700000Y-63500000D02*
X112700000Y-68825000D01*
X112700000Y-68825000D02*
X112525000Y-69000000D01*
X112700000Y-63500000D02*
X113150000Y-63500000D01*
X138300000Y-59750000D02*
X135846413Y-59750000D01*
X135771401Y-59825012D02*
X116824988Y-59825012D01*
X116824988Y-59825012D02*
X113150000Y-63500000D01*
X135846413Y-59750000D02*
X135771401Y-59825012D01*
X112525000Y-69000000D02*
X118225000Y-69000000D01*
X118225000Y-69000000D02*
X118250000Y-68975000D01*
X112550000Y-68975000D02*
X112525000Y-69000000D01*
D43*
X110210000Y-75055000D02*
X108085000Y-75055000D01*
X108085000Y-75055000D02*
X104340000Y-71310000D01*
X104340000Y-71310000D02*
X104340000Y-76810002D01*
X104340000Y-76810002D02*
X105662001Y-78132003D01*
X105662001Y-78132003D02*
X105672003Y-78132003D01*
X105672003Y-78132003D02*
X106940000Y-79400000D01*
X106940000Y-79400000D02*
X107050000Y-79400000D01*
D42*
X133000000Y-92800000D02*
X133000000Y-93761556D01*
X133000000Y-93761556D02*
X132806478Y-93955078D01*
X132820000Y-96110000D02*
X132820000Y-97064000D01*
X132820000Y-97064000D02*
X132842000Y-97086000D01*
D43*
X118000000Y-91780000D02*
X132420000Y-91780000D01*
X132420000Y-91780000D02*
X133000000Y-91200000D01*
X137102000Y-98140000D02*
X139192000Y-96050000D01*
X137102000Y-98552000D02*
X137102000Y-98140000D01*
D42*
X137811910Y-95180090D02*
X138542000Y-94450000D01*
X127508000Y-94980000D02*
X132077111Y-94980000D01*
X138542000Y-94450000D02*
X139192000Y-94450000D01*
X132077111Y-94980000D02*
X132277202Y-95180090D01*
X132277202Y-95180090D02*
X137811910Y-95180090D01*
X119540000Y-86500000D02*
X119640000Y-86500000D01*
X119640000Y-86500000D02*
X120170000Y-85970000D01*
X120170000Y-85970000D02*
X120170000Y-85910000D01*
X121890000Y-85910000D02*
X120170000Y-85910000D01*
X120565000Y-83183000D02*
X120565000Y-84004500D01*
X120565000Y-84004500D02*
X121365609Y-84805109D01*
X121365609Y-84805109D02*
X123035109Y-84805109D01*
X123035109Y-84805109D02*
X123490000Y-85260000D01*
X123490000Y-85260000D02*
X123490000Y-85910000D01*
X117300000Y-72880000D02*
X114300000Y-72880000D01*
X114300000Y-72880000D02*
X114200000Y-72780000D01*
X114850000Y-74380000D02*
X117985707Y-77515707D01*
X117985707Y-77515707D02*
X117985707Y-78190707D01*
X114200000Y-74380000D02*
X114850000Y-74380000D01*
X117985707Y-78190707D02*
X118025000Y-78230000D01*
X172590000Y-61270000D02*
X179800000Y-61270000D01*
X179800000Y-61270000D02*
X181973777Y-61270000D01*
X177850000Y-64500000D02*
X178300000Y-64500000D01*
X179800000Y-63000000D02*
X179800000Y-61270000D01*
X178300000Y-64500000D02*
X179800000Y-63000000D01*
X171845000Y-62840000D02*
X171845000Y-62015000D01*
X171845000Y-62015000D02*
X172590000Y-61270000D01*
X181973777Y-61270000D02*
X183190000Y-61270000D01*
X189420000Y-93770000D02*
X187714999Y-95475001D01*
X187714999Y-95475001D02*
X172772082Y-95475001D01*
X140211702Y-92615071D02*
X139787438Y-92615071D01*
X172772082Y-95475001D02*
X169700824Y-92403743D01*
X169700824Y-92403743D02*
X140423030Y-92403743D01*
X140423030Y-92403743D02*
X140211702Y-92615071D01*
X141060000Y-78050000D02*
X141250000Y-77860000D01*
X141250000Y-77860000D02*
X141250000Y-75700000D01*
X172705000Y-65250000D02*
X179000000Y-65250000D01*
X179000000Y-65250000D02*
X181750000Y-65250000D01*
X177870000Y-66600000D02*
X178320000Y-66600000D01*
X178320000Y-66600000D02*
X179000000Y-65920000D01*
X179000000Y-65920000D02*
X179000000Y-65250000D01*
X181750000Y-65250000D02*
X183190000Y-63810000D01*
X171120000Y-62840000D02*
X171120000Y-63665000D01*
X171120000Y-63665000D02*
X172705000Y-65250000D01*
X182004999Y-91878411D02*
X182004999Y-92318801D01*
X182621199Y-92935001D02*
X187860735Y-92935001D01*
X187860735Y-92935001D02*
X187925736Y-92870000D01*
X187925736Y-92870000D02*
X188350000Y-92870000D01*
X182004999Y-92318801D02*
X182621199Y-92935001D01*
X188350000Y-92870000D02*
X188294139Y-92870000D01*
X140444682Y-91878411D02*
X140405045Y-91838774D01*
X182004999Y-91878411D02*
X140444682Y-91878411D01*
X140405045Y-91838774D02*
X139980781Y-91838774D01*
X141750000Y-77923757D02*
X141859843Y-78033600D01*
X141750000Y-75700000D02*
X141750000Y-77923757D01*
X137525929Y-88260171D02*
X137225930Y-87960172D01*
X139225758Y-89960000D02*
X137525929Y-88260171D01*
X183190000Y-76510000D02*
X169740000Y-89960000D01*
X169740000Y-89960000D02*
X139225758Y-89960000D01*
X139890000Y-78050000D02*
X139890000Y-76060000D01*
X139890000Y-76060000D02*
X140250000Y-75700000D01*
X137944188Y-90262071D02*
X137644189Y-89962072D01*
X183190000Y-79050000D02*
X171829818Y-90410182D01*
X171829818Y-90410182D02*
X138092299Y-90410182D01*
X138092299Y-90410182D02*
X137944188Y-90262071D01*
X136359987Y-72414428D02*
X136059988Y-72114429D01*
X136695559Y-72750000D02*
X136359987Y-72414428D01*
X138300000Y-72750000D02*
X136695559Y-72750000D01*
X133900000Y-46200000D02*
X131880000Y-46200000D01*
X131880000Y-46200000D02*
X130550000Y-44870000D01*
X136710000Y-67700000D02*
X137260000Y-68250000D01*
X137260000Y-68250000D02*
X138300000Y-68250000D01*
X140798744Y-68250000D02*
X140907774Y-68359030D01*
X138300000Y-68250000D02*
X140798744Y-68250000D01*
X142250000Y-73963520D02*
X142353098Y-73860422D01*
X142250000Y-75700000D02*
X142250000Y-73963520D01*
X141035315Y-74368033D02*
X141335314Y-74068034D01*
X140750000Y-74653348D02*
X141035315Y-74368033D01*
X140750000Y-75700000D02*
X140750000Y-74653348D01*
X162895843Y-73015025D02*
X168496238Y-73015025D01*
X169193352Y-73712139D02*
X169493351Y-74012138D01*
X162630818Y-72750000D02*
X162895843Y-73015025D01*
X159700000Y-72750000D02*
X162630818Y-72750000D01*
X168496238Y-73015025D02*
X169193352Y-73712139D01*
X121561323Y-76391323D02*
X137168679Y-76391323D01*
X137168679Y-76391323D02*
X140810002Y-72750000D01*
X119930000Y-78230000D02*
X119930000Y-77678524D01*
X120040000Y-77264264D02*
X120040000Y-76840000D01*
X120040000Y-77568524D02*
X120040000Y-77264264D01*
X119930000Y-77678524D02*
X120040000Y-77568524D01*
X159700000Y-72750000D02*
X158285917Y-72750000D01*
X158285917Y-72750000D02*
X156216402Y-70680485D01*
X121561323Y-76391323D02*
X120150000Y-74980000D01*
X156216402Y-70680485D02*
X155243598Y-70680485D01*
X155243598Y-70680485D02*
X153174083Y-72750000D01*
X153174083Y-72750000D02*
X140810002Y-72750000D01*
X120150000Y-74980000D02*
X120150000Y-74880000D01*
X120040000Y-75560000D02*
X120040000Y-74990000D01*
X120040000Y-74990000D02*
X120150000Y-74880000D01*
X159700000Y-73250000D02*
X158149506Y-73250000D01*
X158149506Y-73250000D02*
X156030002Y-71130496D01*
X153344015Y-73250000D02*
X142667678Y-73250000D01*
X156030002Y-71130496D02*
X155463519Y-71130496D01*
X155463519Y-71130496D02*
X153344015Y-73250000D01*
X142653099Y-73235421D02*
X141284028Y-73235421D01*
X142667678Y-73250000D02*
X142653099Y-73235421D01*
X141284028Y-73235421D02*
X136189449Y-78330000D01*
X136189449Y-78330000D02*
X126104750Y-78330000D01*
X126104750Y-78330000D02*
X124100000Y-78330000D01*
X124200000Y-78330000D02*
X124100000Y-78330000D01*
X121835000Y-78230000D02*
X124000000Y-78230000D01*
X124000000Y-78230000D02*
X124100000Y-78330000D01*
X163227976Y-73983569D02*
X166343569Y-73983569D01*
X166343569Y-73983569D02*
X167590000Y-75230000D01*
X162494407Y-73250000D02*
X163227976Y-73983569D01*
X159700000Y-73250000D02*
X162494407Y-73250000D01*
X146750000Y-75700000D02*
X146750000Y-74568691D01*
X146750000Y-74568691D02*
X146763681Y-74555010D01*
X162446476Y-75471476D02*
X164205603Y-75471476D01*
X160725000Y-73750000D02*
X162446476Y-75471476D01*
X164205603Y-75471476D02*
X164629867Y-75471476D01*
X159700000Y-73750000D02*
X160725000Y-73750000D01*
X161080000Y-66539999D02*
X160869999Y-66750000D01*
X162850001Y-66539999D02*
X161080000Y-66539999D01*
X160869999Y-66750000D02*
X160725000Y-66750000D01*
X163150000Y-66240000D02*
X162850001Y-66539999D01*
X160725000Y-66750000D02*
X159700000Y-66750000D01*
X160893600Y-66089988D02*
X161682081Y-66089988D01*
X160758587Y-66225001D02*
X160893600Y-66089988D01*
X159700000Y-66250000D02*
X159724999Y-66225001D01*
X159724999Y-66225001D02*
X160758587Y-66225001D01*
X161682081Y-66089988D02*
X161857080Y-65914989D01*
X160882200Y-65464978D02*
X161103344Y-65464978D01*
X160622177Y-65725001D02*
X160882200Y-65464978D01*
X159724999Y-65725001D02*
X160622177Y-65725001D01*
X159700000Y-65750000D02*
X159724999Y-65725001D01*
D43*
X105920000Y-95070000D02*
X116024045Y-95070001D01*
X116024045Y-95070001D02*
X116663068Y-94430979D01*
X118622935Y-94430981D02*
X119593000Y-95401045D01*
X116663068Y-94430979D02*
X118622935Y-94430981D01*
X119593000Y-95481000D02*
X119593000Y-96606000D01*
X119593000Y-95401045D02*
X119593000Y-95481000D01*
X101054988Y-99935012D02*
X105920000Y-95070000D01*
X101054988Y-103484988D02*
X101054988Y-99935012D01*
X106220001Y-108650001D02*
X101054988Y-103484988D01*
X132842000Y-107188000D02*
X131379999Y-108650001D01*
X131379999Y-108650001D02*
X106220001Y-108650001D01*
X132842000Y-107188000D02*
X134192001Y-108538001D01*
X161461999Y-108538001D02*
X162050001Y-107949999D01*
X134192001Y-108538001D02*
X161461999Y-108538001D01*
X162050001Y-107949999D02*
X163000000Y-107000000D01*
X112670000Y-105970000D02*
X111610000Y-105970000D01*
X111610000Y-105970000D02*
X109255012Y-103615012D01*
X109255012Y-96894988D02*
X109956001Y-96193999D01*
X109255012Y-103615012D02*
X109255012Y-96894988D01*
X111530001Y-96193999D02*
X111760000Y-96423998D01*
X109956001Y-96193999D02*
X111530001Y-96193999D01*
X111760000Y-96423998D02*
X111760000Y-99044000D01*
X121410000Y-107880000D02*
X122400000Y-107880000D01*
D42*
X120068000Y-101006000D02*
X122400000Y-103338000D01*
D43*
X122400000Y-107880000D02*
X128266498Y-107880000D01*
D42*
X119593000Y-101006000D02*
X120068000Y-101006000D01*
X122400000Y-103338000D02*
X122400000Y-107880000D01*
D43*
X130302000Y-107188000D02*
X134620000Y-102870000D01*
X134620000Y-102870000D02*
X137466000Y-102870000D01*
X128266498Y-107880000D02*
X128958498Y-107188000D01*
X128958498Y-107188000D02*
X130302000Y-107188000D01*
D42*
X118293000Y-101006000D02*
X118293000Y-107173000D01*
X118293000Y-107173000D02*
X118420000Y-107300000D01*
X114568468Y-97255032D02*
X114868467Y-97555031D01*
X114357436Y-97044000D02*
X114568468Y-97255032D01*
X112720000Y-97044000D02*
X114357436Y-97044000D01*
X118380000Y-98990000D02*
X118380000Y-100919000D01*
X118380000Y-100919000D02*
X118293000Y-101006000D01*
D43*
X121410000Y-106980000D02*
X118740000Y-106980000D01*
X118740000Y-106980000D02*
X118420000Y-107300000D01*
D42*
X118843001Y-95620999D02*
X118843001Y-96506001D01*
X109717466Y-95595011D02*
X116241511Y-95595011D01*
X118818010Y-95596008D02*
X118843001Y-95620999D01*
X118405468Y-94955990D02*
X118818010Y-95368532D01*
X115880000Y-107300000D02*
X111240004Y-107300000D01*
X116880533Y-94955989D02*
X118405468Y-94955990D01*
X116241511Y-95595011D02*
X116880533Y-94955989D01*
X118818010Y-95368532D02*
X118818010Y-95596008D01*
X108580001Y-104639997D02*
X108580001Y-96732476D01*
X108580001Y-96732476D02*
X109717466Y-95595011D01*
X111240004Y-107300000D02*
X108580001Y-104639997D01*
X118843001Y-96506001D02*
X118943000Y-96606000D01*
X120013999Y-97656001D02*
X121705001Y-95964999D01*
X121705001Y-95964999D02*
X122704999Y-95964999D01*
X122704999Y-95964999D02*
X123230000Y-96490000D01*
X123230000Y-96490000D02*
X123230000Y-96590000D01*
X118943000Y-96606000D02*
X118943000Y-97581000D01*
X118943000Y-97581000D02*
X119018001Y-97656001D01*
X119018001Y-97656001D02*
X120013999Y-97656001D01*
X126810000Y-96590000D02*
X130110012Y-99890012D01*
X130110012Y-99890012D02*
X156739988Y-99890012D01*
X156739988Y-99890012D02*
X158710000Y-97920000D01*
X123230000Y-96590000D02*
X126810000Y-96590000D01*
X123240000Y-96580000D02*
X123230000Y-96590000D01*
X157750000Y-54300000D02*
X157750000Y-56470000D01*
X123150000Y-96670000D02*
X123230000Y-96590000D01*
X111000000Y-81000000D02*
X111171774Y-80828226D01*
X111171774Y-80828226D02*
X111828226Y-80828226D01*
X111828226Y-80828226D02*
X112250000Y-81250000D01*
X112250000Y-81250000D02*
X113050000Y-81250000D01*
X107050000Y-81000000D02*
X107226626Y-80823374D01*
X107226626Y-80823374D02*
X110823374Y-80823374D01*
X110823374Y-80823374D02*
X110943194Y-80943194D01*
X110943194Y-80943194D02*
X111000000Y-81000000D01*
X111000000Y-81725000D02*
X111000000Y-81000000D01*
X113050000Y-80000000D02*
X112200000Y-80000000D01*
X112200000Y-80000000D02*
X111832635Y-80367365D01*
X111832635Y-80367365D02*
X111167365Y-80367365D01*
X111167365Y-80367365D02*
X111000000Y-80200000D01*
X111000000Y-80200000D02*
X110832635Y-80367365D01*
X110832635Y-80367365D02*
X107217365Y-80367365D01*
X107217365Y-80367365D02*
X107050000Y-80200000D01*
X111000000Y-79425000D02*
X111000000Y-79975000D01*
X111000000Y-79975000D02*
X111000000Y-80200000D01*
X145250000Y-54300000D02*
X145250000Y-52657122D01*
X145250000Y-52657122D02*
X145599261Y-52307861D01*
X145599261Y-52307861D02*
X145599261Y-51983448D01*
X145599261Y-51983448D02*
X145899260Y-51683449D01*
X134940022Y-44516650D02*
X134940022Y-44710909D01*
X132743381Y-42320009D02*
X134940022Y-44516650D01*
X124933598Y-42320009D02*
X132743381Y-42320009D01*
X121500000Y-38886411D02*
X124933598Y-42320009D01*
X121500000Y-33520000D02*
X121500000Y-38886411D01*
X117500000Y-29520000D02*
X121500000Y-33520000D01*
X134940022Y-44710909D02*
X134940022Y-45135173D01*
X136100000Y-45400000D02*
X135204849Y-45400000D01*
X135204849Y-45400000D02*
X134940022Y-45135173D01*
X134872062Y-46777938D02*
X134872062Y-47108213D01*
X135450000Y-46200000D02*
X134872062Y-46777938D01*
X136100000Y-46200000D02*
X135450000Y-46200000D01*
X118449999Y-27929999D02*
X117500000Y-26980000D01*
X136750000Y-46200000D02*
X136940000Y-46010000D01*
X133523590Y-41690000D02*
X124964996Y-41690000D01*
X136940000Y-46010000D02*
X136940000Y-45106410D01*
X121992042Y-38717046D02*
X121992042Y-31472042D01*
X136940000Y-45106410D02*
X133523590Y-41690000D01*
X124964996Y-41690000D02*
X121992042Y-38717046D01*
X136100000Y-46200000D02*
X136750000Y-46200000D01*
X121992042Y-31472042D02*
X118449999Y-27929999D01*
X144250000Y-52976970D02*
X144068607Y-52795577D01*
X144250000Y-54300000D02*
X144250000Y-52976970D01*
X136062879Y-46200000D02*
X136100000Y-46200000D01*
X129991238Y-47000000D02*
X132160000Y-47000000D01*
X132158017Y-47672638D02*
X132158017Y-47001983D01*
X132160000Y-47000000D02*
X133250000Y-47000000D01*
X132158017Y-47001983D02*
X132160000Y-47000000D01*
X129410000Y-42990000D02*
X129410000Y-46418762D01*
X129410000Y-46418762D02*
X129991238Y-47000000D01*
X133250000Y-47000000D02*
X133900000Y-47000000D01*
X122500000Y-38350000D02*
X124690000Y-40540000D01*
X124690000Y-40540000D02*
X124740000Y-40540000D01*
X122500000Y-29440000D02*
X122500000Y-38350000D01*
X117500000Y-24440000D02*
X122500000Y-29440000D01*
X155750000Y-75700000D02*
X155750000Y-71775498D01*
X155750000Y-71775498D02*
X155730000Y-71755498D01*
X144750000Y-54300000D02*
X144750000Y-51892096D01*
X144750000Y-51892096D02*
X144842663Y-51799433D01*
X117500000Y-32060000D02*
X118843502Y-32060000D01*
X133250000Y-48600000D02*
X133900000Y-48600000D01*
X118843502Y-32060000D02*
X120980000Y-34196498D01*
X130954827Y-48600000D02*
X133250000Y-48600000D01*
X128959989Y-46605162D02*
X130954827Y-48600000D01*
X120980000Y-39170000D02*
X124580020Y-42770020D01*
X128959989Y-43733600D02*
X128959989Y-46605162D01*
X127996409Y-42770020D02*
X128959989Y-43733600D01*
X124580020Y-42770020D02*
X127996409Y-42770020D01*
X120980000Y-34196498D02*
X120980000Y-39170000D01*
X134050000Y-48600000D02*
X137261949Y-51811949D01*
X133900000Y-48600000D02*
X134050000Y-48600000D01*
X137261949Y-51811949D02*
X137388051Y-51811949D01*
X146750000Y-53275000D02*
X146750000Y-54300000D01*
X146750000Y-53066355D02*
X146750000Y-53275000D01*
X147424543Y-52391812D02*
X146750000Y-53066355D01*
X147424543Y-50621858D02*
X147424543Y-52391812D01*
X146895024Y-50092339D02*
X147424543Y-50621858D01*
X146895024Y-45225024D02*
X146895024Y-50092339D01*
X143800000Y-42130000D02*
X146895024Y-45225024D01*
X143800000Y-37300000D02*
X143800000Y-42130000D01*
X142904988Y-36404988D02*
X143800000Y-37300000D01*
X138265000Y-31765000D02*
X142904988Y-36404988D01*
X137635000Y-30920000D02*
X138265000Y-31550000D01*
X138265000Y-31550000D02*
X138265000Y-31765000D01*
X137635000Y-30700000D02*
X137635000Y-30920000D01*
X143800000Y-37300000D02*
X147635000Y-33465000D01*
X147635000Y-33465000D02*
X147635000Y-30700000D01*
X147635000Y-30920000D02*
X147635000Y-30700000D01*
X137635000Y-29850000D02*
X137635000Y-30700000D01*
X134540000Y-25075000D02*
X137635000Y-28170000D01*
X137635000Y-28170000D02*
X137635000Y-29850000D01*
X128575000Y-28010000D02*
X131605000Y-28010000D01*
X131605000Y-28010000D02*
X134540000Y-25075000D01*
X126635000Y-30800000D02*
X126635000Y-29950000D01*
X126635000Y-29950000D02*
X128575000Y-28010000D01*
X145659999Y-38705001D02*
X145659999Y-43198087D01*
X147874554Y-50435458D02*
X147874554Y-52578212D01*
X145790000Y-38575000D02*
X145659999Y-38705001D01*
X147345035Y-49905939D02*
X147874554Y-50435458D01*
X147250000Y-53275000D02*
X147250000Y-54300000D01*
X145659999Y-43198087D02*
X147345035Y-44883123D01*
X147250000Y-53202766D02*
X147250000Y-53275000D01*
X147345035Y-44883123D02*
X147345035Y-49905939D01*
X147874554Y-52578212D02*
X147250000Y-53202766D01*
X145790000Y-38575000D02*
X146365000Y-38000000D01*
X145294999Y-39070001D02*
X145790000Y-38575000D01*
X144840000Y-39370000D02*
X145139999Y-39070001D01*
X145139999Y-39070001D02*
X145294999Y-39070001D01*
X139764999Y-36854999D02*
X142314999Y-36854999D01*
X142314999Y-36854999D02*
X142990000Y-37530000D01*
X129670000Y-28910000D02*
X129670000Y-30600002D01*
X129670000Y-30600002D02*
X125365000Y-34905002D01*
X125365000Y-34905002D02*
X125365000Y-37030000D01*
X136365000Y-37560000D02*
X137070001Y-36854999D01*
X137070001Y-36854999D02*
X139764999Y-36854999D01*
X146365000Y-38000000D02*
X146365000Y-37780000D01*
X136365000Y-37780000D02*
X136365000Y-37560000D01*
X125365000Y-37030000D02*
X125365000Y-37880000D01*
X132000000Y-25075000D02*
X129925000Y-27150000D01*
X129925000Y-27150000D02*
X129630000Y-27150000D01*
X125365000Y-37030000D02*
X125540001Y-36854999D01*
X125540001Y-36854999D02*
X135659999Y-36854999D01*
X135659999Y-36854999D02*
X136365000Y-37560000D01*
X148324565Y-52764612D02*
X148324565Y-48710082D01*
X148381350Y-48653297D02*
X148381350Y-48229033D01*
X147750000Y-53339177D02*
X148324565Y-52764612D01*
X148324565Y-48710082D02*
X148381350Y-48653297D01*
X147750000Y-54300000D02*
X147750000Y-53339177D01*
X148905000Y-30480000D02*
X148905000Y-30700000D01*
X145799999Y-27374999D02*
X148905000Y-30480000D01*
X138949850Y-30700000D02*
X142274851Y-27374999D01*
X138905000Y-30700000D02*
X138949850Y-30700000D01*
X142274851Y-27374999D02*
X145799999Y-27374999D01*
X127905000Y-31020000D02*
X127905000Y-30800000D01*
X122950009Y-31540009D02*
X123590000Y-32180000D01*
X122950009Y-26109991D02*
X122950009Y-31540009D01*
X123590000Y-32180000D02*
X126745000Y-32180000D01*
X123985000Y-25075000D02*
X122950009Y-26109991D01*
X129460000Y-25075000D02*
X123985000Y-25075000D01*
X126745000Y-32180000D02*
X127905000Y-31020000D01*
X148905000Y-30700000D02*
X148905000Y-32755000D01*
X148905000Y-32755000D02*
X148830000Y-32830000D01*
X129460000Y-25075000D02*
X129460000Y-23883396D01*
X129460000Y-23883396D02*
X130019009Y-23324387D01*
X130019009Y-23324387D02*
X134676389Y-23324387D01*
X134676389Y-23324387D02*
X138905000Y-27552998D01*
X138905000Y-27552998D02*
X138905000Y-29850000D01*
X138905000Y-29850000D02*
X138905000Y-30700000D01*
X146475000Y-36180000D02*
X146350000Y-36305000D01*
X146350000Y-36305000D02*
X145095000Y-37560000D01*
X144120000Y-25000000D02*
X145395001Y-26275001D01*
X145395001Y-26275001D02*
X146045003Y-26275001D01*
X146045003Y-26275001D02*
X149610001Y-29839999D01*
X149610001Y-29839999D02*
X149610001Y-33044999D01*
X149610001Y-33044999D02*
X146350000Y-36305000D01*
X157950000Y-58390000D02*
X157950000Y-57965736D01*
X157960000Y-57830000D02*
X158599999Y-57190001D01*
X157950000Y-57965736D02*
X157960000Y-57955736D01*
X149852575Y-36180000D02*
X146475000Y-36180000D01*
X145095000Y-37560000D02*
X145095000Y-37780000D01*
X157960000Y-57955736D02*
X157960000Y-57830000D01*
X158599999Y-57190001D02*
X158599999Y-44927424D01*
X158599999Y-44927424D02*
X149852575Y-36180000D01*
X158675000Y-72250000D02*
X158380000Y-71955000D01*
X158380000Y-71955000D02*
X158380000Y-71010000D01*
X159700000Y-72250000D02*
X158675000Y-72250000D01*
X135095000Y-40261396D02*
X140260001Y-45426397D01*
X140260001Y-48788003D02*
X140225904Y-48822100D01*
X140225904Y-48822100D02*
X140225904Y-50182858D01*
X135095000Y-37780000D02*
X135095000Y-40261396D01*
X140260001Y-45426397D02*
X140260001Y-48788003D01*
X140225904Y-50182858D02*
X136738762Y-53670000D01*
X136738762Y-53670000D02*
X132574264Y-53670000D01*
X132574264Y-53670000D02*
X132150000Y-53670000D01*
X135162137Y-66107874D02*
X134737873Y-66107874D01*
X138300000Y-66750000D02*
X135804264Y-66750000D01*
X135804264Y-66750000D02*
X135162137Y-66107874D01*
X135095000Y-37780000D02*
X134070000Y-37780000D01*
X134070000Y-37780000D02*
X134060000Y-37770000D01*
X124095000Y-38100000D02*
X124791948Y-38796948D01*
X124095000Y-37880000D02*
X124095000Y-38100000D01*
X124791948Y-38796948D02*
X124791948Y-39258052D01*
X141750000Y-54300000D02*
X141750000Y-52066500D01*
X141249988Y-51566488D02*
X141249988Y-51171990D01*
X141750000Y-52066500D02*
X141249988Y-51566488D01*
X134242800Y-55819978D02*
X120275987Y-55819978D01*
X106097461Y-59375001D02*
X105742462Y-59730000D01*
X138300000Y-56250000D02*
X134672822Y-56250000D01*
X134672822Y-56250000D02*
X134242800Y-55819978D01*
X120275987Y-55819978D02*
X119048418Y-57047547D01*
X119048418Y-57047547D02*
X119048418Y-58615172D01*
X119048418Y-58615172D02*
X118288589Y-59375001D01*
X118288589Y-59375001D02*
X106097461Y-59375001D01*
X105742462Y-59730000D02*
X105000000Y-59730000D01*
X134056400Y-56269989D02*
X120462386Y-56269989D01*
X120462386Y-56269989D02*
X119581988Y-57150387D01*
X119581988Y-57950391D02*
X119694118Y-58062521D01*
X119581988Y-57150387D02*
X119581988Y-57950391D01*
X134536411Y-56750000D02*
X134056400Y-56269989D01*
X138300000Y-56750000D02*
X134536411Y-56750000D01*
X117850509Y-58469633D02*
X118274773Y-58469633D01*
X110188575Y-57159988D02*
X111498220Y-58469633D01*
X103772010Y-57159988D02*
X110188575Y-57159988D01*
X102879999Y-58879999D02*
X102879999Y-58051999D01*
X102879999Y-58051999D02*
X103772010Y-57159988D01*
X103730000Y-59730000D02*
X102879999Y-58879999D01*
X111498220Y-58469633D02*
X117850509Y-58469633D01*
X103730000Y-63540000D02*
X101529966Y-61339966D01*
X101529966Y-61339966D02*
X101529966Y-57492799D01*
X139850000Y-54300000D02*
X140250000Y-54300000D01*
X101529966Y-57492799D02*
X104722765Y-54300000D01*
X104722765Y-54300000D02*
X139850000Y-54300000D01*
X103730000Y-62270000D02*
X101979977Y-60519977D01*
X134648444Y-55003961D02*
X134948443Y-55303960D01*
X101979977Y-60519977D02*
X101979977Y-57679199D01*
X101979977Y-57679199D02*
X104655215Y-55003961D01*
X104655215Y-55003961D02*
X134648444Y-55003961D01*
X138300000Y-57750000D02*
X136210000Y-57750000D01*
X136210000Y-57750000D02*
X136084990Y-57875010D01*
X130380001Y-56744999D02*
X120871274Y-56744999D01*
X130885002Y-57250000D02*
X130380001Y-56744999D01*
X138300000Y-57250000D02*
X130885002Y-57250000D01*
X120871274Y-56744999D02*
X120531740Y-57084533D01*
X120531740Y-57084533D02*
X120231741Y-57384532D01*
X110374975Y-56709977D02*
X111348549Y-57683551D01*
X111348549Y-57683551D02*
X117999152Y-57683551D01*
X103585610Y-56709977D02*
X110374975Y-56709977D01*
X102429988Y-59699988D02*
X102429988Y-57865599D01*
X103730000Y-61000000D02*
X102429988Y-59699988D01*
X117999152Y-57683551D02*
X118423416Y-57683551D01*
X102429988Y-57865599D02*
X103585610Y-56709977D01*
X129930000Y-92980000D02*
X128468000Y-92980000D01*
X147750000Y-75700000D02*
X147750000Y-77294000D01*
X147750000Y-77294000D02*
X147574000Y-77470000D01*
D43*
X118293000Y-95585998D02*
X118188001Y-95480999D01*
X112014000Y-102074000D02*
X112014000Y-102674000D01*
X118188001Y-95480999D02*
X117097999Y-95480999D01*
X117017996Y-97070004D02*
X112014000Y-102074000D01*
X117017996Y-95561002D02*
X117017996Y-97070004D01*
X118293000Y-96606000D02*
X118293000Y-95585998D01*
X117097999Y-95480999D02*
X117017996Y-95561002D01*
D42*
X111840000Y-45490000D02*
X113840000Y-45490000D01*
X113840000Y-45490000D02*
X113893731Y-45543731D01*
X108500000Y-33500000D02*
X108500000Y-38072998D01*
X113893731Y-43466729D02*
X113893731Y-45543731D01*
X108500000Y-38072998D02*
X113893731Y-43466729D01*
X116750000Y-48400000D02*
X116750000Y-48525000D01*
X113893731Y-45543731D02*
X116750000Y-48400000D01*
X128100000Y-65525000D02*
X128100000Y-65171644D01*
X128100000Y-65171644D02*
X129098432Y-64173212D01*
X116750000Y-48525000D02*
X117775000Y-48525000D01*
X117775000Y-48525000D02*
X119940000Y-50690000D01*
X143240379Y-69250000D02*
X143238701Y-69248322D01*
X159700000Y-69250000D02*
X143240379Y-69250000D01*
X124300000Y-51200000D02*
X124425000Y-51200000D01*
X126240000Y-53195736D02*
X126240000Y-53620000D01*
X124425000Y-51200000D02*
X126240000Y-53015000D01*
X126240000Y-53015000D02*
X126240000Y-53195736D01*
X129020000Y-57370000D02*
X128347330Y-57370000D01*
X128347330Y-57370000D02*
X128310811Y-57406519D01*
X126950000Y-53600000D02*
X126260000Y-53600000D01*
X126260000Y-53600000D02*
X126240000Y-53620000D01*
X136985302Y-65039698D02*
X132768876Y-65039698D01*
X132768876Y-65039698D02*
X132344612Y-65039698D01*
X137275000Y-64750000D02*
X136985302Y-65039698D01*
X138300000Y-64750000D02*
X137275000Y-64750000D01*
X132360000Y-51480000D02*
X131080000Y-52760000D01*
X131080000Y-52760000D02*
X131080000Y-53460000D01*
X129770000Y-50450000D02*
X124500000Y-50450000D01*
X124500000Y-50450000D02*
X124300000Y-50250000D01*
X132360000Y-50760000D02*
X132050000Y-50450000D01*
X132050000Y-50450000D02*
X129770000Y-50450000D01*
X132360000Y-51480000D02*
X132360000Y-50760000D01*
X122484183Y-75064081D02*
X122184184Y-75364080D01*
X122668264Y-74880000D02*
X122484183Y-75064081D01*
X123150000Y-74880000D02*
X122668264Y-74880000D01*
X121200000Y-77080012D02*
X121290012Y-76990000D01*
X121200000Y-78230000D02*
X121200000Y-77080012D01*
X117350000Y-74880000D02*
X117350000Y-76121062D01*
X117350000Y-76121062D02*
X118660000Y-77431062D01*
X118660000Y-77431062D02*
X118660000Y-77590003D01*
X118660000Y-77590003D02*
X118660000Y-78230000D01*
X120810000Y-51060000D02*
X120810000Y-49660000D01*
X120810000Y-49660000D02*
X115250000Y-44100000D01*
X115250000Y-44100000D02*
X115250000Y-43975000D01*
X121700000Y-51200000D02*
X120950000Y-51200000D01*
X120950000Y-51200000D02*
X120810000Y-51060000D01*
X180725001Y-82884271D02*
X181944271Y-82884271D01*
X181944271Y-82884271D02*
X183190000Y-84130000D01*
X144250000Y-75700000D02*
X144250000Y-74240000D01*
X144250000Y-74240000D02*
X144350000Y-74140000D01*
X159700000Y-64750000D02*
X162239998Y-64750000D01*
X162239998Y-64750000D02*
X162539999Y-65050001D01*
X162539999Y-65050001D02*
X166552369Y-65050001D01*
X166552369Y-65050001D02*
X166562370Y-65040000D01*
X166562370Y-65040000D02*
X169250000Y-65040000D01*
X169250000Y-65040000D02*
X170250000Y-66040000D01*
X151250000Y-54300000D02*
X151250000Y-53275000D01*
X154520000Y-50005000D02*
X154520000Y-48127630D01*
X151250000Y-53275000D02*
X154520000Y-50005000D01*
X154520000Y-48127630D02*
X154520000Y-47050000D01*
X133650000Y-40350000D02*
X137653874Y-44353874D01*
X137653874Y-44353874D02*
X137653874Y-46680946D01*
X137653874Y-46680946D02*
X137334820Y-47000000D01*
X137334820Y-47000000D02*
X136100000Y-47000000D01*
X138600000Y-49122370D02*
X138600000Y-50200000D01*
X136100000Y-48600000D02*
X138077630Y-48600000D01*
X138077630Y-48600000D02*
X138600000Y-49122370D01*
X104230000Y-44906498D02*
X104230000Y-47000000D01*
X104400000Y-35550000D02*
X103874999Y-36075001D01*
X103874999Y-36075001D02*
X103874999Y-44551497D01*
X103874999Y-44551497D02*
X104230000Y-44906498D01*
X104500000Y-35550000D02*
X104400000Y-35550000D01*
X107540000Y-35500000D02*
X104550000Y-35500000D01*
X104550000Y-35500000D02*
X104500000Y-35550000D01*
X125000000Y-28000000D02*
X125000000Y-30435000D01*
X125000000Y-30435000D02*
X125365000Y-30800000D01*
X136450000Y-28000000D02*
X136450000Y-30615000D01*
X136450000Y-30615000D02*
X136365000Y-30700000D01*
X146365000Y-29850000D02*
X146365000Y-30700000D01*
X145450000Y-28935000D02*
X146365000Y-29850000D01*
X145450000Y-28000000D02*
X145450000Y-28935000D01*
X137275000Y-60250000D02*
X138300000Y-60250000D01*
X127380000Y-61400000D02*
X128504977Y-60275023D01*
X135957801Y-60275023D02*
X135982824Y-60250000D01*
X128504977Y-60275023D02*
X135957801Y-60275023D01*
X135982824Y-60250000D02*
X137275000Y-60250000D01*
X183190000Y-40950000D02*
X181973777Y-40950000D01*
X167527641Y-55396136D02*
X167527641Y-57545574D01*
X162820888Y-60980888D02*
X162090000Y-60250000D01*
X181973777Y-40950000D02*
X167527641Y-55396136D01*
X167527641Y-57545574D02*
X164092327Y-60980888D01*
X164092327Y-60980888D02*
X162820888Y-60980888D01*
X160725000Y-60250000D02*
X159700000Y-60250000D01*
X162090000Y-60250000D02*
X160725000Y-60250000D01*
X183190000Y-43490000D02*
X180916154Y-43490000D01*
X167977652Y-56428502D02*
X167977652Y-57731974D01*
X164278727Y-61430899D02*
X162634488Y-61430899D01*
X160725000Y-60750000D02*
X159700000Y-60750000D01*
X162634488Y-61430899D02*
X161953589Y-60750000D01*
X161953589Y-60750000D02*
X160725000Y-60750000D01*
X180916154Y-43490000D02*
X167977652Y-56428502D01*
X167977652Y-57731974D02*
X164278727Y-61430899D01*
X164465127Y-61880910D02*
X161355910Y-61880910D01*
X183190000Y-46030000D02*
X179012565Y-46030000D01*
X179012565Y-46030000D02*
X168427663Y-56614902D01*
X168427663Y-56614902D02*
X168427663Y-57918374D01*
X168427663Y-57918374D02*
X164465127Y-61880910D01*
X160725000Y-61250000D02*
X159700000Y-61250000D01*
X161355910Y-61880910D02*
X160725000Y-61250000D01*
X183190000Y-48570000D02*
X177207115Y-48570000D01*
X168877674Y-58104774D02*
X164414748Y-62567700D01*
X160725000Y-62750000D02*
X159700000Y-62750000D01*
X177207115Y-48570000D02*
X168877674Y-56899441D01*
X168877674Y-56899441D02*
X168877674Y-58104774D01*
X164414748Y-62567700D02*
X160907300Y-62567700D01*
X160907300Y-62567700D02*
X160725000Y-62750000D01*
X175012366Y-55800000D02*
X174781900Y-55569534D01*
X174781900Y-55569534D02*
X174481901Y-55269535D01*
X176270000Y-55800000D02*
X175012366Y-55800000D01*
X141079569Y-67598959D02*
X141503833Y-67598959D01*
X138300000Y-67750000D02*
X140436414Y-67750000D01*
X140436414Y-67750000D02*
X140587455Y-67598959D01*
X140587455Y-67598959D02*
X141079569Y-67598959D01*
X177100000Y-57700000D02*
X178124999Y-58724999D01*
X178124999Y-58724999D02*
X178124999Y-59674999D01*
X178650000Y-60200000D02*
X178750000Y-60200000D01*
X178124999Y-59674999D02*
X178650000Y-60200000D01*
X177100000Y-56080000D02*
X177100000Y-57700000D01*
X176270000Y-55800000D02*
X176820000Y-55800000D01*
X176820000Y-55800000D02*
X177100000Y-56080000D01*
X178750000Y-56700000D02*
X178650000Y-56700000D01*
X176706479Y-54756479D02*
X175997768Y-54756479D01*
X175997768Y-54756479D02*
X175573504Y-54756479D01*
X178650000Y-56700000D02*
X176706479Y-54756479D01*
X140154474Y-67250000D02*
X140439555Y-66964919D01*
X138300000Y-67250000D02*
X140154474Y-67250000D01*
X178100000Y-57600000D02*
X178100000Y-57350000D01*
X178100000Y-57350000D02*
X178750000Y-56700000D01*
X176250000Y-59300000D02*
X176300000Y-59300000D01*
X176300000Y-59300000D02*
X177000000Y-58600000D01*
D43*
X165640000Y-103740000D02*
X168608435Y-103740000D01*
X168608435Y-103740000D02*
X169260000Y-104391565D01*
X169260000Y-104391565D02*
X169260000Y-104820000D01*
X149362001Y-103297999D02*
X148830000Y-103830000D01*
X148830000Y-103830000D02*
X147050000Y-103830000D01*
X160460000Y-107000000D02*
X156757999Y-103297999D01*
X156757999Y-103297999D02*
X149362001Y-103297999D01*
X160460000Y-107000000D02*
X159918002Y-107000000D01*
X145508000Y-106172000D02*
X147050000Y-104630000D01*
X147050000Y-104630000D02*
X147050000Y-103830000D01*
X165640000Y-103740000D02*
X163720000Y-103740000D01*
X163720000Y-103740000D02*
X160460000Y-107000000D01*
X183190000Y-99370000D02*
X184450001Y-100630001D01*
X184450001Y-100630001D02*
X184450001Y-105054801D01*
X184450001Y-105054801D02*
X183794801Y-105710001D01*
X183794801Y-105710001D02*
X171150001Y-105710001D01*
X171150001Y-105710001D02*
X170260000Y-104820000D01*
X170260000Y-104820000D02*
X169260000Y-104820000D01*
X141732000Y-106172000D02*
X145508000Y-106172000D01*
D42*
X163239414Y-72565018D02*
X166389084Y-72565018D01*
X162424396Y-71750000D02*
X163239414Y-72565018D01*
X167564102Y-71390000D02*
X180690000Y-71390000D01*
X166389084Y-72565018D02*
X167564102Y-71390000D01*
X182330001Y-69749999D02*
X183190000Y-68890000D01*
X180690000Y-71390000D02*
X182330001Y-69749999D01*
X159700000Y-71750000D02*
X162424396Y-71750000D01*
X183190000Y-68890000D02*
X183143804Y-68936196D01*
X181106040Y-77513960D02*
X181406039Y-77213961D01*
X151324987Y-79386092D02*
X153688895Y-81750000D01*
X150750000Y-76846413D02*
X151324987Y-77421400D01*
X150750000Y-75700000D02*
X150750000Y-76846413D01*
X153688895Y-81750000D02*
X176870000Y-81750000D01*
X176870000Y-81750000D02*
X181106040Y-77513960D01*
X151324987Y-77421400D02*
X151324987Y-79386092D01*
X141415913Y-55534652D02*
X141715912Y-55834651D01*
X141250000Y-55368739D02*
X141415913Y-55534652D01*
X141250000Y-54300000D02*
X141250000Y-55368739D01*
X148774576Y-49430622D02*
X149052204Y-49152994D01*
X148750000Y-53275000D02*
X148774576Y-53250424D01*
X148774576Y-53250424D02*
X148774576Y-49430622D01*
X148750000Y-54300000D02*
X148750000Y-53275000D01*
X146258281Y-50092007D02*
X146258281Y-49771308D01*
X146974532Y-52205412D02*
X146974532Y-50808258D01*
X146974532Y-50808258D02*
X146258281Y-50092007D01*
X146250000Y-52929944D02*
X146974532Y-52205412D01*
X146250000Y-54300000D02*
X146250000Y-52929944D01*
X146258281Y-49771308D02*
X146258281Y-49347044D01*
X146209723Y-50690239D02*
X145785459Y-50690239D01*
X146524521Y-51005037D02*
X146209723Y-50690239D01*
X145750000Y-54300000D02*
X145750000Y-52793532D01*
X146524521Y-52019011D02*
X146524521Y-51005037D01*
X145750000Y-52793532D02*
X146524521Y-52019011D01*
X187560000Y-60560000D02*
X187560000Y-69250000D01*
X175630000Y-77230000D02*
X157845934Y-77230000D01*
X155250000Y-76611136D02*
X155250000Y-75700000D01*
X157845934Y-77230000D02*
X157144009Y-77931925D01*
X156570789Y-77931925D02*
X155250000Y-76611136D01*
X185730000Y-58730000D02*
X187560000Y-60560000D01*
X182615001Y-70244999D02*
X175630000Y-77230000D01*
X187560000Y-69250000D02*
X186565001Y-70244999D01*
X157144009Y-77931925D02*
X156570789Y-77931925D01*
X186565001Y-70244999D02*
X182615001Y-70244999D01*
X156357605Y-78381936D02*
X154750000Y-76774331D01*
X154750000Y-76774331D02*
X154750000Y-76725000D01*
X154750000Y-76725000D02*
X154750000Y-75700000D01*
X177690000Y-77780000D02*
X157932345Y-77780000D01*
X185730000Y-73970000D02*
X184544999Y-72784999D01*
X157932345Y-77780000D02*
X157330409Y-78381936D01*
X184544999Y-72784999D02*
X182685001Y-72784999D01*
X157330409Y-78381936D02*
X156357605Y-78381936D01*
X182685001Y-72784999D02*
X177690000Y-77780000D01*
X151774998Y-77235000D02*
X151774998Y-79199693D01*
X153699752Y-81124447D02*
X176255553Y-81124447D01*
X151774998Y-79199693D02*
X153699752Y-81124447D01*
X151250000Y-76710002D02*
X151774998Y-77235000D01*
X151250000Y-75700000D02*
X151250000Y-76710002D01*
X176255553Y-81124447D02*
X177530000Y-79850000D01*
X182055001Y-75324999D02*
X177530000Y-79850000D01*
X177530000Y-79850000D02*
X177260000Y-80120000D01*
X185730000Y-76510000D02*
X184544999Y-75324999D01*
X184544999Y-75324999D02*
X182055001Y-75324999D01*
X142845239Y-74272376D02*
X143145238Y-73972377D01*
X142750000Y-74367615D02*
X142845239Y-74272376D01*
X142750000Y-75700000D02*
X142750000Y-74367615D01*
X178750000Y-55800000D02*
X182800000Y-55800000D01*
X182800000Y-55800000D02*
X183190000Y-56190000D01*
X178750000Y-55800000D02*
X178850000Y-55800000D01*
X178750000Y-58850000D02*
X178750000Y-59300000D01*
X178850000Y-55800000D02*
X179375001Y-56325001D01*
X179375001Y-56325001D02*
X179375001Y-58224999D01*
X179375001Y-58224999D02*
X178750000Y-58850000D01*
X176250000Y-60200000D02*
X176800000Y-60200000D01*
X182330001Y-59589999D02*
X183190000Y-58730000D01*
X176800000Y-60200000D02*
X177325001Y-60725001D01*
X177325001Y-60725001D02*
X181194999Y-60725001D01*
X181194999Y-60725001D02*
X182330001Y-59589999D01*
X175574999Y-59624999D02*
X176150000Y-60200000D01*
X175574999Y-57845001D02*
X175574999Y-59624999D01*
X176150000Y-60200000D02*
X176250000Y-60200000D01*
X176270000Y-57150000D02*
X175574999Y-57845001D01*
X176270000Y-56700000D02*
X176270000Y-57150000D01*
X185730000Y-68890000D02*
X184544999Y-67704999D01*
X184544999Y-67704999D02*
X182004799Y-67704999D01*
X182004799Y-67704999D02*
X181535831Y-68173967D01*
X181535831Y-68173967D02*
X168051816Y-68173967D01*
X168051816Y-68173967D02*
X167751817Y-68473966D01*
X148250000Y-54300000D02*
X148250000Y-56587735D01*
X148250000Y-56587735D02*
X148510216Y-56847951D01*
X186715001Y-90564999D02*
X187634999Y-89645001D01*
X187634999Y-89645001D02*
X187634999Y-73334999D01*
X182621199Y-90564999D02*
X186715001Y-90564999D01*
X146987379Y-76987621D02*
X146935776Y-76987621D01*
X147250000Y-76725000D02*
X146987379Y-76987621D01*
X147250000Y-75700000D02*
X147250000Y-76725000D01*
X140428644Y-91184191D02*
X140290846Y-91046393D01*
X182002007Y-91184191D02*
X140428644Y-91184191D01*
X182621199Y-90564999D02*
X182002007Y-91184191D01*
X185730000Y-71430000D02*
X187634999Y-73334999D01*
X141142584Y-65205698D02*
X141442583Y-64905699D01*
X140598282Y-65750000D02*
X141142584Y-65205698D01*
X138300000Y-65750000D02*
X140598282Y-65750000D01*
X141168947Y-66250000D02*
X141442583Y-65976364D01*
X138300000Y-66250000D02*
X141168947Y-66250000D01*
X149750000Y-53289998D02*
X149399586Y-52939584D01*
X149750000Y-54300000D02*
X149750000Y-53289998D01*
X149399586Y-52939584D02*
X149399586Y-52754264D01*
X149399586Y-52754264D02*
X149399586Y-52330000D01*
X149250000Y-54300000D02*
X149250000Y-55705320D01*
X149250000Y-55705320D02*
X149434669Y-55889989D01*
X149434669Y-55889989D02*
X149734668Y-56189988D01*
X113950000Y-80000000D02*
X114547534Y-80000000D01*
X114547534Y-80000000D02*
X114865405Y-80317871D01*
X114865405Y-80317871D02*
X115982129Y-80317871D01*
X115982129Y-80317871D02*
X116100000Y-80200000D01*
X117399264Y-81075000D02*
X117399264Y-83173736D01*
X117399264Y-83173736D02*
X117390000Y-83183000D01*
X113950000Y-81250000D02*
X114550000Y-81250000D01*
X114550000Y-81250000D02*
X114958780Y-80841220D01*
X114958780Y-80841220D02*
X115916220Y-80841220D01*
X115916220Y-80841220D02*
X116100000Y-81025000D01*
X117399264Y-80150000D02*
X117399264Y-78239264D01*
X117399264Y-78239264D02*
X117390000Y-78230000D01*
X117840000Y-43240000D02*
X117840000Y-45440000D01*
X117840000Y-45440000D02*
X121000000Y-48600000D01*
X109450000Y-35500000D02*
X110100000Y-35500000D01*
X110100000Y-35500000D02*
X117840000Y-43240000D01*
X121000000Y-48600000D02*
X121700000Y-49300000D01*
X121000000Y-46250000D02*
X121000000Y-48600000D01*
X121575000Y-49300000D02*
X121700000Y-49300000D01*
M02*
