G04 #@! TF.FileFunction,Copper,L3,Inr,Mixed*
%FSLAX46Y46*%
G04 Gerber Fmt 4.6, Leading zero omitted, Abs format (unit mm)*
G04 Created by KiCad (PCBNEW 4.0.4-stable) date Thursday, April 19, 2018 'PMt' 11:46:15 PM*
%MOMM*%
%LPD*%
G01*
G04 APERTURE LIST*
%ADD10C,0.100000*%
%ADD11C,6.350000*%
%ADD12C,1.900000*%
%ADD13C,1.720000*%
%ADD14C,1.524000*%
%ADD15O,2.200000X1.950000*%
%ADD16O,2.000000X1.700000*%
%ADD17C,1.050000*%
%ADD18C,0.600000*%
%ADD19C,0.250000*%
%ADD20C,0.400000*%
%ADD21C,0.254000*%
G04 APERTURE END LIST*
D10*
D11*
X190810000Y-105090000D03*
D12*
X124000000Y-106000000D03*
X124000000Y-103460000D03*
X124000000Y-100920000D03*
D13*
X183190000Y-25710000D03*
X183190000Y-28250000D03*
X183190000Y-30790000D03*
X183190000Y-33330000D03*
X183190000Y-35870000D03*
X183190000Y-38410000D03*
X183190000Y-40950000D03*
X183190000Y-43490000D03*
X183190000Y-46030000D03*
X183190000Y-48570000D03*
X183190000Y-51110000D03*
X183190000Y-53650000D03*
X183190000Y-56190000D03*
X183190000Y-58730000D03*
X183190000Y-61270000D03*
X183190000Y-63810000D03*
X183190000Y-66350000D03*
X183190000Y-68890000D03*
X183190000Y-71430000D03*
X183190000Y-73970000D03*
X183190000Y-76510000D03*
X183190000Y-79050000D03*
X183190000Y-81590000D03*
X183190000Y-84130000D03*
X183190000Y-86670000D03*
X183190000Y-89210000D03*
X183190000Y-91750000D03*
X183190000Y-94290000D03*
X183190000Y-96830000D03*
X183190000Y-99370000D03*
X183190000Y-101910000D03*
X183190000Y-104450000D03*
X185730000Y-25710000D03*
X185730000Y-28250000D03*
X185730000Y-30790000D03*
X185730000Y-33330000D03*
X185730000Y-35870000D03*
X185730000Y-38410000D03*
X185730000Y-40950000D03*
X185730000Y-43490000D03*
X185730000Y-46030000D03*
X185730000Y-48570000D03*
X185730000Y-51110000D03*
X185730000Y-53650000D03*
X185730000Y-56190000D03*
X185730000Y-58730000D03*
X185730000Y-61270000D03*
X185730000Y-63810000D03*
X185730000Y-66350000D03*
X185730000Y-68890000D03*
X185730000Y-71430000D03*
X185730000Y-73970000D03*
X185730000Y-76510000D03*
X185730000Y-79050000D03*
X185730000Y-81590000D03*
X185730000Y-84130000D03*
X185730000Y-86670000D03*
X185730000Y-89210000D03*
X185730000Y-91750000D03*
X185730000Y-94290000D03*
X185730000Y-96830000D03*
X185730000Y-99370000D03*
X185730000Y-101910000D03*
X185730000Y-104450000D03*
D12*
X141732000Y-103632000D03*
X141732000Y-106172000D03*
X163000000Y-107000000D03*
X160460000Y-107000000D03*
X157920000Y-107000000D03*
X130302000Y-107188000D03*
X132842000Y-107188000D03*
X118420000Y-107300000D03*
X115880000Y-107300000D03*
D14*
X104500000Y-83200000D03*
X104500000Y-78800000D03*
D12*
X117500000Y-29520000D03*
X117500000Y-26980000D03*
X117500000Y-24440000D03*
X117500000Y-32060000D03*
X134540000Y-25075000D03*
X132000000Y-25075000D03*
X129460000Y-25075000D03*
X144120000Y-25000000D03*
X146660000Y-25000000D03*
X149200000Y-25000000D03*
X104340000Y-71310000D03*
X106880000Y-71310000D03*
X108500000Y-42500000D03*
X108500000Y-39960000D03*
D14*
X154520000Y-47050000D03*
X170250000Y-66040000D03*
X133650000Y-40350000D03*
X138600000Y-50200000D03*
X130550000Y-44870000D03*
X127380000Y-61400000D03*
X132360000Y-51480000D03*
X121000000Y-46250000D03*
D12*
X104230000Y-47000000D03*
X106770000Y-47000000D03*
D11*
X105080000Y-27620000D03*
X105080000Y-101280000D03*
X190810000Y-25080000D03*
D12*
X150622000Y-107188000D03*
X150622000Y-104648000D03*
D15*
X165000000Y-45000000D03*
X165000000Y-25000000D03*
D16*
X165000000Y-40000000D03*
X165000000Y-30000000D03*
D17*
X105000000Y-63540000D03*
X105000000Y-62270000D03*
X105000000Y-61000000D03*
X105000000Y-59730000D03*
X105000000Y-58460000D03*
X103730000Y-63540000D03*
X103730000Y-62270000D03*
X103730000Y-61000000D03*
X103730000Y-59730000D03*
X103730000Y-58460000D03*
D14*
X159010000Y-100180000D03*
D12*
X104230000Y-51000000D03*
X106770000Y-51000000D03*
D14*
X111840000Y-45490000D03*
D18*
X165213703Y-63133639D03*
X149399586Y-51050000D03*
X145304707Y-49636026D03*
X135315166Y-58092706D03*
X133999983Y-69983592D03*
X135700000Y-82900000D03*
X155956000Y-93980000D03*
X134672684Y-72092921D03*
X157997465Y-78616963D03*
X135130000Y-64320000D03*
X162800000Y-68470000D03*
X150610000Y-48903970D03*
X173270000Y-56070000D03*
X132131655Y-44540975D03*
X129280000Y-40490000D03*
X124765018Y-93154982D03*
X106270000Y-62270000D03*
X114460000Y-91740000D03*
X173170000Y-64340000D03*
X145510000Y-96250000D03*
X147560000Y-96250000D03*
X142670298Y-48756071D03*
X139600894Y-49128749D03*
X133135264Y-62619826D03*
X128550000Y-53630000D03*
X133239433Y-68420566D03*
X122718827Y-50283768D03*
X143735010Y-48808134D03*
X132970000Y-61580000D03*
X111497067Y-70158608D03*
X106270000Y-61040000D03*
X142691320Y-81689238D03*
X141952924Y-81275289D03*
X134135010Y-74128998D03*
X129480000Y-90160000D03*
X121280000Y-103260000D03*
X153162000Y-96266000D03*
X137830000Y-92560000D03*
X165091002Y-67476117D03*
X154241744Y-80364004D03*
X165005360Y-68606778D03*
X165875815Y-68817044D03*
X164501194Y-57159447D03*
X156817223Y-77226570D03*
X150546842Y-77527153D03*
X164603987Y-58381605D03*
X155357698Y-80499445D03*
X129770000Y-48660000D03*
X127140000Y-47210000D03*
X133100000Y-70790000D03*
X133000000Y-58800000D03*
X164040000Y-64420000D03*
X150060000Y-40940000D03*
X140280000Y-40810000D03*
X119760000Y-38240000D03*
X121450000Y-61020000D03*
X110809885Y-55749348D03*
X111537875Y-86896960D03*
X113028111Y-85089137D03*
X111880000Y-74970000D03*
X108610000Y-74010000D03*
X110600000Y-74110000D03*
X119993505Y-85230887D03*
X111000000Y-83800000D03*
X111000000Y-77300000D03*
X118548521Y-76098232D03*
X109377085Y-82609551D03*
X114450000Y-85880000D03*
X175800000Y-66600000D03*
X175800000Y-64400000D03*
X128300000Y-74740000D03*
X128300000Y-73770000D03*
X124923501Y-75346058D03*
X124977567Y-77407051D03*
X104500009Y-37320000D03*
X110390000Y-64300000D03*
X128090000Y-67480000D03*
X170130000Y-56750000D03*
X163039162Y-56375010D03*
X145110000Y-32150000D03*
X119441007Y-104428973D03*
X151080000Y-98550000D03*
X147067473Y-41924234D03*
X141033922Y-48282383D03*
X125890161Y-39914990D03*
X136049234Y-60893309D03*
X135787670Y-67374790D03*
X135105017Y-31796872D03*
X124090000Y-26360000D03*
X165058631Y-71755498D03*
X134874000Y-98806000D03*
X152400000Y-78486000D03*
X136630000Y-40870000D03*
X133096000Y-99060000D03*
X141046261Y-82064873D03*
X138590000Y-46650000D03*
X129286000Y-102870000D03*
X163196176Y-60349925D03*
X148316325Y-47242425D03*
X145335664Y-47111885D03*
X141195964Y-47035737D03*
X157970000Y-45420000D03*
X137260000Y-49410000D03*
X132806478Y-93955078D03*
X132820000Y-96110000D03*
X139787438Y-92615071D03*
X141060000Y-78050000D03*
X189420000Y-93770000D03*
X139980781Y-91838774D03*
X141859843Y-78033600D03*
X188350000Y-92870000D03*
X137225930Y-87960172D03*
X139890000Y-78050000D03*
X137644189Y-89962072D03*
X136059988Y-72114429D03*
X131880000Y-46200000D03*
X173344234Y-69713470D03*
X136710000Y-67700000D03*
X140907774Y-68359030D03*
X172604600Y-73407898D03*
X142353098Y-73860422D03*
X171354589Y-72605755D03*
X141335314Y-74068034D03*
X169493351Y-74012138D03*
X120040000Y-75560000D03*
X120040000Y-76840000D03*
X167590000Y-75230000D03*
X168600114Y-75233580D03*
X146763681Y-74555010D03*
X164629867Y-75471476D03*
X163150000Y-66240000D03*
X161857080Y-65914989D03*
X161103344Y-65464978D03*
X112670000Y-105970000D03*
X114868467Y-97555031D03*
X118380000Y-98990000D03*
X158710000Y-97920000D03*
X157750000Y-56470000D03*
X145899260Y-51683449D03*
X134940022Y-45135173D03*
X134872062Y-47108213D03*
X144068607Y-52795577D03*
X132158017Y-47672638D03*
X129410000Y-42990000D03*
X124740000Y-40540000D03*
X155730000Y-71755498D03*
X144842663Y-51799433D03*
X137388051Y-51811949D03*
X144840000Y-39370000D03*
X142990000Y-37530000D03*
X129670000Y-28910000D03*
X129630000Y-27150000D03*
X148381350Y-48229033D03*
X148830000Y-32830000D03*
X157950000Y-58390000D03*
X158380000Y-71010000D03*
X134737873Y-66107874D03*
X132150000Y-53670000D03*
X134060000Y-37770000D03*
X124791948Y-39258052D03*
X141249988Y-51171990D03*
X118274773Y-58469633D03*
X119694118Y-58062521D03*
X136084990Y-57875010D03*
X134948443Y-55303960D03*
X120231741Y-57384532D03*
X118423416Y-57683551D03*
X129930000Y-92980000D03*
X147574000Y-77470000D03*
X129098432Y-64173212D03*
X119940000Y-50690000D03*
X143238701Y-69248322D03*
X128310811Y-57406519D03*
X126240000Y-53620000D03*
X132344612Y-65039698D03*
X131080000Y-53460000D03*
X122184184Y-75364080D03*
X121290012Y-76990000D03*
X173418170Y-74801039D03*
X180725001Y-82884271D03*
X144350000Y-74140000D03*
X174481901Y-55269535D03*
X141503833Y-67598959D03*
X175573504Y-54756479D03*
X140439555Y-66964919D03*
X178100000Y-57600000D03*
X177000000Y-58600000D03*
X181406039Y-77213961D03*
X166776296Y-55807635D03*
X141715912Y-55834651D03*
X149052204Y-49152994D03*
X146258281Y-49347044D03*
X145785459Y-50690239D03*
X170653710Y-73965273D03*
X143145238Y-73972377D03*
X167751817Y-68473966D03*
X148510216Y-56847951D03*
X146935776Y-76987621D03*
X140290846Y-91046393D03*
X141442583Y-64905699D03*
X168048528Y-61294979D03*
X141442583Y-65976364D03*
X167654473Y-61995523D03*
X149399586Y-52330000D03*
X149734668Y-56189988D03*
X117399264Y-81075000D03*
X116100000Y-80200000D03*
X117399264Y-80150000D03*
X116100000Y-81025000D03*
D19*
X164230064Y-62150000D02*
X164913704Y-62833640D01*
X157950000Y-62150000D02*
X164230064Y-62150000D01*
X165213703Y-63557903D02*
X165213703Y-63133639D01*
X165213703Y-66056297D02*
X165213703Y-63557903D01*
X162800000Y-68470000D02*
X165213703Y-66056297D01*
X164913704Y-62833640D02*
X165213703Y-63133639D01*
X147994588Y-52454998D02*
X149099587Y-51349999D01*
X147210000Y-52454998D02*
X147994588Y-52454998D01*
X149099587Y-51349999D02*
X149399586Y-51050000D01*
X145630478Y-49961797D02*
X145604706Y-49936025D01*
X147210000Y-51026283D02*
X146145514Y-49961797D01*
X145604706Y-49936025D02*
X145304707Y-49636026D01*
X147210000Y-52454998D02*
X147210000Y-51026283D01*
X146145514Y-49961797D02*
X145630478Y-49961797D01*
X135848609Y-57134999D02*
X135315166Y-57668442D01*
X139584999Y-57134999D02*
X135848609Y-57134999D01*
X135315166Y-57668442D02*
X135315166Y-58092706D01*
X140280000Y-57830000D02*
X139584999Y-57134999D01*
X132060000Y-67814264D02*
X132060000Y-68467873D01*
X135130000Y-64744264D02*
X132060000Y-67814264D01*
X135130000Y-64320000D02*
X135130000Y-64744264D01*
X133575719Y-69983592D02*
X133999983Y-69983592D01*
X132060000Y-68467873D02*
X133575719Y-69983592D01*
X134672684Y-72092921D02*
X133999983Y-71420220D01*
X133999983Y-71420220D02*
X133999983Y-70407856D01*
X133999983Y-70407856D02*
X133999983Y-69983592D01*
X135130000Y-64320000D02*
X139602971Y-64320000D01*
X139602971Y-64320000D02*
X140030085Y-63892886D01*
X140030085Y-63892886D02*
X140030085Y-58079915D01*
X140030085Y-58079915D02*
X140280000Y-57830000D01*
D20*
X157997465Y-78616963D02*
X159600526Y-80220024D01*
X159600526Y-80220024D02*
X159600526Y-90335474D01*
X159600526Y-90335474D02*
X155956000Y-93980000D01*
D19*
X140280000Y-57830000D02*
X145811634Y-57830000D01*
X145811634Y-57830000D02*
X147210000Y-56431634D01*
X147210000Y-56431634D02*
X148608366Y-57830000D01*
X153630000Y-57830000D02*
X157950000Y-62150000D01*
X148608366Y-57830000D02*
X153630000Y-57830000D01*
X147210000Y-52454998D02*
X147210000Y-56431634D01*
X135770000Y-76740000D02*
X135770000Y-82830000D01*
X135770000Y-82830000D02*
X135700000Y-82900000D01*
X133510000Y-74480000D02*
X135770000Y-76740000D01*
X133510000Y-72831341D02*
X133510000Y-74480000D01*
X134248420Y-72092921D02*
X133510000Y-72831341D01*
X134672684Y-72092921D02*
X134248420Y-72092921D01*
X157997465Y-71552467D02*
X157997465Y-78192699D01*
X157997465Y-78192699D02*
X157997465Y-78616963D01*
X157754999Y-70709999D02*
X157754999Y-71310001D01*
X157754999Y-71310001D02*
X157997465Y-71552467D01*
X157997465Y-70467533D02*
X157754999Y-70709999D01*
X157997465Y-62197465D02*
X157997465Y-70467533D01*
X157950000Y-62150000D02*
X157997465Y-62197465D01*
D20*
X109530000Y-73040000D02*
X109530000Y-73090000D01*
X109530000Y-73090000D02*
X108610000Y-74010000D01*
X109530000Y-58930000D02*
X109530000Y-73040000D01*
X109530000Y-73040000D02*
X110600000Y-74110000D01*
X104230000Y-53630000D02*
X109530000Y-58930000D01*
X104230000Y-51000000D02*
X104230000Y-53630000D01*
D19*
X139487439Y-92315072D02*
X139787438Y-92615071D01*
X141060000Y-78050000D02*
X138398327Y-80711673D01*
X138398327Y-80711673D02*
X138398327Y-91225960D01*
X138398327Y-91225960D02*
X139487439Y-92315072D01*
X141859843Y-78033600D02*
X141859843Y-78457864D01*
X141859843Y-78457864D02*
X138978575Y-81339132D01*
X138978575Y-81339132D02*
X138978575Y-90836568D01*
X138978575Y-90836568D02*
X139680782Y-91538775D01*
X139680782Y-91538775D02*
X139980781Y-91838774D01*
X137225930Y-87535908D02*
X137225930Y-87960172D01*
X139890000Y-78050000D02*
X137225930Y-80714070D01*
X137225930Y-80714070D02*
X137225930Y-87535908D01*
X136359987Y-88677870D02*
X137644189Y-89962072D01*
X136059988Y-72114429D02*
X136359987Y-72414428D01*
X136359987Y-72414428D02*
X136359987Y-88677870D01*
D20*
X106770000Y-43820000D02*
X108120001Y-45170001D01*
X108120001Y-45170001D02*
X108120001Y-49649999D01*
X108120001Y-49649999D02*
X107719999Y-50050001D01*
X107719999Y-50050001D02*
X106770000Y-51000000D01*
X106770000Y-33171998D02*
X106770000Y-43820000D01*
X183190000Y-99370000D02*
X184450001Y-100630001D01*
X184450001Y-100630001D02*
X188193168Y-100630001D01*
X188193168Y-100630001D02*
X192126379Y-96696790D01*
X192126379Y-36904278D02*
X187292100Y-32069999D01*
X187292100Y-32069999D02*
X184450001Y-32069999D01*
X184450001Y-32069999D02*
X184049999Y-32470001D01*
X192126379Y-96696790D02*
X192126379Y-36904278D01*
X184049999Y-32470001D02*
X183190000Y-33330000D01*
X181000000Y-31140000D02*
X181000000Y-24500000D01*
X181000000Y-24500000D02*
X178000000Y-21500000D01*
X183190000Y-33330000D02*
X181000000Y-31140000D01*
X178000000Y-21500000D02*
X118441998Y-21500000D01*
X118441998Y-21500000D02*
X106770000Y-33171998D01*
D19*
X140290846Y-91046393D02*
X140290846Y-86325858D01*
X140290846Y-86325858D02*
X146935776Y-79680928D01*
X146935776Y-79680928D02*
X146935776Y-77411885D01*
X146935776Y-77411885D02*
X146935776Y-76987621D01*
X116100000Y-80200000D02*
X116524264Y-80200000D01*
X116524264Y-80200000D02*
X116649265Y-80325001D01*
X116649265Y-80325001D02*
X117399264Y-81075000D01*
D21*
G36*
X195205000Y-109485000D02*
X100685000Y-109485000D01*
X100685000Y-107613893D01*
X114294725Y-107613893D01*
X114535519Y-108196657D01*
X114980997Y-108642914D01*
X115563341Y-108884724D01*
X116193893Y-108885275D01*
X116776657Y-108644481D01*
X117150261Y-108271529D01*
X117520997Y-108642914D01*
X118103341Y-108884724D01*
X118733893Y-108885275D01*
X119316657Y-108644481D01*
X119762914Y-108199003D01*
X120004724Y-107616659D01*
X120005275Y-106986107D01*
X119764481Y-106403343D01*
X119319003Y-105957086D01*
X118736659Y-105715276D01*
X118106107Y-105714725D01*
X117523343Y-105955519D01*
X117149739Y-106328471D01*
X116779003Y-105957086D01*
X116196659Y-105715276D01*
X115566107Y-105714725D01*
X114983343Y-105955519D01*
X114537086Y-106400997D01*
X114295276Y-106983341D01*
X114294725Y-107613893D01*
X100685000Y-107613893D01*
X100685000Y-106155167D01*
X111734838Y-106155167D01*
X111876883Y-106498943D01*
X112139673Y-106762192D01*
X112483201Y-106904838D01*
X112855167Y-106905162D01*
X113198943Y-106763117D01*
X113462192Y-106500327D01*
X113604838Y-106156799D01*
X113605162Y-105784833D01*
X113463117Y-105441057D01*
X113200327Y-105177808D01*
X112856799Y-105035162D01*
X112484833Y-105034838D01*
X112141057Y-105176883D01*
X111877808Y-105439673D01*
X111735162Y-105783201D01*
X111734838Y-106155167D01*
X100685000Y-106155167D01*
X100685000Y-102034531D01*
X101269340Y-102034531D01*
X101848156Y-103435372D01*
X102918991Y-104508077D01*
X104318819Y-105089337D01*
X105834531Y-105090660D01*
X107235372Y-104511844D01*
X108303911Y-103445167D01*
X120344838Y-103445167D01*
X120486883Y-103788943D01*
X120749673Y-104052192D01*
X121093201Y-104194838D01*
X121465167Y-104195162D01*
X121808943Y-104053117D01*
X122072192Y-103790327D01*
X122214838Y-103446799D01*
X122215162Y-103074833D01*
X122073117Y-102731057D01*
X121810327Y-102467808D01*
X121466799Y-102325162D01*
X121094833Y-102324838D01*
X120751057Y-102466883D01*
X120487808Y-102729673D01*
X120345162Y-103073201D01*
X120344838Y-103445167D01*
X108303911Y-103445167D01*
X108308077Y-103441009D01*
X108889337Y-102041181D01*
X108890041Y-101233893D01*
X122414725Y-101233893D01*
X122655519Y-101816657D01*
X123028471Y-102190261D01*
X122657086Y-102560997D01*
X122415276Y-103143341D01*
X122414725Y-103773893D01*
X122655519Y-104356657D01*
X123028471Y-104730261D01*
X122657086Y-105100997D01*
X122415276Y-105683341D01*
X122414725Y-106313893D01*
X122655519Y-106896657D01*
X123100997Y-107342914D01*
X123683341Y-107584724D01*
X124313893Y-107585275D01*
X124515692Y-107501893D01*
X128716725Y-107501893D01*
X128957519Y-108084657D01*
X129402997Y-108530914D01*
X129985341Y-108772724D01*
X130615893Y-108773275D01*
X131198657Y-108532481D01*
X131572261Y-108159529D01*
X131942997Y-108530914D01*
X132525341Y-108772724D01*
X133155893Y-108773275D01*
X133738657Y-108532481D01*
X133967186Y-108304350D01*
X149685255Y-108304350D01*
X149777792Y-108566019D01*
X150369398Y-108784188D01*
X150999461Y-108759352D01*
X151466208Y-108566019D01*
X151558745Y-108304350D01*
X150622000Y-107367605D01*
X149685255Y-108304350D01*
X133967186Y-108304350D01*
X134184914Y-108087003D01*
X134426724Y-107504659D01*
X134427275Y-106874107D01*
X134186481Y-106291343D01*
X133741003Y-105845086D01*
X133158659Y-105603276D01*
X132528107Y-105602725D01*
X131945343Y-105843519D01*
X131571739Y-106216471D01*
X131201003Y-105845086D01*
X130618659Y-105603276D01*
X129988107Y-105602725D01*
X129405343Y-105843519D01*
X128959086Y-106288997D01*
X128717276Y-106871341D01*
X128716725Y-107501893D01*
X124515692Y-107501893D01*
X124896657Y-107344481D01*
X125342914Y-106899003D01*
X125584724Y-106316659D01*
X125585275Y-105686107D01*
X125344481Y-105103343D01*
X124971529Y-104729739D01*
X125342914Y-104359003D01*
X125514452Y-103945893D01*
X140146725Y-103945893D01*
X140387519Y-104528657D01*
X140760471Y-104902261D01*
X140389086Y-105272997D01*
X140147276Y-105855341D01*
X140146725Y-106485893D01*
X140387519Y-107068657D01*
X140832997Y-107514914D01*
X141415341Y-107756724D01*
X142045893Y-107757275D01*
X142628657Y-107516481D01*
X143074914Y-107071003D01*
X143131222Y-106935398D01*
X149025812Y-106935398D01*
X149050648Y-107565461D01*
X149243981Y-108032208D01*
X149505650Y-108124745D01*
X150442395Y-107188000D01*
X150801605Y-107188000D01*
X151738350Y-108124745D01*
X151762088Y-108116350D01*
X156983255Y-108116350D01*
X157075792Y-108378019D01*
X157667398Y-108596188D01*
X158297461Y-108571352D01*
X158764208Y-108378019D01*
X158856745Y-108116350D01*
X157920000Y-107179605D01*
X156983255Y-108116350D01*
X151762088Y-108116350D01*
X152000019Y-108032208D01*
X152218188Y-107440602D01*
X152193352Y-106810539D01*
X152167199Y-106747398D01*
X156323812Y-106747398D01*
X156348648Y-107377461D01*
X156541981Y-107844208D01*
X156803650Y-107936745D01*
X157740395Y-107000000D01*
X158099605Y-107000000D01*
X159036350Y-107936745D01*
X159124439Y-107905593D01*
X159560997Y-108342914D01*
X160143341Y-108584724D01*
X160773893Y-108585275D01*
X161356657Y-108344481D01*
X161730261Y-107971529D01*
X162100997Y-108342914D01*
X162683341Y-108584724D01*
X163313893Y-108585275D01*
X163896657Y-108344481D01*
X164342914Y-107899003D01*
X164584724Y-107316659D01*
X164585275Y-106686107D01*
X164344481Y-106103343D01*
X163899003Y-105657086D01*
X163316659Y-105415276D01*
X162686107Y-105414725D01*
X162103343Y-105655519D01*
X161729739Y-106028471D01*
X161359003Y-105657086D01*
X160776659Y-105415276D01*
X160146107Y-105414725D01*
X159563343Y-105655519D01*
X159123884Y-106094211D01*
X159036350Y-106063255D01*
X158099605Y-107000000D01*
X157740395Y-107000000D01*
X156803650Y-106063255D01*
X156541981Y-106155792D01*
X156323812Y-106747398D01*
X152167199Y-106747398D01*
X152000019Y-106343792D01*
X151738350Y-106251255D01*
X150801605Y-107188000D01*
X150442395Y-107188000D01*
X149505650Y-106251255D01*
X149243981Y-106343792D01*
X149025812Y-106935398D01*
X143131222Y-106935398D01*
X143316724Y-106488659D01*
X143317275Y-105858107D01*
X143076481Y-105275343D01*
X142763579Y-104961893D01*
X149036725Y-104961893D01*
X149277519Y-105544657D01*
X149716211Y-105984116D01*
X149685255Y-106071650D01*
X150622000Y-107008395D01*
X151558745Y-106071650D01*
X151527593Y-105983561D01*
X151627678Y-105883650D01*
X156983255Y-105883650D01*
X157920000Y-106820395D01*
X158856745Y-105883650D01*
X158764208Y-105621981D01*
X158172602Y-105403812D01*
X157542539Y-105428648D01*
X157075792Y-105621981D01*
X156983255Y-105883650D01*
X151627678Y-105883650D01*
X151964914Y-105547003D01*
X152206724Y-104964659D01*
X152207275Y-104334107D01*
X151966481Y-103751343D01*
X151521003Y-103305086D01*
X150938659Y-103063276D01*
X150308107Y-103062725D01*
X149725343Y-103303519D01*
X149279086Y-103748997D01*
X149037276Y-104331341D01*
X149036725Y-104961893D01*
X142763579Y-104961893D01*
X142703529Y-104901739D01*
X143074914Y-104531003D01*
X143316724Y-103948659D01*
X143317275Y-103318107D01*
X143076481Y-102735343D01*
X142631003Y-102289086D01*
X142048659Y-102047276D01*
X141418107Y-102046725D01*
X140835343Y-102287519D01*
X140389086Y-102732997D01*
X140147276Y-103315341D01*
X140146725Y-103945893D01*
X125514452Y-103945893D01*
X125584724Y-103776659D01*
X125585275Y-103146107D01*
X125344481Y-102563343D01*
X124971529Y-102189739D01*
X125342914Y-101819003D01*
X125584724Y-101236659D01*
X125585275Y-100606107D01*
X125523525Y-100456661D01*
X157612758Y-100456661D01*
X157824990Y-100970303D01*
X158217630Y-101363629D01*
X158730900Y-101576757D01*
X159286661Y-101577242D01*
X159800303Y-101365010D01*
X160193629Y-100972370D01*
X160406757Y-100459100D01*
X160407242Y-99903339D01*
X160195010Y-99389697D01*
X159802370Y-98996371D01*
X159289100Y-98783243D01*
X159069688Y-98783052D01*
X159238943Y-98713117D01*
X159502192Y-98450327D01*
X159644838Y-98106799D01*
X159645162Y-97734833D01*
X159503117Y-97391057D01*
X159240327Y-97127808D01*
X158896799Y-96985162D01*
X158524833Y-96984838D01*
X158181057Y-97126883D01*
X157917808Y-97389673D01*
X157775162Y-97733201D01*
X157774838Y-98105167D01*
X157916883Y-98448943D01*
X158179673Y-98712192D01*
X158523201Y-98854838D01*
X158558817Y-98854869D01*
X158219697Y-98994990D01*
X157826371Y-99387630D01*
X157613243Y-99900900D01*
X157612758Y-100456661D01*
X125523525Y-100456661D01*
X125344481Y-100023343D01*
X124899003Y-99577086D01*
X124316659Y-99335276D01*
X123686107Y-99334725D01*
X123103343Y-99575519D01*
X122657086Y-100020997D01*
X122415276Y-100603341D01*
X122414725Y-101233893D01*
X108890041Y-101233893D01*
X108890660Y-100525469D01*
X108332727Y-99175167D01*
X117444838Y-99175167D01*
X117586883Y-99518943D01*
X117849673Y-99782192D01*
X118193201Y-99924838D01*
X118565167Y-99925162D01*
X118908943Y-99783117D01*
X119172192Y-99520327D01*
X119314838Y-99176799D01*
X119315162Y-98804833D01*
X119173117Y-98461057D01*
X118910327Y-98197808D01*
X118566799Y-98055162D01*
X118194833Y-98054838D01*
X117851057Y-98196883D01*
X117587808Y-98459673D01*
X117445162Y-98803201D01*
X117444838Y-99175167D01*
X108332727Y-99175167D01*
X108311844Y-99124628D01*
X107241009Y-98051923D01*
X106490293Y-97740198D01*
X113933305Y-97740198D01*
X114075350Y-98083974D01*
X114338140Y-98347223D01*
X114681668Y-98489869D01*
X115053634Y-98490193D01*
X115397410Y-98348148D01*
X115660659Y-98085358D01*
X115803305Y-97741830D01*
X115803629Y-97369864D01*
X115661584Y-97026088D01*
X115398794Y-96762839D01*
X115055266Y-96620193D01*
X114683300Y-96619869D01*
X114339524Y-96761914D01*
X114076275Y-97024704D01*
X113933629Y-97368232D01*
X113933305Y-97740198D01*
X106490293Y-97740198D01*
X105841181Y-97470663D01*
X104325469Y-97469340D01*
X102924628Y-98048156D01*
X101851923Y-99118991D01*
X101270663Y-100518819D01*
X101269340Y-102034531D01*
X100685000Y-102034531D01*
X100685000Y-96295167D01*
X131884838Y-96295167D01*
X132026883Y-96638943D01*
X132289673Y-96902192D01*
X132633201Y-97044838D01*
X133005167Y-97045162D01*
X133348943Y-96903117D01*
X133612192Y-96640327D01*
X133697382Y-96435167D01*
X144574838Y-96435167D01*
X144716883Y-96778943D01*
X144979673Y-97042192D01*
X145323201Y-97184838D01*
X145695167Y-97185162D01*
X146038943Y-97043117D01*
X146302192Y-96780327D01*
X146444838Y-96436799D01*
X146444839Y-96435167D01*
X146624838Y-96435167D01*
X146766883Y-96778943D01*
X147029673Y-97042192D01*
X147373201Y-97184838D01*
X147745167Y-97185162D01*
X148088943Y-97043117D01*
X148352192Y-96780327D01*
X148488871Y-96451167D01*
X152226838Y-96451167D01*
X152368883Y-96794943D01*
X152631673Y-97058192D01*
X152975201Y-97200838D01*
X153347167Y-97201162D01*
X153690943Y-97059117D01*
X153954192Y-96796327D01*
X154096838Y-96452799D01*
X154097162Y-96080833D01*
X153955117Y-95737057D01*
X153692327Y-95473808D01*
X153348799Y-95331162D01*
X152976833Y-95330838D01*
X152633057Y-95472883D01*
X152369808Y-95735673D01*
X152227162Y-96079201D01*
X152226838Y-96451167D01*
X148488871Y-96451167D01*
X148494838Y-96436799D01*
X148495162Y-96064833D01*
X148353117Y-95721057D01*
X148090327Y-95457808D01*
X147746799Y-95315162D01*
X147374833Y-95314838D01*
X147031057Y-95456883D01*
X146767808Y-95719673D01*
X146625162Y-96063201D01*
X146624838Y-96435167D01*
X146444839Y-96435167D01*
X146445162Y-96064833D01*
X146303117Y-95721057D01*
X146040327Y-95457808D01*
X145696799Y-95315162D01*
X145324833Y-95314838D01*
X144981057Y-95456883D01*
X144717808Y-95719673D01*
X144575162Y-96063201D01*
X144574838Y-96435167D01*
X133697382Y-96435167D01*
X133754838Y-96296799D01*
X133755162Y-95924833D01*
X133613117Y-95581057D01*
X133350327Y-95317808D01*
X133006799Y-95175162D01*
X132634833Y-95174838D01*
X132291057Y-95316883D01*
X132027808Y-95579673D01*
X131885162Y-95923201D01*
X131884838Y-96295167D01*
X100685000Y-96295167D01*
X100685000Y-94140245D01*
X131871316Y-94140245D01*
X132013361Y-94484021D01*
X132276151Y-94747270D01*
X132619679Y-94889916D01*
X132991645Y-94890240D01*
X133335421Y-94748195D01*
X133598670Y-94485405D01*
X133741316Y-94141877D01*
X133741640Y-93769911D01*
X133599595Y-93426135D01*
X133336805Y-93162886D01*
X132993277Y-93020240D01*
X132621311Y-93019916D01*
X132277535Y-93161961D01*
X132014286Y-93424751D01*
X131871640Y-93768279D01*
X131871316Y-94140245D01*
X100685000Y-94140245D01*
X100685000Y-93340149D01*
X123829856Y-93340149D01*
X123971901Y-93683925D01*
X124234691Y-93947174D01*
X124578219Y-94089820D01*
X124950185Y-94090144D01*
X125293961Y-93948099D01*
X125557210Y-93685309D01*
X125699856Y-93341781D01*
X125700009Y-93165167D01*
X128994838Y-93165167D01*
X129136883Y-93508943D01*
X129399673Y-93772192D01*
X129743201Y-93914838D01*
X130115167Y-93915162D01*
X130458943Y-93773117D01*
X130722192Y-93510327D01*
X130864838Y-93166799D01*
X130865162Y-92794833D01*
X130723117Y-92451057D01*
X130460327Y-92187808D01*
X130116799Y-92045162D01*
X129744833Y-92044838D01*
X129401057Y-92186883D01*
X129137808Y-92449673D01*
X128995162Y-92793201D01*
X128994838Y-93165167D01*
X125700009Y-93165167D01*
X125700180Y-92969815D01*
X125558135Y-92626039D01*
X125295345Y-92362790D01*
X124951817Y-92220144D01*
X124579851Y-92219820D01*
X124236075Y-92361865D01*
X123972826Y-92624655D01*
X123830180Y-92968183D01*
X123829856Y-93340149D01*
X100685000Y-93340149D01*
X100685000Y-91925167D01*
X113524838Y-91925167D01*
X113666883Y-92268943D01*
X113929673Y-92532192D01*
X114273201Y-92674838D01*
X114645167Y-92675162D01*
X114988943Y-92533117D01*
X115252192Y-92270327D01*
X115394838Y-91926799D01*
X115395162Y-91554833D01*
X115253117Y-91211057D01*
X114990327Y-90947808D01*
X114646799Y-90805162D01*
X114274833Y-90804838D01*
X113931057Y-90946883D01*
X113667808Y-91209673D01*
X113525162Y-91553201D01*
X113524838Y-91925167D01*
X100685000Y-91925167D01*
X100685000Y-90345167D01*
X128544838Y-90345167D01*
X128686883Y-90688943D01*
X128949673Y-90952192D01*
X129293201Y-91094838D01*
X129665167Y-91095162D01*
X130008943Y-90953117D01*
X130272192Y-90690327D01*
X130414838Y-90346799D01*
X130415162Y-89974833D01*
X130273117Y-89631057D01*
X130010327Y-89367808D01*
X129666799Y-89225162D01*
X129294833Y-89224838D01*
X128951057Y-89366883D01*
X128687808Y-89629673D01*
X128545162Y-89973201D01*
X128544838Y-90345167D01*
X100685000Y-90345167D01*
X100685000Y-89127000D01*
X126000000Y-89127000D01*
X126049410Y-89116994D01*
X126091035Y-89088553D01*
X126118315Y-89046159D01*
X126127000Y-89000000D01*
X126127000Y-72000000D01*
X126116994Y-71950590D01*
X126088553Y-71908965D01*
X126046159Y-71881685D01*
X126000000Y-71873000D01*
X110365000Y-71873000D01*
X110365000Y-70343775D01*
X110561905Y-70343775D01*
X110703950Y-70687551D01*
X110966740Y-70950800D01*
X111310268Y-71093446D01*
X111682234Y-71093770D01*
X112026010Y-70951725D01*
X112289259Y-70688935D01*
X112431905Y-70345407D01*
X112432229Y-69973441D01*
X112290184Y-69629665D01*
X112027394Y-69366416D01*
X111683866Y-69223770D01*
X111311900Y-69223446D01*
X110968124Y-69365491D01*
X110704875Y-69628281D01*
X110562229Y-69971809D01*
X110561905Y-70343775D01*
X110365000Y-70343775D01*
X110365000Y-67814264D01*
X131300000Y-67814264D01*
X131300000Y-68467873D01*
X131357852Y-68758712D01*
X131522599Y-69005274D01*
X132542608Y-70025283D01*
X132307808Y-70259673D01*
X132165162Y-70603201D01*
X132164838Y-70975167D01*
X132306883Y-71318943D01*
X132569673Y-71582192D01*
X132913201Y-71724838D01*
X133285167Y-71725162D01*
X133302479Y-71718009D01*
X133401033Y-71865506D01*
X132972599Y-72293940D01*
X132807852Y-72540502D01*
X132750000Y-72831341D01*
X132750000Y-74480000D01*
X132807852Y-74770839D01*
X132972599Y-75017401D01*
X135010000Y-77054802D01*
X135010000Y-82267659D01*
X134907808Y-82369673D01*
X134765162Y-82713201D01*
X134764838Y-83085167D01*
X134906883Y-83428943D01*
X135169673Y-83692192D01*
X135513201Y-83834838D01*
X135599987Y-83834914D01*
X135599987Y-88677870D01*
X135657839Y-88968709D01*
X135822586Y-89215271D01*
X136709067Y-90101752D01*
X136709027Y-90147239D01*
X136851072Y-90491015D01*
X137113862Y-90754264D01*
X137457390Y-90896910D01*
X137638327Y-90897068D01*
X137638327Y-91225960D01*
X137696179Y-91516799D01*
X137768440Y-91624946D01*
X137644833Y-91624838D01*
X137301057Y-91766883D01*
X137037808Y-92029673D01*
X136895162Y-92373201D01*
X136894838Y-92745167D01*
X137036883Y-93088943D01*
X137299673Y-93352192D01*
X137643201Y-93494838D01*
X138015167Y-93495162D01*
X138358943Y-93353117D01*
X138622192Y-93090327D01*
X138764838Y-92746799D01*
X138764907Y-92667342D01*
X138852316Y-92754751D01*
X138852276Y-92800238D01*
X138994321Y-93144014D01*
X139257111Y-93407263D01*
X139600639Y-93549909D01*
X139972605Y-93550233D01*
X140316381Y-93408188D01*
X140579630Y-93145398D01*
X140722276Y-92801870D01*
X140722600Y-92429904D01*
X140719523Y-92422458D01*
X140772973Y-92369101D01*
X140915619Y-92025573D01*
X140915865Y-91743602D01*
X141083038Y-91576720D01*
X141225684Y-91233192D01*
X141226008Y-90861226D01*
X141083963Y-90517450D01*
X141050846Y-90484275D01*
X141050846Y-86640660D01*
X143605718Y-84085788D01*
X141399752Y-86922030D01*
X141383006Y-86950590D01*
X141373000Y-87000000D01*
X141373000Y-89500000D01*
X141381685Y-89546159D01*
X141408965Y-89588553D01*
X141450590Y-89616994D01*
X141500000Y-89627000D01*
X157000000Y-89627000D01*
X157046159Y-89618315D01*
X157088553Y-89591035D01*
X157116994Y-89549410D01*
X157127000Y-89500000D01*
X157127000Y-87000000D01*
X157122684Y-86967174D01*
X157100248Y-86922030D01*
X152143581Y-80549171D01*
X153306582Y-80549171D01*
X153448627Y-80892947D01*
X153711417Y-81156196D01*
X154054945Y-81298842D01*
X154426911Y-81299166D01*
X154715750Y-81179821D01*
X154827371Y-81291637D01*
X155170899Y-81434283D01*
X155542865Y-81434607D01*
X155886641Y-81292562D01*
X156149890Y-81029772D01*
X156292536Y-80686244D01*
X156292860Y-80314278D01*
X156150815Y-79970502D01*
X155888025Y-79707253D01*
X155544497Y-79564607D01*
X155172531Y-79564283D01*
X154883692Y-79683628D01*
X154772071Y-79571812D01*
X154428543Y-79429166D01*
X154056577Y-79428842D01*
X153712801Y-79570887D01*
X153449552Y-79833677D01*
X153306906Y-80177205D01*
X153306582Y-80549171D01*
X152143581Y-80549171D01*
X150520327Y-78462131D01*
X150732009Y-78462315D01*
X151075785Y-78320270D01*
X151339034Y-78057480D01*
X151481680Y-77713952D01*
X151482004Y-77341986D01*
X151339959Y-76998210D01*
X151077169Y-76734961D01*
X150733641Y-76592315D01*
X150361675Y-76591991D01*
X150127000Y-76688956D01*
X150127000Y-74500000D01*
X150118315Y-74453841D01*
X150091035Y-74411447D01*
X150049410Y-74383006D01*
X150000000Y-74373000D01*
X148500000Y-74373000D01*
X148453841Y-74381685D01*
X148411447Y-74408965D01*
X148383006Y-74450590D01*
X148373000Y-74500000D01*
X148373000Y-76955295D01*
X148367117Y-76941057D01*
X148104327Y-76677808D01*
X147760799Y-76535162D01*
X147760495Y-76535162D01*
X147728893Y-76458678D01*
X147466103Y-76195429D01*
X147122575Y-76052783D01*
X146750609Y-76052459D01*
X146406833Y-76194504D01*
X146143584Y-76457294D01*
X146000938Y-76800822D01*
X146000614Y-77172788D01*
X146142659Y-77516564D01*
X146175776Y-77549739D01*
X146175776Y-79366126D01*
X143597962Y-81943940D01*
X143626158Y-81876037D01*
X143626482Y-81504071D01*
X143484437Y-81160295D01*
X143221647Y-80897046D01*
X142878119Y-80754400D01*
X142749322Y-80754288D01*
X142746041Y-80746346D01*
X142483251Y-80483097D01*
X142139723Y-80340451D01*
X141767757Y-80340127D01*
X141423981Y-80482172D01*
X141160732Y-80744962D01*
X141018086Y-81088490D01*
X141017762Y-81460456D01*
X141159807Y-81804232D01*
X141422597Y-82067481D01*
X141766125Y-82210127D01*
X141894922Y-82210239D01*
X141898203Y-82218181D01*
X142160993Y-82481430D01*
X142504521Y-82624076D01*
X142876487Y-82624400D01*
X142946382Y-82595520D01*
X139753445Y-85788457D01*
X139738575Y-85810712D01*
X139738575Y-81653934D01*
X142397244Y-78995265D01*
X142561991Y-78748704D01*
X142585542Y-78630304D01*
X142652035Y-78563927D01*
X142794681Y-78220399D01*
X142795005Y-77848433D01*
X142652960Y-77504657D01*
X142390170Y-77241408D01*
X142046642Y-77098762D01*
X141674676Y-77098438D01*
X141440021Y-77195395D01*
X141246799Y-77115162D01*
X140874833Y-77114838D01*
X140531057Y-77256883D01*
X140475133Y-77312710D01*
X140420327Y-77257808D01*
X140076799Y-77115162D01*
X139704833Y-77114838D01*
X139361057Y-77256883D01*
X139097808Y-77519673D01*
X138955162Y-77863201D01*
X138955121Y-77910077D01*
X137119987Y-79745211D01*
X137119987Y-74253201D01*
X140400152Y-74253201D01*
X140542197Y-74596977D01*
X140804987Y-74860226D01*
X141148515Y-75002872D01*
X141520481Y-75003196D01*
X141864257Y-74861151D01*
X141999603Y-74726041D01*
X142166299Y-74795260D01*
X142538265Y-74795584D01*
X142614449Y-74764106D01*
X142614911Y-74764569D01*
X142958439Y-74907215D01*
X143330405Y-74907539D01*
X143659373Y-74771612D01*
X143819673Y-74932192D01*
X144163201Y-75074838D01*
X144535167Y-75075162D01*
X144878943Y-74933117D01*
X145072219Y-74740177D01*
X145828519Y-74740177D01*
X145970564Y-75083953D01*
X146233354Y-75347202D01*
X146576882Y-75489848D01*
X146948848Y-75490172D01*
X147292624Y-75348127D01*
X147555873Y-75085337D01*
X147698519Y-74741809D01*
X147698843Y-74369843D01*
X147556798Y-74026067D01*
X147294008Y-73762818D01*
X146950480Y-73620172D01*
X146578514Y-73619848D01*
X146234738Y-73761893D01*
X145971489Y-74024683D01*
X145828843Y-74368211D01*
X145828519Y-74740177D01*
X145072219Y-74740177D01*
X145142192Y-74670327D01*
X145284838Y-74326799D01*
X145285162Y-73954833D01*
X145143117Y-73611057D01*
X144880327Y-73347808D01*
X144536799Y-73205162D01*
X144164833Y-73204838D01*
X143835865Y-73340765D01*
X143675565Y-73180185D01*
X143332037Y-73037539D01*
X142960071Y-73037215D01*
X142883887Y-73068693D01*
X142883425Y-73068230D01*
X142539897Y-72925584D01*
X142167931Y-72925260D01*
X141824155Y-73067305D01*
X141688809Y-73202415D01*
X141522113Y-73133196D01*
X141150147Y-73132872D01*
X140806371Y-73274917D01*
X140543122Y-73537707D01*
X140400476Y-73881235D01*
X140400152Y-74253201D01*
X137119987Y-74253201D01*
X137119987Y-72414428D01*
X137062135Y-72123589D01*
X136995068Y-72023216D01*
X136995140Y-71940665D01*
X154794838Y-71940665D01*
X154936883Y-72284441D01*
X155199673Y-72547690D01*
X155543201Y-72690336D01*
X155915167Y-72690660D01*
X156258943Y-72548615D01*
X156522192Y-72285825D01*
X156664838Y-71942297D01*
X156665162Y-71570331D01*
X156523117Y-71226555D01*
X156260327Y-70963306D01*
X155916799Y-70820660D01*
X155544833Y-70820336D01*
X155201057Y-70962381D01*
X154937808Y-71225171D01*
X154795162Y-71568699D01*
X154794838Y-71940665D01*
X136995140Y-71940665D01*
X136995150Y-71929262D01*
X136853105Y-71585486D01*
X136590315Y-71322237D01*
X136246787Y-71179591D01*
X135874821Y-71179267D01*
X135531045Y-71321312D01*
X135377033Y-71475055D01*
X135203011Y-71300729D01*
X134859483Y-71158083D01*
X134812607Y-71158042D01*
X134759983Y-71105418D01*
X134759983Y-70546055D01*
X134792175Y-70513919D01*
X134934821Y-70170391D01*
X134935145Y-69798425D01*
X134793100Y-69454649D01*
X134771977Y-69433489D01*
X142303539Y-69433489D01*
X142445584Y-69777265D01*
X142708374Y-70040514D01*
X143051902Y-70183160D01*
X143423868Y-70183484D01*
X143767644Y-70041439D01*
X144030893Y-69778649D01*
X144173539Y-69435121D01*
X144173863Y-69063155D01*
X144031818Y-68719379D01*
X143769028Y-68456130D01*
X143425500Y-68313484D01*
X143053534Y-68313160D01*
X142709758Y-68455205D01*
X142446509Y-68717995D01*
X142303863Y-69061523D01*
X142303539Y-69433489D01*
X134771977Y-69433489D01*
X134530310Y-69191400D01*
X134186782Y-69048754D01*
X133933814Y-69048534D01*
X134031625Y-68950893D01*
X134174271Y-68607365D01*
X134174595Y-68235399D01*
X134032550Y-67891623D01*
X134026106Y-67885167D01*
X135774838Y-67885167D01*
X135916883Y-68228943D01*
X136179673Y-68492192D01*
X136523201Y-68634838D01*
X136895167Y-68635162D01*
X137238943Y-68493117D01*
X137502192Y-68230327D01*
X137644838Y-67886799D01*
X137645162Y-67514833D01*
X137503117Y-67171057D01*
X137482183Y-67150086D01*
X139504393Y-67150086D01*
X139646438Y-67493862D01*
X139909228Y-67757111D01*
X140110590Y-67840724D01*
X139972936Y-68172231D01*
X139972612Y-68544197D01*
X140114657Y-68887973D01*
X140377447Y-69151222D01*
X140720975Y-69293868D01*
X141092941Y-69294192D01*
X141436717Y-69152147D01*
X141699966Y-68889357D01*
X141842612Y-68545829D01*
X141842678Y-68470623D01*
X142032776Y-68392076D01*
X142296025Y-68129286D01*
X142438671Y-67785758D01*
X142438995Y-67413792D01*
X142296950Y-67070016D01*
X142034160Y-66806767D01*
X141957912Y-66775106D01*
X141971526Y-66769481D01*
X142234775Y-66506691D01*
X142377421Y-66163163D01*
X142377745Y-65791197D01*
X142235700Y-65447421D01*
X142229541Y-65441251D01*
X142234775Y-65436026D01*
X142377421Y-65092498D01*
X142377745Y-64720532D01*
X142235700Y-64376756D01*
X141972910Y-64113507D01*
X141629382Y-63970861D01*
X141257416Y-63970537D01*
X140913640Y-64112582D01*
X140650391Y-64375372D01*
X140507745Y-64718900D01*
X140507421Y-65090866D01*
X140649466Y-65434642D01*
X140655625Y-65440812D01*
X140650391Y-65446037D01*
X140507745Y-65789565D01*
X140507536Y-66029978D01*
X140254388Y-66029757D01*
X139910612Y-66171802D01*
X139647363Y-66434592D01*
X139504717Y-66778120D01*
X139504393Y-67150086D01*
X137482183Y-67150086D01*
X137240327Y-66907808D01*
X136896799Y-66765162D01*
X136524833Y-66764838D01*
X136181057Y-66906883D01*
X135917808Y-67169673D01*
X135775162Y-67513201D01*
X135774838Y-67885167D01*
X134026106Y-67885167D01*
X133769760Y-67628374D01*
X133452451Y-67496615D01*
X134128342Y-66820724D01*
X134207546Y-66900066D01*
X134551074Y-67042712D01*
X134923040Y-67043036D01*
X135266816Y-66900991D01*
X135530065Y-66638201D01*
X135672711Y-66294673D01*
X135673035Y-65922707D01*
X135530990Y-65578931D01*
X135450633Y-65498433D01*
X135667401Y-65281665D01*
X135802149Y-65080000D01*
X139602971Y-65080000D01*
X139893810Y-65022148D01*
X140140372Y-64857401D01*
X140567486Y-64430287D01*
X140732233Y-64183726D01*
X140762978Y-64029161D01*
X140790085Y-63892886D01*
X140790085Y-58590000D01*
X145811634Y-58590000D01*
X146102473Y-58532148D01*
X146349035Y-58367401D01*
X147210000Y-57506436D01*
X148070965Y-58367401D01*
X148317527Y-58532148D01*
X148608366Y-58590000D01*
X153315198Y-58590000D01*
X157237465Y-62512267D01*
X157237465Y-70152731D01*
X157217598Y-70172598D01*
X157052851Y-70419160D01*
X156994999Y-70709999D01*
X156994999Y-71310001D01*
X157052851Y-71600840D01*
X157217598Y-71847402D01*
X157237465Y-71867269D01*
X157237465Y-76388666D01*
X157004022Y-76291732D01*
X156632056Y-76291408D01*
X156288280Y-76433453D01*
X156025031Y-76696243D01*
X155882385Y-77039771D01*
X155882061Y-77411737D01*
X156024106Y-77755513D01*
X156286896Y-78018762D01*
X156630424Y-78161408D01*
X157002390Y-78161732D01*
X157220200Y-78071735D01*
X157205273Y-78086636D01*
X157062627Y-78430164D01*
X157062303Y-78802130D01*
X157204348Y-79145906D01*
X157467138Y-79409155D01*
X157709375Y-79509741D01*
X158765526Y-80565892D01*
X158765526Y-89989606D01*
X155667667Y-93087465D01*
X155427057Y-93186883D01*
X155163808Y-93449673D01*
X155021162Y-93793201D01*
X155020838Y-94165167D01*
X155162883Y-94508943D01*
X155425673Y-94772192D01*
X155769201Y-94914838D01*
X156141167Y-94915162D01*
X156484943Y-94773117D01*
X156748192Y-94510327D01*
X156848778Y-94268090D01*
X160190960Y-90925908D01*
X160234179Y-90861226D01*
X160371965Y-90655015D01*
X160435526Y-90335474D01*
X160435526Y-83069438D01*
X179789839Y-83069438D01*
X179931884Y-83413214D01*
X180194674Y-83676463D01*
X180538202Y-83819109D01*
X180910168Y-83819433D01*
X181253944Y-83677388D01*
X181517193Y-83414598D01*
X181659839Y-83071070D01*
X181660163Y-82699104D01*
X181518118Y-82355328D01*
X181255328Y-82092079D01*
X180911800Y-81949433D01*
X180539834Y-81949109D01*
X180196058Y-82091154D01*
X179932809Y-82353944D01*
X179790163Y-82697472D01*
X179789839Y-83069438D01*
X160435526Y-83069438D01*
X160435526Y-80220024D01*
X160426425Y-80174272D01*
X160371966Y-79900484D01*
X160190960Y-79629590D01*
X158890000Y-78328630D01*
X158790582Y-78088020D01*
X158757465Y-78054845D01*
X158757465Y-75656643D01*
X163694705Y-75656643D01*
X163836750Y-76000419D01*
X164099540Y-76263668D01*
X164443068Y-76406314D01*
X164815034Y-76406638D01*
X165158810Y-76264593D01*
X165422059Y-76001803D01*
X165564705Y-75658275D01*
X165564916Y-75415167D01*
X166654838Y-75415167D01*
X166796883Y-75758943D01*
X167059673Y-76022192D01*
X167403201Y-76164838D01*
X167775167Y-76165162D01*
X168091099Y-76034622D01*
X168413315Y-76168418D01*
X168785281Y-76168742D01*
X169129057Y-76026697D01*
X169392306Y-75763907D01*
X169534952Y-75420379D01*
X169535276Y-75048413D01*
X169493430Y-74947139D01*
X169678518Y-74947300D01*
X170022294Y-74805255D01*
X170096822Y-74730857D01*
X170123383Y-74757465D01*
X170466911Y-74900111D01*
X170838877Y-74900435D01*
X171182653Y-74758390D01*
X171445902Y-74495600D01*
X171588548Y-74152072D01*
X171588872Y-73780106D01*
X171490023Y-73540874D01*
X171539756Y-73540917D01*
X171669530Y-73487296D01*
X171669438Y-73593065D01*
X171811483Y-73936841D01*
X172074273Y-74200090D01*
X172417801Y-74342736D01*
X172596006Y-74342891D01*
X172483332Y-74614240D01*
X172483008Y-74986206D01*
X172625053Y-75329982D01*
X172887843Y-75593231D01*
X173231371Y-75735877D01*
X173603337Y-75736201D01*
X173947113Y-75594156D01*
X174210362Y-75331366D01*
X174353008Y-74987838D01*
X174353332Y-74615872D01*
X174211287Y-74272096D01*
X173948497Y-74008847D01*
X173604969Y-73866201D01*
X173426764Y-73866046D01*
X173539438Y-73594697D01*
X173539762Y-73222731D01*
X173397717Y-72878955D01*
X173134927Y-72615706D01*
X172791399Y-72473060D01*
X172419433Y-72472736D01*
X172289659Y-72526357D01*
X172289751Y-72420588D01*
X172147706Y-72076812D01*
X171884916Y-71813563D01*
X171541388Y-71670917D01*
X171169422Y-71670593D01*
X170825646Y-71812638D01*
X170562397Y-72075428D01*
X170419751Y-72418956D01*
X170419427Y-72790922D01*
X170518276Y-73030154D01*
X170468543Y-73030111D01*
X170124767Y-73172156D01*
X170050239Y-73246554D01*
X170023678Y-73219946D01*
X169680150Y-73077300D01*
X169308184Y-73076976D01*
X168964408Y-73219021D01*
X168701159Y-73481811D01*
X168558513Y-73825339D01*
X168558189Y-74197305D01*
X168600035Y-74298579D01*
X168414947Y-74298418D01*
X168099015Y-74428958D01*
X167776799Y-74295162D01*
X167404833Y-74294838D01*
X167061057Y-74436883D01*
X166797808Y-74699673D01*
X166655162Y-75043201D01*
X166654838Y-75415167D01*
X165564916Y-75415167D01*
X165565029Y-75286309D01*
X165422984Y-74942533D01*
X165160194Y-74679284D01*
X164816666Y-74536638D01*
X164444700Y-74536314D01*
X164100924Y-74678359D01*
X163837675Y-74941149D01*
X163695029Y-75284677D01*
X163694705Y-75656643D01*
X158757465Y-75656643D01*
X158757465Y-71865706D01*
X158908943Y-71803117D01*
X159172192Y-71540327D01*
X159314838Y-71196799D01*
X159315162Y-70824833D01*
X159173117Y-70481057D01*
X158910327Y-70217808D01*
X158757465Y-70154334D01*
X158757465Y-69898637D01*
X172409072Y-69898637D01*
X172551117Y-70242413D01*
X172813907Y-70505662D01*
X173157435Y-70648308D01*
X173529401Y-70648632D01*
X173873177Y-70506587D01*
X174136426Y-70243797D01*
X174279072Y-69900269D01*
X174279396Y-69528303D01*
X174137351Y-69184527D01*
X173874561Y-68921278D01*
X173531033Y-68778632D01*
X173159067Y-68778308D01*
X172815291Y-68920353D01*
X172552042Y-69183143D01*
X172409396Y-69526671D01*
X172409072Y-69898637D01*
X158757465Y-69898637D01*
X158757465Y-62910000D01*
X163915262Y-62910000D01*
X164278581Y-63273319D01*
X164278541Y-63318806D01*
X164372230Y-63545550D01*
X164226799Y-63485162D01*
X163854833Y-63484838D01*
X163511057Y-63626883D01*
X163247808Y-63889673D01*
X163105162Y-64233201D01*
X163104838Y-64605167D01*
X163246883Y-64948943D01*
X163509673Y-65212192D01*
X163853201Y-65354838D01*
X164225167Y-65355162D01*
X164453703Y-65260733D01*
X164453703Y-65741495D01*
X164085114Y-66110084D01*
X164085162Y-66054833D01*
X163943117Y-65711057D01*
X163680327Y-65447808D01*
X163336799Y-65305162D01*
X162964833Y-65304838D01*
X162667419Y-65427727D01*
X162650197Y-65386046D01*
X162387407Y-65122797D01*
X162043879Y-64980151D01*
X161914643Y-64980038D01*
X161896461Y-64936035D01*
X161633671Y-64672786D01*
X161290143Y-64530140D01*
X160918177Y-64529816D01*
X160574401Y-64671861D01*
X160311152Y-64934651D01*
X160168506Y-65278179D01*
X160168182Y-65650145D01*
X160310227Y-65993921D01*
X160573017Y-66257170D01*
X160916545Y-66399816D01*
X161045781Y-66399929D01*
X161063963Y-66443932D01*
X161326753Y-66707181D01*
X161670281Y-66849827D01*
X162042247Y-66850151D01*
X162339661Y-66727262D01*
X162356883Y-66768943D01*
X162619673Y-67032192D01*
X162963201Y-67174838D01*
X163020310Y-67174888D01*
X162660320Y-67534878D01*
X162614833Y-67534838D01*
X162271057Y-67676883D01*
X162007808Y-67939673D01*
X161865162Y-68283201D01*
X161864838Y-68655167D01*
X162006883Y-68998943D01*
X162269673Y-69262192D01*
X162613201Y-69404838D01*
X162985167Y-69405162D01*
X163328943Y-69263117D01*
X163592192Y-69000327D01*
X163734838Y-68656799D01*
X163734879Y-68609923D01*
X164173983Y-68170819D01*
X164070522Y-68419979D01*
X164070198Y-68791945D01*
X164212243Y-69135721D01*
X164475033Y-69398970D01*
X164818561Y-69541616D01*
X165190527Y-69541940D01*
X165252675Y-69516261D01*
X165345488Y-69609236D01*
X165689016Y-69751882D01*
X166060982Y-69752206D01*
X166404758Y-69610161D01*
X166668007Y-69347371D01*
X166810653Y-69003843D01*
X166810953Y-68659133D01*
X166816655Y-68659133D01*
X166958700Y-69002909D01*
X167221490Y-69266158D01*
X167565018Y-69408804D01*
X167936984Y-69409128D01*
X168280760Y-69267083D01*
X168544009Y-69004293D01*
X168686655Y-68660765D01*
X168686979Y-68288799D01*
X168544934Y-67945023D01*
X168282144Y-67681774D01*
X167938616Y-67539128D01*
X167566650Y-67538804D01*
X167222874Y-67680849D01*
X166959625Y-67943639D01*
X166816979Y-68287167D01*
X166816655Y-68659133D01*
X166810953Y-68659133D01*
X166810977Y-68631877D01*
X166668932Y-68288101D01*
X166406142Y-68024852D01*
X166062614Y-67882206D01*
X165934829Y-67882095D01*
X166025840Y-67662916D01*
X166026164Y-67290950D01*
X165884119Y-66947174D01*
X165641086Y-66703716D01*
X165751104Y-66593698D01*
X165915851Y-66347136D01*
X165921912Y-66316661D01*
X168852758Y-66316661D01*
X169064990Y-66830303D01*
X169457630Y-67223629D01*
X169970900Y-67436757D01*
X170526661Y-67437242D01*
X171040303Y-67225010D01*
X171433629Y-66832370D01*
X171646757Y-66319100D01*
X171647242Y-65763339D01*
X171435010Y-65249697D01*
X171042370Y-64856371D01*
X170529100Y-64643243D01*
X169973339Y-64642758D01*
X169459697Y-64854990D01*
X169066371Y-65247630D01*
X168853243Y-65760900D01*
X168852758Y-66316661D01*
X165921912Y-66316661D01*
X165973703Y-66056297D01*
X165973703Y-64525167D01*
X172234838Y-64525167D01*
X172376883Y-64868943D01*
X172639673Y-65132192D01*
X172983201Y-65274838D01*
X173355167Y-65275162D01*
X173698943Y-65133117D01*
X173962192Y-64870327D01*
X174104838Y-64526799D01*
X174105162Y-64154833D01*
X173963117Y-63811057D01*
X173700327Y-63547808D01*
X173356799Y-63405162D01*
X172984833Y-63404838D01*
X172641057Y-63546883D01*
X172377808Y-63809673D01*
X172235162Y-64153201D01*
X172234838Y-64525167D01*
X165973703Y-64525167D01*
X165973703Y-63696102D01*
X166005895Y-63663966D01*
X166148541Y-63320438D01*
X166148865Y-62948472D01*
X166006820Y-62604696D01*
X165744030Y-62341447D01*
X165400502Y-62198801D01*
X165353626Y-62198760D01*
X165335556Y-62180690D01*
X166719311Y-62180690D01*
X166861356Y-62524466D01*
X167124146Y-62787715D01*
X167467674Y-62930361D01*
X167839640Y-62930685D01*
X168183416Y-62788640D01*
X168446665Y-62525850D01*
X168589311Y-62182322D01*
X168589403Y-62076184D01*
X168840720Y-61825306D01*
X168983366Y-61481778D01*
X168983690Y-61109812D01*
X168841645Y-60766036D01*
X168578855Y-60502787D01*
X168235327Y-60360141D01*
X167863361Y-60359817D01*
X167519585Y-60501862D01*
X167256336Y-60764652D01*
X167113690Y-61108180D01*
X167113598Y-61214318D01*
X166862281Y-61465196D01*
X166719635Y-61808724D01*
X166719311Y-62180690D01*
X165335556Y-62180690D01*
X164767465Y-61612599D01*
X164520903Y-61447852D01*
X164230064Y-61390000D01*
X158264802Y-61390000D01*
X155449969Y-58575167D01*
X157014838Y-58575167D01*
X157156883Y-58918943D01*
X157419673Y-59182192D01*
X157763201Y-59324838D01*
X158135167Y-59325162D01*
X158478943Y-59183117D01*
X158742192Y-58920327D01*
X158884838Y-58576799D01*
X158885162Y-58204833D01*
X158743117Y-57861057D01*
X158480327Y-57597808D01*
X158136799Y-57455162D01*
X157764833Y-57454838D01*
X157421057Y-57596883D01*
X157157808Y-57859673D01*
X157015162Y-58203201D01*
X157014838Y-58575167D01*
X155449969Y-58575167D01*
X154167401Y-57292599D01*
X153920839Y-57127852D01*
X153630000Y-57070000D01*
X150053309Y-57070000D01*
X150263611Y-56983105D01*
X150526860Y-56720315D01*
X150553911Y-56655167D01*
X156814838Y-56655167D01*
X156956883Y-56998943D01*
X157219673Y-57262192D01*
X157563201Y-57404838D01*
X157935167Y-57405162D01*
X158081704Y-57344614D01*
X163566032Y-57344614D01*
X163708077Y-57688390D01*
X163841289Y-57821835D01*
X163811795Y-57851278D01*
X163669149Y-58194806D01*
X163668825Y-58566772D01*
X163810870Y-58910548D01*
X164073660Y-59173797D01*
X164417188Y-59316443D01*
X164789154Y-59316767D01*
X165132930Y-59174722D01*
X165396179Y-58911932D01*
X165448816Y-58785167D01*
X176064838Y-58785167D01*
X176206883Y-59128943D01*
X176469673Y-59392192D01*
X176813201Y-59534838D01*
X177185167Y-59535162D01*
X177528943Y-59393117D01*
X177792192Y-59130327D01*
X177934838Y-58786799D01*
X177935057Y-58534857D01*
X178285167Y-58535162D01*
X178628943Y-58393117D01*
X178892192Y-58130327D01*
X179034838Y-57786799D01*
X179035162Y-57414833D01*
X178893117Y-57071057D01*
X178630327Y-56807808D01*
X178286799Y-56665162D01*
X177914833Y-56664838D01*
X177571057Y-56806883D01*
X177307808Y-57069673D01*
X177165162Y-57413201D01*
X177164943Y-57665143D01*
X176814833Y-57664838D01*
X176471057Y-57806883D01*
X176207808Y-58069673D01*
X176065162Y-58413201D01*
X176064838Y-58785167D01*
X165448816Y-58785167D01*
X165538825Y-58568404D01*
X165539149Y-58196438D01*
X165397104Y-57852662D01*
X165263892Y-57719217D01*
X165293386Y-57689774D01*
X165436032Y-57346246D01*
X165436356Y-56974280D01*
X165294311Y-56630504D01*
X165031521Y-56367255D01*
X164687993Y-56224609D01*
X164316027Y-56224285D01*
X163972251Y-56366330D01*
X163709002Y-56629120D01*
X163566356Y-56972648D01*
X163566032Y-57344614D01*
X158081704Y-57344614D01*
X158278943Y-57263117D01*
X158542192Y-57000327D01*
X158684838Y-56656799D01*
X158685162Y-56284833D01*
X158564498Y-55992802D01*
X165841134Y-55992802D01*
X165983179Y-56336578D01*
X166245969Y-56599827D01*
X166589497Y-56742473D01*
X166961463Y-56742797D01*
X167305239Y-56600752D01*
X167568488Y-56337962D01*
X167602867Y-56255167D01*
X172334838Y-56255167D01*
X172476883Y-56598943D01*
X172739673Y-56862192D01*
X173083201Y-57004838D01*
X173455167Y-57005162D01*
X173798943Y-56863117D01*
X174062192Y-56600327D01*
X174204838Y-56256799D01*
X174204916Y-56166924D01*
X174295102Y-56204373D01*
X174667068Y-56204697D01*
X175010844Y-56062652D01*
X175274093Y-55799862D01*
X175329098Y-55667396D01*
X175386705Y-55691317D01*
X175758671Y-55691641D01*
X176102447Y-55549596D01*
X176365696Y-55286806D01*
X176508342Y-54943278D01*
X176508666Y-54571312D01*
X176366621Y-54227536D01*
X176103831Y-53964287D01*
X175760303Y-53821641D01*
X175388337Y-53821317D01*
X175044561Y-53963362D01*
X174781312Y-54226152D01*
X174726307Y-54358618D01*
X174668700Y-54334697D01*
X174296734Y-54334373D01*
X173952958Y-54476418D01*
X173689709Y-54739208D01*
X173547063Y-55082736D01*
X173546985Y-55172611D01*
X173456799Y-55135162D01*
X173084833Y-55134838D01*
X172741057Y-55276883D01*
X172477808Y-55539673D01*
X172335162Y-55883201D01*
X172334838Y-56255167D01*
X167602867Y-56255167D01*
X167711134Y-55994434D01*
X167711458Y-55622468D01*
X167569413Y-55278692D01*
X167306623Y-55015443D01*
X166963095Y-54872797D01*
X166591129Y-54872473D01*
X166247353Y-55014518D01*
X165984104Y-55277308D01*
X165841458Y-55620836D01*
X165841134Y-55992802D01*
X158564498Y-55992802D01*
X158543117Y-55941057D01*
X158280327Y-55677808D01*
X157936799Y-55535162D01*
X157564833Y-55534838D01*
X157221057Y-55676883D01*
X156957808Y-55939673D01*
X156815162Y-56283201D01*
X156814838Y-56655167D01*
X150553911Y-56655167D01*
X150669506Y-56376787D01*
X150669830Y-56004821D01*
X150527785Y-55661045D01*
X150264995Y-55397796D01*
X149921467Y-55255150D01*
X149549501Y-55254826D01*
X149205725Y-55396871D01*
X148942476Y-55659661D01*
X148816612Y-55962774D01*
X148697015Y-55913113D01*
X148325049Y-55912789D01*
X147981273Y-56054834D01*
X147970000Y-56066087D01*
X147970000Y-53214998D01*
X147994588Y-53214998D01*
X148285427Y-53157146D01*
X148531989Y-52992399D01*
X148635931Y-52888457D01*
X148869259Y-53122192D01*
X149212787Y-53264838D01*
X149584753Y-53265162D01*
X149928529Y-53123117D01*
X150191778Y-52860327D01*
X150334424Y-52516799D01*
X150334748Y-52144833D01*
X150192703Y-51801057D01*
X150081876Y-51690037D01*
X150191778Y-51580327D01*
X150334424Y-51236799D01*
X150334748Y-50864833D01*
X150192703Y-50521057D01*
X149929913Y-50257808D01*
X149586385Y-50115162D01*
X149214419Y-50114838D01*
X148870643Y-50256883D01*
X148607394Y-50519673D01*
X148464748Y-50863201D01*
X148464707Y-50910077D01*
X147970000Y-51404784D01*
X147970000Y-51026283D01*
X147912148Y-50735444D01*
X147747401Y-50488882D01*
X147075535Y-49817016D01*
X147193119Y-49533843D01*
X147193443Y-49161877D01*
X147051398Y-48818101D01*
X146788608Y-48554852D01*
X146445080Y-48412206D01*
X146073114Y-48411882D01*
X145729338Y-48553927D01*
X145555289Y-48727673D01*
X145491506Y-48701188D01*
X145119540Y-48700864D01*
X144775764Y-48842909D01*
X144669888Y-48948600D01*
X144670172Y-48622967D01*
X144528127Y-48279191D01*
X144265337Y-48015942D01*
X143921809Y-47873296D01*
X143549843Y-47872972D01*
X143238356Y-48001676D01*
X143200625Y-47963879D01*
X142857097Y-47821233D01*
X142485131Y-47820909D01*
X142141355Y-47962954D01*
X141878106Y-48225744D01*
X141735460Y-48569272D01*
X141735136Y-48941238D01*
X141877181Y-49285014D01*
X142139971Y-49548263D01*
X142483499Y-49690909D01*
X142855465Y-49691233D01*
X143166952Y-49562529D01*
X143204683Y-49600326D01*
X143548211Y-49742972D01*
X143920177Y-49743296D01*
X144263953Y-49601251D01*
X144369829Y-49495560D01*
X144369545Y-49821193D01*
X144511590Y-50164969D01*
X144774380Y-50428218D01*
X144866050Y-50466283D01*
X144850621Y-50503440D01*
X144850307Y-50864439D01*
X144657496Y-50864271D01*
X144313720Y-51006316D01*
X144050471Y-51269106D01*
X143907825Y-51612634D01*
X143907609Y-51860436D01*
X143883440Y-51860415D01*
X143539664Y-52002460D01*
X143276415Y-52265250D01*
X143133769Y-52608778D01*
X143133445Y-52980744D01*
X143275490Y-53324520D01*
X143538280Y-53587769D01*
X143881808Y-53730415D01*
X144253774Y-53730739D01*
X144597550Y-53588694D01*
X144860799Y-53325904D01*
X145003445Y-52982376D01*
X145003661Y-52734574D01*
X145027830Y-52734595D01*
X145371606Y-52592550D01*
X145453530Y-52510769D01*
X145712461Y-52618287D01*
X146084427Y-52618611D01*
X146428203Y-52476566D01*
X146450000Y-52454807D01*
X146450000Y-56116832D01*
X145496832Y-57070000D01*
X140594802Y-57070000D01*
X140122400Y-56597598D01*
X139875838Y-56432851D01*
X139584999Y-56374999D01*
X135848609Y-56374999D01*
X135557769Y-56432851D01*
X135311208Y-56597598D01*
X134777765Y-57131041D01*
X134613018Y-57377603D01*
X134589467Y-57496002D01*
X134522974Y-57562379D01*
X134380328Y-57905907D01*
X134380004Y-58277873D01*
X134522049Y-58621649D01*
X134784839Y-58884898D01*
X135128367Y-59027544D01*
X135500333Y-59027868D01*
X135844109Y-58885823D01*
X135920197Y-58809867D01*
X136270157Y-58810172D01*
X136613933Y-58668127D01*
X136877182Y-58405337D01*
X137019828Y-58061809D01*
X137019973Y-57894999D01*
X139270197Y-57894999D01*
X139300783Y-57925585D01*
X139270085Y-58079915D01*
X139270085Y-63560000D01*
X135692463Y-63560000D01*
X135660327Y-63527808D01*
X135316799Y-63385162D01*
X134944833Y-63384838D01*
X134601057Y-63526883D01*
X134337808Y-63789673D01*
X134195162Y-64133201D01*
X134194838Y-64505167D01*
X134223917Y-64575545D01*
X131522599Y-67276863D01*
X131357852Y-67523425D01*
X131300000Y-67814264D01*
X110365000Y-67814264D01*
X110365000Y-65224865D01*
X131409450Y-65224865D01*
X131551495Y-65568641D01*
X131814285Y-65831890D01*
X132157813Y-65974536D01*
X132529779Y-65974860D01*
X132873555Y-65832815D01*
X133136804Y-65570025D01*
X133279450Y-65226497D01*
X133279774Y-64854531D01*
X133137729Y-64510755D01*
X132874939Y-64247506D01*
X132531411Y-64104860D01*
X132159445Y-64104536D01*
X131815669Y-64246581D01*
X131552420Y-64509371D01*
X131409774Y-64852899D01*
X131409450Y-65224865D01*
X110365000Y-65224865D01*
X110365000Y-64358379D01*
X128163270Y-64358379D01*
X128305315Y-64702155D01*
X128568105Y-64965404D01*
X128911633Y-65108050D01*
X129283599Y-65108374D01*
X129627375Y-64966329D01*
X129890624Y-64703539D01*
X130033270Y-64360011D01*
X130033594Y-63988045D01*
X129891549Y-63644269D01*
X129628759Y-63381020D01*
X129285231Y-63238374D01*
X128913265Y-63238050D01*
X128569489Y-63380095D01*
X128306240Y-63642885D01*
X128163594Y-63986413D01*
X128163270Y-64358379D01*
X110365000Y-64358379D01*
X110365000Y-61205167D01*
X120514838Y-61205167D01*
X120656883Y-61548943D01*
X120919673Y-61812192D01*
X121263201Y-61954838D01*
X121635167Y-61955162D01*
X121978943Y-61813117D01*
X122115637Y-61676661D01*
X125982758Y-61676661D01*
X126194990Y-62190303D01*
X126587630Y-62583629D01*
X127100900Y-62796757D01*
X127656661Y-62797242D01*
X128170303Y-62585010D01*
X128563629Y-62192370D01*
X128741018Y-61765167D01*
X132034838Y-61765167D01*
X132176883Y-62108943D01*
X132288549Y-62220804D01*
X132200426Y-62433027D01*
X132200102Y-62804993D01*
X132342147Y-63148769D01*
X132604937Y-63412018D01*
X132948465Y-63554664D01*
X133320431Y-63554988D01*
X133664207Y-63412943D01*
X133927456Y-63150153D01*
X134070102Y-62806625D01*
X134070426Y-62434659D01*
X133928381Y-62090883D01*
X133816715Y-61979022D01*
X133904838Y-61766799D01*
X133905162Y-61394833D01*
X133763117Y-61051057D01*
X133500327Y-60787808D01*
X133156799Y-60645162D01*
X132784833Y-60644838D01*
X132441057Y-60786883D01*
X132177808Y-61049673D01*
X132035162Y-61393201D01*
X132034838Y-61765167D01*
X128741018Y-61765167D01*
X128776757Y-61679100D01*
X128777242Y-61123339D01*
X128565010Y-60609697D01*
X128172370Y-60216371D01*
X127659100Y-60003243D01*
X127103339Y-60002758D01*
X126589697Y-60214990D01*
X126196371Y-60607630D01*
X125983243Y-61120900D01*
X125982758Y-61676661D01*
X122115637Y-61676661D01*
X122242192Y-61550327D01*
X122384838Y-61206799D01*
X122385162Y-60834833D01*
X122243117Y-60491057D01*
X121980327Y-60227808D01*
X121636799Y-60085162D01*
X121264833Y-60084838D01*
X120921057Y-60226883D01*
X120657808Y-60489673D01*
X120515162Y-60833201D01*
X120514838Y-61205167D01*
X110365000Y-61205167D01*
X110365000Y-58930000D01*
X110310260Y-58654800D01*
X117339611Y-58654800D01*
X117481656Y-58998576D01*
X117744446Y-59261825D01*
X118087974Y-59404471D01*
X118459940Y-59404795D01*
X118803716Y-59262750D01*
X119066965Y-58999960D01*
X119138004Y-58828881D01*
X119163791Y-58854713D01*
X119507319Y-58997359D01*
X119879285Y-58997683D01*
X119909576Y-58985167D01*
X132064838Y-58985167D01*
X132206883Y-59328943D01*
X132469673Y-59592192D01*
X132813201Y-59734838D01*
X133185167Y-59735162D01*
X133528943Y-59593117D01*
X133792192Y-59330327D01*
X133934838Y-58986799D01*
X133935162Y-58614833D01*
X133793117Y-58271057D01*
X133530327Y-58007808D01*
X133186799Y-57865162D01*
X132814833Y-57864838D01*
X132471057Y-58006883D01*
X132207808Y-58269673D01*
X132065162Y-58613201D01*
X132064838Y-58985167D01*
X119909576Y-58985167D01*
X120223061Y-58855638D01*
X120486310Y-58592848D01*
X120628956Y-58249320D01*
X120628971Y-58232072D01*
X120760684Y-58177649D01*
X121023933Y-57914859D01*
X121158126Y-57591686D01*
X127375649Y-57591686D01*
X127517694Y-57935462D01*
X127780484Y-58198711D01*
X128124012Y-58341357D01*
X128495978Y-58341681D01*
X128839754Y-58199636D01*
X129103003Y-57936846D01*
X129245649Y-57593318D01*
X129245973Y-57221352D01*
X129103928Y-56877576D01*
X128841138Y-56614327D01*
X128497610Y-56471681D01*
X128125644Y-56471357D01*
X127781868Y-56613402D01*
X127518619Y-56876192D01*
X127375973Y-57219720D01*
X127375649Y-57591686D01*
X121158126Y-57591686D01*
X121166579Y-57571331D01*
X121166903Y-57199365D01*
X121024858Y-56855589D01*
X120762068Y-56592340D01*
X120418540Y-56449694D01*
X120046574Y-56449370D01*
X119702798Y-56591415D01*
X119439549Y-56854205D01*
X119296903Y-57197733D01*
X119296888Y-57214981D01*
X119249559Y-57234537D01*
X119216533Y-57154608D01*
X118953743Y-56891359D01*
X118610215Y-56748713D01*
X118238249Y-56748389D01*
X117894473Y-56890434D01*
X117631224Y-57153224D01*
X117488578Y-57496752D01*
X117488254Y-57868718D01*
X117507247Y-57914683D01*
X117482581Y-57939306D01*
X117339935Y-58282834D01*
X117339611Y-58654800D01*
X110310260Y-58654800D01*
X110301439Y-58610459D01*
X110120434Y-58339566D01*
X107715383Y-55934515D01*
X109874723Y-55934515D01*
X110016768Y-56278291D01*
X110279558Y-56541540D01*
X110623086Y-56684186D01*
X110995052Y-56684510D01*
X111338828Y-56542465D01*
X111602077Y-56279675D01*
X111744723Y-55936147D01*
X111745047Y-55564181D01*
X111714036Y-55489127D01*
X134013281Y-55489127D01*
X134155326Y-55832903D01*
X134418116Y-56096152D01*
X134761644Y-56238798D01*
X135133610Y-56239122D01*
X135477386Y-56097077D01*
X135554779Y-56019818D01*
X140780750Y-56019818D01*
X140922795Y-56363594D01*
X141185585Y-56626843D01*
X141529113Y-56769489D01*
X141901079Y-56769813D01*
X142244855Y-56627768D01*
X142508104Y-56364978D01*
X142650750Y-56021450D01*
X142651074Y-55649484D01*
X142509029Y-55305708D01*
X142246239Y-55042459D01*
X141902711Y-54899813D01*
X141530745Y-54899489D01*
X141186969Y-55041534D01*
X140923720Y-55304324D01*
X140781074Y-55647852D01*
X140780750Y-56019818D01*
X135554779Y-56019818D01*
X135740635Y-55834287D01*
X135883281Y-55490759D01*
X135883605Y-55118793D01*
X135741560Y-54775017D01*
X135478770Y-54511768D01*
X135135242Y-54369122D01*
X134763276Y-54368798D01*
X134419500Y-54510843D01*
X134156251Y-54773633D01*
X134013605Y-55117161D01*
X134013281Y-55489127D01*
X111714036Y-55489127D01*
X111603002Y-55220405D01*
X111340212Y-54957156D01*
X110996684Y-54814510D01*
X110624718Y-54814186D01*
X110280942Y-54956231D01*
X110017693Y-55219021D01*
X109875047Y-55562549D01*
X109874723Y-55934515D01*
X107715383Y-55934515D01*
X105586035Y-53805167D01*
X125304838Y-53805167D01*
X125446883Y-54148943D01*
X125709673Y-54412192D01*
X126053201Y-54554838D01*
X126425167Y-54555162D01*
X126768943Y-54413117D01*
X127032192Y-54150327D01*
X127171363Y-53815167D01*
X127614838Y-53815167D01*
X127756883Y-54158943D01*
X128019673Y-54422192D01*
X128363201Y-54564838D01*
X128735167Y-54565162D01*
X129078943Y-54423117D01*
X129342192Y-54160327D01*
X129484838Y-53816799D01*
X129484987Y-53645167D01*
X130144838Y-53645167D01*
X130286883Y-53988943D01*
X130549673Y-54252192D01*
X130893201Y-54394838D01*
X131265167Y-54395162D01*
X131468777Y-54311032D01*
X131619673Y-54462192D01*
X131963201Y-54604838D01*
X132335167Y-54605162D01*
X132678943Y-54463117D01*
X132942192Y-54200327D01*
X133084838Y-53856799D01*
X133085162Y-53484833D01*
X132943117Y-53141057D01*
X132680327Y-52877808D01*
X132657865Y-52868481D01*
X133150303Y-52665010D01*
X133543629Y-52272370D01*
X133756757Y-51759100D01*
X133757242Y-51203339D01*
X133545010Y-50689697D01*
X133152370Y-50296371D01*
X132639100Y-50083243D01*
X132083339Y-50082758D01*
X131569697Y-50294990D01*
X131176371Y-50687630D01*
X130963243Y-51200900D01*
X130962758Y-51756661D01*
X131174990Y-52270303D01*
X131544526Y-52640485D01*
X131266799Y-52525162D01*
X130894833Y-52524838D01*
X130551057Y-52666883D01*
X130287808Y-52929673D01*
X130145162Y-53273201D01*
X130144838Y-53645167D01*
X129484987Y-53645167D01*
X129485162Y-53444833D01*
X129343117Y-53101057D01*
X129080327Y-52837808D01*
X128736799Y-52695162D01*
X128364833Y-52694838D01*
X128021057Y-52836883D01*
X127757808Y-53099673D01*
X127615162Y-53443201D01*
X127614838Y-53815167D01*
X127171363Y-53815167D01*
X127174838Y-53806799D01*
X127175162Y-53434833D01*
X127033117Y-53091057D01*
X126770327Y-52827808D01*
X126426799Y-52685162D01*
X126054833Y-52684838D01*
X125711057Y-52826883D01*
X125447808Y-53089673D01*
X125305162Y-53433201D01*
X125304838Y-53805167D01*
X105586035Y-53805167D01*
X105065000Y-53284132D01*
X105065000Y-52369957D01*
X105126657Y-52344481D01*
X105500261Y-51971529D01*
X105870997Y-52342914D01*
X106453341Y-52584724D01*
X107083893Y-52585275D01*
X107666657Y-52344481D01*
X108112914Y-51899003D01*
X108354724Y-51316659D01*
X108355109Y-50875167D01*
X119004838Y-50875167D01*
X119146883Y-51218943D01*
X119409673Y-51482192D01*
X119753201Y-51624838D01*
X120125167Y-51625162D01*
X120468943Y-51483117D01*
X120732192Y-51220327D01*
X120874838Y-50876799D01*
X120875162Y-50504833D01*
X120860330Y-50468935D01*
X121783665Y-50468935D01*
X121925710Y-50812711D01*
X122188500Y-51075960D01*
X122532028Y-51218606D01*
X122903994Y-51218930D01*
X123247770Y-51076885D01*
X123511019Y-50814095D01*
X123653665Y-50470567D01*
X123653989Y-50098601D01*
X123511944Y-49754825D01*
X123352565Y-49595167D01*
X136324838Y-49595167D01*
X136466883Y-49938943D01*
X136729673Y-50202192D01*
X137073201Y-50344838D01*
X137202873Y-50344951D01*
X137202758Y-50476661D01*
X137368146Y-50876931D01*
X137202884Y-50876787D01*
X136859108Y-51018832D01*
X136595859Y-51281622D01*
X136453213Y-51625150D01*
X136452889Y-51997116D01*
X136594934Y-52340892D01*
X136857724Y-52604141D01*
X137201252Y-52746787D01*
X137573218Y-52747111D01*
X137916994Y-52605066D01*
X138180243Y-52342276D01*
X138322889Y-51998748D01*
X138323213Y-51626782D01*
X138308717Y-51591698D01*
X138320900Y-51596757D01*
X138876661Y-51597242D01*
X139390303Y-51385010D01*
X139418204Y-51357157D01*
X140314826Y-51357157D01*
X140456871Y-51700933D01*
X140719661Y-51964182D01*
X141063189Y-52106828D01*
X141435155Y-52107152D01*
X141778931Y-51965107D01*
X142042180Y-51702317D01*
X142184826Y-51358789D01*
X142185150Y-50986823D01*
X142043105Y-50643047D01*
X141780315Y-50379798D01*
X141436787Y-50237152D01*
X141064821Y-50236828D01*
X140721045Y-50378873D01*
X140457796Y-50641663D01*
X140315150Y-50985191D01*
X140314826Y-51357157D01*
X139418204Y-51357157D01*
X139783629Y-50992370D01*
X139996757Y-50479100D01*
X139997195Y-49976672D01*
X140129837Y-49921866D01*
X140393086Y-49659076D01*
X140535732Y-49315548D01*
X140536056Y-48943582D01*
X140394011Y-48599806D01*
X140131221Y-48336557D01*
X139787693Y-48193911D01*
X139415727Y-48193587D01*
X139071951Y-48335632D01*
X138808702Y-48598422D01*
X138723709Y-48803107D01*
X138323339Y-48802758D01*
X138064889Y-48909547D01*
X138053117Y-48881057D01*
X137790327Y-48617808D01*
X137446799Y-48475162D01*
X137074833Y-48474838D01*
X136731057Y-48616883D01*
X136467808Y-48879673D01*
X136325162Y-49223201D01*
X136324838Y-49595167D01*
X123352565Y-49595167D01*
X123249154Y-49491576D01*
X122905626Y-49348930D01*
X122533660Y-49348606D01*
X122189884Y-49490651D01*
X121926635Y-49753441D01*
X121783989Y-50096969D01*
X121783665Y-50468935D01*
X120860330Y-50468935D01*
X120733117Y-50161057D01*
X120470327Y-49897808D01*
X120126799Y-49755162D01*
X119754833Y-49754838D01*
X119411057Y-49896883D01*
X119147808Y-50159673D01*
X119005162Y-50503201D01*
X119004838Y-50875167D01*
X108355109Y-50875167D01*
X108355275Y-50686107D01*
X108328810Y-50622058D01*
X108710435Y-50240433D01*
X108719501Y-50226865D01*
X108891440Y-49969540D01*
X108955001Y-49649999D01*
X108955001Y-48845167D01*
X128834838Y-48845167D01*
X128976883Y-49188943D01*
X129239673Y-49452192D01*
X129583201Y-49594838D01*
X129955167Y-49595162D01*
X130298943Y-49453117D01*
X130562192Y-49190327D01*
X130704838Y-48846799D01*
X130705162Y-48474833D01*
X130563117Y-48131057D01*
X130300327Y-47867808D01*
X129956799Y-47725162D01*
X129584833Y-47724838D01*
X129241057Y-47866883D01*
X128977808Y-48129673D01*
X128835162Y-48473201D01*
X128834838Y-48845167D01*
X108955001Y-48845167D01*
X108955001Y-45766661D01*
X110442758Y-45766661D01*
X110654990Y-46280303D01*
X111047630Y-46673629D01*
X111560900Y-46886757D01*
X112116661Y-46887242D01*
X112630303Y-46675010D01*
X112778911Y-46526661D01*
X119602758Y-46526661D01*
X119814990Y-47040303D01*
X120207630Y-47433629D01*
X120720900Y-47646757D01*
X121276661Y-47647242D01*
X121790303Y-47435010D01*
X121830215Y-47395167D01*
X126204838Y-47395167D01*
X126346883Y-47738943D01*
X126609673Y-48002192D01*
X126953201Y-48144838D01*
X127325167Y-48145162D01*
X127668943Y-48003117D01*
X127932192Y-47740327D01*
X128074838Y-47396799D01*
X128075162Y-47024833D01*
X127933117Y-46681057D01*
X127670327Y-46417808D01*
X127326799Y-46275162D01*
X126954833Y-46274838D01*
X126611057Y-46416883D01*
X126347808Y-46679673D01*
X126205162Y-47023201D01*
X126204838Y-47395167D01*
X121830215Y-47395167D01*
X122183629Y-47042370D01*
X122396757Y-46529100D01*
X122397242Y-45973339D01*
X122185010Y-45459697D01*
X121792370Y-45066371D01*
X121279100Y-44853243D01*
X120723339Y-44852758D01*
X120209697Y-45064990D01*
X119816371Y-45457630D01*
X119603243Y-45970900D01*
X119602758Y-46526661D01*
X112778911Y-46526661D01*
X113023629Y-46282370D01*
X113236757Y-45769100D01*
X113237242Y-45213339D01*
X113025010Y-44699697D01*
X112632370Y-44306371D01*
X112119100Y-44093243D01*
X111563339Y-44092758D01*
X111049697Y-44304990D01*
X110656371Y-44697630D01*
X110443243Y-45210900D01*
X110442758Y-45766661D01*
X108955001Y-45766661D01*
X108955001Y-45170001D01*
X108950358Y-45146661D01*
X108891441Y-44850461D01*
X108710435Y-44579567D01*
X108215172Y-44084304D01*
X108247398Y-44096188D01*
X108877461Y-44071352D01*
X109344208Y-43878019D01*
X109436745Y-43616350D01*
X108500000Y-42679605D01*
X108485858Y-42693748D01*
X108306253Y-42514143D01*
X108320395Y-42500000D01*
X108679605Y-42500000D01*
X109616350Y-43436745D01*
X109878019Y-43344208D01*
X109940356Y-43175167D01*
X128474838Y-43175167D01*
X128616883Y-43518943D01*
X128879673Y-43782192D01*
X129223201Y-43924838D01*
X129519172Y-43925096D01*
X129366371Y-44077630D01*
X129153243Y-44590900D01*
X129152758Y-45146661D01*
X129364990Y-45660303D01*
X129757630Y-46053629D01*
X130270900Y-46266757D01*
X130826661Y-46267242D01*
X130944983Y-46218352D01*
X130944838Y-46385167D01*
X131086883Y-46728943D01*
X131349673Y-46992192D01*
X131467284Y-47041029D01*
X131365825Y-47142311D01*
X131223179Y-47485839D01*
X131222855Y-47857805D01*
X131364900Y-48201581D01*
X131627690Y-48464830D01*
X131971218Y-48607476D01*
X132343184Y-48607800D01*
X132686960Y-48465755D01*
X132950209Y-48202965D01*
X133092855Y-47859437D01*
X133093179Y-47487471D01*
X133012983Y-47293380D01*
X133936900Y-47293380D01*
X134078945Y-47637156D01*
X134341735Y-47900405D01*
X134685263Y-48043051D01*
X135057229Y-48043375D01*
X135401005Y-47901330D01*
X135664254Y-47638540D01*
X135806900Y-47295012D01*
X135806964Y-47220904D01*
X140260802Y-47220904D01*
X140402847Y-47564680D01*
X140665637Y-47827929D01*
X141009165Y-47970575D01*
X141381131Y-47970899D01*
X141724907Y-47828854D01*
X141988156Y-47566064D01*
X142099860Y-47297052D01*
X144400502Y-47297052D01*
X144542547Y-47640828D01*
X144805337Y-47904077D01*
X145148865Y-48046723D01*
X145520831Y-48047047D01*
X145864607Y-47905002D01*
X146127856Y-47642212D01*
X146216974Y-47427592D01*
X147381163Y-47427592D01*
X147523208Y-47771368D01*
X147548476Y-47796680D01*
X147446512Y-48042234D01*
X147446188Y-48414200D01*
X147588233Y-48757976D01*
X147851023Y-49021225D01*
X148117222Y-49131761D01*
X148117042Y-49338161D01*
X148259087Y-49681937D01*
X148521877Y-49945186D01*
X148865405Y-50087832D01*
X149237371Y-50088156D01*
X149581147Y-49946111D01*
X149844396Y-49683321D01*
X149909747Y-49525939D01*
X150079673Y-49696162D01*
X150423201Y-49838808D01*
X150795167Y-49839132D01*
X151138943Y-49697087D01*
X151402192Y-49434297D01*
X151544838Y-49090769D01*
X151545162Y-48718803D01*
X151403117Y-48375027D01*
X151140327Y-48111778D01*
X150796799Y-47969132D01*
X150424833Y-47968808D01*
X150081057Y-48110853D01*
X149817808Y-48373643D01*
X149752457Y-48531025D01*
X149582531Y-48360802D01*
X149316332Y-48250266D01*
X149316512Y-48043866D01*
X149174467Y-47700090D01*
X149149199Y-47674778D01*
X149251163Y-47429224D01*
X149251252Y-47326661D01*
X153122758Y-47326661D01*
X153334990Y-47840303D01*
X153727630Y-48233629D01*
X154240900Y-48446757D01*
X154796661Y-48447242D01*
X155310303Y-48235010D01*
X155703629Y-47842370D01*
X155916757Y-47329100D01*
X155917242Y-46773339D01*
X155705010Y-46259697D01*
X155312370Y-45866371D01*
X154799100Y-45653243D01*
X154243339Y-45652758D01*
X153729697Y-45864990D01*
X153336371Y-46257630D01*
X153123243Y-46770900D01*
X153122758Y-47326661D01*
X149251252Y-47326661D01*
X149251487Y-47057258D01*
X149109442Y-46713482D01*
X148846652Y-46450233D01*
X148503124Y-46307587D01*
X148131158Y-46307263D01*
X147787382Y-46449308D01*
X147524133Y-46712098D01*
X147381487Y-47055626D01*
X147381163Y-47427592D01*
X146216974Y-47427592D01*
X146270502Y-47298684D01*
X146270826Y-46926718D01*
X146128781Y-46582942D01*
X145865991Y-46319693D01*
X145522463Y-46177047D01*
X145150497Y-46176723D01*
X144806721Y-46318768D01*
X144543472Y-46581558D01*
X144400826Y-46925086D01*
X144400502Y-47297052D01*
X142099860Y-47297052D01*
X142130802Y-47222536D01*
X142131126Y-46850570D01*
X141989081Y-46506794D01*
X141726291Y-46243545D01*
X141382763Y-46100899D01*
X141010797Y-46100575D01*
X140667021Y-46242620D01*
X140403772Y-46505410D01*
X140261126Y-46848938D01*
X140260802Y-47220904D01*
X135806964Y-47220904D01*
X135807224Y-46923046D01*
X135665179Y-46579270D01*
X135402389Y-46316021D01*
X135058861Y-46173375D01*
X134686895Y-46173051D01*
X134343119Y-46315096D01*
X134079870Y-46577886D01*
X133937224Y-46921414D01*
X133936900Y-47293380D01*
X133012983Y-47293380D01*
X132951134Y-47143695D01*
X132688344Y-46880446D01*
X132570733Y-46831609D01*
X132672192Y-46730327D01*
X132814838Y-46386799D01*
X132815162Y-46014833D01*
X132673117Y-45671057D01*
X132431313Y-45428830D01*
X132660598Y-45334092D01*
X132674374Y-45320340D01*
X134004860Y-45320340D01*
X134146905Y-45664116D01*
X134409695Y-45927365D01*
X134753223Y-46070011D01*
X135125189Y-46070335D01*
X135468965Y-45928290D01*
X135732214Y-45665500D01*
X135757266Y-45605167D01*
X157034838Y-45605167D01*
X157176883Y-45948943D01*
X157439673Y-46212192D01*
X157783201Y-46354838D01*
X158155167Y-46355162D01*
X158498943Y-46213117D01*
X158762192Y-45950327D01*
X158904838Y-45606799D01*
X158905162Y-45234833D01*
X158808132Y-45000000D01*
X163231009Y-45000000D01*
X163353563Y-45616120D01*
X163702567Y-46138442D01*
X164224889Y-46487446D01*
X164841009Y-46610000D01*
X165158991Y-46610000D01*
X165775111Y-46487446D01*
X166297433Y-46138442D01*
X166646437Y-45616120D01*
X166768991Y-45000000D01*
X166646437Y-44383880D01*
X166297433Y-43861558D01*
X165775111Y-43512554D01*
X165158991Y-43390000D01*
X164841009Y-43390000D01*
X164224889Y-43512554D01*
X163702567Y-43861558D01*
X163353563Y-44383880D01*
X163231009Y-45000000D01*
X158808132Y-45000000D01*
X158763117Y-44891057D01*
X158500327Y-44627808D01*
X158156799Y-44485162D01*
X157784833Y-44484838D01*
X157441057Y-44626883D01*
X157177808Y-44889673D01*
X157035162Y-45233201D01*
X157034838Y-45605167D01*
X135757266Y-45605167D01*
X135874860Y-45321972D01*
X135875184Y-44950006D01*
X135733139Y-44606230D01*
X135470349Y-44342981D01*
X135126821Y-44200335D01*
X134754855Y-44200011D01*
X134411079Y-44342056D01*
X134147830Y-44604846D01*
X134005184Y-44948374D01*
X134004860Y-45320340D01*
X132674374Y-45320340D01*
X132923847Y-45071302D01*
X133066493Y-44727774D01*
X133066817Y-44355808D01*
X132924772Y-44012032D01*
X132661982Y-43748783D01*
X132318454Y-43606137D01*
X131946488Y-43605813D01*
X131602712Y-43747858D01*
X131503057Y-43847339D01*
X131342370Y-43686371D01*
X130829100Y-43473243D01*
X130273339Y-43472758D01*
X130211300Y-43498392D01*
X130344838Y-43176799D01*
X130345162Y-42804833D01*
X130203117Y-42461057D01*
X129940327Y-42197808D01*
X129596799Y-42055162D01*
X129224833Y-42054838D01*
X128881057Y-42196883D01*
X128617808Y-42459673D01*
X128475162Y-42803201D01*
X128474838Y-43175167D01*
X109940356Y-43175167D01*
X110096188Y-42752602D01*
X110071352Y-42122539D01*
X109878019Y-41655792D01*
X109616350Y-41563255D01*
X108679605Y-42500000D01*
X108320395Y-42500000D01*
X108306253Y-42485858D01*
X108485858Y-42306253D01*
X108500000Y-42320395D01*
X109436745Y-41383650D01*
X109405593Y-41295561D01*
X109842914Y-40859003D01*
X109898487Y-40725167D01*
X123804838Y-40725167D01*
X123946883Y-41068943D01*
X124209673Y-41332192D01*
X124553201Y-41474838D01*
X124925167Y-41475162D01*
X125268943Y-41333117D01*
X125532192Y-41070327D01*
X125674838Y-40726799D01*
X125674882Y-40675167D01*
X128344838Y-40675167D01*
X128486883Y-41018943D01*
X128749673Y-41282192D01*
X129093201Y-41424838D01*
X129465167Y-41425162D01*
X129808943Y-41283117D01*
X130072192Y-41020327D01*
X130214838Y-40676799D01*
X130214881Y-40626661D01*
X132252758Y-40626661D01*
X132464990Y-41140303D01*
X132857630Y-41533629D01*
X133370900Y-41746757D01*
X133926661Y-41747242D01*
X134440303Y-41535010D01*
X134833629Y-41142370D01*
X134894752Y-40995167D01*
X139344838Y-40995167D01*
X139486883Y-41338943D01*
X139749673Y-41602192D01*
X140093201Y-41744838D01*
X140465167Y-41745162D01*
X140808943Y-41603117D01*
X141072192Y-41340327D01*
X141161534Y-41125167D01*
X149124838Y-41125167D01*
X149266883Y-41468943D01*
X149529673Y-41732192D01*
X149873201Y-41874838D01*
X150245167Y-41875162D01*
X150588943Y-41733117D01*
X150852192Y-41470327D01*
X150994838Y-41126799D01*
X150995162Y-40754833D01*
X150853117Y-40411057D01*
X150590327Y-40147808D01*
X150246799Y-40005162D01*
X149874833Y-40004838D01*
X149531057Y-40146883D01*
X149267808Y-40409673D01*
X149125162Y-40753201D01*
X149124838Y-41125167D01*
X141161534Y-41125167D01*
X141214838Y-40996799D01*
X141215162Y-40624833D01*
X141073117Y-40281057D01*
X140810327Y-40017808D01*
X140466799Y-39875162D01*
X140094833Y-39874838D01*
X139751057Y-40016883D01*
X139487808Y-40279673D01*
X139345162Y-40623201D01*
X139344838Y-40995167D01*
X134894752Y-40995167D01*
X135046757Y-40629100D01*
X135047242Y-40073339D01*
X134835010Y-39559697D01*
X134830488Y-39555167D01*
X143904838Y-39555167D01*
X144046883Y-39898943D01*
X144309673Y-40162192D01*
X144653201Y-40304838D01*
X145025167Y-40305162D01*
X145368943Y-40163117D01*
X145532344Y-40000000D01*
X163332968Y-40000000D01*
X163446007Y-40568285D01*
X163767914Y-41050054D01*
X164249683Y-41371961D01*
X164817968Y-41485000D01*
X165182032Y-41485000D01*
X165750317Y-41371961D01*
X166232086Y-41050054D01*
X166553993Y-40568285D01*
X166667032Y-40000000D01*
X166553993Y-39431715D01*
X166232086Y-38949946D01*
X165750317Y-38628039D01*
X165182032Y-38515000D01*
X164817968Y-38515000D01*
X164249683Y-38628039D01*
X163767914Y-38949946D01*
X163446007Y-39431715D01*
X163332968Y-40000000D01*
X145532344Y-40000000D01*
X145632192Y-39900327D01*
X145774838Y-39556799D01*
X145775162Y-39184833D01*
X145633117Y-38841057D01*
X145370327Y-38577808D01*
X145026799Y-38435162D01*
X144654833Y-38434838D01*
X144311057Y-38576883D01*
X144047808Y-38839673D01*
X143905162Y-39183201D01*
X143904838Y-39555167D01*
X134830488Y-39555167D01*
X134442370Y-39166371D01*
X133929100Y-38953243D01*
X133373339Y-38952758D01*
X132859697Y-39164990D01*
X132466371Y-39557630D01*
X132253243Y-40070900D01*
X132252758Y-40626661D01*
X130214881Y-40626661D01*
X130215162Y-40304833D01*
X130073117Y-39961057D01*
X129810327Y-39697808D01*
X129466799Y-39555162D01*
X129094833Y-39554838D01*
X128751057Y-39696883D01*
X128487808Y-39959673D01*
X128345162Y-40303201D01*
X128344838Y-40675167D01*
X125674882Y-40675167D01*
X125675162Y-40354833D01*
X125533117Y-40011057D01*
X125447245Y-39925035D01*
X125584140Y-39788379D01*
X125726786Y-39444851D01*
X125727110Y-39072885D01*
X125585065Y-38729109D01*
X125322275Y-38465860D01*
X124978747Y-38323214D01*
X124606781Y-38322890D01*
X124263005Y-38464935D01*
X123999756Y-38727725D01*
X123857110Y-39071253D01*
X123856786Y-39443219D01*
X123998831Y-39786995D01*
X124084703Y-39873017D01*
X123947808Y-40009673D01*
X123805162Y-40353201D01*
X123804838Y-40725167D01*
X109898487Y-40725167D01*
X110084724Y-40276659D01*
X110085275Y-39646107D01*
X109844481Y-39063343D01*
X109399003Y-38617086D01*
X108936811Y-38425167D01*
X118824838Y-38425167D01*
X118966883Y-38768943D01*
X119229673Y-39032192D01*
X119573201Y-39174838D01*
X119945167Y-39175162D01*
X120288943Y-39033117D01*
X120552192Y-38770327D01*
X120694838Y-38426799D01*
X120695162Y-38054833D01*
X120653981Y-37955167D01*
X133124838Y-37955167D01*
X133266883Y-38298943D01*
X133529673Y-38562192D01*
X133873201Y-38704838D01*
X134245167Y-38705162D01*
X134588943Y-38563117D01*
X134852192Y-38300327D01*
X134994838Y-37956799D01*
X134995048Y-37715167D01*
X142054838Y-37715167D01*
X142196883Y-38058943D01*
X142459673Y-38322192D01*
X142803201Y-38464838D01*
X143175167Y-38465162D01*
X143518943Y-38323117D01*
X143782192Y-38060327D01*
X143924838Y-37716799D01*
X143925162Y-37344833D01*
X143783117Y-37001057D01*
X143520327Y-36737808D01*
X143176799Y-36595162D01*
X142804833Y-36594838D01*
X142461057Y-36736883D01*
X142197808Y-36999673D01*
X142055162Y-37343201D01*
X142054838Y-37715167D01*
X134995048Y-37715167D01*
X134995162Y-37584833D01*
X134853117Y-37241057D01*
X134590327Y-36977808D01*
X134246799Y-36835162D01*
X133874833Y-36834838D01*
X133531057Y-36976883D01*
X133267808Y-37239673D01*
X133125162Y-37583201D01*
X133124838Y-37955167D01*
X120653981Y-37955167D01*
X120553117Y-37711057D01*
X120290327Y-37447808D01*
X119946799Y-37305162D01*
X119574833Y-37304838D01*
X119231057Y-37446883D01*
X118967808Y-37709673D01*
X118825162Y-38053201D01*
X118824838Y-38425167D01*
X108936811Y-38425167D01*
X108816659Y-38375276D01*
X108186107Y-38374725D01*
X107605000Y-38614834D01*
X107605000Y-33517866D01*
X116047539Y-25075327D01*
X116155519Y-25336657D01*
X116528471Y-25710261D01*
X116157086Y-26080997D01*
X115915276Y-26663341D01*
X115914725Y-27293893D01*
X116155519Y-27876657D01*
X116528471Y-28250261D01*
X116157086Y-28620997D01*
X115915276Y-29203341D01*
X115914725Y-29833893D01*
X116155519Y-30416657D01*
X116528471Y-30790261D01*
X116157086Y-31160997D01*
X115915276Y-31743341D01*
X115914725Y-32373893D01*
X116155519Y-32956657D01*
X116600997Y-33402914D01*
X117183341Y-33644724D01*
X117813893Y-33645275D01*
X118396657Y-33404481D01*
X118786651Y-33015167D01*
X147894838Y-33015167D01*
X148036883Y-33358943D01*
X148299673Y-33622192D01*
X148643201Y-33764838D01*
X149015167Y-33765162D01*
X149358943Y-33623117D01*
X149622192Y-33360327D01*
X149764838Y-33016799D01*
X149765162Y-32644833D01*
X149623117Y-32301057D01*
X149360327Y-32037808D01*
X149016799Y-31895162D01*
X148644833Y-31894838D01*
X148301057Y-32036883D01*
X148037808Y-32299673D01*
X147895162Y-32643201D01*
X147894838Y-33015167D01*
X118786651Y-33015167D01*
X118842914Y-32959003D01*
X119084724Y-32376659D01*
X119085275Y-31746107D01*
X118844481Y-31163343D01*
X118471529Y-30789739D01*
X118842914Y-30419003D01*
X119016898Y-30000000D01*
X163332968Y-30000000D01*
X163446007Y-30568285D01*
X163767914Y-31050054D01*
X164249683Y-31371961D01*
X164817968Y-31485000D01*
X165182032Y-31485000D01*
X165750317Y-31371961D01*
X166232086Y-31050054D01*
X166553993Y-30568285D01*
X166667032Y-30000000D01*
X166553993Y-29431715D01*
X166232086Y-28949946D01*
X165750317Y-28628039D01*
X165182032Y-28515000D01*
X164817968Y-28515000D01*
X164249683Y-28628039D01*
X163767914Y-28949946D01*
X163446007Y-29431715D01*
X163332968Y-30000000D01*
X119016898Y-30000000D01*
X119084724Y-29836659D01*
X119085275Y-29206107D01*
X118844481Y-28623343D01*
X118471529Y-28249739D01*
X118842914Y-27879003D01*
X119084724Y-27296659D01*
X119085275Y-26666107D01*
X118844481Y-26083343D01*
X118471529Y-25709739D01*
X118792936Y-25388893D01*
X127874725Y-25388893D01*
X128115519Y-25971657D01*
X128560997Y-26417914D01*
X128899228Y-26558360D01*
X128837808Y-26619673D01*
X128695162Y-26963201D01*
X128694838Y-27335167D01*
X128836883Y-27678943D01*
X129099673Y-27942192D01*
X129331184Y-28038324D01*
X129141057Y-28116883D01*
X128877808Y-28379673D01*
X128735162Y-28723201D01*
X128734838Y-29095167D01*
X128876883Y-29438943D01*
X129139673Y-29702192D01*
X129483201Y-29844838D01*
X129855167Y-29845162D01*
X130198943Y-29703117D01*
X130462192Y-29440327D01*
X130604838Y-29096799D01*
X130605162Y-28724833D01*
X130463117Y-28381057D01*
X130200327Y-28117808D01*
X129968816Y-28021676D01*
X130158943Y-27943117D01*
X130422192Y-27680327D01*
X130564838Y-27336799D01*
X130565162Y-26964833D01*
X130423117Y-26621057D01*
X130261247Y-26458904D01*
X130356657Y-26419481D01*
X130730261Y-26046529D01*
X131100997Y-26417914D01*
X131683341Y-26659724D01*
X132313893Y-26660275D01*
X132896657Y-26419481D01*
X133270261Y-26046529D01*
X133640997Y-26417914D01*
X134223341Y-26659724D01*
X134853893Y-26660275D01*
X135436657Y-26419481D01*
X135882914Y-25974003D01*
X136124724Y-25391659D01*
X136124791Y-25313893D01*
X142534725Y-25313893D01*
X142775519Y-25896657D01*
X143220997Y-26342914D01*
X143803341Y-26584724D01*
X144433893Y-26585275D01*
X145016657Y-26344481D01*
X145390261Y-25971529D01*
X145760997Y-26342914D01*
X146343341Y-26584724D01*
X146973893Y-26585275D01*
X147556657Y-26344481D01*
X147930261Y-25971529D01*
X148300997Y-26342914D01*
X148883341Y-26584724D01*
X149513893Y-26585275D01*
X150096657Y-26344481D01*
X150542914Y-25899003D01*
X150784724Y-25316659D01*
X150785000Y-25000000D01*
X163231009Y-25000000D01*
X163353563Y-25616120D01*
X163702567Y-26138442D01*
X164224889Y-26487446D01*
X164841009Y-26610000D01*
X165158991Y-26610000D01*
X165775111Y-26487446D01*
X166297433Y-26138442D01*
X166646437Y-25616120D01*
X166768991Y-25000000D01*
X166646437Y-24383880D01*
X166297433Y-23861558D01*
X165775111Y-23512554D01*
X165158991Y-23390000D01*
X164841009Y-23390000D01*
X164224889Y-23512554D01*
X163702567Y-23861558D01*
X163353563Y-24383880D01*
X163231009Y-25000000D01*
X150785000Y-25000000D01*
X150785275Y-24686107D01*
X150544481Y-24103343D01*
X150099003Y-23657086D01*
X149516659Y-23415276D01*
X148886107Y-23414725D01*
X148303343Y-23655519D01*
X147929739Y-24028471D01*
X147559003Y-23657086D01*
X146976659Y-23415276D01*
X146346107Y-23414725D01*
X145763343Y-23655519D01*
X145389739Y-24028471D01*
X145019003Y-23657086D01*
X144436659Y-23415276D01*
X143806107Y-23414725D01*
X143223343Y-23655519D01*
X142777086Y-24100997D01*
X142535276Y-24683341D01*
X142534725Y-25313893D01*
X136124791Y-25313893D01*
X136125275Y-24761107D01*
X135884481Y-24178343D01*
X135439003Y-23732086D01*
X134856659Y-23490276D01*
X134226107Y-23489725D01*
X133643343Y-23730519D01*
X133269739Y-24103471D01*
X132899003Y-23732086D01*
X132316659Y-23490276D01*
X131686107Y-23489725D01*
X131103343Y-23730519D01*
X130729739Y-24103471D01*
X130359003Y-23732086D01*
X129776659Y-23490276D01*
X129146107Y-23489725D01*
X128563343Y-23730519D01*
X128117086Y-24175997D01*
X127875276Y-24758341D01*
X127874725Y-25388893D01*
X118792936Y-25388893D01*
X118842914Y-25339003D01*
X119084724Y-24756659D01*
X119085275Y-24126107D01*
X118844481Y-23543343D01*
X118399003Y-23097086D01*
X118135285Y-22987581D01*
X118787866Y-22335000D01*
X177654132Y-22335000D01*
X180165000Y-24845868D01*
X180165000Y-31140000D01*
X180228561Y-31459541D01*
X180388270Y-31698562D01*
X180409566Y-31730434D01*
X181699718Y-33020586D01*
X181695260Y-33031321D01*
X181694741Y-33626069D01*
X181921861Y-34175743D01*
X182342045Y-34596660D01*
X182349426Y-34599725D01*
X182344257Y-34601861D01*
X181923340Y-35022045D01*
X181695260Y-35571321D01*
X181694741Y-36166069D01*
X181921861Y-36715743D01*
X182342045Y-37136660D01*
X182349426Y-37139725D01*
X182344257Y-37141861D01*
X181923340Y-37562045D01*
X181695260Y-38111321D01*
X181694741Y-38706069D01*
X181921861Y-39255743D01*
X182342045Y-39676660D01*
X182349426Y-39679725D01*
X182344257Y-39681861D01*
X181923340Y-40102045D01*
X181695260Y-40651321D01*
X181694741Y-41246069D01*
X181921861Y-41795743D01*
X182342045Y-42216660D01*
X182349426Y-42219725D01*
X182344257Y-42221861D01*
X181923340Y-42642045D01*
X181695260Y-43191321D01*
X181694741Y-43786069D01*
X181921861Y-44335743D01*
X182342045Y-44756660D01*
X182349426Y-44759725D01*
X182344257Y-44761861D01*
X181923340Y-45182045D01*
X181695260Y-45731321D01*
X181694741Y-46326069D01*
X181921861Y-46875743D01*
X182342045Y-47296660D01*
X182349426Y-47299725D01*
X182344257Y-47301861D01*
X181923340Y-47722045D01*
X181695260Y-48271321D01*
X181694741Y-48866069D01*
X181921861Y-49415743D01*
X182342045Y-49836660D01*
X182349426Y-49839725D01*
X182344257Y-49841861D01*
X181923340Y-50262045D01*
X181695260Y-50811321D01*
X181694741Y-51406069D01*
X181921861Y-51955743D01*
X182342045Y-52376660D01*
X182349426Y-52379725D01*
X182344257Y-52381861D01*
X181923340Y-52802045D01*
X181695260Y-53351321D01*
X181694741Y-53946069D01*
X181921861Y-54495743D01*
X182342045Y-54916660D01*
X182349426Y-54919725D01*
X182344257Y-54921861D01*
X181923340Y-55342045D01*
X181695260Y-55891321D01*
X181694741Y-56486069D01*
X181921861Y-57035743D01*
X182342045Y-57456660D01*
X182349426Y-57459725D01*
X182344257Y-57461861D01*
X181923340Y-57882045D01*
X181695260Y-58431321D01*
X181694741Y-59026069D01*
X181921861Y-59575743D01*
X182342045Y-59996660D01*
X182349426Y-59999725D01*
X182344257Y-60001861D01*
X181923340Y-60422045D01*
X181695260Y-60971321D01*
X181694741Y-61566069D01*
X181921861Y-62115743D01*
X182342045Y-62536660D01*
X182349426Y-62539725D01*
X182344257Y-62541861D01*
X181923340Y-62962045D01*
X181695260Y-63511321D01*
X181694741Y-64106069D01*
X181921861Y-64655743D01*
X182342045Y-65076660D01*
X182349426Y-65079725D01*
X182344257Y-65081861D01*
X181923340Y-65502045D01*
X181695260Y-66051321D01*
X181694741Y-66646069D01*
X181921861Y-67195743D01*
X182342045Y-67616660D01*
X182349426Y-67619725D01*
X182344257Y-67621861D01*
X181923340Y-68042045D01*
X181695260Y-68591321D01*
X181694741Y-69186069D01*
X181921861Y-69735743D01*
X182342045Y-70156660D01*
X182349426Y-70159725D01*
X182344257Y-70161861D01*
X181923340Y-70582045D01*
X181695260Y-71131321D01*
X181694741Y-71726069D01*
X181921861Y-72275743D01*
X182342045Y-72696660D01*
X182349426Y-72699725D01*
X182344257Y-72701861D01*
X181923340Y-73122045D01*
X181695260Y-73671321D01*
X181694741Y-74266069D01*
X181921861Y-74815743D01*
X182342045Y-75236660D01*
X182349426Y-75239725D01*
X182344257Y-75241861D01*
X181923340Y-75662045D01*
X181695260Y-76211321D01*
X181695164Y-76321613D01*
X181592838Y-76279123D01*
X181220872Y-76278799D01*
X180877096Y-76420844D01*
X180613847Y-76683634D01*
X180471201Y-77027162D01*
X180470877Y-77399128D01*
X180612922Y-77742904D01*
X180875712Y-78006153D01*
X181219240Y-78148799D01*
X181591206Y-78149123D01*
X181934982Y-78007078D01*
X182198231Y-77744288D01*
X182230986Y-77665407D01*
X182342045Y-77776660D01*
X182349426Y-77779725D01*
X182344257Y-77781861D01*
X181923340Y-78202045D01*
X181695260Y-78751321D01*
X181694741Y-79346069D01*
X181921861Y-79895743D01*
X182342045Y-80316660D01*
X182349426Y-80319725D01*
X182344257Y-80321861D01*
X181923340Y-80742045D01*
X181695260Y-81291321D01*
X181694741Y-81886069D01*
X181921861Y-82435743D01*
X182342045Y-82856660D01*
X182349426Y-82859725D01*
X182344257Y-82861861D01*
X181923340Y-83282045D01*
X181695260Y-83831321D01*
X181694741Y-84426069D01*
X181921861Y-84975743D01*
X182342045Y-85396660D01*
X182349426Y-85399725D01*
X182344257Y-85401861D01*
X181923340Y-85822045D01*
X181695260Y-86371321D01*
X181694741Y-86966069D01*
X181921861Y-87515743D01*
X182342045Y-87936660D01*
X182349426Y-87939725D01*
X182344257Y-87941861D01*
X181923340Y-88362045D01*
X181695260Y-88911321D01*
X181694741Y-89506069D01*
X181921861Y-90055743D01*
X182342045Y-90476660D01*
X182349426Y-90479725D01*
X182344257Y-90481861D01*
X181923340Y-90902045D01*
X181695260Y-91451321D01*
X181694741Y-92046069D01*
X181921861Y-92595743D01*
X182342045Y-93016660D01*
X182349426Y-93019725D01*
X182344257Y-93021861D01*
X181923340Y-93442045D01*
X181695260Y-93991321D01*
X181694741Y-94586069D01*
X181921861Y-95135743D01*
X182342045Y-95556660D01*
X182349426Y-95559725D01*
X182344257Y-95561861D01*
X181923340Y-95982045D01*
X181695260Y-96531321D01*
X181694741Y-97126069D01*
X181921861Y-97675743D01*
X182342045Y-98096660D01*
X182349426Y-98099725D01*
X182344257Y-98101861D01*
X181923340Y-98522045D01*
X181695260Y-99071321D01*
X181694741Y-99666069D01*
X181921861Y-100215743D01*
X182342045Y-100636660D01*
X182349426Y-100639725D01*
X182344257Y-100641861D01*
X181923340Y-101062045D01*
X181695260Y-101611321D01*
X181694741Y-102206069D01*
X181921861Y-102755743D01*
X182342045Y-103176660D01*
X182349426Y-103179725D01*
X182344257Y-103181861D01*
X181923340Y-103602045D01*
X181695260Y-104151321D01*
X181694741Y-104746069D01*
X181921861Y-105295743D01*
X182342045Y-105716660D01*
X182891321Y-105944740D01*
X183486069Y-105945259D01*
X184035743Y-105718139D01*
X184456660Y-105297955D01*
X184459725Y-105290574D01*
X184461861Y-105295743D01*
X184882045Y-105716660D01*
X185431321Y-105944740D01*
X186026069Y-105945259D01*
X186575743Y-105718139D01*
X186996660Y-105297955D01*
X186999824Y-105290336D01*
X186999340Y-105844531D01*
X187578156Y-107245372D01*
X188648991Y-108318077D01*
X190048819Y-108899337D01*
X191564531Y-108900660D01*
X192965372Y-108321844D01*
X194038077Y-107251009D01*
X194619337Y-105851181D01*
X194620660Y-104335469D01*
X194041844Y-102934628D01*
X192971009Y-101861923D01*
X191571181Y-101280663D01*
X190055469Y-101279340D01*
X188654628Y-101858156D01*
X187581923Y-102928991D01*
X187149459Y-103970480D01*
X186998139Y-103604257D01*
X186577955Y-103183340D01*
X186570574Y-103180275D01*
X186575743Y-103178139D01*
X186996660Y-102757955D01*
X187224740Y-102208679D01*
X187225259Y-101613931D01*
X187163723Y-101465001D01*
X188193168Y-101465001D01*
X188512709Y-101401440D01*
X188783602Y-101220435D01*
X192716813Y-97287224D01*
X192774534Y-97200838D01*
X192897818Y-97016331D01*
X192961379Y-96696790D01*
X192961379Y-36904278D01*
X192897818Y-36584737D01*
X192716813Y-36313844D01*
X187882534Y-31479565D01*
X187852564Y-31459540D01*
X187611641Y-31298560D01*
X187292100Y-31234999D01*
X187163982Y-31234999D01*
X187224740Y-31088679D01*
X187225259Y-30493931D01*
X186998139Y-29944257D01*
X186577955Y-29523340D01*
X186570574Y-29520275D01*
X186575743Y-29518139D01*
X186996660Y-29097955D01*
X187224740Y-28548679D01*
X187225259Y-27953931D01*
X186998139Y-27404257D01*
X186577955Y-26983340D01*
X186570574Y-26980275D01*
X186575743Y-26978139D01*
X186996660Y-26557955D01*
X187147829Y-26193901D01*
X187578156Y-27235372D01*
X188648991Y-28308077D01*
X190048819Y-28889337D01*
X191564531Y-28890660D01*
X192965372Y-28311844D01*
X194038077Y-27241009D01*
X194619337Y-25841181D01*
X194620660Y-24325469D01*
X194041844Y-22924628D01*
X192971009Y-21851923D01*
X191571181Y-21270663D01*
X190055469Y-21269340D01*
X188654628Y-21848156D01*
X187581923Y-22918991D01*
X187000663Y-24318819D01*
X187000183Y-24869203D01*
X186998139Y-24864257D01*
X186577955Y-24443340D01*
X186028679Y-24215260D01*
X185433931Y-24214741D01*
X184884257Y-24441861D01*
X184463340Y-24862045D01*
X184460275Y-24869426D01*
X184458139Y-24864257D01*
X184037955Y-24443340D01*
X183488679Y-24215260D01*
X182893931Y-24214741D01*
X182344257Y-24441861D01*
X181923340Y-24862045D01*
X181835000Y-25074791D01*
X181835000Y-24500000D01*
X181823730Y-24443340D01*
X181771440Y-24180460D01*
X181590434Y-23909566D01*
X178590434Y-20909566D01*
X178319541Y-20728561D01*
X178100546Y-20685000D01*
X195205000Y-20685000D01*
X195205000Y-109485000D01*
X195205000Y-109485000D01*
G37*
X195205000Y-109485000D02*
X100685000Y-109485000D01*
X100685000Y-107613893D01*
X114294725Y-107613893D01*
X114535519Y-108196657D01*
X114980997Y-108642914D01*
X115563341Y-108884724D01*
X116193893Y-108885275D01*
X116776657Y-108644481D01*
X117150261Y-108271529D01*
X117520997Y-108642914D01*
X118103341Y-108884724D01*
X118733893Y-108885275D01*
X119316657Y-108644481D01*
X119762914Y-108199003D01*
X120004724Y-107616659D01*
X120005275Y-106986107D01*
X119764481Y-106403343D01*
X119319003Y-105957086D01*
X118736659Y-105715276D01*
X118106107Y-105714725D01*
X117523343Y-105955519D01*
X117149739Y-106328471D01*
X116779003Y-105957086D01*
X116196659Y-105715276D01*
X115566107Y-105714725D01*
X114983343Y-105955519D01*
X114537086Y-106400997D01*
X114295276Y-106983341D01*
X114294725Y-107613893D01*
X100685000Y-107613893D01*
X100685000Y-106155167D01*
X111734838Y-106155167D01*
X111876883Y-106498943D01*
X112139673Y-106762192D01*
X112483201Y-106904838D01*
X112855167Y-106905162D01*
X113198943Y-106763117D01*
X113462192Y-106500327D01*
X113604838Y-106156799D01*
X113605162Y-105784833D01*
X113463117Y-105441057D01*
X113200327Y-105177808D01*
X112856799Y-105035162D01*
X112484833Y-105034838D01*
X112141057Y-105176883D01*
X111877808Y-105439673D01*
X111735162Y-105783201D01*
X111734838Y-106155167D01*
X100685000Y-106155167D01*
X100685000Y-102034531D01*
X101269340Y-102034531D01*
X101848156Y-103435372D01*
X102918991Y-104508077D01*
X104318819Y-105089337D01*
X105834531Y-105090660D01*
X107235372Y-104511844D01*
X108303911Y-103445167D01*
X120344838Y-103445167D01*
X120486883Y-103788943D01*
X120749673Y-104052192D01*
X121093201Y-104194838D01*
X121465167Y-104195162D01*
X121808943Y-104053117D01*
X122072192Y-103790327D01*
X122214838Y-103446799D01*
X122215162Y-103074833D01*
X122073117Y-102731057D01*
X121810327Y-102467808D01*
X121466799Y-102325162D01*
X121094833Y-102324838D01*
X120751057Y-102466883D01*
X120487808Y-102729673D01*
X120345162Y-103073201D01*
X120344838Y-103445167D01*
X108303911Y-103445167D01*
X108308077Y-103441009D01*
X108889337Y-102041181D01*
X108890041Y-101233893D01*
X122414725Y-101233893D01*
X122655519Y-101816657D01*
X123028471Y-102190261D01*
X122657086Y-102560997D01*
X122415276Y-103143341D01*
X122414725Y-103773893D01*
X122655519Y-104356657D01*
X123028471Y-104730261D01*
X122657086Y-105100997D01*
X122415276Y-105683341D01*
X122414725Y-106313893D01*
X122655519Y-106896657D01*
X123100997Y-107342914D01*
X123683341Y-107584724D01*
X124313893Y-107585275D01*
X124515692Y-107501893D01*
X128716725Y-107501893D01*
X128957519Y-108084657D01*
X129402997Y-108530914D01*
X129985341Y-108772724D01*
X130615893Y-108773275D01*
X131198657Y-108532481D01*
X131572261Y-108159529D01*
X131942997Y-108530914D01*
X132525341Y-108772724D01*
X133155893Y-108773275D01*
X133738657Y-108532481D01*
X133967186Y-108304350D01*
X149685255Y-108304350D01*
X149777792Y-108566019D01*
X150369398Y-108784188D01*
X150999461Y-108759352D01*
X151466208Y-108566019D01*
X151558745Y-108304350D01*
X150622000Y-107367605D01*
X149685255Y-108304350D01*
X133967186Y-108304350D01*
X134184914Y-108087003D01*
X134426724Y-107504659D01*
X134427275Y-106874107D01*
X134186481Y-106291343D01*
X133741003Y-105845086D01*
X133158659Y-105603276D01*
X132528107Y-105602725D01*
X131945343Y-105843519D01*
X131571739Y-106216471D01*
X131201003Y-105845086D01*
X130618659Y-105603276D01*
X129988107Y-105602725D01*
X129405343Y-105843519D01*
X128959086Y-106288997D01*
X128717276Y-106871341D01*
X128716725Y-107501893D01*
X124515692Y-107501893D01*
X124896657Y-107344481D01*
X125342914Y-106899003D01*
X125584724Y-106316659D01*
X125585275Y-105686107D01*
X125344481Y-105103343D01*
X124971529Y-104729739D01*
X125342914Y-104359003D01*
X125514452Y-103945893D01*
X140146725Y-103945893D01*
X140387519Y-104528657D01*
X140760471Y-104902261D01*
X140389086Y-105272997D01*
X140147276Y-105855341D01*
X140146725Y-106485893D01*
X140387519Y-107068657D01*
X140832997Y-107514914D01*
X141415341Y-107756724D01*
X142045893Y-107757275D01*
X142628657Y-107516481D01*
X143074914Y-107071003D01*
X143131222Y-106935398D01*
X149025812Y-106935398D01*
X149050648Y-107565461D01*
X149243981Y-108032208D01*
X149505650Y-108124745D01*
X150442395Y-107188000D01*
X150801605Y-107188000D01*
X151738350Y-108124745D01*
X151762088Y-108116350D01*
X156983255Y-108116350D01*
X157075792Y-108378019D01*
X157667398Y-108596188D01*
X158297461Y-108571352D01*
X158764208Y-108378019D01*
X158856745Y-108116350D01*
X157920000Y-107179605D01*
X156983255Y-108116350D01*
X151762088Y-108116350D01*
X152000019Y-108032208D01*
X152218188Y-107440602D01*
X152193352Y-106810539D01*
X152167199Y-106747398D01*
X156323812Y-106747398D01*
X156348648Y-107377461D01*
X156541981Y-107844208D01*
X156803650Y-107936745D01*
X157740395Y-107000000D01*
X158099605Y-107000000D01*
X159036350Y-107936745D01*
X159124439Y-107905593D01*
X159560997Y-108342914D01*
X160143341Y-108584724D01*
X160773893Y-108585275D01*
X161356657Y-108344481D01*
X161730261Y-107971529D01*
X162100997Y-108342914D01*
X162683341Y-108584724D01*
X163313893Y-108585275D01*
X163896657Y-108344481D01*
X164342914Y-107899003D01*
X164584724Y-107316659D01*
X164585275Y-106686107D01*
X164344481Y-106103343D01*
X163899003Y-105657086D01*
X163316659Y-105415276D01*
X162686107Y-105414725D01*
X162103343Y-105655519D01*
X161729739Y-106028471D01*
X161359003Y-105657086D01*
X160776659Y-105415276D01*
X160146107Y-105414725D01*
X159563343Y-105655519D01*
X159123884Y-106094211D01*
X159036350Y-106063255D01*
X158099605Y-107000000D01*
X157740395Y-107000000D01*
X156803650Y-106063255D01*
X156541981Y-106155792D01*
X156323812Y-106747398D01*
X152167199Y-106747398D01*
X152000019Y-106343792D01*
X151738350Y-106251255D01*
X150801605Y-107188000D01*
X150442395Y-107188000D01*
X149505650Y-106251255D01*
X149243981Y-106343792D01*
X149025812Y-106935398D01*
X143131222Y-106935398D01*
X143316724Y-106488659D01*
X143317275Y-105858107D01*
X143076481Y-105275343D01*
X142763579Y-104961893D01*
X149036725Y-104961893D01*
X149277519Y-105544657D01*
X149716211Y-105984116D01*
X149685255Y-106071650D01*
X150622000Y-107008395D01*
X151558745Y-106071650D01*
X151527593Y-105983561D01*
X151627678Y-105883650D01*
X156983255Y-105883650D01*
X157920000Y-106820395D01*
X158856745Y-105883650D01*
X158764208Y-105621981D01*
X158172602Y-105403812D01*
X157542539Y-105428648D01*
X157075792Y-105621981D01*
X156983255Y-105883650D01*
X151627678Y-105883650D01*
X151964914Y-105547003D01*
X152206724Y-104964659D01*
X152207275Y-104334107D01*
X151966481Y-103751343D01*
X151521003Y-103305086D01*
X150938659Y-103063276D01*
X150308107Y-103062725D01*
X149725343Y-103303519D01*
X149279086Y-103748997D01*
X149037276Y-104331341D01*
X149036725Y-104961893D01*
X142763579Y-104961893D01*
X142703529Y-104901739D01*
X143074914Y-104531003D01*
X143316724Y-103948659D01*
X143317275Y-103318107D01*
X143076481Y-102735343D01*
X142631003Y-102289086D01*
X142048659Y-102047276D01*
X141418107Y-102046725D01*
X140835343Y-102287519D01*
X140389086Y-102732997D01*
X140147276Y-103315341D01*
X140146725Y-103945893D01*
X125514452Y-103945893D01*
X125584724Y-103776659D01*
X125585275Y-103146107D01*
X125344481Y-102563343D01*
X124971529Y-102189739D01*
X125342914Y-101819003D01*
X125584724Y-101236659D01*
X125585275Y-100606107D01*
X125523525Y-100456661D01*
X157612758Y-100456661D01*
X157824990Y-100970303D01*
X158217630Y-101363629D01*
X158730900Y-101576757D01*
X159286661Y-101577242D01*
X159800303Y-101365010D01*
X160193629Y-100972370D01*
X160406757Y-100459100D01*
X160407242Y-99903339D01*
X160195010Y-99389697D01*
X159802370Y-98996371D01*
X159289100Y-98783243D01*
X159069688Y-98783052D01*
X159238943Y-98713117D01*
X159502192Y-98450327D01*
X159644838Y-98106799D01*
X159645162Y-97734833D01*
X159503117Y-97391057D01*
X159240327Y-97127808D01*
X158896799Y-96985162D01*
X158524833Y-96984838D01*
X158181057Y-97126883D01*
X157917808Y-97389673D01*
X157775162Y-97733201D01*
X157774838Y-98105167D01*
X157916883Y-98448943D01*
X158179673Y-98712192D01*
X158523201Y-98854838D01*
X158558817Y-98854869D01*
X158219697Y-98994990D01*
X157826371Y-99387630D01*
X157613243Y-99900900D01*
X157612758Y-100456661D01*
X125523525Y-100456661D01*
X125344481Y-100023343D01*
X124899003Y-99577086D01*
X124316659Y-99335276D01*
X123686107Y-99334725D01*
X123103343Y-99575519D01*
X122657086Y-100020997D01*
X122415276Y-100603341D01*
X122414725Y-101233893D01*
X108890041Y-101233893D01*
X108890660Y-100525469D01*
X108332727Y-99175167D01*
X117444838Y-99175167D01*
X117586883Y-99518943D01*
X117849673Y-99782192D01*
X118193201Y-99924838D01*
X118565167Y-99925162D01*
X118908943Y-99783117D01*
X119172192Y-99520327D01*
X119314838Y-99176799D01*
X119315162Y-98804833D01*
X119173117Y-98461057D01*
X118910327Y-98197808D01*
X118566799Y-98055162D01*
X118194833Y-98054838D01*
X117851057Y-98196883D01*
X117587808Y-98459673D01*
X117445162Y-98803201D01*
X117444838Y-99175167D01*
X108332727Y-99175167D01*
X108311844Y-99124628D01*
X107241009Y-98051923D01*
X106490293Y-97740198D01*
X113933305Y-97740198D01*
X114075350Y-98083974D01*
X114338140Y-98347223D01*
X114681668Y-98489869D01*
X115053634Y-98490193D01*
X115397410Y-98348148D01*
X115660659Y-98085358D01*
X115803305Y-97741830D01*
X115803629Y-97369864D01*
X115661584Y-97026088D01*
X115398794Y-96762839D01*
X115055266Y-96620193D01*
X114683300Y-96619869D01*
X114339524Y-96761914D01*
X114076275Y-97024704D01*
X113933629Y-97368232D01*
X113933305Y-97740198D01*
X106490293Y-97740198D01*
X105841181Y-97470663D01*
X104325469Y-97469340D01*
X102924628Y-98048156D01*
X101851923Y-99118991D01*
X101270663Y-100518819D01*
X101269340Y-102034531D01*
X100685000Y-102034531D01*
X100685000Y-96295167D01*
X131884838Y-96295167D01*
X132026883Y-96638943D01*
X132289673Y-96902192D01*
X132633201Y-97044838D01*
X133005167Y-97045162D01*
X133348943Y-96903117D01*
X133612192Y-96640327D01*
X133697382Y-96435167D01*
X144574838Y-96435167D01*
X144716883Y-96778943D01*
X144979673Y-97042192D01*
X145323201Y-97184838D01*
X145695167Y-97185162D01*
X146038943Y-97043117D01*
X146302192Y-96780327D01*
X146444838Y-96436799D01*
X146444839Y-96435167D01*
X146624838Y-96435167D01*
X146766883Y-96778943D01*
X147029673Y-97042192D01*
X147373201Y-97184838D01*
X147745167Y-97185162D01*
X148088943Y-97043117D01*
X148352192Y-96780327D01*
X148488871Y-96451167D01*
X152226838Y-96451167D01*
X152368883Y-96794943D01*
X152631673Y-97058192D01*
X152975201Y-97200838D01*
X153347167Y-97201162D01*
X153690943Y-97059117D01*
X153954192Y-96796327D01*
X154096838Y-96452799D01*
X154097162Y-96080833D01*
X153955117Y-95737057D01*
X153692327Y-95473808D01*
X153348799Y-95331162D01*
X152976833Y-95330838D01*
X152633057Y-95472883D01*
X152369808Y-95735673D01*
X152227162Y-96079201D01*
X152226838Y-96451167D01*
X148488871Y-96451167D01*
X148494838Y-96436799D01*
X148495162Y-96064833D01*
X148353117Y-95721057D01*
X148090327Y-95457808D01*
X147746799Y-95315162D01*
X147374833Y-95314838D01*
X147031057Y-95456883D01*
X146767808Y-95719673D01*
X146625162Y-96063201D01*
X146624838Y-96435167D01*
X146444839Y-96435167D01*
X146445162Y-96064833D01*
X146303117Y-95721057D01*
X146040327Y-95457808D01*
X145696799Y-95315162D01*
X145324833Y-95314838D01*
X144981057Y-95456883D01*
X144717808Y-95719673D01*
X144575162Y-96063201D01*
X144574838Y-96435167D01*
X133697382Y-96435167D01*
X133754838Y-96296799D01*
X133755162Y-95924833D01*
X133613117Y-95581057D01*
X133350327Y-95317808D01*
X133006799Y-95175162D01*
X132634833Y-95174838D01*
X132291057Y-95316883D01*
X132027808Y-95579673D01*
X131885162Y-95923201D01*
X131884838Y-96295167D01*
X100685000Y-96295167D01*
X100685000Y-94140245D01*
X131871316Y-94140245D01*
X132013361Y-94484021D01*
X132276151Y-94747270D01*
X132619679Y-94889916D01*
X132991645Y-94890240D01*
X133335421Y-94748195D01*
X133598670Y-94485405D01*
X133741316Y-94141877D01*
X133741640Y-93769911D01*
X133599595Y-93426135D01*
X133336805Y-93162886D01*
X132993277Y-93020240D01*
X132621311Y-93019916D01*
X132277535Y-93161961D01*
X132014286Y-93424751D01*
X131871640Y-93768279D01*
X131871316Y-94140245D01*
X100685000Y-94140245D01*
X100685000Y-93340149D01*
X123829856Y-93340149D01*
X123971901Y-93683925D01*
X124234691Y-93947174D01*
X124578219Y-94089820D01*
X124950185Y-94090144D01*
X125293961Y-93948099D01*
X125557210Y-93685309D01*
X125699856Y-93341781D01*
X125700009Y-93165167D01*
X128994838Y-93165167D01*
X129136883Y-93508943D01*
X129399673Y-93772192D01*
X129743201Y-93914838D01*
X130115167Y-93915162D01*
X130458943Y-93773117D01*
X130722192Y-93510327D01*
X130864838Y-93166799D01*
X130865162Y-92794833D01*
X130723117Y-92451057D01*
X130460327Y-92187808D01*
X130116799Y-92045162D01*
X129744833Y-92044838D01*
X129401057Y-92186883D01*
X129137808Y-92449673D01*
X128995162Y-92793201D01*
X128994838Y-93165167D01*
X125700009Y-93165167D01*
X125700180Y-92969815D01*
X125558135Y-92626039D01*
X125295345Y-92362790D01*
X124951817Y-92220144D01*
X124579851Y-92219820D01*
X124236075Y-92361865D01*
X123972826Y-92624655D01*
X123830180Y-92968183D01*
X123829856Y-93340149D01*
X100685000Y-93340149D01*
X100685000Y-91925167D01*
X113524838Y-91925167D01*
X113666883Y-92268943D01*
X113929673Y-92532192D01*
X114273201Y-92674838D01*
X114645167Y-92675162D01*
X114988943Y-92533117D01*
X115252192Y-92270327D01*
X115394838Y-91926799D01*
X115395162Y-91554833D01*
X115253117Y-91211057D01*
X114990327Y-90947808D01*
X114646799Y-90805162D01*
X114274833Y-90804838D01*
X113931057Y-90946883D01*
X113667808Y-91209673D01*
X113525162Y-91553201D01*
X113524838Y-91925167D01*
X100685000Y-91925167D01*
X100685000Y-90345167D01*
X128544838Y-90345167D01*
X128686883Y-90688943D01*
X128949673Y-90952192D01*
X129293201Y-91094838D01*
X129665167Y-91095162D01*
X130008943Y-90953117D01*
X130272192Y-90690327D01*
X130414838Y-90346799D01*
X130415162Y-89974833D01*
X130273117Y-89631057D01*
X130010327Y-89367808D01*
X129666799Y-89225162D01*
X129294833Y-89224838D01*
X128951057Y-89366883D01*
X128687808Y-89629673D01*
X128545162Y-89973201D01*
X128544838Y-90345167D01*
X100685000Y-90345167D01*
X100685000Y-89127000D01*
X126000000Y-89127000D01*
X126049410Y-89116994D01*
X126091035Y-89088553D01*
X126118315Y-89046159D01*
X126127000Y-89000000D01*
X126127000Y-72000000D01*
X126116994Y-71950590D01*
X126088553Y-71908965D01*
X126046159Y-71881685D01*
X126000000Y-71873000D01*
X110365000Y-71873000D01*
X110365000Y-70343775D01*
X110561905Y-70343775D01*
X110703950Y-70687551D01*
X110966740Y-70950800D01*
X111310268Y-71093446D01*
X111682234Y-71093770D01*
X112026010Y-70951725D01*
X112289259Y-70688935D01*
X112431905Y-70345407D01*
X112432229Y-69973441D01*
X112290184Y-69629665D01*
X112027394Y-69366416D01*
X111683866Y-69223770D01*
X111311900Y-69223446D01*
X110968124Y-69365491D01*
X110704875Y-69628281D01*
X110562229Y-69971809D01*
X110561905Y-70343775D01*
X110365000Y-70343775D01*
X110365000Y-67814264D01*
X131300000Y-67814264D01*
X131300000Y-68467873D01*
X131357852Y-68758712D01*
X131522599Y-69005274D01*
X132542608Y-70025283D01*
X132307808Y-70259673D01*
X132165162Y-70603201D01*
X132164838Y-70975167D01*
X132306883Y-71318943D01*
X132569673Y-71582192D01*
X132913201Y-71724838D01*
X133285167Y-71725162D01*
X133302479Y-71718009D01*
X133401033Y-71865506D01*
X132972599Y-72293940D01*
X132807852Y-72540502D01*
X132750000Y-72831341D01*
X132750000Y-74480000D01*
X132807852Y-74770839D01*
X132972599Y-75017401D01*
X135010000Y-77054802D01*
X135010000Y-82267659D01*
X134907808Y-82369673D01*
X134765162Y-82713201D01*
X134764838Y-83085167D01*
X134906883Y-83428943D01*
X135169673Y-83692192D01*
X135513201Y-83834838D01*
X135599987Y-83834914D01*
X135599987Y-88677870D01*
X135657839Y-88968709D01*
X135822586Y-89215271D01*
X136709067Y-90101752D01*
X136709027Y-90147239D01*
X136851072Y-90491015D01*
X137113862Y-90754264D01*
X137457390Y-90896910D01*
X137638327Y-90897068D01*
X137638327Y-91225960D01*
X137696179Y-91516799D01*
X137768440Y-91624946D01*
X137644833Y-91624838D01*
X137301057Y-91766883D01*
X137037808Y-92029673D01*
X136895162Y-92373201D01*
X136894838Y-92745167D01*
X137036883Y-93088943D01*
X137299673Y-93352192D01*
X137643201Y-93494838D01*
X138015167Y-93495162D01*
X138358943Y-93353117D01*
X138622192Y-93090327D01*
X138764838Y-92746799D01*
X138764907Y-92667342D01*
X138852316Y-92754751D01*
X138852276Y-92800238D01*
X138994321Y-93144014D01*
X139257111Y-93407263D01*
X139600639Y-93549909D01*
X139972605Y-93550233D01*
X140316381Y-93408188D01*
X140579630Y-93145398D01*
X140722276Y-92801870D01*
X140722600Y-92429904D01*
X140719523Y-92422458D01*
X140772973Y-92369101D01*
X140915619Y-92025573D01*
X140915865Y-91743602D01*
X141083038Y-91576720D01*
X141225684Y-91233192D01*
X141226008Y-90861226D01*
X141083963Y-90517450D01*
X141050846Y-90484275D01*
X141050846Y-86640660D01*
X143605718Y-84085788D01*
X141399752Y-86922030D01*
X141383006Y-86950590D01*
X141373000Y-87000000D01*
X141373000Y-89500000D01*
X141381685Y-89546159D01*
X141408965Y-89588553D01*
X141450590Y-89616994D01*
X141500000Y-89627000D01*
X157000000Y-89627000D01*
X157046159Y-89618315D01*
X157088553Y-89591035D01*
X157116994Y-89549410D01*
X157127000Y-89500000D01*
X157127000Y-87000000D01*
X157122684Y-86967174D01*
X157100248Y-86922030D01*
X152143581Y-80549171D01*
X153306582Y-80549171D01*
X153448627Y-80892947D01*
X153711417Y-81156196D01*
X154054945Y-81298842D01*
X154426911Y-81299166D01*
X154715750Y-81179821D01*
X154827371Y-81291637D01*
X155170899Y-81434283D01*
X155542865Y-81434607D01*
X155886641Y-81292562D01*
X156149890Y-81029772D01*
X156292536Y-80686244D01*
X156292860Y-80314278D01*
X156150815Y-79970502D01*
X155888025Y-79707253D01*
X155544497Y-79564607D01*
X155172531Y-79564283D01*
X154883692Y-79683628D01*
X154772071Y-79571812D01*
X154428543Y-79429166D01*
X154056577Y-79428842D01*
X153712801Y-79570887D01*
X153449552Y-79833677D01*
X153306906Y-80177205D01*
X153306582Y-80549171D01*
X152143581Y-80549171D01*
X150520327Y-78462131D01*
X150732009Y-78462315D01*
X151075785Y-78320270D01*
X151339034Y-78057480D01*
X151481680Y-77713952D01*
X151482004Y-77341986D01*
X151339959Y-76998210D01*
X151077169Y-76734961D01*
X150733641Y-76592315D01*
X150361675Y-76591991D01*
X150127000Y-76688956D01*
X150127000Y-74500000D01*
X150118315Y-74453841D01*
X150091035Y-74411447D01*
X150049410Y-74383006D01*
X150000000Y-74373000D01*
X148500000Y-74373000D01*
X148453841Y-74381685D01*
X148411447Y-74408965D01*
X148383006Y-74450590D01*
X148373000Y-74500000D01*
X148373000Y-76955295D01*
X148367117Y-76941057D01*
X148104327Y-76677808D01*
X147760799Y-76535162D01*
X147760495Y-76535162D01*
X147728893Y-76458678D01*
X147466103Y-76195429D01*
X147122575Y-76052783D01*
X146750609Y-76052459D01*
X146406833Y-76194504D01*
X146143584Y-76457294D01*
X146000938Y-76800822D01*
X146000614Y-77172788D01*
X146142659Y-77516564D01*
X146175776Y-77549739D01*
X146175776Y-79366126D01*
X143597962Y-81943940D01*
X143626158Y-81876037D01*
X143626482Y-81504071D01*
X143484437Y-81160295D01*
X143221647Y-80897046D01*
X142878119Y-80754400D01*
X142749322Y-80754288D01*
X142746041Y-80746346D01*
X142483251Y-80483097D01*
X142139723Y-80340451D01*
X141767757Y-80340127D01*
X141423981Y-80482172D01*
X141160732Y-80744962D01*
X141018086Y-81088490D01*
X141017762Y-81460456D01*
X141159807Y-81804232D01*
X141422597Y-82067481D01*
X141766125Y-82210127D01*
X141894922Y-82210239D01*
X141898203Y-82218181D01*
X142160993Y-82481430D01*
X142504521Y-82624076D01*
X142876487Y-82624400D01*
X142946382Y-82595520D01*
X139753445Y-85788457D01*
X139738575Y-85810712D01*
X139738575Y-81653934D01*
X142397244Y-78995265D01*
X142561991Y-78748704D01*
X142585542Y-78630304D01*
X142652035Y-78563927D01*
X142794681Y-78220399D01*
X142795005Y-77848433D01*
X142652960Y-77504657D01*
X142390170Y-77241408D01*
X142046642Y-77098762D01*
X141674676Y-77098438D01*
X141440021Y-77195395D01*
X141246799Y-77115162D01*
X140874833Y-77114838D01*
X140531057Y-77256883D01*
X140475133Y-77312710D01*
X140420327Y-77257808D01*
X140076799Y-77115162D01*
X139704833Y-77114838D01*
X139361057Y-77256883D01*
X139097808Y-77519673D01*
X138955162Y-77863201D01*
X138955121Y-77910077D01*
X137119987Y-79745211D01*
X137119987Y-74253201D01*
X140400152Y-74253201D01*
X140542197Y-74596977D01*
X140804987Y-74860226D01*
X141148515Y-75002872D01*
X141520481Y-75003196D01*
X141864257Y-74861151D01*
X141999603Y-74726041D01*
X142166299Y-74795260D01*
X142538265Y-74795584D01*
X142614449Y-74764106D01*
X142614911Y-74764569D01*
X142958439Y-74907215D01*
X143330405Y-74907539D01*
X143659373Y-74771612D01*
X143819673Y-74932192D01*
X144163201Y-75074838D01*
X144535167Y-75075162D01*
X144878943Y-74933117D01*
X145072219Y-74740177D01*
X145828519Y-74740177D01*
X145970564Y-75083953D01*
X146233354Y-75347202D01*
X146576882Y-75489848D01*
X146948848Y-75490172D01*
X147292624Y-75348127D01*
X147555873Y-75085337D01*
X147698519Y-74741809D01*
X147698843Y-74369843D01*
X147556798Y-74026067D01*
X147294008Y-73762818D01*
X146950480Y-73620172D01*
X146578514Y-73619848D01*
X146234738Y-73761893D01*
X145971489Y-74024683D01*
X145828843Y-74368211D01*
X145828519Y-74740177D01*
X145072219Y-74740177D01*
X145142192Y-74670327D01*
X145284838Y-74326799D01*
X145285162Y-73954833D01*
X145143117Y-73611057D01*
X144880327Y-73347808D01*
X144536799Y-73205162D01*
X144164833Y-73204838D01*
X143835865Y-73340765D01*
X143675565Y-73180185D01*
X143332037Y-73037539D01*
X142960071Y-73037215D01*
X142883887Y-73068693D01*
X142883425Y-73068230D01*
X142539897Y-72925584D01*
X142167931Y-72925260D01*
X141824155Y-73067305D01*
X141688809Y-73202415D01*
X141522113Y-73133196D01*
X141150147Y-73132872D01*
X140806371Y-73274917D01*
X140543122Y-73537707D01*
X140400476Y-73881235D01*
X140400152Y-74253201D01*
X137119987Y-74253201D01*
X137119987Y-72414428D01*
X137062135Y-72123589D01*
X136995068Y-72023216D01*
X136995140Y-71940665D01*
X154794838Y-71940665D01*
X154936883Y-72284441D01*
X155199673Y-72547690D01*
X155543201Y-72690336D01*
X155915167Y-72690660D01*
X156258943Y-72548615D01*
X156522192Y-72285825D01*
X156664838Y-71942297D01*
X156665162Y-71570331D01*
X156523117Y-71226555D01*
X156260327Y-70963306D01*
X155916799Y-70820660D01*
X155544833Y-70820336D01*
X155201057Y-70962381D01*
X154937808Y-71225171D01*
X154795162Y-71568699D01*
X154794838Y-71940665D01*
X136995140Y-71940665D01*
X136995150Y-71929262D01*
X136853105Y-71585486D01*
X136590315Y-71322237D01*
X136246787Y-71179591D01*
X135874821Y-71179267D01*
X135531045Y-71321312D01*
X135377033Y-71475055D01*
X135203011Y-71300729D01*
X134859483Y-71158083D01*
X134812607Y-71158042D01*
X134759983Y-71105418D01*
X134759983Y-70546055D01*
X134792175Y-70513919D01*
X134934821Y-70170391D01*
X134935145Y-69798425D01*
X134793100Y-69454649D01*
X134771977Y-69433489D01*
X142303539Y-69433489D01*
X142445584Y-69777265D01*
X142708374Y-70040514D01*
X143051902Y-70183160D01*
X143423868Y-70183484D01*
X143767644Y-70041439D01*
X144030893Y-69778649D01*
X144173539Y-69435121D01*
X144173863Y-69063155D01*
X144031818Y-68719379D01*
X143769028Y-68456130D01*
X143425500Y-68313484D01*
X143053534Y-68313160D01*
X142709758Y-68455205D01*
X142446509Y-68717995D01*
X142303863Y-69061523D01*
X142303539Y-69433489D01*
X134771977Y-69433489D01*
X134530310Y-69191400D01*
X134186782Y-69048754D01*
X133933814Y-69048534D01*
X134031625Y-68950893D01*
X134174271Y-68607365D01*
X134174595Y-68235399D01*
X134032550Y-67891623D01*
X134026106Y-67885167D01*
X135774838Y-67885167D01*
X135916883Y-68228943D01*
X136179673Y-68492192D01*
X136523201Y-68634838D01*
X136895167Y-68635162D01*
X137238943Y-68493117D01*
X137502192Y-68230327D01*
X137644838Y-67886799D01*
X137645162Y-67514833D01*
X137503117Y-67171057D01*
X137482183Y-67150086D01*
X139504393Y-67150086D01*
X139646438Y-67493862D01*
X139909228Y-67757111D01*
X140110590Y-67840724D01*
X139972936Y-68172231D01*
X139972612Y-68544197D01*
X140114657Y-68887973D01*
X140377447Y-69151222D01*
X140720975Y-69293868D01*
X141092941Y-69294192D01*
X141436717Y-69152147D01*
X141699966Y-68889357D01*
X141842612Y-68545829D01*
X141842678Y-68470623D01*
X142032776Y-68392076D01*
X142296025Y-68129286D01*
X142438671Y-67785758D01*
X142438995Y-67413792D01*
X142296950Y-67070016D01*
X142034160Y-66806767D01*
X141957912Y-66775106D01*
X141971526Y-66769481D01*
X142234775Y-66506691D01*
X142377421Y-66163163D01*
X142377745Y-65791197D01*
X142235700Y-65447421D01*
X142229541Y-65441251D01*
X142234775Y-65436026D01*
X142377421Y-65092498D01*
X142377745Y-64720532D01*
X142235700Y-64376756D01*
X141972910Y-64113507D01*
X141629382Y-63970861D01*
X141257416Y-63970537D01*
X140913640Y-64112582D01*
X140650391Y-64375372D01*
X140507745Y-64718900D01*
X140507421Y-65090866D01*
X140649466Y-65434642D01*
X140655625Y-65440812D01*
X140650391Y-65446037D01*
X140507745Y-65789565D01*
X140507536Y-66029978D01*
X140254388Y-66029757D01*
X139910612Y-66171802D01*
X139647363Y-66434592D01*
X139504717Y-66778120D01*
X139504393Y-67150086D01*
X137482183Y-67150086D01*
X137240327Y-66907808D01*
X136896799Y-66765162D01*
X136524833Y-66764838D01*
X136181057Y-66906883D01*
X135917808Y-67169673D01*
X135775162Y-67513201D01*
X135774838Y-67885167D01*
X134026106Y-67885167D01*
X133769760Y-67628374D01*
X133452451Y-67496615D01*
X134128342Y-66820724D01*
X134207546Y-66900066D01*
X134551074Y-67042712D01*
X134923040Y-67043036D01*
X135266816Y-66900991D01*
X135530065Y-66638201D01*
X135672711Y-66294673D01*
X135673035Y-65922707D01*
X135530990Y-65578931D01*
X135450633Y-65498433D01*
X135667401Y-65281665D01*
X135802149Y-65080000D01*
X139602971Y-65080000D01*
X139893810Y-65022148D01*
X140140372Y-64857401D01*
X140567486Y-64430287D01*
X140732233Y-64183726D01*
X140762978Y-64029161D01*
X140790085Y-63892886D01*
X140790085Y-58590000D01*
X145811634Y-58590000D01*
X146102473Y-58532148D01*
X146349035Y-58367401D01*
X147210000Y-57506436D01*
X148070965Y-58367401D01*
X148317527Y-58532148D01*
X148608366Y-58590000D01*
X153315198Y-58590000D01*
X157237465Y-62512267D01*
X157237465Y-70152731D01*
X157217598Y-70172598D01*
X157052851Y-70419160D01*
X156994999Y-70709999D01*
X156994999Y-71310001D01*
X157052851Y-71600840D01*
X157217598Y-71847402D01*
X157237465Y-71867269D01*
X157237465Y-76388666D01*
X157004022Y-76291732D01*
X156632056Y-76291408D01*
X156288280Y-76433453D01*
X156025031Y-76696243D01*
X155882385Y-77039771D01*
X155882061Y-77411737D01*
X156024106Y-77755513D01*
X156286896Y-78018762D01*
X156630424Y-78161408D01*
X157002390Y-78161732D01*
X157220200Y-78071735D01*
X157205273Y-78086636D01*
X157062627Y-78430164D01*
X157062303Y-78802130D01*
X157204348Y-79145906D01*
X157467138Y-79409155D01*
X157709375Y-79509741D01*
X158765526Y-80565892D01*
X158765526Y-89989606D01*
X155667667Y-93087465D01*
X155427057Y-93186883D01*
X155163808Y-93449673D01*
X155021162Y-93793201D01*
X155020838Y-94165167D01*
X155162883Y-94508943D01*
X155425673Y-94772192D01*
X155769201Y-94914838D01*
X156141167Y-94915162D01*
X156484943Y-94773117D01*
X156748192Y-94510327D01*
X156848778Y-94268090D01*
X160190960Y-90925908D01*
X160234179Y-90861226D01*
X160371965Y-90655015D01*
X160435526Y-90335474D01*
X160435526Y-83069438D01*
X179789839Y-83069438D01*
X179931884Y-83413214D01*
X180194674Y-83676463D01*
X180538202Y-83819109D01*
X180910168Y-83819433D01*
X181253944Y-83677388D01*
X181517193Y-83414598D01*
X181659839Y-83071070D01*
X181660163Y-82699104D01*
X181518118Y-82355328D01*
X181255328Y-82092079D01*
X180911800Y-81949433D01*
X180539834Y-81949109D01*
X180196058Y-82091154D01*
X179932809Y-82353944D01*
X179790163Y-82697472D01*
X179789839Y-83069438D01*
X160435526Y-83069438D01*
X160435526Y-80220024D01*
X160426425Y-80174272D01*
X160371966Y-79900484D01*
X160190960Y-79629590D01*
X158890000Y-78328630D01*
X158790582Y-78088020D01*
X158757465Y-78054845D01*
X158757465Y-75656643D01*
X163694705Y-75656643D01*
X163836750Y-76000419D01*
X164099540Y-76263668D01*
X164443068Y-76406314D01*
X164815034Y-76406638D01*
X165158810Y-76264593D01*
X165422059Y-76001803D01*
X165564705Y-75658275D01*
X165564916Y-75415167D01*
X166654838Y-75415167D01*
X166796883Y-75758943D01*
X167059673Y-76022192D01*
X167403201Y-76164838D01*
X167775167Y-76165162D01*
X168091099Y-76034622D01*
X168413315Y-76168418D01*
X168785281Y-76168742D01*
X169129057Y-76026697D01*
X169392306Y-75763907D01*
X169534952Y-75420379D01*
X169535276Y-75048413D01*
X169493430Y-74947139D01*
X169678518Y-74947300D01*
X170022294Y-74805255D01*
X170096822Y-74730857D01*
X170123383Y-74757465D01*
X170466911Y-74900111D01*
X170838877Y-74900435D01*
X171182653Y-74758390D01*
X171445902Y-74495600D01*
X171588548Y-74152072D01*
X171588872Y-73780106D01*
X171490023Y-73540874D01*
X171539756Y-73540917D01*
X171669530Y-73487296D01*
X171669438Y-73593065D01*
X171811483Y-73936841D01*
X172074273Y-74200090D01*
X172417801Y-74342736D01*
X172596006Y-74342891D01*
X172483332Y-74614240D01*
X172483008Y-74986206D01*
X172625053Y-75329982D01*
X172887843Y-75593231D01*
X173231371Y-75735877D01*
X173603337Y-75736201D01*
X173947113Y-75594156D01*
X174210362Y-75331366D01*
X174353008Y-74987838D01*
X174353332Y-74615872D01*
X174211287Y-74272096D01*
X173948497Y-74008847D01*
X173604969Y-73866201D01*
X173426764Y-73866046D01*
X173539438Y-73594697D01*
X173539762Y-73222731D01*
X173397717Y-72878955D01*
X173134927Y-72615706D01*
X172791399Y-72473060D01*
X172419433Y-72472736D01*
X172289659Y-72526357D01*
X172289751Y-72420588D01*
X172147706Y-72076812D01*
X171884916Y-71813563D01*
X171541388Y-71670917D01*
X171169422Y-71670593D01*
X170825646Y-71812638D01*
X170562397Y-72075428D01*
X170419751Y-72418956D01*
X170419427Y-72790922D01*
X170518276Y-73030154D01*
X170468543Y-73030111D01*
X170124767Y-73172156D01*
X170050239Y-73246554D01*
X170023678Y-73219946D01*
X169680150Y-73077300D01*
X169308184Y-73076976D01*
X168964408Y-73219021D01*
X168701159Y-73481811D01*
X168558513Y-73825339D01*
X168558189Y-74197305D01*
X168600035Y-74298579D01*
X168414947Y-74298418D01*
X168099015Y-74428958D01*
X167776799Y-74295162D01*
X167404833Y-74294838D01*
X167061057Y-74436883D01*
X166797808Y-74699673D01*
X166655162Y-75043201D01*
X166654838Y-75415167D01*
X165564916Y-75415167D01*
X165565029Y-75286309D01*
X165422984Y-74942533D01*
X165160194Y-74679284D01*
X164816666Y-74536638D01*
X164444700Y-74536314D01*
X164100924Y-74678359D01*
X163837675Y-74941149D01*
X163695029Y-75284677D01*
X163694705Y-75656643D01*
X158757465Y-75656643D01*
X158757465Y-71865706D01*
X158908943Y-71803117D01*
X159172192Y-71540327D01*
X159314838Y-71196799D01*
X159315162Y-70824833D01*
X159173117Y-70481057D01*
X158910327Y-70217808D01*
X158757465Y-70154334D01*
X158757465Y-69898637D01*
X172409072Y-69898637D01*
X172551117Y-70242413D01*
X172813907Y-70505662D01*
X173157435Y-70648308D01*
X173529401Y-70648632D01*
X173873177Y-70506587D01*
X174136426Y-70243797D01*
X174279072Y-69900269D01*
X174279396Y-69528303D01*
X174137351Y-69184527D01*
X173874561Y-68921278D01*
X173531033Y-68778632D01*
X173159067Y-68778308D01*
X172815291Y-68920353D01*
X172552042Y-69183143D01*
X172409396Y-69526671D01*
X172409072Y-69898637D01*
X158757465Y-69898637D01*
X158757465Y-62910000D01*
X163915262Y-62910000D01*
X164278581Y-63273319D01*
X164278541Y-63318806D01*
X164372230Y-63545550D01*
X164226799Y-63485162D01*
X163854833Y-63484838D01*
X163511057Y-63626883D01*
X163247808Y-63889673D01*
X163105162Y-64233201D01*
X163104838Y-64605167D01*
X163246883Y-64948943D01*
X163509673Y-65212192D01*
X163853201Y-65354838D01*
X164225167Y-65355162D01*
X164453703Y-65260733D01*
X164453703Y-65741495D01*
X164085114Y-66110084D01*
X164085162Y-66054833D01*
X163943117Y-65711057D01*
X163680327Y-65447808D01*
X163336799Y-65305162D01*
X162964833Y-65304838D01*
X162667419Y-65427727D01*
X162650197Y-65386046D01*
X162387407Y-65122797D01*
X162043879Y-64980151D01*
X161914643Y-64980038D01*
X161896461Y-64936035D01*
X161633671Y-64672786D01*
X161290143Y-64530140D01*
X160918177Y-64529816D01*
X160574401Y-64671861D01*
X160311152Y-64934651D01*
X160168506Y-65278179D01*
X160168182Y-65650145D01*
X160310227Y-65993921D01*
X160573017Y-66257170D01*
X160916545Y-66399816D01*
X161045781Y-66399929D01*
X161063963Y-66443932D01*
X161326753Y-66707181D01*
X161670281Y-66849827D01*
X162042247Y-66850151D01*
X162339661Y-66727262D01*
X162356883Y-66768943D01*
X162619673Y-67032192D01*
X162963201Y-67174838D01*
X163020310Y-67174888D01*
X162660320Y-67534878D01*
X162614833Y-67534838D01*
X162271057Y-67676883D01*
X162007808Y-67939673D01*
X161865162Y-68283201D01*
X161864838Y-68655167D01*
X162006883Y-68998943D01*
X162269673Y-69262192D01*
X162613201Y-69404838D01*
X162985167Y-69405162D01*
X163328943Y-69263117D01*
X163592192Y-69000327D01*
X163734838Y-68656799D01*
X163734879Y-68609923D01*
X164173983Y-68170819D01*
X164070522Y-68419979D01*
X164070198Y-68791945D01*
X164212243Y-69135721D01*
X164475033Y-69398970D01*
X164818561Y-69541616D01*
X165190527Y-69541940D01*
X165252675Y-69516261D01*
X165345488Y-69609236D01*
X165689016Y-69751882D01*
X166060982Y-69752206D01*
X166404758Y-69610161D01*
X166668007Y-69347371D01*
X166810653Y-69003843D01*
X166810953Y-68659133D01*
X166816655Y-68659133D01*
X166958700Y-69002909D01*
X167221490Y-69266158D01*
X167565018Y-69408804D01*
X167936984Y-69409128D01*
X168280760Y-69267083D01*
X168544009Y-69004293D01*
X168686655Y-68660765D01*
X168686979Y-68288799D01*
X168544934Y-67945023D01*
X168282144Y-67681774D01*
X167938616Y-67539128D01*
X167566650Y-67538804D01*
X167222874Y-67680849D01*
X166959625Y-67943639D01*
X166816979Y-68287167D01*
X166816655Y-68659133D01*
X166810953Y-68659133D01*
X166810977Y-68631877D01*
X166668932Y-68288101D01*
X166406142Y-68024852D01*
X166062614Y-67882206D01*
X165934829Y-67882095D01*
X166025840Y-67662916D01*
X166026164Y-67290950D01*
X165884119Y-66947174D01*
X165641086Y-66703716D01*
X165751104Y-66593698D01*
X165915851Y-66347136D01*
X165921912Y-66316661D01*
X168852758Y-66316661D01*
X169064990Y-66830303D01*
X169457630Y-67223629D01*
X169970900Y-67436757D01*
X170526661Y-67437242D01*
X171040303Y-67225010D01*
X171433629Y-66832370D01*
X171646757Y-66319100D01*
X171647242Y-65763339D01*
X171435010Y-65249697D01*
X171042370Y-64856371D01*
X170529100Y-64643243D01*
X169973339Y-64642758D01*
X169459697Y-64854990D01*
X169066371Y-65247630D01*
X168853243Y-65760900D01*
X168852758Y-66316661D01*
X165921912Y-66316661D01*
X165973703Y-66056297D01*
X165973703Y-64525167D01*
X172234838Y-64525167D01*
X172376883Y-64868943D01*
X172639673Y-65132192D01*
X172983201Y-65274838D01*
X173355167Y-65275162D01*
X173698943Y-65133117D01*
X173962192Y-64870327D01*
X174104838Y-64526799D01*
X174105162Y-64154833D01*
X173963117Y-63811057D01*
X173700327Y-63547808D01*
X173356799Y-63405162D01*
X172984833Y-63404838D01*
X172641057Y-63546883D01*
X172377808Y-63809673D01*
X172235162Y-64153201D01*
X172234838Y-64525167D01*
X165973703Y-64525167D01*
X165973703Y-63696102D01*
X166005895Y-63663966D01*
X166148541Y-63320438D01*
X166148865Y-62948472D01*
X166006820Y-62604696D01*
X165744030Y-62341447D01*
X165400502Y-62198801D01*
X165353626Y-62198760D01*
X165335556Y-62180690D01*
X166719311Y-62180690D01*
X166861356Y-62524466D01*
X167124146Y-62787715D01*
X167467674Y-62930361D01*
X167839640Y-62930685D01*
X168183416Y-62788640D01*
X168446665Y-62525850D01*
X168589311Y-62182322D01*
X168589403Y-62076184D01*
X168840720Y-61825306D01*
X168983366Y-61481778D01*
X168983690Y-61109812D01*
X168841645Y-60766036D01*
X168578855Y-60502787D01*
X168235327Y-60360141D01*
X167863361Y-60359817D01*
X167519585Y-60501862D01*
X167256336Y-60764652D01*
X167113690Y-61108180D01*
X167113598Y-61214318D01*
X166862281Y-61465196D01*
X166719635Y-61808724D01*
X166719311Y-62180690D01*
X165335556Y-62180690D01*
X164767465Y-61612599D01*
X164520903Y-61447852D01*
X164230064Y-61390000D01*
X158264802Y-61390000D01*
X155449969Y-58575167D01*
X157014838Y-58575167D01*
X157156883Y-58918943D01*
X157419673Y-59182192D01*
X157763201Y-59324838D01*
X158135167Y-59325162D01*
X158478943Y-59183117D01*
X158742192Y-58920327D01*
X158884838Y-58576799D01*
X158885162Y-58204833D01*
X158743117Y-57861057D01*
X158480327Y-57597808D01*
X158136799Y-57455162D01*
X157764833Y-57454838D01*
X157421057Y-57596883D01*
X157157808Y-57859673D01*
X157015162Y-58203201D01*
X157014838Y-58575167D01*
X155449969Y-58575167D01*
X154167401Y-57292599D01*
X153920839Y-57127852D01*
X153630000Y-57070000D01*
X150053309Y-57070000D01*
X150263611Y-56983105D01*
X150526860Y-56720315D01*
X150553911Y-56655167D01*
X156814838Y-56655167D01*
X156956883Y-56998943D01*
X157219673Y-57262192D01*
X157563201Y-57404838D01*
X157935167Y-57405162D01*
X158081704Y-57344614D01*
X163566032Y-57344614D01*
X163708077Y-57688390D01*
X163841289Y-57821835D01*
X163811795Y-57851278D01*
X163669149Y-58194806D01*
X163668825Y-58566772D01*
X163810870Y-58910548D01*
X164073660Y-59173797D01*
X164417188Y-59316443D01*
X164789154Y-59316767D01*
X165132930Y-59174722D01*
X165396179Y-58911932D01*
X165448816Y-58785167D01*
X176064838Y-58785167D01*
X176206883Y-59128943D01*
X176469673Y-59392192D01*
X176813201Y-59534838D01*
X177185167Y-59535162D01*
X177528943Y-59393117D01*
X177792192Y-59130327D01*
X177934838Y-58786799D01*
X177935057Y-58534857D01*
X178285167Y-58535162D01*
X178628943Y-58393117D01*
X178892192Y-58130327D01*
X179034838Y-57786799D01*
X179035162Y-57414833D01*
X178893117Y-57071057D01*
X178630327Y-56807808D01*
X178286799Y-56665162D01*
X177914833Y-56664838D01*
X177571057Y-56806883D01*
X177307808Y-57069673D01*
X177165162Y-57413201D01*
X177164943Y-57665143D01*
X176814833Y-57664838D01*
X176471057Y-57806883D01*
X176207808Y-58069673D01*
X176065162Y-58413201D01*
X176064838Y-58785167D01*
X165448816Y-58785167D01*
X165538825Y-58568404D01*
X165539149Y-58196438D01*
X165397104Y-57852662D01*
X165263892Y-57719217D01*
X165293386Y-57689774D01*
X165436032Y-57346246D01*
X165436356Y-56974280D01*
X165294311Y-56630504D01*
X165031521Y-56367255D01*
X164687993Y-56224609D01*
X164316027Y-56224285D01*
X163972251Y-56366330D01*
X163709002Y-56629120D01*
X163566356Y-56972648D01*
X163566032Y-57344614D01*
X158081704Y-57344614D01*
X158278943Y-57263117D01*
X158542192Y-57000327D01*
X158684838Y-56656799D01*
X158685162Y-56284833D01*
X158564498Y-55992802D01*
X165841134Y-55992802D01*
X165983179Y-56336578D01*
X166245969Y-56599827D01*
X166589497Y-56742473D01*
X166961463Y-56742797D01*
X167305239Y-56600752D01*
X167568488Y-56337962D01*
X167602867Y-56255167D01*
X172334838Y-56255167D01*
X172476883Y-56598943D01*
X172739673Y-56862192D01*
X173083201Y-57004838D01*
X173455167Y-57005162D01*
X173798943Y-56863117D01*
X174062192Y-56600327D01*
X174204838Y-56256799D01*
X174204916Y-56166924D01*
X174295102Y-56204373D01*
X174667068Y-56204697D01*
X175010844Y-56062652D01*
X175274093Y-55799862D01*
X175329098Y-55667396D01*
X175386705Y-55691317D01*
X175758671Y-55691641D01*
X176102447Y-55549596D01*
X176365696Y-55286806D01*
X176508342Y-54943278D01*
X176508666Y-54571312D01*
X176366621Y-54227536D01*
X176103831Y-53964287D01*
X175760303Y-53821641D01*
X175388337Y-53821317D01*
X175044561Y-53963362D01*
X174781312Y-54226152D01*
X174726307Y-54358618D01*
X174668700Y-54334697D01*
X174296734Y-54334373D01*
X173952958Y-54476418D01*
X173689709Y-54739208D01*
X173547063Y-55082736D01*
X173546985Y-55172611D01*
X173456799Y-55135162D01*
X173084833Y-55134838D01*
X172741057Y-55276883D01*
X172477808Y-55539673D01*
X172335162Y-55883201D01*
X172334838Y-56255167D01*
X167602867Y-56255167D01*
X167711134Y-55994434D01*
X167711458Y-55622468D01*
X167569413Y-55278692D01*
X167306623Y-55015443D01*
X166963095Y-54872797D01*
X166591129Y-54872473D01*
X166247353Y-55014518D01*
X165984104Y-55277308D01*
X165841458Y-55620836D01*
X165841134Y-55992802D01*
X158564498Y-55992802D01*
X158543117Y-55941057D01*
X158280327Y-55677808D01*
X157936799Y-55535162D01*
X157564833Y-55534838D01*
X157221057Y-55676883D01*
X156957808Y-55939673D01*
X156815162Y-56283201D01*
X156814838Y-56655167D01*
X150553911Y-56655167D01*
X150669506Y-56376787D01*
X150669830Y-56004821D01*
X150527785Y-55661045D01*
X150264995Y-55397796D01*
X149921467Y-55255150D01*
X149549501Y-55254826D01*
X149205725Y-55396871D01*
X148942476Y-55659661D01*
X148816612Y-55962774D01*
X148697015Y-55913113D01*
X148325049Y-55912789D01*
X147981273Y-56054834D01*
X147970000Y-56066087D01*
X147970000Y-53214998D01*
X147994588Y-53214998D01*
X148285427Y-53157146D01*
X148531989Y-52992399D01*
X148635931Y-52888457D01*
X148869259Y-53122192D01*
X149212787Y-53264838D01*
X149584753Y-53265162D01*
X149928529Y-53123117D01*
X150191778Y-52860327D01*
X150334424Y-52516799D01*
X150334748Y-52144833D01*
X150192703Y-51801057D01*
X150081876Y-51690037D01*
X150191778Y-51580327D01*
X150334424Y-51236799D01*
X150334748Y-50864833D01*
X150192703Y-50521057D01*
X149929913Y-50257808D01*
X149586385Y-50115162D01*
X149214419Y-50114838D01*
X148870643Y-50256883D01*
X148607394Y-50519673D01*
X148464748Y-50863201D01*
X148464707Y-50910077D01*
X147970000Y-51404784D01*
X147970000Y-51026283D01*
X147912148Y-50735444D01*
X147747401Y-50488882D01*
X147075535Y-49817016D01*
X147193119Y-49533843D01*
X147193443Y-49161877D01*
X147051398Y-48818101D01*
X146788608Y-48554852D01*
X146445080Y-48412206D01*
X146073114Y-48411882D01*
X145729338Y-48553927D01*
X145555289Y-48727673D01*
X145491506Y-48701188D01*
X145119540Y-48700864D01*
X144775764Y-48842909D01*
X144669888Y-48948600D01*
X144670172Y-48622967D01*
X144528127Y-48279191D01*
X144265337Y-48015942D01*
X143921809Y-47873296D01*
X143549843Y-47872972D01*
X143238356Y-48001676D01*
X143200625Y-47963879D01*
X142857097Y-47821233D01*
X142485131Y-47820909D01*
X142141355Y-47962954D01*
X141878106Y-48225744D01*
X141735460Y-48569272D01*
X141735136Y-48941238D01*
X141877181Y-49285014D01*
X142139971Y-49548263D01*
X142483499Y-49690909D01*
X142855465Y-49691233D01*
X143166952Y-49562529D01*
X143204683Y-49600326D01*
X143548211Y-49742972D01*
X143920177Y-49743296D01*
X144263953Y-49601251D01*
X144369829Y-49495560D01*
X144369545Y-49821193D01*
X144511590Y-50164969D01*
X144774380Y-50428218D01*
X144866050Y-50466283D01*
X144850621Y-50503440D01*
X144850307Y-50864439D01*
X144657496Y-50864271D01*
X144313720Y-51006316D01*
X144050471Y-51269106D01*
X143907825Y-51612634D01*
X143907609Y-51860436D01*
X143883440Y-51860415D01*
X143539664Y-52002460D01*
X143276415Y-52265250D01*
X143133769Y-52608778D01*
X143133445Y-52980744D01*
X143275490Y-53324520D01*
X143538280Y-53587769D01*
X143881808Y-53730415D01*
X144253774Y-53730739D01*
X144597550Y-53588694D01*
X144860799Y-53325904D01*
X145003445Y-52982376D01*
X145003661Y-52734574D01*
X145027830Y-52734595D01*
X145371606Y-52592550D01*
X145453530Y-52510769D01*
X145712461Y-52618287D01*
X146084427Y-52618611D01*
X146428203Y-52476566D01*
X146450000Y-52454807D01*
X146450000Y-56116832D01*
X145496832Y-57070000D01*
X140594802Y-57070000D01*
X140122400Y-56597598D01*
X139875838Y-56432851D01*
X139584999Y-56374999D01*
X135848609Y-56374999D01*
X135557769Y-56432851D01*
X135311208Y-56597598D01*
X134777765Y-57131041D01*
X134613018Y-57377603D01*
X134589467Y-57496002D01*
X134522974Y-57562379D01*
X134380328Y-57905907D01*
X134380004Y-58277873D01*
X134522049Y-58621649D01*
X134784839Y-58884898D01*
X135128367Y-59027544D01*
X135500333Y-59027868D01*
X135844109Y-58885823D01*
X135920197Y-58809867D01*
X136270157Y-58810172D01*
X136613933Y-58668127D01*
X136877182Y-58405337D01*
X137019828Y-58061809D01*
X137019973Y-57894999D01*
X139270197Y-57894999D01*
X139300783Y-57925585D01*
X139270085Y-58079915D01*
X139270085Y-63560000D01*
X135692463Y-63560000D01*
X135660327Y-63527808D01*
X135316799Y-63385162D01*
X134944833Y-63384838D01*
X134601057Y-63526883D01*
X134337808Y-63789673D01*
X134195162Y-64133201D01*
X134194838Y-64505167D01*
X134223917Y-64575545D01*
X131522599Y-67276863D01*
X131357852Y-67523425D01*
X131300000Y-67814264D01*
X110365000Y-67814264D01*
X110365000Y-65224865D01*
X131409450Y-65224865D01*
X131551495Y-65568641D01*
X131814285Y-65831890D01*
X132157813Y-65974536D01*
X132529779Y-65974860D01*
X132873555Y-65832815D01*
X133136804Y-65570025D01*
X133279450Y-65226497D01*
X133279774Y-64854531D01*
X133137729Y-64510755D01*
X132874939Y-64247506D01*
X132531411Y-64104860D01*
X132159445Y-64104536D01*
X131815669Y-64246581D01*
X131552420Y-64509371D01*
X131409774Y-64852899D01*
X131409450Y-65224865D01*
X110365000Y-65224865D01*
X110365000Y-64358379D01*
X128163270Y-64358379D01*
X128305315Y-64702155D01*
X128568105Y-64965404D01*
X128911633Y-65108050D01*
X129283599Y-65108374D01*
X129627375Y-64966329D01*
X129890624Y-64703539D01*
X130033270Y-64360011D01*
X130033594Y-63988045D01*
X129891549Y-63644269D01*
X129628759Y-63381020D01*
X129285231Y-63238374D01*
X128913265Y-63238050D01*
X128569489Y-63380095D01*
X128306240Y-63642885D01*
X128163594Y-63986413D01*
X128163270Y-64358379D01*
X110365000Y-64358379D01*
X110365000Y-61205167D01*
X120514838Y-61205167D01*
X120656883Y-61548943D01*
X120919673Y-61812192D01*
X121263201Y-61954838D01*
X121635167Y-61955162D01*
X121978943Y-61813117D01*
X122115637Y-61676661D01*
X125982758Y-61676661D01*
X126194990Y-62190303D01*
X126587630Y-62583629D01*
X127100900Y-62796757D01*
X127656661Y-62797242D01*
X128170303Y-62585010D01*
X128563629Y-62192370D01*
X128741018Y-61765167D01*
X132034838Y-61765167D01*
X132176883Y-62108943D01*
X132288549Y-62220804D01*
X132200426Y-62433027D01*
X132200102Y-62804993D01*
X132342147Y-63148769D01*
X132604937Y-63412018D01*
X132948465Y-63554664D01*
X133320431Y-63554988D01*
X133664207Y-63412943D01*
X133927456Y-63150153D01*
X134070102Y-62806625D01*
X134070426Y-62434659D01*
X133928381Y-62090883D01*
X133816715Y-61979022D01*
X133904838Y-61766799D01*
X133905162Y-61394833D01*
X133763117Y-61051057D01*
X133500327Y-60787808D01*
X133156799Y-60645162D01*
X132784833Y-60644838D01*
X132441057Y-60786883D01*
X132177808Y-61049673D01*
X132035162Y-61393201D01*
X132034838Y-61765167D01*
X128741018Y-61765167D01*
X128776757Y-61679100D01*
X128777242Y-61123339D01*
X128565010Y-60609697D01*
X128172370Y-60216371D01*
X127659100Y-60003243D01*
X127103339Y-60002758D01*
X126589697Y-60214990D01*
X126196371Y-60607630D01*
X125983243Y-61120900D01*
X125982758Y-61676661D01*
X122115637Y-61676661D01*
X122242192Y-61550327D01*
X122384838Y-61206799D01*
X122385162Y-60834833D01*
X122243117Y-60491057D01*
X121980327Y-60227808D01*
X121636799Y-60085162D01*
X121264833Y-60084838D01*
X120921057Y-60226883D01*
X120657808Y-60489673D01*
X120515162Y-60833201D01*
X120514838Y-61205167D01*
X110365000Y-61205167D01*
X110365000Y-58930000D01*
X110310260Y-58654800D01*
X117339611Y-58654800D01*
X117481656Y-58998576D01*
X117744446Y-59261825D01*
X118087974Y-59404471D01*
X118459940Y-59404795D01*
X118803716Y-59262750D01*
X119066965Y-58999960D01*
X119138004Y-58828881D01*
X119163791Y-58854713D01*
X119507319Y-58997359D01*
X119879285Y-58997683D01*
X119909576Y-58985167D01*
X132064838Y-58985167D01*
X132206883Y-59328943D01*
X132469673Y-59592192D01*
X132813201Y-59734838D01*
X133185167Y-59735162D01*
X133528943Y-59593117D01*
X133792192Y-59330327D01*
X133934838Y-58986799D01*
X133935162Y-58614833D01*
X133793117Y-58271057D01*
X133530327Y-58007808D01*
X133186799Y-57865162D01*
X132814833Y-57864838D01*
X132471057Y-58006883D01*
X132207808Y-58269673D01*
X132065162Y-58613201D01*
X132064838Y-58985167D01*
X119909576Y-58985167D01*
X120223061Y-58855638D01*
X120486310Y-58592848D01*
X120628956Y-58249320D01*
X120628971Y-58232072D01*
X120760684Y-58177649D01*
X121023933Y-57914859D01*
X121158126Y-57591686D01*
X127375649Y-57591686D01*
X127517694Y-57935462D01*
X127780484Y-58198711D01*
X128124012Y-58341357D01*
X128495978Y-58341681D01*
X128839754Y-58199636D01*
X129103003Y-57936846D01*
X129245649Y-57593318D01*
X129245973Y-57221352D01*
X129103928Y-56877576D01*
X128841138Y-56614327D01*
X128497610Y-56471681D01*
X128125644Y-56471357D01*
X127781868Y-56613402D01*
X127518619Y-56876192D01*
X127375973Y-57219720D01*
X127375649Y-57591686D01*
X121158126Y-57591686D01*
X121166579Y-57571331D01*
X121166903Y-57199365D01*
X121024858Y-56855589D01*
X120762068Y-56592340D01*
X120418540Y-56449694D01*
X120046574Y-56449370D01*
X119702798Y-56591415D01*
X119439549Y-56854205D01*
X119296903Y-57197733D01*
X119296888Y-57214981D01*
X119249559Y-57234537D01*
X119216533Y-57154608D01*
X118953743Y-56891359D01*
X118610215Y-56748713D01*
X118238249Y-56748389D01*
X117894473Y-56890434D01*
X117631224Y-57153224D01*
X117488578Y-57496752D01*
X117488254Y-57868718D01*
X117507247Y-57914683D01*
X117482581Y-57939306D01*
X117339935Y-58282834D01*
X117339611Y-58654800D01*
X110310260Y-58654800D01*
X110301439Y-58610459D01*
X110120434Y-58339566D01*
X107715383Y-55934515D01*
X109874723Y-55934515D01*
X110016768Y-56278291D01*
X110279558Y-56541540D01*
X110623086Y-56684186D01*
X110995052Y-56684510D01*
X111338828Y-56542465D01*
X111602077Y-56279675D01*
X111744723Y-55936147D01*
X111745047Y-55564181D01*
X111714036Y-55489127D01*
X134013281Y-55489127D01*
X134155326Y-55832903D01*
X134418116Y-56096152D01*
X134761644Y-56238798D01*
X135133610Y-56239122D01*
X135477386Y-56097077D01*
X135554779Y-56019818D01*
X140780750Y-56019818D01*
X140922795Y-56363594D01*
X141185585Y-56626843D01*
X141529113Y-56769489D01*
X141901079Y-56769813D01*
X142244855Y-56627768D01*
X142508104Y-56364978D01*
X142650750Y-56021450D01*
X142651074Y-55649484D01*
X142509029Y-55305708D01*
X142246239Y-55042459D01*
X141902711Y-54899813D01*
X141530745Y-54899489D01*
X141186969Y-55041534D01*
X140923720Y-55304324D01*
X140781074Y-55647852D01*
X140780750Y-56019818D01*
X135554779Y-56019818D01*
X135740635Y-55834287D01*
X135883281Y-55490759D01*
X135883605Y-55118793D01*
X135741560Y-54775017D01*
X135478770Y-54511768D01*
X135135242Y-54369122D01*
X134763276Y-54368798D01*
X134419500Y-54510843D01*
X134156251Y-54773633D01*
X134013605Y-55117161D01*
X134013281Y-55489127D01*
X111714036Y-55489127D01*
X111603002Y-55220405D01*
X111340212Y-54957156D01*
X110996684Y-54814510D01*
X110624718Y-54814186D01*
X110280942Y-54956231D01*
X110017693Y-55219021D01*
X109875047Y-55562549D01*
X109874723Y-55934515D01*
X107715383Y-55934515D01*
X105586035Y-53805167D01*
X125304838Y-53805167D01*
X125446883Y-54148943D01*
X125709673Y-54412192D01*
X126053201Y-54554838D01*
X126425167Y-54555162D01*
X126768943Y-54413117D01*
X127032192Y-54150327D01*
X127171363Y-53815167D01*
X127614838Y-53815167D01*
X127756883Y-54158943D01*
X128019673Y-54422192D01*
X128363201Y-54564838D01*
X128735167Y-54565162D01*
X129078943Y-54423117D01*
X129342192Y-54160327D01*
X129484838Y-53816799D01*
X129484987Y-53645167D01*
X130144838Y-53645167D01*
X130286883Y-53988943D01*
X130549673Y-54252192D01*
X130893201Y-54394838D01*
X131265167Y-54395162D01*
X131468777Y-54311032D01*
X131619673Y-54462192D01*
X131963201Y-54604838D01*
X132335167Y-54605162D01*
X132678943Y-54463117D01*
X132942192Y-54200327D01*
X133084838Y-53856799D01*
X133085162Y-53484833D01*
X132943117Y-53141057D01*
X132680327Y-52877808D01*
X132657865Y-52868481D01*
X133150303Y-52665010D01*
X133543629Y-52272370D01*
X133756757Y-51759100D01*
X133757242Y-51203339D01*
X133545010Y-50689697D01*
X133152370Y-50296371D01*
X132639100Y-50083243D01*
X132083339Y-50082758D01*
X131569697Y-50294990D01*
X131176371Y-50687630D01*
X130963243Y-51200900D01*
X130962758Y-51756661D01*
X131174990Y-52270303D01*
X131544526Y-52640485D01*
X131266799Y-52525162D01*
X130894833Y-52524838D01*
X130551057Y-52666883D01*
X130287808Y-52929673D01*
X130145162Y-53273201D01*
X130144838Y-53645167D01*
X129484987Y-53645167D01*
X129485162Y-53444833D01*
X129343117Y-53101057D01*
X129080327Y-52837808D01*
X128736799Y-52695162D01*
X128364833Y-52694838D01*
X128021057Y-52836883D01*
X127757808Y-53099673D01*
X127615162Y-53443201D01*
X127614838Y-53815167D01*
X127171363Y-53815167D01*
X127174838Y-53806799D01*
X127175162Y-53434833D01*
X127033117Y-53091057D01*
X126770327Y-52827808D01*
X126426799Y-52685162D01*
X126054833Y-52684838D01*
X125711057Y-52826883D01*
X125447808Y-53089673D01*
X125305162Y-53433201D01*
X125304838Y-53805167D01*
X105586035Y-53805167D01*
X105065000Y-53284132D01*
X105065000Y-52369957D01*
X105126657Y-52344481D01*
X105500261Y-51971529D01*
X105870997Y-52342914D01*
X106453341Y-52584724D01*
X107083893Y-52585275D01*
X107666657Y-52344481D01*
X108112914Y-51899003D01*
X108354724Y-51316659D01*
X108355109Y-50875167D01*
X119004838Y-50875167D01*
X119146883Y-51218943D01*
X119409673Y-51482192D01*
X119753201Y-51624838D01*
X120125167Y-51625162D01*
X120468943Y-51483117D01*
X120732192Y-51220327D01*
X120874838Y-50876799D01*
X120875162Y-50504833D01*
X120860330Y-50468935D01*
X121783665Y-50468935D01*
X121925710Y-50812711D01*
X122188500Y-51075960D01*
X122532028Y-51218606D01*
X122903994Y-51218930D01*
X123247770Y-51076885D01*
X123511019Y-50814095D01*
X123653665Y-50470567D01*
X123653989Y-50098601D01*
X123511944Y-49754825D01*
X123352565Y-49595167D01*
X136324838Y-49595167D01*
X136466883Y-49938943D01*
X136729673Y-50202192D01*
X137073201Y-50344838D01*
X137202873Y-50344951D01*
X137202758Y-50476661D01*
X137368146Y-50876931D01*
X137202884Y-50876787D01*
X136859108Y-51018832D01*
X136595859Y-51281622D01*
X136453213Y-51625150D01*
X136452889Y-51997116D01*
X136594934Y-52340892D01*
X136857724Y-52604141D01*
X137201252Y-52746787D01*
X137573218Y-52747111D01*
X137916994Y-52605066D01*
X138180243Y-52342276D01*
X138322889Y-51998748D01*
X138323213Y-51626782D01*
X138308717Y-51591698D01*
X138320900Y-51596757D01*
X138876661Y-51597242D01*
X139390303Y-51385010D01*
X139418204Y-51357157D01*
X140314826Y-51357157D01*
X140456871Y-51700933D01*
X140719661Y-51964182D01*
X141063189Y-52106828D01*
X141435155Y-52107152D01*
X141778931Y-51965107D01*
X142042180Y-51702317D01*
X142184826Y-51358789D01*
X142185150Y-50986823D01*
X142043105Y-50643047D01*
X141780315Y-50379798D01*
X141436787Y-50237152D01*
X141064821Y-50236828D01*
X140721045Y-50378873D01*
X140457796Y-50641663D01*
X140315150Y-50985191D01*
X140314826Y-51357157D01*
X139418204Y-51357157D01*
X139783629Y-50992370D01*
X139996757Y-50479100D01*
X139997195Y-49976672D01*
X140129837Y-49921866D01*
X140393086Y-49659076D01*
X140535732Y-49315548D01*
X140536056Y-48943582D01*
X140394011Y-48599806D01*
X140131221Y-48336557D01*
X139787693Y-48193911D01*
X139415727Y-48193587D01*
X139071951Y-48335632D01*
X138808702Y-48598422D01*
X138723709Y-48803107D01*
X138323339Y-48802758D01*
X138064889Y-48909547D01*
X138053117Y-48881057D01*
X137790327Y-48617808D01*
X137446799Y-48475162D01*
X137074833Y-48474838D01*
X136731057Y-48616883D01*
X136467808Y-48879673D01*
X136325162Y-49223201D01*
X136324838Y-49595167D01*
X123352565Y-49595167D01*
X123249154Y-49491576D01*
X122905626Y-49348930D01*
X122533660Y-49348606D01*
X122189884Y-49490651D01*
X121926635Y-49753441D01*
X121783989Y-50096969D01*
X121783665Y-50468935D01*
X120860330Y-50468935D01*
X120733117Y-50161057D01*
X120470327Y-49897808D01*
X120126799Y-49755162D01*
X119754833Y-49754838D01*
X119411057Y-49896883D01*
X119147808Y-50159673D01*
X119005162Y-50503201D01*
X119004838Y-50875167D01*
X108355109Y-50875167D01*
X108355275Y-50686107D01*
X108328810Y-50622058D01*
X108710435Y-50240433D01*
X108719501Y-50226865D01*
X108891440Y-49969540D01*
X108955001Y-49649999D01*
X108955001Y-48845167D01*
X128834838Y-48845167D01*
X128976883Y-49188943D01*
X129239673Y-49452192D01*
X129583201Y-49594838D01*
X129955167Y-49595162D01*
X130298943Y-49453117D01*
X130562192Y-49190327D01*
X130704838Y-48846799D01*
X130705162Y-48474833D01*
X130563117Y-48131057D01*
X130300327Y-47867808D01*
X129956799Y-47725162D01*
X129584833Y-47724838D01*
X129241057Y-47866883D01*
X128977808Y-48129673D01*
X128835162Y-48473201D01*
X128834838Y-48845167D01*
X108955001Y-48845167D01*
X108955001Y-45766661D01*
X110442758Y-45766661D01*
X110654990Y-46280303D01*
X111047630Y-46673629D01*
X111560900Y-46886757D01*
X112116661Y-46887242D01*
X112630303Y-46675010D01*
X112778911Y-46526661D01*
X119602758Y-46526661D01*
X119814990Y-47040303D01*
X120207630Y-47433629D01*
X120720900Y-47646757D01*
X121276661Y-47647242D01*
X121790303Y-47435010D01*
X121830215Y-47395167D01*
X126204838Y-47395167D01*
X126346883Y-47738943D01*
X126609673Y-48002192D01*
X126953201Y-48144838D01*
X127325167Y-48145162D01*
X127668943Y-48003117D01*
X127932192Y-47740327D01*
X128074838Y-47396799D01*
X128075162Y-47024833D01*
X127933117Y-46681057D01*
X127670327Y-46417808D01*
X127326799Y-46275162D01*
X126954833Y-46274838D01*
X126611057Y-46416883D01*
X126347808Y-46679673D01*
X126205162Y-47023201D01*
X126204838Y-47395167D01*
X121830215Y-47395167D01*
X122183629Y-47042370D01*
X122396757Y-46529100D01*
X122397242Y-45973339D01*
X122185010Y-45459697D01*
X121792370Y-45066371D01*
X121279100Y-44853243D01*
X120723339Y-44852758D01*
X120209697Y-45064990D01*
X119816371Y-45457630D01*
X119603243Y-45970900D01*
X119602758Y-46526661D01*
X112778911Y-46526661D01*
X113023629Y-46282370D01*
X113236757Y-45769100D01*
X113237242Y-45213339D01*
X113025010Y-44699697D01*
X112632370Y-44306371D01*
X112119100Y-44093243D01*
X111563339Y-44092758D01*
X111049697Y-44304990D01*
X110656371Y-44697630D01*
X110443243Y-45210900D01*
X110442758Y-45766661D01*
X108955001Y-45766661D01*
X108955001Y-45170001D01*
X108950358Y-45146661D01*
X108891441Y-44850461D01*
X108710435Y-44579567D01*
X108215172Y-44084304D01*
X108247398Y-44096188D01*
X108877461Y-44071352D01*
X109344208Y-43878019D01*
X109436745Y-43616350D01*
X108500000Y-42679605D01*
X108485858Y-42693748D01*
X108306253Y-42514143D01*
X108320395Y-42500000D01*
X108679605Y-42500000D01*
X109616350Y-43436745D01*
X109878019Y-43344208D01*
X109940356Y-43175167D01*
X128474838Y-43175167D01*
X128616883Y-43518943D01*
X128879673Y-43782192D01*
X129223201Y-43924838D01*
X129519172Y-43925096D01*
X129366371Y-44077630D01*
X129153243Y-44590900D01*
X129152758Y-45146661D01*
X129364990Y-45660303D01*
X129757630Y-46053629D01*
X130270900Y-46266757D01*
X130826661Y-46267242D01*
X130944983Y-46218352D01*
X130944838Y-46385167D01*
X131086883Y-46728943D01*
X131349673Y-46992192D01*
X131467284Y-47041029D01*
X131365825Y-47142311D01*
X131223179Y-47485839D01*
X131222855Y-47857805D01*
X131364900Y-48201581D01*
X131627690Y-48464830D01*
X131971218Y-48607476D01*
X132343184Y-48607800D01*
X132686960Y-48465755D01*
X132950209Y-48202965D01*
X133092855Y-47859437D01*
X133093179Y-47487471D01*
X133012983Y-47293380D01*
X133936900Y-47293380D01*
X134078945Y-47637156D01*
X134341735Y-47900405D01*
X134685263Y-48043051D01*
X135057229Y-48043375D01*
X135401005Y-47901330D01*
X135664254Y-47638540D01*
X135806900Y-47295012D01*
X135806964Y-47220904D01*
X140260802Y-47220904D01*
X140402847Y-47564680D01*
X140665637Y-47827929D01*
X141009165Y-47970575D01*
X141381131Y-47970899D01*
X141724907Y-47828854D01*
X141988156Y-47566064D01*
X142099860Y-47297052D01*
X144400502Y-47297052D01*
X144542547Y-47640828D01*
X144805337Y-47904077D01*
X145148865Y-48046723D01*
X145520831Y-48047047D01*
X145864607Y-47905002D01*
X146127856Y-47642212D01*
X146216974Y-47427592D01*
X147381163Y-47427592D01*
X147523208Y-47771368D01*
X147548476Y-47796680D01*
X147446512Y-48042234D01*
X147446188Y-48414200D01*
X147588233Y-48757976D01*
X147851023Y-49021225D01*
X148117222Y-49131761D01*
X148117042Y-49338161D01*
X148259087Y-49681937D01*
X148521877Y-49945186D01*
X148865405Y-50087832D01*
X149237371Y-50088156D01*
X149581147Y-49946111D01*
X149844396Y-49683321D01*
X149909747Y-49525939D01*
X150079673Y-49696162D01*
X150423201Y-49838808D01*
X150795167Y-49839132D01*
X151138943Y-49697087D01*
X151402192Y-49434297D01*
X151544838Y-49090769D01*
X151545162Y-48718803D01*
X151403117Y-48375027D01*
X151140327Y-48111778D01*
X150796799Y-47969132D01*
X150424833Y-47968808D01*
X150081057Y-48110853D01*
X149817808Y-48373643D01*
X149752457Y-48531025D01*
X149582531Y-48360802D01*
X149316332Y-48250266D01*
X149316512Y-48043866D01*
X149174467Y-47700090D01*
X149149199Y-47674778D01*
X149251163Y-47429224D01*
X149251252Y-47326661D01*
X153122758Y-47326661D01*
X153334990Y-47840303D01*
X153727630Y-48233629D01*
X154240900Y-48446757D01*
X154796661Y-48447242D01*
X155310303Y-48235010D01*
X155703629Y-47842370D01*
X155916757Y-47329100D01*
X155917242Y-46773339D01*
X155705010Y-46259697D01*
X155312370Y-45866371D01*
X154799100Y-45653243D01*
X154243339Y-45652758D01*
X153729697Y-45864990D01*
X153336371Y-46257630D01*
X153123243Y-46770900D01*
X153122758Y-47326661D01*
X149251252Y-47326661D01*
X149251487Y-47057258D01*
X149109442Y-46713482D01*
X148846652Y-46450233D01*
X148503124Y-46307587D01*
X148131158Y-46307263D01*
X147787382Y-46449308D01*
X147524133Y-46712098D01*
X147381487Y-47055626D01*
X147381163Y-47427592D01*
X146216974Y-47427592D01*
X146270502Y-47298684D01*
X146270826Y-46926718D01*
X146128781Y-46582942D01*
X145865991Y-46319693D01*
X145522463Y-46177047D01*
X145150497Y-46176723D01*
X144806721Y-46318768D01*
X144543472Y-46581558D01*
X144400826Y-46925086D01*
X144400502Y-47297052D01*
X142099860Y-47297052D01*
X142130802Y-47222536D01*
X142131126Y-46850570D01*
X141989081Y-46506794D01*
X141726291Y-46243545D01*
X141382763Y-46100899D01*
X141010797Y-46100575D01*
X140667021Y-46242620D01*
X140403772Y-46505410D01*
X140261126Y-46848938D01*
X140260802Y-47220904D01*
X135806964Y-47220904D01*
X135807224Y-46923046D01*
X135665179Y-46579270D01*
X135402389Y-46316021D01*
X135058861Y-46173375D01*
X134686895Y-46173051D01*
X134343119Y-46315096D01*
X134079870Y-46577886D01*
X133937224Y-46921414D01*
X133936900Y-47293380D01*
X133012983Y-47293380D01*
X132951134Y-47143695D01*
X132688344Y-46880446D01*
X132570733Y-46831609D01*
X132672192Y-46730327D01*
X132814838Y-46386799D01*
X132815162Y-46014833D01*
X132673117Y-45671057D01*
X132431313Y-45428830D01*
X132660598Y-45334092D01*
X132674374Y-45320340D01*
X134004860Y-45320340D01*
X134146905Y-45664116D01*
X134409695Y-45927365D01*
X134753223Y-46070011D01*
X135125189Y-46070335D01*
X135468965Y-45928290D01*
X135732214Y-45665500D01*
X135757266Y-45605167D01*
X157034838Y-45605167D01*
X157176883Y-45948943D01*
X157439673Y-46212192D01*
X157783201Y-46354838D01*
X158155167Y-46355162D01*
X158498943Y-46213117D01*
X158762192Y-45950327D01*
X158904838Y-45606799D01*
X158905162Y-45234833D01*
X158808132Y-45000000D01*
X163231009Y-45000000D01*
X163353563Y-45616120D01*
X163702567Y-46138442D01*
X164224889Y-46487446D01*
X164841009Y-46610000D01*
X165158991Y-46610000D01*
X165775111Y-46487446D01*
X166297433Y-46138442D01*
X166646437Y-45616120D01*
X166768991Y-45000000D01*
X166646437Y-44383880D01*
X166297433Y-43861558D01*
X165775111Y-43512554D01*
X165158991Y-43390000D01*
X164841009Y-43390000D01*
X164224889Y-43512554D01*
X163702567Y-43861558D01*
X163353563Y-44383880D01*
X163231009Y-45000000D01*
X158808132Y-45000000D01*
X158763117Y-44891057D01*
X158500327Y-44627808D01*
X158156799Y-44485162D01*
X157784833Y-44484838D01*
X157441057Y-44626883D01*
X157177808Y-44889673D01*
X157035162Y-45233201D01*
X157034838Y-45605167D01*
X135757266Y-45605167D01*
X135874860Y-45321972D01*
X135875184Y-44950006D01*
X135733139Y-44606230D01*
X135470349Y-44342981D01*
X135126821Y-44200335D01*
X134754855Y-44200011D01*
X134411079Y-44342056D01*
X134147830Y-44604846D01*
X134005184Y-44948374D01*
X134004860Y-45320340D01*
X132674374Y-45320340D01*
X132923847Y-45071302D01*
X133066493Y-44727774D01*
X133066817Y-44355808D01*
X132924772Y-44012032D01*
X132661982Y-43748783D01*
X132318454Y-43606137D01*
X131946488Y-43605813D01*
X131602712Y-43747858D01*
X131503057Y-43847339D01*
X131342370Y-43686371D01*
X130829100Y-43473243D01*
X130273339Y-43472758D01*
X130211300Y-43498392D01*
X130344838Y-43176799D01*
X130345162Y-42804833D01*
X130203117Y-42461057D01*
X129940327Y-42197808D01*
X129596799Y-42055162D01*
X129224833Y-42054838D01*
X128881057Y-42196883D01*
X128617808Y-42459673D01*
X128475162Y-42803201D01*
X128474838Y-43175167D01*
X109940356Y-43175167D01*
X110096188Y-42752602D01*
X110071352Y-42122539D01*
X109878019Y-41655792D01*
X109616350Y-41563255D01*
X108679605Y-42500000D01*
X108320395Y-42500000D01*
X108306253Y-42485858D01*
X108485858Y-42306253D01*
X108500000Y-42320395D01*
X109436745Y-41383650D01*
X109405593Y-41295561D01*
X109842914Y-40859003D01*
X109898487Y-40725167D01*
X123804838Y-40725167D01*
X123946883Y-41068943D01*
X124209673Y-41332192D01*
X124553201Y-41474838D01*
X124925167Y-41475162D01*
X125268943Y-41333117D01*
X125532192Y-41070327D01*
X125674838Y-40726799D01*
X125674882Y-40675167D01*
X128344838Y-40675167D01*
X128486883Y-41018943D01*
X128749673Y-41282192D01*
X129093201Y-41424838D01*
X129465167Y-41425162D01*
X129808943Y-41283117D01*
X130072192Y-41020327D01*
X130214838Y-40676799D01*
X130214881Y-40626661D01*
X132252758Y-40626661D01*
X132464990Y-41140303D01*
X132857630Y-41533629D01*
X133370900Y-41746757D01*
X133926661Y-41747242D01*
X134440303Y-41535010D01*
X134833629Y-41142370D01*
X134894752Y-40995167D01*
X139344838Y-40995167D01*
X139486883Y-41338943D01*
X139749673Y-41602192D01*
X140093201Y-41744838D01*
X140465167Y-41745162D01*
X140808943Y-41603117D01*
X141072192Y-41340327D01*
X141161534Y-41125167D01*
X149124838Y-41125167D01*
X149266883Y-41468943D01*
X149529673Y-41732192D01*
X149873201Y-41874838D01*
X150245167Y-41875162D01*
X150588943Y-41733117D01*
X150852192Y-41470327D01*
X150994838Y-41126799D01*
X150995162Y-40754833D01*
X150853117Y-40411057D01*
X150590327Y-40147808D01*
X150246799Y-40005162D01*
X149874833Y-40004838D01*
X149531057Y-40146883D01*
X149267808Y-40409673D01*
X149125162Y-40753201D01*
X149124838Y-41125167D01*
X141161534Y-41125167D01*
X141214838Y-40996799D01*
X141215162Y-40624833D01*
X141073117Y-40281057D01*
X140810327Y-40017808D01*
X140466799Y-39875162D01*
X140094833Y-39874838D01*
X139751057Y-40016883D01*
X139487808Y-40279673D01*
X139345162Y-40623201D01*
X139344838Y-40995167D01*
X134894752Y-40995167D01*
X135046757Y-40629100D01*
X135047242Y-40073339D01*
X134835010Y-39559697D01*
X134830488Y-39555167D01*
X143904838Y-39555167D01*
X144046883Y-39898943D01*
X144309673Y-40162192D01*
X144653201Y-40304838D01*
X145025167Y-40305162D01*
X145368943Y-40163117D01*
X145532344Y-40000000D01*
X163332968Y-40000000D01*
X163446007Y-40568285D01*
X163767914Y-41050054D01*
X164249683Y-41371961D01*
X164817968Y-41485000D01*
X165182032Y-41485000D01*
X165750317Y-41371961D01*
X166232086Y-41050054D01*
X166553993Y-40568285D01*
X166667032Y-40000000D01*
X166553993Y-39431715D01*
X166232086Y-38949946D01*
X165750317Y-38628039D01*
X165182032Y-38515000D01*
X164817968Y-38515000D01*
X164249683Y-38628039D01*
X163767914Y-38949946D01*
X163446007Y-39431715D01*
X163332968Y-40000000D01*
X145532344Y-40000000D01*
X145632192Y-39900327D01*
X145774838Y-39556799D01*
X145775162Y-39184833D01*
X145633117Y-38841057D01*
X145370327Y-38577808D01*
X145026799Y-38435162D01*
X144654833Y-38434838D01*
X144311057Y-38576883D01*
X144047808Y-38839673D01*
X143905162Y-39183201D01*
X143904838Y-39555167D01*
X134830488Y-39555167D01*
X134442370Y-39166371D01*
X133929100Y-38953243D01*
X133373339Y-38952758D01*
X132859697Y-39164990D01*
X132466371Y-39557630D01*
X132253243Y-40070900D01*
X132252758Y-40626661D01*
X130214881Y-40626661D01*
X130215162Y-40304833D01*
X130073117Y-39961057D01*
X129810327Y-39697808D01*
X129466799Y-39555162D01*
X129094833Y-39554838D01*
X128751057Y-39696883D01*
X128487808Y-39959673D01*
X128345162Y-40303201D01*
X128344838Y-40675167D01*
X125674882Y-40675167D01*
X125675162Y-40354833D01*
X125533117Y-40011057D01*
X125447245Y-39925035D01*
X125584140Y-39788379D01*
X125726786Y-39444851D01*
X125727110Y-39072885D01*
X125585065Y-38729109D01*
X125322275Y-38465860D01*
X124978747Y-38323214D01*
X124606781Y-38322890D01*
X124263005Y-38464935D01*
X123999756Y-38727725D01*
X123857110Y-39071253D01*
X123856786Y-39443219D01*
X123998831Y-39786995D01*
X124084703Y-39873017D01*
X123947808Y-40009673D01*
X123805162Y-40353201D01*
X123804838Y-40725167D01*
X109898487Y-40725167D01*
X110084724Y-40276659D01*
X110085275Y-39646107D01*
X109844481Y-39063343D01*
X109399003Y-38617086D01*
X108936811Y-38425167D01*
X118824838Y-38425167D01*
X118966883Y-38768943D01*
X119229673Y-39032192D01*
X119573201Y-39174838D01*
X119945167Y-39175162D01*
X120288943Y-39033117D01*
X120552192Y-38770327D01*
X120694838Y-38426799D01*
X120695162Y-38054833D01*
X120653981Y-37955167D01*
X133124838Y-37955167D01*
X133266883Y-38298943D01*
X133529673Y-38562192D01*
X133873201Y-38704838D01*
X134245167Y-38705162D01*
X134588943Y-38563117D01*
X134852192Y-38300327D01*
X134994838Y-37956799D01*
X134995048Y-37715167D01*
X142054838Y-37715167D01*
X142196883Y-38058943D01*
X142459673Y-38322192D01*
X142803201Y-38464838D01*
X143175167Y-38465162D01*
X143518943Y-38323117D01*
X143782192Y-38060327D01*
X143924838Y-37716799D01*
X143925162Y-37344833D01*
X143783117Y-37001057D01*
X143520327Y-36737808D01*
X143176799Y-36595162D01*
X142804833Y-36594838D01*
X142461057Y-36736883D01*
X142197808Y-36999673D01*
X142055162Y-37343201D01*
X142054838Y-37715167D01*
X134995048Y-37715167D01*
X134995162Y-37584833D01*
X134853117Y-37241057D01*
X134590327Y-36977808D01*
X134246799Y-36835162D01*
X133874833Y-36834838D01*
X133531057Y-36976883D01*
X133267808Y-37239673D01*
X133125162Y-37583201D01*
X133124838Y-37955167D01*
X120653981Y-37955167D01*
X120553117Y-37711057D01*
X120290327Y-37447808D01*
X119946799Y-37305162D01*
X119574833Y-37304838D01*
X119231057Y-37446883D01*
X118967808Y-37709673D01*
X118825162Y-38053201D01*
X118824838Y-38425167D01*
X108936811Y-38425167D01*
X108816659Y-38375276D01*
X108186107Y-38374725D01*
X107605000Y-38614834D01*
X107605000Y-33517866D01*
X116047539Y-25075327D01*
X116155519Y-25336657D01*
X116528471Y-25710261D01*
X116157086Y-26080997D01*
X115915276Y-26663341D01*
X115914725Y-27293893D01*
X116155519Y-27876657D01*
X116528471Y-28250261D01*
X116157086Y-28620997D01*
X115915276Y-29203341D01*
X115914725Y-29833893D01*
X116155519Y-30416657D01*
X116528471Y-30790261D01*
X116157086Y-31160997D01*
X115915276Y-31743341D01*
X115914725Y-32373893D01*
X116155519Y-32956657D01*
X116600997Y-33402914D01*
X117183341Y-33644724D01*
X117813893Y-33645275D01*
X118396657Y-33404481D01*
X118786651Y-33015167D01*
X147894838Y-33015167D01*
X148036883Y-33358943D01*
X148299673Y-33622192D01*
X148643201Y-33764838D01*
X149015167Y-33765162D01*
X149358943Y-33623117D01*
X149622192Y-33360327D01*
X149764838Y-33016799D01*
X149765162Y-32644833D01*
X149623117Y-32301057D01*
X149360327Y-32037808D01*
X149016799Y-31895162D01*
X148644833Y-31894838D01*
X148301057Y-32036883D01*
X148037808Y-32299673D01*
X147895162Y-32643201D01*
X147894838Y-33015167D01*
X118786651Y-33015167D01*
X118842914Y-32959003D01*
X119084724Y-32376659D01*
X119085275Y-31746107D01*
X118844481Y-31163343D01*
X118471529Y-30789739D01*
X118842914Y-30419003D01*
X119016898Y-30000000D01*
X163332968Y-30000000D01*
X163446007Y-30568285D01*
X163767914Y-31050054D01*
X164249683Y-31371961D01*
X164817968Y-31485000D01*
X165182032Y-31485000D01*
X165750317Y-31371961D01*
X166232086Y-31050054D01*
X166553993Y-30568285D01*
X166667032Y-30000000D01*
X166553993Y-29431715D01*
X166232086Y-28949946D01*
X165750317Y-28628039D01*
X165182032Y-28515000D01*
X164817968Y-28515000D01*
X164249683Y-28628039D01*
X163767914Y-28949946D01*
X163446007Y-29431715D01*
X163332968Y-30000000D01*
X119016898Y-30000000D01*
X119084724Y-29836659D01*
X119085275Y-29206107D01*
X118844481Y-28623343D01*
X118471529Y-28249739D01*
X118842914Y-27879003D01*
X119084724Y-27296659D01*
X119085275Y-26666107D01*
X118844481Y-26083343D01*
X118471529Y-25709739D01*
X118792936Y-25388893D01*
X127874725Y-25388893D01*
X128115519Y-25971657D01*
X128560997Y-26417914D01*
X128899228Y-26558360D01*
X128837808Y-26619673D01*
X128695162Y-26963201D01*
X128694838Y-27335167D01*
X128836883Y-27678943D01*
X129099673Y-27942192D01*
X129331184Y-28038324D01*
X129141057Y-28116883D01*
X128877808Y-28379673D01*
X128735162Y-28723201D01*
X128734838Y-29095167D01*
X128876883Y-29438943D01*
X129139673Y-29702192D01*
X129483201Y-29844838D01*
X129855167Y-29845162D01*
X130198943Y-29703117D01*
X130462192Y-29440327D01*
X130604838Y-29096799D01*
X130605162Y-28724833D01*
X130463117Y-28381057D01*
X130200327Y-28117808D01*
X129968816Y-28021676D01*
X130158943Y-27943117D01*
X130422192Y-27680327D01*
X130564838Y-27336799D01*
X130565162Y-26964833D01*
X130423117Y-26621057D01*
X130261247Y-26458904D01*
X130356657Y-26419481D01*
X130730261Y-26046529D01*
X131100997Y-26417914D01*
X131683341Y-26659724D01*
X132313893Y-26660275D01*
X132896657Y-26419481D01*
X133270261Y-26046529D01*
X133640997Y-26417914D01*
X134223341Y-26659724D01*
X134853893Y-26660275D01*
X135436657Y-26419481D01*
X135882914Y-25974003D01*
X136124724Y-25391659D01*
X136124791Y-25313893D01*
X142534725Y-25313893D01*
X142775519Y-25896657D01*
X143220997Y-26342914D01*
X143803341Y-26584724D01*
X144433893Y-26585275D01*
X145016657Y-26344481D01*
X145390261Y-25971529D01*
X145760997Y-26342914D01*
X146343341Y-26584724D01*
X146973893Y-26585275D01*
X147556657Y-26344481D01*
X147930261Y-25971529D01*
X148300997Y-26342914D01*
X148883341Y-26584724D01*
X149513893Y-26585275D01*
X150096657Y-26344481D01*
X150542914Y-25899003D01*
X150784724Y-25316659D01*
X150785000Y-25000000D01*
X163231009Y-25000000D01*
X163353563Y-25616120D01*
X163702567Y-26138442D01*
X164224889Y-26487446D01*
X164841009Y-26610000D01*
X165158991Y-26610000D01*
X165775111Y-26487446D01*
X166297433Y-26138442D01*
X166646437Y-25616120D01*
X166768991Y-25000000D01*
X166646437Y-24383880D01*
X166297433Y-23861558D01*
X165775111Y-23512554D01*
X165158991Y-23390000D01*
X164841009Y-23390000D01*
X164224889Y-23512554D01*
X163702567Y-23861558D01*
X163353563Y-24383880D01*
X163231009Y-25000000D01*
X150785000Y-25000000D01*
X150785275Y-24686107D01*
X150544481Y-24103343D01*
X150099003Y-23657086D01*
X149516659Y-23415276D01*
X148886107Y-23414725D01*
X148303343Y-23655519D01*
X147929739Y-24028471D01*
X147559003Y-23657086D01*
X146976659Y-23415276D01*
X146346107Y-23414725D01*
X145763343Y-23655519D01*
X145389739Y-24028471D01*
X145019003Y-23657086D01*
X144436659Y-23415276D01*
X143806107Y-23414725D01*
X143223343Y-23655519D01*
X142777086Y-24100997D01*
X142535276Y-24683341D01*
X142534725Y-25313893D01*
X136124791Y-25313893D01*
X136125275Y-24761107D01*
X135884481Y-24178343D01*
X135439003Y-23732086D01*
X134856659Y-23490276D01*
X134226107Y-23489725D01*
X133643343Y-23730519D01*
X133269739Y-24103471D01*
X132899003Y-23732086D01*
X132316659Y-23490276D01*
X131686107Y-23489725D01*
X131103343Y-23730519D01*
X130729739Y-24103471D01*
X130359003Y-23732086D01*
X129776659Y-23490276D01*
X129146107Y-23489725D01*
X128563343Y-23730519D01*
X128117086Y-24175997D01*
X127875276Y-24758341D01*
X127874725Y-25388893D01*
X118792936Y-25388893D01*
X118842914Y-25339003D01*
X119084724Y-24756659D01*
X119085275Y-24126107D01*
X118844481Y-23543343D01*
X118399003Y-23097086D01*
X118135285Y-22987581D01*
X118787866Y-22335000D01*
X177654132Y-22335000D01*
X180165000Y-24845868D01*
X180165000Y-31140000D01*
X180228561Y-31459541D01*
X180388270Y-31698562D01*
X180409566Y-31730434D01*
X181699718Y-33020586D01*
X181695260Y-33031321D01*
X181694741Y-33626069D01*
X181921861Y-34175743D01*
X182342045Y-34596660D01*
X182349426Y-34599725D01*
X182344257Y-34601861D01*
X181923340Y-35022045D01*
X181695260Y-35571321D01*
X181694741Y-36166069D01*
X181921861Y-36715743D01*
X182342045Y-37136660D01*
X182349426Y-37139725D01*
X182344257Y-37141861D01*
X181923340Y-37562045D01*
X181695260Y-38111321D01*
X181694741Y-38706069D01*
X181921861Y-39255743D01*
X182342045Y-39676660D01*
X182349426Y-39679725D01*
X182344257Y-39681861D01*
X181923340Y-40102045D01*
X181695260Y-40651321D01*
X181694741Y-41246069D01*
X181921861Y-41795743D01*
X182342045Y-42216660D01*
X182349426Y-42219725D01*
X182344257Y-42221861D01*
X181923340Y-42642045D01*
X181695260Y-43191321D01*
X181694741Y-43786069D01*
X181921861Y-44335743D01*
X182342045Y-44756660D01*
X182349426Y-44759725D01*
X182344257Y-44761861D01*
X181923340Y-45182045D01*
X181695260Y-45731321D01*
X181694741Y-46326069D01*
X181921861Y-46875743D01*
X182342045Y-47296660D01*
X182349426Y-47299725D01*
X182344257Y-47301861D01*
X181923340Y-47722045D01*
X181695260Y-48271321D01*
X181694741Y-48866069D01*
X181921861Y-49415743D01*
X182342045Y-49836660D01*
X182349426Y-49839725D01*
X182344257Y-49841861D01*
X181923340Y-50262045D01*
X181695260Y-50811321D01*
X181694741Y-51406069D01*
X181921861Y-51955743D01*
X182342045Y-52376660D01*
X182349426Y-52379725D01*
X182344257Y-52381861D01*
X181923340Y-52802045D01*
X181695260Y-53351321D01*
X181694741Y-53946069D01*
X181921861Y-54495743D01*
X182342045Y-54916660D01*
X182349426Y-54919725D01*
X182344257Y-54921861D01*
X181923340Y-55342045D01*
X181695260Y-55891321D01*
X181694741Y-56486069D01*
X181921861Y-57035743D01*
X182342045Y-57456660D01*
X182349426Y-57459725D01*
X182344257Y-57461861D01*
X181923340Y-57882045D01*
X181695260Y-58431321D01*
X181694741Y-59026069D01*
X181921861Y-59575743D01*
X182342045Y-59996660D01*
X182349426Y-59999725D01*
X182344257Y-60001861D01*
X181923340Y-60422045D01*
X181695260Y-60971321D01*
X181694741Y-61566069D01*
X181921861Y-62115743D01*
X182342045Y-62536660D01*
X182349426Y-62539725D01*
X182344257Y-62541861D01*
X181923340Y-62962045D01*
X181695260Y-63511321D01*
X181694741Y-64106069D01*
X181921861Y-64655743D01*
X182342045Y-65076660D01*
X182349426Y-65079725D01*
X182344257Y-65081861D01*
X181923340Y-65502045D01*
X181695260Y-66051321D01*
X181694741Y-66646069D01*
X181921861Y-67195743D01*
X182342045Y-67616660D01*
X182349426Y-67619725D01*
X182344257Y-67621861D01*
X181923340Y-68042045D01*
X181695260Y-68591321D01*
X181694741Y-69186069D01*
X181921861Y-69735743D01*
X182342045Y-70156660D01*
X182349426Y-70159725D01*
X182344257Y-70161861D01*
X181923340Y-70582045D01*
X181695260Y-71131321D01*
X181694741Y-71726069D01*
X181921861Y-72275743D01*
X182342045Y-72696660D01*
X182349426Y-72699725D01*
X182344257Y-72701861D01*
X181923340Y-73122045D01*
X181695260Y-73671321D01*
X181694741Y-74266069D01*
X181921861Y-74815743D01*
X182342045Y-75236660D01*
X182349426Y-75239725D01*
X182344257Y-75241861D01*
X181923340Y-75662045D01*
X181695260Y-76211321D01*
X181695164Y-76321613D01*
X181592838Y-76279123D01*
X181220872Y-76278799D01*
X180877096Y-76420844D01*
X180613847Y-76683634D01*
X180471201Y-77027162D01*
X180470877Y-77399128D01*
X180612922Y-77742904D01*
X180875712Y-78006153D01*
X181219240Y-78148799D01*
X181591206Y-78149123D01*
X181934982Y-78007078D01*
X182198231Y-77744288D01*
X182230986Y-77665407D01*
X182342045Y-77776660D01*
X182349426Y-77779725D01*
X182344257Y-77781861D01*
X181923340Y-78202045D01*
X181695260Y-78751321D01*
X181694741Y-79346069D01*
X181921861Y-79895743D01*
X182342045Y-80316660D01*
X182349426Y-80319725D01*
X182344257Y-80321861D01*
X181923340Y-80742045D01*
X181695260Y-81291321D01*
X181694741Y-81886069D01*
X181921861Y-82435743D01*
X182342045Y-82856660D01*
X182349426Y-82859725D01*
X182344257Y-82861861D01*
X181923340Y-83282045D01*
X181695260Y-83831321D01*
X181694741Y-84426069D01*
X181921861Y-84975743D01*
X182342045Y-85396660D01*
X182349426Y-85399725D01*
X182344257Y-85401861D01*
X181923340Y-85822045D01*
X181695260Y-86371321D01*
X181694741Y-86966069D01*
X181921861Y-87515743D01*
X182342045Y-87936660D01*
X182349426Y-87939725D01*
X182344257Y-87941861D01*
X181923340Y-88362045D01*
X181695260Y-88911321D01*
X181694741Y-89506069D01*
X181921861Y-90055743D01*
X182342045Y-90476660D01*
X182349426Y-90479725D01*
X182344257Y-90481861D01*
X181923340Y-90902045D01*
X181695260Y-91451321D01*
X181694741Y-92046069D01*
X181921861Y-92595743D01*
X182342045Y-93016660D01*
X182349426Y-93019725D01*
X182344257Y-93021861D01*
X181923340Y-93442045D01*
X181695260Y-93991321D01*
X181694741Y-94586069D01*
X181921861Y-95135743D01*
X182342045Y-95556660D01*
X182349426Y-95559725D01*
X182344257Y-95561861D01*
X181923340Y-95982045D01*
X181695260Y-96531321D01*
X181694741Y-97126069D01*
X181921861Y-97675743D01*
X182342045Y-98096660D01*
X182349426Y-98099725D01*
X182344257Y-98101861D01*
X181923340Y-98522045D01*
X181695260Y-99071321D01*
X181694741Y-99666069D01*
X181921861Y-100215743D01*
X182342045Y-100636660D01*
X182349426Y-100639725D01*
X182344257Y-100641861D01*
X181923340Y-101062045D01*
X181695260Y-101611321D01*
X181694741Y-102206069D01*
X181921861Y-102755743D01*
X182342045Y-103176660D01*
X182349426Y-103179725D01*
X182344257Y-103181861D01*
X181923340Y-103602045D01*
X181695260Y-104151321D01*
X181694741Y-104746069D01*
X181921861Y-105295743D01*
X182342045Y-105716660D01*
X182891321Y-105944740D01*
X183486069Y-105945259D01*
X184035743Y-105718139D01*
X184456660Y-105297955D01*
X184459725Y-105290574D01*
X184461861Y-105295743D01*
X184882045Y-105716660D01*
X185431321Y-105944740D01*
X186026069Y-105945259D01*
X186575743Y-105718139D01*
X186996660Y-105297955D01*
X186999824Y-105290336D01*
X186999340Y-105844531D01*
X187578156Y-107245372D01*
X188648991Y-108318077D01*
X190048819Y-108899337D01*
X191564531Y-108900660D01*
X192965372Y-108321844D01*
X194038077Y-107251009D01*
X194619337Y-105851181D01*
X194620660Y-104335469D01*
X194041844Y-102934628D01*
X192971009Y-101861923D01*
X191571181Y-101280663D01*
X190055469Y-101279340D01*
X188654628Y-101858156D01*
X187581923Y-102928991D01*
X187149459Y-103970480D01*
X186998139Y-103604257D01*
X186577955Y-103183340D01*
X186570574Y-103180275D01*
X186575743Y-103178139D01*
X186996660Y-102757955D01*
X187224740Y-102208679D01*
X187225259Y-101613931D01*
X187163723Y-101465001D01*
X188193168Y-101465001D01*
X188512709Y-101401440D01*
X188783602Y-101220435D01*
X192716813Y-97287224D01*
X192774534Y-97200838D01*
X192897818Y-97016331D01*
X192961379Y-96696790D01*
X192961379Y-36904278D01*
X192897818Y-36584737D01*
X192716813Y-36313844D01*
X187882534Y-31479565D01*
X187852564Y-31459540D01*
X187611641Y-31298560D01*
X187292100Y-31234999D01*
X187163982Y-31234999D01*
X187224740Y-31088679D01*
X187225259Y-30493931D01*
X186998139Y-29944257D01*
X186577955Y-29523340D01*
X186570574Y-29520275D01*
X186575743Y-29518139D01*
X186996660Y-29097955D01*
X187224740Y-28548679D01*
X187225259Y-27953931D01*
X186998139Y-27404257D01*
X186577955Y-26983340D01*
X186570574Y-26980275D01*
X186575743Y-26978139D01*
X186996660Y-26557955D01*
X187147829Y-26193901D01*
X187578156Y-27235372D01*
X188648991Y-28308077D01*
X190048819Y-28889337D01*
X191564531Y-28890660D01*
X192965372Y-28311844D01*
X194038077Y-27241009D01*
X194619337Y-25841181D01*
X194620660Y-24325469D01*
X194041844Y-22924628D01*
X192971009Y-21851923D01*
X191571181Y-21270663D01*
X190055469Y-21269340D01*
X188654628Y-21848156D01*
X187581923Y-22918991D01*
X187000663Y-24318819D01*
X187000183Y-24869203D01*
X186998139Y-24864257D01*
X186577955Y-24443340D01*
X186028679Y-24215260D01*
X185433931Y-24214741D01*
X184884257Y-24441861D01*
X184463340Y-24862045D01*
X184460275Y-24869426D01*
X184458139Y-24864257D01*
X184037955Y-24443340D01*
X183488679Y-24215260D01*
X182893931Y-24214741D01*
X182344257Y-24441861D01*
X181923340Y-24862045D01*
X181835000Y-25074791D01*
X181835000Y-24500000D01*
X181823730Y-24443340D01*
X181771440Y-24180460D01*
X181590434Y-23909566D01*
X178590434Y-20909566D01*
X178319541Y-20728561D01*
X178100546Y-20685000D01*
X195205000Y-20685000D01*
X195205000Y-109485000D01*
G36*
X118122457Y-20728561D02*
X117851564Y-20909566D01*
X106179566Y-32581564D01*
X105998561Y-32852457D01*
X105935000Y-33171998D01*
X105935000Y-43820000D01*
X105998561Y-44139541D01*
X106129163Y-44335001D01*
X106179566Y-44410434D01*
X107253819Y-45484687D01*
X107086659Y-45415276D01*
X106456107Y-45414725D01*
X105873343Y-45655519D01*
X105499739Y-46028471D01*
X105129003Y-45657086D01*
X104546659Y-45415276D01*
X103916107Y-45414725D01*
X103333343Y-45655519D01*
X102887086Y-46100997D01*
X102645276Y-46683341D01*
X102644725Y-47313893D01*
X102885519Y-47896657D01*
X103330997Y-48342914D01*
X103913341Y-48584724D01*
X104543893Y-48585275D01*
X105126657Y-48344481D01*
X105500261Y-47971529D01*
X105870997Y-48342914D01*
X106453341Y-48584724D01*
X107083893Y-48585275D01*
X107285001Y-48502179D01*
X107285001Y-49304131D01*
X107148272Y-49440860D01*
X107086659Y-49415276D01*
X106456107Y-49414725D01*
X105873343Y-49655519D01*
X105499739Y-50028471D01*
X105129003Y-49657086D01*
X104546659Y-49415276D01*
X103916107Y-49414725D01*
X103333343Y-49655519D01*
X102887086Y-50100997D01*
X102645276Y-50683341D01*
X102644725Y-51313893D01*
X102885519Y-51896657D01*
X103330997Y-52342914D01*
X103395000Y-52369490D01*
X103395000Y-53630000D01*
X103458561Y-53949541D01*
X103591797Y-54148943D01*
X103639566Y-54220434D01*
X108695000Y-59275868D01*
X108695000Y-71873000D01*
X108362434Y-71873000D01*
X108464724Y-71626659D01*
X108465275Y-70996107D01*
X108224481Y-70413343D01*
X107779003Y-69967086D01*
X107196659Y-69725276D01*
X106566107Y-69724725D01*
X105983343Y-69965519D01*
X105609739Y-70338471D01*
X105239003Y-69967086D01*
X104656659Y-69725276D01*
X104026107Y-69724725D01*
X103443343Y-69965519D01*
X102997086Y-70410997D01*
X102755276Y-70993341D01*
X102754725Y-71623893D01*
X102857654Y-71873000D01*
X100685000Y-71873000D01*
X100685000Y-58689726D01*
X102569799Y-58689726D01*
X102737449Y-59095472D01*
X102570202Y-59498249D01*
X102569799Y-59959726D01*
X102737449Y-60365472D01*
X102570202Y-60768249D01*
X102569799Y-61229726D01*
X102737449Y-61635472D01*
X102570202Y-62038249D01*
X102569799Y-62499726D01*
X102737449Y-62905472D01*
X102570202Y-63308249D01*
X102569799Y-63769726D01*
X102746026Y-64196229D01*
X103072055Y-64522827D01*
X103498249Y-64699798D01*
X103959726Y-64700201D01*
X104386229Y-64523974D01*
X104401074Y-64509155D01*
X104411575Y-64565962D01*
X104848985Y-64713046D01*
X105309386Y-64681543D01*
X105588425Y-64565962D01*
X105628667Y-64348273D01*
X105000000Y-63719605D01*
X104985858Y-63733748D01*
X104889915Y-63637805D01*
X104890086Y-63442024D01*
X104902195Y-63429915D01*
X105097976Y-63430086D01*
X105193748Y-63525858D01*
X105179605Y-63540000D01*
X105808273Y-64168667D01*
X106025962Y-64128425D01*
X106173046Y-63691015D01*
X106141543Y-63230614D01*
X106130884Y-63204880D01*
X106455167Y-63205162D01*
X106798943Y-63063117D01*
X107062192Y-62800327D01*
X107204838Y-62456799D01*
X107205162Y-62084833D01*
X107063117Y-61741057D01*
X106977290Y-61655081D01*
X107062192Y-61570327D01*
X107204838Y-61226799D01*
X107205162Y-60854833D01*
X107063117Y-60511057D01*
X106800327Y-60247808D01*
X106456799Y-60105162D01*
X106100378Y-60104852D01*
X106159798Y-59961751D01*
X106160201Y-59500274D01*
X105992551Y-59094528D01*
X106159798Y-58691751D01*
X106160201Y-58230274D01*
X105983974Y-57803771D01*
X105657945Y-57477173D01*
X105231751Y-57300202D01*
X104770274Y-57299799D01*
X104364528Y-57467449D01*
X103961751Y-57300202D01*
X103500274Y-57299799D01*
X103073771Y-57476026D01*
X102747173Y-57802055D01*
X102570202Y-58228249D01*
X102569799Y-58689726D01*
X100685000Y-58689726D01*
X100685000Y-28374531D01*
X101269340Y-28374531D01*
X101848156Y-29775372D01*
X102918991Y-30848077D01*
X104318819Y-31429337D01*
X105834531Y-31430660D01*
X107235372Y-30851844D01*
X108308077Y-29781009D01*
X108889337Y-28381181D01*
X108890660Y-26865469D01*
X108311844Y-25464628D01*
X107241009Y-24391923D01*
X105841181Y-23810663D01*
X104325469Y-23809340D01*
X102924628Y-24388156D01*
X101851923Y-25458991D01*
X101270663Y-26858819D01*
X101269340Y-28374531D01*
X100685000Y-28374531D01*
X100685000Y-20685000D01*
X118341452Y-20685000D01*
X118122457Y-20728561D01*
X118122457Y-20728561D01*
G37*
X118122457Y-20728561D02*
X117851564Y-20909566D01*
X106179566Y-32581564D01*
X105998561Y-32852457D01*
X105935000Y-33171998D01*
X105935000Y-43820000D01*
X105998561Y-44139541D01*
X106129163Y-44335001D01*
X106179566Y-44410434D01*
X107253819Y-45484687D01*
X107086659Y-45415276D01*
X106456107Y-45414725D01*
X105873343Y-45655519D01*
X105499739Y-46028471D01*
X105129003Y-45657086D01*
X104546659Y-45415276D01*
X103916107Y-45414725D01*
X103333343Y-45655519D01*
X102887086Y-46100997D01*
X102645276Y-46683341D01*
X102644725Y-47313893D01*
X102885519Y-47896657D01*
X103330997Y-48342914D01*
X103913341Y-48584724D01*
X104543893Y-48585275D01*
X105126657Y-48344481D01*
X105500261Y-47971529D01*
X105870997Y-48342914D01*
X106453341Y-48584724D01*
X107083893Y-48585275D01*
X107285001Y-48502179D01*
X107285001Y-49304131D01*
X107148272Y-49440860D01*
X107086659Y-49415276D01*
X106456107Y-49414725D01*
X105873343Y-49655519D01*
X105499739Y-50028471D01*
X105129003Y-49657086D01*
X104546659Y-49415276D01*
X103916107Y-49414725D01*
X103333343Y-49655519D01*
X102887086Y-50100997D01*
X102645276Y-50683341D01*
X102644725Y-51313893D01*
X102885519Y-51896657D01*
X103330997Y-52342914D01*
X103395000Y-52369490D01*
X103395000Y-53630000D01*
X103458561Y-53949541D01*
X103591797Y-54148943D01*
X103639566Y-54220434D01*
X108695000Y-59275868D01*
X108695000Y-71873000D01*
X108362434Y-71873000D01*
X108464724Y-71626659D01*
X108465275Y-70996107D01*
X108224481Y-70413343D01*
X107779003Y-69967086D01*
X107196659Y-69725276D01*
X106566107Y-69724725D01*
X105983343Y-69965519D01*
X105609739Y-70338471D01*
X105239003Y-69967086D01*
X104656659Y-69725276D01*
X104026107Y-69724725D01*
X103443343Y-69965519D01*
X102997086Y-70410997D01*
X102755276Y-70993341D01*
X102754725Y-71623893D01*
X102857654Y-71873000D01*
X100685000Y-71873000D01*
X100685000Y-58689726D01*
X102569799Y-58689726D01*
X102737449Y-59095472D01*
X102570202Y-59498249D01*
X102569799Y-59959726D01*
X102737449Y-60365472D01*
X102570202Y-60768249D01*
X102569799Y-61229726D01*
X102737449Y-61635472D01*
X102570202Y-62038249D01*
X102569799Y-62499726D01*
X102737449Y-62905472D01*
X102570202Y-63308249D01*
X102569799Y-63769726D01*
X102746026Y-64196229D01*
X103072055Y-64522827D01*
X103498249Y-64699798D01*
X103959726Y-64700201D01*
X104386229Y-64523974D01*
X104401074Y-64509155D01*
X104411575Y-64565962D01*
X104848985Y-64713046D01*
X105309386Y-64681543D01*
X105588425Y-64565962D01*
X105628667Y-64348273D01*
X105000000Y-63719605D01*
X104985858Y-63733748D01*
X104889915Y-63637805D01*
X104890086Y-63442024D01*
X104902195Y-63429915D01*
X105097976Y-63430086D01*
X105193748Y-63525858D01*
X105179605Y-63540000D01*
X105808273Y-64168667D01*
X106025962Y-64128425D01*
X106173046Y-63691015D01*
X106141543Y-63230614D01*
X106130884Y-63204880D01*
X106455167Y-63205162D01*
X106798943Y-63063117D01*
X107062192Y-62800327D01*
X107204838Y-62456799D01*
X107205162Y-62084833D01*
X107063117Y-61741057D01*
X106977290Y-61655081D01*
X107062192Y-61570327D01*
X107204838Y-61226799D01*
X107205162Y-60854833D01*
X107063117Y-60511057D01*
X106800327Y-60247808D01*
X106456799Y-60105162D01*
X106100378Y-60104852D01*
X106159798Y-59961751D01*
X106160201Y-59500274D01*
X105992551Y-59094528D01*
X106159798Y-58691751D01*
X106160201Y-58230274D01*
X105983974Y-57803771D01*
X105657945Y-57477173D01*
X105231751Y-57300202D01*
X104770274Y-57299799D01*
X104364528Y-57467449D01*
X103961751Y-57300202D01*
X103500274Y-57299799D01*
X103073771Y-57476026D01*
X102747173Y-57802055D01*
X102570202Y-58228249D01*
X102569799Y-58689726D01*
X100685000Y-58689726D01*
X100685000Y-28374531D01*
X101269340Y-28374531D01*
X101848156Y-29775372D01*
X102918991Y-30848077D01*
X104318819Y-31429337D01*
X105834531Y-31430660D01*
X107235372Y-30851844D01*
X108308077Y-29781009D01*
X108889337Y-28381181D01*
X108890660Y-26865469D01*
X108311844Y-25464628D01*
X107241009Y-24391923D01*
X105841181Y-23810663D01*
X104325469Y-23809340D01*
X102924628Y-24388156D01*
X101851923Y-25458991D01*
X101270663Y-26858819D01*
X101269340Y-28374531D01*
X100685000Y-28374531D01*
X100685000Y-20685000D01*
X118341452Y-20685000D01*
X118122457Y-20728561D01*
M02*
