G04 #@! TF.FileFunction,Legend,Bot*
%FSLAX46Y46*%
G04 Gerber Fmt 4.6, Leading zero omitted, Abs format (unit mm)*
G04 Created by KiCad (PCBNEW 4.0.4-stable) date Thursday, April 19, 2018 'PMt' 11:46:15 PM*
%MOMM*%
%LPD*%
G01*
G04 APERTURE LIST*
%ADD10C,0.100000*%
%ADD11C,0.010000*%
G04 APERTURE END LIST*
D10*
D11*
G36*
X192321834Y-53134183D02*
X194798334Y-53114367D01*
X192364167Y-53090552D01*
X189930000Y-53066736D01*
X189930000Y-32834000D01*
X190607334Y-32834000D01*
X190607334Y-36334544D01*
X190607711Y-37198846D01*
X190609289Y-37909582D01*
X190612740Y-38482519D01*
X190618733Y-38933422D01*
X190627940Y-39278059D01*
X190641030Y-39532195D01*
X190658674Y-39711598D01*
X190681542Y-39832033D01*
X190710306Y-39909268D01*
X190745636Y-39959068D01*
X190762167Y-39975211D01*
X190831795Y-40021268D01*
X190940008Y-40056177D01*
X191108589Y-40081419D01*
X191359321Y-40098475D01*
X191713986Y-40108825D01*
X192194370Y-40113951D01*
X192822253Y-40115333D01*
X192823378Y-40115333D01*
X193444208Y-40114319D01*
X193917733Y-40110166D01*
X194265978Y-40101209D01*
X194510965Y-40085780D01*
X194674717Y-40062214D01*
X194779258Y-40028844D01*
X194846610Y-39984005D01*
X194869878Y-39960499D01*
X194900700Y-39914620D01*
X194926520Y-39841775D01*
X194947688Y-39728295D01*
X194964552Y-39560514D01*
X194977462Y-39324766D01*
X194986769Y-39007382D01*
X194992823Y-38594696D01*
X194995972Y-38073041D01*
X194996566Y-37428750D01*
X194994956Y-36648156D01*
X194991491Y-35717591D01*
X194989585Y-35282666D01*
X194969169Y-30759666D01*
X194946517Y-35307914D01*
X194941298Y-36303080D01*
X194936032Y-37142430D01*
X194930210Y-37839477D01*
X194923319Y-38407737D01*
X194914849Y-38860726D01*
X194904288Y-39211958D01*
X194891126Y-39474950D01*
X194874851Y-39663215D01*
X194854952Y-39790270D01*
X194830918Y-39869630D01*
X194802238Y-39914810D01*
X194771424Y-39937745D01*
X194636343Y-39964801D01*
X194363221Y-39986388D01*
X193983253Y-40002501D01*
X193527635Y-40013136D01*
X193027563Y-40018288D01*
X192514233Y-40017953D01*
X192018842Y-40012125D01*
X191572584Y-40000801D01*
X191206657Y-39983976D01*
X190952255Y-39961644D01*
X190846995Y-39938326D01*
X190809042Y-39910243D01*
X190777830Y-39860200D01*
X190752704Y-39772805D01*
X190733007Y-39632666D01*
X190718083Y-39424391D01*
X190707276Y-39132590D01*
X190699930Y-38741870D01*
X190695389Y-38236840D01*
X190692997Y-37602109D01*
X190692097Y-36822283D01*
X190692000Y-36302354D01*
X190692000Y-32749333D01*
X189845334Y-32749333D01*
X189845334Y-53154000D01*
X192321834Y-53134183D01*
X192321834Y-53134183D01*
G37*
X192321834Y-53134183D02*
X194798334Y-53114367D01*
X192364167Y-53090552D01*
X189930000Y-53066736D01*
X189930000Y-32834000D01*
X190607334Y-32834000D01*
X190607334Y-36334544D01*
X190607711Y-37198846D01*
X190609289Y-37909582D01*
X190612740Y-38482519D01*
X190618733Y-38933422D01*
X190627940Y-39278059D01*
X190641030Y-39532195D01*
X190658674Y-39711598D01*
X190681542Y-39832033D01*
X190710306Y-39909268D01*
X190745636Y-39959068D01*
X190762167Y-39975211D01*
X190831795Y-40021268D01*
X190940008Y-40056177D01*
X191108589Y-40081419D01*
X191359321Y-40098475D01*
X191713986Y-40108825D01*
X192194370Y-40113951D01*
X192822253Y-40115333D01*
X192823378Y-40115333D01*
X193444208Y-40114319D01*
X193917733Y-40110166D01*
X194265978Y-40101209D01*
X194510965Y-40085780D01*
X194674717Y-40062214D01*
X194779258Y-40028844D01*
X194846610Y-39984005D01*
X194869878Y-39960499D01*
X194900700Y-39914620D01*
X194926520Y-39841775D01*
X194947688Y-39728295D01*
X194964552Y-39560514D01*
X194977462Y-39324766D01*
X194986769Y-39007382D01*
X194992823Y-38594696D01*
X194995972Y-38073041D01*
X194996566Y-37428750D01*
X194994956Y-36648156D01*
X194991491Y-35717591D01*
X194989585Y-35282666D01*
X194969169Y-30759666D01*
X194946517Y-35307914D01*
X194941298Y-36303080D01*
X194936032Y-37142430D01*
X194930210Y-37839477D01*
X194923319Y-38407737D01*
X194914849Y-38860726D01*
X194904288Y-39211958D01*
X194891126Y-39474950D01*
X194874851Y-39663215D01*
X194854952Y-39790270D01*
X194830918Y-39869630D01*
X194802238Y-39914810D01*
X194771424Y-39937745D01*
X194636343Y-39964801D01*
X194363221Y-39986388D01*
X193983253Y-40002501D01*
X193527635Y-40013136D01*
X193027563Y-40018288D01*
X192514233Y-40017953D01*
X192018842Y-40012125D01*
X191572584Y-40000801D01*
X191206657Y-39983976D01*
X190952255Y-39961644D01*
X190846995Y-39938326D01*
X190809042Y-39910243D01*
X190777830Y-39860200D01*
X190752704Y-39772805D01*
X190733007Y-39632666D01*
X190718083Y-39424391D01*
X190707276Y-39132590D01*
X190699930Y-38741870D01*
X190695389Y-38236840D01*
X190692997Y-37602109D01*
X190692097Y-36822283D01*
X190692000Y-36302354D01*
X190692000Y-32749333D01*
X189845334Y-32749333D01*
X189845334Y-53154000D01*
X192321834Y-53134183D01*
G36*
X194925334Y-43332666D02*
X194976224Y-44306333D01*
X194993112Y-43358830D01*
X194993956Y-42975734D01*
X194983372Y-42658745D01*
X194963299Y-42443817D01*
X194939679Y-42367866D01*
X194874526Y-42360579D01*
X194925334Y-43332666D01*
X194925334Y-43332666D01*
G37*
X194925334Y-43332666D02*
X194976224Y-44306333D01*
X194993112Y-43358830D01*
X194993956Y-42975734D01*
X194983372Y-42658745D01*
X194963299Y-42443817D01*
X194939679Y-42367866D01*
X194874526Y-42360579D01*
X194925334Y-43332666D01*
G36*
X194874526Y-42360579D02*
X194874443Y-42359000D01*
X194874393Y-42360564D01*
X194874526Y-42360579D01*
X194874526Y-42360579D01*
G37*
X194874526Y-42360579D02*
X194874443Y-42359000D01*
X194874393Y-42360564D01*
X194874526Y-42360579D01*
G36*
X190691603Y-46634666D02*
X190736687Y-42359000D01*
X190776667Y-50874592D01*
X191517500Y-50850129D01*
X192258334Y-50825666D01*
X192280494Y-47544833D01*
X192302655Y-44264000D01*
X193575373Y-44264000D01*
X194090905Y-44260544D01*
X194455822Y-44249135D01*
X194688719Y-44228210D01*
X194808193Y-44196206D01*
X194834347Y-44158166D01*
X194831074Y-44032375D01*
X194833381Y-43779386D01*
X194840688Y-43441226D01*
X194847523Y-43205666D01*
X194874393Y-42360564D01*
X194838895Y-42356594D01*
X194592516Y-42347786D01*
X194224266Y-42341727D01*
X193757869Y-42338701D01*
X193217049Y-42338993D01*
X192759513Y-42341702D01*
X190649667Y-42359000D01*
X190648093Y-46634666D01*
X190646519Y-50910333D01*
X190691603Y-46634666D01*
X190691603Y-46634666D01*
G37*
X190691603Y-46634666D02*
X190736687Y-42359000D01*
X190776667Y-50874592D01*
X191517500Y-50850129D01*
X192258334Y-50825666D01*
X192280494Y-47544833D01*
X192302655Y-44264000D01*
X193575373Y-44264000D01*
X194090905Y-44260544D01*
X194455822Y-44249135D01*
X194688719Y-44228210D01*
X194808193Y-44196206D01*
X194834347Y-44158166D01*
X194831074Y-44032375D01*
X194833381Y-43779386D01*
X194840688Y-43441226D01*
X194847523Y-43205666D01*
X194874393Y-42360564D01*
X194838895Y-42356594D01*
X194592516Y-42347786D01*
X194224266Y-42341727D01*
X193757869Y-42338701D01*
X193217049Y-42338993D01*
X192759513Y-42341702D01*
X190649667Y-42359000D01*
X190648093Y-46634666D01*
X190646519Y-50910333D01*
X190691603Y-46634666D01*
G36*
X188071422Y-61862296D02*
X188086938Y-62146019D01*
X188118757Y-62327822D01*
X188171758Y-62441352D01*
X188219716Y-62494326D01*
X188274809Y-62530422D01*
X188363297Y-62559707D01*
X188501704Y-62582877D01*
X188706556Y-62600625D01*
X188994375Y-62613646D01*
X189381688Y-62622634D01*
X189885017Y-62628282D01*
X190520888Y-62631286D01*
X191305825Y-62632339D01*
X191505833Y-62632378D01*
X192334795Y-62631583D01*
X193010791Y-62628685D01*
X193550183Y-62623047D01*
X193969332Y-62614029D01*
X194284601Y-62600993D01*
X194512349Y-62583299D01*
X194668940Y-62560309D01*
X194770734Y-62531384D01*
X194824784Y-62502795D01*
X195010000Y-62373064D01*
X194989929Y-57784699D01*
X194969858Y-53196333D01*
X194926429Y-57810666D01*
X194883000Y-62425000D01*
X188194334Y-62425000D01*
X188194334Y-60477666D01*
X190713167Y-60455240D01*
X193232000Y-60432813D01*
X193232000Y-55355333D01*
X190713167Y-55375170D01*
X188194334Y-55395008D01*
X190670834Y-55418782D01*
X193147334Y-55442557D01*
X193147334Y-60266000D01*
X190795506Y-60266000D01*
X190084094Y-60267233D01*
X189522754Y-60271598D01*
X189092238Y-60280094D01*
X188773298Y-60293720D01*
X188546686Y-60313474D01*
X188393154Y-60340356D01*
X188293455Y-60375363D01*
X188255506Y-60397800D01*
X188172003Y-60468462D01*
X188117625Y-60563073D01*
X188086190Y-60715968D01*
X188071518Y-60961477D01*
X188067427Y-61333934D01*
X188067334Y-61443011D01*
X188071422Y-61862296D01*
X188071422Y-61862296D01*
G37*
X188071422Y-61862296D02*
X188086938Y-62146019D01*
X188118757Y-62327822D01*
X188171758Y-62441352D01*
X188219716Y-62494326D01*
X188274809Y-62530422D01*
X188363297Y-62559707D01*
X188501704Y-62582877D01*
X188706556Y-62600625D01*
X188994375Y-62613646D01*
X189381688Y-62622634D01*
X189885017Y-62628282D01*
X190520888Y-62631286D01*
X191305825Y-62632339D01*
X191505833Y-62632378D01*
X192334795Y-62631583D01*
X193010791Y-62628685D01*
X193550183Y-62623047D01*
X193969332Y-62614029D01*
X194284601Y-62600993D01*
X194512349Y-62583299D01*
X194668940Y-62560309D01*
X194770734Y-62531384D01*
X194824784Y-62502795D01*
X195010000Y-62373064D01*
X194989929Y-57784699D01*
X194969858Y-53196333D01*
X194926429Y-57810666D01*
X194883000Y-62425000D01*
X188194334Y-62425000D01*
X188194334Y-60477666D01*
X190713167Y-60455240D01*
X193232000Y-60432813D01*
X193232000Y-55355333D01*
X190713167Y-55375170D01*
X188194334Y-55395008D01*
X190670834Y-55418782D01*
X193147334Y-55442557D01*
X193147334Y-60266000D01*
X190795506Y-60266000D01*
X190084094Y-60267233D01*
X189522754Y-60271598D01*
X189092238Y-60280094D01*
X188773298Y-60293720D01*
X188546686Y-60313474D01*
X188393154Y-60340356D01*
X188293455Y-60375363D01*
X188255506Y-60397800D01*
X188172003Y-60468462D01*
X188117625Y-60563073D01*
X188086190Y-60715968D01*
X188071518Y-60961477D01*
X188067427Y-61333934D01*
X188067334Y-61443011D01*
X188071422Y-61862296D01*
G36*
X194925334Y-71780666D02*
X194969858Y-76395000D01*
X194989929Y-71815944D01*
X194993087Y-70951761D01*
X194994836Y-70139537D01*
X194995227Y-69394842D01*
X194994309Y-68733250D01*
X194992133Y-68170331D01*
X194988749Y-67721657D01*
X194984207Y-67402800D01*
X194978556Y-67229332D01*
X194975079Y-67201611D01*
X194881043Y-67190537D01*
X194925334Y-71780666D01*
X194925334Y-71780666D01*
G37*
X194925334Y-71780666D02*
X194969858Y-76395000D01*
X194989929Y-71815944D01*
X194993087Y-70951761D01*
X194994836Y-70139537D01*
X194995227Y-69394842D01*
X194994309Y-68733250D01*
X194992133Y-68170331D01*
X194988749Y-67721657D01*
X194984207Y-67402800D01*
X194978556Y-67229332D01*
X194975079Y-67201611D01*
X194881043Y-67190537D01*
X194925334Y-71780666D01*
G36*
X194880825Y-67190511D02*
X194881043Y-67190537D01*
X194880809Y-67166333D01*
X194880703Y-67190511D01*
X194880825Y-67190511D01*
X194880825Y-67190511D01*
G37*
X194880825Y-67190511D02*
X194881043Y-67190537D01*
X194880809Y-67166333D01*
X194880703Y-67190511D01*
X194880825Y-67190511D01*
G36*
X191434563Y-85866017D02*
X192104358Y-86266080D01*
X192731208Y-86637843D01*
X193299862Y-86972454D01*
X193795069Y-87261061D01*
X194201581Y-87494812D01*
X194504147Y-87664854D01*
X194687516Y-87762337D01*
X194736563Y-87782666D01*
X194760363Y-87747251D01*
X194780522Y-87633813D01*
X194797287Y-87431560D01*
X194810907Y-87129703D01*
X194821630Y-86717452D01*
X194829702Y-86184016D01*
X194835372Y-85518606D01*
X194838889Y-84710429D01*
X194840498Y-83748697D01*
X194840667Y-83250021D01*
X194840470Y-82259056D01*
X194839578Y-81424355D01*
X194837538Y-80732848D01*
X194833899Y-80171467D01*
X194828207Y-79727140D01*
X194820012Y-79386799D01*
X194808859Y-79137375D01*
X194794298Y-78965798D01*
X194775875Y-78858998D01*
X194753139Y-78803906D01*
X194725637Y-78787452D01*
X194692917Y-78796568D01*
X194686662Y-78799796D01*
X194577714Y-78865521D01*
X194345936Y-79010525D01*
X194010864Y-79222406D01*
X193592038Y-79488764D01*
X193108994Y-79797198D01*
X192581272Y-80135307D01*
X192474982Y-80203538D01*
X191948938Y-80539819D01*
X191470666Y-80842658D01*
X191058171Y-81100886D01*
X190729463Y-81303332D01*
X190502547Y-81438828D01*
X190395433Y-81496203D01*
X190389539Y-81497093D01*
X190450917Y-81446301D01*
X190637985Y-81315807D01*
X190933656Y-81116953D01*
X191320842Y-80861080D01*
X191782458Y-80559531D01*
X192301417Y-80223646D01*
X192519651Y-80083232D01*
X193060925Y-79734128D01*
X193555481Y-79412435D01*
X193985442Y-79129996D01*
X194332930Y-78898656D01*
X194580071Y-78730257D01*
X194708986Y-78636646D01*
X194723179Y-78623276D01*
X194678063Y-78632903D01*
X194519460Y-78719201D01*
X194275608Y-78866169D01*
X194106247Y-78972898D01*
X193273740Y-79504847D01*
X192572442Y-79953211D01*
X191991138Y-80325995D01*
X191518615Y-80631207D01*
X191143657Y-80876852D01*
X190855050Y-81070938D01*
X190641578Y-81221470D01*
X190492028Y-81336456D01*
X190395184Y-81423901D01*
X190370514Y-81454168D01*
X190370514Y-81856000D01*
X190472034Y-81897285D01*
X190660684Y-82003679D01*
X190896118Y-82148982D01*
X191137989Y-82306999D01*
X191345951Y-82451532D01*
X191479658Y-82556383D01*
X191506572Y-82593650D01*
X191424162Y-82567395D01*
X191237881Y-82464427D01*
X190982878Y-82304716D01*
X190890782Y-82243732D01*
X190633797Y-82067054D01*
X190450302Y-81932551D01*
X190369185Y-81861749D01*
X190370514Y-81856000D01*
X190370514Y-81454168D01*
X190339832Y-81491813D01*
X190314756Y-81548197D01*
X190308743Y-81601060D01*
X190310578Y-81658409D01*
X190311000Y-81682427D01*
X190323296Y-81823589D01*
X190378675Y-81941648D01*
X190504878Y-82066403D01*
X190729644Y-82227651D01*
X190956047Y-82375346D01*
X191601093Y-82789826D01*
X192353047Y-82317473D01*
X193105000Y-81845121D01*
X193129401Y-82616843D01*
X193138159Y-83082474D01*
X193138680Y-83596578D01*
X193130963Y-84056820D01*
X193129401Y-84106003D01*
X193105000Y-84823441D01*
X191538667Y-83864153D01*
X189972334Y-82904864D01*
X189950663Y-76115098D01*
X189928993Y-69325333D01*
X190607334Y-69325333D01*
X190607334Y-72822066D01*
X190608680Y-73749489D01*
X190612926Y-74518605D01*
X190620383Y-75140421D01*
X190631361Y-75625942D01*
X190646171Y-75986175D01*
X190665124Y-76232127D01*
X190688531Y-76374804D01*
X190708933Y-76420399D01*
X190796619Y-76455108D01*
X190989756Y-76480525D01*
X191302071Y-76497192D01*
X191747290Y-76505650D01*
X192339139Y-76506443D01*
X192804433Y-76503148D01*
X194798334Y-76484296D01*
X190734334Y-76395000D01*
X190690162Y-69240666D01*
X189845334Y-69240666D01*
X189845334Y-82916815D01*
X191517500Y-83943204D01*
X193189667Y-84969593D01*
X193213845Y-84179300D01*
X193222302Y-83713237D01*
X193223335Y-83175711D01*
X193216944Y-82664431D01*
X193213845Y-82540012D01*
X193189667Y-81691016D01*
X192396358Y-82200810D01*
X192076100Y-82401803D01*
X191811236Y-82558959D01*
X191631704Y-82655110D01*
X191568178Y-82675733D01*
X191622025Y-82620539D01*
X191794230Y-82495061D01*
X192058686Y-82317356D01*
X192389286Y-82105482D01*
X192424987Y-82083105D01*
X193316667Y-81525349D01*
X193316667Y-85169530D01*
X193083834Y-85008209D01*
X192882875Y-84877965D01*
X192724846Y-84790120D01*
X192724000Y-84789738D01*
X192615182Y-84728525D01*
X192387528Y-84591980D01*
X192065465Y-84395047D01*
X191673418Y-84152671D01*
X191235813Y-83879793D01*
X191200000Y-83857364D01*
X189803000Y-82982139D01*
X189760667Y-76069057D01*
X189718334Y-69155976D01*
X190247500Y-69155988D01*
X190776667Y-69156000D01*
X190776667Y-76352666D01*
X194840667Y-76352666D01*
X194860738Y-71759500D01*
X194880703Y-67190511D01*
X194656774Y-67189908D01*
X194342118Y-67199465D01*
X194149579Y-67208666D01*
X193359000Y-67251000D01*
X193274334Y-74447666D01*
X192300358Y-74447666D01*
X192289929Y-70870500D01*
X192287463Y-70105834D01*
X192284707Y-69392137D01*
X192281764Y-68747542D01*
X192278738Y-68190182D01*
X192275731Y-67738191D01*
X192272848Y-67409702D01*
X192270191Y-67222848D01*
X192268917Y-67187500D01*
X192249081Y-67171136D01*
X190247500Y-67189858D01*
X188236667Y-67208666D01*
X188236667Y-83949367D01*
X191434563Y-85866017D01*
X191434563Y-85866017D01*
G37*
X191434563Y-85866017D02*
X192104358Y-86266080D01*
X192731208Y-86637843D01*
X193299862Y-86972454D01*
X193795069Y-87261061D01*
X194201581Y-87494812D01*
X194504147Y-87664854D01*
X194687516Y-87762337D01*
X194736563Y-87782666D01*
X194760363Y-87747251D01*
X194780522Y-87633813D01*
X194797287Y-87431560D01*
X194810907Y-87129703D01*
X194821630Y-86717452D01*
X194829702Y-86184016D01*
X194835372Y-85518606D01*
X194838889Y-84710429D01*
X194840498Y-83748697D01*
X194840667Y-83250021D01*
X194840470Y-82259056D01*
X194839578Y-81424355D01*
X194837538Y-80732848D01*
X194833899Y-80171467D01*
X194828207Y-79727140D01*
X194820012Y-79386799D01*
X194808859Y-79137375D01*
X194794298Y-78965798D01*
X194775875Y-78858998D01*
X194753139Y-78803906D01*
X194725637Y-78787452D01*
X194692917Y-78796568D01*
X194686662Y-78799796D01*
X194577714Y-78865521D01*
X194345936Y-79010525D01*
X194010864Y-79222406D01*
X193592038Y-79488764D01*
X193108994Y-79797198D01*
X192581272Y-80135307D01*
X192474982Y-80203538D01*
X191948938Y-80539819D01*
X191470666Y-80842658D01*
X191058171Y-81100886D01*
X190729463Y-81303332D01*
X190502547Y-81438828D01*
X190395433Y-81496203D01*
X190389539Y-81497093D01*
X190450917Y-81446301D01*
X190637985Y-81315807D01*
X190933656Y-81116953D01*
X191320842Y-80861080D01*
X191782458Y-80559531D01*
X192301417Y-80223646D01*
X192519651Y-80083232D01*
X193060925Y-79734128D01*
X193555481Y-79412435D01*
X193985442Y-79129996D01*
X194332930Y-78898656D01*
X194580071Y-78730257D01*
X194708986Y-78636646D01*
X194723179Y-78623276D01*
X194678063Y-78632903D01*
X194519460Y-78719201D01*
X194275608Y-78866169D01*
X194106247Y-78972898D01*
X193273740Y-79504847D01*
X192572442Y-79953211D01*
X191991138Y-80325995D01*
X191518615Y-80631207D01*
X191143657Y-80876852D01*
X190855050Y-81070938D01*
X190641578Y-81221470D01*
X190492028Y-81336456D01*
X190395184Y-81423901D01*
X190370514Y-81454168D01*
X190370514Y-81856000D01*
X190472034Y-81897285D01*
X190660684Y-82003679D01*
X190896118Y-82148982D01*
X191137989Y-82306999D01*
X191345951Y-82451532D01*
X191479658Y-82556383D01*
X191506572Y-82593650D01*
X191424162Y-82567395D01*
X191237881Y-82464427D01*
X190982878Y-82304716D01*
X190890782Y-82243732D01*
X190633797Y-82067054D01*
X190450302Y-81932551D01*
X190369185Y-81861749D01*
X190370514Y-81856000D01*
X190370514Y-81454168D01*
X190339832Y-81491813D01*
X190314756Y-81548197D01*
X190308743Y-81601060D01*
X190310578Y-81658409D01*
X190311000Y-81682427D01*
X190323296Y-81823589D01*
X190378675Y-81941648D01*
X190504878Y-82066403D01*
X190729644Y-82227651D01*
X190956047Y-82375346D01*
X191601093Y-82789826D01*
X192353047Y-82317473D01*
X193105000Y-81845121D01*
X193129401Y-82616843D01*
X193138159Y-83082474D01*
X193138680Y-83596578D01*
X193130963Y-84056820D01*
X193129401Y-84106003D01*
X193105000Y-84823441D01*
X191538667Y-83864153D01*
X189972334Y-82904864D01*
X189950663Y-76115098D01*
X189928993Y-69325333D01*
X190607334Y-69325333D01*
X190607334Y-72822066D01*
X190608680Y-73749489D01*
X190612926Y-74518605D01*
X190620383Y-75140421D01*
X190631361Y-75625942D01*
X190646171Y-75986175D01*
X190665124Y-76232127D01*
X190688531Y-76374804D01*
X190708933Y-76420399D01*
X190796619Y-76455108D01*
X190989756Y-76480525D01*
X191302071Y-76497192D01*
X191747290Y-76505650D01*
X192339139Y-76506443D01*
X192804433Y-76503148D01*
X194798334Y-76484296D01*
X190734334Y-76395000D01*
X190690162Y-69240666D01*
X189845334Y-69240666D01*
X189845334Y-82916815D01*
X191517500Y-83943204D01*
X193189667Y-84969593D01*
X193213845Y-84179300D01*
X193222302Y-83713237D01*
X193223335Y-83175711D01*
X193216944Y-82664431D01*
X193213845Y-82540012D01*
X193189667Y-81691016D01*
X192396358Y-82200810D01*
X192076100Y-82401803D01*
X191811236Y-82558959D01*
X191631704Y-82655110D01*
X191568178Y-82675733D01*
X191622025Y-82620539D01*
X191794230Y-82495061D01*
X192058686Y-82317356D01*
X192389286Y-82105482D01*
X192424987Y-82083105D01*
X193316667Y-81525349D01*
X193316667Y-85169530D01*
X193083834Y-85008209D01*
X192882875Y-84877965D01*
X192724846Y-84790120D01*
X192724000Y-84789738D01*
X192615182Y-84728525D01*
X192387528Y-84591980D01*
X192065465Y-84395047D01*
X191673418Y-84152671D01*
X191235813Y-83879793D01*
X191200000Y-83857364D01*
X189803000Y-82982139D01*
X189760667Y-76069057D01*
X189718334Y-69155976D01*
X190247500Y-69155988D01*
X190776667Y-69156000D01*
X190776667Y-76352666D01*
X194840667Y-76352666D01*
X194860738Y-71759500D01*
X194880703Y-67190511D01*
X194656774Y-67189908D01*
X194342118Y-67199465D01*
X194149579Y-67208666D01*
X193359000Y-67251000D01*
X193274334Y-74447666D01*
X192300358Y-74447666D01*
X192289929Y-70870500D01*
X192287463Y-70105834D01*
X192284707Y-69392137D01*
X192281764Y-68747542D01*
X192278738Y-68190182D01*
X192275731Y-67738191D01*
X192272848Y-67409702D01*
X192270191Y-67222848D01*
X192268917Y-67187500D01*
X192249081Y-67171136D01*
X190247500Y-67189858D01*
X188236667Y-67208666D01*
X188236667Y-83949367D01*
X191434563Y-85866017D01*
G36*
X192249081Y-67171136D02*
X192258334Y-67171049D01*
X192248695Y-67170817D01*
X192249081Y-67171136D01*
X192249081Y-67171136D01*
G37*
X192249081Y-67171136D02*
X192258334Y-67171049D01*
X192248695Y-67170817D01*
X192249081Y-67171136D01*
G36*
X190268667Y-67123193D02*
X192248695Y-67170817D01*
X192226007Y-67152100D01*
X192094724Y-67124751D01*
X191859320Y-67104594D01*
X191504051Y-67090773D01*
X191013171Y-67082429D01*
X190370934Y-67078703D01*
X190268667Y-67078502D01*
X188279000Y-67075338D01*
X190268667Y-67123193D01*
X190268667Y-67123193D01*
G37*
X190268667Y-67123193D02*
X192248695Y-67170817D01*
X192226007Y-67152100D01*
X192094724Y-67124751D01*
X191859320Y-67104594D01*
X191504051Y-67090773D01*
X191013171Y-67082429D01*
X190370934Y-67078703D01*
X190268667Y-67078502D01*
X188279000Y-67075338D01*
X190268667Y-67123193D01*
G36*
X194939026Y-84408616D02*
X194943986Y-85235178D01*
X194946547Y-85511857D01*
X194950837Y-85852097D01*
X194954881Y-86029500D01*
X194958611Y-86050560D01*
X194961958Y-85921773D01*
X194964852Y-85649635D01*
X194967225Y-85240641D01*
X194969008Y-84701285D01*
X194970132Y-84038065D01*
X194970528Y-83257474D01*
X194970528Y-83253000D01*
X194970144Y-82470060D01*
X194969028Y-81803087D01*
X194967250Y-81258757D01*
X194964879Y-80843744D01*
X194961984Y-80564723D01*
X194958635Y-80428371D01*
X194954899Y-80441361D01*
X194950847Y-80610370D01*
X194946571Y-80939857D01*
X194940578Y-81707715D01*
X194937322Y-82583030D01*
X194936804Y-83503949D01*
X194939026Y-84408616D01*
X194939026Y-84408616D01*
G37*
X194939026Y-84408616D02*
X194943986Y-85235178D01*
X194946547Y-85511857D01*
X194950837Y-85852097D01*
X194954881Y-86029500D01*
X194958611Y-86050560D01*
X194961958Y-85921773D01*
X194964852Y-85649635D01*
X194967225Y-85240641D01*
X194969008Y-84701285D01*
X194970132Y-84038065D01*
X194970528Y-83257474D01*
X194970528Y-83253000D01*
X194970144Y-82470060D01*
X194969028Y-81803087D01*
X194967250Y-81258757D01*
X194964879Y-80843744D01*
X194961984Y-80564723D01*
X194958635Y-80428371D01*
X194954899Y-80441361D01*
X194950847Y-80610370D01*
X194946571Y-80939857D01*
X194940578Y-81707715D01*
X194937322Y-82583030D01*
X194936804Y-83503949D01*
X194939026Y-84408616D01*
G36*
X194939737Y-95214672D02*
X194947432Y-95381500D01*
X194958888Y-95492617D01*
X194968386Y-95448673D01*
X194975031Y-95263938D01*
X194977926Y-94952681D01*
X194977982Y-94894666D01*
X194975740Y-94565269D01*
X194969613Y-94360205D01*
X194960494Y-94293744D01*
X194949281Y-94380156D01*
X194947432Y-94407833D01*
X194935276Y-94795411D01*
X194939737Y-95214672D01*
X194939737Y-95214672D01*
G37*
X194939737Y-95214672D02*
X194947432Y-95381500D01*
X194958888Y-95492617D01*
X194968386Y-95448673D01*
X194975031Y-95263938D01*
X194977926Y-94952681D01*
X194977982Y-94894666D01*
X194975740Y-94565269D01*
X194969613Y-94360205D01*
X194960494Y-94293744D01*
X194949281Y-94380156D01*
X194947432Y-94407833D01*
X194935276Y-94795411D01*
X194939737Y-95214672D01*
G36*
X193316667Y-55270666D02*
X193316667Y-60520000D01*
X188236667Y-60520000D01*
X188236667Y-62382666D01*
X194840667Y-62382666D01*
X194840667Y-53238666D01*
X192279500Y-53238670D01*
X189718334Y-53238674D01*
X189762008Y-32664666D01*
X190776667Y-32664666D01*
X190776667Y-39861333D01*
X194840667Y-39861333D01*
X194840667Y-35345777D01*
X194839638Y-34486923D01*
X194836681Y-33679462D01*
X194831992Y-32939175D01*
X194825765Y-32281843D01*
X194818194Y-31723247D01*
X194809475Y-31279168D01*
X194799802Y-30965387D01*
X194789370Y-30797685D01*
X194784222Y-30773777D01*
X194676527Y-30745089D01*
X194449414Y-30724768D01*
X194162345Y-30717333D01*
X193961428Y-30714493D01*
X193795004Y-30715647D01*
X193659838Y-30735306D01*
X193552699Y-30787982D01*
X193470352Y-30888185D01*
X193409564Y-31050428D01*
X193367103Y-31289222D01*
X193339734Y-31619078D01*
X193324224Y-32054507D01*
X193317341Y-32610021D01*
X193315850Y-33300131D01*
X193316519Y-34139349D01*
X193316667Y-34512833D01*
X193316667Y-37998666D01*
X192302485Y-37998666D01*
X192280409Y-34379166D01*
X192258334Y-30759666D01*
X190414366Y-30736841D01*
X189726555Y-30732748D01*
X189170097Y-30738813D01*
X188755193Y-30754700D01*
X188492040Y-30780070D01*
X188403532Y-30803320D01*
X188380582Y-30818005D01*
X188359839Y-30841746D01*
X188341191Y-30882748D01*
X188324526Y-30949221D01*
X188309734Y-31049369D01*
X188296703Y-31191401D01*
X188285320Y-31383523D01*
X188275476Y-31633943D01*
X188267057Y-31950867D01*
X188259953Y-32342502D01*
X188254052Y-32817056D01*
X188249242Y-33382735D01*
X188245412Y-34047746D01*
X188242451Y-34820297D01*
X188240247Y-35708594D01*
X188238688Y-36720845D01*
X188237662Y-37865256D01*
X188237059Y-39150034D01*
X188236767Y-40583387D01*
X188236674Y-42173521D01*
X188236667Y-43081645D01*
X188236667Y-55270666D01*
X193316667Y-55270666D01*
X193316667Y-55270666D01*
G37*
X193316667Y-55270666D02*
X193316667Y-60520000D01*
X188236667Y-60520000D01*
X188236667Y-62382666D01*
X194840667Y-62382666D01*
X194840667Y-53238666D01*
X192279500Y-53238670D01*
X189718334Y-53238674D01*
X189762008Y-32664666D01*
X190776667Y-32664666D01*
X190776667Y-39861333D01*
X194840667Y-39861333D01*
X194840667Y-35345777D01*
X194839638Y-34486923D01*
X194836681Y-33679462D01*
X194831992Y-32939175D01*
X194825765Y-32281843D01*
X194818194Y-31723247D01*
X194809475Y-31279168D01*
X194799802Y-30965387D01*
X194789370Y-30797685D01*
X194784222Y-30773777D01*
X194676527Y-30745089D01*
X194449414Y-30724768D01*
X194162345Y-30717333D01*
X193961428Y-30714493D01*
X193795004Y-30715647D01*
X193659838Y-30735306D01*
X193552699Y-30787982D01*
X193470352Y-30888185D01*
X193409564Y-31050428D01*
X193367103Y-31289222D01*
X193339734Y-31619078D01*
X193324224Y-32054507D01*
X193317341Y-32610021D01*
X193315850Y-33300131D01*
X193316519Y-34139349D01*
X193316667Y-34512833D01*
X193316667Y-37998666D01*
X192302485Y-37998666D01*
X192280409Y-34379166D01*
X192258334Y-30759666D01*
X190414366Y-30736841D01*
X189726555Y-30732748D01*
X189170097Y-30738813D01*
X188755193Y-30754700D01*
X188492040Y-30780070D01*
X188403532Y-30803320D01*
X188380582Y-30818005D01*
X188359839Y-30841746D01*
X188341191Y-30882748D01*
X188324526Y-30949221D01*
X188309734Y-31049369D01*
X188296703Y-31191401D01*
X188285320Y-31383523D01*
X188275476Y-31633943D01*
X188267057Y-31950867D01*
X188259953Y-32342502D01*
X188254052Y-32817056D01*
X188249242Y-33382735D01*
X188245412Y-34047746D01*
X188242451Y-34820297D01*
X188240247Y-35708594D01*
X188238688Y-36720845D01*
X188237662Y-37865256D01*
X188237059Y-39150034D01*
X188236767Y-40583387D01*
X188236674Y-42173521D01*
X188236667Y-43081645D01*
X188236667Y-55270666D01*
X193316667Y-55270666D01*
G36*
X188130582Y-92478823D02*
X188135188Y-91197501D01*
X188140271Y-90075927D01*
X188146012Y-89104514D01*
X188152597Y-88273676D01*
X188160207Y-87573829D01*
X188169027Y-86995386D01*
X188179239Y-86528762D01*
X188191026Y-86164371D01*
X188204572Y-85892626D01*
X188220061Y-85703943D01*
X188237675Y-85588735D01*
X188257597Y-85537418D01*
X188263347Y-85533290D01*
X188368566Y-85554078D01*
X188567419Y-85636692D01*
X188819874Y-85759640D01*
X189085900Y-85901430D01*
X189325464Y-86040568D01*
X189498534Y-86155562D01*
X189565080Y-86224921D01*
X189562673Y-86230882D01*
X189479699Y-86206915D01*
X189287970Y-86114369D01*
X189024178Y-85971375D01*
X188938365Y-85922440D01*
X188656293Y-85763492D01*
X188432161Y-85644041D01*
X188304655Y-85584494D01*
X188291695Y-85581333D01*
X188283231Y-85663913D01*
X188275164Y-85903309D01*
X188267594Y-86287002D01*
X188260621Y-86802476D01*
X188254342Y-87437212D01*
X188248857Y-88178692D01*
X188244266Y-89014400D01*
X188240668Y-89931817D01*
X188238162Y-90918426D01*
X188236847Y-91961710D01*
X188236667Y-92524000D01*
X188236667Y-99466666D01*
X188977500Y-99482666D01*
X189718334Y-99498665D01*
X188956334Y-99551333D01*
X188194334Y-99604000D01*
X188922045Y-99620000D01*
X189244942Y-99626430D01*
X189490351Y-99616212D01*
X189668891Y-99569168D01*
X189791177Y-99465122D01*
X189867828Y-99283897D01*
X189909460Y-99005316D01*
X189926689Y-98609202D01*
X189930135Y-98075378D01*
X189930000Y-97704465D01*
X189930000Y-96082596D01*
X192364167Y-96058781D01*
X194798334Y-96034965D01*
X192300667Y-96015058D01*
X189803000Y-95995152D01*
X189827723Y-97659619D01*
X189832703Y-98310544D01*
X189826433Y-98818405D01*
X189809186Y-99175737D01*
X189781231Y-99375074D01*
X189764223Y-99412310D01*
X189731878Y-99379062D01*
X189707215Y-99202475D01*
X189689902Y-98876173D01*
X189679611Y-98393777D01*
X189676011Y-97748910D01*
X189676000Y-97706841D01*
X189676000Y-95913149D01*
X194798334Y-95868333D01*
X194822273Y-94915833D01*
X194846213Y-93963333D01*
X189676000Y-93963333D01*
X189665417Y-90153333D01*
X189663002Y-89364034D01*
X189660313Y-88625622D01*
X189657446Y-87955588D01*
X189654495Y-87371424D01*
X189651555Y-86890622D01*
X189648720Y-86530674D01*
X189646086Y-86309071D01*
X189644250Y-86243684D01*
X189571377Y-86157327D01*
X189386052Y-86012718D01*
X189122740Y-85835807D01*
X189008074Y-85764702D01*
X188677459Y-85574001D01*
X188454756Y-85472493D01*
X188311369Y-85449173D01*
X188246074Y-85471405D01*
X188221402Y-85498536D01*
X188199864Y-85553922D01*
X188181247Y-85648337D01*
X188165342Y-85792554D01*
X188151936Y-85997348D01*
X188140819Y-86273491D01*
X188131779Y-86631757D01*
X188124606Y-87082920D01*
X188119088Y-87637753D01*
X188115014Y-88307029D01*
X188112173Y-89101523D01*
X188110353Y-90032007D01*
X188109345Y-91109255D01*
X188108935Y-92344041D01*
X188108920Y-92469725D01*
X188108173Y-99382008D01*
X188130582Y-92478823D01*
X188130582Y-92478823D01*
G37*
X188130582Y-92478823D02*
X188135188Y-91197501D01*
X188140271Y-90075927D01*
X188146012Y-89104514D01*
X188152597Y-88273676D01*
X188160207Y-87573829D01*
X188169027Y-86995386D01*
X188179239Y-86528762D01*
X188191026Y-86164371D01*
X188204572Y-85892626D01*
X188220061Y-85703943D01*
X188237675Y-85588735D01*
X188257597Y-85537418D01*
X188263347Y-85533290D01*
X188368566Y-85554078D01*
X188567419Y-85636692D01*
X188819874Y-85759640D01*
X189085900Y-85901430D01*
X189325464Y-86040568D01*
X189498534Y-86155562D01*
X189565080Y-86224921D01*
X189562673Y-86230882D01*
X189479699Y-86206915D01*
X189287970Y-86114369D01*
X189024178Y-85971375D01*
X188938365Y-85922440D01*
X188656293Y-85763492D01*
X188432161Y-85644041D01*
X188304655Y-85584494D01*
X188291695Y-85581333D01*
X188283231Y-85663913D01*
X188275164Y-85903309D01*
X188267594Y-86287002D01*
X188260621Y-86802476D01*
X188254342Y-87437212D01*
X188248857Y-88178692D01*
X188244266Y-89014400D01*
X188240668Y-89931817D01*
X188238162Y-90918426D01*
X188236847Y-91961710D01*
X188236667Y-92524000D01*
X188236667Y-99466666D01*
X188977500Y-99482666D01*
X189718334Y-99498665D01*
X188956334Y-99551333D01*
X188194334Y-99604000D01*
X188922045Y-99620000D01*
X189244942Y-99626430D01*
X189490351Y-99616212D01*
X189668891Y-99569168D01*
X189791177Y-99465122D01*
X189867828Y-99283897D01*
X189909460Y-99005316D01*
X189926689Y-98609202D01*
X189930135Y-98075378D01*
X189930000Y-97704465D01*
X189930000Y-96082596D01*
X192364167Y-96058781D01*
X194798334Y-96034965D01*
X192300667Y-96015058D01*
X189803000Y-95995152D01*
X189827723Y-97659619D01*
X189832703Y-98310544D01*
X189826433Y-98818405D01*
X189809186Y-99175737D01*
X189781231Y-99375074D01*
X189764223Y-99412310D01*
X189731878Y-99379062D01*
X189707215Y-99202475D01*
X189689902Y-98876173D01*
X189679611Y-98393777D01*
X189676011Y-97748910D01*
X189676000Y-97706841D01*
X189676000Y-95913149D01*
X194798334Y-95868333D01*
X194822273Y-94915833D01*
X194846213Y-93963333D01*
X189676000Y-93963333D01*
X189665417Y-90153333D01*
X189663002Y-89364034D01*
X189660313Y-88625622D01*
X189657446Y-87955588D01*
X189654495Y-87371424D01*
X189651555Y-86890622D01*
X189648720Y-86530674D01*
X189646086Y-86309071D01*
X189644250Y-86243684D01*
X189571377Y-86157327D01*
X189386052Y-86012718D01*
X189122740Y-85835807D01*
X189008074Y-85764702D01*
X188677459Y-85574001D01*
X188454756Y-85472493D01*
X188311369Y-85449173D01*
X188246074Y-85471405D01*
X188221402Y-85498536D01*
X188199864Y-85553922D01*
X188181247Y-85648337D01*
X188165342Y-85792554D01*
X188151936Y-85997348D01*
X188140819Y-86273491D01*
X188131779Y-86631757D01*
X188124606Y-87082920D01*
X188119088Y-87637753D01*
X188115014Y-88307029D01*
X188112173Y-89101523D01*
X188110353Y-90032007D01*
X188109345Y-91109255D01*
X188108935Y-92344041D01*
X188108920Y-92469725D01*
X188108173Y-99382008D01*
X188130582Y-92478823D01*
G36*
X188110245Y-55313000D02*
X188131123Y-43112955D01*
X188134062Y-41433823D01*
X188136924Y-39915804D01*
X188139828Y-38550679D01*
X188142889Y-37330226D01*
X188146225Y-36246227D01*
X188149953Y-35290461D01*
X188154190Y-34454707D01*
X188159053Y-33730747D01*
X188164659Y-33110360D01*
X188171125Y-32585327D01*
X188178568Y-32147426D01*
X188187106Y-31788438D01*
X188196855Y-31500143D01*
X188207932Y-31274321D01*
X188220454Y-31102752D01*
X188234539Y-30977216D01*
X188250303Y-30889492D01*
X188267863Y-30831362D01*
X188287338Y-30794605D01*
X188306834Y-30772788D01*
X188377336Y-30726207D01*
X188486878Y-30691040D01*
X188657541Y-30665752D01*
X188911407Y-30648808D01*
X189270559Y-30638671D01*
X189757078Y-30633806D01*
X190321900Y-30632666D01*
X191000817Y-30635894D01*
X191522784Y-30646002D01*
X191900068Y-30663624D01*
X192144938Y-30689397D01*
X192269662Y-30723955D01*
X192283734Y-30734266D01*
X192310562Y-30807353D01*
X192332735Y-30975418D01*
X192350560Y-31249443D01*
X192364346Y-31640414D01*
X192374402Y-32159313D01*
X192381034Y-32817123D01*
X192384553Y-33624829D01*
X192385334Y-34353766D01*
X192385334Y-37871666D01*
X193232000Y-37871666D01*
X193232000Y-34389533D01*
X193232531Y-33523201D01*
X193234523Y-32810697D01*
X193238577Y-32236520D01*
X193245297Y-31785168D01*
X193255281Y-31441138D01*
X193269133Y-31188929D01*
X193287452Y-31013037D01*
X193310841Y-30897961D01*
X193339901Y-30828199D01*
X193371573Y-30791200D01*
X193520867Y-30728505D01*
X193785552Y-30670661D01*
X194111812Y-30629053D01*
X194154740Y-30625522D01*
X194798334Y-30576045D01*
X194195918Y-30562022D01*
X193849566Y-30563688D01*
X193618709Y-30595187D01*
X193450636Y-30666830D01*
X193370418Y-30723478D01*
X193147334Y-30898956D01*
X193147334Y-37744666D01*
X192470000Y-37744666D01*
X192470000Y-34286455D01*
X192469616Y-33427823D01*
X192468007Y-32722653D01*
X192464492Y-32155077D01*
X192458387Y-31709223D01*
X192449009Y-31369222D01*
X192435675Y-31119204D01*
X192417703Y-30943299D01*
X192394410Y-30825638D01*
X192365113Y-30750350D01*
X192329129Y-30701565D01*
X192315167Y-30688122D01*
X192244706Y-30641566D01*
X192135229Y-30606411D01*
X191964666Y-30581125D01*
X191710950Y-30564175D01*
X191352015Y-30554028D01*
X190865791Y-30549150D01*
X190297925Y-30548000D01*
X189690464Y-30548486D01*
X189229387Y-30551412D01*
X188891747Y-30558978D01*
X188654597Y-30573385D01*
X188494987Y-30596833D01*
X188389970Y-30631523D01*
X188316597Y-30679654D01*
X188251922Y-30743428D01*
X188251137Y-30744263D01*
X188066757Y-30940526D01*
X188110245Y-55313000D01*
X188110245Y-55313000D01*
G37*
X188110245Y-55313000D02*
X188131123Y-43112955D01*
X188134062Y-41433823D01*
X188136924Y-39915804D01*
X188139828Y-38550679D01*
X188142889Y-37330226D01*
X188146225Y-36246227D01*
X188149953Y-35290461D01*
X188154190Y-34454707D01*
X188159053Y-33730747D01*
X188164659Y-33110360D01*
X188171125Y-32585327D01*
X188178568Y-32147426D01*
X188187106Y-31788438D01*
X188196855Y-31500143D01*
X188207932Y-31274321D01*
X188220454Y-31102752D01*
X188234539Y-30977216D01*
X188250303Y-30889492D01*
X188267863Y-30831362D01*
X188287338Y-30794605D01*
X188306834Y-30772788D01*
X188377336Y-30726207D01*
X188486878Y-30691040D01*
X188657541Y-30665752D01*
X188911407Y-30648808D01*
X189270559Y-30638671D01*
X189757078Y-30633806D01*
X190321900Y-30632666D01*
X191000817Y-30635894D01*
X191522784Y-30646002D01*
X191900068Y-30663624D01*
X192144938Y-30689397D01*
X192269662Y-30723955D01*
X192283734Y-30734266D01*
X192310562Y-30807353D01*
X192332735Y-30975418D01*
X192350560Y-31249443D01*
X192364346Y-31640414D01*
X192374402Y-32159313D01*
X192381034Y-32817123D01*
X192384553Y-33624829D01*
X192385334Y-34353766D01*
X192385334Y-37871666D01*
X193232000Y-37871666D01*
X193232000Y-34389533D01*
X193232531Y-33523201D01*
X193234523Y-32810697D01*
X193238577Y-32236520D01*
X193245297Y-31785168D01*
X193255281Y-31441138D01*
X193269133Y-31188929D01*
X193287452Y-31013037D01*
X193310841Y-30897961D01*
X193339901Y-30828199D01*
X193371573Y-30791200D01*
X193520867Y-30728505D01*
X193785552Y-30670661D01*
X194111812Y-30629053D01*
X194154740Y-30625522D01*
X194798334Y-30576045D01*
X194195918Y-30562022D01*
X193849566Y-30563688D01*
X193618709Y-30595187D01*
X193450636Y-30666830D01*
X193370418Y-30723478D01*
X193147334Y-30898956D01*
X193147334Y-37744666D01*
X192470000Y-37744666D01*
X192470000Y-34286455D01*
X192469616Y-33427823D01*
X192468007Y-32722653D01*
X192464492Y-32155077D01*
X192458387Y-31709223D01*
X192449009Y-31369222D01*
X192435675Y-31119204D01*
X192417703Y-30943299D01*
X192394410Y-30825638D01*
X192365113Y-30750350D01*
X192329129Y-30701565D01*
X192315167Y-30688122D01*
X192244706Y-30641566D01*
X192135229Y-30606411D01*
X191964666Y-30581125D01*
X191710950Y-30564175D01*
X191352015Y-30554028D01*
X190865791Y-30549150D01*
X190297925Y-30548000D01*
X189690464Y-30548486D01*
X189229387Y-30551412D01*
X188891747Y-30558978D01*
X188654597Y-30573385D01*
X188494987Y-30596833D01*
X188389970Y-30631523D01*
X188316597Y-30679654D01*
X188251922Y-30743428D01*
X188251137Y-30744263D01*
X188066757Y-30940526D01*
X188110245Y-55313000D01*
G36*
X191627721Y-42203813D02*
X191813834Y-42210559D01*
X192349494Y-42219567D01*
X192958047Y-42221409D01*
X193543204Y-42216085D01*
X193803500Y-42210559D01*
X193996971Y-42203380D01*
X194031092Y-42196927D01*
X193915844Y-42191468D01*
X193661211Y-42187273D01*
X193277174Y-42184610D01*
X192808667Y-42183745D01*
X192312416Y-42184727D01*
X191936214Y-42187494D01*
X191690043Y-42191777D01*
X191583884Y-42197306D01*
X191627721Y-42203813D01*
X191627721Y-42203813D01*
G37*
X191627721Y-42203813D02*
X191813834Y-42210559D01*
X192349494Y-42219567D01*
X192958047Y-42221409D01*
X193543204Y-42216085D01*
X193803500Y-42210559D01*
X193996971Y-42203380D01*
X194031092Y-42196927D01*
X193915844Y-42191468D01*
X193661211Y-42187273D01*
X193277174Y-42184610D01*
X192808667Y-42183745D01*
X192312416Y-42184727D01*
X191936214Y-42187494D01*
X191690043Y-42191777D01*
X191583884Y-42197306D01*
X191627721Y-42203813D01*
G36*
X192405451Y-47587166D02*
X192425569Y-50825666D01*
X192448738Y-47650666D01*
X192471906Y-44475666D01*
X193570696Y-44490242D01*
X193985083Y-44489998D01*
X194335680Y-44478948D01*
X194589175Y-44458937D01*
X194712255Y-44431809D01*
X194717740Y-44426742D01*
X194657069Y-44396303D01*
X194447991Y-44372225D01*
X194111359Y-44355933D01*
X193668027Y-44348852D01*
X193575664Y-44348666D01*
X192385334Y-44348666D01*
X192405451Y-47587166D01*
X192405451Y-47587166D01*
G37*
X192405451Y-47587166D02*
X192425569Y-50825666D01*
X192448738Y-47650666D01*
X192471906Y-44475666D01*
X193570696Y-44490242D01*
X193985083Y-44489998D01*
X194335680Y-44478948D01*
X194589175Y-44458937D01*
X194712255Y-44431809D01*
X194717740Y-44426742D01*
X194657069Y-44396303D01*
X194447991Y-44372225D01*
X194111359Y-44355933D01*
X193668027Y-44348852D01*
X193575664Y-44348666D01*
X192385334Y-44348666D01*
X192405451Y-47587166D01*
G36*
X193718834Y-67101326D02*
X194056007Y-67114650D01*
X194402893Y-67104244D01*
X194438500Y-67101326D01*
X194522876Y-67087362D01*
X194454522Y-67076418D01*
X194250036Y-67069988D01*
X194078667Y-67068917D01*
X193803918Y-67072099D01*
X193655829Y-67080649D01*
X193650996Y-67093073D01*
X193718834Y-67101326D01*
X193718834Y-67101326D01*
G37*
X193718834Y-67101326D02*
X194056007Y-67114650D01*
X194402893Y-67104244D01*
X194438500Y-67101326D01*
X194522876Y-67087362D01*
X194454522Y-67076418D01*
X194250036Y-67069988D01*
X194078667Y-67068917D01*
X193803918Y-67072099D01*
X193655829Y-67080649D01*
X193650996Y-67093073D01*
X193718834Y-67101326D01*
G36*
X188080730Y-80963582D02*
X188082775Y-81646230D01*
X188086327Y-82219110D01*
X188091532Y-82692152D01*
X188098541Y-83075281D01*
X188107501Y-83378427D01*
X188118562Y-83611515D01*
X188131872Y-83784475D01*
X188147579Y-83907233D01*
X188165833Y-83989717D01*
X188186782Y-84041855D01*
X188210574Y-84073574D01*
X188215500Y-84078175D01*
X188310126Y-84142066D01*
X188533249Y-84282867D01*
X188868133Y-84490418D01*
X189298040Y-84754563D01*
X189806233Y-85065144D01*
X190375975Y-85412003D01*
X190990529Y-85784982D01*
X191633157Y-86173925D01*
X192287123Y-86568673D01*
X192935689Y-86959068D01*
X193562117Y-87334954D01*
X194149672Y-87686171D01*
X194681615Y-88002563D01*
X194692500Y-88009017D01*
X194755010Y-88011358D01*
X194756000Y-88004537D01*
X194689586Y-87942075D01*
X194516756Y-87821742D01*
X194311500Y-87692153D01*
X194139281Y-87587980D01*
X193840845Y-87408063D01*
X193435160Y-87163811D01*
X192941192Y-86866633D01*
X192377908Y-86527941D01*
X191764272Y-86159143D01*
X191119253Y-85771651D01*
X191030667Y-85718446D01*
X188194334Y-84015000D01*
X188151384Y-75590666D01*
X188108434Y-67166333D01*
X188087884Y-75556377D01*
X188084631Y-76936772D01*
X188082140Y-78157763D01*
X188080561Y-79229276D01*
X188080041Y-80161240D01*
X188080730Y-80963582D01*
X188080730Y-80963582D01*
G37*
X188080730Y-80963582D02*
X188082775Y-81646230D01*
X188086327Y-82219110D01*
X188091532Y-82692152D01*
X188098541Y-83075281D01*
X188107501Y-83378427D01*
X188118562Y-83611515D01*
X188131872Y-83784475D01*
X188147579Y-83907233D01*
X188165833Y-83989717D01*
X188186782Y-84041855D01*
X188210574Y-84073574D01*
X188215500Y-84078175D01*
X188310126Y-84142066D01*
X188533249Y-84282867D01*
X188868133Y-84490418D01*
X189298040Y-84754563D01*
X189806233Y-85065144D01*
X190375975Y-85412003D01*
X190990529Y-85784982D01*
X191633157Y-86173925D01*
X192287123Y-86568673D01*
X192935689Y-86959068D01*
X193562117Y-87334954D01*
X194149672Y-87686171D01*
X194681615Y-88002563D01*
X194692500Y-88009017D01*
X194755010Y-88011358D01*
X194756000Y-88004537D01*
X194689586Y-87942075D01*
X194516756Y-87821742D01*
X194311500Y-87692153D01*
X194139281Y-87587980D01*
X193840845Y-87408063D01*
X193435160Y-87163811D01*
X192941192Y-86866633D01*
X192377908Y-86527941D01*
X191764272Y-86159143D01*
X191119253Y-85771651D01*
X191030667Y-85718446D01*
X188194334Y-84015000D01*
X188151384Y-75590666D01*
X188108434Y-67166333D01*
X188087884Y-75556377D01*
X188084631Y-76936772D01*
X188082140Y-78157763D01*
X188080561Y-79229276D01*
X188080041Y-80161240D01*
X188080730Y-80963582D01*
G36*
X192279500Y-93878666D02*
X192907458Y-93877279D01*
X193476828Y-93873355D01*
X193966651Y-93867253D01*
X194355969Y-93859331D01*
X194623823Y-93849948D01*
X194749255Y-93839462D01*
X194756000Y-93836333D01*
X194674873Y-93825464D01*
X194445646Y-93815628D01*
X194089553Y-93807197D01*
X193627825Y-93800544D01*
X193081696Y-93796041D01*
X192472398Y-93794060D01*
X192343000Y-93794000D01*
X189930000Y-93794000D01*
X189930000Y-90115996D01*
X189928585Y-89343455D01*
X189924537Y-88624266D01*
X189918154Y-87975871D01*
X189909735Y-87415714D01*
X189899578Y-86961238D01*
X189887980Y-86629887D01*
X189875239Y-86439105D01*
X189866500Y-86398748D01*
X189853348Y-86472264D01*
X189841117Y-86698339D01*
X189830092Y-87060196D01*
X189820560Y-87541063D01*
X189812807Y-88124165D01*
X189807121Y-88792726D01*
X189803786Y-89529974D01*
X189803000Y-90119084D01*
X189803000Y-93878666D01*
X192279500Y-93878666D01*
X192279500Y-93878666D01*
G37*
X192279500Y-93878666D02*
X192907458Y-93877279D01*
X193476828Y-93873355D01*
X193966651Y-93867253D01*
X194355969Y-93859331D01*
X194623823Y-93849948D01*
X194749255Y-93839462D01*
X194756000Y-93836333D01*
X194674873Y-93825464D01*
X194445646Y-93815628D01*
X194089553Y-93807197D01*
X193627825Y-93800544D01*
X193081696Y-93796041D01*
X192472398Y-93794060D01*
X192343000Y-93794000D01*
X189930000Y-93794000D01*
X189930000Y-90115996D01*
X189928585Y-89343455D01*
X189924537Y-88624266D01*
X189918154Y-87975871D01*
X189909735Y-87415714D01*
X189899578Y-86961238D01*
X189887980Y-86629887D01*
X189875239Y-86439105D01*
X189866500Y-86398748D01*
X189853348Y-86472264D01*
X189841117Y-86698339D01*
X189830092Y-87060196D01*
X189820560Y-87541063D01*
X189812807Y-88124165D01*
X189807121Y-88792726D01*
X189803786Y-89529974D01*
X189803000Y-90119084D01*
X189803000Y-93878666D01*
X192279500Y-93878666D01*
G36*
X193232000Y-74320666D02*
X193211799Y-70785833D01*
X193191597Y-67251000D01*
X193145455Y-74236000D01*
X192471879Y-74236000D01*
X192448807Y-70743500D01*
X192425736Y-67251000D01*
X192385334Y-74320666D01*
X193232000Y-74320666D01*
X193232000Y-74320666D01*
G37*
X193232000Y-74320666D02*
X193211799Y-70785833D01*
X193191597Y-67251000D01*
X193145455Y-74236000D01*
X192471879Y-74236000D01*
X192448807Y-70743500D01*
X192425736Y-67251000D01*
X192385334Y-74320666D01*
X193232000Y-74320666D01*
G36*
X191091612Y-51014535D02*
X191411256Y-51027752D01*
X191765025Y-51020736D01*
X191853612Y-51015004D01*
X191952629Y-51001642D01*
X191897303Y-50990947D01*
X191702619Y-50984272D01*
X191496334Y-50982719D01*
X191208948Y-50985540D01*
X191044835Y-50993520D01*
X191021290Y-51005299D01*
X191091612Y-51014535D01*
X191091612Y-51014535D01*
G37*
X191091612Y-51014535D02*
X191411256Y-51027752D01*
X191765025Y-51020736D01*
X191853612Y-51015004D01*
X191952629Y-51001642D01*
X191897303Y-50990947D01*
X191702619Y-50984272D01*
X191496334Y-50982719D01*
X191208948Y-50985540D01*
X191044835Y-50993520D01*
X191021290Y-51005299D01*
X191091612Y-51014535D01*
G36*
X190649667Y-83041333D02*
X190692000Y-82999000D01*
X190649667Y-82956666D01*
X190607334Y-82999000D01*
X190649667Y-83041333D01*
X190649667Y-83041333D01*
G37*
X190649667Y-83041333D02*
X190692000Y-82999000D01*
X190649667Y-82956666D01*
X190607334Y-82999000D01*
X190649667Y-83041333D01*
G36*
X190031018Y-81731240D02*
X190094000Y-81705832D01*
X190136223Y-81626818D01*
X190162001Y-81527903D01*
X190099978Y-81568482D01*
X190088827Y-81579422D01*
X190021951Y-81690430D01*
X190031018Y-81731240D01*
X190031018Y-81731240D01*
G37*
X190031018Y-81731240D02*
X190094000Y-81705832D01*
X190136223Y-81626818D01*
X190162001Y-81527903D01*
X190099978Y-81568482D01*
X190088827Y-81579422D01*
X190021951Y-81690430D01*
X190031018Y-81731240D01*
M02*
