G04 #@! TF.FileFunction,Soldermask,Bot*
%FSLAX46Y46*%
G04 Gerber Fmt 4.6, Leading zero omitted, Abs format (unit mm)*
G04 Created by KiCad (PCBNEW 4.0.4-stable) date Monday, July 31, 2017 'AMt' 10:54:44 AM*
%MOMM*%
%LPD*%
G01*
G04 APERTURE LIST*
%ADD10C,0.100000*%
%ADD11C,1.524000*%
%ADD12C,1.900000*%
%ADD13C,6.350000*%
%ADD14C,1.720000*%
%ADD15O,2.200000X1.950000*%
G04 APERTURE END LIST*
D10*
D11*
X144000000Y-47100000D03*
D12*
X154330000Y-24000000D03*
X156870000Y-24000000D03*
D13*
X105080000Y-27620000D03*
X190810000Y-25080000D03*
X105080000Y-101280000D03*
X190810000Y-105090000D03*
D12*
X173800000Y-51640000D03*
X173800000Y-49100000D03*
X173800000Y-46560000D03*
X167940000Y-62200000D03*
X165400000Y-62200000D03*
X162860000Y-62200000D03*
X171930000Y-56700000D03*
X174470000Y-56700000D03*
X167386000Y-57404000D03*
X167386000Y-54864000D03*
D14*
X179980000Y-25880000D03*
X179980000Y-28420000D03*
X179980000Y-30960000D03*
X179980000Y-33500000D03*
X179980000Y-36040000D03*
X179980000Y-38580000D03*
X179980000Y-41120000D03*
X179980000Y-43660000D03*
X179980000Y-46200000D03*
X179980000Y-48740000D03*
X179980000Y-51280000D03*
X179980000Y-53820000D03*
X179980000Y-56360000D03*
X179980000Y-58900000D03*
X179980000Y-61440000D03*
X179980000Y-63980000D03*
X179980000Y-66520000D03*
X179980000Y-69060000D03*
X179980000Y-71600000D03*
X179980000Y-74140000D03*
X179980000Y-76680000D03*
X179980000Y-79220000D03*
X179980000Y-81760000D03*
X179980000Y-84300000D03*
X179980000Y-86840000D03*
X179980000Y-89380000D03*
X179980000Y-91920000D03*
X179980000Y-94460000D03*
X179980000Y-97000000D03*
X179980000Y-99540000D03*
X179980000Y-102080000D03*
X179980000Y-104620000D03*
X182520000Y-25880000D03*
X182520000Y-28420000D03*
X182520000Y-30960000D03*
X182520000Y-33500000D03*
X182520000Y-36040000D03*
X182520000Y-38580000D03*
X182520000Y-41120000D03*
X182520000Y-43660000D03*
X182520000Y-46200000D03*
X182520000Y-48740000D03*
X182520000Y-51280000D03*
X182520000Y-53820000D03*
X182520000Y-56360000D03*
X182520000Y-58900000D03*
X182520000Y-61440000D03*
X182520000Y-63980000D03*
X182520000Y-66520000D03*
X182520000Y-69060000D03*
X182520000Y-71600000D03*
X182520000Y-74140000D03*
X182520000Y-76680000D03*
X182520000Y-79220000D03*
X182520000Y-81760000D03*
X182520000Y-84300000D03*
X182520000Y-86840000D03*
X182520000Y-89380000D03*
X182520000Y-91920000D03*
X182520000Y-94460000D03*
X182520000Y-97000000D03*
X182520000Y-99540000D03*
X182520000Y-102080000D03*
X182520000Y-104620000D03*
D15*
X120400000Y-103100000D03*
X120400000Y-83100000D03*
D12*
X134530000Y-87600000D03*
X137070000Y-87600000D03*
D11*
X114000000Y-24000000D03*
X142200000Y-28700000D03*
X134200000Y-26500000D03*
X149100000Y-45600000D03*
X148600000Y-23800000D03*
X159700000Y-62100000D03*
X147300000Y-88900000D03*
X152110000Y-105170000D03*
X131840000Y-105540000D03*
X115100000Y-56700000D03*
X117300000Y-68800000D03*
X104000000Y-75400000D03*
X118700000Y-24100000D03*
X103900000Y-35100000D03*
X106440000Y-35100000D03*
X103900000Y-37640000D03*
X106440000Y-37640000D03*
X103900000Y-40180000D03*
X106440000Y-40180000D03*
X103900000Y-42720000D03*
X106440000Y-42720000D03*
X103900000Y-45260000D03*
X106440000Y-45260000D03*
X103900000Y-47800000D03*
X106440000Y-47800000D03*
X103900000Y-50340000D03*
X106440000Y-50340000D03*
X103900000Y-52880000D03*
X106440000Y-52880000D03*
X103900000Y-55420000D03*
X106440000Y-55420000D03*
X103900000Y-57960000D03*
X106440000Y-57960000D03*
X133100000Y-39100000D03*
D12*
X143770000Y-105300000D03*
X141230000Y-105300000D03*
X138690000Y-105300000D03*
X146310000Y-105300000D03*
X125460000Y-24000000D03*
X128000000Y-24000000D03*
X130540000Y-24000000D03*
X142540000Y-24000000D03*
X140000000Y-24000000D03*
X137460000Y-24000000D03*
X109100000Y-62560000D03*
X109100000Y-65100000D03*
X103900000Y-69770000D03*
X103900000Y-67230000D03*
X189470000Y-75800000D03*
X186930000Y-75800000D03*
D11*
X190600000Y-62885000D03*
X190600000Y-67285000D03*
M02*
