G04 #@! TF.FileFunction,Soldermask,Top*
%FSLAX46Y46*%
G04 Gerber Fmt 4.6, Leading zero omitted, Abs format (unit mm)*
G04 Created by KiCad (PCBNEW 4.0.4-stable) date Monday, July 31, 2017 'AMt' 10:54:44 AM*
%MOMM*%
%LPD*%
G01*
G04 APERTURE LIST*
%ADD10C,0.100000*%
%ADD11R,0.300000X1.550000*%
%ADD12R,1.550000X0.300000*%
%ADD13R,0.500000X0.600000*%
%ADD14R,0.600000X0.400000*%
%ADD15C,1.524000*%
%ADD16C,1.900000*%
%ADD17R,0.600000X1.050000*%
%ADD18C,6.350000*%
%ADD19R,0.800000X0.900000*%
%ADD20R,1.000000X3.200000*%
%ADD21R,1.450000X0.450000*%
%ADD22C,1.720000*%
%ADD23O,2.200000X1.950000*%
%ADD24R,0.800000X0.800000*%
%ADD25R,0.900000X0.800000*%
%ADD26R,1.400000X1.650000*%
%ADD27R,0.760000X1.200000*%
%ADD28R,0.800000X0.500000*%
%ADD29R,0.750000X1.000000*%
%ADD30R,5.500000X1.500000*%
%ADD31R,0.400000X0.600000*%
%ADD32R,0.600000X0.500000*%
%ADD33R,0.600000X0.800000*%
%ADD34R,1.200000X1.200000*%
%ADD35R,1.600000X1.500000*%
%ADD36R,0.570000X0.320000*%
%ADD37R,0.320000X0.570000*%
%ADD38R,2.720000X2.720000*%
%ADD39R,3.600000X1.200000*%
%ADD40R,2.500000X2.000000*%
%ADD41R,2.300000X0.500000*%
G04 APERTURE END LIST*
D10*
D11*
X129250000Y-73700000D03*
X129750000Y-73700000D03*
X130250000Y-73700000D03*
X130750000Y-73700000D03*
X131250000Y-73700000D03*
X131750000Y-73700000D03*
X132250000Y-73700000D03*
X132750000Y-73700000D03*
X133250000Y-73700000D03*
X133750000Y-73700000D03*
X134250000Y-73700000D03*
X134750000Y-73700000D03*
X135250000Y-73700000D03*
X135750000Y-73700000D03*
X136250000Y-73700000D03*
X136750000Y-73700000D03*
X137250000Y-73700000D03*
X137750000Y-73700000D03*
X138250000Y-73700000D03*
X138750000Y-73700000D03*
X139250000Y-73700000D03*
X139750000Y-73700000D03*
X140250000Y-73700000D03*
X140750000Y-73700000D03*
X141250000Y-73700000D03*
X141750000Y-73700000D03*
X142250000Y-73700000D03*
X142750000Y-73700000D03*
X143250000Y-73700000D03*
X143750000Y-73700000D03*
X144250000Y-73700000D03*
X144750000Y-73700000D03*
X145250000Y-73700000D03*
X145750000Y-73700000D03*
X146250000Y-73700000D03*
X146750000Y-73700000D03*
D12*
X148700000Y-71750000D03*
X148700000Y-71250000D03*
X148700000Y-70750000D03*
X148700000Y-70250000D03*
X148700000Y-69750000D03*
X148700000Y-69250000D03*
X148700000Y-68750000D03*
X148700000Y-68250000D03*
X148700000Y-67750000D03*
X148700000Y-67250000D03*
X148700000Y-66750000D03*
X148700000Y-66250000D03*
X148700000Y-65750000D03*
X148700000Y-65250000D03*
X148700000Y-64750000D03*
X148700000Y-64250000D03*
X148700000Y-63750000D03*
X148700000Y-63250000D03*
X148700000Y-62750000D03*
X148700000Y-62250000D03*
X148700000Y-61750000D03*
X148700000Y-61250000D03*
X148700000Y-60750000D03*
X148700000Y-60250000D03*
X148700000Y-59750000D03*
X148700000Y-59250000D03*
X148700000Y-58750000D03*
X148700000Y-58250000D03*
X148700000Y-57750000D03*
X148700000Y-57250000D03*
X148700000Y-56750000D03*
X148700000Y-56250000D03*
X148700000Y-55750000D03*
X148700000Y-55250000D03*
X148700000Y-54750000D03*
X148700000Y-54250000D03*
D11*
X146750000Y-52300000D03*
X146250000Y-52300000D03*
X145750000Y-52300000D03*
X145250000Y-52300000D03*
X144750000Y-52300000D03*
X144250000Y-52300000D03*
X143750000Y-52300000D03*
X143250000Y-52300000D03*
X142750000Y-52300000D03*
X142250000Y-52300000D03*
X141750000Y-52300000D03*
X141250000Y-52300000D03*
X140750000Y-52300000D03*
X140250000Y-52300000D03*
X139750000Y-52300000D03*
X139250000Y-52300000D03*
X138750000Y-52300000D03*
X138250000Y-52300000D03*
X137750000Y-52300000D03*
X137250000Y-52300000D03*
X136750000Y-52300000D03*
X136250000Y-52300000D03*
X135750000Y-52300000D03*
X135250000Y-52300000D03*
X134750000Y-52300000D03*
X134250000Y-52300000D03*
X133750000Y-52300000D03*
X133250000Y-52300000D03*
X132750000Y-52300000D03*
X132250000Y-52300000D03*
X131750000Y-52300000D03*
X131250000Y-52300000D03*
X130750000Y-52300000D03*
X130250000Y-52300000D03*
X129750000Y-52300000D03*
X129250000Y-52300000D03*
D12*
X127300000Y-54250000D03*
X127300000Y-54750000D03*
X127300000Y-55250000D03*
X127300000Y-55750000D03*
X127300000Y-56250000D03*
X127300000Y-56750000D03*
X127300000Y-57250000D03*
X127300000Y-57750000D03*
X127300000Y-58250000D03*
X127300000Y-58750000D03*
X127300000Y-59250000D03*
X127300000Y-59750000D03*
X127300000Y-60250000D03*
X127300000Y-60750000D03*
X127300000Y-61250000D03*
X127300000Y-61750000D03*
X127300000Y-62250000D03*
X127300000Y-62750000D03*
X127300000Y-63250000D03*
X127300000Y-63750000D03*
X127300000Y-64250000D03*
X127300000Y-64750000D03*
X127300000Y-65250000D03*
X127300000Y-65750000D03*
X127300000Y-66250000D03*
X127300000Y-66750000D03*
X127300000Y-67250000D03*
X127300000Y-67750000D03*
X127300000Y-68250000D03*
X127300000Y-68750000D03*
X127300000Y-69250000D03*
X127300000Y-69750000D03*
X127300000Y-70250000D03*
X127300000Y-70750000D03*
X127300000Y-71250000D03*
X127300000Y-71750000D03*
D13*
X152400000Y-28575000D03*
X152400000Y-29625000D03*
D14*
X114800000Y-33250000D03*
X114800000Y-32350000D03*
D15*
X144000000Y-47100000D03*
D16*
X154330000Y-24000000D03*
X156870000Y-24000000D03*
D17*
X164350000Y-26950000D03*
X163400000Y-26950000D03*
X162450000Y-26950000D03*
X164350000Y-29650000D03*
X162450000Y-29650000D03*
D18*
X105080000Y-27620000D03*
X190810000Y-25080000D03*
X105080000Y-101280000D03*
X190810000Y-105090000D03*
D16*
X173800000Y-51640000D03*
X173800000Y-49100000D03*
X173800000Y-46560000D03*
X167940000Y-62200000D03*
X165400000Y-62200000D03*
X162860000Y-62200000D03*
X171930000Y-56700000D03*
X174470000Y-56700000D03*
X167386000Y-57404000D03*
X167386000Y-54864000D03*
D19*
X172700000Y-60900000D03*
X171740000Y-62900000D03*
X173650000Y-62900000D03*
D20*
X162100000Y-53400000D03*
X155900000Y-53400000D03*
D21*
X157140000Y-44521000D03*
X157140000Y-45171000D03*
X157140000Y-43871000D03*
X157140000Y-43221000D03*
X152740000Y-45171000D03*
X152740000Y-44521000D03*
X152740000Y-43871000D03*
X152740000Y-43221000D03*
D22*
X179980000Y-25880000D03*
X179980000Y-28420000D03*
X179980000Y-30960000D03*
X179980000Y-33500000D03*
X179980000Y-36040000D03*
X179980000Y-38580000D03*
X179980000Y-41120000D03*
X179980000Y-43660000D03*
X179980000Y-46200000D03*
X179980000Y-48740000D03*
X179980000Y-51280000D03*
X179980000Y-53820000D03*
X179980000Y-56360000D03*
X179980000Y-58900000D03*
X179980000Y-61440000D03*
X179980000Y-63980000D03*
X179980000Y-66520000D03*
X179980000Y-69060000D03*
X179980000Y-71600000D03*
X179980000Y-74140000D03*
X179980000Y-76680000D03*
X179980000Y-79220000D03*
X179980000Y-81760000D03*
X179980000Y-84300000D03*
X179980000Y-86840000D03*
X179980000Y-89380000D03*
X179980000Y-91920000D03*
X179980000Y-94460000D03*
X179980000Y-97000000D03*
X179980000Y-99540000D03*
X179980000Y-102080000D03*
X179980000Y-104620000D03*
X182520000Y-25880000D03*
X182520000Y-28420000D03*
X182520000Y-30960000D03*
X182520000Y-33500000D03*
X182520000Y-36040000D03*
X182520000Y-38580000D03*
X182520000Y-41120000D03*
X182520000Y-43660000D03*
X182520000Y-46200000D03*
X182520000Y-48740000D03*
X182520000Y-51280000D03*
X182520000Y-53820000D03*
X182520000Y-56360000D03*
X182520000Y-58900000D03*
X182520000Y-61440000D03*
X182520000Y-63980000D03*
X182520000Y-66520000D03*
X182520000Y-69060000D03*
X182520000Y-71600000D03*
X182520000Y-74140000D03*
X182520000Y-76680000D03*
X182520000Y-79220000D03*
X182520000Y-81760000D03*
X182520000Y-84300000D03*
X182520000Y-86840000D03*
X182520000Y-89380000D03*
X182520000Y-91920000D03*
X182520000Y-94460000D03*
X182520000Y-97000000D03*
X182520000Y-99540000D03*
X182520000Y-102080000D03*
X182520000Y-104620000D03*
D23*
X120400000Y-103100000D03*
X120400000Y-83100000D03*
D24*
X162100000Y-39700000D03*
X163700000Y-39700000D03*
D16*
X134530000Y-87600000D03*
X137070000Y-87600000D03*
D25*
X155200000Y-31100000D03*
X157200000Y-32060000D03*
X157200000Y-30150000D03*
X166600000Y-36200000D03*
X164600000Y-35240000D03*
X164600000Y-37150000D03*
D19*
X174000000Y-42100000D03*
X174960000Y-40100000D03*
X173050000Y-40100000D03*
X165500000Y-72700000D03*
X164540000Y-74700000D03*
X166450000Y-74700000D03*
D26*
X110850000Y-80375000D03*
X115350000Y-80375000D03*
X115350000Y-72425000D03*
X110850000Y-72425000D03*
X123950000Y-43325000D03*
X119450000Y-43325000D03*
X119450000Y-51275000D03*
X123950000Y-51275000D03*
D27*
X127365000Y-38540000D03*
X128635000Y-38540000D03*
X129905000Y-38540000D03*
X126095000Y-38540000D03*
X126095000Y-31460000D03*
X127365000Y-31460000D03*
X128635000Y-31460000D03*
X129905000Y-31460000D03*
X137365000Y-38540000D03*
X138635000Y-38540000D03*
X139905000Y-38540000D03*
X136095000Y-38540000D03*
X136095000Y-31460000D03*
X137365000Y-31460000D03*
X138635000Y-31460000D03*
X139905000Y-31460000D03*
X147365000Y-38540000D03*
X148635000Y-38540000D03*
X149905000Y-38540000D03*
X146095000Y-38540000D03*
X146095000Y-31460000D03*
X147365000Y-31460000D03*
X148635000Y-31460000D03*
X149905000Y-31460000D03*
D28*
X145300000Y-95200000D03*
X143100000Y-95200000D03*
X145300000Y-96000000D03*
X145300000Y-96800000D03*
X145300000Y-94400000D03*
X145300000Y-93600000D03*
X143100000Y-94400000D03*
X143100000Y-93600000D03*
X143100000Y-96000000D03*
X143100000Y-96800000D03*
D29*
X113000000Y-67200000D03*
X112050000Y-67200000D03*
X113950000Y-67200000D03*
X113950000Y-64600000D03*
X113000000Y-64600000D03*
X112050000Y-64600000D03*
D15*
X114000000Y-24000000D03*
X142200000Y-28700000D03*
X134200000Y-26500000D03*
X149100000Y-45600000D03*
X148600000Y-23800000D03*
X159700000Y-62100000D03*
X147300000Y-88900000D03*
X152110000Y-105170000D03*
X131840000Y-105540000D03*
X115100000Y-56700000D03*
X117300000Y-68800000D03*
X104000000Y-75400000D03*
D30*
X134050000Y-81700000D03*
X142550000Y-81700000D03*
D31*
X160150000Y-42400000D03*
X161050000Y-42400000D03*
D14*
X153416000Y-50234000D03*
X153416000Y-49334000D03*
D31*
X167650000Y-52500000D03*
X168550000Y-52500000D03*
X158150000Y-39700000D03*
X159050000Y-39700000D03*
D14*
X166900000Y-43550000D03*
X166900000Y-42650000D03*
D31*
X159850000Y-71100000D03*
X158950000Y-71100000D03*
D14*
X173200000Y-68050000D03*
X173200000Y-67150000D03*
D31*
X128800000Y-43500000D03*
X129700000Y-43500000D03*
D14*
X122000000Y-37550000D03*
X122000000Y-38450000D03*
D31*
X122050000Y-31600000D03*
X121150000Y-31600000D03*
D14*
X138700000Y-42650000D03*
X138700000Y-43550000D03*
X133600000Y-43550000D03*
X133600000Y-42650000D03*
D31*
X133350000Y-28700000D03*
X134250000Y-28700000D03*
D14*
X133800000Y-31250000D03*
X133800000Y-30350000D03*
X149100000Y-43350000D03*
X149100000Y-42450000D03*
X146100000Y-43350000D03*
X146100000Y-42450000D03*
D31*
X146750000Y-27200000D03*
X147650000Y-27200000D03*
D14*
X142900000Y-33850000D03*
X142900000Y-34750000D03*
D31*
X117550000Y-64600000D03*
X116650000Y-64600000D03*
X116650000Y-66300000D03*
X117550000Y-66300000D03*
X151580000Y-66802000D03*
X150680000Y-66802000D03*
X117050000Y-60950000D03*
X117950000Y-60950000D03*
X119700000Y-74500000D03*
X120600000Y-74500000D03*
D14*
X121000000Y-55150000D03*
X121000000Y-54250000D03*
X116600000Y-47550000D03*
X116600000Y-48450000D03*
X115700000Y-42750000D03*
X115700000Y-43650000D03*
X127400000Y-49350000D03*
X127400000Y-50250000D03*
D32*
X124225000Y-58400000D03*
X123175000Y-58400000D03*
D13*
X112000000Y-62425000D03*
X112000000Y-61375000D03*
D32*
X148875000Y-96100000D03*
X149925000Y-96100000D03*
X139075000Y-79300000D03*
X140125000Y-79300000D03*
X136375000Y-79300000D03*
X137425000Y-79300000D03*
D13*
X133800000Y-34425000D03*
X133800000Y-33375000D03*
D32*
X124925000Y-28000000D03*
X123875000Y-28000000D03*
X164475000Y-32200000D03*
X165525000Y-32200000D03*
X124325000Y-71300000D03*
X123275000Y-71300000D03*
D13*
X135700000Y-76275000D03*
X135700000Y-77325000D03*
X143300000Y-76275000D03*
X143300000Y-77325000D03*
D32*
X154923000Y-66040000D03*
X155973000Y-66040000D03*
D13*
X153400000Y-60325000D03*
X153400000Y-59275000D03*
X139700000Y-49625000D03*
X139700000Y-48575000D03*
D32*
X124225000Y-56800000D03*
X123175000Y-56800000D03*
D13*
X132700000Y-49625000D03*
X132700000Y-48575000D03*
D32*
X154675000Y-69200000D03*
X155725000Y-69200000D03*
D13*
X133900000Y-77325000D03*
X133900000Y-76275000D03*
X142130000Y-75950000D03*
X142130000Y-77000000D03*
X131400000Y-49625000D03*
X131400000Y-48575000D03*
D32*
X153295000Y-57200000D03*
X152245000Y-57200000D03*
X124225000Y-60000000D03*
X123175000Y-60000000D03*
X124275000Y-66750000D03*
X123225000Y-66750000D03*
X124275000Y-68250000D03*
X123225000Y-68250000D03*
X158075000Y-35400000D03*
X159125000Y-35400000D03*
X171275000Y-26600000D03*
X172325000Y-26600000D03*
X175125000Y-26600000D03*
X174075000Y-26600000D03*
D15*
X118700000Y-24100000D03*
X103900000Y-35100000D03*
X106440000Y-35100000D03*
X103900000Y-37640000D03*
X106440000Y-37640000D03*
X103900000Y-40180000D03*
X106440000Y-40180000D03*
X103900000Y-42720000D03*
X106440000Y-42720000D03*
X103900000Y-45260000D03*
X106440000Y-45260000D03*
X103900000Y-47800000D03*
X106440000Y-47800000D03*
X103900000Y-50340000D03*
X106440000Y-50340000D03*
X103900000Y-52880000D03*
X106440000Y-52880000D03*
X103900000Y-55420000D03*
X106440000Y-55420000D03*
X103900000Y-57960000D03*
X106440000Y-57960000D03*
X133100000Y-39100000D03*
D16*
X143770000Y-105300000D03*
X141230000Y-105300000D03*
X138690000Y-105300000D03*
X146310000Y-105300000D03*
X125460000Y-24000000D03*
X128000000Y-24000000D03*
X130540000Y-24000000D03*
X142540000Y-24000000D03*
X140000000Y-24000000D03*
X137460000Y-24000000D03*
D24*
X170200000Y-66900000D03*
X170200000Y-68500000D03*
D16*
X109100000Y-62560000D03*
X109100000Y-65100000D03*
D33*
X186690000Y-31284000D03*
X186690000Y-30184000D03*
D34*
X162700000Y-44200000D03*
X160700000Y-44200000D03*
D35*
X161700000Y-47450000D03*
D16*
X103900000Y-69770000D03*
X103900000Y-67230000D03*
D32*
X187225000Y-39900000D03*
X186175000Y-39900000D03*
X193475000Y-47500000D03*
X194525000Y-47500000D03*
D24*
X192400000Y-37900000D03*
X194000000Y-37900000D03*
X190300000Y-35500000D03*
X191900000Y-35500000D03*
D16*
X189470000Y-75800000D03*
X186930000Y-75800000D03*
D14*
X190800000Y-51450000D03*
X190800000Y-52350000D03*
X189600000Y-51450000D03*
X189600000Y-52350000D03*
D31*
X186550000Y-44100000D03*
X187450000Y-44100000D03*
D14*
X186300000Y-46700000D03*
X186300000Y-47600000D03*
D31*
X189700000Y-41200000D03*
X190600000Y-41200000D03*
X186250000Y-49100000D03*
X187150000Y-49100000D03*
X187950000Y-37900000D03*
X188850000Y-37900000D03*
X194650000Y-35600000D03*
X193750000Y-35600000D03*
D36*
X188325000Y-46825000D03*
X188325000Y-47475000D03*
X188325000Y-48125000D03*
X188325000Y-48775000D03*
D37*
X189225000Y-49675000D03*
X189875000Y-49675000D03*
X190525000Y-49675000D03*
X191175000Y-49675000D03*
D36*
X192075000Y-48775000D03*
X192075000Y-48125000D03*
X192075000Y-47475000D03*
X192075000Y-46825000D03*
D37*
X191175000Y-45925000D03*
X190525000Y-45925000D03*
X189875000Y-45925000D03*
X189225000Y-45925000D03*
D38*
X190200000Y-47800000D03*
D34*
X172100000Y-29950000D03*
X174400000Y-29950000D03*
X169800000Y-29950000D03*
D39*
X172100000Y-36050000D03*
D15*
X190600000Y-62885000D03*
X190600000Y-67285000D03*
D40*
X193550000Y-69535000D03*
X193550000Y-60635000D03*
X188050000Y-69535000D03*
X188050000Y-60635000D03*
D41*
X188050000Y-65085000D03*
X188050000Y-65885000D03*
X188050000Y-66685000D03*
X188050000Y-64285000D03*
X188050000Y-63485000D03*
D14*
X133600000Y-84350000D03*
X133600000Y-85250000D03*
M02*
