M48
;DRILL file {KiCad 4.0.4-stable} date Tuesday, July 25, 2017 'PMt' 07:50:58 PM
;FORMAT={-:-/ absolute / metric / decimal}
FMAT,2
METRIC,TZ
T1C0.400
T2C0.762
T3C1.020
T4C1.150
T5C1.250
T6C3.180
T7C0.900
%
G90
G05
M71
T1
X109.7Y-60.1
X110.3Y-33.3
X112.Y-60.4
X112.1Y-40.8
X113.Y-68.5
X114.9Y-44.7
X115.3Y-78.8
X115.5Y-46.9
X116.Y-45.6
X116.2Y-62.1
X117.1Y-75.3
X117.3Y-74.2
X117.66Y-63.42
X117.67Y-58.51
X117.9Y-55.2
X118.5Y-44.9
X118.6Y-66.3
X118.8Y-64.5
X118.8Y-67.4
X119.4Y-53.
X119.4Y-60.9
X119.45Y-41.75
X120.1Y-57.3
X120.1Y-70.1
X120.98Y-77.58
X121.1Y-30.3
X121.343Y-70.459
X121.7Y-74.8
X122.Y-58.35
X122.Y-60.
X122.01Y-69.73
X122.1Y-56.675
X122.52Y-68.236
X122.54Y-108.24
X122.7Y-76.
X123.2Y-62.2
X123.4Y-26.6
X123.6Y-35.3
X123.7Y-77.8
X123.7Y-85.1
X124.1Y-54.6
X124.21Y-69.719
X124.3Y-65.485
X124.3Y-72.1
X124.76Y-81.04
X124.77Y-70.29
X124.9Y-49.5
X124.924Y-53.476
X124.95Y-69.
X125.3Y-56.2
X125.5Y-60.8
X125.56Y-66.11
X125.88Y-59.12
X126.258Y-51.758
X127.Y-30.2
X127.Y-33.8
X127.Y-73.
X127.3Y-89.2
X127.4Y-36.6
X127.4Y-40.1
X127.5Y-85.1
X127.801Y-77.116
X128.4Y-75.9
X128.4Y-90.6
X128.7Y-49.4
X128.96Y-56.75
X129.1Y-35.5
X129.125Y-28.064
X129.27Y-67.25
X129.3Y-68.875
X129.5Y-58.8
X129.525Y-70.505
X129.9Y-37.
X130.2Y-33.3
X130.303Y-71.743
X130.343Y-75.473
X130.4Y-49.3
X130.8Y-61.2
X131.3Y-45.7
X131.4Y-47.5
X131.421Y-29.337
X131.875Y-79.2
X132.046Y-28.538
X132.2Y-42.6
X132.3Y-54.
X132.4Y-68.8
X132.7Y-47.6
X132.74Y-75.035
X133.24Y-65.33
X133.8Y-35.4
X133.858Y-44.45
X133.9Y-79.3
X134.03Y-50.21
X134.04Y-67.82
X134.71Y-38.638
X134.875Y-72.26
X135.1Y-76.66
X135.2Y-28.4
X135.692Y-33.408
X135.7Y-78.3
X136.27Y-68.82
X136.4Y-37.
X136.4Y-102.82
X136.74Y-71.9
X137.67Y-50.177
X138.597Y-37.025
X138.684Y-50.8
X139.2Y-54.
X139.3Y-36.4
X139.6Y-43.496
X139.7Y-34.5
X139.767Y-96.687
X139.9Y-37.2
X140.639Y-69.6
X140.9Y-30.2
X140.94Y-48.57
X141.089Y-63.6
X141.29Y-72.15
X141.5Y-36.4
X141.8Y-59.2
X142.24Y-51.025
X142.563Y-70.298
X142.6Y-68.1
X143.234Y-78.355
X143.25Y-53.588
X143.292Y-70.628
X143.5Y-38.4
X143.95Y-96.78
X144.2Y-32.8
X144.544Y-54.213
X144.83Y-75.156
X145.11Y-91.75
X145.17Y-84.11
X145.288Y-55.626
X145.7Y-28.7
X145.9Y-59.2
X145.933Y-57.507
X145.991Y-44.187
X146.2Y-68.1
X146.68Y-93.65
X146.68Y-101.32
X146.812Y-46.99
X147.04Y-75.49
X147.13Y-71.05
X147.2Y-62.2
X147.476Y-66.656
X147.525Y-74.
X147.988Y-41.598
X148.15Y-79.22
X148.223Y-43.961
X148.6Y-29.6
X148.72Y-84.25
X149.9Y-97.2
X150.2Y-92.8
X150.278Y-69.342
X150.3Y-42.4
X150.3Y-62.1
X150.362Y-66.016
X151.Y-95.
X151.13Y-45.466
X151.24Y-55.763
X151.24Y-61.74
X151.3Y-91.3
X151.31Y-59.72
X151.325Y-54.74
X151.388Y-68.251
X151.4Y-28.6
X151.5Y-38.5
X151.5Y-48.9
X151.528Y-69.501
X151.892Y-77.724
X152.4Y-98.2
X153.2Y-100.1
X153.3Y-55.8
X153.31Y-61.8
X153.62Y-63.14
X153.975Y-57.267
X154.178Y-66.04
X154.7Y-70.4
X154.94Y-44.196
X154.94Y-48.26
X155.7Y-70.4
X157.125Y-63.145
X157.226Y-49.534
X157.64Y-54.72
X157.988Y-52.578
X158.021Y-83.048
X158.1Y-28.4
X158.419Y-70.9
X158.48Y-71.91
X159.1Y-34.
X159.766Y-45.212
X159.846Y-86.605
X160.782Y-40.64
X163.4Y-28.3
X164.592Y-48.006
X165.354Y-45.212
X165.705Y-37.505
X165.862Y-31.242
X166.37Y-39.116
X167.132Y-50.8
X168.6Y-47.5
X168.94Y-84.29
X169.17Y-52.4
X171.958Y-39.116
X171.958Y-40.64
X174.01Y-75.48
X175.64Y-75.66
X176.193Y-52.915
X176.483Y-73.891
X176.6Y-84.9
X176.629Y-75.141
X178.645Y-69.54
X185.8Y-92.155
X185.8Y-65.
T2
X103.9Y-35.1
X103.9Y-37.64
X103.9Y-40.18
X103.9Y-42.72
X103.9Y-45.26
X103.9Y-47.8
X103.9Y-50.34
X103.9Y-52.88
X103.9Y-55.42
X103.9Y-57.96
X104.Y-75.4
X106.44Y-35.1
X106.44Y-37.64
X106.44Y-40.18
X106.44Y-42.72
X106.44Y-45.26
X106.44Y-47.8
X106.44Y-50.34
X106.44Y-52.88
X106.44Y-55.42
X106.44Y-57.96
X114.Y-24.
X115.1Y-56.7
X117.3Y-68.8
X118.7Y-24.1
X131.84Y-105.54
X133.1Y-39.1
X134.2Y-26.5
X142.2Y-28.7
X144.Y-47.1
X147.3Y-88.9
X148.6Y-23.8
X149.1Y-45.6
X152.11Y-105.17
X159.7Y-62.1
T3
X179.98Y-25.88
X179.98Y-28.42
X179.98Y-30.96
X179.98Y-33.5
X179.98Y-36.04
X179.98Y-38.58
X179.98Y-41.12
X179.98Y-43.66
X179.98Y-46.2
X179.98Y-48.74
X179.98Y-51.28
X179.98Y-53.82
X179.98Y-56.36
X179.98Y-58.9
X179.98Y-61.44
X179.98Y-63.98
X179.98Y-66.52
X179.98Y-69.06
X179.98Y-71.6
X179.98Y-74.14
X179.98Y-76.68
X179.98Y-79.22
X179.98Y-81.76
X179.98Y-84.3
X179.98Y-86.84
X179.98Y-89.38
X179.98Y-91.92
X179.98Y-94.46
X179.98Y-97.
X179.98Y-99.54
X179.98Y-102.08
X179.98Y-104.62
X182.52Y-25.88
X182.52Y-28.42
X182.52Y-30.96
X182.52Y-33.5
X182.52Y-36.04
X182.52Y-38.58
X182.52Y-41.12
X182.52Y-43.66
X182.52Y-46.2
X182.52Y-48.74
X182.52Y-51.28
X182.52Y-53.82
X182.52Y-56.36
X182.52Y-58.9
X182.52Y-61.44
X182.52Y-63.98
X182.52Y-66.52
X182.52Y-69.06
X182.52Y-71.6
X182.52Y-74.14
X182.52Y-76.68
X182.52Y-79.22
X182.52Y-81.76
X182.52Y-84.3
X182.52Y-86.84
X182.52Y-89.38
X182.52Y-91.92
X182.52Y-94.46
X182.52Y-97.
X182.52Y-99.54
X182.52Y-102.08
X182.52Y-104.62
T4
X103.886Y-67.31
X103.886Y-69.85
X109.1Y-62.56
X109.1Y-65.1
X125.46Y-24.
X128.Y-24.
X130.54Y-24.
X134.53Y-87.6
X137.07Y-87.6
X137.46Y-24.
X138.69Y-105.3
X140.Y-24.
X141.23Y-105.3
X142.54Y-24.
X143.77Y-105.3
X146.31Y-105.3
X154.33Y-24.
X156.87Y-24.
X162.86Y-62.2
X165.4Y-62.2
X167.386Y-54.864
X167.386Y-57.404
X167.94Y-62.2
X171.93Y-56.7
X173.8Y-46.56
X173.8Y-49.1
X173.8Y-51.64
X174.47Y-56.7
T5
X120.4Y-83.1
X120.4Y-103.1
T6
X105.08Y-27.62
X105.08Y-101.28
X190.81Y-25.08
X190.81Y-105.09
T7
X190.6Y-62.885
X190.6Y-67.285
T0
M30
