G04 #@! TF.FileFunction,Legend,Bot*
%FSLAX46Y46*%
G04 Gerber Fmt 4.6, Leading zero omitted, Abs format (unit mm)*
G04 Created by KiCad (PCBNEW 4.0.4-stable) date Monday, July 31, 2017 'PMt' 11:41:33 PM*
%MOMM*%
%LPD*%
G01*
G04 APERTURE LIST*
%ADD10C,0.100000*%
%ADD11C,0.200000*%
G04 APERTURE END LIST*
D10*
D11*
X186514285Y-105128571D02*
X186571428Y-105185714D01*
X186742857Y-105242857D01*
X186857143Y-105242857D01*
X187028571Y-105185714D01*
X187142857Y-105071429D01*
X187200000Y-104957143D01*
X187257143Y-104728571D01*
X187257143Y-104557143D01*
X187200000Y-104328571D01*
X187142857Y-104214286D01*
X187028571Y-104100000D01*
X186857143Y-104042857D01*
X186742857Y-104042857D01*
X186571428Y-104100000D01*
X186514285Y-104157143D01*
X185428571Y-105242857D02*
X186000000Y-105242857D01*
X186000000Y-104042857D01*
X185028571Y-105242857D02*
X185028571Y-104042857D01*
X184342856Y-105242857D02*
X184857142Y-104557143D01*
X184342856Y-104042857D02*
X185028571Y-104728571D01*
X188185715Y-102742857D02*
X188185715Y-101542857D01*
X187785715Y-102400000D01*
X187385715Y-101542857D01*
X187385715Y-102742857D01*
X186585714Y-101542857D02*
X186357143Y-101542857D01*
X186242857Y-101600000D01*
X186128571Y-101714286D01*
X186071429Y-101942857D01*
X186071429Y-102342857D01*
X186128571Y-102571429D01*
X186242857Y-102685714D01*
X186357143Y-102742857D01*
X186585714Y-102742857D01*
X186700000Y-102685714D01*
X186814286Y-102571429D01*
X186871429Y-102342857D01*
X186871429Y-101942857D01*
X186814286Y-101714286D01*
X186700000Y-101600000D01*
X186585714Y-101542857D01*
X185614286Y-102685714D02*
X185442857Y-102742857D01*
X185157143Y-102742857D01*
X185042857Y-102685714D01*
X184985714Y-102628571D01*
X184928571Y-102514286D01*
X184928571Y-102400000D01*
X184985714Y-102285714D01*
X185042857Y-102228571D01*
X185157143Y-102171429D01*
X185385714Y-102114286D01*
X185500000Y-102057143D01*
X185557143Y-102000000D01*
X185614286Y-101885714D01*
X185614286Y-101771429D01*
X185557143Y-101657143D01*
X185500000Y-101600000D01*
X185385714Y-101542857D01*
X185100000Y-101542857D01*
X184928571Y-101600000D01*
X184414286Y-102742857D02*
X184414286Y-101542857D01*
X190671428Y-100242857D02*
X191071428Y-99671429D01*
X191357143Y-100242857D02*
X191357143Y-99042857D01*
X190900000Y-99042857D01*
X190785714Y-99100000D01*
X190728571Y-99157143D01*
X190671428Y-99271429D01*
X190671428Y-99442857D01*
X190728571Y-99557143D01*
X190785714Y-99614286D01*
X190900000Y-99671429D01*
X191357143Y-99671429D01*
X189757143Y-99614286D02*
X190157143Y-99614286D01*
X190157143Y-100242857D02*
X190157143Y-99042857D01*
X189585714Y-99042857D01*
X189414286Y-100357143D02*
X188500000Y-100357143D01*
X188214286Y-100242857D02*
X188214286Y-99042857D01*
X187814286Y-99900000D01*
X187414286Y-99042857D01*
X187414286Y-100242857D01*
X186842857Y-100242857D02*
X186842857Y-99042857D01*
X186328571Y-100185714D02*
X186157142Y-100242857D01*
X185871428Y-100242857D01*
X185757142Y-100185714D01*
X185699999Y-100128571D01*
X185642856Y-100014286D01*
X185642856Y-99900000D01*
X185699999Y-99785714D01*
X185757142Y-99728571D01*
X185871428Y-99671429D01*
X186099999Y-99614286D01*
X186214285Y-99557143D01*
X186271428Y-99500000D01*
X186328571Y-99385714D01*
X186328571Y-99271429D01*
X186271428Y-99157143D01*
X186214285Y-99100000D01*
X186099999Y-99042857D01*
X185814285Y-99042857D01*
X185642856Y-99100000D01*
X184899999Y-99042857D02*
X184671428Y-99042857D01*
X184557142Y-99100000D01*
X184442856Y-99214286D01*
X184385714Y-99442857D01*
X184385714Y-99842857D01*
X184442856Y-100071429D01*
X184557142Y-100185714D01*
X184671428Y-100242857D01*
X184899999Y-100242857D01*
X185014285Y-100185714D01*
X185128571Y-100071429D01*
X185185714Y-99842857D01*
X185185714Y-99442857D01*
X185128571Y-99214286D01*
X185014285Y-99100000D01*
X184899999Y-99042857D01*
X188771428Y-97642857D02*
X189171428Y-97071429D01*
X189457143Y-97642857D02*
X189457143Y-96442857D01*
X189000000Y-96442857D01*
X188885714Y-96500000D01*
X188828571Y-96557143D01*
X188771428Y-96671429D01*
X188771428Y-96842857D01*
X188828571Y-96957143D01*
X188885714Y-97014286D01*
X189000000Y-97071429D01*
X189457143Y-97071429D01*
X187857143Y-97014286D02*
X188257143Y-97014286D01*
X188257143Y-97642857D02*
X188257143Y-96442857D01*
X187685714Y-96442857D01*
X187514286Y-97757143D02*
X186600000Y-97757143D01*
X185628571Y-97528571D02*
X185685714Y-97585714D01*
X185857143Y-97642857D01*
X185971429Y-97642857D01*
X186142857Y-97585714D01*
X186257143Y-97471429D01*
X186314286Y-97357143D01*
X186371429Y-97128571D01*
X186371429Y-96957143D01*
X186314286Y-96728571D01*
X186257143Y-96614286D01*
X186142857Y-96500000D01*
X185971429Y-96442857D01*
X185857143Y-96442857D01*
X185685714Y-96500000D01*
X185628571Y-96557143D01*
X185171429Y-97585714D02*
X185000000Y-97642857D01*
X184714286Y-97642857D01*
X184600000Y-97585714D01*
X184542857Y-97528571D01*
X184485714Y-97414286D01*
X184485714Y-97300000D01*
X184542857Y-97185714D01*
X184600000Y-97128571D01*
X184714286Y-97071429D01*
X184942857Y-97014286D01*
X185057143Y-96957143D01*
X185114286Y-96900000D01*
X185171429Y-96785714D01*
X185171429Y-96671429D01*
X185114286Y-96557143D01*
X185057143Y-96500000D01*
X184942857Y-96442857D01*
X184657143Y-96442857D01*
X184485714Y-96500000D01*
X189528571Y-95242857D02*
X189928571Y-94671429D01*
X190214286Y-95242857D02*
X190214286Y-94042857D01*
X189757143Y-94042857D01*
X189642857Y-94100000D01*
X189585714Y-94157143D01*
X189528571Y-94271429D01*
X189528571Y-94442857D01*
X189585714Y-94557143D01*
X189642857Y-94614286D01*
X189757143Y-94671429D01*
X190214286Y-94671429D01*
X188614286Y-94614286D02*
X189014286Y-94614286D01*
X189014286Y-95242857D02*
X189014286Y-94042857D01*
X188442857Y-94042857D01*
X188271429Y-95357143D02*
X187357143Y-95357143D01*
X187071429Y-95242857D02*
X187071429Y-94042857D01*
X185814285Y-95242857D02*
X186214285Y-94671429D01*
X186500000Y-95242857D02*
X186500000Y-94042857D01*
X186042857Y-94042857D01*
X185928571Y-94100000D01*
X185871428Y-94157143D01*
X185814285Y-94271429D01*
X185814285Y-94442857D01*
X185871428Y-94557143D01*
X185928571Y-94614286D01*
X186042857Y-94671429D01*
X186500000Y-94671429D01*
X184500000Y-95357143D02*
X184614285Y-95300000D01*
X184728571Y-95185714D01*
X184900000Y-95014286D01*
X185014285Y-94957143D01*
X185128571Y-94957143D01*
X185071428Y-95242857D02*
X185185714Y-95185714D01*
X185300000Y-95071429D01*
X185357143Y-94842857D01*
X185357143Y-94442857D01*
X185300000Y-94214286D01*
X185185714Y-94100000D01*
X185071428Y-94042857D01*
X184842857Y-94042857D01*
X184728571Y-94100000D01*
X184614285Y-94214286D01*
X184557143Y-94442857D01*
X184557143Y-94842857D01*
X184614285Y-95071429D01*
X184728571Y-95185714D01*
X184842857Y-95242857D01*
X185071428Y-95242857D01*
X193728571Y-92642857D02*
X194128571Y-92071429D01*
X194414286Y-92642857D02*
X194414286Y-91442857D01*
X193957143Y-91442857D01*
X193842857Y-91500000D01*
X193785714Y-91557143D01*
X193728571Y-91671429D01*
X193728571Y-91842857D01*
X193785714Y-91957143D01*
X193842857Y-92014286D01*
X193957143Y-92071429D01*
X194414286Y-92071429D01*
X192814286Y-92014286D02*
X193214286Y-92014286D01*
X193214286Y-92642857D02*
X193214286Y-91442857D01*
X192642857Y-91442857D01*
X192471429Y-92757143D02*
X191557143Y-92757143D01*
X190642857Y-91500000D02*
X190757143Y-91442857D01*
X190928572Y-91442857D01*
X191100000Y-91500000D01*
X191214286Y-91614286D01*
X191271429Y-91728571D01*
X191328572Y-91957143D01*
X191328572Y-92128571D01*
X191271429Y-92357143D01*
X191214286Y-92471429D01*
X191100000Y-92585714D01*
X190928572Y-92642857D01*
X190814286Y-92642857D01*
X190642857Y-92585714D01*
X190585714Y-92528571D01*
X190585714Y-92128571D01*
X190814286Y-92128571D01*
X190128572Y-92300000D02*
X189557143Y-92300000D01*
X190242857Y-92642857D02*
X189842857Y-91442857D01*
X189442857Y-92642857D01*
X189042858Y-92642857D02*
X189042858Y-91442857D01*
X188471429Y-92642857D02*
X188471429Y-91442857D01*
X187785714Y-92642857D01*
X187785714Y-91442857D01*
X187500000Y-92757143D02*
X186585714Y-92757143D01*
X185614285Y-92528571D02*
X185671428Y-92585714D01*
X185842857Y-92642857D01*
X185957143Y-92642857D01*
X186128571Y-92585714D01*
X186242857Y-92471429D01*
X186300000Y-92357143D01*
X186357143Y-92128571D01*
X186357143Y-91957143D01*
X186300000Y-91728571D01*
X186242857Y-91614286D01*
X186128571Y-91500000D01*
X185957143Y-91442857D01*
X185842857Y-91442857D01*
X185671428Y-91500000D01*
X185614285Y-91557143D01*
X185157143Y-92585714D02*
X184985714Y-92642857D01*
X184700000Y-92642857D01*
X184585714Y-92585714D01*
X184528571Y-92528571D01*
X184471428Y-92414286D01*
X184471428Y-92300000D01*
X184528571Y-92185714D01*
X184585714Y-92128571D01*
X184700000Y-92071429D01*
X184928571Y-92014286D01*
X185042857Y-91957143D01*
X185100000Y-91900000D01*
X185157143Y-91785714D01*
X185157143Y-91671429D01*
X185100000Y-91557143D01*
X185042857Y-91500000D01*
X184928571Y-91442857D01*
X184642857Y-91442857D01*
X184471428Y-91500000D01*
X194971429Y-89700000D02*
X194400000Y-89700000D01*
X195085714Y-90042857D02*
X194685714Y-88842857D01*
X194285714Y-90042857D01*
X193885715Y-90042857D02*
X193885715Y-88842857D01*
X193200000Y-90042857D01*
X193200000Y-88842857D01*
X192800000Y-88842857D02*
X192114286Y-88842857D01*
X192457143Y-90042857D02*
X192457143Y-88842857D01*
X192000000Y-90157143D02*
X191085714Y-90157143D01*
X190800000Y-90042857D02*
X190800000Y-88842857D01*
X190514285Y-88842857D01*
X190342857Y-88900000D01*
X190228571Y-89014286D01*
X190171428Y-89128571D01*
X190114285Y-89357143D01*
X190114285Y-89528571D01*
X190171428Y-89757143D01*
X190228571Y-89871429D01*
X190342857Y-89985714D01*
X190514285Y-90042857D01*
X190800000Y-90042857D01*
X189600000Y-89414286D02*
X189200000Y-89414286D01*
X189028571Y-90042857D02*
X189600000Y-90042857D01*
X189600000Y-88842857D01*
X189028571Y-88842857D01*
X188514286Y-90042857D02*
X188514286Y-88842857D01*
X188057143Y-88842857D01*
X187942857Y-88900000D01*
X187885714Y-88957143D01*
X187828571Y-89071429D01*
X187828571Y-89242857D01*
X187885714Y-89357143D01*
X187942857Y-89414286D01*
X188057143Y-89471429D01*
X188514286Y-89471429D01*
X186742857Y-90042857D02*
X187314286Y-90042857D01*
X187314286Y-88842857D01*
X186114285Y-88842857D02*
X185885714Y-88842857D01*
X185771428Y-88900000D01*
X185657142Y-89014286D01*
X185600000Y-89242857D01*
X185600000Y-89642857D01*
X185657142Y-89871429D01*
X185771428Y-89985714D01*
X185885714Y-90042857D01*
X186114285Y-90042857D01*
X186228571Y-89985714D01*
X186342857Y-89871429D01*
X186400000Y-89642857D01*
X186400000Y-89242857D01*
X186342857Y-89014286D01*
X186228571Y-88900000D01*
X186114285Y-88842857D01*
X184857142Y-89471429D02*
X184857142Y-90042857D01*
X185257142Y-88842857D02*
X184857142Y-89471429D01*
X184457142Y-88842857D01*
X191028571Y-87442857D02*
X191428571Y-86871429D01*
X191714286Y-87442857D02*
X191714286Y-86242857D01*
X191257143Y-86242857D01*
X191142857Y-86300000D01*
X191085714Y-86357143D01*
X191028571Y-86471429D01*
X191028571Y-86642857D01*
X191085714Y-86757143D01*
X191142857Y-86814286D01*
X191257143Y-86871429D01*
X191714286Y-86871429D01*
X190114286Y-86814286D02*
X190514286Y-86814286D01*
X190514286Y-87442857D02*
X190514286Y-86242857D01*
X189942857Y-86242857D01*
X189771429Y-87557143D02*
X188857143Y-87557143D01*
X188628572Y-87100000D02*
X188057143Y-87100000D01*
X188742857Y-87442857D02*
X188342857Y-86242857D01*
X187942857Y-87442857D01*
X187542858Y-87442857D02*
X187542858Y-86242857D01*
X187257143Y-86242857D01*
X187085715Y-86300000D01*
X186971429Y-86414286D01*
X186914286Y-86528571D01*
X186857143Y-86757143D01*
X186857143Y-86928571D01*
X186914286Y-87157143D01*
X186971429Y-87271429D01*
X187085715Y-87385714D01*
X187257143Y-87442857D01*
X187542858Y-87442857D01*
X185657143Y-87328571D02*
X185714286Y-87385714D01*
X185885715Y-87442857D01*
X186000001Y-87442857D01*
X186171429Y-87385714D01*
X186285715Y-87271429D01*
X186342858Y-87157143D01*
X186400001Y-86928571D01*
X186400001Y-86757143D01*
X186342858Y-86528571D01*
X186285715Y-86414286D01*
X186171429Y-86300000D01*
X186000001Y-86242857D01*
X185885715Y-86242857D01*
X185714286Y-86300000D01*
X185657143Y-86357143D01*
X184514286Y-87442857D02*
X185200001Y-87442857D01*
X184857143Y-87442857D02*
X184857143Y-86242857D01*
X184971429Y-86414286D01*
X185085715Y-86528571D01*
X185200001Y-86585714D01*
X191028571Y-84942857D02*
X191428571Y-84371429D01*
X191714286Y-84942857D02*
X191714286Y-83742857D01*
X191257143Y-83742857D01*
X191142857Y-83800000D01*
X191085714Y-83857143D01*
X191028571Y-83971429D01*
X191028571Y-84142857D01*
X191085714Y-84257143D01*
X191142857Y-84314286D01*
X191257143Y-84371429D01*
X191714286Y-84371429D01*
X190114286Y-84314286D02*
X190514286Y-84314286D01*
X190514286Y-84942857D02*
X190514286Y-83742857D01*
X189942857Y-83742857D01*
X189771429Y-85057143D02*
X188857143Y-85057143D01*
X188628572Y-84600000D02*
X188057143Y-84600000D01*
X188742857Y-84942857D02*
X188342857Y-83742857D01*
X187942857Y-84942857D01*
X187542858Y-84942857D02*
X187542858Y-83742857D01*
X187257143Y-83742857D01*
X187085715Y-83800000D01*
X186971429Y-83914286D01*
X186914286Y-84028571D01*
X186857143Y-84257143D01*
X186857143Y-84428571D01*
X186914286Y-84657143D01*
X186971429Y-84771429D01*
X187085715Y-84885714D01*
X187257143Y-84942857D01*
X187542858Y-84942857D01*
X185657143Y-84828571D02*
X185714286Y-84885714D01*
X185885715Y-84942857D01*
X186000001Y-84942857D01*
X186171429Y-84885714D01*
X186285715Y-84771429D01*
X186342858Y-84657143D01*
X186400001Y-84428571D01*
X186400001Y-84257143D01*
X186342858Y-84028571D01*
X186285715Y-83914286D01*
X186171429Y-83800000D01*
X186000001Y-83742857D01*
X185885715Y-83742857D01*
X185714286Y-83800000D01*
X185657143Y-83857143D01*
X185200001Y-83857143D02*
X185142858Y-83800000D01*
X185028572Y-83742857D01*
X184742858Y-83742857D01*
X184628572Y-83800000D01*
X184571429Y-83857143D01*
X184514286Y-83971429D01*
X184514286Y-84085714D01*
X184571429Y-84257143D01*
X185257143Y-84942857D01*
X184514286Y-84942857D01*
X191528571Y-82342857D02*
X191928571Y-81771429D01*
X192214286Y-82342857D02*
X192214286Y-81142857D01*
X191757143Y-81142857D01*
X191642857Y-81200000D01*
X191585714Y-81257143D01*
X191528571Y-81371429D01*
X191528571Y-81542857D01*
X191585714Y-81657143D01*
X191642857Y-81714286D01*
X191757143Y-81771429D01*
X192214286Y-81771429D01*
X190614286Y-81714286D02*
X191014286Y-81714286D01*
X191014286Y-82342857D02*
X191014286Y-81142857D01*
X190442857Y-81142857D01*
X190271429Y-82457143D02*
X189357143Y-82457143D01*
X189071429Y-82342857D02*
X189071429Y-81142857D01*
X188614286Y-81142857D01*
X188500000Y-81200000D01*
X188442857Y-81257143D01*
X188385714Y-81371429D01*
X188385714Y-81542857D01*
X188442857Y-81657143D01*
X188500000Y-81714286D01*
X188614286Y-81771429D01*
X189071429Y-81771429D01*
X187985714Y-81142857D02*
X187700000Y-82342857D01*
X187471429Y-81485714D01*
X187242857Y-82342857D01*
X186957143Y-81142857D01*
X186500000Y-82342857D02*
X186500000Y-81142857D01*
X186100000Y-82000000D01*
X185700000Y-81142857D01*
X185700000Y-82342857D01*
X184499999Y-82342857D02*
X185185714Y-82342857D01*
X184842856Y-82342857D02*
X184842856Y-81142857D01*
X184957142Y-81314286D01*
X185071428Y-81428571D01*
X185185714Y-81485714D01*
X191528571Y-79842857D02*
X191928571Y-79271429D01*
X192214286Y-79842857D02*
X192214286Y-78642857D01*
X191757143Y-78642857D01*
X191642857Y-78700000D01*
X191585714Y-78757143D01*
X191528571Y-78871429D01*
X191528571Y-79042857D01*
X191585714Y-79157143D01*
X191642857Y-79214286D01*
X191757143Y-79271429D01*
X192214286Y-79271429D01*
X190614286Y-79214286D02*
X191014286Y-79214286D01*
X191014286Y-79842857D02*
X191014286Y-78642857D01*
X190442857Y-78642857D01*
X190271429Y-79957143D02*
X189357143Y-79957143D01*
X189071429Y-79842857D02*
X189071429Y-78642857D01*
X188614286Y-78642857D01*
X188500000Y-78700000D01*
X188442857Y-78757143D01*
X188385714Y-78871429D01*
X188385714Y-79042857D01*
X188442857Y-79157143D01*
X188500000Y-79214286D01*
X188614286Y-79271429D01*
X189071429Y-79271429D01*
X187985714Y-78642857D02*
X187700000Y-79842857D01*
X187471429Y-78985714D01*
X187242857Y-79842857D01*
X186957143Y-78642857D01*
X186500000Y-79842857D02*
X186500000Y-78642857D01*
X186100000Y-79500000D01*
X185700000Y-78642857D01*
X185700000Y-79842857D01*
X185185714Y-78757143D02*
X185128571Y-78700000D01*
X185014285Y-78642857D01*
X184728571Y-78642857D01*
X184614285Y-78700000D01*
X184557142Y-78757143D01*
X184499999Y-78871429D01*
X184499999Y-78985714D01*
X184557142Y-79157143D01*
X185242856Y-79842857D01*
X184499999Y-79842857D01*
X188414286Y-72242857D02*
X188414286Y-71042857D01*
X188014286Y-71900000D01*
X187614286Y-71042857D01*
X187614286Y-72242857D01*
X187042857Y-72242857D02*
X187042857Y-71042857D01*
X186528571Y-72185714D02*
X186357142Y-72242857D01*
X186071428Y-72242857D01*
X185957142Y-72185714D01*
X185899999Y-72128571D01*
X185842856Y-72014286D01*
X185842856Y-71900000D01*
X185899999Y-71785714D01*
X185957142Y-71728571D01*
X186071428Y-71671429D01*
X186299999Y-71614286D01*
X186414285Y-71557143D01*
X186471428Y-71500000D01*
X186528571Y-71385714D01*
X186528571Y-71271429D01*
X186471428Y-71157143D01*
X186414285Y-71100000D01*
X186299999Y-71042857D01*
X186014285Y-71042857D01*
X185842856Y-71100000D01*
X185099999Y-71042857D02*
X184871428Y-71042857D01*
X184757142Y-71100000D01*
X184642856Y-71214286D01*
X184585714Y-71442857D01*
X184585714Y-71842857D01*
X184642856Y-72071429D01*
X184757142Y-72185714D01*
X184871428Y-72242857D01*
X185099999Y-72242857D01*
X185214285Y-72185714D01*
X185328571Y-72071429D01*
X185385714Y-71842857D01*
X185385714Y-71442857D01*
X185328571Y-71214286D01*
X185214285Y-71100000D01*
X185099999Y-71042857D01*
X188514286Y-69742857D02*
X188514286Y-68542857D01*
X188114286Y-69400000D01*
X187714286Y-68542857D01*
X187714286Y-69742857D01*
X186914285Y-68542857D02*
X186685714Y-68542857D01*
X186571428Y-68600000D01*
X186457142Y-68714286D01*
X186400000Y-68942857D01*
X186400000Y-69342857D01*
X186457142Y-69571429D01*
X186571428Y-69685714D01*
X186685714Y-69742857D01*
X186914285Y-69742857D01*
X187028571Y-69685714D01*
X187142857Y-69571429D01*
X187200000Y-69342857D01*
X187200000Y-68942857D01*
X187142857Y-68714286D01*
X187028571Y-68600000D01*
X186914285Y-68542857D01*
X185942857Y-69685714D02*
X185771428Y-69742857D01*
X185485714Y-69742857D01*
X185371428Y-69685714D01*
X185314285Y-69628571D01*
X185257142Y-69514286D01*
X185257142Y-69400000D01*
X185314285Y-69285714D01*
X185371428Y-69228571D01*
X185485714Y-69171429D01*
X185714285Y-69114286D01*
X185828571Y-69057143D01*
X185885714Y-69000000D01*
X185942857Y-68885714D01*
X185942857Y-68771429D01*
X185885714Y-68657143D01*
X185828571Y-68600000D01*
X185714285Y-68542857D01*
X185428571Y-68542857D01*
X185257142Y-68600000D01*
X184742857Y-69742857D02*
X184742857Y-68542857D01*
X186828571Y-67028571D02*
X186885714Y-67085714D01*
X187057143Y-67142857D01*
X187171429Y-67142857D01*
X187342857Y-67085714D01*
X187457143Y-66971429D01*
X187514286Y-66857143D01*
X187571429Y-66628571D01*
X187571429Y-66457143D01*
X187514286Y-66228571D01*
X187457143Y-66114286D01*
X187342857Y-66000000D01*
X187171429Y-65942857D01*
X187057143Y-65942857D01*
X186885714Y-66000000D01*
X186828571Y-66057143D01*
X185742857Y-67142857D02*
X186314286Y-67142857D01*
X186314286Y-65942857D01*
X185342857Y-67142857D02*
X185342857Y-65942857D01*
X184657142Y-67142857D02*
X185171428Y-66457143D01*
X184657142Y-65942857D02*
X185342857Y-66628571D01*
X193014286Y-67771429D02*
X192957143Y-67600000D01*
X192957143Y-67314286D01*
X193014286Y-67200000D01*
X193071429Y-67142857D01*
X193185714Y-67085714D01*
X193300000Y-67085714D01*
X193414286Y-67142857D01*
X193471429Y-67200000D01*
X193528571Y-67314286D01*
X193585714Y-67542857D01*
X193642857Y-67657143D01*
X193700000Y-67714286D01*
X193814286Y-67771429D01*
X193928571Y-67771429D01*
X194042857Y-67714286D01*
X194100000Y-67657143D01*
X194157143Y-67542857D01*
X194157143Y-67257143D01*
X194100000Y-67085714D01*
X192957143Y-66571429D02*
X194157143Y-66571429D01*
X194157143Y-66114286D01*
X194100000Y-66000000D01*
X194042857Y-65942857D01*
X193928571Y-65885714D01*
X193757143Y-65885714D01*
X193642857Y-65942857D01*
X193585714Y-66000000D01*
X193528571Y-66114286D01*
X193528571Y-66571429D01*
X192957143Y-65371429D02*
X194157143Y-65371429D01*
X194157143Y-64228571D02*
X194157143Y-64800000D01*
X193585714Y-64857143D01*
X193642857Y-64800000D01*
X193700000Y-64685714D01*
X193700000Y-64400000D01*
X193642857Y-64285714D01*
X193585714Y-64228571D01*
X193471429Y-64171428D01*
X193185714Y-64171428D01*
X193071429Y-64228571D01*
X193014286Y-64285714D01*
X192957143Y-64400000D01*
X192957143Y-64685714D01*
X193014286Y-64800000D01*
X193071429Y-64857143D01*
X186928571Y-64528571D02*
X186985714Y-64585714D01*
X187157143Y-64642857D01*
X187271429Y-64642857D01*
X187442857Y-64585714D01*
X187557143Y-64471429D01*
X187614286Y-64357143D01*
X187671429Y-64128571D01*
X187671429Y-63957143D01*
X187614286Y-63728571D01*
X187557143Y-63614286D01*
X187442857Y-63500000D01*
X187271429Y-63442857D01*
X187157143Y-63442857D01*
X186985714Y-63500000D01*
X186928571Y-63557143D01*
X186471429Y-64585714D02*
X186300000Y-64642857D01*
X186014286Y-64642857D01*
X185900000Y-64585714D01*
X185842857Y-64528571D01*
X185785714Y-64414286D01*
X185785714Y-64300000D01*
X185842857Y-64185714D01*
X185900000Y-64128571D01*
X186014286Y-64071429D01*
X186242857Y-64014286D01*
X186357143Y-63957143D01*
X186414286Y-63900000D01*
X186471429Y-63785714D01*
X186471429Y-63671429D01*
X186414286Y-63557143D01*
X186357143Y-63500000D01*
X186242857Y-63442857D01*
X185957143Y-63442857D01*
X185785714Y-63500000D01*
X185042857Y-63442857D02*
X184928572Y-63442857D01*
X184814286Y-63500000D01*
X184757143Y-63557143D01*
X184700000Y-63671429D01*
X184642857Y-63900000D01*
X184642857Y-64185714D01*
X184700000Y-64414286D01*
X184757143Y-64528571D01*
X184814286Y-64585714D01*
X184928572Y-64642857D01*
X185042857Y-64642857D01*
X185157143Y-64585714D01*
X185214286Y-64528571D01*
X185271429Y-64414286D01*
X185328572Y-64185714D01*
X185328572Y-63900000D01*
X185271429Y-63671429D01*
X185214286Y-63557143D01*
X185157143Y-63500000D01*
X185042857Y-63442857D01*
X189671429Y-59100000D02*
X189100000Y-59100000D01*
X189785714Y-59442857D02*
X189385714Y-58242857D01*
X188985714Y-59442857D01*
X188585715Y-59442857D02*
X188585715Y-58242857D01*
X188300000Y-58242857D01*
X188128572Y-58300000D01*
X188014286Y-58414286D01*
X187957143Y-58528571D01*
X187900000Y-58757143D01*
X187900000Y-58928571D01*
X187957143Y-59157143D01*
X188014286Y-59271429D01*
X188128572Y-59385714D01*
X188300000Y-59442857D01*
X188585715Y-59442857D01*
X186757143Y-59442857D02*
X187442858Y-59442857D01*
X187100000Y-59442857D02*
X187100000Y-58242857D01*
X187214286Y-58414286D01*
X187328572Y-58528571D01*
X187442858Y-58585714D01*
X186528572Y-59557143D02*
X185614286Y-59557143D01*
X185442857Y-58242857D02*
X184700000Y-58242857D01*
X185100000Y-58700000D01*
X184928572Y-58700000D01*
X184814286Y-58757143D01*
X184757143Y-58814286D01*
X184700000Y-58928571D01*
X184700000Y-59214286D01*
X184757143Y-59328571D01*
X184814286Y-59385714D01*
X184928572Y-59442857D01*
X185271429Y-59442857D01*
X185385715Y-59385714D01*
X185442857Y-59328571D01*
X189671429Y-56600000D02*
X189100000Y-56600000D01*
X189785714Y-56942857D02*
X189385714Y-55742857D01*
X188985714Y-56942857D01*
X188585715Y-56942857D02*
X188585715Y-55742857D01*
X188300000Y-55742857D01*
X188128572Y-55800000D01*
X188014286Y-55914286D01*
X187957143Y-56028571D01*
X187900000Y-56257143D01*
X187900000Y-56428571D01*
X187957143Y-56657143D01*
X188014286Y-56771429D01*
X188128572Y-56885714D01*
X188300000Y-56942857D01*
X188585715Y-56942857D01*
X186757143Y-56942857D02*
X187442858Y-56942857D01*
X187100000Y-56942857D02*
X187100000Y-55742857D01*
X187214286Y-55914286D01*
X187328572Y-56028571D01*
X187442858Y-56085714D01*
X186528572Y-57057143D02*
X185614286Y-57057143D01*
X184814286Y-56142857D02*
X184814286Y-56942857D01*
X185100000Y-55685714D02*
X185385715Y-56542857D01*
X184642857Y-56542857D01*
X189571429Y-54000000D02*
X189000000Y-54000000D01*
X189685714Y-54342857D02*
X189285714Y-53142857D01*
X188885714Y-54342857D01*
X188485715Y-54342857D02*
X188485715Y-53142857D01*
X188200000Y-53142857D01*
X188028572Y-53200000D01*
X187914286Y-53314286D01*
X187857143Y-53428571D01*
X187800000Y-53657143D01*
X187800000Y-53828571D01*
X187857143Y-54057143D01*
X187914286Y-54171429D01*
X188028572Y-54285714D01*
X188200000Y-54342857D01*
X188485715Y-54342857D01*
X186657143Y-54342857D02*
X187342858Y-54342857D01*
X187000000Y-54342857D02*
X187000000Y-53142857D01*
X187114286Y-53314286D01*
X187228572Y-53428571D01*
X187342858Y-53485714D01*
X186428572Y-54457143D02*
X185514286Y-54457143D01*
X184657143Y-53142857D02*
X185228572Y-53142857D01*
X185285715Y-53714286D01*
X185228572Y-53657143D01*
X185114286Y-53600000D01*
X184828572Y-53600000D01*
X184714286Y-53657143D01*
X184657143Y-53714286D01*
X184600000Y-53828571D01*
X184600000Y-54114286D01*
X184657143Y-54228571D01*
X184714286Y-54285714D01*
X184828572Y-54342857D01*
X185114286Y-54342857D01*
X185228572Y-54285714D01*
X185285715Y-54228571D01*
X189571429Y-51500000D02*
X189000000Y-51500000D01*
X189685714Y-51842857D02*
X189285714Y-50642857D01*
X188885714Y-51842857D01*
X188485715Y-51842857D02*
X188485715Y-50642857D01*
X188200000Y-50642857D01*
X188028572Y-50700000D01*
X187914286Y-50814286D01*
X187857143Y-50928571D01*
X187800000Y-51157143D01*
X187800000Y-51328571D01*
X187857143Y-51557143D01*
X187914286Y-51671429D01*
X188028572Y-51785714D01*
X188200000Y-51842857D01*
X188485715Y-51842857D01*
X186657143Y-51842857D02*
X187342858Y-51842857D01*
X187000000Y-51842857D02*
X187000000Y-50642857D01*
X187114286Y-50814286D01*
X187228572Y-50928571D01*
X187342858Y-50985714D01*
X186428572Y-51957143D02*
X185514286Y-51957143D01*
X184714286Y-50642857D02*
X184942857Y-50642857D01*
X185057143Y-50700000D01*
X185114286Y-50757143D01*
X185228572Y-50928571D01*
X185285715Y-51157143D01*
X185285715Y-51614286D01*
X185228572Y-51728571D01*
X185171429Y-51785714D01*
X185057143Y-51842857D01*
X184828572Y-51842857D01*
X184714286Y-51785714D01*
X184657143Y-51728571D01*
X184600000Y-51614286D01*
X184600000Y-51328571D01*
X184657143Y-51214286D01*
X184714286Y-51157143D01*
X184828572Y-51100000D01*
X185057143Y-51100000D01*
X185171429Y-51157143D01*
X185228572Y-51214286D01*
X185285715Y-51328571D01*
X189671429Y-49000000D02*
X189100000Y-49000000D01*
X189785714Y-49342857D02*
X189385714Y-48142857D01*
X188985714Y-49342857D01*
X188585715Y-49342857D02*
X188585715Y-48142857D01*
X188300000Y-48142857D01*
X188128572Y-48200000D01*
X188014286Y-48314286D01*
X187957143Y-48428571D01*
X187900000Y-48657143D01*
X187900000Y-48828571D01*
X187957143Y-49057143D01*
X188014286Y-49171429D01*
X188128572Y-49285714D01*
X188300000Y-49342857D01*
X188585715Y-49342857D01*
X186757143Y-49342857D02*
X187442858Y-49342857D01*
X187100000Y-49342857D02*
X187100000Y-48142857D01*
X187214286Y-48314286D01*
X187328572Y-48428571D01*
X187442858Y-48485714D01*
X186528572Y-49457143D02*
X185614286Y-49457143D01*
X185442857Y-48142857D02*
X184642857Y-48142857D01*
X185157143Y-49342857D01*
X189671429Y-46400000D02*
X189100000Y-46400000D01*
X189785714Y-46742857D02*
X189385714Y-45542857D01*
X188985714Y-46742857D01*
X188585715Y-46742857D02*
X188585715Y-45542857D01*
X188300000Y-45542857D01*
X188128572Y-45600000D01*
X188014286Y-45714286D01*
X187957143Y-45828571D01*
X187900000Y-46057143D01*
X187900000Y-46228571D01*
X187957143Y-46457143D01*
X188014286Y-46571429D01*
X188128572Y-46685714D01*
X188300000Y-46742857D01*
X188585715Y-46742857D01*
X186757143Y-46742857D02*
X187442858Y-46742857D01*
X187100000Y-46742857D02*
X187100000Y-45542857D01*
X187214286Y-45714286D01*
X187328572Y-45828571D01*
X187442858Y-45885714D01*
X186528572Y-46857143D02*
X185614286Y-46857143D01*
X185157143Y-46057143D02*
X185271429Y-46000000D01*
X185328572Y-45942857D01*
X185385715Y-45828571D01*
X185385715Y-45771429D01*
X185328572Y-45657143D01*
X185271429Y-45600000D01*
X185157143Y-45542857D01*
X184928572Y-45542857D01*
X184814286Y-45600000D01*
X184757143Y-45657143D01*
X184700000Y-45771429D01*
X184700000Y-45828571D01*
X184757143Y-45942857D01*
X184814286Y-46000000D01*
X184928572Y-46057143D01*
X185157143Y-46057143D01*
X185271429Y-46114286D01*
X185328572Y-46171429D01*
X185385715Y-46285714D01*
X185385715Y-46514286D01*
X185328572Y-46628571D01*
X185271429Y-46685714D01*
X185157143Y-46742857D01*
X184928572Y-46742857D01*
X184814286Y-46685714D01*
X184757143Y-46628571D01*
X184700000Y-46514286D01*
X184700000Y-46285714D01*
X184757143Y-46171429D01*
X184814286Y-46114286D01*
X184928572Y-46057143D01*
X189471429Y-43900000D02*
X188900000Y-43900000D01*
X189585714Y-44242857D02*
X189185714Y-43042857D01*
X188785714Y-44242857D01*
X188385715Y-44242857D02*
X188385715Y-43042857D01*
X188100000Y-43042857D01*
X187928572Y-43100000D01*
X187814286Y-43214286D01*
X187757143Y-43328571D01*
X187700000Y-43557143D01*
X187700000Y-43728571D01*
X187757143Y-43957143D01*
X187814286Y-44071429D01*
X187928572Y-44185714D01*
X188100000Y-44242857D01*
X188385715Y-44242857D01*
X186557143Y-44242857D02*
X187242858Y-44242857D01*
X186900000Y-44242857D02*
X186900000Y-43042857D01*
X187014286Y-43214286D01*
X187128572Y-43328571D01*
X187242858Y-43385714D01*
X186328572Y-44357143D02*
X185414286Y-44357143D01*
X185071429Y-44242857D02*
X184842857Y-44242857D01*
X184728572Y-44185714D01*
X184671429Y-44128571D01*
X184557143Y-43957143D01*
X184500000Y-43728571D01*
X184500000Y-43271429D01*
X184557143Y-43157143D01*
X184614286Y-43100000D01*
X184728572Y-43042857D01*
X184957143Y-43042857D01*
X185071429Y-43100000D01*
X185128572Y-43157143D01*
X185185715Y-43271429D01*
X185185715Y-43557143D01*
X185128572Y-43671429D01*
X185071429Y-43728571D01*
X184957143Y-43785714D01*
X184728572Y-43785714D01*
X184614286Y-43728571D01*
X184557143Y-43671429D01*
X184500000Y-43557143D01*
X190571429Y-41400000D02*
X190000000Y-41400000D01*
X190685714Y-41742857D02*
X190285714Y-40542857D01*
X189885714Y-41742857D01*
X189485715Y-41742857D02*
X189485715Y-40542857D01*
X189200000Y-40542857D01*
X189028572Y-40600000D01*
X188914286Y-40714286D01*
X188857143Y-40828571D01*
X188800000Y-41057143D01*
X188800000Y-41228571D01*
X188857143Y-41457143D01*
X188914286Y-41571429D01*
X189028572Y-41685714D01*
X189200000Y-41742857D01*
X189485715Y-41742857D01*
X187657143Y-41742857D02*
X188342858Y-41742857D01*
X188000000Y-41742857D02*
X188000000Y-40542857D01*
X188114286Y-40714286D01*
X188228572Y-40828571D01*
X188342858Y-40885714D01*
X187428572Y-41857143D02*
X186514286Y-41857143D01*
X185600000Y-41742857D02*
X186285715Y-41742857D01*
X185942857Y-41742857D02*
X185942857Y-40542857D01*
X186057143Y-40714286D01*
X186171429Y-40828571D01*
X186285715Y-40885714D01*
X184857143Y-40542857D02*
X184742858Y-40542857D01*
X184628572Y-40600000D01*
X184571429Y-40657143D01*
X184514286Y-40771429D01*
X184457143Y-41000000D01*
X184457143Y-41285714D01*
X184514286Y-41514286D01*
X184571429Y-41628571D01*
X184628572Y-41685714D01*
X184742858Y-41742857D01*
X184857143Y-41742857D01*
X184971429Y-41685714D01*
X185028572Y-41628571D01*
X185085715Y-41514286D01*
X185142858Y-41285714D01*
X185142858Y-41000000D01*
X185085715Y-40771429D01*
X185028572Y-40657143D01*
X184971429Y-40600000D01*
X184857143Y-40542857D01*
X184785714Y-22600000D02*
X184900000Y-22542857D01*
X185071429Y-22542857D01*
X185242857Y-22600000D01*
X185357143Y-22714286D01*
X185414286Y-22828571D01*
X185471429Y-23057143D01*
X185471429Y-23228571D01*
X185414286Y-23457143D01*
X185357143Y-23571429D01*
X185242857Y-23685714D01*
X185071429Y-23742857D01*
X184957143Y-23742857D01*
X184785714Y-23685714D01*
X184728571Y-23628571D01*
X184728571Y-23228571D01*
X184957143Y-23228571D01*
X184214286Y-23742857D02*
X184214286Y-22542857D01*
X183528571Y-23742857D01*
X183528571Y-22542857D01*
X182957143Y-23742857D02*
X182957143Y-22542857D01*
X182671428Y-22542857D01*
X182500000Y-22600000D01*
X182385714Y-22714286D01*
X182328571Y-22828571D01*
X182271428Y-23057143D01*
X182271428Y-23228571D01*
X182328571Y-23457143D01*
X182385714Y-23571429D01*
X182500000Y-23685714D01*
X182671428Y-23742857D01*
X182957143Y-23742857D01*
X179299999Y-22600000D02*
X179414285Y-22542857D01*
X179585714Y-22542857D01*
X179757142Y-22600000D01*
X179871428Y-22714286D01*
X179928571Y-22828571D01*
X179985714Y-23057143D01*
X179985714Y-23228571D01*
X179928571Y-23457143D01*
X179871428Y-23571429D01*
X179757142Y-23685714D01*
X179585714Y-23742857D01*
X179471428Y-23742857D01*
X179299999Y-23685714D01*
X179242856Y-23628571D01*
X179242856Y-23228571D01*
X179471428Y-23228571D01*
X178728571Y-23742857D02*
X178728571Y-22542857D01*
X178042856Y-23742857D01*
X178042856Y-22542857D01*
X177471428Y-23742857D02*
X177471428Y-22542857D01*
X177185713Y-22542857D01*
X177014285Y-22600000D01*
X176899999Y-22714286D01*
X176842856Y-22828571D01*
X176785713Y-23057143D01*
X176785713Y-23228571D01*
X176842856Y-23457143D01*
X176899999Y-23571429D01*
X177014285Y-23685714D01*
X177185713Y-23742857D01*
X177471428Y-23742857D01*
X177585714Y-27500000D02*
X177700000Y-27442857D01*
X177871429Y-27442857D01*
X178042857Y-27500000D01*
X178157143Y-27614286D01*
X178214286Y-27728571D01*
X178271429Y-27957143D01*
X178271429Y-28128571D01*
X178214286Y-28357143D01*
X178157143Y-28471429D01*
X178042857Y-28585714D01*
X177871429Y-28642857D01*
X177757143Y-28642857D01*
X177585714Y-28585714D01*
X177528571Y-28528571D01*
X177528571Y-28128571D01*
X177757143Y-28128571D01*
X177014286Y-28642857D02*
X177014286Y-27442857D01*
X176328571Y-28642857D01*
X176328571Y-27442857D01*
X175757143Y-28642857D02*
X175757143Y-27442857D01*
X175471428Y-27442857D01*
X175300000Y-27500000D01*
X175185714Y-27614286D01*
X175128571Y-27728571D01*
X175071428Y-27957143D01*
X175071428Y-28128571D01*
X175128571Y-28357143D01*
X175185714Y-28471429D01*
X175300000Y-28585714D01*
X175471428Y-28642857D01*
X175757143Y-28642857D01*
X177342857Y-32842857D02*
X177914286Y-32842857D01*
X177971429Y-33414286D01*
X177914286Y-33357143D01*
X177800000Y-33300000D01*
X177514286Y-33300000D01*
X177400000Y-33357143D01*
X177342857Y-33414286D01*
X177285714Y-33528571D01*
X177285714Y-33814286D01*
X177342857Y-33928571D01*
X177400000Y-33985714D01*
X177514286Y-34042857D01*
X177800000Y-34042857D01*
X177914286Y-33985714D01*
X177971429Y-33928571D01*
X176942857Y-32842857D02*
X176542857Y-34042857D01*
X176142857Y-32842857D01*
X171614286Y-52042857D02*
X171614286Y-50842857D01*
X170928571Y-52042857D01*
X170928571Y-50842857D01*
X170357143Y-52042857D02*
X170357143Y-50842857D01*
X170357143Y-51414286D02*
X169671428Y-51414286D01*
X169671428Y-52042857D02*
X169671428Y-50842857D01*
X169100000Y-51414286D02*
X168700000Y-51414286D01*
X168528571Y-52042857D02*
X169100000Y-52042857D01*
X169100000Y-50842857D01*
X168528571Y-50842857D01*
X168185714Y-50842857D02*
X167500000Y-50842857D01*
X167842857Y-52042857D02*
X167842857Y-50842857D01*
X166471428Y-52042857D02*
X167157143Y-52042857D01*
X166814285Y-52042857D02*
X166814285Y-50842857D01*
X166928571Y-51014286D01*
X167042857Y-51128571D01*
X167157143Y-51185714D01*
X166242857Y-52157143D02*
X165328571Y-52157143D01*
X165100000Y-50957143D02*
X165042857Y-50900000D01*
X164928571Y-50842857D01*
X164642857Y-50842857D01*
X164528571Y-50900000D01*
X164471428Y-50957143D01*
X164414285Y-51071429D01*
X164414285Y-51185714D01*
X164471428Y-51357143D01*
X165157142Y-52042857D01*
X164414285Y-52042857D01*
X163385714Y-50842857D02*
X163614285Y-50842857D01*
X163728571Y-50900000D01*
X163785714Y-50957143D01*
X163900000Y-51128571D01*
X163957143Y-51357143D01*
X163957143Y-51814286D01*
X163900000Y-51928571D01*
X163842857Y-51985714D01*
X163728571Y-52042857D01*
X163500000Y-52042857D01*
X163385714Y-51985714D01*
X163328571Y-51928571D01*
X163271428Y-51814286D01*
X163271428Y-51528571D01*
X163328571Y-51414286D01*
X163385714Y-51357143D01*
X163500000Y-51300000D01*
X163728571Y-51300000D01*
X163842857Y-51357143D01*
X163900000Y-51414286D01*
X163957143Y-51528571D01*
X165814286Y-54342857D02*
X165814286Y-53142857D01*
X165128571Y-54342857D01*
X165128571Y-53142857D01*
X164557143Y-54342857D02*
X164557143Y-53142857D01*
X164557143Y-53714286D02*
X163871428Y-53714286D01*
X163871428Y-54342857D02*
X163871428Y-53142857D01*
X163300000Y-53714286D02*
X162900000Y-53714286D01*
X162728571Y-54342857D02*
X163300000Y-54342857D01*
X163300000Y-53142857D01*
X162728571Y-53142857D01*
X162385714Y-53142857D02*
X161700000Y-53142857D01*
X162042857Y-54342857D02*
X162042857Y-53142857D01*
X160671428Y-54342857D02*
X161357143Y-54342857D01*
X161014285Y-54342857D02*
X161014285Y-53142857D01*
X161128571Y-53314286D01*
X161242857Y-53428571D01*
X161357143Y-53485714D01*
X160442857Y-54457143D02*
X159528571Y-54457143D01*
X159300000Y-53257143D02*
X159242857Y-53200000D01*
X159128571Y-53142857D01*
X158842857Y-53142857D01*
X158728571Y-53200000D01*
X158671428Y-53257143D01*
X158614285Y-53371429D01*
X158614285Y-53485714D01*
X158671428Y-53657143D01*
X159357142Y-54342857D01*
X158614285Y-54342857D01*
X158157143Y-53257143D02*
X158100000Y-53200000D01*
X157985714Y-53142857D01*
X157700000Y-53142857D01*
X157585714Y-53200000D01*
X157528571Y-53257143D01*
X157471428Y-53371429D01*
X157471428Y-53485714D01*
X157528571Y-53657143D01*
X158214285Y-54342857D01*
X157471428Y-54342857D01*
X165714286Y-56842857D02*
X165714286Y-55642857D01*
X165028571Y-56842857D01*
X165028571Y-55642857D01*
X164457143Y-56842857D02*
X164457143Y-55642857D01*
X164457143Y-56214286D02*
X163771428Y-56214286D01*
X163771428Y-56842857D02*
X163771428Y-55642857D01*
X163200000Y-56214286D02*
X162800000Y-56214286D01*
X162628571Y-56842857D02*
X163200000Y-56842857D01*
X163200000Y-55642857D01*
X162628571Y-55642857D01*
X162285714Y-55642857D02*
X161600000Y-55642857D01*
X161942857Y-56842857D02*
X161942857Y-55642857D01*
X160571428Y-56842857D02*
X161257143Y-56842857D01*
X160914285Y-56842857D02*
X160914285Y-55642857D01*
X161028571Y-55814286D01*
X161142857Y-55928571D01*
X161257143Y-55985714D01*
X160342857Y-56957143D02*
X159428571Y-56957143D01*
X159257142Y-55642857D02*
X158457142Y-55642857D01*
X158971428Y-56842857D01*
X177814286Y-59442857D02*
X177814286Y-58242857D01*
X177128571Y-59442857D01*
X177128571Y-58242857D01*
X176557143Y-59442857D02*
X176557143Y-58242857D01*
X176557143Y-58814286D02*
X175871428Y-58814286D01*
X175871428Y-59442857D02*
X175871428Y-58242857D01*
X175300000Y-58814286D02*
X174900000Y-58814286D01*
X174728571Y-59442857D02*
X175300000Y-59442857D01*
X175300000Y-58242857D01*
X174728571Y-58242857D01*
X174385714Y-58242857D02*
X173700000Y-58242857D01*
X174042857Y-59442857D02*
X174042857Y-58242857D01*
X172671428Y-59442857D02*
X173357143Y-59442857D01*
X173014285Y-59442857D02*
X173014285Y-58242857D01*
X173128571Y-58414286D01*
X173242857Y-58528571D01*
X173357143Y-58585714D01*
X172442857Y-59557143D02*
X171528571Y-59557143D01*
X170728571Y-58642857D02*
X170728571Y-59442857D01*
X171014285Y-58185714D02*
X171300000Y-59042857D01*
X170557142Y-59042857D01*
X178271429Y-61885714D02*
X178100000Y-61942857D01*
X177814286Y-61942857D01*
X177700000Y-61885714D01*
X177642857Y-61828571D01*
X177585714Y-61714286D01*
X177585714Y-61600000D01*
X177642857Y-61485714D01*
X177700000Y-61428571D01*
X177814286Y-61371429D01*
X178042857Y-61314286D01*
X178157143Y-61257143D01*
X178214286Y-61200000D01*
X178271429Y-61085714D01*
X178271429Y-60971429D01*
X178214286Y-60857143D01*
X178157143Y-60800000D01*
X178042857Y-60742857D01*
X177757143Y-60742857D01*
X177585714Y-60800000D01*
X176385714Y-61828571D02*
X176442857Y-61885714D01*
X176614286Y-61942857D01*
X176728572Y-61942857D01*
X176900000Y-61885714D01*
X177014286Y-61771429D01*
X177071429Y-61657143D01*
X177128572Y-61428571D01*
X177128572Y-61257143D01*
X177071429Y-61028571D01*
X177014286Y-60914286D01*
X176900000Y-60800000D01*
X176728572Y-60742857D01*
X176614286Y-60742857D01*
X176442857Y-60800000D01*
X176385714Y-60857143D01*
X175300000Y-61942857D02*
X175871429Y-61942857D01*
X175871429Y-60742857D01*
X178271429Y-64585714D02*
X178100000Y-64642857D01*
X177814286Y-64642857D01*
X177700000Y-64585714D01*
X177642857Y-64528571D01*
X177585714Y-64414286D01*
X177585714Y-64300000D01*
X177642857Y-64185714D01*
X177700000Y-64128571D01*
X177814286Y-64071429D01*
X178042857Y-64014286D01*
X178157143Y-63957143D01*
X178214286Y-63900000D01*
X178271429Y-63785714D01*
X178271429Y-63671429D01*
X178214286Y-63557143D01*
X178157143Y-63500000D01*
X178042857Y-63442857D01*
X177757143Y-63442857D01*
X177585714Y-63500000D01*
X177071429Y-64642857D02*
X177071429Y-63442857D01*
X176785714Y-63442857D01*
X176614286Y-63500000D01*
X176500000Y-63614286D01*
X176442857Y-63728571D01*
X176385714Y-63957143D01*
X176385714Y-64128571D01*
X176442857Y-64357143D01*
X176500000Y-64471429D01*
X176614286Y-64585714D01*
X176785714Y-64642857D01*
X177071429Y-64642857D01*
X175928572Y-64300000D02*
X175357143Y-64300000D01*
X176042857Y-64642857D02*
X175642857Y-63442857D01*
X175242857Y-64642857D01*
X177185714Y-76200000D02*
X177300000Y-76142857D01*
X177471429Y-76142857D01*
X177642857Y-76200000D01*
X177757143Y-76314286D01*
X177814286Y-76428571D01*
X177871429Y-76657143D01*
X177871429Y-76828571D01*
X177814286Y-77057143D01*
X177757143Y-77171429D01*
X177642857Y-77285714D01*
X177471429Y-77342857D01*
X177357143Y-77342857D01*
X177185714Y-77285714D01*
X177128571Y-77228571D01*
X177128571Y-76828571D01*
X177357143Y-76828571D01*
X176614286Y-77342857D02*
X176614286Y-76142857D01*
X175814285Y-76142857D02*
X175585714Y-76142857D01*
X175471428Y-76200000D01*
X175357142Y-76314286D01*
X175300000Y-76542857D01*
X175300000Y-76942857D01*
X175357142Y-77171429D01*
X175471428Y-77285714D01*
X175585714Y-77342857D01*
X175814285Y-77342857D01*
X175928571Y-77285714D01*
X176042857Y-77171429D01*
X176100000Y-76942857D01*
X176100000Y-76542857D01*
X176042857Y-76314286D01*
X175928571Y-76200000D01*
X175814285Y-76142857D01*
X174385714Y-76714286D02*
X174214285Y-76771429D01*
X174157142Y-76828571D01*
X174099999Y-76942857D01*
X174099999Y-77114286D01*
X174157142Y-77228571D01*
X174214285Y-77285714D01*
X174328571Y-77342857D01*
X174785714Y-77342857D01*
X174785714Y-76142857D01*
X174385714Y-76142857D01*
X174271428Y-76200000D01*
X174214285Y-76257143D01*
X174157142Y-76371429D01*
X174157142Y-76485714D01*
X174214285Y-76600000D01*
X174271428Y-76657143D01*
X174385714Y-76714286D01*
X174785714Y-76714286D01*
X173699999Y-76142857D02*
X172957142Y-76142857D01*
X173357142Y-76600000D01*
X173185714Y-76600000D01*
X173071428Y-76657143D01*
X173014285Y-76714286D01*
X172957142Y-76828571D01*
X172957142Y-77114286D01*
X173014285Y-77228571D01*
X173071428Y-77285714D01*
X173185714Y-77342857D01*
X173528571Y-77342857D01*
X173642857Y-77285714D01*
X173699999Y-77228571D01*
X177185714Y-78700000D02*
X177300000Y-78642857D01*
X177471429Y-78642857D01*
X177642857Y-78700000D01*
X177757143Y-78814286D01*
X177814286Y-78928571D01*
X177871429Y-79157143D01*
X177871429Y-79328571D01*
X177814286Y-79557143D01*
X177757143Y-79671429D01*
X177642857Y-79785714D01*
X177471429Y-79842857D01*
X177357143Y-79842857D01*
X177185714Y-79785714D01*
X177128571Y-79728571D01*
X177128571Y-79328571D01*
X177357143Y-79328571D01*
X176614286Y-79842857D02*
X176614286Y-78642857D01*
X175814285Y-78642857D02*
X175585714Y-78642857D01*
X175471428Y-78700000D01*
X175357142Y-78814286D01*
X175300000Y-79042857D01*
X175300000Y-79442857D01*
X175357142Y-79671429D01*
X175471428Y-79785714D01*
X175585714Y-79842857D01*
X175814285Y-79842857D01*
X175928571Y-79785714D01*
X176042857Y-79671429D01*
X176100000Y-79442857D01*
X176100000Y-79042857D01*
X176042857Y-78814286D01*
X175928571Y-78700000D01*
X175814285Y-78642857D01*
X174385714Y-79214286D02*
X174214285Y-79271429D01*
X174157142Y-79328571D01*
X174099999Y-79442857D01*
X174099999Y-79614286D01*
X174157142Y-79728571D01*
X174214285Y-79785714D01*
X174328571Y-79842857D01*
X174785714Y-79842857D01*
X174785714Y-78642857D01*
X174385714Y-78642857D01*
X174271428Y-78700000D01*
X174214285Y-78757143D01*
X174157142Y-78871429D01*
X174157142Y-78985714D01*
X174214285Y-79100000D01*
X174271428Y-79157143D01*
X174385714Y-79214286D01*
X174785714Y-79214286D01*
X173642857Y-78757143D02*
X173585714Y-78700000D01*
X173471428Y-78642857D01*
X173185714Y-78642857D01*
X173071428Y-78700000D01*
X173014285Y-78757143D01*
X172957142Y-78871429D01*
X172957142Y-78985714D01*
X173014285Y-79157143D01*
X173699999Y-79842857D01*
X172957142Y-79842857D01*
X177185714Y-81300000D02*
X177300000Y-81242857D01*
X177471429Y-81242857D01*
X177642857Y-81300000D01*
X177757143Y-81414286D01*
X177814286Y-81528571D01*
X177871429Y-81757143D01*
X177871429Y-81928571D01*
X177814286Y-82157143D01*
X177757143Y-82271429D01*
X177642857Y-82385714D01*
X177471429Y-82442857D01*
X177357143Y-82442857D01*
X177185714Y-82385714D01*
X177128571Y-82328571D01*
X177128571Y-81928571D01*
X177357143Y-81928571D01*
X176614286Y-82442857D02*
X176614286Y-81242857D01*
X175814285Y-81242857D02*
X175585714Y-81242857D01*
X175471428Y-81300000D01*
X175357142Y-81414286D01*
X175300000Y-81642857D01*
X175300000Y-82042857D01*
X175357142Y-82271429D01*
X175471428Y-82385714D01*
X175585714Y-82442857D01*
X175814285Y-82442857D01*
X175928571Y-82385714D01*
X176042857Y-82271429D01*
X176100000Y-82042857D01*
X176100000Y-81642857D01*
X176042857Y-81414286D01*
X175928571Y-81300000D01*
X175814285Y-81242857D01*
X174385714Y-81814286D02*
X174214285Y-81871429D01*
X174157142Y-81928571D01*
X174099999Y-82042857D01*
X174099999Y-82214286D01*
X174157142Y-82328571D01*
X174214285Y-82385714D01*
X174328571Y-82442857D01*
X174785714Y-82442857D01*
X174785714Y-81242857D01*
X174385714Y-81242857D01*
X174271428Y-81300000D01*
X174214285Y-81357143D01*
X174157142Y-81471429D01*
X174157142Y-81585714D01*
X174214285Y-81700000D01*
X174271428Y-81757143D01*
X174385714Y-81814286D01*
X174785714Y-81814286D01*
X172957142Y-82442857D02*
X173642857Y-82442857D01*
X173299999Y-82442857D02*
X173299999Y-81242857D01*
X173414285Y-81414286D01*
X173528571Y-81528571D01*
X173642857Y-81585714D01*
X177185714Y-86100000D02*
X177300000Y-86042857D01*
X177471429Y-86042857D01*
X177642857Y-86100000D01*
X177757143Y-86214286D01*
X177814286Y-86328571D01*
X177871429Y-86557143D01*
X177871429Y-86728571D01*
X177814286Y-86957143D01*
X177757143Y-87071429D01*
X177642857Y-87185714D01*
X177471429Y-87242857D01*
X177357143Y-87242857D01*
X177185714Y-87185714D01*
X177128571Y-87128571D01*
X177128571Y-86728571D01*
X177357143Y-86728571D01*
X176614286Y-87242857D02*
X176614286Y-86042857D01*
X175814285Y-86042857D02*
X175585714Y-86042857D01*
X175471428Y-86100000D01*
X175357142Y-86214286D01*
X175300000Y-86442857D01*
X175300000Y-86842857D01*
X175357142Y-87071429D01*
X175471428Y-87185714D01*
X175585714Y-87242857D01*
X175814285Y-87242857D01*
X175928571Y-87185714D01*
X176042857Y-87071429D01*
X176100000Y-86842857D01*
X176100000Y-86442857D01*
X176042857Y-86214286D01*
X175928571Y-86100000D01*
X175814285Y-86042857D01*
X174842857Y-86900000D02*
X174271428Y-86900000D01*
X174957142Y-87242857D02*
X174557142Y-86042857D01*
X174157142Y-87242857D01*
X173128571Y-87242857D02*
X173814286Y-87242857D01*
X173471428Y-87242857D02*
X173471428Y-86042857D01*
X173585714Y-86214286D01*
X173700000Y-86328571D01*
X173814286Y-86385714D01*
X177185714Y-88800000D02*
X177300000Y-88742857D01*
X177471429Y-88742857D01*
X177642857Y-88800000D01*
X177757143Y-88914286D01*
X177814286Y-89028571D01*
X177871429Y-89257143D01*
X177871429Y-89428571D01*
X177814286Y-89657143D01*
X177757143Y-89771429D01*
X177642857Y-89885714D01*
X177471429Y-89942857D01*
X177357143Y-89942857D01*
X177185714Y-89885714D01*
X177128571Y-89828571D01*
X177128571Y-89428571D01*
X177357143Y-89428571D01*
X176614286Y-89942857D02*
X176614286Y-88742857D01*
X175814285Y-88742857D02*
X175585714Y-88742857D01*
X175471428Y-88800000D01*
X175357142Y-88914286D01*
X175300000Y-89142857D01*
X175300000Y-89542857D01*
X175357142Y-89771429D01*
X175471428Y-89885714D01*
X175585714Y-89942857D01*
X175814285Y-89942857D01*
X175928571Y-89885714D01*
X176042857Y-89771429D01*
X176100000Y-89542857D01*
X176100000Y-89142857D01*
X176042857Y-88914286D01*
X175928571Y-88800000D01*
X175814285Y-88742857D01*
X174842857Y-89600000D02*
X174271428Y-89600000D01*
X174957142Y-89942857D02*
X174557142Y-88742857D01*
X174157142Y-89942857D01*
X173528571Y-88742857D02*
X173414286Y-88742857D01*
X173300000Y-88800000D01*
X173242857Y-88857143D01*
X173185714Y-88971429D01*
X173128571Y-89200000D01*
X173128571Y-89485714D01*
X173185714Y-89714286D01*
X173242857Y-89828571D01*
X173300000Y-89885714D01*
X173414286Y-89942857D01*
X173528571Y-89942857D01*
X173642857Y-89885714D01*
X173700000Y-89828571D01*
X173757143Y-89714286D01*
X173814286Y-89485714D01*
X173814286Y-89200000D01*
X173757143Y-88971429D01*
X173700000Y-88857143D01*
X173642857Y-88800000D01*
X173528571Y-88742857D01*
X177785714Y-91342857D02*
X177100000Y-91342857D01*
X177442857Y-92542857D02*
X177442857Y-91342857D01*
X176814285Y-91342857D02*
X176014285Y-92542857D01*
X176014285Y-91342857D02*
X176814285Y-92542857D01*
X177328571Y-95042857D02*
X177728571Y-94471429D01*
X178014286Y-95042857D02*
X178014286Y-93842857D01*
X177557143Y-93842857D01*
X177442857Y-93900000D01*
X177385714Y-93957143D01*
X177328571Y-94071429D01*
X177328571Y-94242857D01*
X177385714Y-94357143D01*
X177442857Y-94414286D01*
X177557143Y-94471429D01*
X178014286Y-94471429D01*
X176928571Y-93842857D02*
X176128571Y-95042857D01*
X176128571Y-93842857D02*
X176928571Y-95042857D01*
X177342857Y-98942857D02*
X177914286Y-98942857D01*
X177971429Y-99514286D01*
X177914286Y-99457143D01*
X177800000Y-99400000D01*
X177514286Y-99400000D01*
X177400000Y-99457143D01*
X177342857Y-99514286D01*
X177285714Y-99628571D01*
X177285714Y-99914286D01*
X177342857Y-100028571D01*
X177400000Y-100085714D01*
X177514286Y-100142857D01*
X177800000Y-100142857D01*
X177914286Y-100085714D01*
X177971429Y-100028571D01*
X176942857Y-98942857D02*
X176542857Y-100142857D01*
X176142857Y-98942857D01*
X177285714Y-104000000D02*
X177400000Y-103942857D01*
X177571429Y-103942857D01*
X177742857Y-104000000D01*
X177857143Y-104114286D01*
X177914286Y-104228571D01*
X177971429Y-104457143D01*
X177971429Y-104628571D01*
X177914286Y-104857143D01*
X177857143Y-104971429D01*
X177742857Y-105085714D01*
X177571429Y-105142857D01*
X177457143Y-105142857D01*
X177285714Y-105085714D01*
X177228571Y-105028571D01*
X177228571Y-104628571D01*
X177457143Y-104628571D01*
X176714286Y-105142857D02*
X176714286Y-103942857D01*
X176028571Y-105142857D01*
X176028571Y-103942857D01*
X175457143Y-105142857D02*
X175457143Y-103942857D01*
X175171428Y-103942857D01*
X175000000Y-104000000D01*
X174885714Y-104114286D01*
X174828571Y-104228571D01*
X174771428Y-104457143D01*
X174771428Y-104628571D01*
X174828571Y-104857143D01*
X174885714Y-104971429D01*
X175000000Y-105085714D01*
X175171428Y-105142857D01*
X175457143Y-105142857D01*
M02*
