M48
;DRILL file {KiCad 4.0.4-stable} date Thursday, May 25, 2017 'AMt' 09:40:58 AM
;FORMAT={-:-/ absolute / metric / decimal}
FMAT,2
METRIC,TZ
T1C0.400
T2C1.150
T3C1.250
%
G90
G05
M71
T1
X213.4Y-145.5
X213.4Y-146.5
X217.4Y-100.7
X218.9Y-88.
X219.7Y-141.
X219.7Y-146.7
X220.1Y-107.5
X221.Y-78.
X221.Y-138.4
X223.9Y-89.5
X224.Y-82.
X224.8Y-130.6
X225.1Y-134.5
X225.1Y-135.9
X225.6Y-132.5
X225.7Y-69.2
X225.7Y-138.5
X226.Y-79.
X226.3Y-67.9
X226.8Y-129.4
X227.2Y-136.4
X229.9Y-132.5
X230.Y-109.
X230.5Y-77.3
X230.5Y-103.
X231.7Y-130.8
X232.2Y-129.4
X232.3Y-140.3
X232.9Y-121.
X233.4Y-102.4
X233.8Y-135.
X233.8Y-146.7
X236.7Y-89.4
X237.4Y-124.8
X237.9Y-83.4
X238.5Y-124.8
X239.6Y-80.1
X243.5Y-103.
X248.1Y-72.
X249.4Y-89.7
X251.4Y-79.
X252.Y-101.2
X252.8Y-71.5
X254.Y-70.3
X254.Y-112.
X255.1Y-116.4
X255.4Y-104.3
X255.9Y-118.8
X256.7Y-117.2
X262.1Y-98.9
T2
X211.Y-109.46
X211.Y-112.
X211.Y-114.54
X211.Y-122.73
X211.Y-125.27
X211.Y-132.73
X211.Y-135.27
X211.Y-143.46
X211.Y-146.
X211.Y-148.54
X220.73Y-61.
X223.27Y-61.
X230.73Y-61.
X233.27Y-61.
X240.73Y-61.
X243.27Y-61.
X252.73Y-61.
X255.27Y-61.
X265.Y-65.73
X265.Y-68.27
X265.Y-75.73
X265.Y-78.27
X265.Y-84.96
X265.Y-87.5
X265.Y-90.04
X265.Y-100.46
X265.Y-103.
X265.Y-105.54
X265.Y-114.19
X265.Y-116.73
X265.Y-119.27
X265.Y-121.81
X265.Y-130.46
X265.Y-133.
X265.Y-135.54
X265.Y-143.73
X265.Y-146.27
T3
X246.Y-130.
X246.Y-150.
T0
M30
