G04 #@! TF.FileFunction,Copper,L2,Bot,Signal*
%FSLAX46Y46*%
G04 Gerber Fmt 4.6, Leading zero omitted, Abs format (unit mm)*
G04 Created by KiCad (PCBNEW 4.0.4-stable) date Wednesday, May 24, 2017 'PMt' 08:40:49 PM*
%MOMM*%
%LPD*%
G01*
G04 APERTURE LIST*
%ADD10C,0.100000*%
%ADD11O,2.200000X1.950000*%
%ADD12C,1.800000*%
%ADD13C,0.800000*%
%ADD14C,0.250000*%
%ADD15C,0.254000*%
G04 APERTURE END LIST*
D10*
D11*
X246000000Y-130000000D03*
X246000000Y-150000000D03*
D12*
X265000000Y-100460000D03*
X265000000Y-103000000D03*
X265000000Y-105540000D03*
X265000000Y-84960000D03*
X265000000Y-87500000D03*
X265000000Y-90040000D03*
X220730000Y-61000000D03*
X223270000Y-61000000D03*
X211000000Y-135270000D03*
X211000000Y-132730000D03*
X211000000Y-122730000D03*
X211000000Y-125270000D03*
X211000000Y-143460000D03*
X211000000Y-146000000D03*
X211000000Y-148540000D03*
X211000000Y-114540000D03*
X211000000Y-112000000D03*
X211000000Y-109460000D03*
X230730000Y-61000000D03*
X233270000Y-61000000D03*
X265000000Y-146270000D03*
X265000000Y-143730000D03*
X265000000Y-119270000D03*
X265000000Y-116730000D03*
X265000000Y-114190000D03*
X265000000Y-121810000D03*
X243270000Y-61000000D03*
X240730000Y-61000000D03*
X255270000Y-61000000D03*
X252730000Y-61000000D03*
X265000000Y-135540000D03*
X265000000Y-133000000D03*
X265000000Y-130460000D03*
X265000000Y-78270000D03*
X265000000Y-75730000D03*
X265000000Y-65730000D03*
X265000000Y-68270000D03*
D13*
X230500000Y-77300000D03*
X255400000Y-104300000D03*
X220100000Y-107500000D03*
X226300000Y-67900000D03*
X255100000Y-116400000D03*
X225700000Y-69200000D03*
X217400000Y-100700000D03*
X218900000Y-88000000D03*
X230000000Y-109000000D03*
X237900000Y-83400000D03*
X239600000Y-80100000D03*
X251400000Y-79000000D03*
X252800000Y-71500000D03*
X249400000Y-89700000D03*
X236700000Y-89400000D03*
X223900000Y-89500000D03*
X230500000Y-103000000D03*
X243500000Y-103000000D03*
X254000000Y-112000000D03*
X226000000Y-79000000D03*
X224000000Y-82000000D03*
X221000000Y-78000000D03*
X255900000Y-118800000D03*
X219700000Y-140000000D03*
X219700000Y-146700000D03*
X213400000Y-146500000D03*
X213400000Y-145500000D03*
X232300000Y-140300000D03*
X227200000Y-136400000D03*
X232900000Y-121000000D03*
X231700000Y-130800000D03*
X238500000Y-124800000D03*
X237400000Y-124800000D03*
X224800000Y-130600000D03*
X225100000Y-135900000D03*
X224500000Y-141000000D03*
X225100000Y-134500000D03*
X262100000Y-98900000D03*
X233400000Y-102400000D03*
X252000000Y-101200000D03*
X229900000Y-132500000D03*
X225600000Y-132500000D03*
X232200000Y-129400000D03*
X226800000Y-129400000D03*
X221000000Y-138400000D03*
X254000000Y-70300000D03*
X248100000Y-72000000D03*
X256700000Y-117200000D03*
X233800000Y-135000000D03*
X233800000Y-146700000D03*
D14*
X230730000Y-77070000D02*
X230730000Y-61000000D01*
X230500000Y-77300000D02*
X230730000Y-77070000D01*
X255900000Y-128600000D02*
X255900000Y-129300000D01*
X255900000Y-118800000D02*
X255900000Y-128600000D01*
X255200000Y-130000000D02*
X246000000Y-130000000D01*
X255900000Y-129300000D02*
X255200000Y-130000000D01*
X246300000Y-129700000D02*
X246000000Y-130000000D01*
X219700000Y-144000000D02*
X219700000Y-146700000D01*
X219700000Y-140000000D02*
X219700000Y-144000000D01*
X263240000Y-105540000D02*
X265000000Y-105540000D01*
X262600000Y-104900000D02*
X263240000Y-105540000D01*
X262600000Y-99400000D02*
X262600000Y-104900000D01*
X262100000Y-98900000D02*
X262600000Y-99400000D01*
X233800000Y-87500000D02*
X265000000Y-87500000D01*
X232400000Y-88900000D02*
X233800000Y-87500000D01*
X232400000Y-101400000D02*
X232400000Y-88900000D01*
X233400000Y-102400000D02*
X232400000Y-101400000D01*
X256800000Y-98700000D02*
X256800000Y-90800000D01*
X256800000Y-90800000D02*
X257560000Y-90040000D01*
X257560000Y-90040000D02*
X265000000Y-90040000D01*
X256800000Y-100500000D02*
X256800000Y-98700000D01*
X256100000Y-101200000D02*
X256800000Y-100500000D01*
X252000000Y-101200000D02*
X256100000Y-101200000D01*
X265130000Y-143600000D02*
X265000000Y-143730000D01*
X225600000Y-132500000D02*
X229900000Y-132500000D01*
X226800000Y-129400000D02*
X232200000Y-129400000D01*
X211000000Y-125270000D02*
X212770000Y-125270000D01*
X221000000Y-138400000D02*
X214100000Y-138400000D01*
X214100000Y-138400000D02*
X213300000Y-137600000D01*
X213300000Y-125800000D02*
X213300000Y-137600000D01*
X212770000Y-125270000D02*
X213300000Y-125800000D01*
X244100000Y-70300000D02*
X254000000Y-70300000D01*
X243270000Y-69470000D02*
X244100000Y-70300000D01*
X243270000Y-69470000D02*
X243270000Y-61000000D01*
X241400000Y-72000000D02*
X248100000Y-72000000D01*
X240730000Y-71330000D02*
X241400000Y-72000000D01*
X240730000Y-61000000D02*
X240730000Y-71330000D01*
X257440000Y-135540000D02*
X265000000Y-135540000D01*
X256700000Y-134800000D02*
X257440000Y-135540000D01*
X256700000Y-117200000D02*
X256700000Y-134800000D01*
X233800000Y-146700000D02*
X233800000Y-135000000D01*
D15*
G36*
X271873000Y-153873000D02*
X242127000Y-153873000D01*
X242127000Y-150376511D01*
X244309644Y-150376511D01*
X244571371Y-150944669D01*
X245032113Y-151371638D01*
X245621177Y-151589787D01*
X245873000Y-151451171D01*
X245873000Y-150127000D01*
X246127000Y-150127000D01*
X246127000Y-151451171D01*
X246378823Y-151589787D01*
X246967887Y-151371638D01*
X247428629Y-150944669D01*
X247690356Y-150376511D01*
X247570682Y-150127000D01*
X246127000Y-150127000D01*
X245873000Y-150127000D01*
X244429318Y-150127000D01*
X244309644Y-150376511D01*
X242127000Y-150376511D01*
X242127000Y-149623489D01*
X244309644Y-149623489D01*
X244429318Y-149873000D01*
X245873000Y-149873000D01*
X245873000Y-148548829D01*
X246127000Y-148548829D01*
X246127000Y-149873000D01*
X247570682Y-149873000D01*
X247690356Y-149623489D01*
X247428629Y-149055331D01*
X246967887Y-148628362D01*
X246378823Y-148410213D01*
X246127000Y-148548829D01*
X245873000Y-148548829D01*
X245621177Y-148410213D01*
X245032113Y-148628362D01*
X244571371Y-149055331D01*
X244309644Y-149623489D01*
X242127000Y-149623489D01*
X242127000Y-144033991D01*
X263464735Y-144033991D01*
X263697932Y-144598371D01*
X264099182Y-145000323D01*
X263699449Y-145399357D01*
X263465267Y-145963330D01*
X263464735Y-146573991D01*
X263697932Y-147138371D01*
X264129357Y-147570551D01*
X264693330Y-147804733D01*
X265303991Y-147805265D01*
X265868371Y-147572068D01*
X266300551Y-147140643D01*
X266534733Y-146576670D01*
X266535265Y-145966009D01*
X266302068Y-145401629D01*
X265900818Y-144999677D01*
X266300551Y-144600643D01*
X266534733Y-144036670D01*
X266535265Y-143426009D01*
X266302068Y-142861629D01*
X265870643Y-142429449D01*
X265306670Y-142195267D01*
X264696009Y-142194735D01*
X264131629Y-142427932D01*
X263699449Y-142859357D01*
X263465267Y-143423330D01*
X263464735Y-144033991D01*
X242127000Y-144033991D01*
X242127000Y-130000000D01*
X244231009Y-130000000D01*
X244353563Y-130616120D01*
X244702567Y-131138442D01*
X245224889Y-131487446D01*
X245841009Y-131610000D01*
X246158991Y-131610000D01*
X246775111Y-131487446D01*
X247297433Y-131138442D01*
X247550300Y-130760000D01*
X255200000Y-130760000D01*
X255490839Y-130702148D01*
X255737401Y-130537401D01*
X255940000Y-130334802D01*
X255940000Y-134800000D01*
X255997852Y-135090839D01*
X256162599Y-135337401D01*
X256902599Y-136077401D01*
X257149161Y-136242148D01*
X257440000Y-136300000D01*
X263653154Y-136300000D01*
X263697932Y-136408371D01*
X264129357Y-136840551D01*
X264693330Y-137074733D01*
X265303991Y-137075265D01*
X265868371Y-136842068D01*
X266300551Y-136410643D01*
X266534733Y-135846670D01*
X266535265Y-135236009D01*
X266302068Y-134671629D01*
X265900818Y-134269677D01*
X266300551Y-133870643D01*
X266534733Y-133306670D01*
X266535265Y-132696009D01*
X266302068Y-132131629D01*
X265900818Y-131729677D01*
X266300551Y-131330643D01*
X266534733Y-130766670D01*
X266535265Y-130156009D01*
X266302068Y-129591629D01*
X265870643Y-129159449D01*
X265306670Y-128925267D01*
X264696009Y-128924735D01*
X264131629Y-129157932D01*
X263699449Y-129589357D01*
X263465267Y-130153330D01*
X263464735Y-130763991D01*
X263697932Y-131328371D01*
X264099182Y-131730323D01*
X263699449Y-132129357D01*
X263465267Y-132693330D01*
X263464735Y-133303991D01*
X263697932Y-133868371D01*
X264099182Y-134270323D01*
X263699449Y-134669357D01*
X263653506Y-134780000D01*
X257754802Y-134780000D01*
X257460000Y-134485198D01*
X257460000Y-117903761D01*
X257576919Y-117787046D01*
X257734820Y-117406777D01*
X257735179Y-116995029D01*
X257577942Y-116614485D01*
X257287046Y-116323081D01*
X256906777Y-116165180D01*
X256495029Y-116164821D01*
X256114485Y-116322058D01*
X255823081Y-116612954D01*
X255665180Y-116993223D01*
X255664821Y-117404971D01*
X255813550Y-117764924D01*
X255695029Y-117764821D01*
X255314485Y-117922058D01*
X255023081Y-118212954D01*
X254865180Y-118593223D01*
X254864821Y-119004971D01*
X255022058Y-119385515D01*
X255140000Y-119503663D01*
X255140000Y-128985197D01*
X254885198Y-129240000D01*
X247550300Y-129240000D01*
X247297433Y-128861558D01*
X246775111Y-128512554D01*
X246158991Y-128390000D01*
X245841009Y-128390000D01*
X245224889Y-128512554D01*
X244702567Y-128861558D01*
X244353563Y-129383880D01*
X244231009Y-130000000D01*
X242127000Y-130000000D01*
X242127000Y-118000000D01*
X242116994Y-117950590D01*
X242088553Y-117908965D01*
X242046159Y-117881685D01*
X242000000Y-117873000D01*
X206127000Y-117873000D01*
X206127000Y-109763991D01*
X209464735Y-109763991D01*
X209697932Y-110328371D01*
X210099182Y-110730323D01*
X209699449Y-111129357D01*
X209465267Y-111693330D01*
X209464735Y-112303991D01*
X209697932Y-112868371D01*
X210099182Y-113270323D01*
X209699449Y-113669357D01*
X209465267Y-114233330D01*
X209464735Y-114843991D01*
X209697932Y-115408371D01*
X210129357Y-115840551D01*
X210693330Y-116074733D01*
X211303991Y-116075265D01*
X211868371Y-115842068D01*
X212300551Y-115410643D01*
X212534733Y-114846670D01*
X212535040Y-114493991D01*
X263464735Y-114493991D01*
X263697932Y-115058371D01*
X264099182Y-115460323D01*
X263699449Y-115859357D01*
X263465267Y-116423330D01*
X263464735Y-117033991D01*
X263697932Y-117598371D01*
X264099182Y-118000323D01*
X263699449Y-118399357D01*
X263465267Y-118963330D01*
X263464735Y-119573991D01*
X263697932Y-120138371D01*
X264099182Y-120540323D01*
X263699449Y-120939357D01*
X263465267Y-121503330D01*
X263464735Y-122113991D01*
X263697932Y-122678371D01*
X264129357Y-123110551D01*
X264693330Y-123344733D01*
X265303991Y-123345265D01*
X265868371Y-123112068D01*
X266300551Y-122680643D01*
X266534733Y-122116670D01*
X266535265Y-121506009D01*
X266302068Y-120941629D01*
X265900818Y-120539677D01*
X266300551Y-120140643D01*
X266534733Y-119576670D01*
X266535265Y-118966009D01*
X266302068Y-118401629D01*
X265900818Y-117999677D01*
X266300551Y-117600643D01*
X266534733Y-117036670D01*
X266535265Y-116426009D01*
X266302068Y-115861629D01*
X265900818Y-115459677D01*
X266300551Y-115060643D01*
X266534733Y-114496670D01*
X266535265Y-113886009D01*
X266302068Y-113321629D01*
X265870643Y-112889449D01*
X265306670Y-112655267D01*
X264696009Y-112654735D01*
X264131629Y-112887932D01*
X263699449Y-113319357D01*
X263465267Y-113883330D01*
X263464735Y-114493991D01*
X212535040Y-114493991D01*
X212535265Y-114236009D01*
X212302068Y-113671629D01*
X211900818Y-113269677D01*
X212300551Y-112870643D01*
X212534733Y-112306670D01*
X212535265Y-111696009D01*
X212302068Y-111131629D01*
X211900818Y-110729677D01*
X212300551Y-110330643D01*
X212534733Y-109766670D01*
X212535265Y-109156009D01*
X212302068Y-108591629D01*
X211870643Y-108159449D01*
X211306670Y-107925267D01*
X210696009Y-107924735D01*
X210131629Y-108157932D01*
X209699449Y-108589357D01*
X209465267Y-109153330D01*
X209464735Y-109763991D01*
X206127000Y-109763991D01*
X206127000Y-88900000D01*
X231640000Y-88900000D01*
X231640000Y-101400000D01*
X231697852Y-101690839D01*
X231862599Y-101937401D01*
X232364965Y-102439767D01*
X232364821Y-102604971D01*
X232522058Y-102985515D01*
X232812954Y-103276919D01*
X233193223Y-103434820D01*
X233604971Y-103435179D01*
X233985515Y-103277942D01*
X234276919Y-102987046D01*
X234434820Y-102606777D01*
X234435179Y-102195029D01*
X234277942Y-101814485D01*
X233987046Y-101523081D01*
X233606777Y-101365180D01*
X233439836Y-101365034D01*
X233160000Y-101085198D01*
X233160000Y-89214802D01*
X234114802Y-88260000D01*
X263653154Y-88260000D01*
X263697932Y-88368371D01*
X264099182Y-88770323D01*
X263699449Y-89169357D01*
X263653506Y-89280000D01*
X257560000Y-89280000D01*
X257269160Y-89337852D01*
X257022599Y-89502599D01*
X256262599Y-90262599D01*
X256097852Y-90509161D01*
X256040000Y-90800000D01*
X256040000Y-100185197D01*
X255785198Y-100440000D01*
X252703761Y-100440000D01*
X252587046Y-100323081D01*
X252206777Y-100165180D01*
X251795029Y-100164821D01*
X251414485Y-100322058D01*
X251123081Y-100612954D01*
X250965180Y-100993223D01*
X250964821Y-101404971D01*
X251122058Y-101785515D01*
X251412954Y-102076919D01*
X251793223Y-102234820D01*
X252204971Y-102235179D01*
X252585515Y-102077942D01*
X252703663Y-101960000D01*
X256100000Y-101960000D01*
X256390839Y-101902148D01*
X256637401Y-101737401D01*
X257337401Y-101037402D01*
X257502147Y-100790840D01*
X257502148Y-100790839D01*
X257560000Y-100500000D01*
X257560000Y-99104971D01*
X261064821Y-99104971D01*
X261222058Y-99485515D01*
X261512954Y-99776919D01*
X261840000Y-99912720D01*
X261840000Y-104900000D01*
X261897852Y-105190839D01*
X262062599Y-105437401D01*
X262702599Y-106077401D01*
X262949161Y-106242148D01*
X263240000Y-106300000D01*
X263653154Y-106300000D01*
X263697932Y-106408371D01*
X264129357Y-106840551D01*
X264693330Y-107074733D01*
X265303991Y-107075265D01*
X265868371Y-106842068D01*
X266300551Y-106410643D01*
X266534733Y-105846670D01*
X266535265Y-105236009D01*
X266302068Y-104671629D01*
X265900818Y-104269677D01*
X266300551Y-103870643D01*
X266534733Y-103306670D01*
X266535265Y-102696009D01*
X266302068Y-102131629D01*
X265900818Y-101729677D01*
X266300551Y-101330643D01*
X266534733Y-100766670D01*
X266535265Y-100156009D01*
X266302068Y-99591629D01*
X265870643Y-99159449D01*
X265306670Y-98925267D01*
X264696009Y-98924735D01*
X264131629Y-99157932D01*
X263699449Y-99589357D01*
X263465267Y-100153330D01*
X263464735Y-100763991D01*
X263697932Y-101328371D01*
X264099182Y-101730323D01*
X263699449Y-102129357D01*
X263465267Y-102693330D01*
X263464735Y-103303991D01*
X263697932Y-103868371D01*
X264099182Y-104270323D01*
X263699449Y-104669357D01*
X263653506Y-104780000D01*
X263554802Y-104780000D01*
X263360000Y-104585198D01*
X263360000Y-99400000D01*
X263302148Y-99109161D01*
X263137401Y-98862599D01*
X263135035Y-98860233D01*
X263135179Y-98695029D01*
X262977942Y-98314485D01*
X262687046Y-98023081D01*
X262306777Y-97865180D01*
X261895029Y-97864821D01*
X261514485Y-98022058D01*
X261223081Y-98312954D01*
X261065180Y-98693223D01*
X261064821Y-99104971D01*
X257560000Y-99104971D01*
X257560000Y-91114802D01*
X257874802Y-90800000D01*
X263653154Y-90800000D01*
X263697932Y-90908371D01*
X264129357Y-91340551D01*
X264693330Y-91574733D01*
X265303991Y-91575265D01*
X265868371Y-91342068D01*
X266300551Y-90910643D01*
X266534733Y-90346670D01*
X266535265Y-89736009D01*
X266302068Y-89171629D01*
X265900818Y-88769677D01*
X266300551Y-88370643D01*
X266534733Y-87806670D01*
X266535265Y-87196009D01*
X266302068Y-86631629D01*
X265900818Y-86229677D01*
X266300551Y-85830643D01*
X266534733Y-85266670D01*
X266535265Y-84656009D01*
X266302068Y-84091629D01*
X265870643Y-83659449D01*
X265306670Y-83425267D01*
X264696009Y-83424735D01*
X264131629Y-83657932D01*
X263699449Y-84089357D01*
X263465267Y-84653330D01*
X263464735Y-85263991D01*
X263697932Y-85828371D01*
X264099182Y-86230323D01*
X263699449Y-86629357D01*
X263653506Y-86740000D01*
X233800000Y-86740000D01*
X233509161Y-86797852D01*
X233262599Y-86962599D01*
X231862599Y-88362599D01*
X231697852Y-88609161D01*
X231640000Y-88900000D01*
X206127000Y-88900000D01*
X206127000Y-61303991D01*
X219194735Y-61303991D01*
X219427932Y-61868371D01*
X219859357Y-62300551D01*
X220423330Y-62534733D01*
X221033991Y-62535265D01*
X221598371Y-62302068D01*
X222000323Y-61900818D01*
X222399357Y-62300551D01*
X222963330Y-62534733D01*
X223573991Y-62535265D01*
X224138371Y-62302068D01*
X224570551Y-61870643D01*
X224804733Y-61306670D01*
X224804735Y-61303991D01*
X229194735Y-61303991D01*
X229427932Y-61868371D01*
X229859357Y-62300551D01*
X229970000Y-62346494D01*
X229970000Y-76399120D01*
X229914485Y-76422058D01*
X229623081Y-76712954D01*
X229465180Y-77093223D01*
X229464821Y-77504971D01*
X229622058Y-77885515D01*
X229912954Y-78176919D01*
X230293223Y-78334820D01*
X230704971Y-78335179D01*
X231085515Y-78177942D01*
X231376919Y-77887046D01*
X231534820Y-77506777D01*
X231535179Y-77095029D01*
X231490000Y-76985687D01*
X231490000Y-76033991D01*
X263464735Y-76033991D01*
X263697932Y-76598371D01*
X264099182Y-77000323D01*
X263699449Y-77399357D01*
X263465267Y-77963330D01*
X263464735Y-78573991D01*
X263697932Y-79138371D01*
X264129357Y-79570551D01*
X264693330Y-79804733D01*
X265303991Y-79805265D01*
X265868371Y-79572068D01*
X266300551Y-79140643D01*
X266534733Y-78576670D01*
X266535265Y-77966009D01*
X266302068Y-77401629D01*
X265900818Y-76999677D01*
X266300551Y-76600643D01*
X266534733Y-76036670D01*
X266535265Y-75426009D01*
X266302068Y-74861629D01*
X265870643Y-74429449D01*
X265306670Y-74195267D01*
X264696009Y-74194735D01*
X264131629Y-74427932D01*
X263699449Y-74859357D01*
X263465267Y-75423330D01*
X263464735Y-76033991D01*
X231490000Y-76033991D01*
X231490000Y-62346846D01*
X231598371Y-62302068D01*
X232000323Y-61900818D01*
X232399357Y-62300551D01*
X232963330Y-62534733D01*
X233573991Y-62535265D01*
X234138371Y-62302068D01*
X234570551Y-61870643D01*
X234804733Y-61306670D01*
X234804735Y-61303991D01*
X239194735Y-61303991D01*
X239427932Y-61868371D01*
X239859357Y-62300551D01*
X239970000Y-62346494D01*
X239970000Y-71330000D01*
X240027852Y-71620839D01*
X240192599Y-71867401D01*
X240862599Y-72537401D01*
X241109161Y-72702148D01*
X241400000Y-72760000D01*
X247396239Y-72760000D01*
X247512954Y-72876919D01*
X247893223Y-73034820D01*
X248304971Y-73035179D01*
X248685515Y-72877942D01*
X248976919Y-72587046D01*
X249134820Y-72206777D01*
X249135179Y-71795029D01*
X248977942Y-71414485D01*
X248687046Y-71123081D01*
X248535130Y-71060000D01*
X253296239Y-71060000D01*
X253412954Y-71176919D01*
X253793223Y-71334820D01*
X254204971Y-71335179D01*
X254585515Y-71177942D01*
X254876919Y-70887046D01*
X255034820Y-70506777D01*
X255035179Y-70095029D01*
X254877942Y-69714485D01*
X254587046Y-69423081D01*
X254206777Y-69265180D01*
X253795029Y-69264821D01*
X253414485Y-69422058D01*
X253296337Y-69540000D01*
X244414802Y-69540000D01*
X244030000Y-69155198D01*
X244030000Y-66033991D01*
X263464735Y-66033991D01*
X263697932Y-66598371D01*
X264099182Y-67000323D01*
X263699449Y-67399357D01*
X263465267Y-67963330D01*
X263464735Y-68573991D01*
X263697932Y-69138371D01*
X264129357Y-69570551D01*
X264693330Y-69804733D01*
X265303991Y-69805265D01*
X265868371Y-69572068D01*
X266300551Y-69140643D01*
X266534733Y-68576670D01*
X266535265Y-67966009D01*
X266302068Y-67401629D01*
X265900818Y-66999677D01*
X266300551Y-66600643D01*
X266534733Y-66036670D01*
X266535265Y-65426009D01*
X266302068Y-64861629D01*
X265870643Y-64429449D01*
X265306670Y-64195267D01*
X264696009Y-64194735D01*
X264131629Y-64427932D01*
X263699449Y-64859357D01*
X263465267Y-65423330D01*
X263464735Y-66033991D01*
X244030000Y-66033991D01*
X244030000Y-62346846D01*
X244138371Y-62302068D01*
X244570551Y-61870643D01*
X244804733Y-61306670D01*
X244804735Y-61303991D01*
X251194735Y-61303991D01*
X251427932Y-61868371D01*
X251859357Y-62300551D01*
X252423330Y-62534733D01*
X253033991Y-62535265D01*
X253598371Y-62302068D01*
X254000323Y-61900818D01*
X254399357Y-62300551D01*
X254963330Y-62534733D01*
X255573991Y-62535265D01*
X256138371Y-62302068D01*
X256570551Y-61870643D01*
X256804733Y-61306670D01*
X256805265Y-60696009D01*
X256572068Y-60131629D01*
X256140643Y-59699449D01*
X255576670Y-59465267D01*
X254966009Y-59464735D01*
X254401629Y-59697932D01*
X253999677Y-60099182D01*
X253600643Y-59699449D01*
X253036670Y-59465267D01*
X252426009Y-59464735D01*
X251861629Y-59697932D01*
X251429449Y-60129357D01*
X251195267Y-60693330D01*
X251194735Y-61303991D01*
X244804735Y-61303991D01*
X244805265Y-60696009D01*
X244572068Y-60131629D01*
X244140643Y-59699449D01*
X243576670Y-59465267D01*
X242966009Y-59464735D01*
X242401629Y-59697932D01*
X241999677Y-60099182D01*
X241600643Y-59699449D01*
X241036670Y-59465267D01*
X240426009Y-59464735D01*
X239861629Y-59697932D01*
X239429449Y-60129357D01*
X239195267Y-60693330D01*
X239194735Y-61303991D01*
X234804735Y-61303991D01*
X234805265Y-60696009D01*
X234572068Y-60131629D01*
X234140643Y-59699449D01*
X233576670Y-59465267D01*
X232966009Y-59464735D01*
X232401629Y-59697932D01*
X231999677Y-60099182D01*
X231600643Y-59699449D01*
X231036670Y-59465267D01*
X230426009Y-59464735D01*
X229861629Y-59697932D01*
X229429449Y-60129357D01*
X229195267Y-60693330D01*
X229194735Y-61303991D01*
X224804735Y-61303991D01*
X224805265Y-60696009D01*
X224572068Y-60131629D01*
X224140643Y-59699449D01*
X223576670Y-59465267D01*
X222966009Y-59464735D01*
X222401629Y-59697932D01*
X221999677Y-60099182D01*
X221600643Y-59699449D01*
X221036670Y-59465267D01*
X220426009Y-59464735D01*
X219861629Y-59697932D01*
X219429449Y-60129357D01*
X219195267Y-60693330D01*
X219194735Y-61303991D01*
X206127000Y-61303991D01*
X206127000Y-56127000D01*
X271873000Y-56127000D01*
X271873000Y-153873000D01*
X271873000Y-153873000D01*
G37*
X271873000Y-153873000D02*
X242127000Y-153873000D01*
X242127000Y-150376511D01*
X244309644Y-150376511D01*
X244571371Y-150944669D01*
X245032113Y-151371638D01*
X245621177Y-151589787D01*
X245873000Y-151451171D01*
X245873000Y-150127000D01*
X246127000Y-150127000D01*
X246127000Y-151451171D01*
X246378823Y-151589787D01*
X246967887Y-151371638D01*
X247428629Y-150944669D01*
X247690356Y-150376511D01*
X247570682Y-150127000D01*
X246127000Y-150127000D01*
X245873000Y-150127000D01*
X244429318Y-150127000D01*
X244309644Y-150376511D01*
X242127000Y-150376511D01*
X242127000Y-149623489D01*
X244309644Y-149623489D01*
X244429318Y-149873000D01*
X245873000Y-149873000D01*
X245873000Y-148548829D01*
X246127000Y-148548829D01*
X246127000Y-149873000D01*
X247570682Y-149873000D01*
X247690356Y-149623489D01*
X247428629Y-149055331D01*
X246967887Y-148628362D01*
X246378823Y-148410213D01*
X246127000Y-148548829D01*
X245873000Y-148548829D01*
X245621177Y-148410213D01*
X245032113Y-148628362D01*
X244571371Y-149055331D01*
X244309644Y-149623489D01*
X242127000Y-149623489D01*
X242127000Y-144033991D01*
X263464735Y-144033991D01*
X263697932Y-144598371D01*
X264099182Y-145000323D01*
X263699449Y-145399357D01*
X263465267Y-145963330D01*
X263464735Y-146573991D01*
X263697932Y-147138371D01*
X264129357Y-147570551D01*
X264693330Y-147804733D01*
X265303991Y-147805265D01*
X265868371Y-147572068D01*
X266300551Y-147140643D01*
X266534733Y-146576670D01*
X266535265Y-145966009D01*
X266302068Y-145401629D01*
X265900818Y-144999677D01*
X266300551Y-144600643D01*
X266534733Y-144036670D01*
X266535265Y-143426009D01*
X266302068Y-142861629D01*
X265870643Y-142429449D01*
X265306670Y-142195267D01*
X264696009Y-142194735D01*
X264131629Y-142427932D01*
X263699449Y-142859357D01*
X263465267Y-143423330D01*
X263464735Y-144033991D01*
X242127000Y-144033991D01*
X242127000Y-130000000D01*
X244231009Y-130000000D01*
X244353563Y-130616120D01*
X244702567Y-131138442D01*
X245224889Y-131487446D01*
X245841009Y-131610000D01*
X246158991Y-131610000D01*
X246775111Y-131487446D01*
X247297433Y-131138442D01*
X247550300Y-130760000D01*
X255200000Y-130760000D01*
X255490839Y-130702148D01*
X255737401Y-130537401D01*
X255940000Y-130334802D01*
X255940000Y-134800000D01*
X255997852Y-135090839D01*
X256162599Y-135337401D01*
X256902599Y-136077401D01*
X257149161Y-136242148D01*
X257440000Y-136300000D01*
X263653154Y-136300000D01*
X263697932Y-136408371D01*
X264129357Y-136840551D01*
X264693330Y-137074733D01*
X265303991Y-137075265D01*
X265868371Y-136842068D01*
X266300551Y-136410643D01*
X266534733Y-135846670D01*
X266535265Y-135236009D01*
X266302068Y-134671629D01*
X265900818Y-134269677D01*
X266300551Y-133870643D01*
X266534733Y-133306670D01*
X266535265Y-132696009D01*
X266302068Y-132131629D01*
X265900818Y-131729677D01*
X266300551Y-131330643D01*
X266534733Y-130766670D01*
X266535265Y-130156009D01*
X266302068Y-129591629D01*
X265870643Y-129159449D01*
X265306670Y-128925267D01*
X264696009Y-128924735D01*
X264131629Y-129157932D01*
X263699449Y-129589357D01*
X263465267Y-130153330D01*
X263464735Y-130763991D01*
X263697932Y-131328371D01*
X264099182Y-131730323D01*
X263699449Y-132129357D01*
X263465267Y-132693330D01*
X263464735Y-133303991D01*
X263697932Y-133868371D01*
X264099182Y-134270323D01*
X263699449Y-134669357D01*
X263653506Y-134780000D01*
X257754802Y-134780000D01*
X257460000Y-134485198D01*
X257460000Y-117903761D01*
X257576919Y-117787046D01*
X257734820Y-117406777D01*
X257735179Y-116995029D01*
X257577942Y-116614485D01*
X257287046Y-116323081D01*
X256906777Y-116165180D01*
X256495029Y-116164821D01*
X256114485Y-116322058D01*
X255823081Y-116612954D01*
X255665180Y-116993223D01*
X255664821Y-117404971D01*
X255813550Y-117764924D01*
X255695029Y-117764821D01*
X255314485Y-117922058D01*
X255023081Y-118212954D01*
X254865180Y-118593223D01*
X254864821Y-119004971D01*
X255022058Y-119385515D01*
X255140000Y-119503663D01*
X255140000Y-128985197D01*
X254885198Y-129240000D01*
X247550300Y-129240000D01*
X247297433Y-128861558D01*
X246775111Y-128512554D01*
X246158991Y-128390000D01*
X245841009Y-128390000D01*
X245224889Y-128512554D01*
X244702567Y-128861558D01*
X244353563Y-129383880D01*
X244231009Y-130000000D01*
X242127000Y-130000000D01*
X242127000Y-118000000D01*
X242116994Y-117950590D01*
X242088553Y-117908965D01*
X242046159Y-117881685D01*
X242000000Y-117873000D01*
X206127000Y-117873000D01*
X206127000Y-109763991D01*
X209464735Y-109763991D01*
X209697932Y-110328371D01*
X210099182Y-110730323D01*
X209699449Y-111129357D01*
X209465267Y-111693330D01*
X209464735Y-112303991D01*
X209697932Y-112868371D01*
X210099182Y-113270323D01*
X209699449Y-113669357D01*
X209465267Y-114233330D01*
X209464735Y-114843991D01*
X209697932Y-115408371D01*
X210129357Y-115840551D01*
X210693330Y-116074733D01*
X211303991Y-116075265D01*
X211868371Y-115842068D01*
X212300551Y-115410643D01*
X212534733Y-114846670D01*
X212535040Y-114493991D01*
X263464735Y-114493991D01*
X263697932Y-115058371D01*
X264099182Y-115460323D01*
X263699449Y-115859357D01*
X263465267Y-116423330D01*
X263464735Y-117033991D01*
X263697932Y-117598371D01*
X264099182Y-118000323D01*
X263699449Y-118399357D01*
X263465267Y-118963330D01*
X263464735Y-119573991D01*
X263697932Y-120138371D01*
X264099182Y-120540323D01*
X263699449Y-120939357D01*
X263465267Y-121503330D01*
X263464735Y-122113991D01*
X263697932Y-122678371D01*
X264129357Y-123110551D01*
X264693330Y-123344733D01*
X265303991Y-123345265D01*
X265868371Y-123112068D01*
X266300551Y-122680643D01*
X266534733Y-122116670D01*
X266535265Y-121506009D01*
X266302068Y-120941629D01*
X265900818Y-120539677D01*
X266300551Y-120140643D01*
X266534733Y-119576670D01*
X266535265Y-118966009D01*
X266302068Y-118401629D01*
X265900818Y-117999677D01*
X266300551Y-117600643D01*
X266534733Y-117036670D01*
X266535265Y-116426009D01*
X266302068Y-115861629D01*
X265900818Y-115459677D01*
X266300551Y-115060643D01*
X266534733Y-114496670D01*
X266535265Y-113886009D01*
X266302068Y-113321629D01*
X265870643Y-112889449D01*
X265306670Y-112655267D01*
X264696009Y-112654735D01*
X264131629Y-112887932D01*
X263699449Y-113319357D01*
X263465267Y-113883330D01*
X263464735Y-114493991D01*
X212535040Y-114493991D01*
X212535265Y-114236009D01*
X212302068Y-113671629D01*
X211900818Y-113269677D01*
X212300551Y-112870643D01*
X212534733Y-112306670D01*
X212535265Y-111696009D01*
X212302068Y-111131629D01*
X211900818Y-110729677D01*
X212300551Y-110330643D01*
X212534733Y-109766670D01*
X212535265Y-109156009D01*
X212302068Y-108591629D01*
X211870643Y-108159449D01*
X211306670Y-107925267D01*
X210696009Y-107924735D01*
X210131629Y-108157932D01*
X209699449Y-108589357D01*
X209465267Y-109153330D01*
X209464735Y-109763991D01*
X206127000Y-109763991D01*
X206127000Y-88900000D01*
X231640000Y-88900000D01*
X231640000Y-101400000D01*
X231697852Y-101690839D01*
X231862599Y-101937401D01*
X232364965Y-102439767D01*
X232364821Y-102604971D01*
X232522058Y-102985515D01*
X232812954Y-103276919D01*
X233193223Y-103434820D01*
X233604971Y-103435179D01*
X233985515Y-103277942D01*
X234276919Y-102987046D01*
X234434820Y-102606777D01*
X234435179Y-102195029D01*
X234277942Y-101814485D01*
X233987046Y-101523081D01*
X233606777Y-101365180D01*
X233439836Y-101365034D01*
X233160000Y-101085198D01*
X233160000Y-89214802D01*
X234114802Y-88260000D01*
X263653154Y-88260000D01*
X263697932Y-88368371D01*
X264099182Y-88770323D01*
X263699449Y-89169357D01*
X263653506Y-89280000D01*
X257560000Y-89280000D01*
X257269160Y-89337852D01*
X257022599Y-89502599D01*
X256262599Y-90262599D01*
X256097852Y-90509161D01*
X256040000Y-90800000D01*
X256040000Y-100185197D01*
X255785198Y-100440000D01*
X252703761Y-100440000D01*
X252587046Y-100323081D01*
X252206777Y-100165180D01*
X251795029Y-100164821D01*
X251414485Y-100322058D01*
X251123081Y-100612954D01*
X250965180Y-100993223D01*
X250964821Y-101404971D01*
X251122058Y-101785515D01*
X251412954Y-102076919D01*
X251793223Y-102234820D01*
X252204971Y-102235179D01*
X252585515Y-102077942D01*
X252703663Y-101960000D01*
X256100000Y-101960000D01*
X256390839Y-101902148D01*
X256637401Y-101737401D01*
X257337401Y-101037402D01*
X257502147Y-100790840D01*
X257502148Y-100790839D01*
X257560000Y-100500000D01*
X257560000Y-99104971D01*
X261064821Y-99104971D01*
X261222058Y-99485515D01*
X261512954Y-99776919D01*
X261840000Y-99912720D01*
X261840000Y-104900000D01*
X261897852Y-105190839D01*
X262062599Y-105437401D01*
X262702599Y-106077401D01*
X262949161Y-106242148D01*
X263240000Y-106300000D01*
X263653154Y-106300000D01*
X263697932Y-106408371D01*
X264129357Y-106840551D01*
X264693330Y-107074733D01*
X265303991Y-107075265D01*
X265868371Y-106842068D01*
X266300551Y-106410643D01*
X266534733Y-105846670D01*
X266535265Y-105236009D01*
X266302068Y-104671629D01*
X265900818Y-104269677D01*
X266300551Y-103870643D01*
X266534733Y-103306670D01*
X266535265Y-102696009D01*
X266302068Y-102131629D01*
X265900818Y-101729677D01*
X266300551Y-101330643D01*
X266534733Y-100766670D01*
X266535265Y-100156009D01*
X266302068Y-99591629D01*
X265870643Y-99159449D01*
X265306670Y-98925267D01*
X264696009Y-98924735D01*
X264131629Y-99157932D01*
X263699449Y-99589357D01*
X263465267Y-100153330D01*
X263464735Y-100763991D01*
X263697932Y-101328371D01*
X264099182Y-101730323D01*
X263699449Y-102129357D01*
X263465267Y-102693330D01*
X263464735Y-103303991D01*
X263697932Y-103868371D01*
X264099182Y-104270323D01*
X263699449Y-104669357D01*
X263653506Y-104780000D01*
X263554802Y-104780000D01*
X263360000Y-104585198D01*
X263360000Y-99400000D01*
X263302148Y-99109161D01*
X263137401Y-98862599D01*
X263135035Y-98860233D01*
X263135179Y-98695029D01*
X262977942Y-98314485D01*
X262687046Y-98023081D01*
X262306777Y-97865180D01*
X261895029Y-97864821D01*
X261514485Y-98022058D01*
X261223081Y-98312954D01*
X261065180Y-98693223D01*
X261064821Y-99104971D01*
X257560000Y-99104971D01*
X257560000Y-91114802D01*
X257874802Y-90800000D01*
X263653154Y-90800000D01*
X263697932Y-90908371D01*
X264129357Y-91340551D01*
X264693330Y-91574733D01*
X265303991Y-91575265D01*
X265868371Y-91342068D01*
X266300551Y-90910643D01*
X266534733Y-90346670D01*
X266535265Y-89736009D01*
X266302068Y-89171629D01*
X265900818Y-88769677D01*
X266300551Y-88370643D01*
X266534733Y-87806670D01*
X266535265Y-87196009D01*
X266302068Y-86631629D01*
X265900818Y-86229677D01*
X266300551Y-85830643D01*
X266534733Y-85266670D01*
X266535265Y-84656009D01*
X266302068Y-84091629D01*
X265870643Y-83659449D01*
X265306670Y-83425267D01*
X264696009Y-83424735D01*
X264131629Y-83657932D01*
X263699449Y-84089357D01*
X263465267Y-84653330D01*
X263464735Y-85263991D01*
X263697932Y-85828371D01*
X264099182Y-86230323D01*
X263699449Y-86629357D01*
X263653506Y-86740000D01*
X233800000Y-86740000D01*
X233509161Y-86797852D01*
X233262599Y-86962599D01*
X231862599Y-88362599D01*
X231697852Y-88609161D01*
X231640000Y-88900000D01*
X206127000Y-88900000D01*
X206127000Y-61303991D01*
X219194735Y-61303991D01*
X219427932Y-61868371D01*
X219859357Y-62300551D01*
X220423330Y-62534733D01*
X221033991Y-62535265D01*
X221598371Y-62302068D01*
X222000323Y-61900818D01*
X222399357Y-62300551D01*
X222963330Y-62534733D01*
X223573991Y-62535265D01*
X224138371Y-62302068D01*
X224570551Y-61870643D01*
X224804733Y-61306670D01*
X224804735Y-61303991D01*
X229194735Y-61303991D01*
X229427932Y-61868371D01*
X229859357Y-62300551D01*
X229970000Y-62346494D01*
X229970000Y-76399120D01*
X229914485Y-76422058D01*
X229623081Y-76712954D01*
X229465180Y-77093223D01*
X229464821Y-77504971D01*
X229622058Y-77885515D01*
X229912954Y-78176919D01*
X230293223Y-78334820D01*
X230704971Y-78335179D01*
X231085515Y-78177942D01*
X231376919Y-77887046D01*
X231534820Y-77506777D01*
X231535179Y-77095029D01*
X231490000Y-76985687D01*
X231490000Y-76033991D01*
X263464735Y-76033991D01*
X263697932Y-76598371D01*
X264099182Y-77000323D01*
X263699449Y-77399357D01*
X263465267Y-77963330D01*
X263464735Y-78573991D01*
X263697932Y-79138371D01*
X264129357Y-79570551D01*
X264693330Y-79804733D01*
X265303991Y-79805265D01*
X265868371Y-79572068D01*
X266300551Y-79140643D01*
X266534733Y-78576670D01*
X266535265Y-77966009D01*
X266302068Y-77401629D01*
X265900818Y-76999677D01*
X266300551Y-76600643D01*
X266534733Y-76036670D01*
X266535265Y-75426009D01*
X266302068Y-74861629D01*
X265870643Y-74429449D01*
X265306670Y-74195267D01*
X264696009Y-74194735D01*
X264131629Y-74427932D01*
X263699449Y-74859357D01*
X263465267Y-75423330D01*
X263464735Y-76033991D01*
X231490000Y-76033991D01*
X231490000Y-62346846D01*
X231598371Y-62302068D01*
X232000323Y-61900818D01*
X232399357Y-62300551D01*
X232963330Y-62534733D01*
X233573991Y-62535265D01*
X234138371Y-62302068D01*
X234570551Y-61870643D01*
X234804733Y-61306670D01*
X234804735Y-61303991D01*
X239194735Y-61303991D01*
X239427932Y-61868371D01*
X239859357Y-62300551D01*
X239970000Y-62346494D01*
X239970000Y-71330000D01*
X240027852Y-71620839D01*
X240192599Y-71867401D01*
X240862599Y-72537401D01*
X241109161Y-72702148D01*
X241400000Y-72760000D01*
X247396239Y-72760000D01*
X247512954Y-72876919D01*
X247893223Y-73034820D01*
X248304971Y-73035179D01*
X248685515Y-72877942D01*
X248976919Y-72587046D01*
X249134820Y-72206777D01*
X249135179Y-71795029D01*
X248977942Y-71414485D01*
X248687046Y-71123081D01*
X248535130Y-71060000D01*
X253296239Y-71060000D01*
X253412954Y-71176919D01*
X253793223Y-71334820D01*
X254204971Y-71335179D01*
X254585515Y-71177942D01*
X254876919Y-70887046D01*
X255034820Y-70506777D01*
X255035179Y-70095029D01*
X254877942Y-69714485D01*
X254587046Y-69423081D01*
X254206777Y-69265180D01*
X253795029Y-69264821D01*
X253414485Y-69422058D01*
X253296337Y-69540000D01*
X244414802Y-69540000D01*
X244030000Y-69155198D01*
X244030000Y-66033991D01*
X263464735Y-66033991D01*
X263697932Y-66598371D01*
X264099182Y-67000323D01*
X263699449Y-67399357D01*
X263465267Y-67963330D01*
X263464735Y-68573991D01*
X263697932Y-69138371D01*
X264129357Y-69570551D01*
X264693330Y-69804733D01*
X265303991Y-69805265D01*
X265868371Y-69572068D01*
X266300551Y-69140643D01*
X266534733Y-68576670D01*
X266535265Y-67966009D01*
X266302068Y-67401629D01*
X265900818Y-66999677D01*
X266300551Y-66600643D01*
X266534733Y-66036670D01*
X266535265Y-65426009D01*
X266302068Y-64861629D01*
X265870643Y-64429449D01*
X265306670Y-64195267D01*
X264696009Y-64194735D01*
X264131629Y-64427932D01*
X263699449Y-64859357D01*
X263465267Y-65423330D01*
X263464735Y-66033991D01*
X244030000Y-66033991D01*
X244030000Y-62346846D01*
X244138371Y-62302068D01*
X244570551Y-61870643D01*
X244804733Y-61306670D01*
X244804735Y-61303991D01*
X251194735Y-61303991D01*
X251427932Y-61868371D01*
X251859357Y-62300551D01*
X252423330Y-62534733D01*
X253033991Y-62535265D01*
X253598371Y-62302068D01*
X254000323Y-61900818D01*
X254399357Y-62300551D01*
X254963330Y-62534733D01*
X255573991Y-62535265D01*
X256138371Y-62302068D01*
X256570551Y-61870643D01*
X256804733Y-61306670D01*
X256805265Y-60696009D01*
X256572068Y-60131629D01*
X256140643Y-59699449D01*
X255576670Y-59465267D01*
X254966009Y-59464735D01*
X254401629Y-59697932D01*
X253999677Y-60099182D01*
X253600643Y-59699449D01*
X253036670Y-59465267D01*
X252426009Y-59464735D01*
X251861629Y-59697932D01*
X251429449Y-60129357D01*
X251195267Y-60693330D01*
X251194735Y-61303991D01*
X244804735Y-61303991D01*
X244805265Y-60696009D01*
X244572068Y-60131629D01*
X244140643Y-59699449D01*
X243576670Y-59465267D01*
X242966009Y-59464735D01*
X242401629Y-59697932D01*
X241999677Y-60099182D01*
X241600643Y-59699449D01*
X241036670Y-59465267D01*
X240426009Y-59464735D01*
X239861629Y-59697932D01*
X239429449Y-60129357D01*
X239195267Y-60693330D01*
X239194735Y-61303991D01*
X234804735Y-61303991D01*
X234805265Y-60696009D01*
X234572068Y-60131629D01*
X234140643Y-59699449D01*
X233576670Y-59465267D01*
X232966009Y-59464735D01*
X232401629Y-59697932D01*
X231999677Y-60099182D01*
X231600643Y-59699449D01*
X231036670Y-59465267D01*
X230426009Y-59464735D01*
X229861629Y-59697932D01*
X229429449Y-60129357D01*
X229195267Y-60693330D01*
X229194735Y-61303991D01*
X224804735Y-61303991D01*
X224805265Y-60696009D01*
X224572068Y-60131629D01*
X224140643Y-59699449D01*
X223576670Y-59465267D01*
X222966009Y-59464735D01*
X222401629Y-59697932D01*
X221999677Y-60099182D01*
X221600643Y-59699449D01*
X221036670Y-59465267D01*
X220426009Y-59464735D01*
X219861629Y-59697932D01*
X219429449Y-60129357D01*
X219195267Y-60693330D01*
X219194735Y-61303991D01*
X206127000Y-61303991D01*
X206127000Y-56127000D01*
X271873000Y-56127000D01*
X271873000Y-153873000D01*
G36*
X240873000Y-153873000D02*
X206127000Y-153873000D01*
X206127000Y-148843991D01*
X209464735Y-148843991D01*
X209697932Y-149408371D01*
X210129357Y-149840551D01*
X210693330Y-150074733D01*
X211303991Y-150075265D01*
X211868371Y-149842068D01*
X212300551Y-149410643D01*
X212534733Y-148846670D01*
X212535265Y-148236009D01*
X212302068Y-147671629D01*
X211870643Y-147239449D01*
X211849806Y-147230797D01*
X211900554Y-147080159D01*
X211000000Y-146179605D01*
X210099446Y-147080159D01*
X210150035Y-147230327D01*
X210131629Y-147237932D01*
X209699449Y-147669357D01*
X209465267Y-148233330D01*
X209464735Y-148843991D01*
X206127000Y-148843991D01*
X206127000Y-145759336D01*
X209453542Y-145759336D01*
X209479161Y-146369460D01*
X209663357Y-146814148D01*
X209919841Y-146900554D01*
X210820395Y-146000000D01*
X211179605Y-146000000D01*
X212080159Y-146900554D01*
X212336643Y-146814148D01*
X212546458Y-146240664D01*
X212520839Y-145630540D01*
X212336643Y-145185852D01*
X212080159Y-145099446D01*
X211179605Y-146000000D01*
X210820395Y-146000000D01*
X209919841Y-145099446D01*
X209663357Y-145185852D01*
X209453542Y-145759336D01*
X206127000Y-145759336D01*
X206127000Y-143763991D01*
X209464735Y-143763991D01*
X209697932Y-144328371D01*
X210129357Y-144760551D01*
X210150194Y-144769203D01*
X210099446Y-144919841D01*
X211000000Y-145820395D01*
X211900554Y-144919841D01*
X211849965Y-144769673D01*
X211868371Y-144762068D01*
X212300551Y-144330643D01*
X212534733Y-143766670D01*
X212535265Y-143156009D01*
X212302068Y-142591629D01*
X211870643Y-142159449D01*
X211306670Y-141925267D01*
X210696009Y-141924735D01*
X210131629Y-142157932D01*
X209699449Y-142589357D01*
X209465267Y-143153330D01*
X209464735Y-143763991D01*
X206127000Y-143763991D01*
X206127000Y-133033991D01*
X209464735Y-133033991D01*
X209697932Y-133598371D01*
X210099182Y-134000323D01*
X209699449Y-134399357D01*
X209465267Y-134963330D01*
X209464735Y-135573991D01*
X209697932Y-136138371D01*
X210129357Y-136570551D01*
X210693330Y-136804733D01*
X211303991Y-136805265D01*
X211868371Y-136572068D01*
X212300551Y-136140643D01*
X212534733Y-135576670D01*
X212535265Y-134966009D01*
X212302068Y-134401629D01*
X211900818Y-133999677D01*
X212300551Y-133600643D01*
X212534733Y-133036670D01*
X212535265Y-132426009D01*
X212302068Y-131861629D01*
X211870643Y-131429449D01*
X211306670Y-131195267D01*
X210696009Y-131194735D01*
X210131629Y-131427932D01*
X209699449Y-131859357D01*
X209465267Y-132423330D01*
X209464735Y-133033991D01*
X206127000Y-133033991D01*
X206127000Y-123033991D01*
X209464735Y-123033991D01*
X209697932Y-123598371D01*
X210099182Y-124000323D01*
X209699449Y-124399357D01*
X209465267Y-124963330D01*
X209464735Y-125573991D01*
X209697932Y-126138371D01*
X210129357Y-126570551D01*
X210693330Y-126804733D01*
X211303991Y-126805265D01*
X211868371Y-126572068D01*
X212300551Y-126140643D01*
X212346494Y-126030000D01*
X212455198Y-126030000D01*
X212540000Y-126114802D01*
X212540000Y-137600000D01*
X212597852Y-137890839D01*
X212762599Y-138137401D01*
X213562599Y-138937401D01*
X213809161Y-139102148D01*
X214100000Y-139160000D01*
X219076477Y-139160000D01*
X218823081Y-139412954D01*
X218665180Y-139793223D01*
X218664821Y-140204971D01*
X218822058Y-140585515D01*
X218940000Y-140703663D01*
X218940000Y-145996239D01*
X218823081Y-146112954D01*
X218665180Y-146493223D01*
X218664821Y-146904971D01*
X218822058Y-147285515D01*
X219112954Y-147576919D01*
X219493223Y-147734820D01*
X219904971Y-147735179D01*
X220285515Y-147577942D01*
X220576919Y-147287046D01*
X220734820Y-146906777D01*
X220735179Y-146495029D01*
X220577942Y-146114485D01*
X220460000Y-145996337D01*
X220460000Y-140703761D01*
X220576919Y-140587046D01*
X220734820Y-140206777D01*
X220735179Y-139795029D01*
X220577942Y-139414485D01*
X220460200Y-139296537D01*
X220793223Y-139434820D01*
X221204971Y-139435179D01*
X221585515Y-139277942D01*
X221876919Y-138987046D01*
X222034820Y-138606777D01*
X222035179Y-138195029D01*
X221877942Y-137814485D01*
X221587046Y-137523081D01*
X221206777Y-137365180D01*
X220795029Y-137364821D01*
X220414485Y-137522058D01*
X220296337Y-137640000D01*
X214414802Y-137640000D01*
X214060000Y-137285198D01*
X214060000Y-135204971D01*
X232764821Y-135204971D01*
X232922058Y-135585515D01*
X233040000Y-135703663D01*
X233040000Y-145996239D01*
X232923081Y-146112954D01*
X232765180Y-146493223D01*
X232764821Y-146904971D01*
X232922058Y-147285515D01*
X233212954Y-147576919D01*
X233593223Y-147734820D01*
X234004971Y-147735179D01*
X234385515Y-147577942D01*
X234676919Y-147287046D01*
X234834820Y-146906777D01*
X234835179Y-146495029D01*
X234677942Y-146114485D01*
X234560000Y-145996337D01*
X234560000Y-135703761D01*
X234676919Y-135587046D01*
X234834820Y-135206777D01*
X234835179Y-134795029D01*
X234677942Y-134414485D01*
X234387046Y-134123081D01*
X234006777Y-133965180D01*
X233595029Y-133964821D01*
X233214485Y-134122058D01*
X232923081Y-134412954D01*
X232765180Y-134793223D01*
X232764821Y-135204971D01*
X214060000Y-135204971D01*
X214060000Y-132704971D01*
X224564821Y-132704971D01*
X224722058Y-133085515D01*
X225012954Y-133376919D01*
X225393223Y-133534820D01*
X225804971Y-133535179D01*
X226185515Y-133377942D01*
X226303663Y-133260000D01*
X229196239Y-133260000D01*
X229312954Y-133376919D01*
X229693223Y-133534820D01*
X230104971Y-133535179D01*
X230485515Y-133377942D01*
X230776919Y-133087046D01*
X230934820Y-132706777D01*
X230935179Y-132295029D01*
X230777942Y-131914485D01*
X230487046Y-131623081D01*
X230106777Y-131465180D01*
X229695029Y-131464821D01*
X229314485Y-131622058D01*
X229196337Y-131740000D01*
X226303761Y-131740000D01*
X226187046Y-131623081D01*
X225806777Y-131465180D01*
X225395029Y-131464821D01*
X225014485Y-131622058D01*
X224723081Y-131912954D01*
X224565180Y-132293223D01*
X224564821Y-132704971D01*
X214060000Y-132704971D01*
X214060000Y-129604971D01*
X225764821Y-129604971D01*
X225922058Y-129985515D01*
X226212954Y-130276919D01*
X226593223Y-130434820D01*
X227004971Y-130435179D01*
X227385515Y-130277942D01*
X227503663Y-130160000D01*
X231496239Y-130160000D01*
X231612954Y-130276919D01*
X231993223Y-130434820D01*
X232404971Y-130435179D01*
X232785515Y-130277942D01*
X233076919Y-129987046D01*
X233234820Y-129606777D01*
X233235179Y-129195029D01*
X233077942Y-128814485D01*
X232787046Y-128523081D01*
X232406777Y-128365180D01*
X231995029Y-128364821D01*
X231614485Y-128522058D01*
X231496337Y-128640000D01*
X227503761Y-128640000D01*
X227387046Y-128523081D01*
X227006777Y-128365180D01*
X226595029Y-128364821D01*
X226214485Y-128522058D01*
X225923081Y-128812954D01*
X225765180Y-129193223D01*
X225764821Y-129604971D01*
X214060000Y-129604971D01*
X214060000Y-125800000D01*
X214002148Y-125509160D01*
X213837401Y-125262599D01*
X213307401Y-124732599D01*
X213060839Y-124567852D01*
X212770000Y-124510000D01*
X212346846Y-124510000D01*
X212302068Y-124401629D01*
X211900818Y-123999677D01*
X212300551Y-123600643D01*
X212534733Y-123036670D01*
X212535265Y-122426009D01*
X212302068Y-121861629D01*
X211870643Y-121429449D01*
X211306670Y-121195267D01*
X210696009Y-121194735D01*
X210131629Y-121427932D01*
X209699449Y-121859357D01*
X209465267Y-122423330D01*
X209464735Y-123033991D01*
X206127000Y-123033991D01*
X206127000Y-119127000D01*
X240873000Y-119127000D01*
X240873000Y-153873000D01*
X240873000Y-153873000D01*
G37*
X240873000Y-153873000D02*
X206127000Y-153873000D01*
X206127000Y-148843991D01*
X209464735Y-148843991D01*
X209697932Y-149408371D01*
X210129357Y-149840551D01*
X210693330Y-150074733D01*
X211303991Y-150075265D01*
X211868371Y-149842068D01*
X212300551Y-149410643D01*
X212534733Y-148846670D01*
X212535265Y-148236009D01*
X212302068Y-147671629D01*
X211870643Y-147239449D01*
X211849806Y-147230797D01*
X211900554Y-147080159D01*
X211000000Y-146179605D01*
X210099446Y-147080159D01*
X210150035Y-147230327D01*
X210131629Y-147237932D01*
X209699449Y-147669357D01*
X209465267Y-148233330D01*
X209464735Y-148843991D01*
X206127000Y-148843991D01*
X206127000Y-145759336D01*
X209453542Y-145759336D01*
X209479161Y-146369460D01*
X209663357Y-146814148D01*
X209919841Y-146900554D01*
X210820395Y-146000000D01*
X211179605Y-146000000D01*
X212080159Y-146900554D01*
X212336643Y-146814148D01*
X212546458Y-146240664D01*
X212520839Y-145630540D01*
X212336643Y-145185852D01*
X212080159Y-145099446D01*
X211179605Y-146000000D01*
X210820395Y-146000000D01*
X209919841Y-145099446D01*
X209663357Y-145185852D01*
X209453542Y-145759336D01*
X206127000Y-145759336D01*
X206127000Y-143763991D01*
X209464735Y-143763991D01*
X209697932Y-144328371D01*
X210129357Y-144760551D01*
X210150194Y-144769203D01*
X210099446Y-144919841D01*
X211000000Y-145820395D01*
X211900554Y-144919841D01*
X211849965Y-144769673D01*
X211868371Y-144762068D01*
X212300551Y-144330643D01*
X212534733Y-143766670D01*
X212535265Y-143156009D01*
X212302068Y-142591629D01*
X211870643Y-142159449D01*
X211306670Y-141925267D01*
X210696009Y-141924735D01*
X210131629Y-142157932D01*
X209699449Y-142589357D01*
X209465267Y-143153330D01*
X209464735Y-143763991D01*
X206127000Y-143763991D01*
X206127000Y-133033991D01*
X209464735Y-133033991D01*
X209697932Y-133598371D01*
X210099182Y-134000323D01*
X209699449Y-134399357D01*
X209465267Y-134963330D01*
X209464735Y-135573991D01*
X209697932Y-136138371D01*
X210129357Y-136570551D01*
X210693330Y-136804733D01*
X211303991Y-136805265D01*
X211868371Y-136572068D01*
X212300551Y-136140643D01*
X212534733Y-135576670D01*
X212535265Y-134966009D01*
X212302068Y-134401629D01*
X211900818Y-133999677D01*
X212300551Y-133600643D01*
X212534733Y-133036670D01*
X212535265Y-132426009D01*
X212302068Y-131861629D01*
X211870643Y-131429449D01*
X211306670Y-131195267D01*
X210696009Y-131194735D01*
X210131629Y-131427932D01*
X209699449Y-131859357D01*
X209465267Y-132423330D01*
X209464735Y-133033991D01*
X206127000Y-133033991D01*
X206127000Y-123033991D01*
X209464735Y-123033991D01*
X209697932Y-123598371D01*
X210099182Y-124000323D01*
X209699449Y-124399357D01*
X209465267Y-124963330D01*
X209464735Y-125573991D01*
X209697932Y-126138371D01*
X210129357Y-126570551D01*
X210693330Y-126804733D01*
X211303991Y-126805265D01*
X211868371Y-126572068D01*
X212300551Y-126140643D01*
X212346494Y-126030000D01*
X212455198Y-126030000D01*
X212540000Y-126114802D01*
X212540000Y-137600000D01*
X212597852Y-137890839D01*
X212762599Y-138137401D01*
X213562599Y-138937401D01*
X213809161Y-139102148D01*
X214100000Y-139160000D01*
X219076477Y-139160000D01*
X218823081Y-139412954D01*
X218665180Y-139793223D01*
X218664821Y-140204971D01*
X218822058Y-140585515D01*
X218940000Y-140703663D01*
X218940000Y-145996239D01*
X218823081Y-146112954D01*
X218665180Y-146493223D01*
X218664821Y-146904971D01*
X218822058Y-147285515D01*
X219112954Y-147576919D01*
X219493223Y-147734820D01*
X219904971Y-147735179D01*
X220285515Y-147577942D01*
X220576919Y-147287046D01*
X220734820Y-146906777D01*
X220735179Y-146495029D01*
X220577942Y-146114485D01*
X220460000Y-145996337D01*
X220460000Y-140703761D01*
X220576919Y-140587046D01*
X220734820Y-140206777D01*
X220735179Y-139795029D01*
X220577942Y-139414485D01*
X220460200Y-139296537D01*
X220793223Y-139434820D01*
X221204971Y-139435179D01*
X221585515Y-139277942D01*
X221876919Y-138987046D01*
X222034820Y-138606777D01*
X222035179Y-138195029D01*
X221877942Y-137814485D01*
X221587046Y-137523081D01*
X221206777Y-137365180D01*
X220795029Y-137364821D01*
X220414485Y-137522058D01*
X220296337Y-137640000D01*
X214414802Y-137640000D01*
X214060000Y-137285198D01*
X214060000Y-135204971D01*
X232764821Y-135204971D01*
X232922058Y-135585515D01*
X233040000Y-135703663D01*
X233040000Y-145996239D01*
X232923081Y-146112954D01*
X232765180Y-146493223D01*
X232764821Y-146904971D01*
X232922058Y-147285515D01*
X233212954Y-147576919D01*
X233593223Y-147734820D01*
X234004971Y-147735179D01*
X234385515Y-147577942D01*
X234676919Y-147287046D01*
X234834820Y-146906777D01*
X234835179Y-146495029D01*
X234677942Y-146114485D01*
X234560000Y-145996337D01*
X234560000Y-135703761D01*
X234676919Y-135587046D01*
X234834820Y-135206777D01*
X234835179Y-134795029D01*
X234677942Y-134414485D01*
X234387046Y-134123081D01*
X234006777Y-133965180D01*
X233595029Y-133964821D01*
X233214485Y-134122058D01*
X232923081Y-134412954D01*
X232765180Y-134793223D01*
X232764821Y-135204971D01*
X214060000Y-135204971D01*
X214060000Y-132704971D01*
X224564821Y-132704971D01*
X224722058Y-133085515D01*
X225012954Y-133376919D01*
X225393223Y-133534820D01*
X225804971Y-133535179D01*
X226185515Y-133377942D01*
X226303663Y-133260000D01*
X229196239Y-133260000D01*
X229312954Y-133376919D01*
X229693223Y-133534820D01*
X230104971Y-133535179D01*
X230485515Y-133377942D01*
X230776919Y-133087046D01*
X230934820Y-132706777D01*
X230935179Y-132295029D01*
X230777942Y-131914485D01*
X230487046Y-131623081D01*
X230106777Y-131465180D01*
X229695029Y-131464821D01*
X229314485Y-131622058D01*
X229196337Y-131740000D01*
X226303761Y-131740000D01*
X226187046Y-131623081D01*
X225806777Y-131465180D01*
X225395029Y-131464821D01*
X225014485Y-131622058D01*
X224723081Y-131912954D01*
X224565180Y-132293223D01*
X224564821Y-132704971D01*
X214060000Y-132704971D01*
X214060000Y-129604971D01*
X225764821Y-129604971D01*
X225922058Y-129985515D01*
X226212954Y-130276919D01*
X226593223Y-130434820D01*
X227004971Y-130435179D01*
X227385515Y-130277942D01*
X227503663Y-130160000D01*
X231496239Y-130160000D01*
X231612954Y-130276919D01*
X231993223Y-130434820D01*
X232404971Y-130435179D01*
X232785515Y-130277942D01*
X233076919Y-129987046D01*
X233234820Y-129606777D01*
X233235179Y-129195029D01*
X233077942Y-128814485D01*
X232787046Y-128523081D01*
X232406777Y-128365180D01*
X231995029Y-128364821D01*
X231614485Y-128522058D01*
X231496337Y-128640000D01*
X227503761Y-128640000D01*
X227387046Y-128523081D01*
X227006777Y-128365180D01*
X226595029Y-128364821D01*
X226214485Y-128522058D01*
X225923081Y-128812954D01*
X225765180Y-129193223D01*
X225764821Y-129604971D01*
X214060000Y-129604971D01*
X214060000Y-125800000D01*
X214002148Y-125509160D01*
X213837401Y-125262599D01*
X213307401Y-124732599D01*
X213060839Y-124567852D01*
X212770000Y-124510000D01*
X212346846Y-124510000D01*
X212302068Y-124401629D01*
X211900818Y-123999677D01*
X212300551Y-123600643D01*
X212534733Y-123036670D01*
X212535265Y-122426009D01*
X212302068Y-121861629D01*
X211870643Y-121429449D01*
X211306670Y-121195267D01*
X210696009Y-121194735D01*
X210131629Y-121427932D01*
X209699449Y-121859357D01*
X209465267Y-122423330D01*
X209464735Y-123033991D01*
X206127000Y-123033991D01*
X206127000Y-119127000D01*
X240873000Y-119127000D01*
X240873000Y-153873000D01*
M02*
