G04 #@! TF.FileFunction,Legend,Top*
%FSLAX46Y46*%
G04 Gerber Fmt 4.6, Leading zero omitted, Abs format (unit mm)*
G04 Created by KiCad (PCBNEW 4.0.4-stable) date Thursday, May 25, 2017 'AMt' 09:40:54 AM*
%MOMM*%
%LPD*%
G01*
G04 APERTURE LIST*
%ADD10C,0.100000*%
%ADD11C,0.200000*%
%ADD12C,0.300000*%
%ADD13C,0.120000*%
%ADD14C,0.050000*%
%ADD15C,0.010000*%
%ADD16C,0.150000*%
G04 APERTURE END LIST*
D10*
D11*
X213885714Y-129207143D02*
X214100000Y-129278571D01*
X214457143Y-129278571D01*
X214600000Y-129207143D01*
X214671429Y-129135714D01*
X214742857Y-128992857D01*
X214742857Y-128850000D01*
X214671429Y-128707143D01*
X214600000Y-128635714D01*
X214457143Y-128564286D01*
X214171429Y-128492857D01*
X214028571Y-128421429D01*
X213957143Y-128350000D01*
X213885714Y-128207143D01*
X213885714Y-128064286D01*
X213957143Y-127921429D01*
X214028571Y-127850000D01*
X214171429Y-127778571D01*
X214528571Y-127778571D01*
X214742857Y-127850000D01*
X215385714Y-128492857D02*
X215885714Y-128492857D01*
X216100000Y-129278571D02*
X215385714Y-129278571D01*
X215385714Y-127778571D01*
X216100000Y-127778571D01*
X217457143Y-129278571D02*
X216742857Y-129278571D01*
X216742857Y-127778571D01*
X254778571Y-82507143D02*
X256278571Y-82150000D01*
X255207143Y-81864286D01*
X256278571Y-81578572D01*
X254778571Y-81221429D01*
X256278571Y-80007143D02*
X255492857Y-80007143D01*
X255350000Y-80078572D01*
X255278571Y-80221429D01*
X255278571Y-80507143D01*
X255350000Y-80650000D01*
X256207143Y-80007143D02*
X256278571Y-80150000D01*
X256278571Y-80507143D01*
X256207143Y-80650000D01*
X256064286Y-80721429D01*
X255921429Y-80721429D01*
X255778571Y-80650000D01*
X255707143Y-80507143D01*
X255707143Y-80150000D01*
X255635714Y-80007143D01*
X255278571Y-79507143D02*
X255278571Y-78935714D01*
X254778571Y-79292857D02*
X256064286Y-79292857D01*
X256207143Y-79221429D01*
X256278571Y-79078571D01*
X256278571Y-78935714D01*
X256207143Y-77792857D02*
X256278571Y-77935714D01*
X256278571Y-78221428D01*
X256207143Y-78364286D01*
X256135714Y-78435714D01*
X255992857Y-78507143D01*
X255564286Y-78507143D01*
X255421429Y-78435714D01*
X255350000Y-78364286D01*
X255278571Y-78221428D01*
X255278571Y-77935714D01*
X255350000Y-77792857D01*
X256278571Y-77150000D02*
X254778571Y-77150000D01*
X256278571Y-76507143D02*
X255492857Y-76507143D01*
X255350000Y-76578572D01*
X255278571Y-76721429D01*
X255278571Y-76935714D01*
X255350000Y-77078572D01*
X255421429Y-77150000D01*
X256278571Y-75150000D02*
X254778571Y-75150000D01*
X256207143Y-75150000D02*
X256278571Y-75292857D01*
X256278571Y-75578571D01*
X256207143Y-75721429D01*
X256135714Y-75792857D01*
X255992857Y-75864286D01*
X255564286Y-75864286D01*
X255421429Y-75792857D01*
X255350000Y-75721429D01*
X255278571Y-75578571D01*
X255278571Y-75292857D01*
X255350000Y-75150000D01*
X256278571Y-74221428D02*
X256207143Y-74364286D01*
X256135714Y-74435714D01*
X255992857Y-74507143D01*
X255564286Y-74507143D01*
X255421429Y-74435714D01*
X255350000Y-74364286D01*
X255278571Y-74221428D01*
X255278571Y-74007143D01*
X255350000Y-73864286D01*
X255421429Y-73792857D01*
X255564286Y-73721428D01*
X255992857Y-73721428D01*
X256135714Y-73792857D01*
X256207143Y-73864286D01*
X256278571Y-74007143D01*
X256278571Y-74221428D01*
X255278571Y-72435714D02*
X256492857Y-72435714D01*
X256635714Y-72507143D01*
X256707143Y-72578571D01*
X256778571Y-72721428D01*
X256778571Y-72935714D01*
X256707143Y-73078571D01*
X256207143Y-72435714D02*
X256278571Y-72578571D01*
X256278571Y-72864285D01*
X256207143Y-73007143D01*
X256135714Y-73078571D01*
X255992857Y-73150000D01*
X255564286Y-73150000D01*
X255421429Y-73078571D01*
X255350000Y-73007143D01*
X255278571Y-72864285D01*
X255278571Y-72578571D01*
X255350000Y-72435714D01*
X251642858Y-123578571D02*
X251142858Y-122864286D01*
X250785715Y-123578571D02*
X250785715Y-122078571D01*
X251357143Y-122078571D01*
X251500001Y-122150000D01*
X251571429Y-122221429D01*
X251642858Y-122364286D01*
X251642858Y-122578571D01*
X251571429Y-122721429D01*
X251500001Y-122792857D01*
X251357143Y-122864286D01*
X250785715Y-122864286D01*
X252071429Y-122078571D02*
X252928572Y-122078571D01*
X252500001Y-123578571D02*
X252500001Y-122078571D01*
X254285715Y-123435714D02*
X254214286Y-123507143D01*
X254000000Y-123578571D01*
X253857143Y-123578571D01*
X253642858Y-123507143D01*
X253500000Y-123364286D01*
X253428572Y-123221429D01*
X253357143Y-122935714D01*
X253357143Y-122721429D01*
X253428572Y-122435714D01*
X253500000Y-122292857D01*
X253642858Y-122150000D01*
X253857143Y-122078571D01*
X254000000Y-122078571D01*
X254214286Y-122150000D01*
X254285715Y-122221429D01*
X249585715Y-100052381D02*
X249014286Y-100052381D01*
X249300000Y-100052381D02*
X249300000Y-99052381D01*
X249204762Y-99195238D01*
X249109524Y-99290476D01*
X249014286Y-99338095D01*
X237085715Y-101152381D02*
X236514286Y-101152381D01*
X236800000Y-101152381D02*
X236800000Y-100152381D01*
X236704762Y-100295238D01*
X236609524Y-100390476D01*
X236514286Y-100438095D01*
X224285715Y-101052381D02*
X223714286Y-101052381D01*
X224000000Y-101052381D02*
X224000000Y-100052381D01*
X223904762Y-100195238D01*
X223809524Y-100290476D01*
X223714286Y-100338095D01*
D12*
X235978571Y-79178571D02*
X235264286Y-79678571D01*
X235978571Y-80035714D02*
X234478571Y-80035714D01*
X234478571Y-79464286D01*
X234550000Y-79321428D01*
X234621429Y-79250000D01*
X234764286Y-79178571D01*
X234978571Y-79178571D01*
X235121429Y-79250000D01*
X235192857Y-79321428D01*
X235264286Y-79464286D01*
X235264286Y-80035714D01*
X235192857Y-78535714D02*
X235192857Y-78035714D01*
X235978571Y-77821428D02*
X235978571Y-78535714D01*
X234478571Y-78535714D01*
X234478571Y-77821428D01*
X235907143Y-77250000D02*
X235978571Y-77035714D01*
X235978571Y-76678571D01*
X235907143Y-76535714D01*
X235835714Y-76464285D01*
X235692857Y-76392857D01*
X235550000Y-76392857D01*
X235407143Y-76464285D01*
X235335714Y-76535714D01*
X235264286Y-76678571D01*
X235192857Y-76964285D01*
X235121429Y-77107143D01*
X235050000Y-77178571D01*
X234907143Y-77250000D01*
X234764286Y-77250000D01*
X234621429Y-77178571D01*
X234550000Y-77107143D01*
X234478571Y-76964285D01*
X234478571Y-76607143D01*
X234550000Y-76392857D01*
X235192857Y-75750000D02*
X235192857Y-75250000D01*
X235978571Y-75035714D02*
X235978571Y-75750000D01*
X234478571Y-75750000D01*
X234478571Y-75035714D01*
X234478571Y-74607143D02*
X234478571Y-73750000D01*
X235978571Y-74178571D02*
X234478571Y-74178571D01*
D11*
X214571428Y-105207143D02*
X213428571Y-105207143D01*
X214000000Y-105778571D02*
X214000000Y-104635714D01*
X238571428Y-130207143D02*
X237428571Y-130207143D01*
X238000000Y-130778571D02*
X238000000Y-129635714D01*
X218471428Y-76107143D02*
X217328571Y-76107143D01*
X217900000Y-76678571D02*
X217900000Y-75535714D01*
D12*
X233135715Y-127678571D02*
X232421429Y-127678571D01*
X232421429Y-126178571D01*
X233850001Y-127678571D02*
X233707143Y-127607143D01*
X233635715Y-127535714D01*
X233564286Y-127392857D01*
X233564286Y-126964286D01*
X233635715Y-126821429D01*
X233707143Y-126750000D01*
X233850001Y-126678571D01*
X234064286Y-126678571D01*
X234207143Y-126750000D01*
X234278572Y-126821429D01*
X234350001Y-126964286D01*
X234350001Y-127392857D01*
X234278572Y-127535714D01*
X234207143Y-127607143D01*
X234064286Y-127678571D01*
X233850001Y-127678571D01*
X235635715Y-127678571D02*
X235635715Y-126892857D01*
X235564286Y-126750000D01*
X235421429Y-126678571D01*
X235135715Y-126678571D01*
X234992858Y-126750000D01*
X235635715Y-127607143D02*
X235492858Y-127678571D01*
X235135715Y-127678571D01*
X234992858Y-127607143D01*
X234921429Y-127464286D01*
X234921429Y-127321429D01*
X234992858Y-127178571D01*
X235135715Y-127107143D01*
X235492858Y-127107143D01*
X235635715Y-127035714D01*
X236992858Y-127678571D02*
X236992858Y-126178571D01*
X236992858Y-127607143D02*
X236850001Y-127678571D01*
X236564287Y-127678571D01*
X236421429Y-127607143D01*
X236350001Y-127535714D01*
X236278572Y-127392857D01*
X236278572Y-126964286D01*
X236350001Y-126821429D01*
X236421429Y-126750000D01*
X236564287Y-126678571D01*
X236850001Y-126678571D01*
X236992858Y-126750000D01*
X238850001Y-127678571D02*
X238850001Y-126178571D01*
X239421429Y-126178571D01*
X239564287Y-126250000D01*
X239635715Y-126321429D01*
X239707144Y-126464286D01*
X239707144Y-126678571D01*
X239635715Y-126821429D01*
X239564287Y-126892857D01*
X239421429Y-126964286D01*
X238850001Y-126964286D01*
X240564287Y-127678571D02*
X240421429Y-127607143D01*
X240350001Y-127535714D01*
X240278572Y-127392857D01*
X240278572Y-126964286D01*
X240350001Y-126821429D01*
X240421429Y-126750000D01*
X240564287Y-126678571D01*
X240778572Y-126678571D01*
X240921429Y-126750000D01*
X240992858Y-126821429D01*
X241064287Y-126964286D01*
X241064287Y-127392857D01*
X240992858Y-127535714D01*
X240921429Y-127607143D01*
X240778572Y-127678571D01*
X240564287Y-127678571D01*
X241564287Y-126678571D02*
X241850001Y-127678571D01*
X242135715Y-126964286D01*
X242421430Y-127678571D01*
X242707144Y-126678571D01*
X243850001Y-127607143D02*
X243707144Y-127678571D01*
X243421430Y-127678571D01*
X243278573Y-127607143D01*
X243207144Y-127464286D01*
X243207144Y-126892857D01*
X243278573Y-126750000D01*
X243421430Y-126678571D01*
X243707144Y-126678571D01*
X243850001Y-126750000D01*
X243921430Y-126892857D01*
X243921430Y-127035714D01*
X243207144Y-127178571D01*
X244564287Y-127678571D02*
X244564287Y-126678571D01*
X244564287Y-126964286D02*
X244635715Y-126821429D01*
X244707144Y-126750000D01*
X244850001Y-126678571D01*
X244992858Y-126678571D01*
D11*
X222680952Y-147752381D02*
X222776191Y-147752381D01*
X222871429Y-147800000D01*
X222919048Y-147847619D01*
X222966667Y-147942857D01*
X223014286Y-148133333D01*
X223014286Y-148371429D01*
X222966667Y-148561905D01*
X222919048Y-148657143D01*
X222871429Y-148704762D01*
X222776191Y-148752381D01*
X222680952Y-148752381D01*
X222585714Y-148704762D01*
X222538095Y-148657143D01*
X222490476Y-148561905D01*
X222442857Y-148371429D01*
X222442857Y-148133333D01*
X222490476Y-147942857D01*
X222538095Y-147847619D01*
X222585714Y-147800000D01*
X222680952Y-147752381D01*
X223395238Y-148752381D02*
X223633333Y-148752381D01*
X223633333Y-148561905D01*
X223538095Y-148514286D01*
X223442857Y-148419048D01*
X223395238Y-148276190D01*
X223395238Y-148038095D01*
X223442857Y-147895238D01*
X223538095Y-147800000D01*
X223680952Y-147752381D01*
X223871429Y-147752381D01*
X224014286Y-147800000D01*
X224109524Y-147895238D01*
X224157143Y-148038095D01*
X224157143Y-148276190D01*
X224109524Y-148419048D01*
X224014286Y-148514286D01*
X223919048Y-148561905D01*
X223919048Y-148752381D01*
X224157143Y-148752381D01*
D12*
X210785715Y-102178571D02*
X209928572Y-102178571D01*
X210357144Y-102178571D02*
X210357144Y-100678571D01*
X210214287Y-100892857D01*
X210071429Y-101035714D01*
X209928572Y-101107143D01*
X211285715Y-101178571D02*
X211642858Y-102178571D01*
X212000000Y-101178571D01*
X212500000Y-100821429D02*
X212571429Y-100750000D01*
X212714286Y-100678571D01*
X213071429Y-100678571D01*
X213214286Y-100750000D01*
X213285715Y-100821429D01*
X213357143Y-100964286D01*
X213357143Y-101107143D01*
X213285715Y-101321429D01*
X212428572Y-102178571D01*
X213357143Y-102178571D01*
X215928571Y-100750000D02*
X215785714Y-100678571D01*
X215571428Y-100678571D01*
X215357143Y-100750000D01*
X215214285Y-100892857D01*
X215142857Y-101035714D01*
X215071428Y-101321429D01*
X215071428Y-101535714D01*
X215142857Y-101821429D01*
X215214285Y-101964286D01*
X215357143Y-102107143D01*
X215571428Y-102178571D01*
X215714285Y-102178571D01*
X215928571Y-102107143D01*
X216000000Y-102035714D01*
X216000000Y-101535714D01*
X215714285Y-101535714D01*
X216857143Y-102178571D02*
X216714285Y-102107143D01*
X216642857Y-102035714D01*
X216571428Y-101892857D01*
X216571428Y-101464286D01*
X216642857Y-101321429D01*
X216714285Y-101250000D01*
X216857143Y-101178571D01*
X217071428Y-101178571D01*
X217214285Y-101250000D01*
X217285714Y-101321429D01*
X217357143Y-101464286D01*
X217357143Y-101892857D01*
X217285714Y-102035714D01*
X217214285Y-102107143D01*
X217071428Y-102178571D01*
X216857143Y-102178571D01*
X218214286Y-102178571D02*
X218071428Y-102107143D01*
X218000000Y-102035714D01*
X217928571Y-101892857D01*
X217928571Y-101464286D01*
X218000000Y-101321429D01*
X218071428Y-101250000D01*
X218214286Y-101178571D01*
X218428571Y-101178571D01*
X218571428Y-101250000D01*
X218642857Y-101321429D01*
X218714286Y-101464286D01*
X218714286Y-101892857D01*
X218642857Y-102035714D01*
X218571428Y-102107143D01*
X218428571Y-102178571D01*
X218214286Y-102178571D01*
X220000000Y-102178571D02*
X220000000Y-100678571D01*
X220000000Y-102107143D02*
X219857143Y-102178571D01*
X219571429Y-102178571D01*
X219428571Y-102107143D01*
X219357143Y-102035714D01*
X219285714Y-101892857D01*
X219285714Y-101464286D01*
X219357143Y-101321429D01*
X219428571Y-101250000D01*
X219571429Y-101178571D01*
X219857143Y-101178571D01*
X220000000Y-101250000D01*
X209357144Y-78178571D02*
X210285715Y-78178571D01*
X209785715Y-78750000D01*
X210000001Y-78750000D01*
X210142858Y-78821429D01*
X210214287Y-78892857D01*
X210285715Y-79035714D01*
X210285715Y-79392857D01*
X210214287Y-79535714D01*
X210142858Y-79607143D01*
X210000001Y-79678571D01*
X209571429Y-79678571D01*
X209428572Y-79607143D01*
X209357144Y-79535714D01*
X210785715Y-78678571D02*
X211142858Y-79678571D01*
X211500000Y-78678571D01*
X211928572Y-78178571D02*
X212857143Y-78178571D01*
X212357143Y-78750000D01*
X212571429Y-78750000D01*
X212714286Y-78821429D01*
X212785715Y-78892857D01*
X212857143Y-79035714D01*
X212857143Y-79392857D01*
X212785715Y-79535714D01*
X212714286Y-79607143D01*
X212571429Y-79678571D01*
X212142857Y-79678571D01*
X212000000Y-79607143D01*
X211928572Y-79535714D01*
X215428571Y-78250000D02*
X215285714Y-78178571D01*
X215071428Y-78178571D01*
X214857143Y-78250000D01*
X214714285Y-78392857D01*
X214642857Y-78535714D01*
X214571428Y-78821429D01*
X214571428Y-79035714D01*
X214642857Y-79321429D01*
X214714285Y-79464286D01*
X214857143Y-79607143D01*
X215071428Y-79678571D01*
X215214285Y-79678571D01*
X215428571Y-79607143D01*
X215500000Y-79535714D01*
X215500000Y-79035714D01*
X215214285Y-79035714D01*
X216357143Y-79678571D02*
X216214285Y-79607143D01*
X216142857Y-79535714D01*
X216071428Y-79392857D01*
X216071428Y-78964286D01*
X216142857Y-78821429D01*
X216214285Y-78750000D01*
X216357143Y-78678571D01*
X216571428Y-78678571D01*
X216714285Y-78750000D01*
X216785714Y-78821429D01*
X216857143Y-78964286D01*
X216857143Y-79392857D01*
X216785714Y-79535714D01*
X216714285Y-79607143D01*
X216571428Y-79678571D01*
X216357143Y-79678571D01*
X217714286Y-79678571D02*
X217571428Y-79607143D01*
X217500000Y-79535714D01*
X217428571Y-79392857D01*
X217428571Y-78964286D01*
X217500000Y-78821429D01*
X217571428Y-78750000D01*
X217714286Y-78678571D01*
X217928571Y-78678571D01*
X218071428Y-78750000D01*
X218142857Y-78821429D01*
X218214286Y-78964286D01*
X218214286Y-79392857D01*
X218142857Y-79535714D01*
X218071428Y-79607143D01*
X217928571Y-79678571D01*
X217714286Y-79678571D01*
X219500000Y-79678571D02*
X219500000Y-78178571D01*
X219500000Y-79607143D02*
X219357143Y-79678571D01*
X219071429Y-79678571D01*
X218928571Y-79607143D01*
X218857143Y-79535714D01*
X218785714Y-79392857D01*
X218785714Y-78964286D01*
X218857143Y-78821429D01*
X218928571Y-78750000D01*
X219071429Y-78678571D01*
X219357143Y-78678571D01*
X219500000Y-78750000D01*
X258321429Y-143678571D02*
X258321429Y-142178571D01*
X259178572Y-143678571D01*
X259178572Y-142178571D01*
X260750001Y-143535714D02*
X260678572Y-143607143D01*
X260464286Y-143678571D01*
X260321429Y-143678571D01*
X260107144Y-143607143D01*
X259964286Y-143464286D01*
X259892858Y-143321429D01*
X259821429Y-143035714D01*
X259821429Y-142821429D01*
X259892858Y-142535714D01*
X259964286Y-142392857D01*
X260107144Y-142250000D01*
X260321429Y-142178571D01*
X260464286Y-142178571D01*
X260678572Y-142250000D01*
X260750001Y-142321429D01*
X269178571Y-145785714D02*
X268464286Y-146285714D01*
X269178571Y-146642857D02*
X267678571Y-146642857D01*
X267678571Y-146071429D01*
X267750000Y-145928571D01*
X267821429Y-145857143D01*
X267964286Y-145785714D01*
X268178571Y-145785714D01*
X268321429Y-145857143D01*
X268392857Y-145928571D01*
X268464286Y-146071429D01*
X268464286Y-146642857D01*
X267678571Y-145357143D02*
X267678571Y-144500000D01*
X269178571Y-144928571D02*
X267678571Y-144928571D01*
X269035714Y-143142857D02*
X269107143Y-143214286D01*
X269178571Y-143428572D01*
X269178571Y-143571429D01*
X269107143Y-143785714D01*
X268964286Y-143928572D01*
X268821429Y-144000000D01*
X268535714Y-144071429D01*
X268321429Y-144071429D01*
X268035714Y-144000000D01*
X267892857Y-143928572D01*
X267750000Y-143785714D01*
X267678571Y-143571429D01*
X267678571Y-143428572D01*
X267750000Y-143214286D01*
X267821429Y-143142857D01*
X269321429Y-142857143D02*
X269321429Y-141714286D01*
X268392857Y-141357143D02*
X268392857Y-140857143D01*
X269178571Y-140642857D02*
X269178571Y-141357143D01*
X267678571Y-141357143D01*
X267678571Y-140642857D01*
X268178571Y-140000000D02*
X269178571Y-140000000D01*
X268321429Y-140000000D02*
X268250000Y-139928572D01*
X268178571Y-139785714D01*
X268178571Y-139571429D01*
X268250000Y-139428572D01*
X268392857Y-139357143D01*
X269178571Y-139357143D01*
X254928571Y-128985714D02*
X254857142Y-129057143D01*
X254642856Y-129128571D01*
X254499999Y-129128571D01*
X254285714Y-129057143D01*
X254142856Y-128914286D01*
X254071428Y-128771429D01*
X253999999Y-128485714D01*
X253999999Y-128271429D01*
X254071428Y-127985714D01*
X254142856Y-127842857D01*
X254285714Y-127700000D01*
X254499999Y-127628571D01*
X254642856Y-127628571D01*
X254857142Y-127700000D01*
X254928571Y-127771429D01*
X255785714Y-129128571D02*
X255642856Y-129057143D01*
X255571428Y-128914286D01*
X255571428Y-127628571D01*
X256357142Y-129128571D02*
X256357142Y-127628571D01*
X256499999Y-128557143D02*
X256928570Y-129128571D01*
X256928570Y-128128571D02*
X256357142Y-128700000D01*
X257857142Y-127628571D02*
X258142856Y-127628571D01*
X258285714Y-127700000D01*
X258428571Y-127842857D01*
X258499999Y-128128571D01*
X258499999Y-128628571D01*
X258428571Y-128914286D01*
X258285714Y-129057143D01*
X258142856Y-129128571D01*
X257857142Y-129128571D01*
X257714285Y-129057143D01*
X257571428Y-128914286D01*
X257499999Y-128628571D01*
X257499999Y-128128571D01*
X257571428Y-127842857D01*
X257714285Y-127700000D01*
X257857142Y-127628571D01*
X259785714Y-128128571D02*
X259785714Y-129128571D01*
X259142857Y-128128571D02*
X259142857Y-128914286D01*
X259214285Y-129057143D01*
X259357143Y-129128571D01*
X259571428Y-129128571D01*
X259714285Y-129057143D01*
X259785714Y-128985714D01*
X260285714Y-128128571D02*
X260857143Y-128128571D01*
X260500000Y-127628571D02*
X260500000Y-128914286D01*
X260571428Y-129057143D01*
X260714286Y-129128571D01*
X260857143Y-129128571D01*
X258714285Y-130178571D02*
X258999999Y-130178571D01*
X259142857Y-130250000D01*
X259285714Y-130392857D01*
X259357142Y-130678571D01*
X259357142Y-131178571D01*
X259285714Y-131464286D01*
X259142857Y-131607143D01*
X258999999Y-131678571D01*
X258714285Y-131678571D01*
X258571428Y-131607143D01*
X258428571Y-131464286D01*
X258357142Y-131178571D01*
X258357142Y-130678571D01*
X258428571Y-130392857D01*
X258571428Y-130250000D01*
X258714285Y-130178571D01*
X260000000Y-130892857D02*
X260500000Y-130892857D01*
X260714286Y-131678571D02*
X260000000Y-131678571D01*
X260000000Y-130178571D01*
X260714286Y-130178571D01*
X257928571Y-134228571D02*
X257928571Y-132728571D01*
X258642857Y-134228571D02*
X258642857Y-132728571D01*
X259500000Y-134228571D01*
X259500000Y-132728571D01*
X260000000Y-132728571D02*
X260857143Y-132728571D01*
X260428572Y-134228571D02*
X260428572Y-132728571D01*
X269178571Y-134357142D02*
X268464286Y-134857142D01*
X269178571Y-135214285D02*
X267678571Y-135214285D01*
X267678571Y-134642857D01*
X267750000Y-134499999D01*
X267821429Y-134428571D01*
X267964286Y-134357142D01*
X268178571Y-134357142D01*
X268321429Y-134428571D01*
X268392857Y-134499999D01*
X268464286Y-134642857D01*
X268464286Y-135214285D01*
X267678571Y-133928571D02*
X267678571Y-133071428D01*
X269178571Y-133499999D02*
X267678571Y-133499999D01*
X269035714Y-131714285D02*
X269107143Y-131785714D01*
X269178571Y-132000000D01*
X269178571Y-132142857D01*
X269107143Y-132357142D01*
X268964286Y-132500000D01*
X268821429Y-132571428D01*
X268535714Y-132642857D01*
X268321429Y-132642857D01*
X268035714Y-132571428D01*
X267892857Y-132500000D01*
X267750000Y-132357142D01*
X267678571Y-132142857D01*
X267678571Y-132000000D01*
X267750000Y-131785714D01*
X267821429Y-131714285D01*
X269321429Y-131428571D02*
X269321429Y-130285714D01*
X268750000Y-130000000D02*
X268750000Y-129285714D01*
X269178571Y-130142857D02*
X267678571Y-129642857D01*
X269178571Y-129142857D01*
X268178571Y-128000000D02*
X269178571Y-128000000D01*
X268178571Y-128642857D02*
X268964286Y-128642857D01*
X269107143Y-128571429D01*
X269178571Y-128428571D01*
X269178571Y-128214286D01*
X269107143Y-128071429D01*
X269035714Y-128000000D01*
X269178571Y-127428571D02*
X268178571Y-126642857D01*
X268178571Y-127428571D02*
X269178571Y-126642857D01*
X256428571Y-113353571D02*
X256428571Y-111853571D01*
X256928571Y-112925000D01*
X257428571Y-111853571D01*
X257428571Y-113353571D01*
X258428571Y-111853571D02*
X258714285Y-111853571D01*
X258857143Y-111925000D01*
X259000000Y-112067857D01*
X259071428Y-112353571D01*
X259071428Y-112853571D01*
X259000000Y-113139286D01*
X258857143Y-113282143D01*
X258714285Y-113353571D01*
X258428571Y-113353571D01*
X258285714Y-113282143D01*
X258142857Y-113139286D01*
X258071428Y-112853571D01*
X258071428Y-112353571D01*
X258142857Y-112067857D01*
X258285714Y-111925000D01*
X258428571Y-111853571D01*
X259642857Y-113282143D02*
X259857143Y-113353571D01*
X260214286Y-113353571D01*
X260357143Y-113282143D01*
X260428572Y-113210714D01*
X260500000Y-113067857D01*
X260500000Y-112925000D01*
X260428572Y-112782143D01*
X260357143Y-112710714D01*
X260214286Y-112639286D01*
X259928572Y-112567857D01*
X259785714Y-112496429D01*
X259714286Y-112425000D01*
X259642857Y-112282143D01*
X259642857Y-112139286D01*
X259714286Y-111996429D01*
X259785714Y-111925000D01*
X259928572Y-111853571D01*
X260285714Y-111853571D01*
X260500000Y-111925000D01*
X261142857Y-113353571D02*
X261142857Y-111853571D01*
X256428571Y-115903571D02*
X256428571Y-114403571D01*
X256928571Y-115475000D01*
X257428571Y-114403571D01*
X257428571Y-115903571D01*
X258142857Y-115903571D02*
X258142857Y-114403571D01*
X258785714Y-115832143D02*
X259000000Y-115903571D01*
X259357143Y-115903571D01*
X259500000Y-115832143D01*
X259571429Y-115760714D01*
X259642857Y-115617857D01*
X259642857Y-115475000D01*
X259571429Y-115332143D01*
X259500000Y-115260714D01*
X259357143Y-115189286D01*
X259071429Y-115117857D01*
X258928571Y-115046429D01*
X258857143Y-114975000D01*
X258785714Y-114832143D01*
X258785714Y-114689286D01*
X258857143Y-114546429D01*
X258928571Y-114475000D01*
X259071429Y-114403571D01*
X259428571Y-114403571D01*
X259642857Y-114475000D01*
X260571428Y-114403571D02*
X260857142Y-114403571D01*
X261000000Y-114475000D01*
X261142857Y-114617857D01*
X261214285Y-114903571D01*
X261214285Y-115403571D01*
X261142857Y-115689286D01*
X261000000Y-115832143D01*
X260857142Y-115903571D01*
X260571428Y-115903571D01*
X260428571Y-115832143D01*
X260285714Y-115689286D01*
X260214285Y-115403571D01*
X260214285Y-114903571D01*
X260285714Y-114617857D01*
X260428571Y-114475000D01*
X260571428Y-114403571D01*
X258500000Y-118310714D02*
X258428571Y-118382143D01*
X258214285Y-118453571D01*
X258071428Y-118453571D01*
X257857143Y-118382143D01*
X257714285Y-118239286D01*
X257642857Y-118096429D01*
X257571428Y-117810714D01*
X257571428Y-117596429D01*
X257642857Y-117310714D01*
X257714285Y-117167857D01*
X257857143Y-117025000D01*
X258071428Y-116953571D01*
X258214285Y-116953571D01*
X258428571Y-117025000D01*
X258500000Y-117096429D01*
X259857143Y-118453571D02*
X259142857Y-118453571D01*
X259142857Y-116953571D01*
X260357143Y-118453571D02*
X260357143Y-116953571D01*
X261214286Y-118453571D02*
X260571429Y-117596429D01*
X261214286Y-116953571D02*
X260357143Y-117810714D01*
X259785715Y-120860714D02*
X259714286Y-120932143D01*
X259500000Y-121003571D01*
X259357143Y-121003571D01*
X259142858Y-120932143D01*
X259000000Y-120789286D01*
X258928572Y-120646429D01*
X258857143Y-120360714D01*
X258857143Y-120146429D01*
X258928572Y-119860714D01*
X259000000Y-119717857D01*
X259142858Y-119575000D01*
X259357143Y-119503571D01*
X259500000Y-119503571D01*
X259714286Y-119575000D01*
X259785715Y-119646429D01*
X260357143Y-120932143D02*
X260571429Y-121003571D01*
X260928572Y-121003571D01*
X261071429Y-120932143D01*
X261142858Y-120860714D01*
X261214286Y-120717857D01*
X261214286Y-120575000D01*
X261142858Y-120432143D01*
X261071429Y-120360714D01*
X260928572Y-120289286D01*
X260642858Y-120217857D01*
X260500000Y-120146429D01*
X260428572Y-120075000D01*
X260357143Y-119932143D01*
X260357143Y-119789286D01*
X260428572Y-119646429D01*
X260500000Y-119575000D01*
X260642858Y-119503571D01*
X261000000Y-119503571D01*
X261214286Y-119575000D01*
X269178571Y-120249999D02*
X268464286Y-120749999D01*
X269178571Y-121107142D02*
X267678571Y-121107142D01*
X267678571Y-120535714D01*
X267750000Y-120392856D01*
X267821429Y-120321428D01*
X267964286Y-120249999D01*
X268178571Y-120249999D01*
X268321429Y-120321428D01*
X268392857Y-120392856D01*
X268464286Y-120535714D01*
X268464286Y-121107142D01*
X267678571Y-119821428D02*
X267678571Y-118964285D01*
X269178571Y-119392856D02*
X267678571Y-119392856D01*
X269035714Y-117607142D02*
X269107143Y-117678571D01*
X269178571Y-117892857D01*
X269178571Y-118035714D01*
X269107143Y-118249999D01*
X268964286Y-118392857D01*
X268821429Y-118464285D01*
X268535714Y-118535714D01*
X268321429Y-118535714D01*
X268035714Y-118464285D01*
X267892857Y-118392857D01*
X267750000Y-118249999D01*
X267678571Y-118035714D01*
X267678571Y-117892857D01*
X267750000Y-117678571D01*
X267821429Y-117607142D01*
X269321429Y-117321428D02*
X269321429Y-116178571D01*
X269107143Y-115892857D02*
X269178571Y-115678571D01*
X269178571Y-115321428D01*
X269107143Y-115178571D01*
X269035714Y-115107142D01*
X268892857Y-115035714D01*
X268750000Y-115035714D01*
X268607143Y-115107142D01*
X268535714Y-115178571D01*
X268464286Y-115321428D01*
X268392857Y-115607142D01*
X268321429Y-115750000D01*
X268250000Y-115821428D01*
X268107143Y-115892857D01*
X267964286Y-115892857D01*
X267821429Y-115821428D01*
X267750000Y-115750000D01*
X267678571Y-115607142D01*
X267678571Y-115250000D01*
X267750000Y-115035714D01*
X269178571Y-114392857D02*
X267678571Y-114392857D01*
X267678571Y-113821429D01*
X267750000Y-113678571D01*
X267821429Y-113607143D01*
X267964286Y-113535714D01*
X268178571Y-113535714D01*
X268321429Y-113607143D01*
X268392857Y-113678571D01*
X268464286Y-113821429D01*
X268464286Y-114392857D01*
X269178571Y-112892857D02*
X267678571Y-112892857D01*
X269107143Y-104035714D02*
X269178571Y-103821428D01*
X269178571Y-103464285D01*
X269107143Y-103321428D01*
X269035714Y-103249999D01*
X268892857Y-103178571D01*
X268750000Y-103178571D01*
X268607143Y-103249999D01*
X268535714Y-103321428D01*
X268464286Y-103464285D01*
X268392857Y-103749999D01*
X268321429Y-103892857D01*
X268250000Y-103964285D01*
X268107143Y-104035714D01*
X267964286Y-104035714D01*
X267821429Y-103964285D01*
X267750000Y-103892857D01*
X267678571Y-103749999D01*
X267678571Y-103392857D01*
X267750000Y-103178571D01*
X269178571Y-102535714D02*
X267678571Y-102535714D01*
X267678571Y-101964286D01*
X267750000Y-101821428D01*
X267821429Y-101750000D01*
X267964286Y-101678571D01*
X268178571Y-101678571D01*
X268321429Y-101750000D01*
X268392857Y-101821428D01*
X268464286Y-101964286D01*
X268464286Y-102535714D01*
X269178571Y-101035714D02*
X267678571Y-101035714D01*
X269035714Y-87749999D02*
X269107143Y-87821428D01*
X269178571Y-88035714D01*
X269178571Y-88178571D01*
X269107143Y-88392856D01*
X268964286Y-88535714D01*
X268821429Y-88607142D01*
X268535714Y-88678571D01*
X268321429Y-88678571D01*
X268035714Y-88607142D01*
X267892857Y-88535714D01*
X267750000Y-88392856D01*
X267678571Y-88178571D01*
X267678571Y-88035714D01*
X267750000Y-87821428D01*
X267821429Y-87749999D01*
X269107143Y-87178571D02*
X269178571Y-86964285D01*
X269178571Y-86607142D01*
X269107143Y-86464285D01*
X269035714Y-86392856D01*
X268892857Y-86321428D01*
X268750000Y-86321428D01*
X268607143Y-86392856D01*
X268535714Y-86464285D01*
X268464286Y-86607142D01*
X268392857Y-86892856D01*
X268321429Y-87035714D01*
X268250000Y-87107142D01*
X268107143Y-87178571D01*
X267964286Y-87178571D01*
X267821429Y-87107142D01*
X267750000Y-87035714D01*
X267678571Y-86892856D01*
X267678571Y-86535714D01*
X267750000Y-86321428D01*
X268392857Y-80071428D02*
X268392857Y-80571428D01*
X269178571Y-80571428D02*
X267678571Y-80571428D01*
X267678571Y-79857142D01*
X269178571Y-79071428D02*
X269107143Y-79214286D01*
X268964286Y-79285714D01*
X267678571Y-79285714D01*
X269178571Y-77857143D02*
X268392857Y-77857143D01*
X268250000Y-77928572D01*
X268178571Y-78071429D01*
X268178571Y-78357143D01*
X268250000Y-78500000D01*
X269107143Y-77857143D02*
X269178571Y-78000000D01*
X269178571Y-78357143D01*
X269107143Y-78500000D01*
X268964286Y-78571429D01*
X268821429Y-78571429D01*
X268678571Y-78500000D01*
X268607143Y-78357143D01*
X268607143Y-78000000D01*
X268535714Y-77857143D01*
X269107143Y-77214286D02*
X269178571Y-77071429D01*
X269178571Y-76785714D01*
X269107143Y-76642857D01*
X268964286Y-76571429D01*
X268892857Y-76571429D01*
X268750000Y-76642857D01*
X268678571Y-76785714D01*
X268678571Y-77000000D01*
X268607143Y-77142857D01*
X268464286Y-77214286D01*
X268392857Y-77214286D01*
X268250000Y-77142857D01*
X268178571Y-77000000D01*
X268178571Y-76785714D01*
X268250000Y-76642857D01*
X269178571Y-75928571D02*
X267678571Y-75928571D01*
X269178571Y-75285714D02*
X268392857Y-75285714D01*
X268250000Y-75357143D01*
X268178571Y-75500000D01*
X268178571Y-75714285D01*
X268250000Y-75857143D01*
X268321429Y-75928571D01*
X269321429Y-74928571D02*
X269321429Y-73785714D01*
X268392857Y-73428571D02*
X268392857Y-72928571D01*
X269178571Y-72714285D02*
X269178571Y-73428571D01*
X267678571Y-73428571D01*
X267678571Y-72714285D01*
X268178571Y-72071428D02*
X269178571Y-72071428D01*
X268321429Y-72071428D02*
X268250000Y-72000000D01*
X268178571Y-71857142D01*
X268178571Y-71642857D01*
X268250000Y-71500000D01*
X268392857Y-71428571D01*
X269178571Y-71428571D01*
X259821429Y-67678571D02*
X259821429Y-66178571D01*
X260678572Y-67678571D01*
X260678572Y-66178571D01*
X262250001Y-67535714D02*
X262178572Y-67607143D01*
X261964286Y-67678571D01*
X261821429Y-67678571D01*
X261607144Y-67607143D01*
X261464286Y-67464286D01*
X261392858Y-67321429D01*
X261321429Y-67035714D01*
X261321429Y-66821429D01*
X261392858Y-66535714D01*
X261464286Y-66392857D01*
X261607144Y-66250000D01*
X261821429Y-66178571D01*
X261964286Y-66178571D01*
X262178572Y-66250000D01*
X262250001Y-66321429D01*
X267678571Y-69249999D02*
X269178571Y-68892856D01*
X268107143Y-68607142D01*
X269178571Y-68321428D01*
X267678571Y-67964285D01*
X269178571Y-67392856D02*
X267678571Y-67392856D01*
X267678571Y-67035713D01*
X267750000Y-66821428D01*
X267892857Y-66678570D01*
X268035714Y-66607142D01*
X268321429Y-66535713D01*
X268535714Y-66535713D01*
X268821429Y-66607142D01*
X268964286Y-66678570D01*
X269107143Y-66821428D01*
X269178571Y-67035713D01*
X269178571Y-67392856D01*
X269321429Y-66249999D02*
X269321429Y-65107142D01*
X269107143Y-64821428D02*
X269178571Y-64607142D01*
X269178571Y-64249999D01*
X269107143Y-64107142D01*
X269035714Y-64035713D01*
X268892857Y-63964285D01*
X268750000Y-63964285D01*
X268607143Y-64035713D01*
X268535714Y-64107142D01*
X268464286Y-64249999D01*
X268392857Y-64535713D01*
X268321429Y-64678571D01*
X268250000Y-64749999D01*
X268107143Y-64821428D01*
X267964286Y-64821428D01*
X267821429Y-64749999D01*
X267750000Y-64678571D01*
X267678571Y-64535713D01*
X267678571Y-64178571D01*
X267750000Y-63964285D01*
X269107143Y-62750000D02*
X269178571Y-62892857D01*
X269178571Y-63178571D01*
X269107143Y-63321428D01*
X268964286Y-63392857D01*
X268392857Y-63392857D01*
X268250000Y-63321428D01*
X268178571Y-63178571D01*
X268178571Y-62892857D01*
X268250000Y-62750000D01*
X268392857Y-62678571D01*
X268535714Y-62678571D01*
X268678571Y-63392857D01*
X268178571Y-62035714D02*
X269178571Y-62035714D01*
X268321429Y-62035714D02*
X268250000Y-61964286D01*
X268178571Y-61821428D01*
X268178571Y-61607143D01*
X268250000Y-61464286D01*
X268392857Y-61392857D01*
X269178571Y-61392857D01*
X269107143Y-60750000D02*
X269178571Y-60607143D01*
X269178571Y-60321428D01*
X269107143Y-60178571D01*
X268964286Y-60107143D01*
X268892857Y-60107143D01*
X268750000Y-60178571D01*
X268678571Y-60321428D01*
X268678571Y-60535714D01*
X268607143Y-60678571D01*
X268464286Y-60750000D01*
X268392857Y-60750000D01*
X268250000Y-60678571D01*
X268178571Y-60535714D01*
X268178571Y-60321428D01*
X268250000Y-60178571D01*
X269107143Y-58892857D02*
X269178571Y-59035714D01*
X269178571Y-59321428D01*
X269107143Y-59464285D01*
X268964286Y-59535714D01*
X268392857Y-59535714D01*
X268250000Y-59464285D01*
X268178571Y-59321428D01*
X268178571Y-59035714D01*
X268250000Y-58892857D01*
X268392857Y-58821428D01*
X268535714Y-58821428D01*
X268678571Y-59535714D01*
X252821429Y-65678571D02*
X252821429Y-64178571D01*
X253678572Y-65678571D01*
X253678572Y-64178571D01*
X255250001Y-65535714D02*
X255178572Y-65607143D01*
X254964286Y-65678571D01*
X254821429Y-65678571D01*
X254607144Y-65607143D01*
X254464286Y-65464286D01*
X254392858Y-65321429D01*
X254321429Y-65035714D01*
X254321429Y-64821429D01*
X254392858Y-64535714D01*
X254464286Y-64392857D01*
X254607144Y-64250000D01*
X254821429Y-64178571D01*
X254964286Y-64178571D01*
X255178572Y-64250000D01*
X255250001Y-64321429D01*
X257071428Y-58571429D02*
X256714285Y-57071429D01*
X256428571Y-58142857D01*
X256142857Y-57071429D01*
X255785714Y-58571429D01*
X255214285Y-57071429D02*
X255214285Y-58571429D01*
X254857142Y-58571429D01*
X254642857Y-58500000D01*
X254499999Y-58357143D01*
X254428571Y-58214286D01*
X254357142Y-57928571D01*
X254357142Y-57714286D01*
X254428571Y-57428571D01*
X254499999Y-57285714D01*
X254642857Y-57142857D01*
X254857142Y-57071429D01*
X255214285Y-57071429D01*
X252571428Y-57857143D02*
X252071428Y-57857143D01*
X251857142Y-57071429D02*
X252571428Y-57071429D01*
X252571428Y-58571429D01*
X251857142Y-58571429D01*
X251214285Y-58071429D02*
X251214285Y-57071429D01*
X251214285Y-57928571D02*
X251142857Y-58000000D01*
X250999999Y-58071429D01*
X250785714Y-58071429D01*
X250642857Y-58000000D01*
X250571428Y-57857143D01*
X250571428Y-57071429D01*
X243846429Y-64214286D02*
X242346429Y-64571429D01*
X243417857Y-64857143D01*
X242346429Y-65142857D01*
X243846429Y-65500000D01*
X242346429Y-66071429D02*
X243846429Y-66071429D01*
X243846429Y-66428572D01*
X243775000Y-66642857D01*
X243632143Y-66785715D01*
X243489286Y-66857143D01*
X243203571Y-66928572D01*
X242989286Y-66928572D01*
X242703571Y-66857143D01*
X242560714Y-66785715D01*
X242417857Y-66642857D01*
X242346429Y-66428572D01*
X242346429Y-66071429D01*
X242346429Y-67571429D02*
X243846429Y-67571429D01*
X241296429Y-64214286D02*
X239796429Y-64571429D01*
X240867857Y-64857143D01*
X239796429Y-65142857D01*
X241296429Y-65500000D01*
X239796429Y-66071429D02*
X241296429Y-66071429D01*
X241296429Y-66428572D01*
X241225000Y-66642857D01*
X241082143Y-66785715D01*
X240939286Y-66857143D01*
X240653571Y-66928572D01*
X240439286Y-66928572D01*
X240153571Y-66857143D01*
X240010714Y-66785715D01*
X239867857Y-66642857D01*
X239796429Y-66428572D01*
X239796429Y-66071429D01*
X239653571Y-67214286D02*
X239653571Y-68357143D01*
X239796429Y-69571429D02*
X240510714Y-69071429D01*
X239796429Y-68714286D02*
X241296429Y-68714286D01*
X241296429Y-69285714D01*
X241225000Y-69428572D01*
X241153571Y-69500000D01*
X241010714Y-69571429D01*
X240796429Y-69571429D01*
X240653571Y-69500000D01*
X240582143Y-69428572D01*
X240510714Y-69285714D01*
X240510714Y-68714286D01*
X239867857Y-70142857D02*
X239796429Y-70357143D01*
X239796429Y-70714286D01*
X239867857Y-70857143D01*
X239939286Y-70928572D01*
X240082143Y-71000000D01*
X240225000Y-71000000D01*
X240367857Y-70928572D01*
X240439286Y-70857143D01*
X240510714Y-70714286D01*
X240582143Y-70428572D01*
X240653571Y-70285714D01*
X240725000Y-70214286D01*
X240867857Y-70142857D01*
X241010714Y-70142857D01*
X241153571Y-70214286D01*
X241225000Y-70285714D01*
X241296429Y-70428572D01*
X241296429Y-70785714D01*
X241225000Y-71000000D01*
X241296429Y-71428571D02*
X241296429Y-72285714D01*
X239796429Y-71857143D02*
X241296429Y-71857143D01*
X247857143Y-58571429D02*
X247500000Y-57071429D01*
X247214286Y-58142857D01*
X246928572Y-57071429D01*
X246571429Y-58571429D01*
X245357143Y-57071429D02*
X245357143Y-57857143D01*
X245428572Y-58000000D01*
X245571429Y-58071429D01*
X245857143Y-58071429D01*
X246000000Y-58000000D01*
X245357143Y-57142857D02*
X245500000Y-57071429D01*
X245857143Y-57071429D01*
X246000000Y-57142857D01*
X246071429Y-57285714D01*
X246071429Y-57428571D01*
X246000000Y-57571429D01*
X245857143Y-57642857D01*
X245500000Y-57642857D01*
X245357143Y-57714286D01*
X244857143Y-58071429D02*
X244285714Y-58071429D01*
X244642857Y-58571429D02*
X244642857Y-57285714D01*
X244571429Y-57142857D01*
X244428571Y-57071429D01*
X244285714Y-57071429D01*
X243142857Y-57142857D02*
X243285714Y-57071429D01*
X243571428Y-57071429D01*
X243714286Y-57142857D01*
X243785714Y-57214286D01*
X243857143Y-57357143D01*
X243857143Y-57785714D01*
X243785714Y-57928571D01*
X243714286Y-58000000D01*
X243571428Y-58071429D01*
X243285714Y-58071429D01*
X243142857Y-58000000D01*
X242500000Y-57071429D02*
X242500000Y-58571429D01*
X241857143Y-57071429D02*
X241857143Y-57857143D01*
X241928572Y-58000000D01*
X242071429Y-58071429D01*
X242285714Y-58071429D01*
X242428572Y-58000000D01*
X242500000Y-57928571D01*
X240500000Y-57071429D02*
X240500000Y-58571429D01*
X240500000Y-57142857D02*
X240642857Y-57071429D01*
X240928571Y-57071429D01*
X241071429Y-57142857D01*
X241142857Y-57214286D01*
X241214286Y-57357143D01*
X241214286Y-57785714D01*
X241142857Y-57928571D01*
X241071429Y-58000000D01*
X240928571Y-58071429D01*
X240642857Y-58071429D01*
X240500000Y-58000000D01*
X239571428Y-57071429D02*
X239714286Y-57142857D01*
X239785714Y-57214286D01*
X239857143Y-57357143D01*
X239857143Y-57785714D01*
X239785714Y-57928571D01*
X239714286Y-58000000D01*
X239571428Y-58071429D01*
X239357143Y-58071429D01*
X239214286Y-58000000D01*
X239142857Y-57928571D01*
X239071428Y-57785714D01*
X239071428Y-57357143D01*
X239142857Y-57214286D01*
X239214286Y-57142857D01*
X239357143Y-57071429D01*
X239571428Y-57071429D01*
X237785714Y-58071429D02*
X237785714Y-56857143D01*
X237857143Y-56714286D01*
X237928571Y-56642857D01*
X238071428Y-56571429D01*
X238285714Y-56571429D01*
X238428571Y-56642857D01*
X237785714Y-57142857D02*
X237928571Y-57071429D01*
X238214285Y-57071429D01*
X238357143Y-57142857D01*
X238428571Y-57214286D01*
X238500000Y-57357143D01*
X238500000Y-57785714D01*
X238428571Y-57928571D01*
X238357143Y-58000000D01*
X238214285Y-58071429D01*
X237928571Y-58071429D01*
X237785714Y-58000000D01*
X230821429Y-65678571D02*
X230821429Y-64178571D01*
X231678572Y-65678571D01*
X231678572Y-64178571D01*
X233250001Y-65535714D02*
X233178572Y-65607143D01*
X232964286Y-65678571D01*
X232821429Y-65678571D01*
X232607144Y-65607143D01*
X232464286Y-65464286D01*
X232392858Y-65321429D01*
X232321429Y-65035714D01*
X232321429Y-64821429D01*
X232392858Y-64535714D01*
X232464286Y-64392857D01*
X232607144Y-64250000D01*
X232821429Y-64178571D01*
X232964286Y-64178571D01*
X233178572Y-64250000D01*
X233250001Y-64321429D01*
X235035714Y-57071429D02*
X235892857Y-57071429D01*
X235464285Y-57071429D02*
X235464285Y-58571429D01*
X235607142Y-58357143D01*
X235750000Y-58214286D01*
X235892857Y-58142857D01*
X234535714Y-58071429D02*
X234178571Y-57071429D01*
X233821429Y-58071429D01*
X233321429Y-58428571D02*
X233250000Y-58500000D01*
X233107143Y-58571429D01*
X232750000Y-58571429D01*
X232607143Y-58500000D01*
X232535714Y-58428571D01*
X232464286Y-58285714D01*
X232464286Y-58142857D01*
X232535714Y-57928571D01*
X233392857Y-57071429D01*
X232464286Y-57071429D01*
X230678572Y-57857143D02*
X230178572Y-57857143D01*
X229964286Y-57071429D02*
X230678572Y-57071429D01*
X230678572Y-58571429D01*
X229964286Y-58571429D01*
X229321429Y-58071429D02*
X229321429Y-57071429D01*
X229321429Y-57928571D02*
X229250001Y-58000000D01*
X229107143Y-58071429D01*
X228892858Y-58071429D01*
X228750001Y-58000000D01*
X228678572Y-57857143D01*
X228678572Y-57071429D01*
X220500000Y-65107143D02*
X221642857Y-65107143D01*
X222357143Y-65107143D02*
X223500000Y-65107143D01*
X222928571Y-65678571D02*
X222928571Y-64535714D01*
X225192856Y-58521429D02*
X224264285Y-58521429D01*
X224764285Y-57950000D01*
X224549999Y-57950000D01*
X224407142Y-57878571D01*
X224335713Y-57807143D01*
X224264285Y-57664286D01*
X224264285Y-57307143D01*
X224335713Y-57164286D01*
X224407142Y-57092857D01*
X224549999Y-57021429D01*
X224978571Y-57021429D01*
X225121428Y-57092857D01*
X225192856Y-57164286D01*
X223764285Y-58021429D02*
X223407142Y-57021429D01*
X223050000Y-58021429D01*
X222621428Y-58521429D02*
X221692857Y-58521429D01*
X222192857Y-57950000D01*
X221978571Y-57950000D01*
X221835714Y-57878571D01*
X221764285Y-57807143D01*
X221692857Y-57664286D01*
X221692857Y-57307143D01*
X221764285Y-57164286D01*
X221835714Y-57092857D01*
X221978571Y-57021429D01*
X222407143Y-57021429D01*
X222550000Y-57092857D01*
X222621428Y-57164286D01*
X219907143Y-57021429D02*
X219907143Y-58521429D01*
X219192857Y-58021429D02*
X219192857Y-57021429D01*
X219192857Y-57878571D02*
X219121429Y-57950000D01*
X218978571Y-58021429D01*
X218764286Y-58021429D01*
X218621429Y-57950000D01*
X218550000Y-57807143D01*
X218550000Y-57021429D01*
X206821429Y-104928572D02*
X208321429Y-104928572D01*
X206821429Y-105642858D02*
X208321429Y-105642858D01*
X206821429Y-106500001D01*
X208321429Y-106500001D01*
X207250000Y-107142858D02*
X207250000Y-107857144D01*
X206821429Y-107000001D02*
X208321429Y-107500001D01*
X206821429Y-108000001D01*
X206678571Y-108142858D02*
X206678571Y-109285715D01*
X206821429Y-109642858D02*
X208321429Y-109642858D01*
X208321429Y-110214286D01*
X208250000Y-110357144D01*
X208178571Y-110428572D01*
X208035714Y-110500001D01*
X207821429Y-110500001D01*
X207678571Y-110428572D01*
X207607143Y-110357144D01*
X207535714Y-110214286D01*
X207535714Y-109642858D01*
X206821429Y-111357144D02*
X206892857Y-111214286D01*
X206964286Y-111142858D01*
X207107143Y-111071429D01*
X207535714Y-111071429D01*
X207678571Y-111142858D01*
X207750000Y-111214286D01*
X207821429Y-111357144D01*
X207821429Y-111571429D01*
X207750000Y-111714286D01*
X207678571Y-111785715D01*
X207535714Y-111857144D01*
X207107143Y-111857144D01*
X206964286Y-111785715D01*
X206892857Y-111714286D01*
X206821429Y-111571429D01*
X206821429Y-111357144D01*
X207821429Y-112357144D02*
X206821429Y-112642858D01*
X207535714Y-112928572D01*
X206821429Y-113214287D01*
X207821429Y-113500001D01*
X206892857Y-114642858D02*
X206821429Y-114500001D01*
X206821429Y-114214287D01*
X206892857Y-114071430D01*
X207035714Y-114000001D01*
X207607143Y-114000001D01*
X207750000Y-114071430D01*
X207821429Y-114214287D01*
X207821429Y-114500001D01*
X207750000Y-114642858D01*
X207607143Y-114714287D01*
X207464286Y-114714287D01*
X207321429Y-114000001D01*
X206821429Y-115357144D02*
X207821429Y-115357144D01*
X207535714Y-115357144D02*
X207678571Y-115428572D01*
X207750000Y-115500001D01*
X207821429Y-115642858D01*
X207821429Y-115785715D01*
X213964286Y-108628571D02*
X214892857Y-108628571D01*
X214392857Y-109200000D01*
X214607143Y-109200000D01*
X214750000Y-109271429D01*
X214821429Y-109342857D01*
X214892857Y-109485714D01*
X214892857Y-109842857D01*
X214821429Y-109985714D01*
X214750000Y-110057143D01*
X214607143Y-110128571D01*
X214178571Y-110128571D01*
X214035714Y-110057143D01*
X213964286Y-109985714D01*
X215392857Y-109128571D02*
X215750000Y-110128571D01*
X216107142Y-109128571D01*
X216535714Y-108628571D02*
X217464285Y-108628571D01*
X216964285Y-109200000D01*
X217178571Y-109200000D01*
X217321428Y-109271429D01*
X217392857Y-109342857D01*
X217464285Y-109485714D01*
X217464285Y-109842857D01*
X217392857Y-109985714D01*
X217321428Y-110057143D01*
X217178571Y-110128571D01*
X216749999Y-110128571D01*
X216607142Y-110057143D01*
X216535714Y-109985714D01*
X214964286Y-112535714D02*
X214892857Y-112607143D01*
X214678571Y-112678571D01*
X214535714Y-112678571D01*
X214321429Y-112607143D01*
X214178571Y-112464286D01*
X214107143Y-112321429D01*
X214035714Y-112035714D01*
X214035714Y-111821429D01*
X214107143Y-111535714D01*
X214178571Y-111392857D01*
X214321429Y-111250000D01*
X214535714Y-111178571D01*
X214678571Y-111178571D01*
X214892857Y-111250000D01*
X214964286Y-111321429D01*
X215892857Y-111178571D02*
X216178571Y-111178571D01*
X216321429Y-111250000D01*
X216464286Y-111392857D01*
X216535714Y-111678571D01*
X216535714Y-112178571D01*
X216464286Y-112464286D01*
X216321429Y-112607143D01*
X216178571Y-112678571D01*
X215892857Y-112678571D01*
X215750000Y-112607143D01*
X215607143Y-112464286D01*
X215535714Y-112178571D01*
X215535714Y-111678571D01*
X215607143Y-111392857D01*
X215750000Y-111250000D01*
X215892857Y-111178571D01*
X217178572Y-112678571D02*
X217178572Y-111178571D01*
X217678572Y-112250000D01*
X218178572Y-111178571D01*
X218178572Y-112678571D01*
X214107143Y-114442857D02*
X214607143Y-114442857D01*
X214821429Y-115228571D02*
X214107143Y-115228571D01*
X214107143Y-113728571D01*
X214821429Y-113728571D01*
X215321429Y-115228571D02*
X216107143Y-114228571D01*
X215321429Y-114228571D02*
X216107143Y-115228571D01*
X216464286Y-114228571D02*
X217035715Y-114228571D01*
X216678572Y-113728571D02*
X216678572Y-115014286D01*
X216750000Y-115157143D01*
X216892858Y-115228571D01*
X217035715Y-115228571D01*
X206821429Y-118500000D02*
X208321429Y-118500000D01*
X206821429Y-119214286D02*
X208321429Y-119214286D01*
X206821429Y-120071429D01*
X208321429Y-120071429D01*
X207250000Y-120714286D02*
X207250000Y-121428572D01*
X206821429Y-120571429D02*
X208321429Y-121071429D01*
X206821429Y-121571429D01*
X206678571Y-121714286D02*
X206678571Y-122857143D01*
X206892857Y-123142857D02*
X206821429Y-123357143D01*
X206821429Y-123714286D01*
X206892857Y-123857143D01*
X206964286Y-123928572D01*
X207107143Y-124000000D01*
X207250000Y-124000000D01*
X207392857Y-123928572D01*
X207464286Y-123857143D01*
X207535714Y-123714286D01*
X207607143Y-123428572D01*
X207678571Y-123285714D01*
X207750000Y-123214286D01*
X207892857Y-123142857D01*
X208035714Y-123142857D01*
X208178571Y-123214286D01*
X208250000Y-123285714D01*
X208321429Y-123428572D01*
X208321429Y-123785714D01*
X208250000Y-124000000D01*
X206821429Y-124642857D02*
X207821429Y-124642857D01*
X208321429Y-124642857D02*
X208250000Y-124571428D01*
X208178571Y-124642857D01*
X208250000Y-124714285D01*
X208321429Y-124642857D01*
X208178571Y-124642857D01*
X207821429Y-126000000D02*
X206607143Y-126000000D01*
X206464286Y-125928571D01*
X206392857Y-125857143D01*
X206321429Y-125714286D01*
X206321429Y-125500000D01*
X206392857Y-125357143D01*
X206892857Y-126000000D02*
X206821429Y-125857143D01*
X206821429Y-125571429D01*
X206892857Y-125428571D01*
X206964286Y-125357143D01*
X207107143Y-125285714D01*
X207535714Y-125285714D01*
X207678571Y-125357143D01*
X207750000Y-125428571D01*
X207821429Y-125571429D01*
X207821429Y-125857143D01*
X207750000Y-126000000D01*
X207821429Y-126714286D02*
X206821429Y-126714286D01*
X207678571Y-126714286D02*
X207750000Y-126785714D01*
X207821429Y-126928572D01*
X207821429Y-127142857D01*
X207750000Y-127285714D01*
X207607143Y-127357143D01*
X206821429Y-127357143D01*
X206821429Y-128714286D02*
X207607143Y-128714286D01*
X207750000Y-128642857D01*
X207821429Y-128500000D01*
X207821429Y-128214286D01*
X207750000Y-128071429D01*
X206892857Y-128714286D02*
X206821429Y-128571429D01*
X206821429Y-128214286D01*
X206892857Y-128071429D01*
X207035714Y-128000000D01*
X207178571Y-128000000D01*
X207321429Y-128071429D01*
X207392857Y-128214286D01*
X207392857Y-128571429D01*
X207464286Y-128714286D01*
X206821429Y-129642858D02*
X206892857Y-129500000D01*
X207035714Y-129428572D01*
X208321429Y-129428572D01*
X213785714Y-122975000D02*
X214500000Y-122975000D01*
X213642857Y-123403571D02*
X214142857Y-121903571D01*
X214642857Y-123403571D01*
X215357143Y-123403571D02*
X215214285Y-123332143D01*
X215142857Y-123189286D01*
X215142857Y-121903571D01*
X216499999Y-123332143D02*
X216357142Y-123403571D01*
X216071428Y-123403571D01*
X215928571Y-123332143D01*
X215857142Y-123189286D01*
X215857142Y-122617857D01*
X215928571Y-122475000D01*
X216071428Y-122403571D01*
X216357142Y-122403571D01*
X216499999Y-122475000D01*
X216571428Y-122617857D01*
X216571428Y-122760714D01*
X215857142Y-122903571D01*
X217214285Y-123403571D02*
X217214285Y-122403571D01*
X217214285Y-122689286D02*
X217285713Y-122546429D01*
X217357142Y-122475000D01*
X217499999Y-122403571D01*
X217642856Y-122403571D01*
X217928570Y-122403571D02*
X218499999Y-122403571D01*
X218142856Y-121903571D02*
X218142856Y-123189286D01*
X218214284Y-123332143D01*
X218357142Y-123403571D01*
X218499999Y-123403571D01*
X214142857Y-124453571D02*
X214428571Y-124453571D01*
X214571429Y-124525000D01*
X214714286Y-124667857D01*
X214785714Y-124953571D01*
X214785714Y-125453571D01*
X214714286Y-125739286D01*
X214571429Y-125882143D01*
X214428571Y-125953571D01*
X214142857Y-125953571D01*
X214000000Y-125882143D01*
X213857143Y-125739286D01*
X213785714Y-125453571D01*
X213785714Y-124953571D01*
X213857143Y-124667857D01*
X214000000Y-124525000D01*
X214142857Y-124453571D01*
X216071429Y-124953571D02*
X216071429Y-125953571D01*
X215428572Y-124953571D02*
X215428572Y-125739286D01*
X215500000Y-125882143D01*
X215642858Y-125953571D01*
X215857143Y-125953571D01*
X216000000Y-125882143D01*
X216071429Y-125810714D01*
X216571429Y-124953571D02*
X217142858Y-124953571D01*
X216785715Y-124453571D02*
X216785715Y-125739286D01*
X216857143Y-125882143D01*
X217000001Y-125953571D01*
X217142858Y-125953571D01*
X206821429Y-132428572D02*
X206821429Y-131714286D01*
X208321429Y-131714286D01*
X206821429Y-133142858D02*
X206892857Y-133000000D01*
X206964286Y-132928572D01*
X207107143Y-132857143D01*
X207535714Y-132857143D01*
X207678571Y-132928572D01*
X207750000Y-133000000D01*
X207821429Y-133142858D01*
X207821429Y-133357143D01*
X207750000Y-133500000D01*
X207678571Y-133571429D01*
X207535714Y-133642858D01*
X207107143Y-133642858D01*
X206964286Y-133571429D01*
X206892857Y-133500000D01*
X206821429Y-133357143D01*
X206821429Y-133142858D01*
X206821429Y-134928572D02*
X207607143Y-134928572D01*
X207750000Y-134857143D01*
X207821429Y-134714286D01*
X207821429Y-134428572D01*
X207750000Y-134285715D01*
X206892857Y-134928572D02*
X206821429Y-134785715D01*
X206821429Y-134428572D01*
X206892857Y-134285715D01*
X207035714Y-134214286D01*
X207178571Y-134214286D01*
X207321429Y-134285715D01*
X207392857Y-134428572D01*
X207392857Y-134785715D01*
X207464286Y-134928572D01*
X206821429Y-136285715D02*
X208321429Y-136285715D01*
X206892857Y-136285715D02*
X206821429Y-136142858D01*
X206821429Y-135857144D01*
X206892857Y-135714286D01*
X206964286Y-135642858D01*
X207107143Y-135571429D01*
X207535714Y-135571429D01*
X207678571Y-135642858D01*
X207750000Y-135714286D01*
X207821429Y-135857144D01*
X207821429Y-136142858D01*
X207750000Y-136285715D01*
X206821429Y-141714286D02*
X208321429Y-141714286D01*
X206821429Y-142428572D02*
X208321429Y-142428572D01*
X206821429Y-143285715D01*
X208321429Y-143285715D01*
X207250000Y-143928572D02*
X207250000Y-144642858D01*
X206821429Y-143785715D02*
X208321429Y-144285715D01*
X206821429Y-144785715D01*
X206678571Y-144928572D02*
X206678571Y-146071429D01*
X208250000Y-147214286D02*
X208321429Y-147071429D01*
X208321429Y-146857143D01*
X208250000Y-146642858D01*
X208107143Y-146500000D01*
X207964286Y-146428572D01*
X207678571Y-146357143D01*
X207464286Y-146357143D01*
X207178571Y-146428572D01*
X207035714Y-146500000D01*
X206892857Y-146642858D01*
X206821429Y-146857143D01*
X206821429Y-147000000D01*
X206892857Y-147214286D01*
X206964286Y-147285715D01*
X207464286Y-147285715D01*
X207464286Y-147000000D01*
X206821429Y-147928572D02*
X208321429Y-147928572D01*
X206821429Y-148785715D01*
X208321429Y-148785715D01*
X206821429Y-149500001D02*
X208321429Y-149500001D01*
X208321429Y-149857144D01*
X208250000Y-150071429D01*
X208107143Y-150214287D01*
X207964286Y-150285715D01*
X207678571Y-150357144D01*
X207464286Y-150357144D01*
X207178571Y-150285715D01*
X207035714Y-150214287D01*
X206892857Y-150071429D01*
X206821429Y-149857144D01*
X206821429Y-149500001D01*
X214607143Y-143342857D02*
X215107143Y-143342857D01*
X215321429Y-144128571D02*
X214607143Y-144128571D01*
X214607143Y-142628571D01*
X215321429Y-142628571D01*
X215821429Y-144128571D02*
X216607143Y-143128571D01*
X215821429Y-143128571D02*
X216607143Y-144128571D01*
X216964286Y-143128571D02*
X217535715Y-143128571D01*
X217178572Y-142628571D02*
X217178572Y-143914286D01*
X217250000Y-144057143D01*
X217392858Y-144128571D01*
X217535715Y-144128571D01*
X215464286Y-146535714D02*
X215392857Y-146607143D01*
X215178571Y-146678571D01*
X215035714Y-146678571D01*
X214821429Y-146607143D01*
X214678571Y-146464286D01*
X214607143Y-146321429D01*
X214535714Y-146035714D01*
X214535714Y-145821429D01*
X214607143Y-145535714D01*
X214678571Y-145392857D01*
X214821429Y-145250000D01*
X215035714Y-145178571D01*
X215178571Y-145178571D01*
X215392857Y-145250000D01*
X215464286Y-145321429D01*
X216392857Y-145178571D02*
X216678571Y-145178571D01*
X216821429Y-145250000D01*
X216964286Y-145392857D01*
X217035714Y-145678571D01*
X217035714Y-146178571D01*
X216964286Y-146464286D01*
X216821429Y-146607143D01*
X216678571Y-146678571D01*
X216392857Y-146678571D01*
X216250000Y-146607143D01*
X216107143Y-146464286D01*
X216035714Y-146178571D01*
X216035714Y-145678571D01*
X216107143Y-145392857D01*
X216250000Y-145250000D01*
X216392857Y-145178571D01*
X217678572Y-146678571D02*
X217678572Y-145178571D01*
X218178572Y-146250000D01*
X218678572Y-145178571D01*
X218678572Y-146678571D01*
X215392857Y-147800000D02*
X215250000Y-147728571D01*
X215035714Y-147728571D01*
X214821429Y-147800000D01*
X214678571Y-147942857D01*
X214607143Y-148085714D01*
X214535714Y-148371429D01*
X214535714Y-148585714D01*
X214607143Y-148871429D01*
X214678571Y-149014286D01*
X214821429Y-149157143D01*
X215035714Y-149228571D01*
X215178571Y-149228571D01*
X215392857Y-149157143D01*
X215464286Y-149085714D01*
X215464286Y-148585714D01*
X215178571Y-148585714D01*
X216107143Y-149228571D02*
X216107143Y-147728571D01*
X216964286Y-149228571D01*
X216964286Y-147728571D01*
X217678572Y-149228571D02*
X217678572Y-147728571D01*
X218035715Y-147728571D01*
X218250000Y-147800000D01*
X218392858Y-147942857D01*
X218464286Y-148085714D01*
X218535715Y-148371429D01*
X218535715Y-148585714D01*
X218464286Y-148871429D01*
X218392858Y-149014286D01*
X218250000Y-149157143D01*
X218035715Y-149228571D01*
X217678572Y-149228571D01*
X212757143Y-132632143D02*
X213900000Y-132632143D01*
X213328571Y-133203571D02*
X213328571Y-132060714D01*
X215328572Y-133203571D02*
X214614286Y-133203571D01*
X214614286Y-131703571D01*
X216042858Y-133203571D02*
X215900000Y-133132143D01*
X215828572Y-133060714D01*
X215757143Y-132917857D01*
X215757143Y-132489286D01*
X215828572Y-132346429D01*
X215900000Y-132275000D01*
X216042858Y-132203571D01*
X216257143Y-132203571D01*
X216400000Y-132275000D01*
X216471429Y-132346429D01*
X216542858Y-132489286D01*
X216542858Y-132917857D01*
X216471429Y-133060714D01*
X216400000Y-133132143D01*
X216257143Y-133203571D01*
X216042858Y-133203571D01*
X217828572Y-133203571D02*
X217828572Y-132417857D01*
X217757143Y-132275000D01*
X217614286Y-132203571D01*
X217328572Y-132203571D01*
X217185715Y-132275000D01*
X217828572Y-133132143D02*
X217685715Y-133203571D01*
X217328572Y-133203571D01*
X217185715Y-133132143D01*
X217114286Y-132989286D01*
X217114286Y-132846429D01*
X217185715Y-132703571D01*
X217328572Y-132632143D01*
X217685715Y-132632143D01*
X217828572Y-132560714D01*
X219185715Y-133203571D02*
X219185715Y-131703571D01*
X219185715Y-133132143D02*
X219042858Y-133203571D01*
X218757144Y-133203571D01*
X218614286Y-133132143D01*
X218542858Y-133060714D01*
X218471429Y-132917857D01*
X218471429Y-132489286D01*
X218542858Y-132346429D01*
X218614286Y-132275000D01*
X218757144Y-132203571D01*
X219042858Y-132203571D01*
X219185715Y-132275000D01*
X212757143Y-135182143D02*
X213900000Y-135182143D01*
X215328572Y-135753571D02*
X214614286Y-135753571D01*
X214614286Y-134253571D01*
X216042858Y-135753571D02*
X215900000Y-135682143D01*
X215828572Y-135610714D01*
X215757143Y-135467857D01*
X215757143Y-135039286D01*
X215828572Y-134896429D01*
X215900000Y-134825000D01*
X216042858Y-134753571D01*
X216257143Y-134753571D01*
X216400000Y-134825000D01*
X216471429Y-134896429D01*
X216542858Y-135039286D01*
X216542858Y-135467857D01*
X216471429Y-135610714D01*
X216400000Y-135682143D01*
X216257143Y-135753571D01*
X216042858Y-135753571D01*
X217828572Y-135753571D02*
X217828572Y-134967857D01*
X217757143Y-134825000D01*
X217614286Y-134753571D01*
X217328572Y-134753571D01*
X217185715Y-134825000D01*
X217828572Y-135682143D02*
X217685715Y-135753571D01*
X217328572Y-135753571D01*
X217185715Y-135682143D01*
X217114286Y-135539286D01*
X217114286Y-135396429D01*
X217185715Y-135253571D01*
X217328572Y-135182143D01*
X217685715Y-135182143D01*
X217828572Y-135110714D01*
X219185715Y-135753571D02*
X219185715Y-134253571D01*
X219185715Y-135682143D02*
X219042858Y-135753571D01*
X218757144Y-135753571D01*
X218614286Y-135682143D01*
X218542858Y-135610714D01*
X218471429Y-135467857D01*
X218471429Y-135039286D01*
X218542858Y-134896429D01*
X218614286Y-134825000D01*
X218757144Y-134753571D01*
X219042858Y-134753571D01*
X219185715Y-134825000D01*
X257657144Y-85285714D02*
X257585715Y-85357143D01*
X257371429Y-85428571D01*
X257228572Y-85428571D01*
X257014287Y-85357143D01*
X256871429Y-85214286D01*
X256800001Y-85071429D01*
X256728572Y-84785714D01*
X256728572Y-84571429D01*
X256800001Y-84285714D01*
X256871429Y-84142857D01*
X257014287Y-84000000D01*
X257228572Y-83928571D01*
X257371429Y-83928571D01*
X257585715Y-84000000D01*
X257657144Y-84071429D01*
X258228572Y-85357143D02*
X258442858Y-85428571D01*
X258800001Y-85428571D01*
X258942858Y-85357143D01*
X259014287Y-85285714D01*
X259085715Y-85142857D01*
X259085715Y-85000000D01*
X259014287Y-84857143D01*
X258942858Y-84785714D01*
X258800001Y-84714286D01*
X258514287Y-84642857D01*
X258371429Y-84571429D01*
X258300001Y-84500000D01*
X258228572Y-84357143D01*
X258228572Y-84214286D01*
X258300001Y-84071429D01*
X258371429Y-84000000D01*
X258514287Y-83928571D01*
X258871429Y-83928571D01*
X259085715Y-84000000D01*
X260514286Y-85428571D02*
X259657143Y-85428571D01*
X260085715Y-85428571D02*
X260085715Y-83928571D01*
X259942858Y-84142857D01*
X259800000Y-84285714D01*
X259657143Y-84357143D01*
X257657144Y-87835714D02*
X257585715Y-87907143D01*
X257371429Y-87978571D01*
X257228572Y-87978571D01*
X257014287Y-87907143D01*
X256871429Y-87764286D01*
X256800001Y-87621429D01*
X256728572Y-87335714D01*
X256728572Y-87121429D01*
X256800001Y-86835714D01*
X256871429Y-86692857D01*
X257014287Y-86550000D01*
X257228572Y-86478571D01*
X257371429Y-86478571D01*
X257585715Y-86550000D01*
X257657144Y-86621429D01*
X258228572Y-87907143D02*
X258442858Y-87978571D01*
X258800001Y-87978571D01*
X258942858Y-87907143D01*
X259014287Y-87835714D01*
X259085715Y-87692857D01*
X259085715Y-87550000D01*
X259014287Y-87407143D01*
X258942858Y-87335714D01*
X258800001Y-87264286D01*
X258514287Y-87192857D01*
X258371429Y-87121429D01*
X258300001Y-87050000D01*
X258228572Y-86907143D01*
X258228572Y-86764286D01*
X258300001Y-86621429D01*
X258371429Y-86550000D01*
X258514287Y-86478571D01*
X258871429Y-86478571D01*
X259085715Y-86550000D01*
X259657143Y-86621429D02*
X259728572Y-86550000D01*
X259871429Y-86478571D01*
X260228572Y-86478571D01*
X260371429Y-86550000D01*
X260442858Y-86621429D01*
X260514286Y-86764286D01*
X260514286Y-86907143D01*
X260442858Y-87121429D01*
X259585715Y-87978571D01*
X260514286Y-87978571D01*
X257657144Y-90385714D02*
X257585715Y-90457143D01*
X257371429Y-90528571D01*
X257228572Y-90528571D01*
X257014287Y-90457143D01*
X256871429Y-90314286D01*
X256800001Y-90171429D01*
X256728572Y-89885714D01*
X256728572Y-89671429D01*
X256800001Y-89385714D01*
X256871429Y-89242857D01*
X257014287Y-89100000D01*
X257228572Y-89028571D01*
X257371429Y-89028571D01*
X257585715Y-89100000D01*
X257657144Y-89171429D01*
X258228572Y-90457143D02*
X258442858Y-90528571D01*
X258800001Y-90528571D01*
X258942858Y-90457143D01*
X259014287Y-90385714D01*
X259085715Y-90242857D01*
X259085715Y-90100000D01*
X259014287Y-89957143D01*
X258942858Y-89885714D01*
X258800001Y-89814286D01*
X258514287Y-89742857D01*
X258371429Y-89671429D01*
X258300001Y-89600000D01*
X258228572Y-89457143D01*
X258228572Y-89314286D01*
X258300001Y-89171429D01*
X258371429Y-89100000D01*
X258514287Y-89028571D01*
X258871429Y-89028571D01*
X259085715Y-89100000D01*
X259585715Y-89028571D02*
X260514286Y-89028571D01*
X260014286Y-89600000D01*
X260228572Y-89600000D01*
X260371429Y-89671429D01*
X260442858Y-89742857D01*
X260514286Y-89885714D01*
X260514286Y-90242857D01*
X260442858Y-90385714D01*
X260371429Y-90457143D01*
X260228572Y-90528571D01*
X259800000Y-90528571D01*
X259657143Y-90457143D01*
X259585715Y-90385714D01*
X255928571Y-100728571D02*
X255928571Y-99228571D01*
X256428571Y-100300000D01*
X256928571Y-99228571D01*
X256928571Y-100728571D01*
X257928571Y-99228571D02*
X258214285Y-99228571D01*
X258357143Y-99300000D01*
X258500000Y-99442857D01*
X258571428Y-99728571D01*
X258571428Y-100228571D01*
X258500000Y-100514286D01*
X258357143Y-100657143D01*
X258214285Y-100728571D01*
X257928571Y-100728571D01*
X257785714Y-100657143D01*
X257642857Y-100514286D01*
X257571428Y-100228571D01*
X257571428Y-99728571D01*
X257642857Y-99442857D01*
X257785714Y-99300000D01*
X257928571Y-99228571D01*
X259142857Y-100657143D02*
X259357143Y-100728571D01*
X259714286Y-100728571D01*
X259857143Y-100657143D01*
X259928572Y-100585714D01*
X260000000Y-100442857D01*
X260000000Y-100300000D01*
X259928572Y-100157143D01*
X259857143Y-100085714D01*
X259714286Y-100014286D01*
X259428572Y-99942857D01*
X259285714Y-99871429D01*
X259214286Y-99800000D01*
X259142857Y-99657143D01*
X259142857Y-99514286D01*
X259214286Y-99371429D01*
X259285714Y-99300000D01*
X259428572Y-99228571D01*
X259785714Y-99228571D01*
X260000000Y-99300000D01*
X260642857Y-100728571D02*
X260642857Y-99228571D01*
X255928571Y-103278571D02*
X255928571Y-101778571D01*
X256428571Y-102850000D01*
X256928571Y-101778571D01*
X256928571Y-103278571D01*
X257642857Y-103278571D02*
X257642857Y-101778571D01*
X258285714Y-103207143D02*
X258500000Y-103278571D01*
X258857143Y-103278571D01*
X259000000Y-103207143D01*
X259071429Y-103135714D01*
X259142857Y-102992857D01*
X259142857Y-102850000D01*
X259071429Y-102707143D01*
X259000000Y-102635714D01*
X258857143Y-102564286D01*
X258571429Y-102492857D01*
X258428571Y-102421429D01*
X258357143Y-102350000D01*
X258285714Y-102207143D01*
X258285714Y-102064286D01*
X258357143Y-101921429D01*
X258428571Y-101850000D01*
X258571429Y-101778571D01*
X258928571Y-101778571D01*
X259142857Y-101850000D01*
X260071428Y-101778571D02*
X260357142Y-101778571D01*
X260500000Y-101850000D01*
X260642857Y-101992857D01*
X260714285Y-102278571D01*
X260714285Y-102778571D01*
X260642857Y-103064286D01*
X260500000Y-103207143D01*
X260357142Y-103278571D01*
X260071428Y-103278571D01*
X259928571Y-103207143D01*
X259785714Y-103064286D01*
X259714285Y-102778571D01*
X259714285Y-102278571D01*
X259785714Y-101992857D01*
X259928571Y-101850000D01*
X260071428Y-101778571D01*
X258000000Y-105685714D02*
X257928571Y-105757143D01*
X257714285Y-105828571D01*
X257571428Y-105828571D01*
X257357143Y-105757143D01*
X257214285Y-105614286D01*
X257142857Y-105471429D01*
X257071428Y-105185714D01*
X257071428Y-104971429D01*
X257142857Y-104685714D01*
X257214285Y-104542857D01*
X257357143Y-104400000D01*
X257571428Y-104328571D01*
X257714285Y-104328571D01*
X257928571Y-104400000D01*
X258000000Y-104471429D01*
X259357143Y-105828571D02*
X258642857Y-105828571D01*
X258642857Y-104328571D01*
X259857143Y-105828571D02*
X259857143Y-104328571D01*
X260714286Y-105828571D02*
X260071429Y-104971429D01*
X260714286Y-104328571D02*
X259857143Y-105185714D01*
X220242856Y-114009524D02*
X220528571Y-114104762D01*
X221004761Y-114104762D01*
X221195237Y-114009524D01*
X221290475Y-113914286D01*
X221385714Y-113723810D01*
X221385714Y-113533333D01*
X221290475Y-113342857D01*
X221195237Y-113247619D01*
X221004761Y-113152381D01*
X220623809Y-113057143D01*
X220433333Y-112961905D01*
X220338094Y-112866667D01*
X220242856Y-112676190D01*
X220242856Y-112485714D01*
X220338094Y-112295238D01*
X220433333Y-112200000D01*
X220623809Y-112104762D01*
X221099999Y-112104762D01*
X221385714Y-112200000D01*
X222909523Y-113057143D02*
X222242856Y-113057143D01*
X222242856Y-114104762D02*
X222242856Y-112104762D01*
X223195237Y-112104762D01*
X223957142Y-112104762D02*
X223957142Y-113723810D01*
X224052381Y-113914286D01*
X224147619Y-114009524D01*
X224338095Y-114104762D01*
X224719047Y-114104762D01*
X224909523Y-114009524D01*
X225004762Y-113914286D01*
X225100000Y-113723810D01*
X225100000Y-112104762D01*
X225957142Y-114009524D02*
X226242857Y-114104762D01*
X226719047Y-114104762D01*
X226909523Y-114009524D01*
X227004761Y-113914286D01*
X227100000Y-113723810D01*
X227100000Y-113533333D01*
X227004761Y-113342857D01*
X226909523Y-113247619D01*
X226719047Y-113152381D01*
X226338095Y-113057143D01*
X226147619Y-112961905D01*
X226052380Y-112866667D01*
X225957142Y-112676190D01*
X225957142Y-112485714D01*
X226052380Y-112295238D01*
X226147619Y-112200000D01*
X226338095Y-112104762D01*
X226814285Y-112104762D01*
X227100000Y-112200000D01*
X228814285Y-114104762D02*
X228814285Y-113057143D01*
X228719047Y-112866667D01*
X228528571Y-112771429D01*
X228147619Y-112771429D01*
X227957142Y-112866667D01*
X228814285Y-114009524D02*
X228623809Y-114104762D01*
X228147619Y-114104762D01*
X227957142Y-114009524D01*
X227861904Y-113819048D01*
X227861904Y-113628571D01*
X227957142Y-113438095D01*
X228147619Y-113342857D01*
X228623809Y-113342857D01*
X228814285Y-113247619D01*
X229480952Y-112771429D02*
X230242857Y-112771429D01*
X229766666Y-112104762D02*
X229766666Y-113819048D01*
X229861905Y-114009524D01*
X230052381Y-114104762D01*
X230242857Y-114104762D01*
X232433333Y-114104762D02*
X232433333Y-112104762D01*
X232909524Y-112104762D01*
X233195238Y-112200000D01*
X233385714Y-112390476D01*
X233480953Y-112580952D01*
X233576191Y-112961905D01*
X233576191Y-113247619D01*
X233480953Y-113628571D01*
X233385714Y-113819048D01*
X233195238Y-114009524D01*
X232909524Y-114104762D01*
X232433333Y-114104762D01*
X235195238Y-114009524D02*
X235004762Y-114104762D01*
X234623810Y-114104762D01*
X234433333Y-114009524D01*
X234338095Y-113819048D01*
X234338095Y-113057143D01*
X234433333Y-112866667D01*
X234623810Y-112771429D01*
X235004762Y-112771429D01*
X235195238Y-112866667D01*
X235290476Y-113057143D01*
X235290476Y-113247619D01*
X234338095Y-113438095D01*
X236147619Y-114104762D02*
X236147619Y-112771429D01*
X236147619Y-112961905D02*
X236242858Y-112866667D01*
X236433334Y-112771429D01*
X236719048Y-112771429D01*
X236909524Y-112866667D01*
X237004762Y-113057143D01*
X237004762Y-114104762D01*
X237004762Y-113057143D02*
X237100000Y-112866667D01*
X237290477Y-112771429D01*
X237576191Y-112771429D01*
X237766667Y-112866667D01*
X237861905Y-113057143D01*
X237861905Y-114104762D01*
X239100001Y-114104762D02*
X238909525Y-114009524D01*
X238814286Y-113914286D01*
X238719048Y-113723810D01*
X238719048Y-113152381D01*
X238814286Y-112961905D01*
X238909525Y-112866667D01*
X239100001Y-112771429D01*
X239385715Y-112771429D01*
X239576191Y-112866667D01*
X239671429Y-112961905D01*
X239766667Y-113152381D01*
X239766667Y-113723810D01*
X239671429Y-113914286D01*
X239576191Y-114009524D01*
X239385715Y-114104762D01*
X239100001Y-114104762D01*
X242814287Y-113057143D02*
X243100001Y-113152381D01*
X243195240Y-113247619D01*
X243290478Y-113438095D01*
X243290478Y-113723810D01*
X243195240Y-113914286D01*
X243100001Y-114009524D01*
X242909525Y-114104762D01*
X242147620Y-114104762D01*
X242147620Y-112104762D01*
X242814287Y-112104762D01*
X243004763Y-112200000D01*
X243100001Y-112295238D01*
X243195240Y-112485714D01*
X243195240Y-112676190D01*
X243100001Y-112866667D01*
X243004763Y-112961905D01*
X242814287Y-113057143D01*
X242147620Y-113057143D01*
X244433335Y-114104762D02*
X244242859Y-114009524D01*
X244147620Y-113914286D01*
X244052382Y-113723810D01*
X244052382Y-113152381D01*
X244147620Y-112961905D01*
X244242859Y-112866667D01*
X244433335Y-112771429D01*
X244719049Y-112771429D01*
X244909525Y-112866667D01*
X245004763Y-112961905D01*
X245100001Y-113152381D01*
X245100001Y-113723810D01*
X245004763Y-113914286D01*
X244909525Y-114009524D01*
X244719049Y-114104762D01*
X244433335Y-114104762D01*
X246814287Y-114104762D02*
X246814287Y-113057143D01*
X246719049Y-112866667D01*
X246528573Y-112771429D01*
X246147621Y-112771429D01*
X245957144Y-112866667D01*
X246814287Y-114009524D02*
X246623811Y-114104762D01*
X246147621Y-114104762D01*
X245957144Y-114009524D01*
X245861906Y-113819048D01*
X245861906Y-113628571D01*
X245957144Y-113438095D01*
X246147621Y-113342857D01*
X246623811Y-113342857D01*
X246814287Y-113247619D01*
X247766668Y-114104762D02*
X247766668Y-112771429D01*
X247766668Y-113152381D02*
X247861907Y-112961905D01*
X247957145Y-112866667D01*
X248147621Y-112771429D01*
X248338097Y-112771429D01*
X249861906Y-114104762D02*
X249861906Y-112104762D01*
X249861906Y-114009524D02*
X249671430Y-114104762D01*
X249290478Y-114104762D01*
X249100002Y-114009524D01*
X249004763Y-113914286D01*
X248909525Y-113723810D01*
X248909525Y-113152381D01*
X249004763Y-112961905D01*
X249100002Y-112866667D01*
X249290478Y-112771429D01*
X249671430Y-112771429D01*
X249861906Y-112866667D01*
X232004762Y-117404762D02*
X231338095Y-116452381D01*
X230861904Y-117404762D02*
X230861904Y-115404762D01*
X231623809Y-115404762D01*
X231814285Y-115500000D01*
X231909524Y-115595238D01*
X232004762Y-115785714D01*
X232004762Y-116071429D01*
X231909524Y-116261905D01*
X231814285Y-116357143D01*
X231623809Y-116452381D01*
X230861904Y-116452381D01*
X233623809Y-117309524D02*
X233433333Y-117404762D01*
X233052381Y-117404762D01*
X232861904Y-117309524D01*
X232766666Y-117119048D01*
X232766666Y-116357143D01*
X232861904Y-116166667D01*
X233052381Y-116071429D01*
X233433333Y-116071429D01*
X233623809Y-116166667D01*
X233719047Y-116357143D01*
X233719047Y-116547619D01*
X232766666Y-116738095D01*
X234385714Y-116071429D02*
X234861905Y-117404762D01*
X235338095Y-116071429D01*
X236100000Y-117214286D02*
X236195239Y-117309524D01*
X236100000Y-117404762D01*
X236004762Y-117309524D01*
X236100000Y-117214286D01*
X236100000Y-117404762D01*
X238480953Y-116833333D02*
X239433334Y-116833333D01*
X238290477Y-117404762D02*
X238957144Y-115404762D01*
X239623811Y-117404762D01*
D13*
X222750000Y-109530000D02*
X223250000Y-109530000D01*
X223250000Y-108470000D02*
X222750000Y-108470000D01*
X225750000Y-82470000D02*
X226250000Y-82470000D01*
X226250000Y-81530000D02*
X225750000Y-81530000D01*
X221470000Y-76250000D02*
X221470000Y-75750000D01*
X220530000Y-75750000D02*
X220530000Y-76250000D01*
X252250000Y-111530000D02*
X251750000Y-111530000D01*
X251750000Y-112470000D02*
X252250000Y-112470000D01*
D10*
X235000000Y-138000000D02*
G75*
G03X244000000Y-151000000I11000000J-2000000D01*
G01*
X244000000Y-129000000D02*
G75*
G03X235000000Y-142000000I2000000J-11000000D01*
G01*
X257000000Y-142000000D02*
G75*
G03X248000000Y-129000000I-11000000J2000000D01*
G01*
X248000000Y-151000000D02*
G75*
G03X257000000Y-138000000I-2000000J11000000D01*
G01*
D13*
X229350000Y-130330000D02*
X228850000Y-130330000D01*
X228850000Y-131270000D02*
X229350000Y-131270000D01*
X224370000Y-92150000D02*
X224370000Y-91650000D01*
X223430000Y-91650000D02*
X223430000Y-92150000D01*
X237170000Y-92150000D02*
X237170000Y-91650000D01*
X236230000Y-91650000D02*
X236230000Y-92150000D01*
X248930000Y-91650000D02*
X248930000Y-92150000D01*
X249870000Y-92150000D02*
X249870000Y-91650000D01*
X250750000Y-71970000D02*
X251250000Y-71970000D01*
X251250000Y-71030000D02*
X250750000Y-71030000D01*
D10*
X235400000Y-120200000D02*
X234800000Y-120200000D01*
X234800000Y-120200000D02*
X235400000Y-120200000D01*
X235400000Y-120200000D02*
X239200000Y-120200000D01*
X239200000Y-120200000D02*
X239200000Y-123800000D01*
X239200000Y-123800000D02*
X234800000Y-123800000D01*
X234800000Y-123800000D02*
X234800000Y-120200000D01*
X220100000Y-67500000D02*
X219500000Y-67500000D01*
X219500000Y-67500000D02*
X220100000Y-67500000D01*
X220100000Y-67500000D02*
X223900000Y-67500000D01*
X223900000Y-67500000D02*
X223900000Y-71100000D01*
X223900000Y-71100000D02*
X219500000Y-71100000D01*
X219500000Y-71100000D02*
X219500000Y-67500000D01*
X214400000Y-85200000D02*
X213800000Y-85200000D01*
X213800000Y-85200000D02*
X214400000Y-85200000D01*
X214400000Y-85200000D02*
X218200000Y-85200000D01*
X218200000Y-85200000D02*
X218200000Y-88800000D01*
X218200000Y-88800000D02*
X213800000Y-88800000D01*
X213800000Y-88800000D02*
X213800000Y-85200000D01*
X214400000Y-96200000D02*
X213800000Y-96200000D01*
X213800000Y-96200000D02*
X214400000Y-96200000D01*
X214400000Y-96200000D02*
X218200000Y-96200000D01*
X218200000Y-96200000D02*
X218200000Y-99800000D01*
X218200000Y-99800000D02*
X213800000Y-99800000D01*
X213800000Y-99800000D02*
X213800000Y-96200000D01*
D13*
X256750000Y-69530000D02*
X257250000Y-69530000D01*
X257250000Y-68470000D02*
X256750000Y-68470000D01*
X239750000Y-83930000D02*
X240250000Y-83930000D01*
X240250000Y-82870000D02*
X239750000Y-82870000D01*
X228850000Y-127330000D02*
X229350000Y-127330000D01*
X229350000Y-126270000D02*
X228850000Y-126270000D01*
X216050000Y-70670000D02*
X215550000Y-70670000D01*
X215550000Y-71730000D02*
X216050000Y-71730000D01*
X228250000Y-108470000D02*
X227750000Y-108470000D01*
X227750000Y-109530000D02*
X228250000Y-109530000D01*
X219450000Y-108470000D02*
X218950000Y-108470000D01*
X218950000Y-109530000D02*
X219450000Y-109530000D01*
X223250000Y-140470000D02*
X222750000Y-140470000D01*
X222750000Y-141530000D02*
X223250000Y-141530000D01*
X220400000Y-122680000D02*
X225600000Y-122680000D01*
X225600000Y-126320000D02*
X220400000Y-126320000D01*
D14*
X238000000Y-79500000D02*
X238000000Y-74500000D01*
X246000000Y-79500000D02*
X238000000Y-79500000D01*
X246000000Y-74500000D02*
X246000000Y-79500000D01*
X238000000Y-74500000D02*
X246000000Y-74500000D01*
X223400000Y-104260000D02*
X222900000Y-103760000D01*
X222900000Y-104260000D02*
X222900000Y-94260000D01*
X228900000Y-104260000D02*
X222900000Y-104260000D01*
X228900000Y-94260000D02*
X228900000Y-104260000D01*
X222900000Y-94260000D02*
X228900000Y-94260000D01*
X236100000Y-104260000D02*
X235600000Y-103760000D01*
X235600000Y-104260000D02*
X235600000Y-94260000D01*
X241600000Y-104260000D02*
X235600000Y-104260000D01*
X241600000Y-94260000D02*
X241600000Y-104260000D01*
X235600000Y-94260000D02*
X241600000Y-94260000D01*
X248800000Y-104260000D02*
X248300000Y-103760000D01*
X248300000Y-104260000D02*
X248300000Y-94260000D01*
X254300000Y-104260000D02*
X248300000Y-104260000D01*
X254300000Y-94260000D02*
X254300000Y-104260000D01*
X248300000Y-94260000D02*
X254300000Y-94260000D01*
D10*
X250900000Y-120800000D02*
X250400000Y-120200000D01*
X250400000Y-115300000D02*
X250400000Y-120200000D01*
X254500000Y-120800000D02*
X250900000Y-120800000D01*
X254500000Y-120800000D02*
X254500000Y-115300000D01*
X250400000Y-115300000D02*
X254500000Y-115300000D01*
X249240555Y-82060000D02*
G75*
G03X249240555Y-82060000I-360555J0D01*
G01*
X253380000Y-76560000D02*
X253380000Y-81560000D01*
X249380000Y-76560000D02*
X253380000Y-76560000D01*
X249380000Y-81560000D02*
X249380000Y-76560000D01*
X253380000Y-81560000D02*
X249380000Y-81560000D01*
X249380000Y-76560000D02*
X253380000Y-76560000D01*
X253380000Y-76560000D02*
X253380000Y-81560000D01*
D14*
X224000000Y-78500000D02*
X228000000Y-78500000D01*
X224000000Y-73500000D02*
X224000000Y-78500000D01*
X228000000Y-78500000D02*
X228000000Y-73500000D01*
X224000000Y-73500000D02*
X228000000Y-73500000D01*
D10*
X219823607Y-134500000D02*
G75*
G03X219823607Y-134500000I-223607J0D01*
G01*
X224000000Y-132000000D02*
X224000000Y-134000000D01*
X220000000Y-134000000D02*
X224000000Y-134000000D01*
X220000000Y-132000000D02*
X224000000Y-132000000D01*
X224000000Y-132000000D02*
X220000000Y-132000000D01*
X220000000Y-132000000D02*
X224000000Y-132000000D01*
X224000000Y-132000000D02*
X224000000Y-134000000D01*
X224000000Y-134000000D02*
X220000000Y-134000000D01*
X220000000Y-134000000D02*
X220000000Y-132000000D01*
D15*
G36*
X230243536Y-146259689D02*
X230361410Y-146445070D01*
X230511358Y-146710617D01*
X230560995Y-146803833D01*
X230717392Y-147096523D01*
X230847378Y-147330473D01*
X230928464Y-147465485D01*
X230939380Y-147480127D01*
X231041113Y-147482612D01*
X231229424Y-147414229D01*
X231309387Y-147374293D01*
X231521217Y-147269287D01*
X231670648Y-147210520D01*
X231695715Y-147206000D01*
X231724059Y-147280781D01*
X231717548Y-147472818D01*
X231696022Y-147629333D01*
X231634795Y-147989116D01*
X231570079Y-148369255D01*
X231552975Y-148469692D01*
X231518074Y-148722330D01*
X231530088Y-148855608D01*
X231596788Y-148914915D01*
X231631048Y-148925708D01*
X231796091Y-148891060D01*
X231998717Y-148736252D01*
X232014246Y-148720349D01*
X232141817Y-148568826D01*
X232181303Y-148481559D01*
X232169007Y-148473425D01*
X232165584Y-148437892D01*
X232247916Y-148378909D01*
X232411432Y-148348791D01*
X232517333Y-148469044D01*
X232554037Y-148711749D01*
X232566237Y-148822450D01*
X232628818Y-148871935D01*
X232783678Y-148872997D01*
X232999834Y-148847882D01*
X233296877Y-148800462D01*
X233553168Y-148744186D01*
X233644271Y-148716473D01*
X233777858Y-148679915D01*
X233820957Y-148734949D01*
X233802782Y-148918909D01*
X233802768Y-148919007D01*
X233754693Y-149165838D01*
X233679452Y-149479889D01*
X233637365Y-149636443D01*
X233513404Y-150077220D01*
X233805398Y-150193683D01*
X234097392Y-150310145D01*
X233601529Y-150723889D01*
X233359511Y-150925246D01*
X233171096Y-151080918D01*
X233071249Y-151162043D01*
X233065349Y-151166523D01*
X233110991Y-151231204D01*
X233261545Y-151395423D01*
X233499765Y-151641456D01*
X233808404Y-151951579D01*
X234170213Y-152308067D01*
X234284543Y-152419457D01*
X234658695Y-152787147D01*
X234984316Y-153114979D01*
X235244201Y-153384975D01*
X235421144Y-153579153D01*
X235497940Y-153679535D01*
X235498989Y-153688566D01*
X235403809Y-153680697D01*
X235223586Y-153605013D01*
X235168796Y-153575986D01*
X234954188Y-153469962D01*
X234640913Y-153330247D01*
X234288627Y-153183222D01*
X234206334Y-153150345D01*
X232924190Y-152732605D01*
X231610311Y-152477200D01*
X230279486Y-152383650D01*
X228946505Y-152451474D01*
X227626157Y-152680191D01*
X226333232Y-153069321D01*
X225456953Y-153434779D01*
X225161458Y-153569528D01*
X224926845Y-153670137D01*
X224793394Y-153719533D01*
X224779620Y-153721861D01*
X224806488Y-153668948D01*
X224932125Y-153534502D01*
X225104667Y-153370510D01*
X225309403Y-153203791D01*
X225494037Y-153203791D01*
X225536773Y-153218656D01*
X225700250Y-153175222D01*
X225949981Y-153082850D01*
X225970723Y-153074416D01*
X226360742Y-152926173D01*
X226795219Y-152777457D01*
X227052000Y-152698160D01*
X228010226Y-152478799D01*
X229059892Y-152339034D01*
X230141500Y-152282181D01*
X231195555Y-152311553D01*
X232089667Y-152417554D01*
X232491485Y-152503378D01*
X232996677Y-152635745D01*
X233551381Y-152798341D01*
X234101736Y-152974848D01*
X234593883Y-153148951D01*
X234880134Y-153262881D01*
X234875652Y-153230353D01*
X234764193Y-153097563D01*
X234561332Y-152881106D01*
X234282644Y-152597575D01*
X233943704Y-152263563D01*
X233926316Y-152246671D01*
X232806698Y-151159692D01*
X233040849Y-151012183D01*
X233256587Y-150860823D01*
X233505384Y-150665609D01*
X233571334Y-150610103D01*
X233867667Y-150355531D01*
X233634834Y-150248842D01*
X233501417Y-150183249D01*
X233431071Y-150112343D01*
X233418924Y-149995948D01*
X233460109Y-149793886D01*
X233542931Y-149490542D01*
X233608370Y-149217049D01*
X233637792Y-149011982D01*
X233628119Y-148927897D01*
X233521388Y-148914466D01*
X233304428Y-148938241D01*
X233107465Y-148976196D01*
X232780276Y-149034404D01*
X232583576Y-149024636D01*
X232489897Y-148939924D01*
X232470667Y-148814666D01*
X232435780Y-148648697D01*
X232328626Y-148630569D01*
X232145466Y-148760600D01*
X232053808Y-148850320D01*
X231872132Y-149021298D01*
X231738452Y-149084295D01*
X231593395Y-149062270D01*
X231547859Y-149045968D01*
X231316266Y-148958551D01*
X231426970Y-148357442D01*
X231488849Y-148028798D01*
X231544934Y-147743544D01*
X231583147Y-147563101D01*
X231583318Y-147562376D01*
X231604766Y-147435983D01*
X231557726Y-147414034D01*
X231403983Y-147484785D01*
X231376685Y-147498876D01*
X231155531Y-147595337D01*
X230988675Y-147604513D01*
X230843371Y-147508238D01*
X230686871Y-147288345D01*
X230546079Y-147038104D01*
X230390036Y-146761188D01*
X230260353Y-146553327D01*
X230179876Y-146450517D01*
X230169896Y-146445437D01*
X230107123Y-146514745D01*
X229993880Y-146699105D01*
X229852975Y-146960913D01*
X229831229Y-147003811D01*
X229679339Y-147282667D01*
X229540803Y-147497115D01*
X229443200Y-147604945D01*
X229436138Y-147608489D01*
X229290231Y-147603911D01*
X229076549Y-147534995D01*
X229033971Y-147515714D01*
X228846017Y-147432324D01*
X228764739Y-147428928D01*
X228745620Y-147509271D01*
X228745334Y-147539989D01*
X228790444Y-147712354D01*
X228941631Y-147887573D01*
X229222680Y-148091417D01*
X229297875Y-148138698D01*
X229474569Y-148261781D01*
X229560159Y-148349575D01*
X229560070Y-148366819D01*
X229474362Y-148345436D01*
X229295728Y-148247569D01*
X229129605Y-148139584D01*
X228625534Y-147834226D01*
X228107360Y-147592940D01*
X227629970Y-147439798D01*
X227462913Y-147408639D01*
X227198484Y-147390132D01*
X227014309Y-147439206D01*
X226845073Y-147561447D01*
X226683083Y-147744126D01*
X226596610Y-147977599D01*
X226565745Y-148194814D01*
X226557422Y-148484537D01*
X226594928Y-148655625D01*
X226617982Y-148681063D01*
X226677643Y-148679233D01*
X226664765Y-148617281D01*
X226665258Y-148464979D01*
X226670677Y-148444921D01*
X226850841Y-148444921D01*
X226856144Y-148659708D01*
X226919807Y-148764046D01*
X227085542Y-148816185D01*
X227136667Y-148825820D01*
X227467341Y-148869577D01*
X227669166Y-148847281D01*
X227772453Y-148750698D01*
X227800946Y-148645333D01*
X227855671Y-148440773D01*
X227910620Y-148337807D01*
X228093304Y-148337807D01*
X228124564Y-148416747D01*
X228246367Y-148587845D01*
X228434822Y-148818443D01*
X228498696Y-148891971D01*
X228709594Y-149125829D01*
X228873698Y-149297019D01*
X228963233Y-149376924D01*
X228971329Y-149378893D01*
X228966405Y-149290758D01*
X228924526Y-149102602D01*
X228911304Y-149053283D01*
X228764522Y-148767421D01*
X228482496Y-148522535D01*
X228274933Y-148398640D01*
X228129521Y-148336740D01*
X228093304Y-148337807D01*
X227910620Y-148337807D01*
X227913777Y-148331893D01*
X227922621Y-148242836D01*
X227788647Y-148146570D01*
X227683658Y-148099060D01*
X227321415Y-147984790D01*
X227068317Y-147995428D01*
X226915120Y-148134813D01*
X226852581Y-148406783D01*
X226850841Y-148444921D01*
X226670677Y-148444921D01*
X226725495Y-148242051D01*
X226746081Y-148189550D01*
X226845804Y-147991648D01*
X226966785Y-147904463D01*
X227177786Y-147883513D01*
X227219428Y-147883333D01*
X227535303Y-147936090D01*
X227936989Y-148082486D01*
X228382814Y-148304710D01*
X228782010Y-148551191D01*
X228949573Y-148700307D01*
X229033513Y-148894327D01*
X229062710Y-149105933D01*
X229066730Y-149352439D01*
X229018941Y-149468778D01*
X228907763Y-149453083D01*
X228721615Y-149303488D01*
X228448915Y-149018128D01*
X228437217Y-149005166D01*
X228213902Y-148760633D01*
X228074778Y-148637210D01*
X227988674Y-148632051D01*
X227924420Y-148742310D01*
X227855030Y-148951989D01*
X227783669Y-149041743D01*
X227623632Y-149046382D01*
X227537530Y-149030103D01*
X227252729Y-148974715D01*
X226955375Y-148925201D01*
X226647084Y-148879507D01*
X226817206Y-149499921D01*
X226894598Y-149822907D01*
X226925902Y-150048864D01*
X226906950Y-150146917D01*
X226904671Y-150147887D01*
X226773016Y-150217158D01*
X226673870Y-150283765D01*
X226623904Y-150338584D01*
X226631425Y-150409383D01*
X226713497Y-150515859D01*
X226887182Y-150677711D01*
X227169542Y-150914637D01*
X227342807Y-151056035D01*
X227647528Y-151311946D01*
X227889628Y-151531335D01*
X228046334Y-151692339D01*
X228094876Y-151773097D01*
X228092777Y-151776026D01*
X227986057Y-151831274D01*
X227764489Y-151926644D01*
X227472000Y-152043401D01*
X227410335Y-152067106D01*
X227107944Y-152199174D01*
X226753504Y-152379086D01*
X226383718Y-152585071D01*
X226035289Y-152795359D01*
X225744917Y-152988180D01*
X225549306Y-153141763D01*
X225494037Y-153203791D01*
X225309403Y-153203791D01*
X225594400Y-152971716D01*
X226168973Y-152579916D01*
X226763331Y-152236101D01*
X227304501Y-151984360D01*
X227588091Y-151866784D01*
X227797015Y-151768117D01*
X227892783Y-151706818D01*
X227895031Y-151701124D01*
X227830827Y-151632506D01*
X227658634Y-151482557D01*
X227404596Y-151273303D01*
X227094857Y-151026768D01*
X227090697Y-151023508D01*
X226714073Y-150722594D01*
X226464547Y-150507355D01*
X226331081Y-150365523D01*
X226302636Y-150284831D01*
X226368175Y-150253013D01*
X226395834Y-150251307D01*
X226544786Y-150201306D01*
X226652483Y-150134202D01*
X226745843Y-150030477D01*
X226760176Y-149883446D01*
X226721591Y-149692395D01*
X226656351Y-149431453D01*
X226570849Y-149090060D01*
X226501792Y-148814667D01*
X226422966Y-148284568D01*
X226472464Y-147860905D01*
X226641821Y-147550302D01*
X226922569Y-147359386D01*
X227306243Y-147294783D01*
X227784375Y-147363118D01*
X228183296Y-147498737D01*
X228679591Y-147702788D01*
X228629912Y-147454394D01*
X228603139Y-147291707D01*
X228628453Y-147224736D01*
X228736823Y-147247720D01*
X228959220Y-147354899D01*
X229014192Y-147382913D01*
X229176716Y-147466278D01*
X229291851Y-147504320D01*
X229385331Y-147477098D01*
X229482891Y-147364667D01*
X229610264Y-147147086D01*
X229793186Y-146804410D01*
X229816054Y-146761500D01*
X229968272Y-146489572D01*
X230094792Y-146287826D01*
X230172276Y-146192930D01*
X230179797Y-146190000D01*
X230243536Y-146259689D01*
X230243536Y-146259689D01*
G37*
X230243536Y-146259689D02*
X230361410Y-146445070D01*
X230511358Y-146710617D01*
X230560995Y-146803833D01*
X230717392Y-147096523D01*
X230847378Y-147330473D01*
X230928464Y-147465485D01*
X230939380Y-147480127D01*
X231041113Y-147482612D01*
X231229424Y-147414229D01*
X231309387Y-147374293D01*
X231521217Y-147269287D01*
X231670648Y-147210520D01*
X231695715Y-147206000D01*
X231724059Y-147280781D01*
X231717548Y-147472818D01*
X231696022Y-147629333D01*
X231634795Y-147989116D01*
X231570079Y-148369255D01*
X231552975Y-148469692D01*
X231518074Y-148722330D01*
X231530088Y-148855608D01*
X231596788Y-148914915D01*
X231631048Y-148925708D01*
X231796091Y-148891060D01*
X231998717Y-148736252D01*
X232014246Y-148720349D01*
X232141817Y-148568826D01*
X232181303Y-148481559D01*
X232169007Y-148473425D01*
X232165584Y-148437892D01*
X232247916Y-148378909D01*
X232411432Y-148348791D01*
X232517333Y-148469044D01*
X232554037Y-148711749D01*
X232566237Y-148822450D01*
X232628818Y-148871935D01*
X232783678Y-148872997D01*
X232999834Y-148847882D01*
X233296877Y-148800462D01*
X233553168Y-148744186D01*
X233644271Y-148716473D01*
X233777858Y-148679915D01*
X233820957Y-148734949D01*
X233802782Y-148918909D01*
X233802768Y-148919007D01*
X233754693Y-149165838D01*
X233679452Y-149479889D01*
X233637365Y-149636443D01*
X233513404Y-150077220D01*
X233805398Y-150193683D01*
X234097392Y-150310145D01*
X233601529Y-150723889D01*
X233359511Y-150925246D01*
X233171096Y-151080918D01*
X233071249Y-151162043D01*
X233065349Y-151166523D01*
X233110991Y-151231204D01*
X233261545Y-151395423D01*
X233499765Y-151641456D01*
X233808404Y-151951579D01*
X234170213Y-152308067D01*
X234284543Y-152419457D01*
X234658695Y-152787147D01*
X234984316Y-153114979D01*
X235244201Y-153384975D01*
X235421144Y-153579153D01*
X235497940Y-153679535D01*
X235498989Y-153688566D01*
X235403809Y-153680697D01*
X235223586Y-153605013D01*
X235168796Y-153575986D01*
X234954188Y-153469962D01*
X234640913Y-153330247D01*
X234288627Y-153183222D01*
X234206334Y-153150345D01*
X232924190Y-152732605D01*
X231610311Y-152477200D01*
X230279486Y-152383650D01*
X228946505Y-152451474D01*
X227626157Y-152680191D01*
X226333232Y-153069321D01*
X225456953Y-153434779D01*
X225161458Y-153569528D01*
X224926845Y-153670137D01*
X224793394Y-153719533D01*
X224779620Y-153721861D01*
X224806488Y-153668948D01*
X224932125Y-153534502D01*
X225104667Y-153370510D01*
X225309403Y-153203791D01*
X225494037Y-153203791D01*
X225536773Y-153218656D01*
X225700250Y-153175222D01*
X225949981Y-153082850D01*
X225970723Y-153074416D01*
X226360742Y-152926173D01*
X226795219Y-152777457D01*
X227052000Y-152698160D01*
X228010226Y-152478799D01*
X229059892Y-152339034D01*
X230141500Y-152282181D01*
X231195555Y-152311553D01*
X232089667Y-152417554D01*
X232491485Y-152503378D01*
X232996677Y-152635745D01*
X233551381Y-152798341D01*
X234101736Y-152974848D01*
X234593883Y-153148951D01*
X234880134Y-153262881D01*
X234875652Y-153230353D01*
X234764193Y-153097563D01*
X234561332Y-152881106D01*
X234282644Y-152597575D01*
X233943704Y-152263563D01*
X233926316Y-152246671D01*
X232806698Y-151159692D01*
X233040849Y-151012183D01*
X233256587Y-150860823D01*
X233505384Y-150665609D01*
X233571334Y-150610103D01*
X233867667Y-150355531D01*
X233634834Y-150248842D01*
X233501417Y-150183249D01*
X233431071Y-150112343D01*
X233418924Y-149995948D01*
X233460109Y-149793886D01*
X233542931Y-149490542D01*
X233608370Y-149217049D01*
X233637792Y-149011982D01*
X233628119Y-148927897D01*
X233521388Y-148914466D01*
X233304428Y-148938241D01*
X233107465Y-148976196D01*
X232780276Y-149034404D01*
X232583576Y-149024636D01*
X232489897Y-148939924D01*
X232470667Y-148814666D01*
X232435780Y-148648697D01*
X232328626Y-148630569D01*
X232145466Y-148760600D01*
X232053808Y-148850320D01*
X231872132Y-149021298D01*
X231738452Y-149084295D01*
X231593395Y-149062270D01*
X231547859Y-149045968D01*
X231316266Y-148958551D01*
X231426970Y-148357442D01*
X231488849Y-148028798D01*
X231544934Y-147743544D01*
X231583147Y-147563101D01*
X231583318Y-147562376D01*
X231604766Y-147435983D01*
X231557726Y-147414034D01*
X231403983Y-147484785D01*
X231376685Y-147498876D01*
X231155531Y-147595337D01*
X230988675Y-147604513D01*
X230843371Y-147508238D01*
X230686871Y-147288345D01*
X230546079Y-147038104D01*
X230390036Y-146761188D01*
X230260353Y-146553327D01*
X230179876Y-146450517D01*
X230169896Y-146445437D01*
X230107123Y-146514745D01*
X229993880Y-146699105D01*
X229852975Y-146960913D01*
X229831229Y-147003811D01*
X229679339Y-147282667D01*
X229540803Y-147497115D01*
X229443200Y-147604945D01*
X229436138Y-147608489D01*
X229290231Y-147603911D01*
X229076549Y-147534995D01*
X229033971Y-147515714D01*
X228846017Y-147432324D01*
X228764739Y-147428928D01*
X228745620Y-147509271D01*
X228745334Y-147539989D01*
X228790444Y-147712354D01*
X228941631Y-147887573D01*
X229222680Y-148091417D01*
X229297875Y-148138698D01*
X229474569Y-148261781D01*
X229560159Y-148349575D01*
X229560070Y-148366819D01*
X229474362Y-148345436D01*
X229295728Y-148247569D01*
X229129605Y-148139584D01*
X228625534Y-147834226D01*
X228107360Y-147592940D01*
X227629970Y-147439798D01*
X227462913Y-147408639D01*
X227198484Y-147390132D01*
X227014309Y-147439206D01*
X226845073Y-147561447D01*
X226683083Y-147744126D01*
X226596610Y-147977599D01*
X226565745Y-148194814D01*
X226557422Y-148484537D01*
X226594928Y-148655625D01*
X226617982Y-148681063D01*
X226677643Y-148679233D01*
X226664765Y-148617281D01*
X226665258Y-148464979D01*
X226670677Y-148444921D01*
X226850841Y-148444921D01*
X226856144Y-148659708D01*
X226919807Y-148764046D01*
X227085542Y-148816185D01*
X227136667Y-148825820D01*
X227467341Y-148869577D01*
X227669166Y-148847281D01*
X227772453Y-148750698D01*
X227800946Y-148645333D01*
X227855671Y-148440773D01*
X227910620Y-148337807D01*
X228093304Y-148337807D01*
X228124564Y-148416747D01*
X228246367Y-148587845D01*
X228434822Y-148818443D01*
X228498696Y-148891971D01*
X228709594Y-149125829D01*
X228873698Y-149297019D01*
X228963233Y-149376924D01*
X228971329Y-149378893D01*
X228966405Y-149290758D01*
X228924526Y-149102602D01*
X228911304Y-149053283D01*
X228764522Y-148767421D01*
X228482496Y-148522535D01*
X228274933Y-148398640D01*
X228129521Y-148336740D01*
X228093304Y-148337807D01*
X227910620Y-148337807D01*
X227913777Y-148331893D01*
X227922621Y-148242836D01*
X227788647Y-148146570D01*
X227683658Y-148099060D01*
X227321415Y-147984790D01*
X227068317Y-147995428D01*
X226915120Y-148134813D01*
X226852581Y-148406783D01*
X226850841Y-148444921D01*
X226670677Y-148444921D01*
X226725495Y-148242051D01*
X226746081Y-148189550D01*
X226845804Y-147991648D01*
X226966785Y-147904463D01*
X227177786Y-147883513D01*
X227219428Y-147883333D01*
X227535303Y-147936090D01*
X227936989Y-148082486D01*
X228382814Y-148304710D01*
X228782010Y-148551191D01*
X228949573Y-148700307D01*
X229033513Y-148894327D01*
X229062710Y-149105933D01*
X229066730Y-149352439D01*
X229018941Y-149468778D01*
X228907763Y-149453083D01*
X228721615Y-149303488D01*
X228448915Y-149018128D01*
X228437217Y-149005166D01*
X228213902Y-148760633D01*
X228074778Y-148637210D01*
X227988674Y-148632051D01*
X227924420Y-148742310D01*
X227855030Y-148951989D01*
X227783669Y-149041743D01*
X227623632Y-149046382D01*
X227537530Y-149030103D01*
X227252729Y-148974715D01*
X226955375Y-148925201D01*
X226647084Y-148879507D01*
X226817206Y-149499921D01*
X226894598Y-149822907D01*
X226925902Y-150048864D01*
X226906950Y-150146917D01*
X226904671Y-150147887D01*
X226773016Y-150217158D01*
X226673870Y-150283765D01*
X226623904Y-150338584D01*
X226631425Y-150409383D01*
X226713497Y-150515859D01*
X226887182Y-150677711D01*
X227169542Y-150914637D01*
X227342807Y-151056035D01*
X227647528Y-151311946D01*
X227889628Y-151531335D01*
X228046334Y-151692339D01*
X228094876Y-151773097D01*
X228092777Y-151776026D01*
X227986057Y-151831274D01*
X227764489Y-151926644D01*
X227472000Y-152043401D01*
X227410335Y-152067106D01*
X227107944Y-152199174D01*
X226753504Y-152379086D01*
X226383718Y-152585071D01*
X226035289Y-152795359D01*
X225744917Y-152988180D01*
X225549306Y-153141763D01*
X225494037Y-153203791D01*
X225309403Y-153203791D01*
X225594400Y-152971716D01*
X226168973Y-152579916D01*
X226763331Y-152236101D01*
X227304501Y-151984360D01*
X227588091Y-151866784D01*
X227797015Y-151768117D01*
X227892783Y-151706818D01*
X227895031Y-151701124D01*
X227830827Y-151632506D01*
X227658634Y-151482557D01*
X227404596Y-151273303D01*
X227094857Y-151026768D01*
X227090697Y-151023508D01*
X226714073Y-150722594D01*
X226464547Y-150507355D01*
X226331081Y-150365523D01*
X226302636Y-150284831D01*
X226368175Y-150253013D01*
X226395834Y-150251307D01*
X226544786Y-150201306D01*
X226652483Y-150134202D01*
X226745843Y-150030477D01*
X226760176Y-149883446D01*
X226721591Y-149692395D01*
X226656351Y-149431453D01*
X226570849Y-149090060D01*
X226501792Y-148814667D01*
X226422966Y-148284568D01*
X226472464Y-147860905D01*
X226641821Y-147550302D01*
X226922569Y-147359386D01*
X227306243Y-147294783D01*
X227784375Y-147363118D01*
X228183296Y-147498737D01*
X228679591Y-147702788D01*
X228629912Y-147454394D01*
X228603139Y-147291707D01*
X228628453Y-147224736D01*
X228736823Y-147247720D01*
X228959220Y-147354899D01*
X229014192Y-147382913D01*
X229176716Y-147466278D01*
X229291851Y-147504320D01*
X229385331Y-147477098D01*
X229482891Y-147364667D01*
X229610264Y-147147086D01*
X229793186Y-146804410D01*
X229816054Y-146761500D01*
X229968272Y-146489572D01*
X230094792Y-146287826D01*
X230172276Y-146192930D01*
X230179797Y-146190000D01*
X230243536Y-146259689D01*
G36*
X230252590Y-151309703D02*
X230351422Y-151402340D01*
X230458940Y-151527860D01*
X230439616Y-151610716D01*
X230327268Y-151698463D01*
X230179657Y-151783346D01*
X230074457Y-151753544D01*
X230001055Y-151684184D01*
X229909408Y-151565893D01*
X229940280Y-151470997D01*
X230025210Y-151388062D01*
X230155136Y-151289027D01*
X230252590Y-151309703D01*
X230252590Y-151309703D01*
G37*
X230252590Y-151309703D02*
X230351422Y-151402340D01*
X230458940Y-151527860D01*
X230439616Y-151610716D01*
X230327268Y-151698463D01*
X230179657Y-151783346D01*
X230074457Y-151753544D01*
X230001055Y-151684184D01*
X229909408Y-151565893D01*
X229940280Y-151470997D01*
X230025210Y-151388062D01*
X230155136Y-151289027D01*
X230252590Y-151309703D01*
G36*
X232468207Y-151673096D02*
X232470667Y-151693333D01*
X232406238Y-151775540D01*
X232386000Y-151778000D01*
X232303794Y-151713571D01*
X232301334Y-151693333D01*
X232365763Y-151611127D01*
X232386000Y-151608667D01*
X232468207Y-151673096D01*
X232468207Y-151673096D01*
G37*
X232468207Y-151673096D02*
X232470667Y-151693333D01*
X232406238Y-151775540D01*
X232386000Y-151778000D01*
X232303794Y-151713571D01*
X232301334Y-151693333D01*
X232365763Y-151611127D01*
X232386000Y-151608667D01*
X232468207Y-151673096D01*
G36*
X229798416Y-148525012D02*
X229990386Y-148654303D01*
X230235287Y-148837249D01*
X230267199Y-148862195D01*
X230537131Y-149089365D01*
X230681707Y-149254122D01*
X230720901Y-149380964D01*
X230715840Y-149412528D01*
X230707648Y-149549365D01*
X230791743Y-149551339D01*
X230971102Y-149417617D01*
X231088684Y-149308111D01*
X231272498Y-149145695D01*
X231403884Y-149090046D01*
X231541975Y-149120547D01*
X231579548Y-149136963D01*
X231752991Y-149288593D01*
X231783741Y-149498233D01*
X231671699Y-149732558D01*
X231581667Y-149830667D01*
X231414469Y-150017293D01*
X231383805Y-150128706D01*
X231490333Y-150155209D01*
X231560500Y-150142547D01*
X231697014Y-150148689D01*
X231872692Y-150238974D01*
X232117335Y-150430996D01*
X232254768Y-150552489D01*
X232758537Y-151007574D01*
X232594382Y-151188963D01*
X232417857Y-151364443D01*
X232269995Y-151437400D01*
X232113091Y-151401955D01*
X231909442Y-151252230D01*
X231689201Y-151047824D01*
X231454766Y-150803417D01*
X231300927Y-150603754D01*
X231250707Y-150479266D01*
X231252720Y-150470869D01*
X231257332Y-150340588D01*
X231166196Y-150309829D01*
X231026040Y-150386607D01*
X230987193Y-150425330D01*
X230782004Y-150561727D01*
X230561046Y-150580573D01*
X230375125Y-150494265D01*
X230275051Y-150315197D01*
X230269334Y-150250189D01*
X230328218Y-150091045D01*
X230436670Y-149959473D01*
X230544763Y-149811920D01*
X230536534Y-149705829D01*
X230422213Y-149685423D01*
X230376556Y-149699540D01*
X230258824Y-149673130D01*
X230055717Y-149567419D01*
X229811442Y-149412115D01*
X229570204Y-149236926D01*
X229376208Y-149071559D01*
X229284184Y-148965421D01*
X229304658Y-148861227D01*
X229408793Y-148707627D01*
X229548428Y-148561501D01*
X229675403Y-148479729D01*
X229698576Y-148476000D01*
X229798416Y-148525012D01*
X229798416Y-148525012D01*
G37*
X229798416Y-148525012D02*
X229990386Y-148654303D01*
X230235287Y-148837249D01*
X230267199Y-148862195D01*
X230537131Y-149089365D01*
X230681707Y-149254122D01*
X230720901Y-149380964D01*
X230715840Y-149412528D01*
X230707648Y-149549365D01*
X230791743Y-149551339D01*
X230971102Y-149417617D01*
X231088684Y-149308111D01*
X231272498Y-149145695D01*
X231403884Y-149090046D01*
X231541975Y-149120547D01*
X231579548Y-149136963D01*
X231752991Y-149288593D01*
X231783741Y-149498233D01*
X231671699Y-149732558D01*
X231581667Y-149830667D01*
X231414469Y-150017293D01*
X231383805Y-150128706D01*
X231490333Y-150155209D01*
X231560500Y-150142547D01*
X231697014Y-150148689D01*
X231872692Y-150238974D01*
X232117335Y-150430996D01*
X232254768Y-150552489D01*
X232758537Y-151007574D01*
X232594382Y-151188963D01*
X232417857Y-151364443D01*
X232269995Y-151437400D01*
X232113091Y-151401955D01*
X231909442Y-151252230D01*
X231689201Y-151047824D01*
X231454766Y-150803417D01*
X231300927Y-150603754D01*
X231250707Y-150479266D01*
X231252720Y-150470869D01*
X231257332Y-150340588D01*
X231166196Y-150309829D01*
X231026040Y-150386607D01*
X230987193Y-150425330D01*
X230782004Y-150561727D01*
X230561046Y-150580573D01*
X230375125Y-150494265D01*
X230275051Y-150315197D01*
X230269334Y-150250189D01*
X230328218Y-150091045D01*
X230436670Y-149959473D01*
X230544763Y-149811920D01*
X230536534Y-149705829D01*
X230422213Y-149685423D01*
X230376556Y-149699540D01*
X230258824Y-149673130D01*
X230055717Y-149567419D01*
X229811442Y-149412115D01*
X229570204Y-149236926D01*
X229376208Y-149071559D01*
X229284184Y-148965421D01*
X229304658Y-148861227D01*
X229408793Y-148707627D01*
X229548428Y-148561501D01*
X229675403Y-148479729D01*
X229698576Y-148476000D01*
X229798416Y-148525012D01*
G36*
X230642257Y-150970006D02*
X230618168Y-151084215D01*
X230541752Y-151146641D01*
X230448249Y-151069878D01*
X230390812Y-150948360D01*
X230441933Y-150886981D01*
X230571065Y-150875014D01*
X230642257Y-150970006D01*
X230642257Y-150970006D01*
G37*
X230642257Y-150970006D02*
X230618168Y-151084215D01*
X230541752Y-151146641D01*
X230448249Y-151069878D01*
X230390812Y-150948360D01*
X230441933Y-150886981D01*
X230571065Y-150875014D01*
X230642257Y-150970006D01*
G36*
X230048860Y-150609094D02*
X230089322Y-150650568D01*
X230163214Y-150771268D01*
X230099596Y-150881247D01*
X230089322Y-150891480D01*
X229968987Y-150962607D01*
X229831661Y-150900687D01*
X229825622Y-150896234D01*
X229725120Y-150803260D01*
X229756407Y-150720475D01*
X229825622Y-150655322D01*
X229951716Y-150569078D01*
X230048860Y-150609094D01*
X230048860Y-150609094D01*
G37*
X230048860Y-150609094D02*
X230089322Y-150650568D01*
X230163214Y-150771268D01*
X230099596Y-150881247D01*
X230089322Y-150891480D01*
X229968987Y-150962607D01*
X229831661Y-150900687D01*
X229825622Y-150896234D01*
X229725120Y-150803260D01*
X229756407Y-150720475D01*
X229825622Y-150655322D01*
X229951716Y-150569078D01*
X230048860Y-150609094D01*
D10*
X227550000Y-66100000D02*
X227550000Y-66350000D01*
X229050000Y-66100000D02*
X227550000Y-66100000D01*
X229050000Y-66350000D02*
X229050000Y-66100000D01*
X229050000Y-66100000D02*
X229050000Y-66350000D01*
X229050000Y-69850000D02*
X227550000Y-69850000D01*
X229050000Y-66350000D02*
X229050000Y-69850000D01*
X227550000Y-66350000D02*
X229050000Y-66350000D01*
X227550000Y-69850000D02*
X227550000Y-66350000D01*
X229050000Y-66850000D02*
X229050000Y-69850000D01*
X229050000Y-69850000D02*
X227550000Y-69850000D01*
X228000000Y-121750000D02*
X228250000Y-121750000D01*
X228000000Y-120250000D02*
X228000000Y-121750000D01*
X228250000Y-120250000D02*
X228000000Y-120250000D01*
X228000000Y-120250000D02*
X228250000Y-120250000D01*
X231750000Y-120250000D02*
X231750000Y-121750000D01*
X228250000Y-120250000D02*
X231750000Y-120250000D01*
X228250000Y-121750000D02*
X228250000Y-120250000D01*
X231750000Y-121750000D02*
X228250000Y-121750000D01*
X228750000Y-120250000D02*
X231750000Y-120250000D01*
X231750000Y-120250000D02*
X231750000Y-121750000D01*
D13*
X234350000Y-132370000D02*
X233850000Y-132370000D01*
X233850000Y-133430000D02*
X234350000Y-133430000D01*
X227950000Y-134570000D02*
X227450000Y-134570000D01*
X227450000Y-135630000D02*
X227950000Y-135630000D01*
X223150000Y-147230000D02*
X223650000Y-147230000D01*
X223650000Y-146170000D02*
X223150000Y-146170000D01*
D10*
X227400000Y-137500000D02*
X226800000Y-137500000D01*
X226800000Y-137500000D02*
X227400000Y-137500000D01*
X227400000Y-137500000D02*
X231200000Y-137500000D01*
X231200000Y-137500000D02*
X231200000Y-141100000D01*
X231200000Y-141100000D02*
X226800000Y-141100000D01*
X226800000Y-141100000D02*
X226800000Y-137500000D01*
D13*
X224150000Y-137970000D02*
X223650000Y-137970000D01*
X223650000Y-139030000D02*
X224150000Y-139030000D01*
D14*
X224500000Y-61500000D02*
X224000000Y-62000000D01*
X219500000Y-62000000D02*
X219500000Y-60000000D01*
X224500000Y-62000000D02*
X224500000Y-60000000D01*
X219500000Y-60000000D02*
X224500000Y-60000000D01*
X219500000Y-62000000D02*
X219500000Y-60000000D01*
X224500000Y-62000000D02*
X219500000Y-62000000D01*
X211500000Y-131500000D02*
X212000000Y-132000000D01*
X212000000Y-136500000D02*
X210000000Y-136500000D01*
X212000000Y-131500000D02*
X210000000Y-131500000D01*
X210000000Y-136500000D02*
X210000000Y-131500000D01*
X212000000Y-136500000D02*
X210000000Y-136500000D01*
X212000000Y-131500000D02*
X212000000Y-136500000D01*
X210500000Y-126500000D02*
X210000000Y-126000000D01*
X210000000Y-121500000D02*
X212000000Y-121500000D01*
X210000000Y-126500000D02*
X212000000Y-126500000D01*
X212000000Y-121500000D02*
X212000000Y-126500000D01*
X210000000Y-121500000D02*
X212000000Y-121500000D01*
X210000000Y-126500000D02*
X210000000Y-121500000D01*
X234500000Y-61500000D02*
X234000000Y-62000000D01*
X229500000Y-62000000D02*
X229500000Y-60000000D01*
X234500000Y-62000000D02*
X234500000Y-60000000D01*
X229500000Y-60000000D02*
X234500000Y-60000000D01*
X229500000Y-62000000D02*
X229500000Y-60000000D01*
X234500000Y-62000000D02*
X229500000Y-62000000D01*
X265500000Y-142500000D02*
X266000000Y-143000000D01*
X266000000Y-147500000D02*
X264000000Y-147500000D01*
X266000000Y-142500000D02*
X264000000Y-142500000D01*
X264000000Y-147500000D02*
X264000000Y-142500000D01*
X266000000Y-147500000D02*
X264000000Y-147500000D01*
X266000000Y-142500000D02*
X266000000Y-147500000D01*
X239500000Y-60500000D02*
X240000000Y-60000000D01*
X244500000Y-60000000D02*
X244500000Y-62000000D01*
X239500000Y-60000000D02*
X239500000Y-62000000D01*
X244500000Y-62000000D02*
X239500000Y-62000000D01*
X244500000Y-60000000D02*
X244500000Y-62000000D01*
X239500000Y-60000000D02*
X244500000Y-60000000D01*
X251500000Y-60500000D02*
X252000000Y-60000000D01*
X256500000Y-60000000D02*
X256500000Y-62000000D01*
X251500000Y-60000000D02*
X251500000Y-62000000D01*
X256500000Y-62000000D02*
X251500000Y-62000000D01*
X256500000Y-60000000D02*
X256500000Y-62000000D01*
X251500000Y-60000000D02*
X256500000Y-60000000D01*
X265500000Y-74500000D02*
X266000000Y-75000000D01*
X266000000Y-79500000D02*
X264000000Y-79500000D01*
X266000000Y-74500000D02*
X264000000Y-74500000D01*
X264000000Y-79500000D02*
X264000000Y-74500000D01*
X266000000Y-79500000D02*
X264000000Y-79500000D01*
X266000000Y-74500000D02*
X266000000Y-79500000D01*
X264500000Y-69500000D02*
X264000000Y-69000000D01*
X264000000Y-64500000D02*
X266000000Y-64500000D01*
X264000000Y-69500000D02*
X266000000Y-69500000D01*
X266000000Y-64500000D02*
X266000000Y-69500000D01*
X264000000Y-64500000D02*
X266000000Y-64500000D01*
X264000000Y-69500000D02*
X264000000Y-64500000D01*
X263750000Y-137000000D02*
X263500000Y-136750000D01*
X266500000Y-137000000D02*
X263500000Y-137000000D01*
X266500000Y-129000000D02*
X266500000Y-137000000D01*
X263500000Y-129000000D02*
X266500000Y-129000000D01*
X266500000Y-129000000D02*
X263500000Y-129000000D01*
X263500000Y-137000000D02*
X263500000Y-129000000D01*
X209750000Y-116000000D02*
X209500000Y-115750000D01*
X212500000Y-116000000D02*
X209500000Y-116000000D01*
X212500000Y-108000000D02*
X212500000Y-116000000D01*
X209500000Y-108000000D02*
X212500000Y-108000000D01*
X212500000Y-108000000D02*
X209500000Y-108000000D01*
X209500000Y-116000000D02*
X209500000Y-108000000D01*
X212250000Y-142000000D02*
X212500000Y-142250000D01*
X209500000Y-142000000D02*
X212500000Y-142000000D01*
X209500000Y-150000000D02*
X209500000Y-142000000D01*
X212500000Y-150000000D02*
X209500000Y-150000000D01*
X209500000Y-150000000D02*
X212500000Y-150000000D01*
X212500000Y-142000000D02*
X212500000Y-150000000D01*
X266250000Y-83500000D02*
X266500000Y-83750000D01*
X263500000Y-83500000D02*
X266500000Y-83500000D01*
X263500000Y-91500000D02*
X263500000Y-83500000D01*
X266500000Y-91500000D02*
X263500000Y-91500000D01*
X263500000Y-91500000D02*
X266500000Y-91500000D01*
X266500000Y-83500000D02*
X266500000Y-91500000D01*
X266250000Y-99000000D02*
X266500000Y-99250000D01*
X263500000Y-99000000D02*
X266500000Y-99000000D01*
X263500000Y-107000000D02*
X263500000Y-99000000D01*
X266500000Y-107000000D02*
X263500000Y-107000000D01*
X263500000Y-107000000D02*
X266500000Y-107000000D01*
X266500000Y-99000000D02*
X266500000Y-107000000D01*
X266000000Y-112500000D02*
X266500000Y-113000000D01*
X266500000Y-113000000D02*
X266500000Y-112500000D01*
X263500000Y-112500000D02*
X266500000Y-112500000D01*
X263500000Y-123500000D02*
X263500000Y-112500000D01*
X263500000Y-123500000D02*
X266500000Y-123500000D01*
X266500000Y-123500000D02*
X263500000Y-123500000D01*
X266500000Y-113000000D02*
X266500000Y-123500000D01*
D16*
X222833334Y-108152381D02*
X222500000Y-107676190D01*
X222261905Y-108152381D02*
X222261905Y-107152381D01*
X222642858Y-107152381D01*
X222738096Y-107200000D01*
X222785715Y-107247619D01*
X222833334Y-107342857D01*
X222833334Y-107485714D01*
X222785715Y-107580952D01*
X222738096Y-107628571D01*
X222642858Y-107676190D01*
X222261905Y-107676190D01*
X223738096Y-107152381D02*
X223261905Y-107152381D01*
X223214286Y-107628571D01*
X223261905Y-107580952D01*
X223357143Y-107533333D01*
X223595239Y-107533333D01*
X223690477Y-107580952D01*
X223738096Y-107628571D01*
X223785715Y-107723810D01*
X223785715Y-107961905D01*
X223738096Y-108057143D01*
X223690477Y-108104762D01*
X223595239Y-108152381D01*
X223357143Y-108152381D01*
X223261905Y-108104762D01*
X223214286Y-108057143D01*
X225833334Y-83627143D02*
X225785715Y-83674762D01*
X225642858Y-83722381D01*
X225547620Y-83722381D01*
X225404762Y-83674762D01*
X225309524Y-83579524D01*
X225261905Y-83484286D01*
X225214286Y-83293810D01*
X225214286Y-83150952D01*
X225261905Y-82960476D01*
X225309524Y-82865238D01*
X225404762Y-82770000D01*
X225547620Y-82722381D01*
X225642858Y-82722381D01*
X225785715Y-82770000D01*
X225833334Y-82817619D01*
X226785715Y-83722381D02*
X226214286Y-83722381D01*
X226500000Y-83722381D02*
X226500000Y-82722381D01*
X226404762Y-82865238D01*
X226309524Y-82960476D01*
X226214286Y-83008095D01*
X222627143Y-76166666D02*
X222674762Y-76214285D01*
X222722381Y-76357142D01*
X222722381Y-76452380D01*
X222674762Y-76595238D01*
X222579524Y-76690476D01*
X222484286Y-76738095D01*
X222293810Y-76785714D01*
X222150952Y-76785714D01*
X221960476Y-76738095D01*
X221865238Y-76690476D01*
X221770000Y-76595238D01*
X221722381Y-76452380D01*
X221722381Y-76357142D01*
X221770000Y-76214285D01*
X221817619Y-76166666D01*
X221817619Y-75785714D02*
X221770000Y-75738095D01*
X221722381Y-75642857D01*
X221722381Y-75404761D01*
X221770000Y-75309523D01*
X221817619Y-75261904D01*
X221912857Y-75214285D01*
X222008095Y-75214285D01*
X222150952Y-75261904D01*
X222722381Y-75833333D01*
X222722381Y-75214285D01*
X251833334Y-111087143D02*
X251785715Y-111134762D01*
X251642858Y-111182381D01*
X251547620Y-111182381D01*
X251404762Y-111134762D01*
X251309524Y-111039524D01*
X251261905Y-110944286D01*
X251214286Y-110753810D01*
X251214286Y-110610952D01*
X251261905Y-110420476D01*
X251309524Y-110325238D01*
X251404762Y-110230000D01*
X251547620Y-110182381D01*
X251642858Y-110182381D01*
X251785715Y-110230000D01*
X251833334Y-110277619D01*
X252166667Y-110182381D02*
X252785715Y-110182381D01*
X252452381Y-110563333D01*
X252595239Y-110563333D01*
X252690477Y-110610952D01*
X252738096Y-110658571D01*
X252785715Y-110753810D01*
X252785715Y-110991905D01*
X252738096Y-111087143D01*
X252690477Y-111134762D01*
X252595239Y-111182381D01*
X252309524Y-111182381D01*
X252214286Y-111134762D01*
X252166667Y-111087143D01*
X240857143Y-152666666D02*
X240904762Y-152714285D01*
X240952381Y-152857142D01*
X240952381Y-152952380D01*
X240904762Y-153095238D01*
X240809524Y-153190476D01*
X240714286Y-153238095D01*
X240523810Y-153285714D01*
X240380952Y-153285714D01*
X240190476Y-153238095D01*
X240095238Y-153190476D01*
X240000000Y-153095238D01*
X239952381Y-152952380D01*
X239952381Y-152857142D01*
X240000000Y-152714285D01*
X240047619Y-152666666D01*
X240285714Y-151809523D02*
X240952381Y-151809523D01*
X239904762Y-152047619D02*
X240619048Y-152285714D01*
X240619048Y-151666666D01*
X249107143Y-152571428D02*
X249107143Y-151428571D01*
X249007143Y-127971428D02*
X249007143Y-126828571D01*
X249578571Y-127400000D02*
X248435714Y-127400000D01*
X228933334Y-129887143D02*
X228885715Y-129934762D01*
X228742858Y-129982381D01*
X228647620Y-129982381D01*
X228504762Y-129934762D01*
X228409524Y-129839524D01*
X228361905Y-129744286D01*
X228314286Y-129553810D01*
X228314286Y-129410952D01*
X228361905Y-129220476D01*
X228409524Y-129125238D01*
X228504762Y-129030000D01*
X228647620Y-128982381D01*
X228742858Y-128982381D01*
X228885715Y-129030000D01*
X228933334Y-129077619D01*
X229838096Y-128982381D02*
X229361905Y-128982381D01*
X229314286Y-129458571D01*
X229361905Y-129410952D01*
X229457143Y-129363333D01*
X229695239Y-129363333D01*
X229790477Y-129410952D01*
X229838096Y-129458571D01*
X229885715Y-129553810D01*
X229885715Y-129791905D01*
X229838096Y-129887143D01*
X229790477Y-129934762D01*
X229695239Y-129982381D01*
X229457143Y-129982381D01*
X229361905Y-129934762D01*
X229314286Y-129887143D01*
X222357143Y-92166666D02*
X222404762Y-92214285D01*
X222452381Y-92357142D01*
X222452381Y-92452380D01*
X222404762Y-92595238D01*
X222309524Y-92690476D01*
X222214286Y-92738095D01*
X222023810Y-92785714D01*
X221880952Y-92785714D01*
X221690476Y-92738095D01*
X221595238Y-92690476D01*
X221500000Y-92595238D01*
X221452381Y-92452380D01*
X221452381Y-92357142D01*
X221500000Y-92214285D01*
X221547619Y-92166666D01*
X221452381Y-91309523D02*
X221452381Y-91500000D01*
X221500000Y-91595238D01*
X221547619Y-91642857D01*
X221690476Y-91738095D01*
X221880952Y-91785714D01*
X222261905Y-91785714D01*
X222357143Y-91738095D01*
X222404762Y-91690476D01*
X222452381Y-91595238D01*
X222452381Y-91404761D01*
X222404762Y-91309523D01*
X222357143Y-91261904D01*
X222261905Y-91214285D01*
X222023810Y-91214285D01*
X221928571Y-91261904D01*
X221880952Y-91309523D01*
X221833333Y-91404761D01*
X221833333Y-91595238D01*
X221880952Y-91690476D01*
X221928571Y-91738095D01*
X222023810Y-91785714D01*
X238327143Y-92066666D02*
X238374762Y-92114285D01*
X238422381Y-92257142D01*
X238422381Y-92352380D01*
X238374762Y-92495238D01*
X238279524Y-92590476D01*
X238184286Y-92638095D01*
X237993810Y-92685714D01*
X237850952Y-92685714D01*
X237660476Y-92638095D01*
X237565238Y-92590476D01*
X237470000Y-92495238D01*
X237422381Y-92352380D01*
X237422381Y-92257142D01*
X237470000Y-92114285D01*
X237517619Y-92066666D01*
X237422381Y-91733333D02*
X237422381Y-91066666D01*
X238422381Y-91495238D01*
X248487143Y-92066666D02*
X248534762Y-92114285D01*
X248582381Y-92257142D01*
X248582381Y-92352380D01*
X248534762Y-92495238D01*
X248439524Y-92590476D01*
X248344286Y-92638095D01*
X248153810Y-92685714D01*
X248010952Y-92685714D01*
X247820476Y-92638095D01*
X247725238Y-92590476D01*
X247630000Y-92495238D01*
X247582381Y-92352380D01*
X247582381Y-92257142D01*
X247630000Y-92114285D01*
X247677619Y-92066666D01*
X248010952Y-91495238D02*
X247963333Y-91590476D01*
X247915714Y-91638095D01*
X247820476Y-91685714D01*
X247772857Y-91685714D01*
X247677619Y-91638095D01*
X247630000Y-91590476D01*
X247582381Y-91495238D01*
X247582381Y-91304761D01*
X247630000Y-91209523D01*
X247677619Y-91161904D01*
X247772857Y-91114285D01*
X247820476Y-91114285D01*
X247915714Y-91161904D01*
X247963333Y-91209523D01*
X248010952Y-91304761D01*
X248010952Y-91495238D01*
X248058571Y-91590476D01*
X248106190Y-91638095D01*
X248201429Y-91685714D01*
X248391905Y-91685714D01*
X248487143Y-91638095D01*
X248534762Y-91590476D01*
X248582381Y-91495238D01*
X248582381Y-91304761D01*
X248534762Y-91209523D01*
X248487143Y-91161904D01*
X248391905Y-91114285D01*
X248201429Y-91114285D01*
X248106190Y-91161904D01*
X248058571Y-91209523D01*
X248010952Y-91304761D01*
X250833334Y-69957143D02*
X250785715Y-70004762D01*
X250642858Y-70052381D01*
X250547620Y-70052381D01*
X250404762Y-70004762D01*
X250309524Y-69909524D01*
X250261905Y-69814286D01*
X250214286Y-69623810D01*
X250214286Y-69480952D01*
X250261905Y-69290476D01*
X250309524Y-69195238D01*
X250404762Y-69100000D01*
X250547620Y-69052381D01*
X250642858Y-69052381D01*
X250785715Y-69100000D01*
X250833334Y-69147619D01*
X251309524Y-70052381D02*
X251500000Y-70052381D01*
X251595239Y-70004762D01*
X251642858Y-69957143D01*
X251738096Y-69814286D01*
X251785715Y-69623810D01*
X251785715Y-69242857D01*
X251738096Y-69147619D01*
X251690477Y-69100000D01*
X251595239Y-69052381D01*
X251404762Y-69052381D01*
X251309524Y-69100000D01*
X251261905Y-69147619D01*
X251214286Y-69242857D01*
X251214286Y-69480952D01*
X251261905Y-69576190D01*
X251309524Y-69623810D01*
X251404762Y-69671429D01*
X251595239Y-69671429D01*
X251690477Y-69623810D01*
X251738096Y-69576190D01*
X251785715Y-69480952D01*
X211761905Y-76452381D02*
X211761905Y-75452381D01*
X212000000Y-75452381D01*
X212142858Y-75500000D01*
X212238096Y-75595238D01*
X212285715Y-75690476D01*
X212333334Y-75880952D01*
X212333334Y-76023810D01*
X212285715Y-76214286D01*
X212238096Y-76309524D01*
X212142858Y-76404762D01*
X212000000Y-76452381D01*
X211761905Y-76452381D01*
X213285715Y-76452381D02*
X212714286Y-76452381D01*
X213000000Y-76452381D02*
X213000000Y-75452381D01*
X212904762Y-75595238D01*
X212809524Y-75690476D01*
X212714286Y-75738095D01*
X219261905Y-104452381D02*
X219261905Y-103452381D01*
X219500000Y-103452381D01*
X219642858Y-103500000D01*
X219738096Y-103595238D01*
X219785715Y-103690476D01*
X219833334Y-103880952D01*
X219833334Y-104023810D01*
X219785715Y-104214286D01*
X219738096Y-104309524D01*
X219642858Y-104404762D01*
X219500000Y-104452381D01*
X219261905Y-104452381D01*
X220214286Y-103547619D02*
X220261905Y-103500000D01*
X220357143Y-103452381D01*
X220595239Y-103452381D01*
X220690477Y-103500000D01*
X220738096Y-103547619D01*
X220785715Y-103642857D01*
X220785715Y-103738095D01*
X220738096Y-103880952D01*
X220166667Y-104452381D01*
X220785715Y-104452381D01*
X233904762Y-125547619D02*
X233809524Y-125500000D01*
X233714286Y-125404762D01*
X233571429Y-125261905D01*
X233476190Y-125214286D01*
X233380952Y-125214286D01*
X233428571Y-125452381D02*
X233333333Y-125404762D01*
X233238095Y-125309524D01*
X233190476Y-125119048D01*
X233190476Y-124785714D01*
X233238095Y-124595238D01*
X233333333Y-124500000D01*
X233428571Y-124452381D01*
X233619048Y-124452381D01*
X233714286Y-124500000D01*
X233809524Y-124595238D01*
X233857143Y-124785714D01*
X233857143Y-125119048D01*
X233809524Y-125309524D01*
X233714286Y-125404762D01*
X233619048Y-125452381D01*
X233428571Y-125452381D01*
X234809524Y-125452381D02*
X234238095Y-125452381D01*
X234523809Y-125452381D02*
X234523809Y-124452381D01*
X234428571Y-124595238D01*
X234333333Y-124690476D01*
X234238095Y-124738095D01*
X221504762Y-72947619D02*
X221409524Y-72900000D01*
X221314286Y-72804762D01*
X221171429Y-72661905D01*
X221076190Y-72614286D01*
X220980952Y-72614286D01*
X221028571Y-72852381D02*
X220933333Y-72804762D01*
X220838095Y-72709524D01*
X220790476Y-72519048D01*
X220790476Y-72185714D01*
X220838095Y-71995238D01*
X220933333Y-71900000D01*
X221028571Y-71852381D01*
X221219048Y-71852381D01*
X221314286Y-71900000D01*
X221409524Y-71995238D01*
X221457143Y-72185714D01*
X221457143Y-72519048D01*
X221409524Y-72709524D01*
X221314286Y-72804762D01*
X221219048Y-72852381D01*
X221028571Y-72852381D01*
X221838095Y-71947619D02*
X221885714Y-71900000D01*
X221980952Y-71852381D01*
X222219048Y-71852381D01*
X222314286Y-71900000D01*
X222361905Y-71947619D01*
X222409524Y-72042857D01*
X222409524Y-72138095D01*
X222361905Y-72280952D01*
X221790476Y-72852381D01*
X222409524Y-72852381D01*
X215804762Y-90647619D02*
X215709524Y-90600000D01*
X215614286Y-90504762D01*
X215471429Y-90361905D01*
X215376190Y-90314286D01*
X215280952Y-90314286D01*
X215328571Y-90552381D02*
X215233333Y-90504762D01*
X215138095Y-90409524D01*
X215090476Y-90219048D01*
X215090476Y-89885714D01*
X215138095Y-89695238D01*
X215233333Y-89600000D01*
X215328571Y-89552381D01*
X215519048Y-89552381D01*
X215614286Y-89600000D01*
X215709524Y-89695238D01*
X215757143Y-89885714D01*
X215757143Y-90219048D01*
X215709524Y-90409524D01*
X215614286Y-90504762D01*
X215519048Y-90552381D01*
X215328571Y-90552381D01*
X216090476Y-89552381D02*
X216709524Y-89552381D01*
X216376190Y-89933333D01*
X216519048Y-89933333D01*
X216614286Y-89980952D01*
X216661905Y-90028571D01*
X216709524Y-90123810D01*
X216709524Y-90361905D01*
X216661905Y-90457143D01*
X216614286Y-90504762D01*
X216519048Y-90552381D01*
X216233333Y-90552381D01*
X216138095Y-90504762D01*
X216090476Y-90457143D01*
X219904762Y-98547619D02*
X219809524Y-98500000D01*
X219714286Y-98404762D01*
X219571429Y-98261905D01*
X219476190Y-98214286D01*
X219380952Y-98214286D01*
X219428571Y-98452381D02*
X219333333Y-98404762D01*
X219238095Y-98309524D01*
X219190476Y-98119048D01*
X219190476Y-97785714D01*
X219238095Y-97595238D01*
X219333333Y-97500000D01*
X219428571Y-97452381D01*
X219619048Y-97452381D01*
X219714286Y-97500000D01*
X219809524Y-97595238D01*
X219857143Y-97785714D01*
X219857143Y-98119048D01*
X219809524Y-98309524D01*
X219714286Y-98404762D01*
X219619048Y-98452381D01*
X219428571Y-98452381D01*
X220714286Y-97785714D02*
X220714286Y-98452381D01*
X220476190Y-97404762D02*
X220238095Y-98119048D01*
X220857143Y-98119048D01*
X256833334Y-70802381D02*
X256500000Y-70326190D01*
X256261905Y-70802381D02*
X256261905Y-69802381D01*
X256642858Y-69802381D01*
X256738096Y-69850000D01*
X256785715Y-69897619D01*
X256833334Y-69992857D01*
X256833334Y-70135714D01*
X256785715Y-70230952D01*
X256738096Y-70278571D01*
X256642858Y-70326190D01*
X256261905Y-70326190D01*
X257785715Y-70802381D02*
X257214286Y-70802381D01*
X257500000Y-70802381D02*
X257500000Y-69802381D01*
X257404762Y-69945238D01*
X257309524Y-70040476D01*
X257214286Y-70088095D01*
X239833334Y-85202381D02*
X239500000Y-84726190D01*
X239261905Y-85202381D02*
X239261905Y-84202381D01*
X239642858Y-84202381D01*
X239738096Y-84250000D01*
X239785715Y-84297619D01*
X239833334Y-84392857D01*
X239833334Y-84535714D01*
X239785715Y-84630952D01*
X239738096Y-84678571D01*
X239642858Y-84726190D01*
X239261905Y-84726190D01*
X240214286Y-84297619D02*
X240261905Y-84250000D01*
X240357143Y-84202381D01*
X240595239Y-84202381D01*
X240690477Y-84250000D01*
X240738096Y-84297619D01*
X240785715Y-84392857D01*
X240785715Y-84488095D01*
X240738096Y-84630952D01*
X240166667Y-85202381D01*
X240785715Y-85202381D01*
X228933334Y-128602381D02*
X228600000Y-128126190D01*
X228361905Y-128602381D02*
X228361905Y-127602381D01*
X228742858Y-127602381D01*
X228838096Y-127650000D01*
X228885715Y-127697619D01*
X228933334Y-127792857D01*
X228933334Y-127935714D01*
X228885715Y-128030952D01*
X228838096Y-128078571D01*
X228742858Y-128126190D01*
X228361905Y-128126190D01*
X229266667Y-127602381D02*
X229885715Y-127602381D01*
X229552381Y-127983333D01*
X229695239Y-127983333D01*
X229790477Y-128030952D01*
X229838096Y-128078571D01*
X229885715Y-128173810D01*
X229885715Y-128411905D01*
X229838096Y-128507143D01*
X229790477Y-128554762D01*
X229695239Y-128602381D01*
X229409524Y-128602381D01*
X229314286Y-128554762D01*
X229266667Y-128507143D01*
X215633334Y-70302381D02*
X215300000Y-69826190D01*
X215061905Y-70302381D02*
X215061905Y-69302381D01*
X215442858Y-69302381D01*
X215538096Y-69350000D01*
X215585715Y-69397619D01*
X215633334Y-69492857D01*
X215633334Y-69635714D01*
X215585715Y-69730952D01*
X215538096Y-69778571D01*
X215442858Y-69826190D01*
X215061905Y-69826190D01*
X216490477Y-69635714D02*
X216490477Y-70302381D01*
X216252381Y-69254762D02*
X216014286Y-69969048D01*
X216633334Y-69969048D01*
X227833334Y-108102381D02*
X227500000Y-107626190D01*
X227261905Y-108102381D02*
X227261905Y-107102381D01*
X227642858Y-107102381D01*
X227738096Y-107150000D01*
X227785715Y-107197619D01*
X227833334Y-107292857D01*
X227833334Y-107435714D01*
X227785715Y-107530952D01*
X227738096Y-107578571D01*
X227642858Y-107626190D01*
X227261905Y-107626190D01*
X228690477Y-107102381D02*
X228500000Y-107102381D01*
X228404762Y-107150000D01*
X228357143Y-107197619D01*
X228261905Y-107340476D01*
X228214286Y-107530952D01*
X228214286Y-107911905D01*
X228261905Y-108007143D01*
X228309524Y-108054762D01*
X228404762Y-108102381D01*
X228595239Y-108102381D01*
X228690477Y-108054762D01*
X228738096Y-108007143D01*
X228785715Y-107911905D01*
X228785715Y-107673810D01*
X228738096Y-107578571D01*
X228690477Y-107530952D01*
X228595239Y-107483333D01*
X228404762Y-107483333D01*
X228309524Y-107530952D01*
X228261905Y-107578571D01*
X228214286Y-107673810D01*
X217633334Y-108052381D02*
X217300000Y-107576190D01*
X217061905Y-108052381D02*
X217061905Y-107052381D01*
X217442858Y-107052381D01*
X217538096Y-107100000D01*
X217585715Y-107147619D01*
X217633334Y-107242857D01*
X217633334Y-107385714D01*
X217585715Y-107480952D01*
X217538096Y-107528571D01*
X217442858Y-107576190D01*
X217061905Y-107576190D01*
X217966667Y-107052381D02*
X218633334Y-107052381D01*
X218204762Y-108052381D01*
X221200001Y-143752381D02*
X220866667Y-143276190D01*
X220628572Y-143752381D02*
X220628572Y-142752381D01*
X221009525Y-142752381D01*
X221104763Y-142800000D01*
X221152382Y-142847619D01*
X221200001Y-142942857D01*
X221200001Y-143085714D01*
X221152382Y-143180952D01*
X221104763Y-143228571D01*
X221009525Y-143276190D01*
X220628572Y-143276190D01*
X222104763Y-143752381D02*
X221628572Y-143752381D01*
X221628572Y-142752381D01*
X222438096Y-143752381D02*
X222438096Y-143085714D01*
X222438096Y-142752381D02*
X222390477Y-142800000D01*
X222438096Y-142847619D01*
X222485715Y-142800000D01*
X222438096Y-142752381D01*
X222438096Y-142847619D01*
X222914286Y-143752381D02*
X222914286Y-143085714D01*
X222914286Y-143180952D02*
X222961905Y-143133333D01*
X223057143Y-143085714D01*
X223200001Y-143085714D01*
X223295239Y-143133333D01*
X223342858Y-143228571D01*
X223342858Y-143752381D01*
X223342858Y-143228571D02*
X223390477Y-143133333D01*
X223485715Y-143085714D01*
X223628572Y-143085714D01*
X223723810Y-143133333D01*
X223771429Y-143228571D01*
X223771429Y-143752381D01*
X224247619Y-143752381D02*
X224247619Y-143085714D01*
X224247619Y-142752381D02*
X224200000Y-142800000D01*
X224247619Y-142847619D01*
X224295238Y-142800000D01*
X224247619Y-142752381D01*
X224247619Y-142847619D01*
X224580952Y-143085714D02*
X224961904Y-143085714D01*
X224723809Y-142752381D02*
X224723809Y-143609524D01*
X224771428Y-143704762D01*
X224866666Y-143752381D01*
X224961904Y-143752381D01*
X225819048Y-143752381D02*
X225247619Y-143752381D01*
X225533333Y-143752381D02*
X225533333Y-142752381D01*
X225438095Y-142895238D01*
X225342857Y-142990476D01*
X225247619Y-143038095D01*
X221014286Y-121952381D02*
X220680952Y-121476190D01*
X220442857Y-121952381D02*
X220442857Y-120952381D01*
X220823810Y-120952381D01*
X220919048Y-121000000D01*
X220966667Y-121047619D01*
X221014286Y-121142857D01*
X221014286Y-121285714D01*
X220966667Y-121380952D01*
X220919048Y-121428571D01*
X220823810Y-121476190D01*
X220442857Y-121476190D01*
X221395238Y-121904762D02*
X221538095Y-121952381D01*
X221776191Y-121952381D01*
X221871429Y-121904762D01*
X221919048Y-121857143D01*
X221966667Y-121761905D01*
X221966667Y-121666667D01*
X221919048Y-121571429D01*
X221871429Y-121523810D01*
X221776191Y-121476190D01*
X221585714Y-121428571D01*
X221490476Y-121380952D01*
X221442857Y-121333333D01*
X221395238Y-121238095D01*
X221395238Y-121142857D01*
X221442857Y-121047619D01*
X221490476Y-121000000D01*
X221585714Y-120952381D01*
X221823810Y-120952381D01*
X221966667Y-121000000D01*
X222395238Y-121952381D02*
X222395238Y-120952381D01*
X222823810Y-121952381D02*
X222823810Y-121428571D01*
X222776191Y-121333333D01*
X222680953Y-121285714D01*
X222538095Y-121285714D01*
X222442857Y-121333333D01*
X222395238Y-121380952D01*
X223728572Y-121285714D02*
X223728572Y-121952381D01*
X223300000Y-121285714D02*
X223300000Y-121809524D01*
X223347619Y-121904762D01*
X223442857Y-121952381D01*
X223585715Y-121952381D01*
X223680953Y-121904762D01*
X223728572Y-121857143D01*
X224204762Y-121285714D02*
X224204762Y-121952381D01*
X224204762Y-121380952D02*
X224252381Y-121333333D01*
X224347619Y-121285714D01*
X224490477Y-121285714D01*
X224585715Y-121333333D01*
X224633334Y-121428571D01*
X224633334Y-121952381D01*
X224966667Y-121285714D02*
X225347619Y-121285714D01*
X225109524Y-120952381D02*
X225109524Y-121809524D01*
X225157143Y-121904762D01*
X225252381Y-121952381D01*
X225347619Y-121952381D01*
X226204763Y-121952381D02*
X225633334Y-121952381D01*
X225919048Y-121952381D02*
X225919048Y-120952381D01*
X225823810Y-121095238D01*
X225728572Y-121190476D01*
X225633334Y-121238095D01*
X240666667Y-81154762D02*
X240809524Y-81202381D01*
X241047620Y-81202381D01*
X241142858Y-81154762D01*
X241190477Y-81107143D01*
X241238096Y-81011905D01*
X241238096Y-80916667D01*
X241190477Y-80821429D01*
X241142858Y-80773810D01*
X241047620Y-80726190D01*
X240857143Y-80678571D01*
X240761905Y-80630952D01*
X240714286Y-80583333D01*
X240666667Y-80488095D01*
X240666667Y-80392857D01*
X240714286Y-80297619D01*
X240761905Y-80250000D01*
X240857143Y-80202381D01*
X241095239Y-80202381D01*
X241238096Y-80250000D01*
X241571429Y-80202381D02*
X241809524Y-81202381D01*
X242000001Y-80488095D01*
X242190477Y-81202381D01*
X242428572Y-80202381D01*
X243333334Y-81202381D02*
X242761905Y-81202381D01*
X243047619Y-81202381D02*
X243047619Y-80202381D01*
X242952381Y-80345238D01*
X242857143Y-80440476D01*
X242761905Y-80488095D01*
X230238095Y-96452381D02*
X230238095Y-97261905D01*
X230285714Y-97357143D01*
X230333333Y-97404762D01*
X230428571Y-97452381D01*
X230619048Y-97452381D01*
X230714286Y-97404762D01*
X230761905Y-97357143D01*
X230809524Y-97261905D01*
X230809524Y-96452381D01*
X231809524Y-97452381D02*
X231238095Y-97452381D01*
X231523809Y-97452381D02*
X231523809Y-96452381D01*
X231428571Y-96595238D01*
X231333333Y-96690476D01*
X231238095Y-96738095D01*
X243238095Y-96452381D02*
X243238095Y-97261905D01*
X243285714Y-97357143D01*
X243333333Y-97404762D01*
X243428571Y-97452381D01*
X243619048Y-97452381D01*
X243714286Y-97404762D01*
X243761905Y-97357143D01*
X243809524Y-97261905D01*
X243809524Y-96452381D01*
X244238095Y-96547619D02*
X244285714Y-96500000D01*
X244380952Y-96452381D01*
X244619048Y-96452381D01*
X244714286Y-96500000D01*
X244761905Y-96547619D01*
X244809524Y-96642857D01*
X244809524Y-96738095D01*
X244761905Y-96880952D01*
X244190476Y-97452381D01*
X244809524Y-97452381D01*
X255238095Y-96452381D02*
X255238095Y-97261905D01*
X255285714Y-97357143D01*
X255333333Y-97404762D01*
X255428571Y-97452381D01*
X255619048Y-97452381D01*
X255714286Y-97404762D01*
X255761905Y-97357143D01*
X255809524Y-97261905D01*
X255809524Y-96452381D01*
X256190476Y-96452381D02*
X256809524Y-96452381D01*
X256476190Y-96833333D01*
X256619048Y-96833333D01*
X256714286Y-96880952D01*
X256761905Y-96928571D01*
X256809524Y-97023810D01*
X256809524Y-97261905D01*
X256761905Y-97357143D01*
X256714286Y-97404762D01*
X256619048Y-97452381D01*
X256333333Y-97452381D01*
X256238095Y-97404762D01*
X256190476Y-97357143D01*
X248352381Y-118761905D02*
X249161905Y-118761905D01*
X249257143Y-118714286D01*
X249304762Y-118666667D01*
X249352381Y-118571429D01*
X249352381Y-118380952D01*
X249304762Y-118285714D01*
X249257143Y-118238095D01*
X249161905Y-118190476D01*
X248352381Y-118190476D01*
X248685714Y-117285714D02*
X249352381Y-117285714D01*
X248304762Y-117523810D02*
X249019048Y-117761905D01*
X249019048Y-117142857D01*
X251018095Y-82212381D02*
X251018095Y-83021905D01*
X251065714Y-83117143D01*
X251113333Y-83164762D01*
X251208571Y-83212381D01*
X251399048Y-83212381D01*
X251494286Y-83164762D01*
X251541905Y-83117143D01*
X251589524Y-83021905D01*
X251589524Y-82212381D01*
X252541905Y-82212381D02*
X252065714Y-82212381D01*
X252018095Y-82688571D01*
X252065714Y-82640952D01*
X252160952Y-82593333D01*
X252399048Y-82593333D01*
X252494286Y-82640952D01*
X252541905Y-82688571D01*
X252589524Y-82783810D01*
X252589524Y-83021905D01*
X252541905Y-83117143D01*
X252494286Y-83164762D01*
X252399048Y-83212381D01*
X252160952Y-83212381D01*
X252065714Y-83164762D01*
X252018095Y-83117143D01*
X228238095Y-79452381D02*
X228238095Y-80261905D01*
X228285714Y-80357143D01*
X228333333Y-80404762D01*
X228428571Y-80452381D01*
X228619048Y-80452381D01*
X228714286Y-80404762D01*
X228761905Y-80357143D01*
X228809524Y-80261905D01*
X228809524Y-79452381D01*
X229714286Y-79452381D02*
X229523809Y-79452381D01*
X229428571Y-79500000D01*
X229380952Y-79547619D01*
X229285714Y-79690476D01*
X229238095Y-79880952D01*
X229238095Y-80261905D01*
X229285714Y-80357143D01*
X229333333Y-80404762D01*
X229428571Y-80452381D01*
X229619048Y-80452381D01*
X229714286Y-80404762D01*
X229761905Y-80357143D01*
X229809524Y-80261905D01*
X229809524Y-80023810D01*
X229761905Y-79928571D01*
X229714286Y-79880952D01*
X229619048Y-79833333D01*
X229428571Y-79833333D01*
X229333333Y-79880952D01*
X229285714Y-79928571D01*
X229238095Y-80023810D01*
X217838095Y-130252381D02*
X217838095Y-131061905D01*
X217885714Y-131157143D01*
X217933333Y-131204762D01*
X218028571Y-131252381D01*
X218219048Y-131252381D01*
X218314286Y-131204762D01*
X218361905Y-131157143D01*
X218409524Y-131061905D01*
X218409524Y-130252381D01*
X218790476Y-130252381D02*
X219457143Y-130252381D01*
X219028571Y-131252381D01*
X228852381Y-71738095D02*
X227852381Y-71738095D01*
X227852381Y-71500000D01*
X227900000Y-71357142D01*
X227995238Y-71261904D01*
X228090476Y-71214285D01*
X228280952Y-71166666D01*
X228423810Y-71166666D01*
X228614286Y-71214285D01*
X228709524Y-71261904D01*
X228804762Y-71357142D01*
X228852381Y-71500000D01*
X228852381Y-71738095D01*
X227852381Y-70833333D02*
X227852381Y-70214285D01*
X228233333Y-70547619D01*
X228233333Y-70404761D01*
X228280952Y-70309523D01*
X228328571Y-70261904D01*
X228423810Y-70214285D01*
X228661905Y-70214285D01*
X228757143Y-70261904D01*
X228804762Y-70309523D01*
X228852381Y-70404761D01*
X228852381Y-70690476D01*
X228804762Y-70785714D01*
X228757143Y-70833333D01*
X229261905Y-123152381D02*
X229261905Y-122152381D01*
X229500000Y-122152381D01*
X229642858Y-122200000D01*
X229738096Y-122295238D01*
X229785715Y-122390476D01*
X229833334Y-122580952D01*
X229833334Y-122723810D01*
X229785715Y-122914286D01*
X229738096Y-123009524D01*
X229642858Y-123104762D01*
X229500000Y-123152381D01*
X229261905Y-123152381D01*
X230690477Y-122485714D02*
X230690477Y-123152381D01*
X230452381Y-122104762D02*
X230214286Y-122819048D01*
X230833334Y-122819048D01*
X238161905Y-129352381D02*
X238161905Y-128352381D01*
X238400000Y-128352381D01*
X238542858Y-128400000D01*
X238638096Y-128495238D01*
X238685715Y-128590476D01*
X238733334Y-128780952D01*
X238733334Y-128923810D01*
X238685715Y-129114286D01*
X238638096Y-129209524D01*
X238542858Y-129304762D01*
X238400000Y-129352381D01*
X238161905Y-129352381D01*
X239638096Y-128352381D02*
X239161905Y-128352381D01*
X239114286Y-128828571D01*
X239161905Y-128780952D01*
X239257143Y-128733333D01*
X239495239Y-128733333D01*
X239590477Y-128780952D01*
X239638096Y-128828571D01*
X239685715Y-128923810D01*
X239685715Y-129161905D01*
X239638096Y-129257143D01*
X239590477Y-129304762D01*
X239495239Y-129352381D01*
X239257143Y-129352381D01*
X239161905Y-129304762D01*
X239114286Y-129257143D01*
X233933334Y-132002381D02*
X233600000Y-131526190D01*
X233361905Y-132002381D02*
X233361905Y-131002381D01*
X233742858Y-131002381D01*
X233838096Y-131050000D01*
X233885715Y-131097619D01*
X233933334Y-131192857D01*
X233933334Y-131335714D01*
X233885715Y-131430952D01*
X233838096Y-131478571D01*
X233742858Y-131526190D01*
X233361905Y-131526190D01*
X234504762Y-131430952D02*
X234409524Y-131383333D01*
X234361905Y-131335714D01*
X234314286Y-131240476D01*
X234314286Y-131192857D01*
X234361905Y-131097619D01*
X234409524Y-131050000D01*
X234504762Y-131002381D01*
X234695239Y-131002381D01*
X234790477Y-131050000D01*
X234838096Y-131097619D01*
X234885715Y-131192857D01*
X234885715Y-131240476D01*
X234838096Y-131335714D01*
X234790477Y-131383333D01*
X234695239Y-131430952D01*
X234504762Y-131430952D01*
X234409524Y-131478571D01*
X234361905Y-131526190D01*
X234314286Y-131621429D01*
X234314286Y-131811905D01*
X234361905Y-131907143D01*
X234409524Y-131954762D01*
X234504762Y-132002381D01*
X234695239Y-132002381D01*
X234790477Y-131954762D01*
X234838096Y-131907143D01*
X234885715Y-131811905D01*
X234885715Y-131621429D01*
X234838096Y-131526190D01*
X234790477Y-131478571D01*
X234695239Y-131430952D01*
X227533334Y-134202381D02*
X227200000Y-133726190D01*
X226961905Y-134202381D02*
X226961905Y-133202381D01*
X227342858Y-133202381D01*
X227438096Y-133250000D01*
X227485715Y-133297619D01*
X227533334Y-133392857D01*
X227533334Y-133535714D01*
X227485715Y-133630952D01*
X227438096Y-133678571D01*
X227342858Y-133726190D01*
X226961905Y-133726190D01*
X228009524Y-134202381D02*
X228200000Y-134202381D01*
X228295239Y-134154762D01*
X228342858Y-134107143D01*
X228438096Y-133964286D01*
X228485715Y-133773810D01*
X228485715Y-133392857D01*
X228438096Y-133297619D01*
X228390477Y-133250000D01*
X228295239Y-133202381D01*
X228104762Y-133202381D01*
X228009524Y-133250000D01*
X227961905Y-133297619D01*
X227914286Y-133392857D01*
X227914286Y-133630952D01*
X227961905Y-133726190D01*
X228009524Y-133773810D01*
X228104762Y-133821429D01*
X228295239Y-133821429D01*
X228390477Y-133773810D01*
X228438096Y-133726190D01*
X228485715Y-133630952D01*
X220757143Y-145952381D02*
X220423809Y-145476190D01*
X220185714Y-145952381D02*
X220185714Y-144952381D01*
X220566667Y-144952381D01*
X220661905Y-145000000D01*
X220709524Y-145047619D01*
X220757143Y-145142857D01*
X220757143Y-145285714D01*
X220709524Y-145380952D01*
X220661905Y-145428571D01*
X220566667Y-145476190D01*
X220185714Y-145476190D01*
X221709524Y-145952381D02*
X221138095Y-145952381D01*
X221423809Y-145952381D02*
X221423809Y-144952381D01*
X221328571Y-145095238D01*
X221233333Y-145190476D01*
X221138095Y-145238095D01*
X222328571Y-144952381D02*
X222423810Y-144952381D01*
X222519048Y-145000000D01*
X222566667Y-145047619D01*
X222614286Y-145142857D01*
X222661905Y-145333333D01*
X222661905Y-145571429D01*
X222614286Y-145761905D01*
X222566667Y-145857143D01*
X222519048Y-145904762D01*
X222423810Y-145952381D01*
X222328571Y-145952381D01*
X222233333Y-145904762D01*
X222185714Y-145857143D01*
X222138095Y-145761905D01*
X222090476Y-145571429D01*
X222090476Y-145333333D01*
X222138095Y-145142857D01*
X222185714Y-145047619D01*
X222233333Y-145000000D01*
X222328571Y-144952381D01*
X228804762Y-142947619D02*
X228709524Y-142900000D01*
X228614286Y-142804762D01*
X228471429Y-142661905D01*
X228376190Y-142614286D01*
X228280952Y-142614286D01*
X228328571Y-142852381D02*
X228233333Y-142804762D01*
X228138095Y-142709524D01*
X228090476Y-142519048D01*
X228090476Y-142185714D01*
X228138095Y-141995238D01*
X228233333Y-141900000D01*
X228328571Y-141852381D01*
X228519048Y-141852381D01*
X228614286Y-141900000D01*
X228709524Y-141995238D01*
X228757143Y-142185714D01*
X228757143Y-142519048D01*
X228709524Y-142709524D01*
X228614286Y-142804762D01*
X228519048Y-142852381D01*
X228328571Y-142852381D01*
X229661905Y-141852381D02*
X229185714Y-141852381D01*
X229138095Y-142328571D01*
X229185714Y-142280952D01*
X229280952Y-142233333D01*
X229519048Y-142233333D01*
X229614286Y-142280952D01*
X229661905Y-142328571D01*
X229709524Y-142423810D01*
X229709524Y-142661905D01*
X229661905Y-142757143D01*
X229614286Y-142804762D01*
X229519048Y-142852381D01*
X229280952Y-142852381D01*
X229185714Y-142804762D01*
X229138095Y-142757143D01*
X215500001Y-139052381D02*
X215166667Y-138576190D01*
X214928572Y-139052381D02*
X214928572Y-138052381D01*
X215309525Y-138052381D01*
X215404763Y-138100000D01*
X215452382Y-138147619D01*
X215500001Y-138242857D01*
X215500001Y-138385714D01*
X215452382Y-138480952D01*
X215404763Y-138528571D01*
X215309525Y-138576190D01*
X214928572Y-138576190D01*
X216404763Y-139052381D02*
X215928572Y-139052381D01*
X215928572Y-138052381D01*
X216738096Y-139052381D02*
X216738096Y-138385714D01*
X216738096Y-138052381D02*
X216690477Y-138100000D01*
X216738096Y-138147619D01*
X216785715Y-138100000D01*
X216738096Y-138052381D01*
X216738096Y-138147619D01*
X217214286Y-139052381D02*
X217214286Y-138385714D01*
X217214286Y-138480952D02*
X217261905Y-138433333D01*
X217357143Y-138385714D01*
X217500001Y-138385714D01*
X217595239Y-138433333D01*
X217642858Y-138528571D01*
X217642858Y-139052381D01*
X217642858Y-138528571D02*
X217690477Y-138433333D01*
X217785715Y-138385714D01*
X217928572Y-138385714D01*
X218023810Y-138433333D01*
X218071429Y-138528571D01*
X218071429Y-139052381D01*
X218547619Y-139052381D02*
X218547619Y-138385714D01*
X218547619Y-138052381D02*
X218500000Y-138100000D01*
X218547619Y-138147619D01*
X218595238Y-138100000D01*
X218547619Y-138052381D01*
X218547619Y-138147619D01*
X218880952Y-138385714D02*
X219261904Y-138385714D01*
X219023809Y-138052381D02*
X219023809Y-138909524D01*
X219071428Y-139004762D01*
X219166666Y-139052381D01*
X219261904Y-139052381D01*
X219547619Y-138147619D02*
X219595238Y-138100000D01*
X219690476Y-138052381D01*
X219928572Y-138052381D01*
X220023810Y-138100000D01*
X220071429Y-138147619D01*
X220119048Y-138242857D01*
X220119048Y-138338095D01*
X220071429Y-138480952D01*
X219500000Y-139052381D01*
X220119048Y-139052381D01*
X221361905Y-63352381D02*
X221361905Y-62352381D01*
X221742858Y-62352381D01*
X221838096Y-62400000D01*
X221885715Y-62447619D01*
X221933334Y-62542857D01*
X221933334Y-62685714D01*
X221885715Y-62780952D01*
X221838096Y-62828571D01*
X221742858Y-62876190D01*
X221361905Y-62876190D01*
X222266667Y-62352381D02*
X222885715Y-62352381D01*
X222552381Y-62733333D01*
X222695239Y-62733333D01*
X222790477Y-62780952D01*
X222838096Y-62828571D01*
X222885715Y-62923810D01*
X222885715Y-63161905D01*
X222838096Y-63257143D01*
X222790477Y-63304762D01*
X222695239Y-63352381D01*
X222409524Y-63352381D01*
X222314286Y-63304762D01*
X222266667Y-63257143D01*
X213352381Y-134638095D02*
X212352381Y-134638095D01*
X212352381Y-134257142D01*
X212400000Y-134161904D01*
X212447619Y-134114285D01*
X212542857Y-134066666D01*
X212685714Y-134066666D01*
X212780952Y-134114285D01*
X212828571Y-134161904D01*
X212876190Y-134257142D01*
X212876190Y-134638095D01*
X212685714Y-133209523D02*
X213352381Y-133209523D01*
X212304762Y-133447619D02*
X213019048Y-133685714D01*
X213019048Y-133066666D01*
X209552381Y-124838095D02*
X208552381Y-124838095D01*
X208552381Y-124457142D01*
X208600000Y-124361904D01*
X208647619Y-124314285D01*
X208742857Y-124266666D01*
X208885714Y-124266666D01*
X208980952Y-124314285D01*
X209028571Y-124361904D01*
X209076190Y-124457142D01*
X209076190Y-124838095D01*
X208552381Y-123361904D02*
X208552381Y-123838095D01*
X209028571Y-123885714D01*
X208980952Y-123838095D01*
X208933333Y-123742857D01*
X208933333Y-123504761D01*
X208980952Y-123409523D01*
X209028571Y-123361904D01*
X209123810Y-123314285D01*
X209361905Y-123314285D01*
X209457143Y-123361904D01*
X209504762Y-123409523D01*
X209552381Y-123504761D01*
X209552381Y-123742857D01*
X209504762Y-123838095D01*
X209457143Y-123885714D01*
X231361905Y-63352381D02*
X231361905Y-62352381D01*
X231742858Y-62352381D01*
X231838096Y-62400000D01*
X231885715Y-62447619D01*
X231933334Y-62542857D01*
X231933334Y-62685714D01*
X231885715Y-62780952D01*
X231838096Y-62828571D01*
X231742858Y-62876190D01*
X231361905Y-62876190D01*
X232504762Y-62780952D02*
X232409524Y-62733333D01*
X232361905Y-62685714D01*
X232314286Y-62590476D01*
X232314286Y-62542857D01*
X232361905Y-62447619D01*
X232409524Y-62400000D01*
X232504762Y-62352381D01*
X232695239Y-62352381D01*
X232790477Y-62400000D01*
X232838096Y-62447619D01*
X232885715Y-62542857D01*
X232885715Y-62590476D01*
X232838096Y-62685714D01*
X232790477Y-62733333D01*
X232695239Y-62780952D01*
X232504762Y-62780952D01*
X232409524Y-62828571D01*
X232361905Y-62876190D01*
X232314286Y-62971429D01*
X232314286Y-63161905D01*
X232361905Y-63257143D01*
X232409524Y-63304762D01*
X232504762Y-63352381D01*
X232695239Y-63352381D01*
X232790477Y-63304762D01*
X232838096Y-63257143D01*
X232885715Y-63161905D01*
X232885715Y-62971429D01*
X232838096Y-62876190D01*
X232790477Y-62828571D01*
X232695239Y-62780952D01*
X267352381Y-145638095D02*
X266352381Y-145638095D01*
X266352381Y-145257142D01*
X266400000Y-145161904D01*
X266447619Y-145114285D01*
X266542857Y-145066666D01*
X266685714Y-145066666D01*
X266780952Y-145114285D01*
X266828571Y-145161904D01*
X266876190Y-145257142D01*
X266876190Y-145638095D01*
X267352381Y-144590476D02*
X267352381Y-144400000D01*
X267304762Y-144304761D01*
X267257143Y-144257142D01*
X267114286Y-144161904D01*
X266923810Y-144114285D01*
X266542857Y-144114285D01*
X266447619Y-144161904D01*
X266400000Y-144209523D01*
X266352381Y-144304761D01*
X266352381Y-144495238D01*
X266400000Y-144590476D01*
X266447619Y-144638095D01*
X266542857Y-144685714D01*
X266780952Y-144685714D01*
X266876190Y-144638095D01*
X266923810Y-144590476D01*
X266971429Y-144495238D01*
X266971429Y-144304761D01*
X266923810Y-144209523D01*
X266876190Y-144161904D01*
X266780952Y-144114285D01*
X240685714Y-59552381D02*
X240685714Y-58552381D01*
X241066667Y-58552381D01*
X241161905Y-58600000D01*
X241209524Y-58647619D01*
X241257143Y-58742857D01*
X241257143Y-58885714D01*
X241209524Y-58980952D01*
X241161905Y-59028571D01*
X241066667Y-59076190D01*
X240685714Y-59076190D01*
X242209524Y-59552381D02*
X241638095Y-59552381D01*
X241923809Y-59552381D02*
X241923809Y-58552381D01*
X241828571Y-58695238D01*
X241733333Y-58790476D01*
X241638095Y-58838095D01*
X243161905Y-59552381D02*
X242590476Y-59552381D01*
X242876190Y-59552381D02*
X242876190Y-58552381D01*
X242780952Y-58695238D01*
X242685714Y-58790476D01*
X242590476Y-58838095D01*
X252685714Y-59552381D02*
X252685714Y-58552381D01*
X253066667Y-58552381D01*
X253161905Y-58600000D01*
X253209524Y-58647619D01*
X253257143Y-58742857D01*
X253257143Y-58885714D01*
X253209524Y-58980952D01*
X253161905Y-59028571D01*
X253066667Y-59076190D01*
X252685714Y-59076190D01*
X254209524Y-59552381D02*
X253638095Y-59552381D01*
X253923809Y-59552381D02*
X253923809Y-58552381D01*
X253828571Y-58695238D01*
X253733333Y-58790476D01*
X253638095Y-58838095D01*
X254590476Y-58647619D02*
X254638095Y-58600000D01*
X254733333Y-58552381D01*
X254971429Y-58552381D01*
X255066667Y-58600000D01*
X255114286Y-58647619D01*
X255161905Y-58742857D01*
X255161905Y-58838095D01*
X255114286Y-58980952D01*
X254542857Y-59552381D01*
X255161905Y-59552381D01*
X267352381Y-78114286D02*
X266352381Y-78114286D01*
X266352381Y-77733333D01*
X266400000Y-77638095D01*
X266447619Y-77590476D01*
X266542857Y-77542857D01*
X266685714Y-77542857D01*
X266780952Y-77590476D01*
X266828571Y-77638095D01*
X266876190Y-77733333D01*
X266876190Y-78114286D01*
X267352381Y-76590476D02*
X267352381Y-77161905D01*
X267352381Y-76876191D02*
X266352381Y-76876191D01*
X266495238Y-76971429D01*
X266590476Y-77066667D01*
X266638095Y-77161905D01*
X266685714Y-75733333D02*
X267352381Y-75733333D01*
X266304762Y-75971429D02*
X267019048Y-76209524D01*
X267019048Y-75590476D01*
X263552381Y-68314286D02*
X262552381Y-68314286D01*
X262552381Y-67933333D01*
X262600000Y-67838095D01*
X262647619Y-67790476D01*
X262742857Y-67742857D01*
X262885714Y-67742857D01*
X262980952Y-67790476D01*
X263028571Y-67838095D01*
X263076190Y-67933333D01*
X263076190Y-68314286D01*
X263552381Y-66790476D02*
X263552381Y-67361905D01*
X263552381Y-67076191D02*
X262552381Y-67076191D01*
X262695238Y-67171429D01*
X262790476Y-67266667D01*
X262838095Y-67361905D01*
X262552381Y-65885714D02*
X262552381Y-66361905D01*
X263028571Y-66409524D01*
X262980952Y-66361905D01*
X262933333Y-66266667D01*
X262933333Y-66028571D01*
X262980952Y-65933333D01*
X263028571Y-65885714D01*
X263123810Y-65838095D01*
X263361905Y-65838095D01*
X263457143Y-65885714D01*
X263504762Y-65933333D01*
X263552381Y-66028571D01*
X263552381Y-66266667D01*
X263504762Y-66361905D01*
X263457143Y-66409524D01*
X268202381Y-133964286D02*
X267202381Y-133964286D01*
X267202381Y-133583333D01*
X267250000Y-133488095D01*
X267297619Y-133440476D01*
X267392857Y-133392857D01*
X267535714Y-133392857D01*
X267630952Y-133440476D01*
X267678571Y-133488095D01*
X267726190Y-133583333D01*
X267726190Y-133964286D01*
X268202381Y-132440476D02*
X268202381Y-133011905D01*
X268202381Y-132726191D02*
X267202381Y-132726191D01*
X267345238Y-132821429D01*
X267440476Y-132916667D01*
X267488095Y-133011905D01*
X267202381Y-132107143D02*
X267202381Y-131488095D01*
X267583333Y-131821429D01*
X267583333Y-131678571D01*
X267630952Y-131583333D01*
X267678571Y-131535714D01*
X267773810Y-131488095D01*
X268011905Y-131488095D01*
X268107143Y-131535714D01*
X268154762Y-131583333D01*
X268202381Y-131678571D01*
X268202381Y-131964286D01*
X268154762Y-132059524D01*
X268107143Y-132107143D01*
X214202381Y-112488095D02*
X213202381Y-112488095D01*
X213202381Y-112107142D01*
X213250000Y-112011904D01*
X213297619Y-111964285D01*
X213392857Y-111916666D01*
X213535714Y-111916666D01*
X213630952Y-111964285D01*
X213678571Y-112011904D01*
X213726190Y-112107142D01*
X213726190Y-112488095D01*
X213202381Y-111583333D02*
X213202381Y-110916666D01*
X214202381Y-111345238D01*
X208702381Y-146988095D02*
X207702381Y-146988095D01*
X207702381Y-146607142D01*
X207750000Y-146511904D01*
X207797619Y-146464285D01*
X207892857Y-146416666D01*
X208035714Y-146416666D01*
X208130952Y-146464285D01*
X208178571Y-146511904D01*
X208226190Y-146607142D01*
X208226190Y-146988095D01*
X207702381Y-145559523D02*
X207702381Y-145750000D01*
X207750000Y-145845238D01*
X207797619Y-145892857D01*
X207940476Y-145988095D01*
X208130952Y-146035714D01*
X208511905Y-146035714D01*
X208607143Y-145988095D01*
X208654762Y-145940476D01*
X208702381Y-145845238D01*
X208702381Y-145654761D01*
X208654762Y-145559523D01*
X208607143Y-145511904D01*
X208511905Y-145464285D01*
X208273810Y-145464285D01*
X208178571Y-145511904D01*
X208130952Y-145559523D01*
X208083333Y-145654761D01*
X208083333Y-145845238D01*
X208130952Y-145940476D01*
X208178571Y-145988095D01*
X208273810Y-146035714D01*
X262702381Y-88488095D02*
X261702381Y-88488095D01*
X261702381Y-88107142D01*
X261750000Y-88011904D01*
X261797619Y-87964285D01*
X261892857Y-87916666D01*
X262035714Y-87916666D01*
X262130952Y-87964285D01*
X262178571Y-88011904D01*
X262226190Y-88107142D01*
X262226190Y-88488095D01*
X261797619Y-87535714D02*
X261750000Y-87488095D01*
X261702381Y-87392857D01*
X261702381Y-87154761D01*
X261750000Y-87059523D01*
X261797619Y-87011904D01*
X261892857Y-86964285D01*
X261988095Y-86964285D01*
X262130952Y-87011904D01*
X262702381Y-87583333D01*
X262702381Y-86964285D01*
X262702381Y-103988095D02*
X261702381Y-103988095D01*
X261702381Y-103607142D01*
X261750000Y-103511904D01*
X261797619Y-103464285D01*
X261892857Y-103416666D01*
X262035714Y-103416666D01*
X262130952Y-103464285D01*
X262178571Y-103511904D01*
X262226190Y-103607142D01*
X262226190Y-103988095D01*
X262702381Y-102464285D02*
X262702381Y-103035714D01*
X262702381Y-102750000D02*
X261702381Y-102750000D01*
X261845238Y-102845238D01*
X261940476Y-102940476D01*
X261988095Y-103035714D01*
X262702381Y-119464286D02*
X261702381Y-119464286D01*
X261702381Y-119083333D01*
X261750000Y-118988095D01*
X261797619Y-118940476D01*
X261892857Y-118892857D01*
X262035714Y-118892857D01*
X262130952Y-118940476D01*
X262178571Y-118988095D01*
X262226190Y-119083333D01*
X262226190Y-119464286D01*
X262702381Y-117940476D02*
X262702381Y-118511905D01*
X262702381Y-118226191D02*
X261702381Y-118226191D01*
X261845238Y-118321429D01*
X261940476Y-118416667D01*
X261988095Y-118511905D01*
X261702381Y-117321429D02*
X261702381Y-117226190D01*
X261750000Y-117130952D01*
X261797619Y-117083333D01*
X261892857Y-117035714D01*
X262083333Y-116988095D01*
X262321429Y-116988095D01*
X262511905Y-117035714D01*
X262607143Y-117083333D01*
X262654762Y-117130952D01*
X262702381Y-117226190D01*
X262702381Y-117321429D01*
X262654762Y-117416667D01*
X262607143Y-117464286D01*
X262511905Y-117511905D01*
X262321429Y-117559524D01*
X262083333Y-117559524D01*
X261892857Y-117511905D01*
X261797619Y-117464286D01*
X261750000Y-117416667D01*
X261702381Y-117321429D01*
M02*
